<svg width="241" height="125" viewBox="0 0 241 125" fill="none" xmlns="http://www.w3.org/2000/svg">
<path d="M4.98159 73.2612L5.95606 73.0367L5.46492 70.905C5.32363 70.2918 5.21341 69.679 5.1339 69.0682L4.14366 69.1981C3.97183 67.8786 3.9349 66.5672 4.02226 65.2787L5.01881 65.3457C5.10373 64.0937 5.3125 62.8646 5.63595 61.6739L4.67168 61.4121C5.01641 60.143 5.48406 58.9156 6.06499 57.7469L6.96003 58.191C7.51411 57.0765 8.17621 56.0179 8.93597 55.032L8.14419 54.4227C8.9408 53.3889 9.83998 52.4314 10.8302 51.566L11.4883 52.3173C12.4174 51.5055 13.4313 50.7799 14.5198 50.1557L14.0228 49.2901C15.1431 48.6477 16.3385 48.1072 17.6002 47.6842L17.9174 48.6303C18.5014 48.4345 19.1007 48.2655 19.7139 48.1242L21.6428 47.6798L21.4183 46.7053L25.2753 45.8166L25.4998 46.7911L29.3568 45.9024L29.1322 44.928L32.9901 44.0391L33.2147 45.0135L37.0716 44.1249L36.8471 43.1504L40.7041 42.2618L40.9286 43.2362L44.7865 42.3473L44.562 41.3729L48.4189 40.4842L48.6434 41.4587L52.5004 40.57L52.2759 39.5955L56.1338 38.7067L56.3583 39.6811L60.2153 38.7925L59.9907 37.818L63.8477 36.9293L64.0722 37.9038L67.9301 37.0149L67.7056 36.0405L71.5626 35.1518L71.7871 36.1263L75.644 35.2376L75.4195 34.2631L79.2774 33.3742L79.5019 34.3487L83.3589 33.4601L83.1344 32.4856L86.9913 31.5969L87.2158 32.5714L91.0738 31.6825L90.8492 30.708L94.7062 29.8194L94.9307 30.7938L98.7877 29.9052L98.5631 28.9307L102.421 28.0418L102.646 29.0163L106.503 28.1276L106.278 27.1532L110.135 26.2645L110.359 27.239L114.217 26.3501L113.993 25.3756L117.85 24.487L118.074 25.4614L121.931 24.5728L121.707 23.5983L125.565 22.7094L125.789 23.6839L129.646 22.7952L129.422 21.8208L133.279 20.9321L133.503 21.9066L137.361 21.0177L137.136 20.0432L140.993 19.1545L141.218 20.129L145.075 19.2403L144.85 18.2659L148.708 17.377L148.933 18.3515L152.79 17.4628L152.565 16.4883L156.422 15.5997L156.647 16.5741L160.505 15.6853L160.28 14.7108L164.137 13.8221L164.362 14.7966L168.219 13.9079L167.994 12.9335L171.852 12.0446L172.076 13.0191L175.933 12.1304L175.709 11.1559L179.566 10.2673L179.79 11.2417L183.648 10.3528L183.424 9.37838L187.281 8.48971L187.505 9.46418L191.362 8.57552L191.138 7.60105L194.996 6.71217L195.22 7.68664L199.077 6.79797L198.853 5.82351L202.709 4.93484L202.934 5.90931L204.863 5.46487C205.476 5.32358 206.089 5.21336 206.7 5.13385L206.57 4.14456C207.89 3.97273 209.201 3.93578 210.49 4.02316L210.422 5.01876C211.674 5.10368 212.903 5.31245 214.094 5.6359L214.356 4.67258C215.625 5.01736 216.853 5.4849 218.021 6.0659L217.577 6.95998C218.692 7.51406 219.75 8.17616 220.736 8.93592L221.346 8.14509C222.379 8.94176 223.337 9.84081 224.202 10.8311L223.451 11.4883C224.263 12.4174 224.988 13.4312 225.612 14.5198L226.478 14.0237C227.12 15.1441 227.661 16.3394 228.084 17.6011L227.138 17.9174C227.333 18.5014 227.503 19.1006 227.644 19.7138L228.135 21.8455L229.109 21.621L230.092 25.8843L229.117 26.1088L230.1 30.3721L231.074 30.1476L232.056 34.4109L231.082 34.6354L232.064 38.8987L233.039 38.6742L234.021 42.9375L233.046 43.162L234.029 47.4253L235.003 47.2008L235.985 51.4641L235.011 51.6886L235.502 53.8203C235.643 54.4335 235.754 55.0463 235.833 55.6571L236.823 55.5283C236.994 56.8479 237.031 58.1593 236.944 59.4478L235.948 59.3796C235.863 60.6315 235.655 61.8607 235.331 63.0514L236.295 63.3144C235.95 64.5834 235.482 65.8109 234.901 66.9796L234.007 66.5343C233.453 67.6488 232.791 68.7074 232.031 69.6933L232.822 70.3038C232.025 71.3375 231.126 72.2951 230.136 73.1604L229.479 72.408C228.55 73.2198 227.536 73.9454 226.447 74.5696L226.944 75.4363C225.823 76.0787 224.628 76.6194 223.366 77.0422L223.05 76.095C222.466 76.2908 221.866 76.4598 221.253 76.6011L219.324 77.0455L219.549 78.02L215.692 78.9087L215.467 77.9342L211.61 78.8229L211.835 79.7973L207.977 80.6862L207.752 79.7117L203.895 80.6004L204.12 81.5749L200.263 82.4635L200.038 81.4891L196.181 82.378L196.405 83.3524L192.548 84.2411L192.324 83.2666L188.467 84.1553L188.691 85.1297L184.833 86.0186L184.609 85.0442L180.752 85.9328L180.976 86.9073L177.119 87.796L176.895 86.8215L173.037 87.7104L173.261 88.6848L169.404 89.5735L169.18 88.599L165.323 89.4877L165.548 90.4622L161.69 91.351L161.465 90.3766L157.608 91.2652L157.833 92.2397L153.976 93.1284L153.751 92.1539L149.893 93.0428L150.118 94.0173L146.261 94.9059L146.036 93.9314L142.179 94.8201L142.404 95.7946L138.546 96.6835L138.321 95.709L134.465 96.5977L134.689 97.5721L130.832 98.4608L130.608 97.4863L126.75 98.3752L126.974 99.3497L123.117 100.238L122.893 99.2639L119.036 100.153L119.26 101.127L115.402 102.016L115.178 101.041L111.321 101.93L111.545 102.905L107.688 103.793L107.464 102.819L103.606 103.708L103.831 104.682L99.9736 105.571L99.7491 104.596L95.8921 105.485L96.1166 106.459L92.2587 107.348L92.0342 106.374L88.1772 107.262L88.4018 108.237L84.5448 109.126L84.3203 108.151L80.4624 109.04L80.6869 110.014L76.8299 110.903L76.6054 109.929L72.7485 110.817L72.973 111.792L69.1151 112.681L68.8906 111.706L65.0336 112.595L65.2581 113.569L61.4012 114.458L61.1766 113.484L57.3187 114.372L57.5433 115.347L53.6863 116.236L53.4618 115.261L49.6048 116.15L49.8294 117.124L45.9714 118.013L45.7469 117.039L41.89 117.927L42.1145 118.902L38.2575 119.79L38.033 118.816L36.1041 119.26C35.4908 119.402 34.878 119.512 34.2672 119.591L34.3962 120.582C33.0767 120.754 31.7652 120.791 30.4767 120.703L30.5447 119.707C29.2928 119.622 28.0636 119.413 26.8729 119.089L26.6101 120.054C25.3411 119.709 24.1136 119.242 22.9449 118.661L23.3901 117.765C22.2755 117.211 21.2169 116.549 20.231 115.789L19.6208 116.581C18.587 115.785 17.6294 114.886 16.7641 113.895L17.5164 113.237C16.7045 112.308 15.9789 111.294 15.3547 110.206L14.4882 110.703C13.8458 109.582 13.3052 108.387 12.8823 107.125L13.8293 106.808C13.6335 106.224 13.4645 105.625 13.3232 105.011L12.8321 102.88L11.8576 103.104L10.8753 98.841L11.8498 98.6165L10.8675 94.3532L9.89303 94.5777L8.91074 90.3144L9.88521 90.0899L8.90292 85.8266L7.92846 86.0511L6.94617 81.7878L7.92064 81.5633L6.93835 77.3L5.96388 77.5245L4.98159 73.2612Z" stroke="#A1B6CB" stroke-width="2" stroke-dasharray="4 4"/>
<path d="M64.9699 69.8171C64.0084 70.0386 63.0924 70.0718 62.222 69.9166C61.3516 69.7614 60.558 69.4346 59.8411 68.9361C59.1227 68.4312 58.5044 67.7664 57.986 66.9417C57.4726 66.1091 57.0857 65.1276 56.8252 63.9972C56.4809 62.503 56.4494 61.1488 56.7307 59.9347C57.0119 58.7205 57.5684 57.7064 58.4002 56.8922C59.2304 56.0715 60.2985 55.5107 61.6043 55.2098C63.1764 54.8476 64.5278 54.9228 65.6584 55.4353C66.7875 55.9414 67.6799 56.7859 68.3356 57.9689L66.6646 58.7336C66.1762 57.9499 65.5391 57.3818 64.7532 57.0293C63.9673 56.6767 63.0741 56.6157 62.0737 56.8462C61.0262 57.0807 60.2096 57.5151 59.6237 58.1495C59.0429 58.776 58.6751 59.5551 58.5204 60.487C58.3656 61.4188 58.4145 62.4474 58.667 63.5728C58.9179 64.6917 59.3161 65.633 59.8615 66.3967C60.4069 67.1604 61.0825 67.7026 61.8884 68.0232C62.6993 68.3357 63.6284 68.3748 64.6759 68.1403C65.5804 67.9387 66.3008 67.5915 66.8371 67.0985C67.3735 66.6054 67.7342 65.9887 67.9193 65.2482C68.1045 64.5078 68.1258 63.6648 67.9832 62.7193L65.0013 63.4064L64.6713 61.9739L69.4851 60.8648C69.5346 60.9902 69.5802 61.1439 69.6221 61.3258C69.6691 61.4997 69.7 61.6191 69.715 61.6841C70.0098 62.9639 70.0337 64.1659 69.7864 65.2901C69.5442 66.4063 69.0219 67.3613 68.2197 68.155C67.4239 68.9473 66.3406 69.5013 64.9699 69.8171ZM73.1342 67.6281L70.7093 57.1039L72.2587 56.7469L72.8447 59.2903L72.515 59.0173C72.5636 58.664 72.6539 58.3285 72.786 58.0108C72.9245 57.6915 73.097 57.4158 73.3034 57.1835C73.5254 56.8997 73.7951 56.6597 74.1124 56.4635C74.4298 56.2672 74.7649 56.1182 75.1177 56.0163C75.469 55.908 75.8088 55.8537 76.1371 55.8533L76.5121 57.4807C76.1258 57.467 75.7203 57.5331 75.2955 57.6789C74.8707 57.8246 74.5046 58.0766 74.1972 58.4348C73.9148 58.753 73.719 59.1059 73.6099 59.4936C73.5074 59.8799 73.4668 60.2826 73.4881 60.7018C73.5079 61.1146 73.5658 61.5289 73.6616 61.9446L74.8785 67.2263L73.1342 67.6281ZM84.8422 65.2384C83.8092 65.4764 82.8538 65.4571 81.976 65.1805C81.1031 64.8958 80.358 64.3937 79.7407 63.6739C79.1218 62.9476 78.6859 62.0355 78.4329 60.9376C78.168 59.7878 78.1501 58.7452 78.3793 57.8098C78.607 56.868 79.0452 56.0829 79.694 55.4545C80.3478 54.8181 81.1847 54.3824 82.2047 54.1474C83.2636 53.9035 84.2195 53.9398 85.0723 54.2564C85.9317 54.5715 86.6505 55.1379 87.2289 55.9555C87.8137 56.7717 88.2239 57.8095 88.4593 59.0688L86.7053 59.4729L86.5616 58.8493C86.2442 57.561 85.7588 56.6569 85.1054 56.137C84.4505 55.6106 83.6228 55.4626 82.6224 55.6931C81.5504 55.9401 80.8145 56.4723 80.4144 57.2896C80.0144 58.107 79.9626 59.1588 80.2589 60.4451C80.5448 61.6859 81.0457 62.583 81.7616 63.1364C82.4774 63.6898 83.3518 63.8475 84.3848 63.6095C85.0799 63.4494 85.6474 63.151 86.0873 62.7144C86.5271 62.2779 86.8244 61.7271 86.979 61.062L88.7778 61.253C88.5826 62.2763 88.1316 63.1396 87.4248 63.8429C86.723 64.5383 85.8621 65.0034 84.8422 65.2384ZM79.7865 61.067L79.4655 59.6735L87.2417 57.8818L87.5628 59.2753L79.7865 61.067ZM94.5977 62.9907C93.8116 63.1718 93.1193 63.1808 92.5207 63.0177C91.9271 62.8466 91.4393 62.5554 91.0572 62.144C90.6816 61.7311 90.4286 61.2421 90.2984 60.6769C90.1712 60.1247 90.1651 59.6233 90.2802 59.1726C90.4003 58.7139 90.6213 58.3073 90.9432 57.9526C91.2636 57.5914 91.6722 57.2715 92.169 56.9929C92.6378 56.7412 93.1696 56.4955 93.7643 56.2559C94.364 56.0082 94.9724 55.7688 95.5896 55.5377C96.2068 55.3066 96.7825 55.0884 97.3168 54.8832L96.7762 55.3875C96.5801 54.4475 96.2323 53.799 95.7328 53.4421C95.2397 53.0836 94.5124 53.0152 93.5509 53.2367C92.9143 53.3834 92.3893 53.6583 91.9759 54.0614C91.5675 54.4565 91.3407 55.0013 91.2955 55.6959L89.5341 55.5783C89.575 54.5975 89.8985 53.7601 90.5049 53.0662C91.1113 52.3724 92.0089 51.8885 93.1977 51.6146C94.1527 51.3945 95.0109 51.3781 95.7724 51.5652C96.5388 51.7444 97.1508 52.1439 97.6083 52.7636C97.8326 53.054 98.0084 53.3864 98.1357 53.7607C98.2614 54.1285 98.3722 54.5203 98.468 54.9361L99.9679 61.4455L98.4282 61.8003L97.8467 59.2764L98.2611 59.4272C98.0609 60.3695 97.6537 61.1407 97.0393 61.7406C96.4315 62.339 95.6176 62.7557 94.5977 62.9907ZM94.5262 61.4781C95.1499 61.3344 95.6637 61.0998 96.0675 60.7741C96.4764 60.4404 96.7786 60.0595 96.9741 59.6314C97.1681 59.1967 97.2572 58.752 97.2414 58.2973C97.264 57.95 97.2329 57.5775 97.1481 57.1797C97.0683 56.7739 97.0037 56.4639 96.9543 56.2495L97.6191 56.3734C97.0718 56.5816 96.5336 56.7843 96.0044 56.9814C95.4751 57.1786 94.9766 57.3756 94.5089 57.5723C94.0396 57.7625 93.6228 57.9578 93.2584 58.158C92.9935 58.3148 92.7509 58.4939 92.5304 58.6952C92.3165 58.895 92.1578 59.1265 92.0543 59.3898C91.9557 59.6451 91.9446 59.9384 92.021 60.2698C92.0868 60.5556 92.2212 60.812 92.424 61.0389C92.6332 61.2644 92.9093 61.4231 93.252 61.5152C93.6013 61.6057 94.026 61.5934 94.5262 61.4781ZM108.378 59.5079C107.782 59.775 107.176 59.9659 106.56 60.0807C105.951 60.2004 105.384 60.2044 104.859 60.0928C104.332 59.9747 103.891 59.707 103.535 59.2896C103.231 58.9217 103.021 58.5289 102.904 58.1111C102.792 57.6854 102.674 57.2029 102.55 56.6637L100.368 47.1918L102.102 46.7922L104.267 56.186C104.366 56.6148 104.453 56.9811 104.53 57.285C104.614 57.5873 104.742 57.8347 104.917 58.0271C105.246 58.389 105.673 58.5473 106.196 58.502C106.726 58.4552 107.338 58.2935 108.034 58.017L108.378 59.5079ZM99.2373 52.0394L98.9073 50.6069L105.953 48.9836L106.283 50.4161L99.2373 52.0394ZM118.917 57.3874C117.852 57.6329 116.891 57.6046 116.034 57.3024C115.183 56.9923 114.466 56.4632 113.883 55.7149C113.3 54.9667 112.879 54.0581 112.619 52.9892C112.379 51.8883 112.361 50.8764 112.566 49.9536C112.776 49.0227 113.2 48.2374 113.839 47.5975C114.479 46.9576 115.325 46.5164 116.377 46.274C117.488 46.018 118.506 46.0708 119.431 46.4324C120.362 46.7925 121.073 47.4154 121.565 48.301L119.968 49.2126C119.607 48.6528 119.137 48.2617 118.559 48.0391C117.987 47.815 117.38 47.7771 116.737 47.9253C116.016 48.0914 115.46 48.3973 115.07 48.8429C114.679 49.282 114.438 49.8233 114.347 50.4669C114.254 51.104 114.292 51.8033 114.461 52.5649C114.743 53.7312 115.23 54.6143 115.923 55.2142C116.62 55.8061 117.492 55.9815 118.538 55.7405C119.226 55.5819 119.762 55.2942 120.145 54.8776C120.526 54.4545 120.765 53.9172 120.861 53.2656L122.721 53.3195C122.583 54.3843 122.188 55.2656 121.534 55.9634C120.881 56.6613 120.008 57.1359 118.917 57.3874ZM132.834 53.8729L131.62 48.6011C131.504 48.1008 131.348 47.6306 131.151 47.1903C130.96 46.7485 130.712 46.3711 130.408 46.0582C130.108 45.7373 129.748 45.5123 129.329 45.3833C128.915 45.2527 128.429 45.2518 127.871 45.3805C127.436 45.4808 127.056 45.6468 126.734 45.8786C126.416 46.1023 126.165 46.3928 125.98 46.75C125.795 47.1072 125.684 47.5297 125.646 48.0174C125.613 48.497 125.667 49.0422 125.807 49.6529L124.586 49.5648C124.351 48.5448 124.332 47.6291 124.528 46.8177C124.729 45.9983 125.116 45.3174 125.689 44.7749C126.267 44.2244 127.007 43.8452 127.91 43.6371C128.592 43.48 129.199 43.4532 129.729 43.5568C130.259 43.6604 130.724 43.8542 131.125 44.1382C131.524 44.4156 131.866 44.7543 132.149 45.1541C132.431 45.5475 132.661 45.9633 132.837 46.4016C133.018 46.8319 133.155 47.2484 133.248 47.6512L134.588 53.4688L132.834 53.8729ZM125.331 55.6018L122.098 41.5694L123.657 41.2102L125.442 48.9572L125.637 48.9123L127.085 55.1976L125.331 55.6018ZM141.672 52.1446C140.626 52.3856 139.668 52.3565 138.799 52.0574C137.936 51.7568 137.203 51.2346 136.601 50.4909C135.999 49.7471 135.572 48.8328 135.322 47.7479C135.068 46.6435 135.053 45.6276 135.277 44.7003C135.501 43.773 135.94 42.9911 136.594 42.3547C137.246 41.7118 138.086 41.2722 139.112 41.0357C140.165 40.7932 141.125 40.8215 141.995 41.1206C142.863 41.4132 143.595 41.9322 144.19 42.6774C144.791 43.4146 145.217 44.3257 145.467 45.4106C145.72 46.5085 145.738 47.5236 145.522 48.456C145.304 49.3818 144.87 50.1694 144.219 50.8188C143.567 51.4617 142.718 51.9036 141.672 52.1446ZM141.292 50.4978C142.384 50.2463 143.112 49.6954 143.477 48.845C143.842 47.9947 143.891 46.9913 143.625 45.835C143.351 44.6461 142.864 43.763 142.163 43.1856C141.46 42.6017 140.57 42.434 139.492 42.6825C138.757 42.8517 138.191 43.1565 137.794 43.5971C137.396 44.0377 137.147 44.5773 137.048 45.2158C136.949 45.8544 136.988 46.557 137.164 47.3236C137.437 48.5059 137.928 49.3915 138.638 49.9804C139.349 50.5693 140.233 50.7417 141.292 50.4978ZM146.168 37.7578L145.755 35.9647L147.489 35.5651L147.903 37.3581L146.168 37.7578ZM149.022 50.1433L146.597 39.619L148.331 39.2193L150.756 49.7436L149.022 50.1433ZM158.181 48.3407C157.116 48.5862 156.155 48.5579 155.299 48.2558C154.447 47.9457 153.73 47.4165 153.147 46.6683C152.564 45.92 152.143 45.0114 151.883 43.9425C151.643 42.8416 151.625 41.8297 151.83 40.9069C152.04 39.9761 152.464 39.1907 153.104 38.5508C153.743 37.9109 154.589 37.4697 155.641 37.2273C156.752 36.9713 157.77 37.0241 158.695 37.3857C159.626 37.7458 160.337 38.3687 160.829 39.2543L159.233 40.1659C158.871 39.6061 158.401 39.215 157.823 38.9924C157.252 38.7684 156.644 38.7304 156.001 38.8786C155.28 39.0448 154.725 39.3506 154.335 39.7962C153.943 40.2353 153.702 40.7766 153.611 41.4202C153.518 42.0573 153.556 42.7566 153.725 43.5182C154.007 44.6845 154.495 45.5677 155.187 46.1675C155.884 46.7594 156.756 46.9348 157.802 46.6938C158.49 46.5352 159.026 46.2475 159.409 45.8309C159.791 45.4078 160.029 44.8705 160.126 44.2189L161.985 44.2728C161.847 45.3376 161.452 46.2189 160.798 46.9167C160.145 47.6146 159.273 48.0892 158.181 48.3407ZM168.947 45.8602C167.914 46.0982 166.959 46.0789 166.081 45.8022C165.208 45.5176 164.463 45.0154 163.846 44.2956C163.227 43.5694 162.791 42.6573 162.538 41.5594C162.273 40.4095 162.255 39.3669 162.484 38.4316C162.712 37.4898 163.15 36.7046 163.799 36.0763C164.453 35.4399 165.29 35.0042 166.31 34.7692C167.369 34.5252 168.325 34.5615 169.177 34.8781C170.037 35.1932 170.756 35.7596 171.334 36.5773C171.919 37.3935 172.329 38.4312 172.564 39.6905L170.81 40.0947L170.667 39.471C170.349 38.1827 169.864 37.2786 169.21 36.7587C168.556 36.2323 167.728 36.0844 166.727 36.3149C165.655 36.5618 164.92 37.094 164.519 37.9114C164.119 38.7287 164.068 39.7805 164.364 41.0668C164.65 42.3077 165.151 43.2048 165.867 43.7582C166.582 44.3116 167.457 44.4693 168.49 44.2313C169.185 44.0711 169.752 43.7728 170.192 43.3362C170.632 42.8996 170.929 42.3488 171.084 41.6838L172.883 41.8748C172.688 42.8981 172.237 43.7614 171.53 44.4647C170.828 45.16 169.967 45.6252 168.947 45.8602ZM163.892 41.6888L163.57 40.2953L171.347 38.5036L171.668 39.8971L163.892 41.6888ZM176.809 43.741L176.395 41.948L178.13 41.5484L178.543 43.3414L176.809 43.741ZM176 40.2329L173.575 29.7087L175.31 29.309L177.735 39.8333L176 40.2329Z" fill="#839CB5"/>
<path d="M77.6611 90.2922L74.6159 93.2432C74.5238 93.3185 74.4321 93.3615 74.3408 93.3723C74.2501 93.3822 74.157 93.3715 74.0615 93.3402C73.9651 93.3076 73.8845 93.2489 73.8198 93.1639C73.755 93.079 73.7273 92.9762 73.7364 92.8558L73.755 88.6338L70.0196 86.6519C69.9155 86.6006 69.838 86.5285 69.7871 86.4356C69.7363 86.3426 69.7205 86.246 69.7399 86.1458C69.7592 86.0456 69.7956 85.9585 69.849 85.8846C69.9036 85.8125 69.9857 85.7532 70.0954 85.7068L74.1211 84.4016L74.8493 80.2398C74.8688 80.1225 74.9146 80.0305 74.9868 79.9639C75.0591 79.8973 75.1468 79.8521 75.2501 79.8283C75.3534 79.8045 75.4524 79.8067 75.5472 79.8348C75.6419 79.8629 75.7231 79.9256 75.7906 80.0229L78.2665 83.4464L82.4565 82.8587C82.576 82.8517 82.6762 82.8693 82.757 82.9116C82.8378 82.9532 82.9088 83.0151 82.9702 83.0974C83.0308 83.1793 83.0586 83.2731 83.0536 83.3789C83.0485 83.4848 83.0104 83.5835 82.9391 83.6752L80.4476 87.0918L82.3118 90.88C82.3737 90.9827 82.394 91.0868 82.3725 91.1923C82.3509 91.2979 82.3039 91.386 82.2312 91.4568C82.16 91.5279 82.0811 91.5786 81.9943 91.6089C81.9082 91.639 81.8073 91.6403 81.6915 91.613L77.6611 90.2922Z" fill="#839CB5"/>
<path d="M124.436 79.5151L121.39 82.4661C121.298 82.5414 121.207 82.5844 121.115 82.5952C121.025 82.6051 120.931 82.5944 120.836 82.5631C120.74 82.5305 120.659 82.4718 120.594 82.3868C120.53 82.3019 120.502 82.1991 120.511 82.0787L120.53 77.8567L116.794 75.8748C116.69 75.8235 116.612 75.7514 116.562 75.6585C116.511 75.5655 116.495 75.4689 116.514 75.3687C116.534 75.2685 116.57 75.1814 116.624 75.1075C116.678 75.0354 116.76 74.9761 116.87 74.9297L120.896 73.6245L121.624 69.4627C121.643 69.3454 121.689 69.2534 121.761 69.1868C121.834 69.1202 121.921 69.075 122.025 69.0512C122.128 69.0274 122.227 69.0296 122.322 69.0577C122.416 69.0858 122.498 69.1485 122.565 69.2458L125.041 72.6693L129.231 72.0816C129.35 72.0746 129.451 72.0922 129.532 72.1345C129.612 72.1761 129.683 72.238 129.745 72.3203C129.805 72.4022 129.833 72.496 129.828 72.6018C129.823 72.7077 129.785 72.8064 129.714 72.8981L127.222 76.3147L129.086 80.1029C129.148 80.2056 129.168 80.3097 129.147 80.4152C129.125 80.5208 129.078 80.6089 129.006 80.6797C128.935 80.7508 128.856 80.8015 128.769 80.8318C128.683 80.8619 128.582 80.8632 128.466 80.8359L124.436 79.5151Z" fill="#839CB5"/>
<path d="M101.048 84.9037L98.0031 87.8548C97.911 87.9301 97.8193 87.9731 97.7281 87.9838C97.6373 87.9938 97.5442 87.9831 97.4487 87.9517C97.3523 87.9192 97.2717 87.8605 97.207 87.7755C97.1423 87.6905 97.1145 87.5878 97.1237 87.4673L97.1422 83.2454L93.4069 81.2635C93.3027 81.2122 93.2252 81.1401 93.1744 81.0471C93.1235 80.9542 93.1078 80.8576 93.1271 80.7574C93.1464 80.6571 93.1828 80.5701 93.2362 80.4962C93.2908 80.4241 93.3729 80.3648 93.4826 80.3183L97.5083 79.0131L98.2365 74.8514C98.256 74.734 98.3019 74.642 98.3741 74.5755C98.4463 74.5089 98.5341 74.4637 98.6374 74.4399C98.7407 74.4161 98.8397 74.4182 98.9344 74.4464C99.0291 74.4745 99.1103 74.5372 99.1779 74.6345L101.654 78.058L105.844 77.4703C105.963 77.4633 106.063 77.4809 106.144 77.5231C106.225 77.5647 106.296 77.6267 106.357 77.709C106.418 77.7908 106.446 77.8847 106.441 77.9905C106.436 78.0963 106.398 78.1951 106.326 78.2867L103.835 81.7034L105.699 85.4915C105.761 85.5943 105.781 85.6984 105.76 85.8039C105.738 85.9094 105.691 85.9976 105.618 86.0684C105.547 86.1395 105.468 86.1902 105.382 86.2204C105.295 86.2505 105.195 86.2519 105.079 86.2245L101.048 84.9037Z" fill="#839CB5"/>
<path d="M147.823 74.1266L144.778 77.0777C144.686 77.153 144.594 77.196 144.503 77.2067C144.412 77.2167 144.319 77.206 144.223 77.1746C144.127 77.1421 144.046 77.0834 143.982 76.9984C143.917 76.9134 143.889 76.8107 143.898 76.6903L143.917 72.4683L140.181 70.4864C140.077 70.4351 140 70.363 139.949 70.27C139.898 70.1771 139.882 70.0805 139.902 69.9803C139.921 69.88 139.957 69.793 140.011 69.7191C140.065 69.647 140.147 69.5877 140.257 69.5412L144.283 68.236L145.011 64.0743C145.031 63.9569 145.076 63.8649 145.149 63.7984C145.221 63.7318 145.309 63.6866 145.412 63.6628C145.515 63.639 145.614 63.6411 145.709 63.6693C145.804 63.6974 145.885 63.7601 145.952 63.8574L148.428 67.2809L152.618 66.6932C152.738 66.6862 152.838 66.7038 152.919 66.746C153 66.7876 153.071 66.8496 153.132 66.9319C153.193 67.0137 153.22 67.1076 153.215 67.2134C153.21 67.3192 153.172 67.418 153.101 67.5096L150.609 70.9263L152.474 74.7144C152.535 74.8172 152.556 74.9213 152.534 75.0268C152.513 75.1323 152.466 75.2205 152.393 75.2913C152.322 75.3624 152.243 75.4131 152.156 75.4433C152.07 75.4734 151.969 75.4748 151.853 75.4474L147.823 74.1266Z" fill="#839CB5"/>
<path d="M171.21 68.738L168.165 71.689C168.073 71.7643 167.981 71.8073 167.89 71.8181C167.799 71.828 167.706 71.8173 167.611 71.786C167.514 71.7535 167.434 71.6947 167.369 71.6097C167.304 71.5248 167.276 71.4221 167.285 71.3016L167.304 67.0796L163.569 65.0977C163.464 65.0464 163.387 64.9743 163.336 64.8814C163.285 64.7884 163.27 64.6918 163.289 64.5916C163.308 64.4914 163.345 64.4043 163.398 64.3304C163.453 64.2583 163.535 64.199 163.644 64.1526L167.67 62.8474L168.398 58.6856C168.418 58.5683 168.464 58.4763 168.536 58.4097C168.608 58.3431 168.696 58.2979 168.799 58.2741C168.902 58.2503 169.001 58.2525 169.096 58.2806C169.191 58.3087 169.272 58.3714 169.34 58.4687L171.816 61.8922L176.006 61.3045C176.125 61.2975 176.225 61.3151 176.306 61.3574C176.387 61.399 176.458 61.4609 176.519 61.5432C176.58 61.6251 176.608 61.7189 176.603 61.8247C176.598 61.9306 176.559 62.0293 176.488 62.121L173.997 65.5376L175.861 69.3258C175.923 69.4285 175.943 69.5326 175.921 69.6381C175.9 69.7437 175.853 69.8318 175.78 69.9026C175.709 69.9737 175.63 70.0244 175.543 70.0547C175.457 70.0848 175.356 70.0861 175.241 70.0588L171.21 68.738Z" fill="#839CB5"/>
</svg>
