<svg width="168" height="156" viewBox="0 0 168 156" fill="none" xmlns="http://www.w3.org/2000/svg">
<g clip-path="url(#clip0_1762_151)">
<g style="mix-blend-mode:multiply">
<path d="M68.4525 138.601C66.6842 138.293 64.9931 137.715 63.4301 136.873C61.8863 136.05 60.4682 134.979 59.236 133.701L55.201 129.485C54.4889 130.26 53.6923 130.961 52.8223 131.567C49.6606 133.797 45.7992 134.662 41.9715 133.997L14.901 129.29C10.3674 128.502 6.5654 125.705 4.45783 121.614C2.35026 117.523 2.29438 112.799 4.29761 108.651L26.7079 62.2018C28.1013 59.319 30.3344 57.0393 33.1653 55.5905C36.0047 54.1357 39.1616 53.6579 42.298 54.2032L55.4548 56.4908C59.2825 57.1563 62.6254 59.2738 64.8534 62.4565C64.9496 62.5932 65.0385 62.7285 65.1274 62.8639C65.9515 61.8756 66.83 60.9192 67.7506 60.0226C69.1688 58.6354 70.7114 57.3523 72.3343 56.2106L88.0635 45.1262L89.948 34.2876C90.5589 30.7742 92.5012 27.7095 95.4225 25.6544C98.3437 23.5994 101.885 22.8062 105.4 23.4173L105.473 23.43C107.561 23.7931 109.499 24.5946 111.219 25.823C112.927 27.0417 114.31 28.5712 115.33 30.3822L115.401 30.4919L115.536 30.7478L115.698 31.0682L115.724 31.1327C118.389 36.6321 119.248 42.7318 118.199 48.7621L116.796 56.8293C116.532 58.3496 116.131 59.8386 115.605 61.2684C115.092 62.6632 114.446 64.0497 113.666 65.3904L113.016 66.4989L136.615 70.6021C140.589 71.2929 144.052 73.4914 146.372 76.7949C148.658 80.0326 149.575 84.1565 148.887 88.1137C148.199 92.0709 145.945 95.6359 142.69 97.9253C142.383 98.1416 142.071 98.3422 141.752 98.5341C141.927 99.9884 141.886 101.473 141.632 102.935C140.945 106.885 138.69 110.457 135.444 112.74C135.095 112.979 134.74 113.21 134.38 113.425C134.601 114.999 134.578 116.599 134.305 118.17C133.617 122.128 131.361 125.7 128.116 127.983C127.773 128.231 127.419 128.454 127.052 128.668C127.273 130.242 127.25 131.842 126.976 133.413C126.291 137.356 124.034 140.935 120.788 143.219C117.484 145.537 113.483 146.43 109.517 145.741L68.4598 138.602L68.4525 138.601Z" fill="#B7B7B7"/>
</g>
<path d="M71.6311 133.428C70.2411 133.186 68.9183 132.731 67.6903 132.076C66.4684 131.429 65.3559 130.583 64.3914 129.576L58.8917 123.824C58.5866 123.508 58.2351 123.245 57.8444 123.035C57.5564 122.88 57.2549 122.76 56.947 122.676C56.1446 124.403 54.9152 125.868 53.3265 126.985C50.942 128.669 48.0402 129.319 45.1512 128.816L18.0735 124.109C14.6605 123.515 11.7961 121.406 10.2097 118.327C8.62458 115.241 8.58244 111.689 10.0928 108.564L32.5019 62.1225C33.554 59.9523 35.2319 58.2356 37.3633 57.1448C39.5032 56.048 41.8821 55.6898 44.2471 56.101L57.404 58.3885C60.2857 58.8896 62.8052 60.4817 64.4801 62.8788C64.8601 63.4095 65.1864 63.9908 65.4699 64.6022L69.123 65.2373L69.2799 65.0248C70.3403 63.5829 71.5301 62.216 72.8296 60.9507C74.1121 59.6973 75.507 58.5309 76.9676 57.5034L93.5937 45.788C93.6962 45.7159 93.7794 45.6255 93.8518 45.5107C93.9132 45.4164 93.9553 45.3038 93.978 45.1729L96.0497 33.2577C96.4962 30.6899 97.9203 28.4494 100.048 26.9459C102.184 25.4437 104.774 24.8599 107.35 25.3078L107.423 25.3204C108.981 25.5912 110.421 26.1865 111.71 27.0999C112.99 28.012 114.027 29.1665 114.787 30.5277L114.828 30.5948L114.883 30.7092L114.999 30.9468L115.022 30.9882C117.382 35.8275 118.136 41.1896 117.213 46.4998L115.81 54.567C115.584 55.8691 115.241 57.1509 114.788 58.3761C114.346 59.5808 113.785 60.7798 113.113 61.9294L110.266 66.7927L110.116 67.0065C110.015 67.1611 109.92 67.3171 109.83 67.4888L138.553 72.4827C141.58 73.0091 144.22 74.6822 145.987 77.2001C147.733 79.662 148.428 82.8181 147.903 85.8369C147.379 88.8557 145.66 91.5845 143.174 93.3331C142.251 93.9821 141.233 94.4944 140.182 94.8439C140.82 96.6934 140.99 98.6939 140.648 100.658C140.124 103.677 138.405 106.405 135.927 108.148C134.937 108.845 133.855 109.376 132.72 109.734C133.461 111.684 133.68 113.828 133.32 115.901C132.794 118.927 131.075 121.656 128.598 123.398C127.616 124.089 126.532 124.628 125.399 124.978C126.141 126.921 126.361 129.065 125.999 131.145C125.474 134.164 123.755 136.893 121.278 138.635C118.759 140.401 115.709 141.084 112.689 140.559L71.6323 133.421L71.6311 133.428Z" fill="white"/>
<path d="M62.465 68.3888L53.6319 119.192C53.3384 120.88 52.3974 122.455 50.8855 123.518C49.3736 124.582 47.574 124.929 45.8857 124.635L18.808 119.927C16.8068 119.579 14.9915 118.334 13.9947 116.392C12.9979 114.45 13.035 112.253 13.9159 110.421L15.5114 107.108L33.0774 70.7134L36.3348 63.9655C36.9447 62.7001 37.9589 61.6099 39.3091 60.9154C40.6508 60.2269 42.1312 60.0346 43.5138 60.275L56.678 62.5639C58.3662 62.8574 59.9419 63.7983 61.0061 65.3098C61.6614 66.2406 62.0428 67.2812 62.1752 68.3309L62.4662 68.3815L62.465 68.3888ZM135.326 91.0842C137.232 91.4156 139.151 90.9849 140.739 89.8745C142.302 88.7749 143.383 87.0443 143.715 85.1311C144.048 83.218 143.609 81.2157 142.515 79.6615C141.402 78.0817 139.734 77.0272 137.827 76.6957L104.688 70.9338L105.167 68.1768C105.279 67.5367 105.454 66.9152 105.701 66.3137C105.948 65.7121 106.258 65.1365 106.627 64.6087L106.679 64.5277L109.443 59.7998C109.976 58.8883 110.43 57.918 110.798 56.918C111.159 55.9239 111.444 54.8869 111.625 53.8467L113.029 45.7723C113.8 41.335 113.162 36.8549 111.176 32.8L111.081 32.6112C110.624 31.7898 110.008 31.1057 109.241 30.5601C108.481 30.0158 107.62 29.6637 106.696 29.5031L106.623 29.4904C105.168 29.2374 103.708 29.5681 102.504 30.4154C101.3 31.2627 100.494 32.5315 100.241 33.9864L98.1696 45.9016C98.052 46.5781 97.8071 47.21 97.4364 47.7901C97.0729 48.3714 96.6057 48.8597 96.0419 49.2563L79.4158 60.9716C78.1346 61.8729 76.9156 62.8901 75.7945 63.9916C74.6746 65.0859 73.6268 66.2826 72.7025 67.5458L70.9851 69.8777L63.2351 68.5302L54.6397 117.966L57.325 118.433C58.1836 118.582 59.0268 118.864 59.8435 119.298C60.6529 119.731 61.3607 120.274 61.9634 120.903L67.4644 126.648C68.0985 127.313 68.8462 127.885 69.704 128.342C70.5618 128.798 71.4546 129.096 72.357 129.252L113.414 136.391C115.321 136.722 117.247 136.293 118.827 135.181C120.39 134.082 121.477 132.36 121.811 130.439C122.145 128.519 121.704 126.524 120.603 124.968C119.491 123.389 117.831 122.328 115.917 121.995L108.654 120.733L108.939 119.096L120.742 121.148C122.649 121.48 124.575 121.05 126.157 119.931C127.713 118.83 128.801 117.101 129.133 115.188C129.466 113.275 129.027 111.272 127.933 109.718C126.82 108.138 125.153 107.077 123.247 106.745L115.991 105.484L116.275 103.854L128.071 105.905C129.977 106.237 131.904 105.807 133.485 104.688C135.048 103.589 136.128 101.865 136.462 99.9449C136.795 98.0245 136.355 96.0294 135.261 94.4752C134.15 92.8881 132.48 91.8409 130.574 91.5094L123.318 90.248L123.53 89.0332L135.333 91.0854L135.326 91.0842Z" fill="url(#paint0_linear_1762_151)"/>
<mask id="mask0_1762_151" style="mask-type:luminance" maskUnits="userSpaceOnUse" x="54" y="29" width="90" height="108">
<path d="M135.327 91.0768C137.234 91.4083 139.153 90.9776 140.74 89.8672C142.303 88.7676 143.384 87.0369 143.717 85.1238C144.049 83.2107 143.61 81.2084 142.516 79.6542C141.404 78.0744 139.735 77.0199 137.829 76.6884L104.689 70.9265L105.169 68.1695C105.28 67.5294 105.455 66.9079 105.702 66.3064C105.949 65.7048 106.259 65.1292 106.629 64.6014L106.68 64.5204L109.444 59.7925C109.977 58.881 110.431 57.9107 110.8 56.9106C111.16 55.9166 111.445 54.8796 111.626 53.8393L113.03 45.7649C113.801 41.3276 113.163 36.8476 111.177 32.7927L111.082 32.6038C110.625 31.7825 110.01 31.0984 109.242 30.5528C108.482 30.0084 107.621 29.6564 106.697 29.4957L106.625 29.4831C105.169 29.23 103.71 29.5608 102.505 30.4081C101.301 31.2554 100.496 32.5242 100.243 33.9791L98.1709 45.8943C98.0533 46.5708 97.8084 47.2027 97.4377 47.7827C97.0742 48.364 96.607 48.8523 96.0432 49.2489L79.4171 60.9643C78.1359 61.8656 76.9169 62.8827 75.7958 63.9843C74.6759 65.0786 73.6282 66.2753 72.7038 67.5385L70.9864 69.8703L63.2364 68.5228L54.6411 117.959L57.3263 118.425C58.185 118.575 59.0282 118.856 59.8448 119.291C60.6542 119.724 61.362 120.266 61.9648 120.896L67.4657 126.641C68.0999 127.306 68.8475 127.878 69.7053 128.334C70.5631 128.791 71.456 129.088 72.3583 129.245L113.415 136.384C115.322 136.715 117.248 136.286 118.828 135.174C120.392 134.074 121.478 132.352 121.812 130.432C122.146 128.512 121.706 126.516 120.604 124.961C119.492 123.381 117.832 122.321 115.918 121.988L108.656 120.725L108.94 119.089L120.744 121.141C122.65 121.472 124.577 121.043 126.158 119.924C127.714 118.823 128.802 117.094 129.135 115.18C129.467 113.267 129.028 111.265 127.934 109.711C126.822 108.131 125.154 107.069 123.248 106.738L115.993 105.476L116.276 103.847L128.072 105.898C129.979 106.229 131.905 105.8 133.487 104.681C135.05 103.581 136.129 101.858 136.463 99.9375C136.797 98.0172 136.356 96.0221 135.262 94.4679C134.151 92.8808 132.482 91.8336 130.575 91.5021L123.32 90.2407L123.531 89.0259L135.334 91.0781L135.327 91.0768Z" fill="white"/>
</mask>
<g mask="url(#mask0_1762_151)">
<path d="M55.0175 13.6455L33.7581 135.918L138.169 154.072L159.428 31.7992L55.0175 13.6455ZM134.665 91.3064C133.085 92.418 131.158 92.8475 129.252 92.516L123.117 91.4494L122.906 92.6642L124.5 92.9413C126.406 93.2728 128.075 94.3273 129.187 95.9071C130.28 97.4685 130.72 99.4636 130.388 101.377C130.055 103.29 128.967 105.019 127.411 106.12C125.83 107.239 123.903 107.668 121.997 107.337L115.862 106.27L115.579 107.9L117.172 108.177C119.079 108.508 120.747 109.563 121.86 111.143C122.953 112.704 123.393 114.699 123.06 116.612C122.728 118.525 121.64 120.255 120.084 121.356C118.497 122.466 116.569 122.903 114.67 122.573L108.535 121.506L108.25 123.143L109.851 123.421C111.758 123.753 113.426 124.807 114.537 126.394C115.639 127.95 116.079 129.945 115.745 131.865C115.411 133.785 114.324 135.515 112.762 136.607C111.181 137.719 109.262 138.15 107.348 137.817L66.2915 130.678C65.3819 130.52 64.489 130.223 63.6385 129.767C62.7807 129.311 62.0343 128.732 61.3989 128.074L55.8979 122.329C55.2951 121.699 54.5873 121.157 53.778 120.724C52.9686 120.291 52.1181 120.008 51.2667 119.86L48.5742 119.392L57.1683 69.9633L64.9183 71.3108L66.6357 68.9789C67.5673 67.717 68.6078 66.519 69.7277 65.4247C70.8476 64.3304 72.0665 63.3133 73.349 62.4047L89.9751 50.6894C90.5389 50.2928 91.0074 49.7972 91.3696 49.2232C91.7404 48.6431 91.9852 48.0112 92.1028 47.3347L94.1732 35.4268C94.4262 33.9719 95.2303 32.7103 96.4359 31.8558C97.6403 31.0085 99.1071 30.679 100.555 30.9308L100.628 30.9434C101.552 31.1041 102.405 31.4622 103.173 32.0005C103.94 32.5461 104.556 33.2302 105.013 34.0515L105.108 34.2403C107.094 38.2953 107.733 42.7681 106.961 47.2126L105.557 55.287C105.375 56.3345 105.091 57.3643 104.73 58.3583C104.363 59.3511 103.909 60.3214 103.375 61.2402L100.611 65.9681L100.559 66.0491C100.197 66.5782 99.8801 67.1525 99.6331 67.7541C99.3861 68.3556 99.2105 68.9771 99.0992 69.6172L98.6199 72.3742L131.759 78.1361C133.666 78.4676 135.327 79.5208 136.447 81.1019C137.547 82.6646 137.98 84.6584 137.647 86.5715C137.315 88.4846 136.226 90.2213 134.67 91.3222L134.665 91.3064Z" fill="#CCCCCC"/>
</g>
<mask id="mask1_1762_151" style="mask-type:luminance" maskUnits="userSpaceOnUse" x="10" y="26" width="137" height="113">
<path d="M146.14 85.5453C146.584 82.992 145.99 80.3259 144.516 78.241C143.026 76.1159 140.797 74.7091 138.243 74.265L107.519 68.9231L107.576 68.5958C107.657 68.1302 107.788 67.6808 107.969 67.2402C108.149 66.8069 108.371 66.3958 108.633 66.0068L108.742 65.8534L108.838 65.6902L111.557 61.0518C112.165 60.0109 112.687 58.9027 113.094 57.7743C113.508 56.6398 113.826 55.4586 114.032 54.2729L115.435 46.2057C116.296 41.252 115.584 36.2495 113.375 31.7511L113.371 31.728C113.349 31.6865 113.289 31.5562 113.289 31.5562L113.255 31.4905L113.226 31.4405C112.593 30.2962 111.726 29.336 110.666 28.5747C109.605 27.8207 108.41 27.3206 107.115 27.0954L107.042 27.0827C104.946 26.7184 102.825 27.1889 101.081 28.422C99.3388 29.6479 98.181 31.4775 97.8155 33.5797L95.7438 45.4949C95.6818 45.8514 95.5556 46.1892 95.3617 46.4852C95.1653 46.7958 94.9182 47.0526 94.6265 47.2642L78.0004 58.9795C76.6166 59.9529 75.2927 61.0567 74.081 62.2475C72.8621 63.4369 71.7299 64.7314 70.7271 66.1008L69.9119 67.2106L64.1849 66.2149C63.8978 65.4081 63.5086 64.6284 63.0083 63.9269C61.6015 61.9287 59.4942 60.5956 57.0928 60.178L43.9359 57.8905C41.9566 57.5463 39.9691 57.8527 38.1825 58.7712C36.3973 59.6823 34.9993 61.1254 34.1222 62.9364L11.7023 109.354C10.4383 111.967 10.476 114.941 11.7975 117.517C13.1263 120.093 15.5183 121.858 18.3782 122.355L45.4633 127.065C47.872 127.483 50.2983 126.939 52.2971 125.533C54.0054 124.331 55.2243 122.624 55.7989 120.656L56.905 120.848C57.5236 120.956 58.1244 121.165 58.6797 121.464C59.2363 121.755 59.7473 122.137 60.1849 122.595L65.6786 128.339C66.5105 129.203 67.4781 129.933 68.5342 130.499C69.5964 131.073 70.7364 131.459 71.9298 131.666L112.987 138.805C115.541 139.249 118.116 138.67 120.234 137.18C122.319 135.706 123.777 133.404 124.222 130.844C124.667 128.283 124.112 125.743 122.702 123.677C124.432 123.558 126.103 122.957 127.562 121.937C129.655 120.465 131.105 118.161 131.55 115.601C131.996 113.04 131.432 110.506 130.037 108.436C131.761 108.308 133.43 107.721 134.891 106.694C136.975 105.228 138.434 102.918 138.878 100.365C139.285 98.0227 138.822 95.5966 137.618 93.5962C139.229 93.4267 140.785 92.8429 142.145 91.8802C144.237 90.408 145.696 88.0986 146.14 85.5453Z" fill="white"/>
</mask>
<g mask="url(#mask1_1762_151)">
<path style="mix-blend-mode:screen" opacity="0.5" d="M38.2496 2.71924L27.6231 63.8374C43.166 65.0785 60.8133 70.3426 78.0283 79.6458C101.492 92.3361 118.99 109.752 127.111 126.52L149.153 130.352L167.439 25.1811L38.2496 2.71924Z" fill="url(#paint1_linear_1762_151)"/>
</g>
<path d="M146.14 85.5453C146.584 82.992 145.99 80.3259 144.516 78.241C143.026 76.1159 140.797 74.7091 138.243 74.265L107.519 68.9231L107.576 68.5958C107.657 68.1302 107.788 67.6808 107.969 67.2402C108.149 66.8069 108.371 66.3958 108.633 66.0068L108.742 65.8534L108.838 65.6902L111.557 61.0518C112.165 60.0109 112.687 58.9027 113.094 57.7743C113.508 56.6398 113.826 55.4586 114.032 54.2729L115.435 46.2057C116.296 41.252 115.584 36.2495 113.375 31.7511L113.371 31.728C113.349 31.6865 113.289 31.5562 113.289 31.5562L113.255 31.4905L113.226 31.4405C112.593 30.2962 111.726 29.336 110.666 28.5747C109.605 27.8207 108.41 27.3206 107.115 27.0954L107.042 27.0827C104.946 26.7184 102.825 27.1889 101.081 28.422C99.3388 29.6479 98.181 31.4775 97.8155 33.5797L95.7438 45.4949C95.6818 45.8514 95.5556 46.1892 95.3617 46.4852C95.1653 46.7958 94.9182 47.0526 94.6265 47.2642L78.0004 58.9795C76.6166 59.9529 75.2927 61.0567 74.081 62.2475C72.8621 63.4369 71.7299 64.7314 70.7271 66.1008L69.9119 67.2106L64.1849 66.2149C63.8978 65.4081 63.5086 64.6284 63.0083 63.9269C61.6015 61.9287 59.4942 60.5956 57.0928 60.178L43.9359 57.8905C41.9566 57.5463 39.9691 57.8527 38.1825 58.7712C36.3973 59.6823 34.9993 61.1254 34.1222 62.9364L11.7023 109.354C10.4383 111.967 10.476 114.941 11.7975 117.517C13.1263 120.093 15.5183 121.858 18.3782 122.355L45.4633 127.065C47.872 127.483 50.2983 126.939 52.2971 125.533C54.0054 124.331 55.2243 122.624 55.7989 120.656L56.905 120.848C57.5236 120.956 58.1244 121.165 58.6797 121.464C59.2363 121.755 59.7473 122.137 60.1849 122.595L65.6786 128.339C66.5105 129.203 67.4781 129.933 68.5342 130.499C69.5964 131.073 70.7364 131.459 71.9298 131.666L112.987 138.805C115.541 139.249 118.116 138.67 120.234 137.18C122.319 135.706 123.777 133.404 124.222 130.844C124.667 128.283 124.112 125.743 122.702 123.677C124.432 123.558 126.103 122.957 127.562 121.937C129.655 120.465 131.105 118.161 131.55 115.601C131.996 113.04 131.432 110.506 130.037 108.436C131.761 108.308 133.43 107.721 134.891 106.694C136.975 105.228 138.434 102.918 138.878 100.365C139.285 98.0227 138.822 95.5966 137.618 93.5962C139.229 93.4267 140.785 92.8429 142.145 91.8802C144.237 90.408 145.696 88.0986 146.14 85.5453ZM51.2073 118.778C51.0138 119.891 50.3951 120.863 49.4713 121.519C48.5415 122.167 47.4177 122.421 46.3043 122.227L19.2193 117.518C17.8949 117.288 16.7846 116.473 16.1735 115.287C15.5637 114.095 15.5417 112.712 16.1184 111.508L38.5445 65.0542C38.9535 64.2111 39.6005 63.5517 40.4255 63.1181C41.2494 62.6917 42.1719 62.5599 43.0888 62.7193L56.2457 65.0069C57.3591 65.2004 58.3311 65.8191 58.9877 66.7426C59.3905 67.3148 59.6386 67.9574 59.72 68.6536L59.803 69.2975L51.1988 118.784L51.2073 118.778ZM139.327 87.8606C138.278 88.5924 137.006 88.8808 135.747 88.6619L123.179 86.4769C122.757 86.4035 122.308 86.4901 121.932 86.7545C121.549 87.0177 121.322 87.413 121.249 87.8349L120.771 90.5846C120.698 91.0065 120.784 91.4562 121.049 91.832C121.313 92.2077 121.706 92.4484 122.128 92.5218L130.155 93.9173C131.414 94.1362 132.514 94.8371 133.255 95.8802C133.982 96.9135 134.277 98.2387 134.054 99.5189C133.832 100.799 133.107 101.947 132.074 102.674C131.031 103.407 129.752 103.695 128.493 103.476L115.918 101.289C115.496 101.216 115.046 101.303 114.669 101.574C114.294 101.839 114.06 102.233 113.987 102.655L113.434 105.834C113.361 106.255 113.455 106.706 113.712 107.081C113.975 107.464 114.369 107.697 114.792 107.771L122.825 109.168C124.084 109.386 125.186 110.08 125.925 111.13C126.645 112.162 126.94 113.488 126.717 114.768C126.495 116.048 125.776 117.205 124.744 117.925C123.695 118.656 122.421 118.952 121.162 118.733L108.588 116.547C108.165 116.473 107.716 116.56 107.34 116.824C106.964 117.089 106.723 117.482 106.65 117.904L106.097 121.082C106.024 121.504 106.118 121.955 106.382 122.331C106.647 122.707 107.041 122.94 107.463 123.014L115.497 124.41C116.756 124.629 117.865 125.324 118.597 126.373C119.324 127.407 119.611 128.731 119.389 130.011C119.166 131.291 118.449 132.44 117.416 133.167C116.373 133.901 115.094 134.188 113.835 133.969L72.7781 126.83C72.1014 126.713 71.4569 126.496 70.8532 126.173C70.2495 125.851 69.7071 125.435 69.2369 124.948L63.7347 119.21C62.9354 118.374 62.015 117.675 60.9999 117.131C59.9764 116.593 58.8873 116.217 57.7448 116.018L56.7042 115.837L64.4572 71.2458L71.7124 72.5073C71.8143 72.525 71.9212 72.5136 72.0174 72.4779C72.1221 72.4361 72.2003 72.3748 72.2591 72.2951L74.6801 69.0214C74.8958 68.7292 75.1115 68.4369 75.3478 68.1558C76.0093 67.3265 76.7325 66.5305 77.5101 65.7664C78.5591 64.7347 79.6705 63.8188 80.8322 63.0016L97.451 51.285C98.2539 50.7201 98.9486 50.0016 99.506 49.1243C100.055 48.2529 100.408 47.3025 100.574 46.3423L102.65 34.4053C102.784 33.6342 103.209 32.9138 103.908 32.4283C104.6 31.9416 105.423 31.7775 106.195 31.9116L106.268 31.9242C106.813 32.0191 107.339 32.2304 107.813 32.5676C108.286 32.9047 108.662 33.3298 108.923 33.8099C108.923 33.8099 108.957 33.8757 108.969 33.8928C110.645 37.3168 111.304 41.2908 110.598 45.3498L109.195 53.4169C109.041 54.3044 108.812 55.1937 108.487 56.0666C108.163 56.9395 107.77 57.778 107.32 58.5541L104.601 63.1998C104.141 63.8617 103.745 64.5872 103.428 65.3716C103.105 66.1547 102.884 66.9482 102.745 67.7484L101.942 72.3675C101.917 72.513 101.951 72.6613 102.041 72.7894C102.124 72.9162 102.261 72.9925 102.399 73.0165L137.409 79.1036C138.668 79.3225 139.769 80.0161 140.51 81.0592C141.23 82.0912 141.517 83.4151 141.295 84.6954C141.072 85.9757 140.354 87.1322 139.329 87.8533L139.327 87.8606Z" fill="black"/>
<mask id="mask2_1762_151" style="mask-type:luminance" maskUnits="userSpaceOnUse" x="10" y="26" width="137" height="113">
<path d="M146.14 85.5453C146.584 82.992 145.99 80.3259 144.516 78.241C143.026 76.1159 140.797 74.7091 138.243 74.265L107.519 68.9231L107.576 68.5958C107.657 68.1302 107.788 67.6808 107.969 67.2402C108.149 66.8069 108.371 66.3958 108.633 66.0068L108.742 65.8534L108.838 65.6902L111.557 61.0518C112.165 60.0109 112.687 58.9027 113.094 57.7743C113.508 56.6398 113.826 55.4586 114.032 54.2729L115.435 46.2057C116.296 41.252 115.584 36.2495 113.375 31.7511L113.371 31.728C113.349 31.6865 113.289 31.5562 113.289 31.5562L113.255 31.4905L113.226 31.4405C112.593 30.2962 111.726 29.336 110.666 28.5747C109.605 27.8207 108.41 27.3206 107.115 27.0954L107.042 27.0827C104.946 26.7184 102.825 27.1889 101.081 28.422C99.3388 29.6479 98.181 31.4775 97.8155 33.5797L95.7438 45.4949C95.6818 45.8514 95.5556 46.1892 95.3617 46.4852C95.1653 46.7958 94.9182 47.0526 94.6265 47.2642L78.0004 58.9795C76.6166 59.9529 75.2927 61.0567 74.081 62.2475C72.8621 63.4369 71.7299 64.7314 70.7271 66.1008L69.9119 67.2106L64.1849 66.2149C63.8978 65.4081 63.5086 64.6284 63.0083 63.9269C61.6015 61.9287 59.4942 60.5956 57.0928 60.178L43.9359 57.8905C41.9566 57.5463 39.9691 57.8527 38.1825 58.7712C36.3973 59.6823 34.9993 61.1254 34.1222 62.9364L11.7023 109.354C10.4383 111.967 10.476 114.941 11.7975 117.517C13.1263 120.093 15.5183 121.858 18.3782 122.355L45.4633 127.065C47.872 127.483 50.2983 126.939 52.2971 125.533C54.0054 124.331 55.2243 122.624 55.7989 120.656L56.905 120.848C57.5236 120.956 58.1244 121.165 58.6797 121.464C59.2363 121.755 59.7473 122.137 60.1849 122.595L65.6786 128.339C66.5105 129.203 67.4781 129.933 68.5342 130.499C69.5964 131.073 70.7364 131.459 71.9298 131.666L112.987 138.805C115.541 139.249 118.116 138.67 120.234 137.18C122.319 135.706 123.777 133.404 124.222 130.844C124.667 128.283 124.112 125.743 122.702 123.677C124.432 123.558 126.103 122.957 127.562 121.937C129.655 120.465 131.105 118.161 131.55 115.601C131.996 113.04 131.432 110.506 130.037 108.436C131.761 108.308 133.43 107.721 134.891 106.694C136.975 105.228 138.434 102.918 138.878 100.365C139.285 98.0227 138.822 95.5966 137.618 93.5962C139.229 93.4267 140.785 92.8429 142.145 91.8802C144.237 90.408 145.696 88.0986 146.14 85.5453Z" fill="white"/>
</mask>
<g mask="url(#mask2_1762_151)">
<path style="mix-blend-mode:screen" opacity="0.4" d="M38.2496 2.71924L27.6231 63.8374C43.166 65.0785 60.8133 70.3426 78.0283 79.6458C101.492 92.3361 118.99 109.752 127.111 126.52L149.153 130.352L167.439 25.1811L38.2496 2.71924Z" fill="url(#paint2_linear_1762_151)"/>
</g>
</g>
<defs>
<linearGradient id="paint0_linear_1762_151" x1="73.1878" y1="129.389" x2="91.0286" y2="26.779" gradientUnits="userSpaceOnUse">
<stop stop-color="white"/>
<stop offset="0.61" stop-color="#EAEAEA"/>
<stop offset="1" stop-color="#DBDBDB"/>
</linearGradient>
<linearGradient id="paint1_linear_1762_151" x1="81.6257" y1="80.601" x2="128.435" y2="26.0312" gradientUnits="userSpaceOnUse">
<stop stop-color="white"/>
<stop offset="1"/>
</linearGradient>
<linearGradient id="paint2_linear_1762_151" x1="81.6257" y1="80.601" x2="128.435" y2="26.0312" gradientUnits="userSpaceOnUse">
<stop stop-color="white"/>
<stop offset="1"/>
</linearGradient>
<clipPath id="clip0_1762_151">
<rect width="147" height="132" fill="white" transform="translate(22.6113) rotate(9.86334)"/>
</clipPath>
</defs>
</svg>
