<svg xmlns="http://www.w3.org/2000/svg" width="28" height="23" viewBox="0 0 28 23" fill="none">
  <path d="M26.0748 0.0357649L26.058 0.0723815H26.1281L26.0944 -0.00390625L26.0748 0.0357649ZM26.7445 0.127307C26.5967 0.266913 26.5084 0.0662785 26.376 0.0723815C26.2689 0.0792474 26.0734 0.402708 26.0258 0.148669C25.8674 0.224065 25.6897 0.236746 25.5235 0.184522C25.5684 0.269965 25.6132 0.354642 25.6573 0.440085C25.7274 0.31955 25.8528 0.440089 25.8248 0.54918C25.6658 0.422542 25.5782 0.611735 25.4402 0.585797C25.3043 0.573591 25.3337 -0.0695148 25.2231 0.366851C25.1159 0.137988 24.9758 0.317267 24.9884 0.512564C24.6648 0.0899292 24.0547 0.786432 23.7507 0.622413C23.743 0.725402 23.6624 0.730742 23.5832 0.698701V0.844414H23.6533C23.6148 0.956557 23.633 1.06183 23.7534 1.06336V0.987071C23.7851 0.981386 23.8176 0.985528 23.8472 0.999019C23.8768 1.01251 23.9023 1.03481 23.9209 1.06336L23.9909 0.987071H23.89V0.914592C24.0371 1.00156 24.0827 0.80398 24.2249 0.786434C24.3797 0.791011 24.4756 1.00233 24.559 0.732273H24.4532C24.4259 0.517141 24.6234 0.511797 24.7544 0.623177C24.7454 0.60888 24.7391 0.592764 24.7359 0.575777C24.7328 0.55879 24.7327 0.541277 24.7359 0.524279C24.739 0.50728 24.7453 0.491143 24.7542 0.476813C24.7632 0.462483 24.7747 0.45025 24.788 0.440848C24.8791 0.588847 24.9828 0.758202 24.9218 0.914592C24.6837 0.699461 24.2865 0.932145 24.6207 1.1694C24.6207 1.05115 24.6017 0.885604 24.7208 0.877976C24.6648 0.973335 24.7488 1.06184 24.821 1.13278L24.6872 1.1694C24.9555 1.32198 24.8819 0.758205 25.1222 0.841359V0.917647H25.256V1.02674H25.1537L25.2237 1.31816C24.9436 1.21059 24.5555 1.46616 24.4203 1.24187C24.4245 1.42954 23.9048 1.55465 23.8018 1.44251C24.0533 1.14651 23.7016 1.20754 23.4516 1.1694L23.4852 1.0603L23.385 1.02369L23.3514 1.27849C23.4452 1.16329 23.7016 1.25026 23.6526 1.4242L23.5524 1.34791L23.4516 1.56609L23.619 1.48981C23.7247 1.83234 23.7114 2.4251 23.3178 2.03603C23.2918 2.11766 23.282 2.20691 23.3514 2.25497C23.2582 2.2893 23.1357 2.3511 23.0838 2.25497L23.184 2.17869L22.95 2.2153V2.13901C22.8435 2.12071 22.7518 2.16038 22.7497 2.28473C22.8898 2.29617 23.0922 2.60742 23.1511 2.72262C22.9654 2.50825 22.8926 2.89961 22.8498 3.08651C22.8498 2.96903 22.8681 2.80272 22.7497 2.79509C22.7493 2.81268 22.7452 2.82996 22.7378 2.84559C22.7304 2.86122 22.7198 2.8748 22.7068 2.88532C22.6939 2.89583 22.6789 2.90299 22.663 2.90626C22.6471 2.90953 22.6308 2.90882 22.6152 2.90418V2.79509C22.4975 2.879 22.4751 2.66692 22.515 2.57614C22.3518 2.60132 22.3553 2.75847 22.4148 2.90418C22.1487 2.80654 22.1347 2.49909 22.1809 2.21225L22.0471 2.24887L22.1171 2.39458C22.0289 2.38542 22.0051 2.30227 22.017 2.21225H21.9168C21.9273 2.26107 21.9385 2.30914 21.9497 2.35796C21.7746 2.30761 21.7564 2.52122 21.7494 2.686C21.7004 2.59446 21.5974 2.64557 21.5154 2.686C21.4846 2.5731 21.4629 2.39687 21.348 2.43044L21.4146 2.686C21.2283 2.67685 20.822 2.80272 20.7456 2.97742L20.6455 2.8317L20.5754 3.08651L20.7428 3.01022C20.8507 3.25358 21.2332 2.93852 21.3782 2.75466C21.3705 3.11169 21.9252 2.97819 21.713 3.37412L21.479 3.15593L21.5126 3.26502C21.3081 3.2429 21.2724 3.83032 21.1106 3.37412C21.2507 3.4176 21.2114 3.15135 21.3452 3.15593L21.2752 3.01022C21.1274 3.14525 20.8346 3.75708 20.6735 3.26502C20.609 3.28028 20.5201 3.29554 20.5397 3.37412C20.291 3.33369 19.9093 4.63821 19.7363 3.62892C19.7692 3.78149 20.0662 3.9478 20.1047 3.73877C19.9373 3.70596 19.7629 3.65867 19.6697 3.51982C19.5415 3.63044 19.5044 3.87685 19.5023 4.03019C19.7446 3.9539 19.9632 4.22548 20.1712 4.13928C20.1811 4.32466 19.9926 4.36815 19.8371 4.39409L19.8035 4.13928C19.7824 4.13751 19.7613 4.14138 19.7419 4.15055C19.7225 4.15972 19.7055 4.17391 19.6923 4.19188C19.6791 4.20986 19.6701 4.23108 19.6662 4.25369C19.6623 4.2763 19.6635 4.29962 19.6697 4.32161C19.6207 4.23006 19.5177 4.28117 19.4357 4.32161L19.4021 4.1759C18.8263 4.42078 19.2887 4.36128 19.3685 4.72212L19.2347 4.61303C19.178 4.77705 19.2347 4.91818 19.4021 4.83121L19.3685 4.72212C19.4435 4.81824 19.7713 4.54055 19.8371 4.53979C19.9352 4.71373 20.0914 4.81901 20.1047 4.50394C20.2777 4.49326 20.2707 4.67635 20.2385 4.83121C19.9828 4.74959 19.7215 4.77628 19.6697 5.08678C19.6361 4.98913 19.5996 4.89225 19.5695 4.79536C19.2942 5.03567 19.0673 4.94793 19.1009 4.53979L18.8333 4.61608L18.7997 4.47037L18.8698 4.50699C18.7948 4.12021 19.5997 4.19268 19.3713 3.81429C19.1612 4.02408 18.4607 4.25982 18.7023 4.68856C18.4922 4.56344 18.0229 4.7984 18.2337 5.0532C18.1083 5.01811 18.0733 5.14857 18.0663 5.27216C17.7238 5.12721 17.6082 5.37666 17.2958 5.45372C17.4828 5.43846 17.5424 5.63071 17.5634 5.81837C17.3799 5.80922 17.4051 5.52085 17.2293 5.56357C17.2622 5.63986 17.2958 5.70928 17.3294 5.78176C17.2047 5.71005 16.8335 5.86262 16.8608 6.03656C17.0296 5.92899 17.2012 5.95341 17.2958 6.14641C17.2464 6.16606 17.1935 6.17298 17.1412 6.16662C17.089 6.16027 17.0388 6.14082 16.9946 6.1098C16.9196 6.46072 16.5792 5.8466 16.4258 6.20058C16.2311 6.37375 15.8878 7.24038 15.5894 6.98405L15.6231 7.16638C15.1026 7.2091 15.7709 7.4578 15.8241 7.54782C15.8108 7.62945 15.4739 7.6508 15.3555 7.67598L15.4255 7.49366C15.2315 7.39754 15.2154 7.70497 15.2581 7.85754C15.2182 7.86806 15.1761 7.86289 15.1393 7.84293C15.1026 7.82298 15.0734 7.78952 15.0571 7.74846C15.1194 7.91934 14.6942 7.86899 14.7566 8.03987C14.8897 7.90103 14.9632 8.13905 15.0907 8.11616V7.93383C15.1454 8.03453 15.2875 7.96435 15.3919 7.93383V8.12837C15.0802 8.13295 15.4872 8.38546 15.4585 8.52888C15.3947 8.72647 15.277 8.7936 15.5593 8.8203C15.4893 8.86759 15.3618 8.92329 15.4255 9.00262C15.1951 9.09646 15.0263 8.52507 15.2581 8.49226L15.2245 8.63798C15.7064 8.23213 14.7342 8.26721 14.524 8.09175C14.5156 8.18788 14.44 8.21381 14.3566 8.20084C14.4127 8.28552 14.421 8.38012 14.3237 8.41978H14.4239V8.5655C13.8908 8.46403 13.9931 8.62652 14.089 9.03924L14.2901 8.96295C14.3503 9.2681 13.694 9.26811 13.7549 8.92634C13.6386 9.09951 13.4747 9.1552 13.3199 9.25438C13.5189 9.46035 13.4047 10.108 13.8551 9.9463L13.7549 9.83722C13.8488 9.78153 13.9048 9.69075 13.8551 9.58242C14.0533 9.52825 14.4939 9.55952 14.1899 9.76474L14.2901 9.87383C14.1058 10.002 13.9545 10.0554 13.7885 10.2019C13.8495 10.0989 13.743 10.0493 13.6547 10.0195C13.6761 10.0971 13.6709 10.1804 13.6401 10.2541C13.6093 10.3277 13.555 10.3867 13.4873 10.4201C13.6225 10.1088 13.1413 9.85781 13.3199 9.54579C13.245 9.62742 13.1266 9.60759 13.0187 9.58242C13.1231 9.85248 12.5529 9.82348 12.6846 10.1652C12.7939 10.1981 12.7462 9.88451 12.8849 9.9463V10.0226C12.8875 9.99302 12.8958 9.9644 12.9094 9.93865C12.923 9.9129 12.9415 9.89063 12.9637 9.87334C12.9859 9.85606 13.0112 9.84416 13.038 9.83846C13.0648 9.83275 13.0923 9.83336 13.1189 9.84026C12.7686 10.6405 13.9251 10.3102 13.3535 11.1158L13.5875 10.9701C13.5819 11.0083 13.5889 11.0475 13.6072 11.0807C13.6256 11.1139 13.654 11.139 13.6877 11.1517C13.5476 11.17 13.3647 11.1669 13.3199 11.2974C13.3668 10.8717 12.9381 11.0464 13.1861 11.3737H13.0523V11.0822H12.8513L12.8849 10.8999C12.728 10.8915 12.4878 10.7168 12.3161 10.6817C12.4254 10.7305 12.3028 10.9457 12.417 10.9731C12.3343 11.1761 12.1978 11.0395 12.1158 10.8969C12.0766 11.1257 11.671 10.9144 11.7144 11.2249L11.547 11.1486C11.5106 11.4415 11.9106 12.1403 11.346 11.659C11.416 11.9504 11.0966 11.868 11.2458 11.659H11.0742C11.3383 11.8878 10.9208 12.1495 10.8402 11.8413C10.7233 11.8558 10.49 12.0648 10.6224 12.1876C10.7331 12.1541 10.9243 11.9466 11.0427 12.1327C10.9215 12.341 10.8255 12.341 10.6413 12.4608C10.6693 12.3456 10.5348 12.2922 10.441 12.2418C10.3709 12.4417 10.4914 12.5553 10.6749 12.5698H10.3737C10.684 12.7789 10.0508 13.0657 10.006 12.8246H10.1061V12.7156C9.97095 12.7491 9.79514 12.917 9.97235 13.0436C10.352 13.5288 9.47012 12.8536 9.50444 13.4075H9.57098C9.54857 13.5051 9.52616 13.602 9.50444 13.6989L9.73839 13.4441C9.69706 13.618 9.86238 13.689 10.006 13.7355L10.0396 13.3716L10.0732 13.5173C10.2553 13.3785 10.4032 13.6096 10.5748 13.5898C10.6042 13.7096 10.469 13.7218 10.3737 13.7355V13.6264C10.2546 13.6623 10.1727 13.9255 9.97235 13.8446L10.0424 13.9903H9.94154C9.95765 13.7233 9.64873 13.985 9.50723 13.8446C9.4554 14.0399 8.90344 14.0971 9.17242 14.4282C9.15001 14.4641 9.12758 14.5045 9.10586 14.5373L9.33983 14.5007L9.3062 14.683C10.0144 14.6578 9.87079 14.5396 9.54017 14.0636C9.83997 14.104 10.1005 14.6739 10.3765 14.355C10.5902 14.577 9.97935 14.6968 9.84136 14.683C9.93102 14.7919 10.0202 14.9012 10.1089 15.0111L9.77482 14.7196V14.9012C9.6032 14.7807 9.53035 14.8432 9.37345 14.9195C9.24666 14.8646 8.97348 14.6906 8.97208 14.5381L8.83829 14.5747L8.93846 14.651L8.73741 14.7273C8.62394 14.5045 9.26698 14.4564 8.90483 14.2169C8.89853 14.3496 8.74372 14.3031 8.73741 14.4358C8.66106 14.3367 8.30103 14.6746 8.50347 14.709C8.71361 14.7974 8.54409 15.0233 8.53709 15.1667L8.63725 15.1301V15.2025H8.5672V15.2994C8.17284 15.2475 8.57141 15.6687 8.50066 15.8823C8.31644 15.7808 7.97391 15.9082 7.80019 15.8823L7.83381 15.806C7.81456 15.7901 7.79107 15.7815 7.76691 15.7815C7.74275 15.7815 7.71927 15.7901 7.70003 15.806C7.78338 15.8891 7.72805 16.0036 7.6664 16.0974C7.8065 16.0692 7.84641 16.2561 8.00121 16.1737C7.99946 16.2028 8.00345 16.232 8.0129 16.2594C8.02234 16.2867 8.03704 16.3115 8.05601 16.3322C8.07497 16.3528 8.09777 16.3689 8.12287 16.3791C8.14797 16.3894 8.1748 16.3938 8.20156 16.3919L8.16794 16.5742C8.27721 16.4743 8.41801 16.5658 8.53639 16.6505C8.29893 16.6078 8.09929 16.7008 8.10139 16.9785H8.20156C8.05096 17.5064 7.48006 17.2745 7.2314 17.4515C7.32736 17.4736 7.5214 17.4568 7.49898 17.5614L7.39882 17.5247V17.6338C7.26503 17.691 7.14454 17.3943 7.06399 17.5972C7.14244 17.6148 7.11793 17.7078 7.09761 17.7795L7.2314 17.6338L7.19777 18.071C7.28323 18.0198 7.38971 17.9588 7.3652 17.8528C7.56273 17.7933 7.61526 18.0404 7.80019 17.9985L7.76657 18.2167H7.86743V18.3624C7.98721 18.3357 8.14342 18.4387 8.06777 18.5813L8.00121 18.505C7.93117 18.6172 7.66499 18.5455 7.49898 18.5417C7.49736 18.5187 7.50091 18.4957 7.50933 18.4746C7.51775 18.4535 7.53079 18.4349 7.54729 18.4206C7.5638 18.4062 7.58327 18.3964 7.60403 18.3921C7.6248 18.3879 7.64621 18.3892 7.6664 18.3959V18.505C8.03135 18.1816 7.33857 18.3082 7.49898 18.032L7.33158 18.0679C7.35329 18.1617 7.37571 18.2716 7.29866 18.3235C7.40373 18.3944 7.48918 18.4997 7.39882 18.6149C7.41494 18.6152 7.43079 18.6195 7.44515 18.6275C7.45951 18.6355 7.47199 18.647 7.48166 18.661C7.49132 18.6751 7.49791 18.6914 7.50091 18.7086C7.50392 18.7259 7.50326 18.7437 7.49898 18.7606C7.31966 18.6774 6.96032 18.6019 7.13123 18.9063C7.04227 18.9155 7.01916 18.9979 7.03107 19.0879H6.93021C6.94211 18.9803 6.97363 18.875 7.06399 18.8331C6.96662 18.8613 6.9239 18.7469 6.89729 18.6507C7.10182 18.727 7.26503 18.4326 7.06399 18.3235L7.2314 18.2869C7.17676 18.1862 7.03458 18.2563 6.93021 18.2869C6.95472 17.8886 6.57506 17.9283 6.39504 17.704C6.92599 17.4668 6.25495 16.9625 6.26125 17.5583L6.09383 17.5217V17.704C6.02756 17.7164 5.9594 17.7054 5.89928 17.6726C5.83917 17.6398 5.79026 17.5869 5.7597 17.5217C5.84446 17.466 5.94253 17.5347 6.02729 17.5942C6.02729 17.4301 5.88719 17.35 5.99367 17.157C5.81575 17.2242 5.63083 17.2242 5.52575 17.0479C5.45991 17.2005 5.27498 16.9961 5.32471 16.8656L5.22455 17.0113V16.6474C5.08936 16.7657 4.64385 16.8114 4.58851 16.5017L4.92334 16.4651C4.92895 16.2072 4.83578 15.8983 4.58851 15.809L4.65856 15.6275C4.32794 15.9502 4.1101 15.3223 4.49116 15.1537C4.30483 15.082 4.08908 15.0988 3.88874 15.0439L3.92236 15.1201L3.99241 15.0835V15.1926H3.85863C3.68281 14.8997 3.43834 14.9157 3.78858 14.5739C3.68071 14.5739 3.53991 14.5907 3.48737 14.4976L3.55742 14.6433C3.3865 14.6777 3.26112 14.3695 3.48737 14.461V14.3519L3.35359 14.3885C3.3739 14.2718 3.30456 14.1749 3.2198 14.0971C3.38161 13.9102 3.49018 14.0758 3.42083 14.2795C4.20816 14.5213 3.29685 13.84 3.32067 13.4403C3.31226 13.5463 3.21209 13.5738 3.11962 13.586C3.28704 13.5761 3.30106 13.7554 3.28705 13.914H2.95222C2.98864 13.6974 2.87796 13.435 2.7848 13.7683H2.9186C2.92836 13.8117 2.92364 13.8575 2.90529 13.8975C2.88694 13.9374 2.85615 13.969 2.81842 13.9865C2.77499 13.8454 2.60829 13.9163 2.48431 13.9506C2.51723 13.853 2.55085 13.7561 2.58447 13.6592C2.39324 13.6127 2.12496 13.5669 2.1831 13.3312C2.08573 13.3403 2.06051 13.4487 2.0493 13.5494L1.91552 13.4403C1.93793 13.5372 1.95964 13.6348 1.98206 13.7317C1.82445 13.6722 1.72849 13.5357 1.51415 13.586C1.52535 13.6348 1.53656 13.6836 1.54707 13.7317L1.34672 13.6554C1.35163 13.7866 1.55687 13.8385 1.61431 13.7317C1.72288 13.8011 1.57579 13.9552 1.51415 14.0597L2.01568 13.9835C1.80974 14.0475 1.50014 14.3771 1.74811 14.4938C1.64934 14.6815 1.63533 14.8882 1.84827 14.6761L1.91832 14.9676C1.94073 14.931 1.96245 14.8913 1.98486 14.8585C1.99361 14.8729 2.00492 14.8853 2.01811 14.8949C2.03129 14.9045 2.0461 14.9112 2.06168 14.9146C2.07726 14.9179 2.09329 14.9178 2.10885 14.9144C2.1244 14.9109 2.13915 14.9041 2.15227 14.8943L2.08573 15.04C2.16343 15.0414 2.23986 15.0618 2.30934 15.0997C2.37883 15.1376 2.43957 15.192 2.48709 15.259L2.31969 15.3681C2.27206 15.275 2.21601 15.1591 2.11865 15.1858C2.10814 15.3887 2.32249 15.4642 2.35331 15.587C2.26715 15.5634 2.16628 15.539 2.11865 15.6236C2.17458 15.6329 2.22562 15.6638 2.2625 15.7105C2.29938 15.7572 2.31967 15.8168 2.31969 15.8784C2.37363 15.8434 2.43526 15.8022 2.41985 15.7327H2.31969V15.6236C2.52983 15.5649 2.4941 16.1439 2.75468 15.8784C2.78249 15.9127 2.80044 15.9552 2.80629 16.0005C2.81215 16.0458 2.80564 16.0919 2.7876 16.1333L2.52001 16.057C2.66011 16.16 2.69093 16.3125 2.59006 16.4575C2.87515 16.4025 2.94031 16.7184 3.12523 16.8221C2.90318 16.9335 3.08601 17.4767 3.19528 17.0403L3.26182 17.1166C2.98163 17.2829 3.48387 17.498 3.59665 17.408C3.63728 17.3157 3.57843 17.1395 3.73043 17.1166C3.69541 17.3905 3.83272 17.7628 3.46287 17.7719V17.881H3.57914V17.8047C3.77247 17.7734 3.86283 17.9764 4.01343 17.9138C3.90485 18.2602 4.22357 18.029 4.34826 18.0595C4.44632 18.238 4.2782 18.4593 4.08067 18.4242C4.04004 19.078 5.45291 18.1266 4.88343 18.8613V18.7156C4.34336 18.6454 4.82038 19.3457 4.58222 19.4785C4.60641 19.4711 4.63171 19.469 4.65665 19.4723C4.68158 19.4757 4.70567 19.4844 4.7275 19.4979C4.74932 19.5115 4.76847 19.5296 4.78381 19.5513C4.79915 19.573 4.81038 19.5977 4.81687 19.6242C5.05783 19.4563 5.35063 19.7768 5.58739 19.6608L5.62101 19.7699H5.48723V19.8462C5.24206 19.6082 5.03193 20.1056 5.31982 20.1376L5.21964 19.9194C5.27498 20.0186 5.43749 19.9682 5.55377 19.956C5.57128 20.0758 5.56288 20.2833 5.68757 20.2474V20.0651L5.78843 20.1017C5.70438 20.2665 5.7492 20.4374 5.92222 20.4656V20.2581C5.99226 20.294 6.03219 20.3611 5.98876 20.4397L6.15618 20.3306C5.75271 20.8646 5.75832 20.7426 6.42377 20.7319L6.45739 21.0233L6.25634 20.8776C6.24163 20.9539 6.1786 20.9424 6.12256 20.9134V21.021C6.31239 20.9111 6.35721 21.3574 6.55755 21.3124V21.2361H6.42377V21.127L6.52393 21.1637L6.49031 20.9813C6.68294 20.9684 6.71164 21.259 6.75858 21.4551C6.08612 21.465 6.76909 21.7816 6.95892 21.9288C6.9365 21.819 6.91409 21.7099 6.89238 21.6008C7.02547 21.7259 7.33647 21.9647 7.32667 22.1836L7.19288 22.147V22.2233C7.35049 22.1585 7.40303 22.4087 7.52771 22.3324C7.31757 21.8899 7.99912 22.0425 8.16303 22.041C8.15845 22.0649 8.1583 22.0895 8.16257 22.1135C8.16684 22.1375 8.17544 22.1603 8.18789 22.1806C8.20035 22.2009 8.21641 22.2183 8.23511 22.2318C8.25381 22.2453 8.27479 22.2546 8.29683 22.2592C8.19736 22.2645 8.06987 22.2706 8.06287 22.1501L7.9627 22.2264L7.89265 22.0806C7.87374 22.25 7.78688 22.3759 7.62507 22.3354C7.70212 22.5742 7.90526 22.488 8.02644 22.6635C8.12521 22.4644 8.60223 22.0967 8.72691 22.3721C8.66247 22.1653 8.66526 21.9426 8.89432 21.9349C8.78084 21.7824 9.03863 21.6016 8.9945 21.388C9.01622 21.4115 9.04444 21.4267 9.07484 21.4311C9.10524 21.4355 9.13613 21.429 9.16278 21.4124C9.18942 21.3959 9.21035 21.3703 9.22234 21.3395C9.23433 21.3088 9.23671 21.2746 9.22915 21.2422L9.02812 21.2789C9.32022 20.9569 9.4365 21.005 9.69707 20.696C9.52826 20.6358 9.5948 20.3146 9.76712 20.3314V20.4405L9.90091 20.4046C10.123 19.5342 9.76501 20.3962 9.66624 19.8576C9.80633 19.821 9.99196 19.7562 10.0683 19.8942C10.1608 19.6989 10.2666 19.4365 10.4697 19.4937C10.4249 19.4327 10.38 19.3724 10.3359 19.3114C10.4326 19.2893 10.5629 19.2572 10.5699 19.3877C10.9166 19.2206 10.3219 18.8613 10.67 18.7316V18.9864C11.0013 18.9979 11.105 18.4974 11.4062 18.5493C11.1632 18.4089 11.1639 17.8459 11.5064 17.9298C11.5002 17.9518 11.499 17.9751 11.5029 17.9977C11.5068 18.0203 11.5158 18.0416 11.529 18.0595C11.5422 18.0775 11.5592 18.0917 11.5786 18.1009C11.598 18.1101 11.6191 18.1139 11.6402 18.1122C11.6514 18.0214 11.6885 17.9405 11.774 17.9298C11.5267 17.7277 11.8994 17.5392 12.0752 17.675L12.0051 17.4927C12.155 17.4637 12.1137 17.1708 12.3063 17.1647C12.3203 17.2341 12.3351 17.3317 12.4072 17.3104C12.4072 17.1578 12.431 16.9434 12.2734 16.9465C12.3147 16.8092 12.4835 16.8893 12.541 16.9831C12.506 16.7344 12.7784 16.7893 12.8912 16.7092C12.908 16.5101 13.1889 16.2515 13.2092 16.0722L13.6106 16.1081V15.999L13.4768 16.0753C13.2982 15.5756 14.019 15.7236 13.778 15.0545H13.9118V14.9783L14.1458 15.0149C14.0722 14.8699 14.1976 14.8097 14.3132 14.8692C14.3006 14.7555 14.5401 14.7799 14.4799 14.6136H14.3461C14.3132 14.3977 15.1376 14.5373 14.5808 14.1399C14.7342 14.3603 14.4407 14.5625 14.4133 14.2497L14.2459 14.3954C14.213 14.2261 14.1969 14.0231 14.3797 13.9941C14.4154 14.2062 14.6172 14.059 14.7146 13.9583C14.7293 14.0773 14.7335 14.2413 14.8483 14.2497C14.9695 13.924 14.3811 13.6394 14.9485 13.557L14.9149 13.776L15.0158 13.6997C15.0403 13.8294 14.8757 13.8454 14.9149 13.9911C15.2791 14.0117 14.9947 13.6478 15.2651 13.5181C15.6154 13.322 15.3352 13.232 15.1145 13.2625L15.1481 13.1168L15.2819 13.1534C15.3009 13.0772 15.2119 13.0596 15.1481 13.0443C15.1481 12.8712 15.4942 12.9925 15.4823 13.1168C15.5523 13.1008 15.5425 13.0321 15.5159 12.9711L15.6497 13.0077C15.5965 13.0306 15.5831 13.0535 15.5796 13.1534C15.745 13.5784 15.9467 12.5538 15.4458 12.8254C15.5593 12.4874 15.7394 12.7491 15.9145 12.7896V12.9711L16.1155 12.9353C15.9544 12.7644 15.9516 12.5355 15.8479 12.3517C16.0581 12.3639 16.0721 12.5553 16.2493 12.6072C16.2297 12.5309 16.3193 12.5134 16.3831 12.4974C16.208 12.1159 16.6696 12.1289 16.9182 12.2059L16.8482 11.9878C17.0373 11.9778 16.8958 11.5239 16.7144 11.6597C17.1221 12.1098 16.5085 11.6147 16.313 11.7688C16.3295 11.8098 16.3586 11.8433 16.3953 11.8633C16.432 11.8834 16.474 11.8888 16.5141 11.8787L16.3467 11.9878C16.3663 11.8794 15.9425 11.9176 15.9453 11.8237C16.0476 11.7375 16.2031 11.6613 16.1456 11.4423C15.8801 11.5117 15.9355 10.996 15.7779 10.8961L15.6441 10.9724L15.6105 10.8625H15.7442V10.7862C15.9145 10.8 16.1799 11.244 16.1792 11.3691L16.4468 11.3325C16.4811 11.855 16.7887 11.125 17.0829 11.4782V11.3691L17.2832 11.4057C17.2075 11.5689 17.3974 11.6033 17.417 11.7696C17.4289 11.6689 17.4541 11.5606 17.5508 11.5514L17.5171 11.4416C17.632 11.4416 17.6678 11.3393 17.6509 11.2234C17.8835 11.3546 17.7259 10.7908 17.9521 10.7862L17.9185 10.9319C18.0698 10.9319 18.3171 10.7359 18.3206 10.5673H18.4544L18.2197 10.4216C18.4516 10.3239 18.7689 10.5658 18.8887 10.3125C18.8249 10.2599 18.689 10.2995 18.5882 10.3125C18.6925 10.2827 18.7815 10.2164 18.7549 10.0935L19.0225 10.2034C18.9594 10.0615 18.8936 9.87765 18.7549 9.87536C18.8312 10.1141 18.6799 10.0432 18.6211 9.87536C18.8193 9.79144 19.047 9.60912 19.2235 9.91198C19.3069 9.82229 19.365 9.70845 19.3909 9.58394C19.1976 9.68769 18.8235 9.45807 18.7885 9.25591L18.8887 9.36499C18.9286 9.14223 19.1528 9.30397 19.0561 9.47485C19.1962 9.50918 19.2662 9.39856 19.2907 9.25591L19.4245 9.36499C19.531 9.27421 19.8448 9.28871 19.9926 9.21929C19.9506 8.9683 20.214 8.99042 20.3947 8.96448C20.2742 8.93473 20.1243 8.89277 20.16 8.74553C20.0459 8.66925 19.9058 9.10028 19.7923 9.03772C19.6207 8.93931 19.8252 8.90498 19.9261 8.89125L19.856 8.74553C20.179 8.90574 19.966 8.32977 20.1572 8.23594C20.0991 8.56474 20.2434 8.79207 20.5586 8.74553C20.457 8.65018 20.5852 8.56245 20.5257 8.45412C20.7085 8.49455 20.8234 8.01089 20.8934 8.37783C21.0223 8.23136 21.1827 7.97732 20.9936 7.83161C21.2535 7.97274 21.5175 7.62335 21.6941 7.72176C21.7697 7.56918 21.5918 7.54477 21.6275 7.39372H21.5267L21.6941 7.24801C21.7326 7.45093 21.9953 7.32429 22.1627 7.28462L22.129 7.17554L21.9953 7.25182C22.0156 7.14655 22.045 7.00465 21.9252 6.99703L22.059 6.85131L21.6247 6.88793C21.6352 6.8269 21.6464 6.76663 21.6576 6.7056H21.5876V6.55989C21.6037 6.64457 21.6885 6.61864 21.755 6.59651V6.7056C22.0289 6.80325 22.1634 6.56829 22.4239 6.59651C22.4001 6.79639 21.9561 6.97261 22.2566 7.10611L22.2229 6.9604H22.5577L22.4569 6.66898L22.7581 6.7056C22.6089 6.67127 22.6334 6.48894 22.6579 6.34094C22.679 6.33917 22.7001 6.34304 22.7195 6.35221C22.7389 6.36138 22.7559 6.37557 22.7691 6.39355C22.7823 6.41153 22.7912 6.43275 22.7952 6.45536C22.7991 6.47797 22.7979 6.50128 22.7917 6.52327C22.9143 6.47216 23.0572 6.41113 23.0593 6.26847L23.1931 6.37757C23.2995 6.16854 23.1931 6.03732 22.9927 6.12276C22.9437 5.99383 23.5812 5.88322 23.2267 5.75811C23.3829 5.42779 23.7801 6.10216 23.979 5.94043C24.1072 5.77184 23.4768 5.4644 23.3269 5.5033C23.3044 5.40947 23.4481 5.41253 23.5279 5.39422L23.4943 5.24851C23.2996 5.49034 22.9451 5.12187 22.8919 5.46669C22.8071 5.44838 22.8429 5.3309 22.859 5.24851L22.7581 5.32479C22.7188 5.09593 22.2166 5.24851 21.9876 5.24851C22.1227 4.79765 22.3378 5.0738 22.2215 4.51995C22.5143 4.61226 22.9738 4.42231 23.2253 4.55582C22.9031 4.73891 23.3598 5.02498 23.5931 5.06618C23.8193 4.72746 23.4852 4.48258 23.5594 4.22701L23.3255 4.26286C23.2799 3.62586 23.9321 4.17361 23.8277 4.51844C24.0378 4.47953 23.93 4.76255 24.1282 4.80985L24.1982 4.48181C24.0855 4.5108 24.0253 4.41392 23.9972 4.29949H24.0981V4.2232C24.2487 4.25295 24.4581 4.2232 24.3657 4.44138L24.4322 4.40476C24.4325 4.42233 24.4365 4.4396 24.4438 4.45526C24.4512 4.47092 24.4617 4.48455 24.4746 4.49514C24.4875 4.50572 24.5024 4.51298 24.5182 4.51635C24.5341 4.51972 24.5504 4.51913 24.566 4.51462V4.36891C24.3362 4.38721 24.503 4.14691 24.5996 4.04087C25.1404 4.52072 24.6865 4.66948 25.3701 4.55047C25.4234 4.45969 25.3526 4.39789 25.27 4.36891C25.3905 4.31245 25.4801 4.3773 25.5039 4.51462L25.6714 4.43833C25.6489 4.40171 25.6265 4.36204 25.6048 4.32923L25.8724 4.29262C25.8408 4.13012 25.6735 4.15683 25.5376 4.18353V4.07444C25.3008 4.25447 25.0675 4.08664 24.9351 3.89211L24.7684 4.0012C24.6655 3.6724 24.8581 3.59917 25.1362 3.60069L25.1026 3.78226L25.3701 3.67316C25.3717 3.69602 25.3682 3.71896 25.3598 3.73999C25.3514 3.76101 25.3385 3.7795 25.322 3.79385C25.3056 3.8082 25.2862 3.81797 25.2656 3.82233C25.2449 3.82669 25.2236 3.82551 25.2034 3.81887C25.1768 4.00654 25.3961 4.05537 25.5376 4.03782L25.4374 3.60069C25.6377 3.71436 25.5074 4.063 25.8387 3.78226C25.8051 3.7464 25.7687 3.70978 25.7386 3.67316C25.8451 3.58009 25.9817 3.62587 25.9053 3.78226C25.962 3.79751 26.0216 3.82421 26.0062 3.89211H25.9242C25.9526 3.92601 25.971 3.96844 25.977 4.01388C25.983 4.05932 25.9763 4.10567 25.9578 4.14691C26.3011 4.25372 25.9803 3.79064 26.1589 3.67316C26.2506 3.74029 26.2604 3.85244 26.2254 3.96459C26.3655 3.87304 26.4559 3.65943 26.6268 3.92796C26.6561 3.87351 26.6743 3.81282 26.6801 3.75002C26.6859 3.68722 26.6792 3.62379 26.6604 3.56407L26.8278 3.64036V3.53127C26.9084 3.62434 27.0464 3.57017 27.162 3.53127L26.9952 3.42218C27.0085 3.41265 27.0199 3.40034 27.0287 3.38597C27.0375 3.37161 27.0437 3.35548 27.0467 3.33852C27.0498 3.32155 27.0497 3.30409 27.0466 3.28715C27.0434 3.27021 27.0371 3.25414 27.0281 3.23985H27.3294L27.2593 2.91181C27.487 2.89426 27.6796 2.64633 27.7609 2.4022L27.4597 2.32592H27.6607V2.10773C27.8176 2.13672 27.9409 2.06654 27.9619 1.88879C27.8568 1.91549 27.8463 1.67137 27.9283 1.63399L27.7945 1.48828L27.9948 1.34257C27.8547 1.25561 27.9171 0.911547 27.6943 0.977917C27.8092 0.596478 27.3833 0.548413 27.3595 0.249365L27.1255 0.431694C27.1851 0.205119 26.9413 -0.0306092 26.7445 0.127307ZM25.9242 0.400413L25.9943 0.437039L25.9606 0.513327L25.9242 0.400413ZM25.8072 0.800924C25.8871 0.795584 25.8696 0.983255 25.9578 0.946637C25.9536 1.08395 25.9894 1.30214 25.8577 1.31129C25.9943 1.08701 25.6335 0.87035 25.8072 0.804742V0.800924ZM26.259 0.800924L26.3291 0.877212L26.1953 0.986308C26.2142 0.922989 26.2366 0.861958 26.259 0.804742V0.800924ZM23.2316 0.910784L23.2484 0.946637L23.2148 0.874167L23.2316 0.910784ZM24.1681 0.929092C24.1906 0.995462 24.0981 1.07328 24.0511 1.12897C24.2732 1.38148 24.5415 0.784147 24.1513 0.874167L24.1681 0.929092ZM25.5565 0.910784L25.6567 1.01987H25.5565V0.910784ZM24.4021 1.14727L24.386 1.2022L24.4862 1.12591L24.4161 1.08929L24.4021 1.14727ZM26.3592 1.09235H26.4293L26.3956 1.16864L26.3592 1.09235ZM23.1812 1.2022V1.23806H23.282L23.1812 1.16177V1.2022ZM26.2927 1.22051C26.3181 1.23665 26.3382 1.26112 26.3502 1.29043C26.3621 1.31973 26.3653 1.35239 26.3592 1.38376L26.0916 1.23806C26.1561 1.20068 26.2233 1.15719 26.2927 1.22051ZM22.9136 1.36622C22.8246 1.59508 23.0754 1.53634 23.1146 1.34791C23.0467 1.34126 22.9782 1.34746 22.9122 1.36622H22.9136ZM25.7575 1.34791H25.824L25.7904 1.4242C25.7799 1.39597 25.7687 1.37232 25.7575 1.34791ZM22.2278 1.49362C22.1361 1.56228 22.2278 1.66603 22.3119 1.63933L22.2783 1.45701L22.2278 1.49362ZM22.4786 1.60271L22.4457 1.71181C22.5311 1.69884 22.6614 1.65001 22.6796 1.74842L22.847 1.63933L22.5122 1.49362L22.4786 1.60271ZM25.6237 1.49362L25.7239 1.67595C25.56 1.51422 25.3855 1.84225 25.4227 2.00322C25.4885 1.9811 25.574 1.95516 25.5901 2.03984C25.5088 2.05052 25.4346 2.09019 25.4563 2.18555C25.3996 2.05357 25.2791 2.03298 25.1551 2.07646C25.1845 2.18784 25.2525 2.35872 25.1215 2.36788L25.3561 2.51359C25.3544 2.49068 25.3578 2.46765 25.3661 2.44652C25.3745 2.4254 25.3874 2.40683 25.4039 2.39244C25.4204 2.37806 25.4398 2.36829 25.4606 2.364C25.4813 2.35972 25.5027 2.36105 25.5229 2.36788V2.25879H25.6237V2.14893C26.2233 2.21835 25.4136 2.53495 25.5229 2.87825C25.2427 2.8546 25.4115 2.69973 25.4731 2.56852C25.4171 2.43654 25.3148 2.56852 25.2889 2.6593L25.0213 2.4045C25.1614 2.31676 25.0486 2.11613 24.9877 1.96737C25.0696 1.95669 25.1432 1.91701 25.1215 1.82166C24.9779 1.9399 24.8693 1.72782 24.6865 1.78504C24.7481 1.89489 24.7439 2.0078 24.6199 2.03984C24.5184 1.95134 24.2963 1.97576 24.2851 1.71181C24.2326 1.80717 24.0911 1.76368 23.9846 1.74842C24.0154 1.901 23.9006 1.94753 23.7836 1.93075L23.8536 1.78504H23.7528C23.8165 1.69578 23.8894 1.57753 23.9874 1.60271L23.9538 1.52642C24.1527 1.79877 24.2592 1.45013 24.5891 1.52642C24.3986 1.8659 25.1628 1.72554 25.2252 1.63552L25.2952 1.78123H25.195V1.89032H25.2952C25.3358 1.78504 25.4745 1.71256 25.3954 1.52642L25.5628 1.63552L25.6237 1.49362ZM23.1483 1.56991V1.60653L23.2484 1.56991L23.1483 1.53406V1.56991ZM25.8913 1.53406C26.0055 1.61035 26.0804 1.72325 26.0251 1.86133C25.9946 1.85186 25.9664 1.83518 25.9425 1.81248C25.9186 1.78979 25.8995 1.76163 25.8868 1.73001C25.874 1.6984 25.8678 1.66411 25.8686 1.62958C25.8694 1.59505 25.8771 1.56113 25.8913 1.53024V1.53406ZM23.3486 1.71561L23.315 1.7919L23.516 1.86819C23.5776 1.76596 23.4684 1.69959 23.3822 1.65001L23.3486 1.71561ZM26.7445 1.66145C26.8692 1.68129 26.9021 1.68129 26.8944 1.75224H26.6247V2.11689C26.4419 1.97652 26.2878 2.24429 26.0895 2.18937L26.1904 2.48078C25.5214 2.29617 26.472 1.67977 26.7445 1.65764V1.66145ZM23.0474 1.86133C23.0145 1.92236 22.9773 1.98339 22.9472 2.04366C23.0348 2.0673 23.0712 1.98644 23.081 1.89794C23.1321 2.00246 23.3535 1.96431 23.315 1.82166H23.2484L23.282 1.67595C23.1756 1.66603 23.1399 1.69426 23.0474 1.85752V1.86133ZM22.763 1.86133C22.7441 1.93761 22.7707 1.95135 22.8134 1.97119L22.8835 1.78886C22.8281 1.78275 22.7777 1.77894 22.763 1.85752V1.86133ZM22.0443 1.89413V1.93075C21.9042 1.89566 21.7333 1.88803 21.7431 2.07646C21.6891 2.05326 21.6294 2.05147 21.5743 2.07142C21.5192 2.09136 21.4723 2.13176 21.4419 2.18555C21.6149 2.19089 21.9 2.20233 21.8769 1.96737C21.9932 2.03603 22.0828 1.89108 22.1781 2.00322V1.85752H22.0443V1.89413ZM26.4573 1.89413V1.93075H26.5575V1.85446H26.4573V1.89413ZM24.0484 1.89413C24.1184 1.9277 24.2361 1.95516 24.2158 2.03984C24.0974 2.00551 24.0967 2.18326 24.082 2.29465C24.3839 2.30456 25.0115 2.01162 24.8175 2.6593C24.9674 2.65396 25.0486 2.7539 25.0185 2.9141C24.9204 2.78441 24.8259 2.99497 24.7173 2.9141C24.8287 2.73864 24.5772 2.61352 24.7874 2.44035L24.4525 2.62268L24.5226 2.44035C24.2319 2.43348 24.1724 2.85002 23.8221 2.76839C24.1724 2.47087 23.9783 2.48154 23.8221 2.22217L24.0224 2.25879L23.9559 2.1825L24.0561 2.11003C24.0399 2.10972 24.0241 2.10541 24.0097 2.09742C23.9954 2.08942 23.9829 2.07795 23.9732 2.06389C23.9636 2.04983 23.957 2.03354 23.954 2.01629C23.951 1.99903 23.9516 1.98125 23.9559 1.96431H24.0561L24.0484 1.89413ZM27.1928 1.93075C27.2719 1.94906 27.4162 1.946 27.3938 2.03984L27.1928 1.93075ZM26.3564 1.98491L26.39 2.00322L26.3235 1.96737L26.3564 1.98491ZM22.0576 2.07646L22.0415 2.11308L22.2755 2.18555C22.3273 2.07341 22.1038 2.01314 22.0604 2.07646H22.0576ZM22.3588 2.09477L22.342 2.14893L22.4758 2.11308L22.3756 2.03679L22.3588 2.09477ZM22.5935 2.22217C22.5669 2.27023 22.4443 2.23208 22.3756 2.22217L22.4092 2.36788C22.3217 2.36788 22.1928 2.34728 22.1753 2.44417C22.2607 2.46782 22.3623 2.49223 22.4092 2.40831C22.4317 2.45637 22.4541 2.5052 22.4793 2.55403V2.44417C22.6313 2.48612 22.6782 2.33965 22.6803 2.18937C22.6467 2.18479 22.6117 2.18173 22.5963 2.22217H22.5935ZM21.7403 2.24047L21.7739 2.25879L21.7039 2.22217L21.7403 2.24047ZM26.5911 2.33126C27.0184 2.197 27.1402 3.06362 26.8418 2.7127C26.8832 2.53648 26.7515 2.49757 26.624 2.54868C26.6156 2.47697 26.6051 2.40679 26.5939 2.3305L26.5911 2.33126ZM23.4446 2.49528C23.4572 2.62345 23.5188 2.71652 23.6792 2.73254C23.5391 2.73254 23.4067 2.78594 23.4446 2.95072H23.612C23.6421 3.07354 23.4803 3.11931 23.378 3.16966C23.5139 3.0087 23.2547 2.82942 23.378 2.69592L23.2442 2.6593C23.3059 2.60056 23.4025 2.47468 23.4488 2.49528H23.4446ZM23.612 2.47697H23.7528C23.7303 2.5258 23.7086 2.57462 23.6862 2.62268L23.612 2.47697ZM22.7091 2.55326L22.6754 2.58911H22.7756C22.7644 2.56547 22.7532 2.54105 22.7427 2.51664L22.7091 2.55326ZM24.9835 2.51664L25.0535 2.58911L24.9527 2.62573L24.9835 2.51664ZM26.2212 2.55326L26.355 2.69896L26.1883 2.73559L26.2212 2.55326ZM21.07 2.62573L21.1029 2.66235L21.0363 2.58606L21.07 2.62573ZM20.7856 2.71727L20.7687 2.80806L20.8024 2.62573L20.7856 2.71727ZM25.1173 2.66235L25.2181 2.73864L25.0507 2.77449C25.0773 2.73253 25.0991 2.69592 25.1215 2.6593L25.1173 2.66235ZM24.3145 2.69896H24.3846L24.351 2.88129L24.2508 2.80501H24.3173L24.3145 2.69896ZM23.144 2.73559C23.2442 2.77526 23.2407 2.88816 23.2106 2.99039C23.1924 2.9019 23.17 2.81722 23.1483 2.73254L23.144 2.73559ZM25.8871 2.78975C25.9572 2.80577 25.9571 2.85993 25.9536 2.91715L25.7533 2.88129C25.7883 2.82408 25.8191 2.76229 25.8913 2.78822L25.8871 2.78975ZM21.7886 2.80806H21.9392C21.9098 3.26121 21.8264 2.89579 21.6051 2.91715C21.6282 2.8256 21.6562 2.80577 21.7914 2.80501L21.7886 2.80806ZM26.1547 2.88435L26.2549 2.9202C26.2324 2.98123 26.21 3.0415 26.1883 3.10253C26.1225 3.04913 26.1344 2.95988 26.1589 2.87825L26.1547 2.88435ZM25.4542 2.9202C25.506 2.91903 25.5569 2.93616 25.599 2.96902C25.6412 3.00188 25.6724 3.04871 25.6882 3.10253L25.4542 3.13915C25.499 3.05676 25.534 2.96445 25.4563 2.9141L25.4542 2.9202ZM25.7554 2.9202C25.7771 2.98123 25.7995 3.0415 25.822 3.10253H25.7218L25.7554 2.9202ZM26.3907 2.9202L26.5581 3.06591L26.3571 2.98963L26.3907 2.9202ZM22.0919 2.95682H22.176V3.09338H22.2818V2.98428C22.3574 2.96445 22.4218 3.09261 22.4821 3.16661C22.293 3.10482 22.2804 3.38174 22.1143 3.38479C22.0996 3.25586 21.811 3.04226 22.094 2.95072L22.0919 2.95682ZM25.2034 2.95682C25.2931 2.95148 25.3232 3.03311 25.354 3.10253C25.1831 3.11626 24.9394 3.11245 24.952 3.32148H25.1194C25.0682 3.4237 24.9856 3.48474 24.8854 3.43057V3.57627H24.7853C24.8483 3.46947 24.7264 3.34742 24.6515 3.24824C24.4672 3.37107 24.6368 3.62205 24.4168 3.72199C24.4974 3.5389 24.2382 3.23527 24.4168 3.06591C24.4616 3.1422 24.5065 3.21162 24.5506 3.28486C24.428 2.95606 25.0781 2.96064 25.2056 2.95072L25.2034 2.95682ZM22.5416 2.99343L22.6418 3.06972H22.5416V2.99343ZM26.6226 2.99343L26.6927 3.03006L26.5925 3.10635L26.6226 2.99343ZM24.2809 3.03006H24.351L24.3173 3.10635L24.2809 3.03006ZM27.024 3.03006H27.1248V3.13915L27.024 3.03006ZM20.401 3.12084V3.17576C20.3207 3.14963 20.2358 3.14593 20.1539 3.165C20.072 3.18406 19.9958 3.22529 19.9324 3.28486C19.9508 3.31348 19.9764 3.33583 20.006 3.34933C20.0356 3.36283 20.0681 3.36692 20.0998 3.36115V3.24595C20.2399 3.30164 20.5607 3.24595 20.401 3.06362V3.12084ZM24.1303 3.06591C24.2053 3.08193 24.2445 3.33902 24.2809 3.46719C24.1016 3.39853 24.0112 3.51601 23.8466 3.50304V3.42675C23.763 3.42504 23.681 3.4517 23.612 3.50304C23.6124 3.48553 23.6164 3.46835 23.6238 3.45279C23.6312 3.43723 23.6417 3.42369 23.6546 3.41319C23.6675 3.4027 23.6823 3.39551 23.6981 3.39218C23.7139 3.38884 23.7302 3.38945 23.7457 3.39395V3.28486C23.5069 3.397 23.502 3.07659 23.7457 3.13915C23.7184 3.25358 23.8522 3.30774 23.9468 3.35733C23.9986 3.25358 24.0652 3.06515 24.1345 3.05981L24.1303 3.06591ZM22.8765 3.10253H22.943V3.21163H22.8765V3.10253ZM20.5649 3.19332V3.24824H20.635L20.5649 3.13915V3.19332ZM23.2078 3.13915C23.3633 3.21543 23.3647 3.49999 23.3416 3.68537C23.2384 3.5245 23.1932 3.32787 23.2148 3.13305L23.2078 3.13915ZM26.8208 3.13915C26.8909 3.13915 26.9231 3.19332 26.9546 3.24824C26.8685 3.39166 26.6072 3.17729 26.8278 3.13305L26.8208 3.13915ZM25.8843 3.17576C26.1645 3.37487 25.691 3.36572 25.6496 3.53966C25.408 3.20781 25.8976 3.39853 25.8913 3.16966L25.8843 3.17576ZM22.9423 3.25205C23.0558 3.46413 22.5396 3.5717 22.541 3.36115C22.5508 3.46337 22.7364 3.42065 22.7083 3.32529C22.8085 3.34818 22.9122 3.35123 22.9472 3.24595L22.9423 3.25205ZM23.4775 3.28868H23.5111C23.5152 3.30561 23.5158 3.32333 23.5127 3.34053C23.5097 3.35772 23.5031 3.37394 23.4934 3.38796C23.4838 3.40198 23.4714 3.41344 23.4571 3.42148C23.4428 3.42952 23.427 3.43393 23.4109 3.43438C23.4284 3.37335 23.439 3.27952 23.4824 3.27876L23.4775 3.28868ZM26.5049 3.28868C26.7907 3.48397 26.4188 3.76394 26.2878 3.39776C26.4075 3.42752 26.4307 3.3047 26.5098 3.27876L26.5049 3.28868ZM26.1203 3.32529L26.2205 3.36115C26.2058 3.42828 26.147 3.44201 26.0867 3.43743L26.1203 3.32529ZM21.9056 3.36115C21.9391 3.37416 21.9675 3.39947 21.9857 3.43273C22.004 3.466 22.0111 3.50515 22.0058 3.54348H22.2117C22.19 3.5923 22.1676 3.64113 22.1452 3.68919L22.6131 3.7258L22.5801 3.90813C22.4113 3.84176 22.2453 3.62815 22.045 3.79827C22.045 3.6457 21.9946 3.50076 21.844 3.50686L21.9056 3.36115ZM25.2504 3.36115L25.3204 3.50686L25.2203 3.54348C25.2099 3.52876 25.2025 3.51179 25.1986 3.49373C25.1948 3.47566 25.1945 3.45691 25.1978 3.43872C25.2011 3.42053 25.208 3.40331 25.2179 3.38823C25.2278 3.37314 25.2405 3.36053 25.2553 3.35123L25.2504 3.36115ZM21.4678 3.39776C21.5904 3.39776 21.6401 3.52745 21.6682 3.65256L21.4006 3.68919L21.5014 3.65256C21.4314 3.59153 21.4538 3.48168 21.4755 3.38785L21.4678 3.39776ZM20.1628 3.54348L20.1965 3.58009L20.1264 3.5038L20.1628 3.54348ZM20.6651 3.58009H20.698C20.7125 3.64755 20.7035 3.71849 20.6727 3.77912C20.6419 3.83975 20.5915 3.88573 20.5313 3.90813C20.4409 3.77082 20.5516 3.58772 20.6707 3.57017L20.6651 3.58009ZM23.2071 3.61671V3.7258H23.1069C23.1293 3.78683 23.1517 3.8471 23.1735 3.90813C23.5524 3.39548 24.0273 3.95619 24.1107 3.65256L24.2774 3.72885C24.0799 3.95771 24.0736 4.2232 23.7423 4.09351L23.8431 3.83795C23.5167 3.83337 23.2967 3.73038 23.2743 4.27507L22.9059 4.35136L22.9395 4.20565L22.7721 4.16903C22.894 4.0874 22.8576 3.89058 22.8421 3.7319C22.9085 3.75514 22.9799 3.75559 23.0465 3.73322C23.1132 3.71084 23.1719 3.66671 23.2148 3.60679L23.2071 3.61671ZM21.0994 3.693C21.2549 3.80895 21.2135 4.05841 21.0664 4.16674C21.1729 3.96 20.9193 3.92263 20.899 3.80209H21.133L21.0994 3.693ZM24.5954 3.74792C24.6578 3.76852 24.6445 3.87837 24.6459 3.9478L24.4784 3.91194V4.00883H24.3832C24.4441 3.91347 24.5296 3.71741 24.6031 3.7342L24.5954 3.74792ZM22.4212 3.9478C22.4779 3.98518 22.4723 4.06452 22.4709 4.13012H22.3371L22.4072 4.31245L22.0723 4.16674C22.148 4.00883 22.2818 3.841 22.4289 3.93254L22.4212 3.9478ZM23.1069 3.98442L23.1405 4.02104L23.0705 3.94475L23.1069 3.98442ZM26.4524 4.00273L26.4853 4.05765V3.93254H26.4188L26.4524 4.00273ZM20.698 4.02104C20.7246 4.08207 20.733 4.15072 20.6651 4.16674C20.6833 4.10419 20.6945 4.05613 20.7057 4.00883L20.698 4.02104ZM26.285 4.05765L26.3186 4.09427L26.2485 4.01798L26.285 4.05765ZM21.3669 4.05765C21.4804 4.08664 21.5995 4.14081 21.568 4.27584C21.4818 4.21175 21.3473 4.1614 21.3746 4.04392L21.3669 4.05765ZM20.5642 4.16674L20.5978 4.24303L20.4976 4.27889C20.5306 4.22625 20.5495 4.18963 20.5719 4.15301L20.5642 4.16674ZM21.8356 4.20337L21.9694 4.27965H21.8356V4.20337ZM20.698 4.23998C20.7856 4.25982 20.9551 4.24913 20.9327 4.34907C20.8881 4.35314 20.8434 4.34385 20.8034 4.32219C20.7634 4.30054 20.7296 4.26735 20.7057 4.22625L20.698 4.23998ZM24.629 4.25753L24.6788 4.27584L24.5786 4.23998L24.629 4.25753ZM22.742 4.27584C22.7525 4.31245 22.7637 4.35212 22.7749 4.38569H22.7083L22.742 4.27584ZM19.4301 4.38569C19.4722 4.50775 19.6781 4.38569 19.7643 4.49478H19.3293L19.4301 4.38569ZM24.2802 4.43986L24.3138 4.45817L24.2473 4.42155L24.2802 4.43986ZM25.6853 4.5314L25.719 4.56725L25.6489 4.49096L25.6853 4.5314ZM23.4277 4.54894C23.4901 4.56954 23.4768 4.6794 23.4775 4.74958L23.6113 4.71296C23.5776 4.89148 23.4011 4.80909 23.2771 4.74958C23.3185 4.66185 23.3647 4.51386 23.4327 4.53522L23.4277 4.54894ZM24.3811 4.58557C24.3811 4.65041 24.4609 4.68397 24.5149 4.71296C24.5758 4.61074 24.4694 4.56039 24.3811 4.5314V4.58557ZM21.5876 4.56725H21.638V4.64354H21.5112C21.5253 4.58709 21.5407 4.55124 21.5925 4.55352L21.5876 4.56725ZM21.8047 4.56725C21.9077 4.58403 22.0709 4.5848 22.0394 4.71296H21.9056C21.9161 4.76179 21.9273 4.81062 21.9385 4.85868C21.851 4.86936 21.8418 4.6588 21.8096 4.55352L21.8047 4.56725ZM24.6487 4.71296C24.5611 4.90521 24.2984 4.97006 24.1303 5.0227C23.965 4.79383 23.6645 4.60082 23.9461 5.04101H23.7528C23.724 5.24775 23.7836 5.43084 23.9874 5.44228L23.8866 5.15009H24.0876L24.0539 5.36904L24.255 5.40566L24.2214 5.58798C24.297 5.13026 24.3916 5.11272 24.8231 5.40566L24.8567 5.25995H24.7229C24.7082 5.05703 24.863 4.83121 25.0241 4.71296C24.884 4.72136 24.7208 4.72364 24.6893 4.56725L24.6487 4.71296ZM21.437 4.71296L21.507 4.82282L21.4062 4.85868L21.437 4.71296ZM22.6243 4.82282L22.6075 4.93191L22.541 4.85562L22.5073 5.14705H22.6411L22.6075 4.96548C22.8491 4.96548 22.8512 4.80298 22.6411 4.70991L22.6243 4.82282ZM22.8919 4.76789L22.8421 4.82282H23.0096V4.71296C22.9891 4.70919 22.9681 4.71098 22.9484 4.71817C22.9287 4.72536 22.911 4.73772 22.8968 4.75416L22.8919 4.76789ZM20.6175 4.76789L20.6679 4.7862C20.5957 5.09669 20.305 4.69924 20.6223 4.75416L20.6175 4.76789ZM21.6682 4.7862L21.769 4.86248L21.6682 4.89911V4.7862ZM25.0136 4.87698L25.0472 4.93191L25.0808 4.85562L24.98 4.81977L25.0136 4.87698ZM17.9388 4.9136L17.922 4.96853L18.0229 4.93191L17.9529 4.85562L17.9388 4.9136ZM21.1001 4.85868L21.2675 4.93496C21.1911 5.0822 21.1666 5.40261 20.8997 5.18976L20.8661 5.26605C20.7961 5.16306 20.7001 5.27139 20.6322 5.22943C20.5768 4.97616 21.1141 5.24088 21.2009 4.97464L21.1001 4.85868ZM19.461 5.00439C19.4904 5.09441 19.545 5.17222 19.6284 5.11424V5.29657H19.7285C19.7481 5.37286 19.6585 5.39041 19.5948 5.40566V5.29657C19.4098 5.31945 19.3398 5.14247 19.468 4.99065L19.461 5.00439ZM23.0908 5.04101C23.0775 5.21647 23.3927 5.28513 23.441 5.11729C23.4726 5.05626 23.0929 4.97463 23.0978 5.02727L23.0908 5.04101ZM25.0479 5.05931V5.11424H25.1145L25.0479 5.00439V5.05931ZM19.2102 5.09593C19.3188 5.14628 19.3335 5.17909 19.3272 5.25995C19.1107 5.21265 18.9069 5.42321 18.993 5.66046C18.8887 5.67725 18.8277 5.34081 18.7584 5.18671C18.9076 5.11042 19.089 5.0143 19.2172 5.08219L19.2102 5.09593ZM17.9052 5.13255L17.8884 5.18671H18.0222L17.9213 5.07762L17.9052 5.13255ZM22.7721 5.15009V5.18671H22.873V5.11042H22.7721V5.15009ZM21.7018 5.15009H21.7718L21.7382 5.22638L21.7018 5.15009ZM18.5574 5.18671L18.6912 5.263H18.5237L18.5574 5.18671ZM18.9923 5.27826L18.9587 5.33242L19.0925 5.25613C19.0638 5.22333 19.033 5.20578 19 5.26452L18.9923 5.27826ZM19.8616 5.22333L19.9317 5.33242H19.8315C19.8476 5.28283 19.8581 5.24622 19.8693 5.2096L19.8616 5.22333ZM22.4043 5.25995L22.6047 5.29657L22.5045 5.62385C22.6923 5.51857 22.8218 5.66046 23.0397 5.62385C23.0095 5.99079 22.742 5.67648 22.5718 5.70013C22.5718 5.97095 22.7889 6.01062 23.0068 5.95493C22.8954 6.21736 22.2698 6.44165 22.6047 6.03122L22.438 5.9946V6.2494L22.2369 6.21278L22.2705 6.32263L22.1368 6.28602C22.1641 6.40121 22.0303 6.45461 21.9357 6.50496C21.9659 6.40884 22.0058 6.29441 22.1032 6.32263C21.9631 6.06402 21.9631 6.01138 21.6682 6.03122C21.6839 5.97728 21.7153 5.93035 21.7576 5.89747C21.7999 5.8646 21.8508 5.84755 21.9028 5.84889C21.7865 5.53687 21.2836 5.92518 21.0664 5.92518C20.9649 5.86186 21.0777 5.72836 21.133 5.63376C21.5491 5.95341 21.6058 5.38735 22.003 5.5979L21.9694 5.41557C22.0961 5.41557 22.2614 5.39498 22.3042 5.52467L22.0695 5.56128L22.1396 5.81608C22.0555 5.82829 21.982 5.86872 21.9722 5.96179H22.0422V6.07089C22.2699 6.12505 22.3602 5.96485 22.5438 5.92518L22.4737 5.74361L22.2733 5.85271C22.2649 5.61088 22.5206 5.52161 22.412 5.24621L22.4043 5.25995ZM23.5951 5.31411C23.5727 5.38201 23.6617 5.41329 23.7121 5.44228C23.6792 5.38125 23.6456 5.32022 23.612 5.25995L23.5951 5.31411ZM19.33 5.29657C19.4119 5.30648 19.4855 5.34692 19.4638 5.44228C19.3867 5.41787 19.3132 5.37743 19.3342 5.28283L19.33 5.29657ZM18.6946 5.37286C18.7815 5.42778 18.7164 5.52085 18.661 5.5918C18.6393 5.49186 18.6288 5.40337 18.6989 5.35531L18.6946 5.37286ZM19.5976 5.48195C19.6858 5.51475 19.7902 5.55823 19.765 5.66427L19.5976 5.48195ZM18.0922 5.51857C18.1511 5.7398 18.3654 5.63758 18.5272 5.55518C18.513 5.69767 18.5488 5.84075 18.6274 5.9557C18.4782 5.9 18.2877 5.89314 18.1595 5.77337C18.1462 5.78284 18.1348 5.7951 18.1259 5.80943C18.1169 5.82377 18.1107 5.83989 18.1076 5.85686C18.1045 5.87383 18.1045 5.89131 18.1076 5.90828C18.1108 5.92524 18.1169 5.94136 18.1259 5.9557H18.0558V5.68716H17.9557V5.61087C17.9717 5.617 17.9888 5.61883 18.0057 5.61621C18.0225 5.61359 18.0385 5.6066 18.0523 5.59582C18.0661 5.58505 18.0773 5.5708 18.085 5.5543C18.0927 5.5378 18.0966 5.51953 18.0964 5.50102L18.0922 5.51857ZM20.4339 5.51857H20.4675C20.4795 5.71997 20.3022 5.81608 20.1327 5.88322C20.0788 5.63376 20.3331 5.61088 20.4381 5.50102L20.4339 5.51857ZM24.2641 5.66427C24.248 5.70089 24.2312 5.74056 24.2144 5.77337L24.3832 5.61087L24.3131 5.53458L24.2641 5.66427ZM19.0624 5.62765C19.0749 5.64333 19.0903 5.65591 19.1077 5.66452C19.125 5.67314 19.1439 5.67761 19.1629 5.67761C19.182 5.67761 19.2008 5.67314 19.2182 5.66452C19.2355 5.65591 19.2509 5.64333 19.2634 5.62765L19.2971 5.73751C19.1289 5.68106 19.0631 6.01215 18.895 5.9557C18.9202 6.03198 18.8347 6.14107 18.778 6.06478C18.757 5.97476 19.1857 5.71157 19.0666 5.61087L19.0624 5.62765ZM21.1533 5.74056L21.1701 5.77642L21.2402 5.74056L21.14 5.70394L21.1533 5.74056ZM17.9087 5.79473C17.971 5.81533 17.9374 5.90153 17.9248 5.95875C17.8688 5.89162 17.7805 5.74667 17.9129 5.77413L17.9087 5.79473ZM19.8154 5.94043C19.9618 6.04571 19.6935 6.22346 19.7313 6.39816C19.7537 6.18608 19.428 5.85957 19.8196 5.91984L19.8154 5.94043ZM20.8353 5.92212L21.0363 6.06784C20.9705 6.17616 20.8808 6.27839 20.7687 6.21355C20.8892 6.13421 20.9067 6.01749 20.8395 5.90153L20.8353 5.92212ZM16.6542 6.03198V6.06784H16.7543V5.99155H16.6542V6.03198ZM23.5454 6.06784C23.4754 6.14412 23.5048 6.19142 23.5454 6.25016C23.6274 6.18074 23.7359 6.10217 23.7121 5.99537C23.6832 5.9887 23.6532 5.98994 23.6249 5.999C23.5965 6.00805 23.5707 6.02462 23.5496 6.04724L23.5454 6.06784ZM18.3269 6.06784L18.5272 6.14412C18.4775 6.33484 18.2891 6.24711 18.3311 6.04724L18.3269 6.06784ZM18.661 6.06784H18.6946C18.6792 6.13497 18.6211 6.1487 18.5608 6.14412C18.5931 6.0892 18.6281 6.04571 18.6652 6.04724L18.661 6.06784ZM20.6181 6.06784H20.6686C20.6847 6.19524 20.5355 6.27382 20.4339 6.21355C20.4907 6.1365 20.5628 6.04571 20.6223 6.04724L20.6181 6.06784ZM21.2206 6.06784H21.3039C21.243 6.19524 21.1638 6.36536 21.0363 6.28678C21.0819 6.1754 21.1274 6.04266 21.2248 6.04724L21.2206 6.06784ZM21.4377 6.06784H21.5078V6.1777H21.4377V6.06784ZM17.9921 6.10445C18.0481 6.23643 18.1693 6.25703 18.2933 6.21355C18.3066 6.34324 18.3192 6.49657 18.4271 6.54158C18.3143 6.57057 18.2541 6.47369 18.226 6.35926L17.9921 6.50573L17.922 6.35926C18.1027 6.34858 18.1392 6.24559 17.9557 6.1777L17.9921 6.10445ZM21.7746 6.14107L21.8748 6.25016C21.8587 6.25047 21.8428 6.25478 21.8284 6.26277C21.8141 6.27077 21.8016 6.28224 21.7919 6.2963C21.7823 6.31036 21.7757 6.32665 21.7727 6.3439C21.7697 6.36116 21.7703 6.37894 21.7746 6.39588C21.6744 6.42487 21.6513 6.31043 21.6408 6.21355L21.741 6.25016L21.7746 6.14107ZM23.3465 6.196L23.3129 6.25016C23.3284 6.25482 23.3447 6.25554 23.3606 6.25227C23.3764 6.249 23.3914 6.24183 23.4043 6.23131C23.4172 6.22078 23.4277 6.20717 23.4351 6.19153C23.4424 6.17589 23.4464 6.15863 23.4466 6.14107C23.429 6.13523 23.4102 6.13539 23.3927 6.14153C23.3751 6.14766 23.3598 6.15948 23.3486 6.1754L23.3465 6.196ZM19.9681 6.21355L20.0346 6.25016L20.001 6.32645L19.9681 6.21355ZM21.3725 6.28984L21.4062 6.36612H21.3396L21.3725 6.28984ZM17.459 6.32645L17.5592 6.43555H17.459V6.32645ZM18.9643 6.32645C18.9867 6.35086 19.0091 6.37451 19.0309 6.40274L18.9307 6.47903L18.9643 6.32645ZM17.1914 6.38061L17.3252 6.39892C17.1564 6.4035 17.1368 6.67509 16.9904 6.65449C17.0212 6.50421 17.038 6.32798 17.1935 6.35697L17.1914 6.38061ZM19.5829 6.39892L19.6333 6.43555C19.4932 6.55761 19.3573 6.66899 19.1647 6.65449C19.2179 6.48437 19.4596 6.38443 19.5849 6.37375L19.5829 6.39892ZM20.3695 6.36231L20.4031 6.43859H20.3331L20.3695 6.36231ZM23.1293 6.47216L23.1461 6.50878L23.1125 6.43249L23.1293 6.47216ZM17.4422 6.49047L17.5256 6.50878C17.5038 6.59346 17.4814 6.67814 17.4555 6.76358H17.6895C17.6544 6.9749 17.37 6.79029 17.2881 6.65449C17.3252 6.83072 17.2096 6.92455 17.0541 6.94591C17.0766 6.71094 17.2384 6.44088 17.4443 6.46682L17.4422 6.49047ZM20.9382 6.47216L21.0384 6.54845C20.9334 6.69264 20.8045 6.8597 20.871 7.0222H20.6707L20.9382 6.47216ZM16.4889 6.50878H16.5225C16.5092 6.61253 16.498 6.759 16.3887 6.72696C16.4146 6.6316 16.4433 6.49047 16.491 6.48513L16.4889 6.50878ZM17.4086 6.61787L17.3918 6.69035C17.4618 6.67433 17.452 6.60566 17.4254 6.54463L17.4086 6.61787ZM20.2686 6.58125H20.4031C20.422 6.65754 20.333 6.67509 20.2686 6.69035V6.58125ZM23.1293 6.61787L23.1461 6.65449L23.1125 6.57821L23.1293 6.61787ZM18.9643 6.74527L18.998 6.76358L18.9279 6.87268C19.1079 6.96956 19.138 7.52951 19.3629 7.63555C19.0512 7.7332 19.0554 7.25411 19.0281 6.97947C18.9811 7.06339 18.8803 7.03975 18.7941 7.0161C18.8207 6.93447 18.8305 6.84521 18.7605 6.79791C18.827 6.75062 18.9237 6.69798 18.9664 6.72163L18.9643 6.74527ZM16.3214 6.76358C16.3551 6.81164 16.3915 6.86047 16.4216 6.90929L16.2549 6.94591C16.2787 6.86123 16.3011 6.8002 16.3235 6.73994L16.3214 6.76358ZM18.4929 6.8002H18.563V6.90929L18.6631 6.87268V7.01838C18.5798 6.94285 18.4733 6.88259 18.4992 6.77655L18.4929 6.8002ZM19.7306 6.8002C19.8448 6.89174 19.9779 7.01304 20.0991 6.94591L20.0655 6.8002C20.2189 6.8002 20.3296 6.90548 20.4003 7.055H19.6998C19.7328 7.01912 19.7541 6.97253 19.7605 6.92229C19.767 6.87205 19.7582 6.82089 19.7355 6.77655L19.7306 6.8002ZM17.7742 6.83606H17.8239C17.8295 6.90014 17.7812 7.12061 17.6902 7.09162C17.7098 6.98406 17.7105 6.81775 17.7791 6.81241L17.7742 6.83606ZM19.1619 6.83606H19.1955L19.1619 6.94591L19.0953 6.90929C19.1149 6.85284 19.1296 6.81012 19.1667 6.81241L19.1619 6.83606ZM16.7873 6.87268L16.9547 6.94896L16.7873 6.98482V6.87268ZM19.5639 6.87268C19.5744 6.93371 19.5856 6.99397 19.5968 7.055C19.5905 6.97032 19.5793 6.90776 19.5688 6.84902L19.5639 6.87268ZM21.105 6.87268L21.2387 6.94896L21.072 6.98482L21.105 6.87268ZM16.823 7.01838C16.9379 7.05423 16.851 7.19842 16.7564 7.16409C16.781 7.09162 16.8034 7.04356 16.8251 6.99473L16.823 7.01838ZM18.1616 7.01838L18.2281 7.16409L18.128 7.12747L18.1616 7.01838ZM16.5554 7.13053C16.7578 7.1702 17.0457 7.76524 17.2559 7.34947C17.4296 7.45399 17.2972 7.77745 17.1221 7.74999V7.56766C16.8986 7.72786 16.6969 7.51731 16.5533 7.38609L16.4832 7.45856C16.4496 7.42194 16.4132 7.38609 16.3831 7.34947L16.5834 7.31286L16.5554 7.13053ZM18.6631 7.16715C18.675 7.28539 18.8242 7.35405 18.9307 7.42194C18.8032 7.6386 18.6456 7.32506 18.6652 7.14045L18.6631 7.16715ZM17.9942 7.20376C18.0166 7.25259 18.039 7.30065 18.0642 7.34947H17.9942V7.20376ZM20.7036 7.27623L20.7737 7.38609H20.7036V7.27623ZM18.2617 7.31286C18.3759 7.32583 18.4929 7.48527 18.3451 7.5318C18.2813 7.50281 18.2779 7.36549 18.2639 7.2892L18.2617 7.31286ZM16.1043 7.38915H16.154V7.68056L16.4889 7.49823V7.78966C16.3305 7.72176 16.194 7.83161 16.0875 7.97198V7.78966C15.7674 7.83314 15.8374 7.33345 16.1064 7.35939L16.1043 7.38915ZM20.3863 7.47992L20.6034 7.5707C20.5723 7.60166 20.5333 7.6217 20.4916 7.62823C20.4499 7.63476 20.4074 7.62748 20.3695 7.60733L20.4031 7.78966C20.3877 7.71337 20.3246 7.72404 20.2686 7.75303L20.3022 7.5707C20.2406 7.6714 20.1376 7.68208 20.0346 7.64699C20.1103 7.45932 20.1677 7.34794 20.3905 7.45017L20.3863 7.47992ZM21.3396 7.38915L21.54 7.425C21.5035 7.51502 21.4559 7.62716 21.54 7.68056C21.3782 7.69734 21.3459 7.51807 21.3417 7.35939L21.3396 7.38915ZM20.871 7.425C21.0188 7.45246 21.1792 7.50586 21.1722 7.68056C21.0398 7.65386 20.7519 7.68742 20.7709 7.5707H20.9046L20.871 7.425ZM17.4576 7.5379C17.4912 7.58596 17.5277 7.63479 17.5578 7.68362H17.424L17.4576 7.5379ZM18.2772 7.68362C18.3871 7.75151 18.392 7.78737 18.3605 7.86594C18.3395 7.76296 18.1651 7.79957 18.0593 7.78966C18.1112 7.66607 18.1553 7.56384 18.2807 7.65081L18.2772 7.68362ZM14.9849 7.66531L15.0186 7.68362L14.9485 7.64699L14.9849 7.66531ZM16.6072 7.8873C16.6717 7.91018 16.6345 8.0208 16.624 8.08793L16.4903 8.01165C16.5176 7.92315 16.5463 7.82322 16.6079 7.85068L16.6072 7.8873ZM15.8549 7.92391C15.9019 7.98494 15.8367 8.13295 15.9215 8.19703L15.4529 8.37936C15.3919 8.23899 15.6175 8.16423 15.5537 7.97885C15.677 8.0025 15.7765 7.92239 15.8556 7.8873L15.8549 7.92391ZM17.6943 7.90561H17.728C17.7399 7.99639 17.7161 8.07878 17.6278 8.08793C17.5984 7.96435 17.5886 7.85983 17.6951 7.86899L17.6943 7.90561ZM15.4529 7.98189H15.5229V8.12761L15.4529 7.98189ZM18.3633 7.98189C18.4334 7.99868 18.5525 8.00402 18.5307 8.09099L18.6309 8.05437V8.13066C18.7058 8.00402 18.8852 8.01928 19.0323 8.02156V8.13066C19.9254 8.28324 18.5896 8.19169 18.2295 8.20695V8.13066H18.3969L18.3633 7.98189ZM16.2892 8.01852C16.3698 8.01852 16.3761 8.12684 16.3901 8.20008C16.3668 8.15774 16.3298 8.12643 16.2864 8.11232C16.2429 8.0982 16.1962 8.10228 16.1554 8.12379C16.1877 8.03224 16.2192 7.97579 16.2899 7.97579L16.2892 8.01852ZM17.8618 8.01852L17.8954 8.2367C17.8057 8.23212 17.7686 7.98419 17.8625 7.97579L17.8618 8.01852ZM19.4343 8.01852L19.6011 8.09481C19.5296 8.09862 19.468 8.05895 19.435 7.97579L19.4343 8.01852ZM20.7386 8.01852L20.8724 8.05437C20.864 8.15126 20.7884 8.17643 20.705 8.16422L20.7386 8.01852ZM17.293 8.09481C17.4373 8.12532 17.4639 8.25882 17.494 8.38622C17.4037 8.25196 17.2762 8.19093 17.1592 8.30993C17.0983 8.09938 17.0583 7.96435 17.2937 8.05208L17.293 8.09481ZM15.6385 8.18559L15.6217 8.24051C15.6819 8.24814 15.7408 8.23441 15.7555 8.16422L15.6553 8.12761L15.6385 8.18559ZM20.408 8.20389H20.4409V8.34961L20.3408 8.31375C20.3513 8.22831 20.3639 8.15965 20.4052 8.16041L20.408 8.20389ZM19.8392 8.31375L19.9394 8.39004H19.8056L19.8392 8.31375ZM15.7239 8.34961C15.8129 8.36181 15.918 8.38699 15.8913 8.49532C15.8003 8.44039 15.6973 8.41445 15.7211 8.30612L15.7239 8.34961ZM17.8317 8.42589C17.9234 8.45946 18.0222 8.50218 18.0327 8.60822C18.7142 8.44954 17.6782 9.02475 17.9626 8.53193H17.8289L17.8317 8.42589ZM18.7353 8.46251C18.9601 8.53117 18.7045 9.03238 19.0358 9.04535C19.0141 9.08197 18.9916 9.11782 18.9692 9.15444C18.7437 8.97211 18.7094 8.69214 18.7325 8.41598L18.7353 8.46251ZM19.9394 8.46251L19.973 8.57161L19.8392 8.53498L19.9394 8.46251ZM17.0289 8.49836L17.1627 8.57465H16.9953L17.0289 8.49836ZM19.4042 8.58991C19.5009 8.68375 19.5752 8.67078 19.6718 8.64408C19.6515 8.83022 19.2606 9.0423 19.2368 8.72036H19.337V8.64408H19.2368C19.2284 8.48692 19.2907 8.42818 19.4014 8.54337L19.4042 8.58991ZM19.772 8.64408L19.9058 8.72036H19.7383L19.772 8.64408ZM14.8546 8.75393C14.9667 8.72494 15.0277 8.82182 15.055 8.93549C14.9569 8.85691 14.8231 8.82335 14.8518 8.70739L14.8546 8.75393ZM17.5304 8.75393H17.5641C17.5683 8.77086 17.569 8.78864 17.566 8.8059C17.563 8.82316 17.5564 8.83944 17.5468 8.8535C17.5371 8.86756 17.5246 8.87903 17.5102 8.88703C17.4959 8.89503 17.48 8.89934 17.4639 8.89964C17.4744 8.80199 17.4842 8.70815 17.5276 8.70739L17.5304 8.75393ZM18.6015 8.75393H18.6344C18.5889 8.94922 18.7458 8.99194 18.7682 9.15444C18.6484 9.00186 18.4081 8.80046 18.5987 8.70739L18.6015 8.75393ZM18.869 8.78979L19.0028 8.8264C18.944 8.80886 18.881 8.81496 18.8663 8.74325L18.869 8.78979ZM14.1857 8.8264H14.2186C14.2074 8.86302 14.1969 8.90269 14.1857 8.93549L14.1156 8.89964C14.1304 8.8203 14.1451 8.77758 14.1829 8.77987L14.1857 8.8264ZM17.7981 8.8264C17.88 8.86379 17.8681 9.1079 17.7651 9.08197C17.7735 8.94999 17.7847 8.86531 17.7987 8.77987L17.7981 8.8264ZM18.2183 8.84471L18.2688 8.86302C18.261 8.96677 18.1805 8.97135 18.1013 8.93931C18.1251 8.84242 18.156 8.77377 18.2134 8.79818L18.2183 8.84471ZM14.7566 8.921C15.0158 8.9744 14.8098 9.31312 14.6221 9.19411C14.5464 9.73423 14.3559 9.08197 14.288 8.93855C14.4764 8.98127 14.5899 8.89582 14.7517 8.87141L14.7566 8.921ZM15.726 8.93855L15.8605 8.97516L15.8269 9.12087C15.733 9.06213 15.7099 8.97974 15.7211 8.89125L15.726 8.93855ZM17.9676 8.93855C18.074 8.96525 18.0509 9.19792 17.9339 9.19411L17.9676 8.93855ZM19.1051 8.93855L19.2389 9.01483L19.1387 9.05145L19.1051 8.93855ZM19.3391 8.93855L19.4729 9.01483C19.4617 9.03925 19.4505 9.06366 19.44 9.09112H19.7075C19.6571 9.36423 19.4274 9.32609 19.3391 9.09112L19.2389 9.16359C19.2697 9.03543 19.3012 8.9622 19.3342 8.89125L19.3391 8.93855ZM17.7 9.12087H17.77V9.23072L17.7 9.12087ZM18.3689 9.12087L18.439 9.15749L18.3388 9.23378C18.3416 9.14452 18.3528 9.1079 18.364 9.07129L18.3689 9.12087ZM15.4269 9.15749C15.4599 9.19411 15.4935 9.23378 15.5271 9.26659C15.4872 9.18114 15.4536 9.14452 15.4206 9.1079L15.4269 9.15749ZM16.3971 9.15749C16.526 9.13308 16.6037 9.32914 16.6976 9.26659C16.6535 9.34287 16.6086 9.4123 16.5638 9.48553C16.4678 9.34364 16.3656 9.23683 16.3908 9.1079L16.3971 9.15749ZM18.5041 9.23378L18.6379 9.31007C18.6092 9.41916 18.5335 9.47104 18.4376 9.41916C18.4537 9.30244 18.4761 9.24141 18.4992 9.18114L18.5041 9.23378ZM13.7409 9.26963C13.7653 9.26751 13.7895 9.27592 13.8082 9.29305C13.827 9.31018 13.8388 9.33466 13.8411 9.36118C13.8859 9.66176 13.4229 9.27955 13.7311 9.217L13.7409 9.26963ZM15.3632 9.30625L15.3968 9.34287L15.263 9.41916C15.1916 9.30244 15.2974 9.1964 15.3534 9.25361L15.3632 9.30625ZM17.5214 9.28794C17.6614 9.30549 17.7126 9.38788 17.5914 9.47027C17.4282 9.53283 17.2475 9.17122 17.5115 9.23531L17.5214 9.28794ZM17.2033 9.30625L17.3371 9.38254C17.2699 9.38101 17.2244 9.31541 17.1935 9.25361L17.2033 9.30625ZM18.2568 9.37949C18.3409 9.4123 18.3444 9.45578 18.3409 9.5252L18.1399 9.41534C18.149 9.3093 18.1679 9.29099 18.247 9.32685L18.2568 9.37949ZM16.8349 9.37949L16.8685 9.48858H16.7347L16.8349 9.37949ZM14.0918 9.41534L14.1619 9.45196L14.1283 9.52825L14.0918 9.41534ZM17.8891 9.41534H17.9388C17.9605 9.50307 17.8436 9.50766 17.7721 9.5252C17.791 9.42527 17.8232 9.35966 17.8793 9.36271L17.8891 9.41534ZM18.4411 9.48858H18.5749C18.5903 9.55571 18.5307 9.58318 18.4747 9.59767L18.4411 9.48858ZM19.4778 9.54275L19.5114 9.56106L19.4414 9.5252L19.4778 9.54275ZM18.5076 9.67396C18.626 9.63887 18.6267 9.81738 18.6414 9.92876H18.5713C18.5899 9.90485 18.603 9.87646 18.6095 9.84594C18.616 9.81543 18.6157 9.78367 18.6086 9.7533C18.6016 9.72294 18.5879 9.69484 18.5689 9.67135C18.5499 9.64787 18.526 9.62967 18.4992 9.61827L18.5076 9.67396ZM17.7889 9.72812L17.8723 9.74643C17.8386 9.80746 17.8022 9.86773 17.7721 9.92876L17.6383 9.81967C17.6047 10.0112 17.7567 10.1119 17.9059 10.0012C17.8534 10.0531 17.7868 10.1195 17.8358 10.1836L17.5347 10.0379L17.6047 9.89214H17.5045V9.74643C17.5935 9.81509 17.6587 9.64039 17.7791 9.67243L17.7889 9.72812ZM18.1063 9.70981L18.1763 9.74643L18.1427 9.82272L18.1063 9.70981ZM13.1217 9.7861H13.2457V9.86239L13.1217 9.7861ZM17.3035 9.7861L17.3735 10.0775H17.2398C17.2503 10.0409 17.2615 10.0012 17.2727 9.96843H17.1725C17.1424 9.8334 17.2335 9.77771 17.2937 9.73041L17.3035 9.7861ZM14.0113 9.87689L13.9945 9.93181L14.0946 9.8952C14.0729 9.87078 14.0505 9.84637 14.0246 9.81891L14.0113 9.87689ZM14.4316 9.85858L14.4652 9.93487H14.3951L14.4316 9.85858ZM16.4384 9.85858C16.5456 9.86697 16.5316 9.98217 16.5085 10.0775C16.4111 10.0005 16.423 9.88299 16.4237 9.79984L16.4384 9.85858ZM16.8734 9.85858L16.9435 9.93487L16.8426 10.0112L16.8734 9.85858ZM14.6655 9.8952H14.7356C14.7622 10.0592 14.6032 10.1386 14.468 10.1141C14.5023 9.97149 14.5696 9.8334 14.6508 9.83645L14.6655 9.8952ZM15.8367 9.97149H15.9369V10.0478H15.8367V9.97149ZM18.2449 10.0844C18.4306 10.1195 18.315 10.3277 18.212 10.4124C18.2078 10.2377 18.219 10.1279 18.2302 10.0188L18.2449 10.0844ZM16.0735 10.1607C16.1088 10.1548 16.1449 10.1625 16.1754 10.1826C16.206 10.2027 16.2292 10.2338 16.2409 10.2705C16.2173 10.2762 16.1928 10.2757 16.1694 10.2691C16.146 10.2625 16.1244 10.2499 16.1063 10.2324C16.0883 10.2149 16.0743 10.193 16.0655 10.1684C16.0568 10.1439 16.0535 10.1174 16.056 10.0913L16.0735 10.1607ZM16.341 10.1607L16.3747 10.2705H16.3046L16.341 10.1607ZM17.3785 10.1607C17.4611 10.1485 17.5368 10.1736 17.5452 10.2705L17.3785 10.1607ZM12.4275 10.3072L12.3575 10.3796C12.4371 10.3623 12.5198 10.3792 12.5883 10.4266C12.6568 10.4741 12.7059 10.5485 12.7252 10.6344H12.625C12.6636 10.8938 13.0635 10.7107 12.859 10.5253C12.9571 10.5528 12.9991 10.4384 13.0264 10.343L12.9262 10.3072C12.8002 10.6871 12.6019 9.98216 12.41 10.2377L12.4275 10.3072ZM13.2303 10.2309C13.3129 10.2179 13.3893 10.2438 13.397 10.34C13.2968 10.3316 13.2415 10.2545 13.2127 10.1645L13.2303 10.2309ZM14.033 10.3072C14.0554 10.3308 14.0778 10.3552 14.103 10.3796C14.0603 10.2858 14.0379 10.2644 14.0162 10.2377L14.033 10.3072ZM15.9733 10.3072L16.1071 10.343L16.0371 10.4887C15.9999 10.359 15.9775 10.298 15.9558 10.2377L15.9733 10.3072ZM12.4772 10.4529L12.4941 10.4887L12.5277 10.4124H12.4576L12.4772 10.4529ZM13.832 10.4162L13.902 10.4925L13.8018 10.5291C13.792 10.417 13.806 10.3834 13.8145 10.3468L13.832 10.4162ZM17.9801 10.4162H18.0138V10.7077L17.88 10.671C17.887 10.5192 17.9143 10.3552 17.9626 10.3468L17.9801 10.4162ZM16.9799 10.4529C17.0373 10.6665 16.9799 11.0433 16.7116 10.9258L16.7452 10.7443C16.7122 10.7965 16.6667 10.8377 16.6135 10.8634C16.5603 10.8891 16.5017 10.8983 16.444 10.89C16.4727 10.4933 16.9119 10.6611 16.9582 10.3834L16.9799 10.4529ZM13.149 10.5803C13.1394 10.6098 13.1391 10.642 13.1483 10.6717C13.1574 10.7015 13.1754 10.727 13.1994 10.7443C13.2113 10.6512 13.2562 10.5093 13.1658 10.4887L13.149 10.5803ZM17.2804 10.4887L17.3813 10.5253L17.2804 10.562V10.4887ZM12.3126 10.565L12.3294 10.6016C12.3182 10.5772 12.307 10.5528 12.2965 10.5253C12.2811 10.4681 12.2867 10.4803 12.2923 10.4933L12.3126 10.565ZM15.1397 10.5284C15.1769 10.6314 15.2756 10.6482 15.3737 10.6375L15.3401 10.7473C15.4199 10.7138 15.4949 10.6604 15.4739 10.565C15.6042 10.6009 15.3891 11.009 15.2735 10.9289C15.3688 10.6642 15.0396 10.61 15.1194 10.4559L15.1397 10.5284ZM14.2866 10.6047C14.4771 10.7359 14.262 10.9098 14.1023 10.8229C14.122 10.6527 14.1612 10.4811 14.2663 10.5291L14.2866 10.6047ZM16.0931 10.6588C16.1932 10.7092 16.2164 10.7214 16.2101 10.7862L15.9425 10.6771C15.9446 10.536 15.9684 10.5375 16.0728 10.5833L16.0931 10.6588ZM17.314 10.6047L17.3841 10.7862L17.2166 10.8625C17.2874 10.7435 17.3035 10.6359 17.2937 10.5291L17.314 10.6047ZM13.668 10.7138C13.7703 10.7298 13.9335 10.7305 13.902 10.8595C13.7934 10.7496 13.6253 10.7344 13.6477 10.6382L13.668 10.7138ZM12.0955 10.8412V10.9319C12.2048 10.9548 12.2111 10.7443 12.0955 10.7504V10.8412ZM13.0488 10.8595L12.9984 10.9358L13.1994 10.9724C13.2022 10.7771 13.121 10.6459 13.0285 10.784L13.0488 10.8595ZM14.9058 10.9358L14.9387 10.9724L14.772 11.1181C14.7328 10.951 14.7902 10.7855 14.8855 10.8564L14.9058 10.9358ZM16.2773 10.9358L16.3775 10.9724L16.2773 11.009V10.9358ZM12.4632 11.0121H12.5452V11.0883C12.6517 11.0441 12.7497 11.0723 12.7792 11.1982C12.6594 11.2325 12.6194 11.3576 12.6117 11.4896C12.5333 11.4034 12.4436 11.2829 12.3441 11.3073V11.231H12.4751L12.4632 11.0121ZM16.7788 11.0487H16.8454L16.8125 11.125L16.7788 11.0487ZM16.9126 11.2302C16.9694 11.2646 17.0296 11.3141 16.9827 11.3759C16.9021 11.26 16.8426 11.2104 16.8923 11.1478L16.9126 11.2302ZM17.5984 11.2302H17.6488C17.6698 11.318 17.5529 11.3225 17.4814 11.3401C17.4898 11.2089 17.5221 11.1448 17.5781 11.1478L17.5984 11.2302ZM14.6046 11.2669C14.6208 11.3079 14.6498 11.3413 14.6865 11.3613C14.7231 11.3812 14.7651 11.3864 14.8049 11.3759V11.4858C14.7504 11.478 14.695 11.4838 14.6428 11.5027C14.5906 11.5215 14.5431 11.5531 14.5037 11.5949L14.6046 11.2669ZM15.3401 11.2669C15.5117 11.292 15.6602 11.3767 15.7085 11.5583C15.5754 11.5926 15.518 11.2981 15.3737 11.4492C15.3737 11.2951 15.3982 11.202 15.3198 11.1845L15.3401 11.2669ZM12.2629 11.3431L12.3967 11.4194C12.3499 11.4647 12.3134 11.5212 12.2902 11.5845C12.2669 11.6478 12.2576 11.7162 12.2629 11.7841L12.3967 11.7475C12.3883 11.8436 12.3119 11.8695 12.2293 11.8566V11.7108H12.0282C12.1053 11.6597 12.0836 11.5499 12.0619 11.456H12.2629V11.3431ZM12.8996 11.379C13.1392 11.4164 12.7925 11.9054 12.7322 11.5979C12.8177 11.5438 12.8485 11.3981 12.8779 11.2935L12.8996 11.379ZM14.171 11.4553H14.3384C14.3566 11.5316 14.2683 11.5674 14.2046 11.601L14.171 11.4553ZM14.8399 11.4919L14.9401 11.601H14.8399V11.4919ZM13.1007 11.5644L13.2345 11.6407C13.1553 11.6033 13.1098 11.5384 13.079 11.4759L13.1007 11.5644ZM12.5319 11.6376L12.6657 11.7139L12.5655 11.7505L12.5319 11.6376ZM15.9607 11.6376H16.0111L15.9775 11.7833L15.8773 11.7467C15.8696 11.6094 15.8822 11.5453 15.939 11.5491L15.9607 11.6376ZM16.4454 11.6918L16.479 11.7467V11.6376H16.4125C16.402 11.5674 16.4125 11.5857 16.4237 11.6033L16.4454 11.6918ZM15.5089 11.7505L15.4753 11.8962L15.3415 11.8596L15.5089 11.7505ZM16.9974 11.8054L16.9813 11.8596C17.0127 11.8292 17.0517 11.8096 17.0933 11.8032C17.1349 11.7969 17.1773 11.804 17.2152 11.8237V11.7475C17.12 11.6597 16.9967 11.6429 16.9757 11.7139L16.9974 11.8054ZM11.8959 11.7871L11.9295 11.8634L11.8293 11.9C11.83 11.7673 11.8524 11.7314 11.8741 11.6948L11.8959 11.7871ZM12.0969 11.8962C12.1964 12.0488 11.912 12.1907 11.9967 12.3334C11.6388 12.3166 11.8223 12.6438 12.0969 12.5882L12.0633 12.7339L11.8959 12.6576L11.8629 12.8399C11.7684 12.7636 11.5323 12.7827 11.4279 12.8399C11.3677 12.7323 11.2437 12.611 11.2941 12.4028C11.4658 12.3463 11.5043 12.5859 11.6619 12.5485V12.1114C11.8104 12.0953 11.9561 11.9519 12.0752 11.8039L12.0969 11.8962ZM14.288 11.8962H14.3384C14.358 11.9893 14.1906 12.0488 14.1037 12.1152C14.1318 11.9428 14.2011 11.8047 14.2663 11.8039L14.288 11.8962ZM12.9998 11.9328L13.2008 12.1152C13.0292 12.0747 12.9662 12.2586 12.7995 12.2609C12.8443 12.0587 12.9115 11.9496 12.9781 11.8405L12.9998 11.9328ZM14.5724 11.9328C14.7993 12.0091 14.8946 12.122 14.606 12.1876C14.6147 12.2021 14.6259 12.2146 14.6391 12.2243C14.6523 12.234 14.6671 12.2407 14.6826 12.2441C14.6982 12.2476 14.7143 12.2476 14.7299 12.2441C14.7454 12.2407 14.7602 12.234 14.7734 12.2243C14.6053 12.5531 14.5135 12.0709 14.5506 11.8405L14.5724 11.9328ZM15.6259 12.1358C15.7197 12.151 15.7295 12.2525 15.7428 12.3364C15.5649 12.3883 15.034 12.8094 15.0073 12.373C15.1558 12.4905 15.2525 12.3227 15.3751 12.373V12.2967L15.5425 12.3334V12.2243C15.4767 12.2464 15.3912 12.2723 15.3751 12.1876C15.4345 12.1125 15.515 12.0607 15.6041 12.0404L15.6259 12.1358ZM12.1985 12.1907H12.2321C12.2167 12.2578 12.162 12.2716 12.0983 12.267C12.1032 12.1373 12.1382 12.0953 12.1753 12.0953L12.1985 12.1907ZM14.323 12.1907H14.4064L14.3727 12.3364L14.4428 12.2998V12.4096L14.5429 12.373C14.5696 12.4814 14.4645 12.5065 14.3755 12.5187V12.373H14.2088C14.1969 12.1968 14.2032 12.09 14.2999 12.0953L14.323 12.1907ZM13.7038 12.2998L13.7738 12.3761L13.6737 12.4127L13.7038 12.2998ZM16.5309 12.3547C16.5099 12.4127 16.5449 12.431 16.5806 12.4455C16.5701 12.3974 16.5589 12.3486 16.5477 12.2998L16.5309 12.3547ZM12.8009 12.3364C12.8856 12.3555 12.8499 12.473 12.8345 12.5554L12.8009 12.3364ZM12.1004 12.373C12.1823 12.5424 12.487 12.3684 12.4681 12.6278L12.6692 12.5515C12.6846 12.7484 12.3189 12.6889 12.2006 12.7697C12.2832 12.4768 12.0135 12.4241 12.0752 12.2777L12.1004 12.373ZM12.569 12.4455L12.6692 12.4821L12.5991 12.5187C12.5655 12.4005 12.5543 12.3745 12.5452 12.3501L12.569 12.4455ZM14.7117 12.5981L14.8455 12.6744H14.7117V12.5981ZM12.9389 12.6347C12.9544 12.6302 12.9707 12.6296 12.9865 12.6329C13.0023 12.6362 13.0171 12.6434 13.03 12.6539C13.0429 12.6644 13.0534 12.678 13.0608 12.6935C13.0682 12.7091 13.0722 12.7263 13.0726 12.7438C13.0572 12.6675 12.9942 12.6789 12.9389 12.7079V12.6347ZM16.4678 12.7262L16.451 12.7804L16.5519 12.7438L16.4818 12.6675L16.4678 12.7262ZM11.0987 12.7262C11.1428 12.7522 11.1085 12.8628 11.0987 12.9261L11.3999 12.817C11.3775 12.9017 11.3551 12.9871 11.3299 13.0718H11.4966C11.395 13.2244 11.2619 13.3663 11.0952 13.2908C11.2528 13.3846 11.2991 13.7531 11.0455 13.6547C10.9712 13.5349 10.8437 13.1313 10.6952 13.4365H10.8963L10.8262 13.6188C10.7471 13.5852 10.6714 13.5318 10.6924 13.4365H10.4585C10.4851 13.0665 10.5874 12.9116 10.8262 13.2541C10.6749 12.9505 10.9005 12.6294 11.0742 12.624L11.0987 12.7262ZM13.474 12.7804C13.563 12.8109 13.6694 12.8567 13.6078 12.9627C13.4915 12.8307 13.3858 12.7819 13.4467 12.6782L13.474 12.7804ZM13.7752 12.7804L13.8088 12.8567H13.675L13.7752 12.7804ZM12.2699 12.817L12.5039 12.9993C12.3729 13.0833 12.3533 12.9025 12.2363 12.9231L12.2699 12.817ZM14.8119 12.817H14.8455C14.8049 12.9902 14.9716 13.0779 15.1131 13.1451C15.0606 13.2427 14.9828 13.3129 14.8792 13.2908C14.9569 13.1603 14.6144 12.9505 14.5443 13.1084C14.5219 13.084 14.5002 13.0596 14.4743 13.0322C14.5499 12.8628 14.7286 12.7217 14.7867 12.7148L14.8119 12.817ZM12.0023 12.8536H12.0689V12.9345L12.2027 12.8979V13.0436C12.1414 13.0269 12.0865 12.9898 12.0457 12.9373C12.0049 12.8849 11.9802 12.8199 11.975 12.7514L12.0023 12.8536ZM11.8013 12.8903L11.9015 13.0718H11.7747L11.8013 12.8903ZM1.54847 12.9993L1.56458 13.036C1.55407 13.0115 1.54286 12.9871 1.53166 12.9597L1.54847 12.9993ZM2.26715 12.981L2.30078 12.9993L2.23073 12.9627L2.26715 12.981ZM15.5145 12.9993L15.5481 13.0756L15.4781 13.1122L15.5145 12.9993ZM2.50182 13.0756C2.35262 13.184 2.53894 13.2374 2.6356 13.1855L2.56556 13.0398L2.50182 13.0756ZM2.25034 13.1519L2.30078 13.1885L2.20061 13.1122L2.25034 13.1519ZM11.0987 13.1336L11.1323 13.1519L11.0623 13.1153L11.0987 13.1336ZM1.76562 13.2099L1.79924 13.2648V13.1557H1.7292L1.76562 13.2099ZM2.85274 13.174L2.76939 13.1924C2.78059 13.2404 2.7918 13.2892 2.80231 13.3381C2.62229 13.2549 2.46609 13.4372 2.3344 13.5929C2.50251 13.6112 2.72245 13.6058 2.80231 13.7386C2.74837 13.6066 3.19457 13.3442 2.87235 13.3381C2.92139 13.1634 2.99074 13.023 2.82543 13.0611L2.85274 13.174ZM1.86719 13.2465L1.90081 13.3014V13.1924H1.83076L1.86719 13.2465ZM1.93723 13.2465V13.3014H2.00378C1.98136 13.2648 1.95965 13.2252 1.93723 13.1924V13.2465ZM14.6326 13.2099L14.6823 13.2282C14.6753 13.3495 14.5478 13.3426 14.4484 13.3381C14.468 13.1702 14.5394 13.0733 14.6011 13.097L14.6326 13.2099ZM11.0027 13.2648L11.0364 13.3014L10.9663 13.2252L11.0027 13.2648ZM15.8535 13.3198V13.3739H15.9201C15.8976 13.3381 15.8759 13.2976 15.8535 13.2648V13.3198ZM2.25455 13.3381L2.23844 13.3739L2.3386 13.4105L2.26856 13.3014L2.25455 13.3381ZM13.729 13.3014H13.8131L13.7794 13.4838C13.6288 13.3503 13.5048 13.2023 13.6975 13.1885L13.729 13.3014ZM11.8377 13.3381C11.8601 13.3617 11.8825 13.3861 11.9078 13.4144H11.7747L11.8377 13.3381ZM14.2817 13.3381H14.3153C14.2298 13.509 14.0946 13.6493 13.9475 13.811C13.9693 13.7142 13.9917 13.6173 14.0176 13.5196C13.9538 13.5044 13.8642 13.4891 13.8838 13.4105C13.9952 13.3106 14.1563 13.2908 14.2494 13.2252L14.2817 13.3381ZM11.6724 13.3739C11.6885 13.3742 11.7044 13.3785 11.7187 13.3865C11.7331 13.3945 11.7456 13.406 11.7552 13.4201C11.7649 13.4341 11.7715 13.4504 11.7745 13.4677C11.7775 13.4849 11.7768 13.5027 11.7726 13.5196C11.6689 13.4281 11.6542 13.3304 11.6402 13.261L11.6724 13.3739ZM1.38595 13.4838C1.36774 13.6547 1.51975 13.5547 1.53657 13.4472L1.40276 13.4105L1.38595 13.4838ZM9.8995 13.4075L9.96604 13.4838L9.86588 13.5196L9.8995 13.4075ZM0.800368 13.4624L0.833989 13.4807L0.763942 13.4441L0.800368 13.4624ZM11.07 13.4807L11.1036 13.5166L11.0371 13.4403L11.07 13.4807ZM0.0480607 13.557L0.03125 13.5936H0.131413L0.0613655 13.5173L0.0480607 13.557ZM13.7773 13.5387L13.8439 13.557C13.8439 13.6882 13.7458 13.7096 13.6435 13.6661C13.6421 13.4899 13.6708 13.3999 13.7479 13.425L13.7773 13.5387ZM15.6336 13.557L15.6168 13.5936H15.7176L15.6476 13.5173L15.6336 13.557ZM14.4463 13.5753C14.5289 13.6775 14.3944 13.824 14.2789 13.8118C14.1899 13.5486 14.2754 13.4014 14.4169 13.4617L14.4463 13.5753ZM0.981779 13.6516L0.931347 13.7058L1.06515 13.6692L1.03151 13.5967L0.981779 13.6516ZM10.9173 13.7058H11.0006C11.0231 13.8095 10.829 13.7935 10.7331 13.8149C10.7354 13.7648 10.7514 13.7165 10.779 13.6763C10.8065 13.6361 10.8444 13.6058 10.8879 13.589L10.9173 13.7058ZM12.7231 13.7058H12.7735C12.758 13.7272 12.7465 13.7518 12.7398 13.7782C12.733 13.8045 12.7312 13.832 12.7343 13.8592C12.7374 13.8863 12.7455 13.9125 12.758 13.9361C12.7705 13.9598 12.7872 13.9806 12.8072 13.9972C12.6713 14.0155 12.4695 14.0658 12.4723 13.8881C12.5655 13.7836 12.604 13.6135 12.6937 13.589L12.7231 13.7058ZM12.8737 13.7058C12.9956 13.7103 13.06 13.8377 13.1084 13.9606L12.941 13.8843C12.9655 13.7073 12.8954 13.6409 12.8443 13.589L12.8737 13.7058ZM12.4058 13.7424H12.4723V13.8515L12.4058 13.7424ZM0.897726 13.8698V13.9247H0.967773V13.6974H0.897726V13.8698ZM3.17286 13.8332L3.20648 13.8515L3.13643 13.8149L3.17286 13.8332ZM10.7835 13.8515H10.8332L10.7996 14.0338L11.1008 13.9247C11.1709 14.1208 10.717 14.1986 10.8332 14.3985C10.7873 14.3785 10.7367 14.3747 10.6887 14.3877C10.6407 14.4007 10.5977 14.4298 10.5657 14.4709C10.4851 14.3138 10.6441 14.2695 10.7667 14.252C10.6868 14.033 10.6329 13.7828 10.7541 13.7348L10.7835 13.8515ZM14.4463 13.8515C14.5289 13.8835 14.5997 13.943 14.5464 14.0338C14.4288 13.9079 14.4049 13.8248 14.4169 13.7348L14.4463 13.8515ZM13.9447 13.8881H13.9777C13.9806 13.9309 13.9728 13.9738 13.9552 14.0122C13.9375 14.0506 13.9107 14.0831 13.8775 14.1063C13.8614 13.9186 13.8677 13.7775 13.9153 13.7737L13.9447 13.8881ZM14.344 14.0155L14.4105 14.0338C14.2901 13.9842 14.3076 14.2032 14.2102 14.1795C14.2095 13.9911 14.2354 13.8736 14.3167 13.8988L14.344 14.0155ZM10.1622 14.0704C10.2217 14.2161 10.2252 14.3756 10.062 14.3985C10.0305 14.1551 10.0235 13.998 10.1349 13.9537L10.1622 14.0704ZM2.70214 14.1795C2.76869 14.2062 2.89829 14.2375 2.90319 14.2886C2.82544 14.3145 2.71196 14.1551 2.67483 14.0628L2.70214 14.1795ZM10.9677 14.2161L11.0378 14.3618H10.9677V14.2161ZM3.10632 14.2924C3.31226 14.3565 3.24291 14.5541 3.0727 14.6205C3.02853 14.5554 3.00499 14.4764 3.00563 14.3955C3.00626 14.3146 3.03103 14.2361 3.0762 14.1719L3.10632 14.2924ZM9.36225 14.2924C9.46942 14.3001 9.45541 14.4152 9.42879 14.5114C9.53876 14.3901 9.65923 14.384 9.62981 14.5877C9.41827 14.4732 9.28938 14.3763 9.33211 14.1719L9.36225 14.2924ZM11.8377 14.2924L11.9379 14.4023H11.7705L11.8377 14.2924ZM12.038 14.2924L12.1081 14.329L12.0745 14.4053L12.2755 14.329C12.3806 14.5098 12.2426 14.6166 12.0745 14.6571C12.1249 14.4267 12.0745 14.2909 12.0079 14.1719L12.038 14.2924ZM12.9417 14.2924L13.0082 14.3687L12.8744 14.4053L12.9417 14.2924ZM14.1122 14.329L14.213 14.4053H14.1122V14.329ZM1.33342 14.4931L1.26758 14.4603C1.36284 14.4519 1.36704 14.3641 1.33762 14.2787L1.33342 14.4931ZM1.1499 14.4747L1.13309 14.5114L1.23326 14.548L1.16321 14.4381C1.12748 14.3298 1.12748 14.342 1.11977 14.3542L1.1499 14.4747ZM13.4096 14.4381L13.5104 14.4747L13.4768 14.551L13.4096 14.4381ZM0.630842 14.5297V14.5838L0.664463 14.5076C0.697385 14.5877 0.759737 14.6273 0.831886 14.5838C0.82418 14.474 0.722604 14.4656 0.630842 14.4747V14.5297ZM2.80231 14.5114L2.87235 14.5877H2.77219C2.75328 14.4389 2.76449 14.4152 2.775 14.3908L2.80231 14.5114ZM2.53474 14.548L2.6356 14.6937H2.53474V14.548ZM3.89014 14.6243L3.9735 14.7006C3.78437 14.7769 3.94829 14.9844 3.83971 15.1011H4.1073C3.99382 15.0523 3.9672 14.9012 4.1073 14.8821C3.98612 14.7669 4.01343 14.5701 3.80609 14.5549L3.89014 14.6243ZM12.9052 14.5877L12.9753 14.6639H12.8744L12.9052 14.5877ZM11.9351 14.6243H12.0352V14.7006H11.9351V14.6243ZM3.23451 14.7334C3.28074 14.7334 3.28845 14.8547 3.30456 14.9157H3.13714C3.14834 15.0423 3.45375 15.0118 3.47196 15.2071C3.35788 15.1444 3.22614 15.1313 3.10351 15.1705C3.16235 15.0667 3.06289 14.9233 3.00335 14.8066C3.0776 14.7479 3.14204 14.6502 3.20999 14.6128L3.23451 14.7334ZM10.8283 14.7334C10.8844 14.818 10.8928 14.9126 10.7947 14.9523L10.8283 14.7334ZM1.99676 14.77L2.16419 14.8463H1.99676V14.77ZM1.27808 14.8974L1.19402 14.9523C1.3026 14.9523 1.45461 14.9729 1.46161 14.8432C1.4333 14.8165 1.40019 14.7964 1.36437 14.7843C1.32856 14.7722 1.29082 14.7684 1.25357 14.773L1.27808 14.8974ZM2.19781 14.9157C2.22022 14.9523 2.24194 14.992 2.26785 15.0248H2.16769L2.19781 14.9157ZM8.80467 14.9157C8.86701 15.082 9.06523 15.0362 9.12267 15.1705L9.02181 15.2071C9.16681 15.1545 9.19413 15.3841 9.32302 15.3528L9.28939 15.1705H9.4568C9.43438 15.2071 9.41197 15.2468 9.39026 15.2803C9.54016 15.2666 9.55487 15.5855 9.75801 15.5351V15.4589H9.85817V15.5351H9.75801V15.6442C9.53245 15.4993 9.25786 15.7671 9.12267 15.5901C9.04702 15.2575 8.58612 14.9546 8.78015 14.7913L8.80467 14.9157ZM10.6259 14.9157C10.6414 14.9112 10.6577 14.9106 10.6735 14.9139C10.6893 14.9173 10.7042 14.9244 10.7171 14.9349C10.7299 14.9454 10.7405 14.959 10.7478 14.9745C10.7552 14.9901 10.7593 15.0073 10.7597 15.0248C10.7456 15.036 10.7297 15.044 10.7127 15.0485C10.6958 15.0529 10.6782 15.0537 10.661 15.0508C10.6438 15.0478 10.6273 15.0412 10.6125 15.0313C10.5976 15.0214 10.5847 15.0085 10.5744 14.9931C10.5642 14.9778 10.5568 14.9604 10.5527 14.942C10.5486 14.9235 10.5479 14.9044 10.5506 14.8857C10.5533 14.8669 10.5593 14.849 10.5684 14.8328C10.5775 14.8166 10.5894 14.8025 10.6035 14.7913L10.6259 14.9157ZM12.5991 14.9157H12.7L12.6299 15.2071L12.5991 14.9157ZM1.67736 15.0072C1.65635 15.0645 1.69347 15.0995 1.72709 15.1346L1.79714 14.9889L1.69628 14.9523L1.67736 15.0072ZM8.30032 15.0614C8.29541 15.0736 8.28981 15.0858 8.28421 15.098L8.38439 15.1346L8.31434 15.0248L8.30032 15.0614ZM9.78742 15.1011C10.0018 15.2186 10.0291 15.3658 9.7538 15.2834L9.78742 15.1011ZM2.72877 15.2102L2.76239 15.2468L2.62859 15.3193L2.59497 15.2102C2.61879 15.066 2.67273 15.04 2.70846 15.0828L2.72877 15.2102ZM13.9216 15.3559L13.9048 15.5016L14.1724 15.3193L13.9384 15.2102L13.9216 15.3559ZM8.82008 15.2468L8.92024 15.3193C8.88662 15.3681 8.8502 15.4169 8.82008 15.465L9.02041 15.6107L8.78646 15.793L9.18783 15.8296C9.15421 15.9143 9.12127 15.9997 9.08765 16.0844C8.98818 15.983 8.86421 15.8701 8.75284 15.9753C8.75039 15.9457 8.74208 15.917 8.72852 15.8912C8.71496 15.8654 8.69645 15.8431 8.67424 15.8258C8.65203 15.8084 8.62664 15.7966 8.59983 15.7909C8.57302 15.7853 8.54541 15.786 8.51887 15.793C8.56791 15.465 8.75143 15.3856 8.79696 15.1194L8.82008 15.2468ZM7.9837 15.3376L8.01734 15.3925C8.02785 15.3559 8.03905 15.3162 8.05026 15.2834H7.95008L7.9837 15.3376ZM8.13431 15.3376C8.1119 15.4001 8.17494 15.4345 8.21767 15.465C8.19525 15.4047 8.17284 15.3437 8.15112 15.2834L8.13431 15.3376ZM1.77823 15.3742L1.79504 15.4291C1.85107 15.4138 1.91131 15.3872 1.8952 15.3193H1.76141L1.77823 15.3742ZM8.35145 15.3559L8.38509 15.3925L8.31504 15.3162L8.35145 15.3559ZM11.1618 15.3193L11.2955 15.4291C11.2667 15.4518 11.2307 15.461 11.1955 15.4548C11.1604 15.4486 11.129 15.4274 11.1082 15.3959C11.0874 15.3645 11.0789 15.3253 11.0846 15.287C11.0903 15.2487 11.1097 15.2145 11.1386 15.1919L11.1618 15.3193ZM12.8674 15.3193L12.9683 15.4291C12.8373 15.3444 12.8177 15.526 12.7007 15.5054L12.8674 15.3193ZM4.06947 15.3559L4.13952 15.4322L4.03865 15.468L4.06947 15.3559ZM11.463 15.3559C11.4735 15.3803 11.4847 15.4047 11.4959 15.4322C11.4616 15.2773 11.4503 15.2529 11.4398 15.2285L11.463 15.3559ZM2.06262 15.4322L2.09624 15.468L2.0262 15.3917L2.06262 15.4322ZM3.36689 15.3955L3.46776 15.4718H3.36689V15.3955ZM3.8355 15.3955L4.00293 15.4718C3.97211 15.5588 3.92306 15.6404 3.8355 15.6175V15.3955ZM1.92882 15.5779V15.6137H2.0381V15.5374H1.90431L1.92882 15.5779ZM3.23311 15.5413H3.26673V15.7602C3.15886 15.6046 3.12103 15.4421 3.20999 15.4108L3.23311 15.5413ZM8.01734 15.5779C7.75046 15.7854 8.36127 15.9967 8.38509 15.7236C8.24429 15.5367 8.17144 15.3368 7.99212 15.4474L8.01734 15.5779ZM4.63826 15.632L4.60462 15.687L4.7055 15.6503L4.67188 15.5741L4.63826 15.632ZM4.35387 15.6687L4.33705 15.7236H4.43792V15.6137C4.37628 15.481 4.34966 15.4817 4.33074 15.5382L4.35387 15.6687ZM4.16963 15.687L4.20325 15.7632H4.13671C4.1248 15.6046 4.13952 15.5809 4.14653 15.5565L4.16963 15.687ZM9.47221 15.7053L9.52266 15.7236C9.50725 15.7999 9.44419 15.7892 9.38885 15.7602C9.38115 15.5908 9.39307 15.5527 9.4491 15.5748L9.47221 15.7053ZM2.56415 15.7236H2.6342V15.8327L2.56415 15.7236ZM4.73562 15.8144L4.7027 15.8693H4.93665V15.7602C4.84628 15.629 4.75103 15.6191 4.7153 15.6809L4.73562 15.8144ZM4.19906 15.7961L4.36647 15.9059L4.23268 15.9418L4.19906 15.7961ZM7.8289 15.8723C8.00052 16.0348 7.94938 15.7655 7.77847 15.7961L7.8289 15.8723ZM1.64023 15.851L1.68996 15.8693L1.5898 15.8327L1.64023 15.851ZM11.4083 15.8876L11.4917 15.9059L11.2914 16.015C11.2843 15.8144 11.2962 15.7312 11.3894 15.7571L11.4083 15.8876ZM3.79769 15.9059L3.86774 15.9822H3.76686L3.79769 15.9059ZM7.64468 15.9235L7.67831 15.9418L7.60826 15.9059L7.64468 15.9235ZM13.2317 15.9418C13.315 15.954 13.3886 15.9944 13.3984 16.0875C13.3647 16.1143 13.3227 16.1254 13.2815 16.1185C13.2403 16.1116 13.2034 16.0871 13.1788 16.0505C13.1541 16.0139 13.1439 15.9681 13.1503 15.9232C13.1566 15.8784 13.1791 15.8381 13.2127 15.8113L13.2317 15.9418ZM4.88481 16.0333L4.868 16.0875C4.99969 16.1638 5.02561 16.0318 4.90162 15.9784L4.88481 16.0333ZM12.328 15.9784H12.3981C12.3547 16.0547 12.3911 16.1249 12.4646 16.1607H12.1971C12.2027 15.9555 12.23 15.8441 12.3091 15.8479L12.328 15.9784ZM8.44742 16.0547C8.60083 16.1004 8.71851 16.2072 8.68209 16.3819C8.59313 16.2965 8.49226 16.2149 8.38088 16.2362C8.38439 16.0425 8.4068 15.9814 8.42851 15.9212L8.44742 16.0547ZM3.86494 16.2004C4.16894 16.443 3.78297 16.3438 3.69751 16.2362V16.3819C3.46356 16.1386 3.64919 15.9219 3.84602 16.0669L3.86494 16.2004ZM7.3771 16.2362C7.25872 16.3545 7.35888 16.443 7.47726 16.4186C7.49688 16.6429 7.32946 16.7046 7.14314 16.6734C7.19427 16.7855 7.28324 16.8259 7.3771 16.7497C7.39531 17.0907 7.16696 16.8473 7.04297 16.7863C6.73757 16.9762 7.24331 17.0151 7.34348 17.0777C7.41353 16.636 7.8184 16.8382 8.04395 16.6764C8.00192 16.4788 7.66219 16.517 7.64258 16.385L7.47518 16.4216C7.45066 16.3156 7.55712 16.2545 7.64258 16.2034C7.53331 16.0478 7.42684 16.0196 7.36169 16.1027L7.3771 16.2362ZM8.94966 16.16L9.01622 16.1966L8.91604 16.2324L8.94966 16.16ZM11.8916 16.16L11.9253 16.2362L11.7915 16.3125C11.8076 16.1271 11.8447 16.0791 11.8741 16.0303L11.8916 16.16ZM2.95991 16.1966C3.093 16.2385 3.10491 16.4948 2.95991 16.488V16.1966ZM3.32836 16.1966L3.46216 16.3423C3.3627 16.2019 3.28914 16.1622 3.31085 16.0669L3.32836 16.1966ZM4.06386 16.2324C4.08493 16.2306 4.10608 16.2345 4.12546 16.2437C4.14484 16.2529 4.16186 16.267 4.17505 16.285C4.18824 16.303 4.19721 16.3242 4.20115 16.3468C4.20509 16.3694 4.20389 16.3928 4.19766 16.4147C4.08068 16.314 4.05756 16.1996 4.04635 16.1027L4.06386 16.2324ZM5.08445 16.2873L5.10126 16.3423C5.11247 16.3057 5.12368 16.266 5.13418 16.2324H5.05013L5.08445 16.2873ZM11.36 16.3057L11.3936 16.3819L11.2934 16.4186L11.36 16.3057ZM4.5696 16.3819C4.82177 16.4819 4.52548 16.5154 4.40219 16.5277C4.4106 16.3087 4.43582 16.2011 4.5486 16.2484L4.5696 16.3819ZM11.8447 16.2149C11.9785 16.2431 12.043 16.3598 12.0451 16.5063C11.9225 16.5383 11.8867 16.3331 11.8447 16.2149ZM3.41452 16.2912C3.57493 16.2828 3.58615 16.4361 3.54832 16.5826C3.40262 16.5513 3.3648 16.427 3.41103 16.2851L3.41452 16.2912ZM8.63304 16.2912C8.7129 16.3095 8.70309 16.4247 8.70309 16.5101L8.56931 16.4735L8.63304 16.2912ZM8.86701 16.3278L8.93705 16.5101L8.83689 16.546C8.80397 16.4582 8.79415 16.3675 8.8635 16.3217L8.86701 16.3278ZM8.96787 16.3278L9.13459 16.3644C9.12479 16.5093 8.92864 16.4582 8.96437 16.3217L8.96787 16.3278ZM3.78437 16.3644C3.86282 16.4125 3.94058 16.4613 4.01834 16.5101H3.78437V16.3644ZM5.13909 16.4186C5.12158 16.4849 5.0214 16.4949 4.95556 16.5101C4.96677 16.5704 4.97729 16.6314 4.9885 16.6917C5.08586 16.6833 5.11107 16.5742 5.12228 16.4735L5.28969 16.5498L5.32331 16.4041C5.25606 16.3827 5.1545 16.343 5.13348 16.4125L5.13909 16.4186ZM12.382 16.3644L12.4156 16.4369H12.3455L12.382 16.3644ZM4.38679 16.4369L4.52057 16.4735C4.48695 16.5582 4.45053 16.6436 4.42041 16.7283L4.38679 16.4369ZM11.6458 16.6192H11.7747V16.6955L11.6458 16.6192ZM3.61697 16.6558C3.74305 16.8618 3.52801 16.961 3.58405 17.1296C3.49649 17.1525 3.45935 17.0723 3.45024 16.9839H3.55042C3.54552 16.8595 3.5287 16.7062 3.61136 16.6497L3.61697 16.6558ZM4.16893 16.7466L4.253 16.8382L3.98542 16.874C3.9602 16.7359 4.03795 16.5894 4.16334 16.7405L4.16893 16.7466ZM7.5312 16.7466L7.56482 16.8382L7.63138 16.7283L7.49758 16.652L7.5312 16.7466ZM9.10378 16.6558C9.11428 16.6802 9.12549 16.7039 9.1367 16.7321C9.11988 16.6978 9.10867 16.6726 9.09817 16.6497L9.10378 16.6558ZM5.35693 16.7321L5.38987 16.7687L5.32331 16.6924L5.35693 16.7321ZM5.55727 16.7504L5.59089 16.7687L5.52435 16.7321L5.55727 16.7504ZM8.20016 16.7687L8.33394 16.8053C8.2723 16.8252 8.20996 16.8328 8.19455 16.7588L8.20016 16.7687ZM9.80563 16.7687L9.83927 16.9877H9.77271L9.80563 16.7687ZM9.97306 16.7687L10.1068 16.8778L9.93944 16.842L9.97306 16.7687ZM4.78815 16.845C4.83298 16.8931 4.87711 16.9419 4.92194 16.9907L4.75453 16.9144L4.78815 16.845ZM7.665 16.8809V16.9175H7.76516V16.8412H7.665V16.8809ZM7.48077 16.9572L7.56482 17.0334C7.534 16.9472 7.48497 16.8648 7.39742 16.8877L7.48077 16.9572ZM8.90273 16.8809H8.97278L8.93916 16.9572L8.90273 16.8809ZM10.7758 16.9175C10.8073 16.948 10.8463 16.9678 10.888 16.9743C10.9298 16.9808 10.9724 16.9738 11.0105 16.9541C11.0329 17.0533 10.8634 17.0426 10.7758 17.0632V16.9175ZM8.60152 16.9541H8.83268V17.0998C8.80754 17.1074 8.78123 17.1092 8.7554 17.1052C8.72958 17.1013 8.70478 17.0915 8.68257 17.0766C8.66035 17.0617 8.6412 17.042 8.62629 17.0187C8.61138 16.9954 8.60105 16.969 8.59593 16.9411L8.60152 16.9541ZM9.43789 16.9541L9.47152 17.0304H9.40148L9.43789 16.9541ZM2.58026 17.0815V17.1723L2.74767 17.096L2.58026 16.9869V17.0815ZM5.65814 17.0449V17.0998C5.71978 17.1166 5.74501 17.0518 5.75832 16.9907H5.65814V17.0449ZM6.97924 17.0815C6.99465 17.1669 7.01356 17.1776 7.06259 17.1723V16.9778H6.96243L6.97924 17.0815ZM7.39952 17.0998C7.39532 17.183 7.47376 17.1936 7.5333 17.2089C7.53953 17.1869 7.54073 17.1636 7.53679 17.141C7.53285 17.1184 7.5239 17.0972 7.51071 17.0792C7.49752 17.0612 7.4805 17.047 7.46112 17.0378C7.44174 17.0287 7.42059 17.0248 7.39952 17.0266V17.0998ZM7.13193 17.1364L7.16556 17.2089L7.29936 17.0998L7.09831 17.0632L7.13193 17.1364ZM9.005 17.0601L9.10586 17.0968L9.03581 17.1334L9.005 17.0601ZM4.84069 17.1723H4.89042C4.91003 17.2554 4.79306 17.3058 4.72302 17.3546C4.74193 17.2737 4.76994 17.1586 4.83298 17.1593L4.84069 17.1723ZM6.61359 17.2089L6.59678 17.2455H6.66683C6.65562 17.2211 6.64441 17.1967 6.63391 17.1692L6.61359 17.2089ZM8.4033 17.1723H8.46984L8.43622 17.2821C8.41731 17.2326 8.4068 17.1959 8.39559 17.1593L8.4033 17.1723ZM8.15183 17.2089C8.21137 17.2089 8.26249 17.2966 8.30242 17.3546C8.13711 17.4263 7.89334 17.273 8.14411 17.1959L8.15183 17.2089ZM6.99815 17.2852L7.03177 17.321L6.96172 17.2448L6.99815 17.2852ZM9.80774 17.2669L9.84136 17.2852L9.70757 17.3943C9.63893 17.3157 9.7433 17.2203 9.80004 17.2509L9.80774 17.2669ZM10.5439 17.2486L10.614 17.3249L10.4802 17.3615C10.4914 17.305 10.5138 17.2692 10.5362 17.2326L10.5439 17.2486ZM5.15801 17.3577L5.32541 17.5766C5.29721 17.5836 5.26777 17.5819 5.24042 17.5717C5.21307 17.5614 5.18891 17.543 5.17068 17.5185C5.15245 17.4941 5.14086 17.4645 5.13726 17.4333C5.13366 17.402 5.13818 17.3703 5.15029 17.3416L5.15801 17.3577ZM4.05406 17.3943C4.27401 17.334 4.34475 17.7185 4.15422 17.4706C4.1213 17.5194 4.08768 17.5682 4.05406 17.6163V17.3943ZM6.88116 17.5217C6.90498 17.63 6.7782 17.6743 6.69694 17.7223C6.83073 17.6865 7.0899 17.5011 6.86435 17.4309L6.88116 17.5217ZM7.83451 17.5034C7.87794 17.5034 7.88775 17.598 7.90456 17.6491L8.03834 17.5766C8.02924 17.8573 7.6734 17.9382 7.63697 17.6491L7.77077 17.6857C7.77287 17.6087 7.78197 17.4912 7.8268 17.4874L7.83451 17.5034ZM8.60503 17.5034L8.67508 17.6857C8.58892 17.6338 8.5525 17.5659 8.59593 17.4874L8.60503 17.5034ZM8.85581 17.5217C8.88803 17.6628 9.07644 17.6933 9.10726 17.7948L9.34123 17.7185C9.35384 17.9954 9.68657 17.8184 9.57519 17.6087C9.67956 17.6949 9.71107 17.5079 9.79303 17.4996C10.0032 17.6125 9.69427 17.7155 9.7426 17.8642C9.66625 17.8131 9.59481 17.8642 9.54157 17.9405L9.50863 17.8642C9.54576 18.0031 9.24107 18.312 9.20744 18.0465L9.34123 18.0824C9.27118 17.8207 8.88452 17.794 8.64076 17.9001C8.68699 17.7643 8.76754 17.498 8.84669 17.5057L8.85581 17.5217ZM10.7296 17.5034H10.8129L10.7128 17.6857C10.6224 17.5995 10.5579 17.4813 10.724 17.4874L10.7296 17.5034ZM11.2143 17.5034C11.2843 17.5202 11.2745 17.5888 11.2479 17.6491C11.1709 17.617 11.1786 17.5484 11.2052 17.4874L11.2143 17.5034ZM3.13573 17.6491L3.11892 17.7254L3.2191 17.6491L3.15254 17.5766L3.13573 17.6491ZM8.20366 17.5766H8.27371C8.30313 17.7757 7.99353 17.9786 8.13992 18.1961C8.04326 18.1663 7.94239 18.1572 7.87234 18.2319C7.85394 18.1931 7.84611 18.1494 7.84978 18.1059C7.85346 18.0624 7.86848 18.021 7.89308 17.9865C7.91768 17.952 7.95083 17.9259 7.98861 17.9113C8.02639 17.8966 8.06721 17.8941 8.10629 17.9039C8.01172 17.7124 8.16863 17.6643 8.19455 17.5606L8.20366 17.5766ZM9.94294 17.6491L10.0774 17.7254L9.97656 17.7612L9.94294 17.6491ZM3.28635 17.762L3.31997 17.7986L3.24992 17.7223L3.28635 17.762ZM3.2198 17.9115L3.25342 17.9481L3.18687 17.8718C3.18757 17.8642 3.19878 17.8764 3.20999 17.8879L3.2198 17.9115ZM10.1447 17.9115L10.2147 18.0214L10.1139 18.058L10.1447 17.9115ZM7.01706 17.9878L7.03387 18.0244L7.00025 17.9481L7.01706 17.9878ZM9.84346 17.9512C9.87708 18.0122 9.91352 18.0725 9.94364 18.1335C9.9236 18.1281 9.90477 18.1182 9.8883 18.1047C9.87183 18.0911 9.85804 18.074 9.84777 18.0545C9.8375 18.035 9.83096 18.0134 9.82853 17.9911C9.82611 17.9687 9.82786 17.9461 9.83366 17.9245L9.84346 17.9512ZM5.62872 17.9878H5.72889C5.76251 18.1305 5.54606 18.1129 5.42768 18.1335C5.47041 18.0298 5.51455 17.9558 5.61892 17.9611L5.62872 17.9878ZM3.83901 18.1335L3.8222 18.2426L3.95598 18.1663L3.85582 18.0206L3.83901 18.1335ZM4.95977 18.0244L5.05993 18.1007L4.89252 18.177L4.95977 18.0244ZM10.3457 18.0244C10.5103 18.0404 10.5096 18.1533 10.3457 18.1701V18.0244ZM11.3488 18.0786V18.1335H11.4188V18.0244H11.3488V18.0786ZM10.111 18.1701C10.1895 18.1701 10.2953 18.1564 10.3121 18.2464C10.214 18.2449 10.109 18.2602 10.1012 18.1434L10.111 18.1701ZM3.75496 18.2792L3.78858 18.3555L3.72204 18.2098C3.72344 18.2037 3.73395 18.2281 3.74516 18.2525L3.75496 18.2792ZM8.23798 18.2029C8.32484 18.3113 8.52938 18.1892 8.57211 18.312L8.2716 18.4211L8.23798 18.2029ZM9.84346 18.2029L9.87708 18.312H9.80704L9.84346 18.2029ZM6.74948 18.2571L6.86645 18.2754L6.83283 18.4944C6.74107 18.444 6.63809 18.4112 6.56525 18.4944C6.58416 18.3601 6.60379 18.206 6.73968 18.2342L6.74948 18.2571ZM9.04072 18.2388C9.14229 18.3342 9.04773 18.6012 9.30831 18.5302C9.24457 18.6202 9.17241 18.7385 9.07434 18.7125L9.10797 18.6362C8.99799 18.5897 9.04283 18.3509 9.03092 18.2159L9.04072 18.2388ZM9.50933 18.4211C9.66064 18.4425 9.73279 18.5554 9.67606 18.7125H9.7461V18.8582C9.66555 18.663 9.47432 18.6355 9.49954 18.3982L9.50933 18.4211ZM10.2119 18.4577H10.2785C10.2427 18.7171 9.97586 18.531 10.2021 18.4348L10.2119 18.4577ZM3.92236 18.6034V18.6797L3.8222 18.6439V18.8254C3.83833 18.8251 3.85417 18.8208 3.86853 18.8128C3.88289 18.8048 3.89539 18.7934 3.90506 18.7793C3.91472 18.7652 3.92131 18.749 3.92431 18.7317C3.92731 18.7144 3.92664 18.6967 3.92236 18.6797L4.12341 18.7164C4.14372 18.6271 4.00152 18.5828 3.92236 18.534V18.6034ZM9.12407 18.6034L9.10797 18.6401H9.17451L9.14089 18.5638L9.12407 18.6034ZM9.97726 18.5851L10.0781 18.6034C10.0172 18.7514 9.97725 19.0391 9.84346 19.004C9.96254 18.8583 9.71458 18.5523 9.96745 18.5623L9.97726 18.5851ZM8.60573 18.6401L8.73952 18.7492L8.57211 18.7125L8.60573 18.6401ZM8.90694 18.6759L9.0071 18.9315C8.91954 18.8972 8.75072 18.8819 8.77314 18.7858H8.90694V18.6759ZM5.19373 18.7858L5.32752 18.8216C5.23785 19.0078 5.11177 19.0024 5.18392 18.7629L5.19373 18.7858ZM8.07058 18.7858H8.1042V18.8949H7.99212C8.00753 18.83 8.01943 18.7614 8.06216 18.7629L8.07058 18.7858ZM8.556 18.8949L8.63935 18.9315C8.49926 18.8994 8.45373 19.1649 8.30452 19.1497C8.2625 18.9925 8.41239 18.8087 8.54618 18.872L8.556 18.8949ZM9.50933 18.8949C9.62701 18.8903 9.76991 18.8819 9.80984 19.004L9.64314 19.0802C9.65434 18.9612 9.57869 18.9055 9.49954 18.872L9.50933 18.8949ZM4.32373 18.9856C4.36576 19.007 4.33634 19.0711 4.32373 19.113L4.45753 19.1497V18.9673H4.27961L4.32373 18.9856ZM9.27469 19.004C9.3013 19.065 9.30971 19.1336 9.24177 19.1497C9.24317 19.0787 9.25296 19.0299 9.26487 18.9811L9.27469 19.004ZM7.73365 19.0406C7.99772 19.1214 7.66359 19.4609 7.49898 19.2954C7.58864 19.8469 7.06819 18.9666 7.59914 19.113V19.2229C7.69231 19.2282 7.71543 19.1138 7.72663 19.0177L7.73365 19.0406ZM8.95457 19.0589C9.0127 19.0764 9.02461 19.1604 9.03792 19.2229L8.80397 19.113C8.8418 19.0566 8.89362 19.0123 8.94755 19.0375L8.95457 19.0589ZM4.65577 19.0772C4.74123 19.1283 4.84769 19.1893 4.82318 19.2954C4.77348 19.2824 4.72924 19.2515 4.6976 19.2078C4.66596 19.164 4.64876 19.11 4.64876 19.0543L4.65577 19.0772ZM9.1388 19.0772L9.17242 19.1863H9.10586C9.10866 19.1268 9.11988 19.0902 9.13109 19.0543L9.1388 19.0772ZM8.66877 19.113L8.73881 19.1893L8.63865 19.2618L8.66877 19.113ZM9.97306 19.2229L10.0431 19.2954L9.94224 19.3717L9.97306 19.2229ZM9.40426 19.2954H9.53316C9.54296 19.4777 9.37835 19.493 9.23265 19.4777C9.24386 19.4289 9.25436 19.3808 9.26557 19.332L9.39937 19.3686L9.40426 19.2954ZM8.33394 19.332H8.36758C8.44743 19.5532 8.1091 19.7531 8.09999 19.4777C8.18825 19.4953 8.2611 19.3267 8.32835 19.3091L8.33394 19.332ZM9.67185 19.4411C9.80564 19.4655 9.90091 19.5509 9.83927 19.6966C9.72159 19.6249 9.6032 19.5494 9.66624 19.419L9.67185 19.4411ZM5.87529 19.6234H5.92572V19.8782L5.75832 19.8019C5.77863 19.715 5.80664 19.599 5.86968 19.6005L5.87529 19.6234ZM9.16751 19.6417L9.23756 19.66L9.1367 19.9148C9.04283 19.8149 9.0085 19.5982 9.16471 19.6188L9.16751 19.6417ZM10.2378 19.7508C10.2266 19.7813 10.2154 19.8118 10.2049 19.8424C10.275 19.7928 10.3912 19.7432 10.3716 19.66C10.3451 19.6491 10.3156 19.6502 10.2897 19.6629C10.2639 19.6756 10.2437 19.699 10.2336 19.7279L10.2378 19.7508ZM8.06637 19.6966H8.20016C8.18264 19.9797 8.07267 19.9797 8.06216 19.6738L8.06637 19.6966ZM8.01594 19.8599L8.06637 19.9148H7.73224C7.8149 19.853 7.94869 19.7676 8.01033 19.837L8.01594 19.8599ZM8.81938 19.8424C8.83393 19.8454 8.84776 19.8516 8.85998 19.8607C8.8722 19.8699 8.88255 19.8816 8.89038 19.8953C8.89822 19.909 8.90336 19.9243 8.90549 19.9403C8.90761 19.9562 8.90667 19.9725 8.90273 19.9881L8.70169 19.8782C8.7157 19.8004 8.73392 19.7836 8.81377 19.8195L8.81938 19.8424ZM7.19637 19.8424C7.26642 19.821 7.28254 19.9186 7.29725 19.9881C7.2216 19.9858 7.20549 19.8889 7.19078 19.8195L7.19637 19.8424ZM5.79543 19.9514C5.80663 19.9759 5.81716 20.0003 5.82836 20.0277C5.80805 19.9774 5.79754 19.953 5.78633 19.9286L5.79543 19.9514ZM8.13712 19.9881C8.14833 20.0117 8.15883 20.0361 8.17004 20.0605C8.14973 20.0132 8.13921 19.9888 8.128 19.9652L8.13712 19.9881ZM9.10726 19.9881L9.17382 20.0605L9.0064 20.0972L9.10726 19.9881ZM10.2441 20.0064L10.2778 20.0239L10.2112 19.9881L10.2441 20.0064ZM8.33745 20.0239L8.40749 20.1002H8.30663L8.33745 20.0239ZM8.70519 20.0239H8.80607C8.79277 20.0857 8.76754 20.1506 8.70519 20.1338V20.0239ZM8.8397 20.1368C8.91325 20.1727 8.94967 20.2398 8.90974 20.3184C8.80187 20.2841 8.79766 20.1963 8.83268 20.1109L8.8397 20.1368ZM6.46438 20.1727H6.56456C6.54075 20.3459 6.38314 20.3863 6.22973 20.3916C6.27877 20.2688 6.34321 20.1406 6.45528 20.1467L6.46438 20.1727ZM7.70213 20.2093H7.80229V20.2856L7.70213 20.2093ZM8.43762 20.355C8.62465 20.355 8.59173 20.5709 8.53849 20.7197C8.38509 20.6205 8.20716 20.3893 8.42851 20.3291L8.43762 20.355ZM8.70519 20.355H8.83268C8.8516 20.4313 8.76264 20.4488 8.6982 20.4641L8.70519 20.355ZM7.06609 20.4641L7.19988 20.574C7.18167 20.5819 7.16179 20.5842 7.14245 20.5806C7.12311 20.5771 7.10506 20.5677 7.09028 20.5537C7.07549 20.5396 7.06456 20.5214 7.05869 20.501C7.05282 20.4807 7.05221 20.4589 7.05698 20.4382L7.06609 20.4641ZM7.83591 20.8684L7.93608 20.9775H7.83591V20.8684ZM9.62562 20.905C9.60391 20.9508 9.67325 21.0096 9.70898 21.0508C9.68656 20.9897 9.66485 20.9287 9.63893 20.8684L9.62562 20.905ZM7.3673 20.9409H7.40092V21.021H7.29164C7.30495 20.9798 7.31686 20.9111 7.36169 20.9119L7.3673 20.9409ZM9.592 21.0866L9.57519 21.1232H9.64524L9.61162 21.0469L9.592 21.0866ZM9.34123 21.1415V21.1965H9.40777C9.38605 21.1599 9.36364 21.1202 9.34123 21.0866V21.1415ZM7.73575 21.3452C7.82401 21.3231 7.88634 21.4086 7.93608 21.4909C7.83171 21.4444 7.69651 21.4322 7.72663 21.3132L7.73575 21.3452ZM8.8397 21.5451L8.90974 21.5634L8.87612 21.6725L8.74232 21.6C8.74792 21.5215 8.76264 21.4925 8.83268 21.5131L8.8397 21.5451ZM7.16696 21.6725L7.19988 21.7488L7.13334 21.7854L7.16696 21.6725ZM7.46746 21.7091C7.49208 21.7205 7.51432 21.7372 7.53284 21.7582C7.55136 21.7792 7.56577 21.8041 7.5752 21.8313C7.58463 21.8585 7.58888 21.8876 7.5877 21.9167C7.58652 21.9458 7.57993 21.9743 7.56833 22.0005C7.40932 21.9433 7.3918 21.8121 7.45835 21.6771L7.46746 21.7091ZM9.20744 21.7854L9.24107 21.822L9.17102 21.7457L9.20744 21.7854ZM8.22047 21.8396L8.30382 21.8579C8.22467 21.8914 8.14973 21.9448 8.17004 22.0402L8.03624 21.9639C8.07266 21.8602 8.12029 21.7793 8.21136 21.8045L8.22047 21.8396ZM7.03317 22.0036V22.0799H7.2216L7.02125 21.9342L7.03317 22.0036ZM7.0829 22.3133L7.09972 22.3682L7.13334 22.2592H7.06329L7.0829 22.3133ZM7.30074 22.623L7.26712 22.6993L7.46746 22.7756C7.45556 22.607 7.38831 22.4041 7.29164 22.588L7.30074 22.623ZM8.58822 22.623L8.60503 22.6597L8.57141 22.5834L8.58822 22.623ZM7.60125 22.6993V22.7756H7.70213C7.70627 22.7586 7.7068 22.7408 7.7037 22.7236C7.7006 22.7063 7.69396 22.6901 7.68424 22.676C7.67452 22.662 7.662 22.6506 7.64763 22.6426C7.63325 22.6346 7.61738 22.6302 7.60125 22.6299V22.6993ZM7.9697 22.8267C7.9697 22.8954 7.86463 22.9259 7.80229 22.9541C7.84432 23.0892 7.99142 23.0304 8.1035 22.9908C8.05867 22.9145 8.01383 22.845 7.9697 22.7718V22.8267Z" fill="#05060F"/>
</svg>