<svg xmlns="http://www.w3.org/2000/svg" width="43" height="56" viewBox="0 0 43 56" fill="none">
  <g clip-path="url(#clip0_1762_1686)">
    <path d="M22.5665 12.5633C22.493 12.6463 22.0503 12.6525 21.819 12.676C21.841 12.6905 21.8599 12.7095 21.8747 12.7316C21.8894 12.7538 21.8996 12.7787 21.9048 12.805C21.9099 12.8313 21.9099 12.8584 21.9046 12.8846C21.8993 12.9109 21.889 12.9358 21.8741 12.9579C21.6842 12.8639 21.4023 12.6603 21.3211 12.9015C21.1174 12.6791 20.7681 12.6603 20.7083 13.0158C20.6823 12.7559 20.1599 12.9046 19.8781 12.9015C20.0649 13.7251 19.1902 12.6165 18.7705 13.0722L18.9926 13.1285C18.9099 13.2554 18.8073 13.3885 18.6602 13.354V13.1849C18.5223 13.1849 17.2187 13.5983 17.4424 13.9772L17.3321 13.6374C17.018 13.8974 16.4374 14.2105 16.8342 14.6553C16.7513 14.606 16.6591 14.5755 16.5637 14.5658C16.4683 14.5561 16.372 14.5674 16.2812 14.5989L16.3363 14.8823C15.5275 14.8823 15.3544 15.778 14.6206 15.7874C14.8535 16.5969 14.8244 16.1005 15.1736 15.9001C15.1384 16.1914 15.0404 16.4904 14.7309 16.4654C14.8305 16.8099 15.0005 17.3094 15.3958 17.2577C15.4463 17.0166 15.2579 16.8365 15.0633 16.6924L15.3406 16.5781C15.1323 16.5061 15.2487 16.2885 15.3406 16.1256C15.4938 16.3793 16.0376 16.2086 16.3915 16.1835C16.3622 16.2181 16.3414 16.2594 16.331 16.3038C16.3206 16.3483 16.3208 16.3947 16.3316 16.4391C16.3424 16.4835 16.3636 16.5245 16.3932 16.5588C16.4228 16.5931 16.46 16.6196 16.5018 16.6361C16.3762 16.7144 16.2582 16.6361 16.1694 16.5218C16.0238 16.8944 16.295 16.9508 16.6121 16.9179C16.6917 16.7488 16.9828 16.5625 16.9996 16.2399C16.9322 16.6956 18.5193 16.6737 18.7705 16.5218C18.8073 16.5781 18.844 16.6361 18.8823 16.6924C18.9788 16.2963 18.9268 15.9721 19.4951 16.0661V16.3495H19.6054C19.5518 16.5813 19.5257 17.0041 19.8275 16.7457L19.993 17.0275C20.01 16.8663 20.0639 16.7113 20.1504 16.5753C20.2369 16.4393 20.3535 16.326 20.4908 16.2446C20.4411 16.1695 20.4145 16.0809 20.4145 15.9902C20.4145 15.8995 20.4411 15.8108 20.4908 15.7357C20.3866 15.6825 20.2381 15.6277 20.2702 15.5087C20.7911 15.4523 20.7773 16.1475 20.7129 16.4137C20.678 16.4108 20.6429 16.4167 20.6107 16.4309C20.5785 16.4451 20.5502 16.4672 20.5283 16.4952C20.5064 16.5231 20.4915 16.5562 20.485 16.5914C20.4784 16.6266 20.4804 16.6629 20.4908 16.6971C20.8554 17.0103 21.4773 16.337 21.4865 16.8663C21.7929 16.9164 22.1759 16.575 22.4271 16.8663C22.2464 16.218 23.3171 16.5922 22.8714 17.0354C23.3034 17.2123 24.4032 17.1512 24.751 16.6971C24.7387 17.6116 27.1346 17.3736 27.9679 17.7713L27.8576 17.3752C28.1181 17.2483 28.259 18.2348 28.521 17.8559C28.5623 17.6601 28.2314 17.3971 28.5761 17.2624C28.5735 17.298 28.5795 17.3337 28.5935 17.3664C28.6075 17.3991 28.6291 17.4278 28.6565 17.45C28.6838 17.4723 28.716 17.4873 28.7503 17.4939C28.7846 17.5005 28.82 17.4985 28.8534 17.4879C28.3233 18.2849 29.2578 18.014 29.5718 18.3366C29.6101 18.2239 29.6469 18.1111 29.6837 17.9984C29.6193 18.2834 29.9778 18.2677 30.0697 18.5073C30.2137 18.3382 30.4052 18.3679 30.5691 18.5073L30.4511 18.6701C30.782 18.4603 31.2048 18.7844 31.2814 19.1227L31.6138 18.9536L31.5587 19.179C32.2067 19.3168 32.7306 19.6488 33.2729 20.1405C33.2346 19.8524 33.5792 19.5392 33.1641 19.4061C33.2912 19.3278 33.2346 19.1837 33.1641 19.0663C33.5777 19.2605 33.7003 19.9651 33.5777 20.3957C33.8121 20.4975 34.65 21.0127 34.7128 21.2726L34.8783 21.2162C34.8614 21.2726 34.8415 21.329 34.8231 21.3853L35.2658 21.329C35.612 21.7283 35.704 22.6396 36.4837 22.4595V22.9121H36.761C36.643 23.825 37.9221 24.1428 37.9788 24.8929C38.132 24.8537 38.0753 24.5202 38.0876 24.326H38.2025C38.2025 24.6063 38.1488 25.0041 38.4231 25.062C38.1458 25.4018 38.6988 26.0422 39.0879 25.8543C38.9761 26.2051 39.3131 26.4525 39.2533 26.703L39.4739 26.7594C39.3606 26.833 39.3759 26.9708 39.4203 27.0976C39.7512 26.7657 39.7711 28.0371 40.0009 28.2861C40.3073 28.7559 40.2644 29.4073 40.5815 29.8128L40.6918 29.6437C40.3149 30.256 41.1115 32.0755 40.6918 32.6423C40.9338 33.1732 40.7959 33.8246 40.8588 34.5652L40.5263 34.4525C40.7224 34.6279 40.6795 34.9598 40.6366 35.2432C40.9828 35.2902 40.6366 35.9025 40.3594 35.6958C40.2239 36.1531 40.2054 36.6383 40.3057 37.105L40.416 37.0487L40.5263 37.3321C39.6976 36.6838 39.6608 38.696 39.2809 39.1141C39.1384 40.1146 37.7797 41.3799 38.0906 42.2458C36.8437 43.5345 35.6166 45.5466 34.5504 46.9966C34.2242 47.2127 33.7845 47.7639 33.9377 48.1851C33.5731 47.922 33.5042 48.4701 33.2192 48.3542C33.351 48.7426 32.6341 48.622 32.4993 48.8068C32.245 49.0338 32.3461 49.5427 32.7198 49.2593V49.4284H32.389C32.3629 49.6304 32.6295 49.7306 32.4441 49.9389C32.3415 49.6868 32.2526 49.3125 32.0014 49.3125L31.9462 49.5396C31.9708 49.4221 32.0749 49.4378 32.1668 49.4832C31.7961 49.9044 30.8096 50.4603 30.2305 50.5574V50.6701H30.0636C29.7128 51.4061 28.3632 51.3638 28.3494 52.3112C28.0185 52.106 27.6401 52.2297 27.297 52.4239C27.3337 52.4991 27.372 52.5805 27.4073 52.6494L27.1867 52.593C27.1859 52.6679 27.1564 52.7395 27.1046 52.7925C27.0528 52.8455 26.9827 52.8756 26.9094 52.8764C26.9316 52.891 26.9507 52.91 26.9656 52.9322C26.9805 52.9544 26.9909 52.9795 26.9962 53.0059C27.0015 53.0323 27.0016 53.0596 26.9964 53.086C26.9912 53.1124 26.9809 53.1376 26.9661 53.1599C26.8129 53.1458 26.8006 53.0033 26.8543 52.8764C26.7962 52.8856 26.7368 52.8738 26.6865 52.8429C26.6361 52.812 26.5979 52.764 26.5785 52.7073C26.2216 52.9939 26.1603 53.5685 25.5828 53.3853C25.618 53.4793 25.6548 53.5748 25.6931 53.6688C25.3591 53.2976 25.1018 53.6688 24.751 53.4981C24.2715 54.1636 23.1241 53.7001 22.372 54.1777C21.8664 53.7079 20.9197 54.1463 20.2151 54.0649C20.2718 53.7517 18.8149 53.4856 18.9972 53.9506C18.5576 53.9757 18.144 53.1191 17.7242 53.6124L17.6139 53.3853H17.7794V53.2726C17.5772 53.2882 17.3336 53.282 17.3367 53.0456C16.5094 53.8708 17.2095 52.438 16.6167 52.9892L16.4497 52.6055C16.3455 52.6838 16.226 52.7981 16.1173 52.7762V52.5492C15.2441 52.4552 15.4157 53.5529 14.6788 53.1755C14.6038 52.8342 14.999 52.7058 14.7891 52.3832C14.5379 52.4881 14.3464 52.676 14.4583 52.9485C14.1274 52.903 13.5192 52.9892 13.5177 52.665H13.7383C13.5728 52.1765 12.0823 52.7856 12.5756 51.76H12.355L12.4101 52.0434C12.0517 52.0277 11.3654 51.4969 12.0226 51.417L11.9674 51.2464C11.6702 51.5016 11.393 51.464 11.1647 51.2464C11.0284 51.5971 10.4355 51.7036 10.6393 51.19C10.5152 51.1462 10.3804 51.1289 10.3068 51.2464C10.0005 50.952 9.5409 50.3069 9.03385 50.2849C8.92508 50.0579 8.82092 49.5427 8.53599 49.5505C8.68917 49.9608 8.3491 49.7666 8.14995 49.6069H8.31539C7.90944 49.2045 8.55743 49.3673 8.64781 49.1544C9.46891 49.6132 8.93581 48.4795 9.91928 48.8146C9.3295 49.621 10.2257 49.2656 10.4738 49.8324C10.5489 49.6273 10.7894 49.419 10.9165 49.2061C10.7542 49.2436 10.7833 48.9023 10.5841 48.979L10.7496 49.2624L10.362 49.4315C10.3727 49.1356 10.0403 48.9477 10.1414 48.5844C10.0112 48.7332 9.8626 48.6063 9.75384 48.4701L9.64354 48.6408C9.67877 46.9293 8.75351 48.4012 8.53599 47.2315C7.59081 47.7107 9.89324 48.4576 8.75811 48.5891C8.83471 48.7175 8.75811 48.8381 8.64781 48.9273C8.46399 48.3166 6.80955 48.1099 7.31967 47.1736C7.15882 47.1595 7.11746 46.9919 7.09755 46.8353C7.07095 46.8358 7.04481 46.8425 7.02112 46.8548C6.99744 46.8672 6.97683 46.885 6.96087 46.9067C6.94491 46.9285 6.93402 46.9537 6.92904 46.9804C6.92405 47.0071 6.9251 47.0346 6.9321 47.0608L6.43424 46.9481C6.8647 48.4654 4.74917 46.2826 6.04667 46.779C6.36224 45.9334 5.71272 46.3092 5.43392 46.6083C5.4523 46.4767 5.47068 46.3452 5.4906 46.2121H4.99121V45.7032C4.77062 45.769 4.32177 45.4824 4.54849 45.2507C4.5347 45.9428 5.42932 44.2736 5.32362 45.307H5.54575C5.77094 44.5523 3.79787 43.677 4.49334 44.9688H4.27275C3.46085 43.9416 3.09473 42.8048 2.94461 41.4895C3.18664 40.4701 2.21696 40.7472 2.22462 40.1601L2.33492 40.3871C2.40936 40.3552 2.47145 40.2991 2.51159 40.2275C2.55174 40.1559 2.56771 40.0727 2.55704 39.9909C1.88914 39.8343 3.02733 38.9716 3.0549 39.623C3.40264 40.1976 3.23414 40.1976 2.88946 40.6126C2.92571 40.6206 2.96316 40.621 2.99958 40.6139C3.036 40.6068 3.07066 40.5923 3.10151 40.5713C3.13236 40.5503 3.15878 40.5232 3.17919 40.4915C3.1996 40.4599 3.2136 40.4244 3.22035 40.3871C3.23873 40.528 3.3 40.6533 3.44247 40.669C3.06716 41.1246 3.97863 41.0636 3.94033 41.3485L3.0549 41.1779V41.3485L3.38732 41.2342C3.30767 41.4675 3.48536 41.6429 3.27703 41.8606C3.29759 41.8364 3.323 41.8169 3.35155 41.8036C3.38009 41.7903 3.4111 41.7834 3.44247 41.7834C3.47384 41.7834 3.50485 41.7903 3.53339 41.8036C3.56194 41.8169 3.58735 41.8364 3.60792 41.8606C3.57268 41.7243 3.7611 41.7165 3.88519 41.6899C3.91582 41.9044 3.89591 42.2427 4.10578 42.2567L3.99548 42.4822C4.06793 42.4786 4.13978 42.4973 4.20168 42.536C4.26358 42.5746 4.31267 42.6314 4.34258 42.699C4.37248 42.7665 4.38181 42.8417 4.36936 42.9148C4.35691 42.9878 4.32325 43.0553 4.27275 43.1086C4.11956 43.0444 4.09046 42.8784 4.10578 42.7124L3.88519 42.8252C3.37354 41.9545 3.78102 43.2057 3.88519 43.5032C4.15633 43.4249 4.49794 43.5642 4.77062 43.4468C4.79053 43.9166 5.40941 44.665 5.82149 44.6917C5.23477 45.5043 6.59969 45.2695 6.92904 45.3697C6.64871 45.4652 6.74062 45.83 6.48632 46.0493C6.9658 45.8801 7.32273 46.7758 7.92477 46.6145C7.672 46.3405 6.85245 45.9882 6.92904 45.4276C7.70877 45.5842 7.04087 44.7637 6.70692 44.6917C6.80955 44.5351 6.62879 44.4286 6.48632 44.3519C6.61653 44.2814 6.59969 44.0387 6.43118 44.07V44.4082H6.31935C6.36837 44.1734 6.11867 43.7944 5.87664 44.0121C6.04821 44.2031 6.36071 44.4364 6.31935 44.6384C6.20139 44.5273 6.05893 44.3253 5.93332 44.355L6.04361 44.5821C5.8414 44.6369 5.81842 44.3174 5.76634 44.1295L5.4906 44.2986C5.72191 43.702 5.33741 43.4719 5.10303 42.9974H5.65604V42.4885C5.36499 42.4227 5.40481 42.8721 5.10303 42.8847L5.21333 42.6592C4.94678 42.6216 4.74151 41.9812 5.10303 41.9232C5.01112 41.7666 4.74151 41.8465 4.54849 41.8668V41.6883C4.87478 41.8449 4.72772 41.4033 4.71547 41.1794L5.04789 41.2358C5.14593 40.9445 4.47956 40.8976 4.38305 41.0667L4.27275 40.9539C4.47496 40.9539 4.55768 40.752 4.60517 40.5578C4.1119 40.8334 3.85455 39.9173 4.27275 39.7654C4.21168 39.7218 4.16371 39.6616 4.13422 39.5916C4.10472 39.5216 4.09488 39.4447 4.10578 39.3693L3.88825 39.54C3.79634 39.3317 3.70442 39.125 3.61098 38.9136C3.15141 39.3051 2.06224 39.1689 2.50496 38.2873L2.33798 38.3437C2.33798 38.2121 2.35943 38.0305 2.22769 38.0039C2.49577 37.1536 2.0316 35.9134 2.31194 35.0632C2.1756 34.9426 1.68386 34.6717 2.17254 34.6106V33.8747H1.8968C2.31041 33.5458 2.68419 32.1522 1.8968 32.1788C2.35636 33.1763 1.8248 32.932 1.34226 32.348C1.45102 32.647 1.09715 32.7316 1.06652 32.9132C-0.0609519 32.6408 -0.197289 34.7531 0.291382 35.3748C0.211724 35.6081 -0.204947 36.3362 0.125941 36.5335C0.00492162 36.8467 -0.137546 38.4924 0.568653 38.2873C0.415464 38.519 0.943967 38.7711 0.844395 39.0232C0.610016 39.0765 0.665162 38.649 0.401678 38.6834L0.456828 38.8526C-0.00273725 38.9919 0.35266 39.9142 0.346532 40.2618C0.521167 40.4043 0.87503 40.3949 0.568653 40.7144C0.764734 40.7645 0.959283 41.0996 0.678949 41.1105C0.778521 41.5317 1.05273 42.0407 0.844395 42.4118C0.872727 42.43 0.90466 42.4416 0.937903 42.4457C0.971146 42.4499 1.00487 42.4464 1.03666 42.4356C1.06844 42.4249 1.09749 42.407 1.12173 42.3834C1.14596 42.3598 1.16477 42.331 1.17681 42.299C1.25647 42.8032 1.258 43.9823 1.8968 44.2219L1.78497 44.391C1.98718 44.5633 1.94888 45.3305 2.44981 44.9579C1.72982 45.7799 3.67531 47.9487 4.44126 48.2947L4.33097 48.5202H4.501C4.23599 48.8757 5.19188 49.1716 5.44158 49.3125C5.33282 49.657 5.69587 49.9921 5.91187 50.1894C6.2642 50.2207 6.24275 49.7322 6.54913 50.2176C6.66249 50.7516 6.71151 51.0491 7.26912 51.179V51.3497C7.67813 51.226 8.18825 51.4249 8.09787 51.915C9.19163 51.7365 9.64201 53.2068 10.6439 53.3853V53.1599C10.8308 53.1082 10.8997 53.3822 10.9763 53.5545C11.1203 53.2789 11.2428 53.6562 11.1969 53.8379C11.3761 53.8379 11.6089 53.8113 11.6947 53.9506L11.9169 53.7251V53.9506C12.5296 53.805 13.1684 54.6615 13.798 54.5175C14.374 54.9183 15.3774 55.1438 16.0667 55.3004L15.8369 55.1548C17.2861 55.6245 18.36 56.1209 19.8765 55.7811V55.8954C20.7099 56.052 21.8266 55.659 22.6431 56.0082L22.6983 55.8375C23.1226 56.0097 23.7491 55.6324 24.077 55.3286C24.1964 55.4319 24.3404 55.7983 24.5748 55.612L24.4645 55.3849L24.6866 55.3286L24.5304 55.1548C25.7222 55.136 27.3552 54.7617 28.2391 54.137C28.4964 54.1088 29.6791 54.0524 29.2348 53.5701L29.4002 53.6844C29.4385 53.6077 29.4738 53.5278 29.5106 53.4574C29.9548 53.6969 30.6809 52.4662 31.2814 52.723L31.116 52.4396C31.7287 52.4928 31.7456 51.1321 32.0565 51.987C32.0075 51.7459 32.5636 51.6222 32.8317 51.4781C32.5651 51.0851 32.8317 50.7876 33.2192 51.082V50.7985C33.7125 51.2589 33.832 49.7917 34.4371 50.0641V49.8935C34.7281 50.0501 35.1938 49.6351 35.0498 49.3282H35.2168C35.249 49.206 35.1019 49.1826 34.9962 49.1591C35.0759 48.9195 35.4083 48.7222 35.6595 48.7065C35.5692 48.5406 35.5492 48.3605 35.7147 48.254L35.8265 48.3667C36.1114 48.2822 36.7456 48.2102 36.3795 47.6887L36.6001 47.7451C36.6001 47.5697 36.8682 47.2237 37.0428 47.3489C37.4151 46.2153 39.1093 45.5106 39.0343 44.0105C39.5015 44.2391 39.4739 43.4656 39.8079 43.3325C39.7374 42.4744 41.2187 41.6257 40.9154 40.5609L40.8051 40.6173C40.9415 40.3041 41.5803 40.3182 41.2463 39.7122C41.6615 39.9346 42.841 36.1248 42.3539 36.0919C42.9973 35.8868 42.1455 35.2683 42.7966 34.9614C42.3094 34.7766 42.4902 34.6326 42.9069 34.5652C42.7751 34.2035 42.8379 33.7478 42.9069 33.3125H42.7981C42.9819 32.3527 43.1045 31.695 42.9084 30.5409C42.9651 29.7486 42.0567 28.5977 42.6878 28.2219C42.55 28.1373 42.6036 27.9322 42.6327 27.7694L42.4657 27.8257C42.5499 27.5971 42.4933 27.226 42.19 27.3732L42.3003 26.8079L42.0797 26.8643C42.0506 26.6529 41.9832 26.371 42.19 26.299L41.9678 26.2426C41.9862 26.1659 42.0061 26.0861 42.023 26.0156H41.9127C42.4351 25.2687 41.0318 24.8318 41.5803 24.4325L41.1375 24.3761C41.3689 24.1647 41.2632 23.5744 40.8618 23.6966C41.2999 23.3834 40.8986 23.0702 40.5294 22.9042C40.8618 22.8259 40.6412 22.4658 40.3624 22.5081C41.11 22.0915 39.67 21.592 39.644 21.2366C39.2227 20.0919 38.2882 19.1117 37.4304 18.3225L37.2649 18.4368C37.098 17.823 36.2891 17.1606 35.7698 17.0792C36.0057 16.849 35.6611 16.4341 35.3823 16.6831C35.4206 16.5687 35.4558 16.456 35.4941 16.3433C34.6439 16.1867 33.9408 15.5071 33.279 15.0984L33.5011 14.8729C33.377 14.8275 33.2422 14.8103 33.1702 14.9293C32.8026 14.5864 31.5939 14.5503 31.5097 13.9115C31.4833 13.9948 31.4314 14.0673 31.3616 14.118C31.2917 14.1688 31.2078 14.1952 31.1221 14.1933C31.2446 13.8708 30.8601 13.6374 30.5691 13.7408V13.5717C30.3546 13.7173 30.2382 13.39 30.0697 13.401C30.108 13.4574 30.1448 13.5153 30.1815 13.5717C29.9517 13.6374 29.5841 13.6672 29.5688 13.3446L28.74 13.628C28.5792 13.4292 28.1594 13.2883 28.0752 12.9485L27.9097 13.1191C27.8178 12.7324 27.5804 13.0236 27.467 13.1755C27.1024 12.9031 26.4452 12.77 26.027 12.6666C26.1389 13.0643 25.7758 12.8232 25.5016 12.8639C25.1539 12.8498 25.1753 13.3681 24.8659 13.2883L25.0865 12.8921C24.9276 13.0754 24.7107 13.1957 24.4737 13.2319C24.4737 12.9939 24.6438 12.9187 24.8613 12.9485C24.7832 12.8044 24.6897 12.6259 24.5289 12.6666L24.584 12.8357C24.5325 12.8616 24.4759 12.875 24.4186 12.875C24.3612 12.875 24.3046 12.8616 24.2531 12.8357C24.2884 12.7418 24.3267 12.6478 24.3634 12.5539C23.982 12.6979 23.5822 12.8326 23.2559 12.5539C23.2742 12.6102 23.2942 12.6666 23.311 12.723C23.213 12.7919 22.6523 12.4724 22.5665 12.5633ZM21.6259 12.7324C21.6351 12.7512 21.6428 12.77 21.6535 12.7887L21.7087 12.676H21.5984C21.606 12.6901 21.6167 12.7089 21.6259 12.7277V12.7324ZM22.4838 12.8451C22.5006 12.9015 22.5206 12.9579 22.5389 13.0158H22.4241C22.447 12.9532 22.4639 12.8968 22.4838 12.8404V12.8451ZM28.7875 13.7502H28.8427C28.8548 13.8293 28.8512 13.9101 28.8323 13.9879C28.8133 14.0656 28.7794 14.1386 28.7324 14.2027C28.6435 14.09 28.5255 14.0117 28.3999 14.09C28.5179 13.9725 28.7048 13.7549 28.7921 13.7455L28.7875 13.7502ZM26.8497 14.0336L26.9615 14.09C26.8343 14.1166 26.6551 14.1777 26.6291 14.0336C26.6608 14.0074 26.7001 13.9927 26.7409 13.9919C26.7816 13.991 26.8215 14.0041 26.8543 14.0289L26.8497 14.0336ZM18.2175 14.1463H18.3278L18.2726 14.2591L18.2175 14.1463ZM26.796 14.2591H26.9048C26.888 14.3343 26.868 14.4157 26.8497 14.4861C26.8374 14.4063 26.8175 14.3296 26.8006 14.2544L26.796 14.2591ZM17.7748 14.4298L17.9402 14.5989L17.7196 14.5425L17.7748 14.4298ZM17.3321 14.5425H17.4424V14.7116L17.3321 14.5425ZM27.4027 14.5707L27.5145 14.5989C27.5022 14.804 27.2081 14.7978 27.0166 14.8259C27.13 14.7116 27.2755 14.5269 27.4073 14.566L27.4027 14.5707ZM24.0279 14.8823L24.3604 15.2205C24.2072 15.208 24.0387 15.2205 24.0279 15.3912H24.9685L24.8031 15.6167C24.876 15.6651 24.959 15.6955 25.0455 15.7052C25.1319 15.715 25.2194 15.704 25.3009 15.6731L25.2458 15.504C25.3867 15.5901 25.5522 15.4852 25.6885 15.3912L25.7436 15.504C25.7927 15.3568 25.8585 15.1783 26.0194 15.2205C26.002 15.1266 25.9836 15.0326 25.9642 14.9387C26.0929 14.9042 26.1343 15.0953 26.1864 15.2205H26.024C25.9979 15.5212 25.8065 15.7717 25.9688 16.1256C26.0944 15.969 26.2415 15.7294 26.4131 15.8438C26.3504 15.8711 26.2993 15.9202 26.2687 15.9824C26.2382 16.0446 26.2301 16.1159 26.2461 16.1835C26.0669 16.171 25.8677 16.1835 25.8034 16.3527C25.4189 15.9502 24.5028 17.0385 25.2504 16.1256H25.0834V16.2399L24.8628 16.1835L24.9731 16.0129C24.6575 15.8156 24.2945 16.0332 23.9222 16.0692C23.9942 15.5102 23.2513 15.8124 23.0368 15.4429L23.4795 15.2738C23.4979 15.4147 23.5576 15.5384 23.7001 15.5556C23.6587 15.3364 23.9973 15.1235 24.0325 14.8776L24.0279 14.8823ZM26.3518 14.8823L26.4636 15.0514H26.3518V14.8823ZM27.1821 15.1078C27.2089 15.1083 27.2352 15.115 27.2591 15.1274C27.2829 15.1399 27.3037 15.1577 27.3198 15.1796C27.3359 15.2015 27.3469 15.2269 27.352 15.2538C27.3571 15.2807 27.3561 15.3084 27.3491 15.3348H27.1821V15.1078ZM28.8978 15.1078H29.2302C29.29 15.4523 28.9376 15.4084 28.9024 15.1031L28.8978 15.1078ZM16.0039 15.2205C16.1694 15.2205 16.3808 15.2033 16.3915 15.3912C16.2337 15.4037 16.0698 15.3818 16.0085 15.2158L16.0039 15.2205ZM22.3122 15.2205C22.4179 15.4225 22.6661 15.3943 22.6998 15.6731C22.727 15.6095 22.7752 15.5578 22.836 15.5269C22.8967 15.496 22.9662 15.4879 23.0322 15.504C23.0965 15.7545 22.7549 15.8531 22.5343 15.9565V15.7263C22.3413 15.8704 21.9415 15.7013 21.8695 15.4993L22.3674 15.4429C22.3536 15.3677 22.3367 15.2926 22.3168 15.2158L22.3122 15.2205ZM18.1623 15.2785C18.3875 15.3255 18.435 15.601 18.1623 15.5603V15.2785ZM18.6051 15.3348C18.7583 15.41 18.9942 15.5008 18.8823 15.6731C18.818 15.4914 18.6434 15.5368 18.4948 15.6167L18.6051 15.3348ZM19.1029 15.3912C19.1811 15.4006 19.1918 15.6198 19.2132 15.731C19.0539 15.695 18.9314 15.4585 19.1075 15.3818L19.1029 15.3912ZM27.0687 15.3912C27.3583 15.5478 27.539 15.8171 27.8439 15.8438C27.5007 16.4482 28.3187 16.3135 28.6175 16.2681C28.5041 15.742 29.1827 15.6621 28.8396 16.1835L29.0602 16.1256C29.0602 16.4544 29.4968 16.4247 29.6729 16.5781C29.6913 16.5218 29.7082 16.4654 29.7281 16.409C30.157 16.5891 30.3408 16.7128 30.7238 16.409C30.9551 16.7222 31.3366 16.9352 31.6092 17.145L31.7195 16.8052C31.813 16.9179 31.9049 17.0307 31.9968 17.145C31.983 16.9884 31.9968 16.8177 32.1622 16.8052C32.1868 17.6805 33.3203 16.896 33.4352 17.6539L33.8228 17.3705C33.4659 18.0234 34.0143 18.0187 34.4861 17.7666C34.411 18.4337 35.7989 18.537 36.0364 19.096C36.3198 19.226 36.3918 20.2172 36.81 19.8602C36.8737 20.0986 37.0005 20.3145 37.1765 20.4841C37.3524 20.6537 37.5706 20.7705 37.8072 20.8216C37.7184 21.1489 38.1779 21.5545 37.8072 21.7831L38.2025 22.115C38.0753 22.6584 39.3315 23.0248 39.3636 23.6981L39.1982 23.5854C39.1475 23.7511 39.1475 23.9286 39.1982 24.0943C38.9684 24.1162 38.5487 24.0504 38.5854 23.7545H38.7524C38.518 23.3959 38.1397 22.7743 37.6464 22.6803C37.6265 22.7555 37.6096 22.8369 37.5897 22.9058C37.4013 22.9058 37.3415 22.7492 37.3691 22.5676H37.5346C37.605 21.7032 36.7763 22.2888 36.3167 22.0007L36.6491 21.8316H36.4285L36.4837 21.5482H36.2616V21.7752C35.8143 21.5404 36.3811 21.4198 36.4837 21.1489C36.1329 20.8357 35.3608 20.7402 35.4313 20.1875C35.1923 20.2704 35.1479 19.9134 34.9349 19.962V20.1311C34.5642 20.0763 34.9013 19.2902 34.2701 19.5658V19.3388C34.0005 19.1289 33.1365 18.869 33.0446 18.4916L32.8792 18.6044C32.559 18.1972 31.9983 17.8324 31.4407 17.8684V17.6429C31.0394 17.8183 30.7361 16.968 30.4435 17.4159C30.2351 17.1278 29.3926 16.6674 29.005 16.907C29.6316 17.0636 28.7201 17.5521 28.7293 16.9633H28.8947C28.9208 16.766 28.4214 16.431 28.3969 16.7942C28.1273 16.2352 27.1959 16.6126 26.8466 16.1146C27.1423 16.0959 27.4594 16.0661 27.6217 15.8328C27.4195 15.7153 27.0197 15.601 27.0764 15.3818L27.0687 15.3912ZM20.9259 15.5603C21.1357 15.6026 21.4773 15.4664 21.7562 15.5603C21.5463 15.5916 21.2154 15.5713 21.2031 15.7874C21.387 15.7874 21.436 16.0802 21.2583 16.1256C21.2185 15.9048 20.8922 15.969 20.9259 15.6731L20.7053 15.7874C20.6777 15.6605 20.8079 15.4538 20.9335 15.5556L20.9259 15.5603ZM17.5787 15.6449C17.6905 15.6903 17.7319 16.0082 17.7717 16.1835L17.2739 15.9565C17.3688 15.8359 17.4745 15.6073 17.5864 15.6402L17.5787 15.6449ZM24.3849 15.731L24.4676 15.7874V15.6731H24.3021L24.3849 15.731ZM30.6656 15.6731L30.831 15.731C30.8142 15.7686 30.7943 15.8062 30.7759 15.8438L30.6656 15.6731ZM23.9697 15.8719V15.9565H24.08L23.9697 15.7874V15.8719ZM26.6536 15.9565C26.6733 15.9699 26.6956 15.9792 26.7189 15.9836C26.7423 15.9881 26.7662 15.9876 26.7894 15.9824C26.8126 15.9771 26.8345 15.9671 26.8538 15.953C26.8731 15.9388 26.8894 15.9209 26.9017 15.9001C26.937 16.0567 26.6199 16.1068 26.4606 16.1835C26.4069 15.9941 26.4238 15.8359 26.6612 15.9518L26.6536 15.9565ZM16.4987 15.9565C16.7331 15.9565 16.7837 16.2415 16.8311 16.4654H16.4987V15.9565ZM18.4366 15.9565C18.6556 16.0708 18.4902 16.3448 18.6571 16.4654C18.4412 16.3527 18.288 16.1726 18.4412 15.9518L18.4366 15.9565ZM19.9853 16.0129L20.0956 16.0692C20.0296 16.053 19.9601 16.0612 19.8995 16.0925C19.8389 16.1238 19.7911 16.176 19.7647 16.2399C19.6667 16.1209 19.8535 15.9173 19.993 16.0082L19.9853 16.0129ZM22.3643 16.0129L23.2497 16.4654C22.9357 16.5546 22.2326 16.4419 22.372 16.0082L22.3643 16.0129ZM29.8905 16.1835L30.1126 16.2963L29.9456 16.3527C29.9303 16.2916 29.9165 16.2352 29.8981 16.1788L29.8905 16.1835ZM20.0404 16.2963L20.0956 16.3527L19.875 16.5781C19.8198 16.4169 19.852 16.146 20.0481 16.2916L20.0404 16.2963ZM20.2886 16.8897C20.2809 16.9179 20.2718 16.9461 20.2626 16.9743C20.3912 17.0307 20.526 17.0228 20.5383 16.8616C20.4602 16.8365 20.33 16.7786 20.2963 16.885L20.2886 16.8897ZM15.503 16.9461V17.0307H15.6133V16.8616H15.503V16.9461ZM22.5864 16.9461V17.0307H22.807L22.5864 16.8616V16.9461ZM17.5511 17.0886L17.4944 17.2577C17.6063 17.1685 17.6829 17.0479 17.6063 16.9179L17.5511 17.0886ZM13.7873 17.0886C13.7781 17.3298 13.5453 17.2233 13.4549 17.0886C13.3185 17.5474 12.7625 17.466 12.4591 17.823C12.404 17.5928 12.1374 17.5333 11.9061 17.4832L11.9613 17.7103H11.684C11.7407 17.823 11.7958 17.9357 11.851 18.05C11.3608 18.0923 11.4159 18.4478 11.298 18.7844H11.5186V18.8988C11.252 18.9692 11.1708 18.6905 11.131 18.4462C10.8246 18.4901 10.8476 18.833 10.6883 18.9551C10.8415 19.1117 10.794 19.475 10.7986 19.7459H11.0207L10.9104 19.464C11.0091 19.4477 11.1101 19.4544 11.2059 19.4837C11.3017 19.513 11.3897 19.5641 11.4634 19.6331C11.7836 19.4891 12.1313 19.1227 12.5694 19.1242L12.5143 18.7844C13.0826 18.9849 14.6298 18.0015 14.3954 17.4832C14.3239 17.5753 14.2287 17.6453 14.1205 17.6854C14.0123 17.7254 13.8954 17.7341 13.7827 17.7103C13.9206 17.5537 14.1963 17.3454 14.1703 17.2014H14.0048L14.1703 16.9743H13.7827L13.7873 17.0886ZM19.0999 17.0307L19.155 17.0886L19.0447 16.9743L19.0999 17.0307ZM12.3213 17.1732L12.1267 17.3141C12.3381 17.2593 12.6659 17.2421 12.6813 17.0307C12.5572 17.0197 12.5051 17.0416 12.3289 17.1685L12.3213 17.1732ZM17.8544 17.1168L17.8269 17.2014C17.8527 17.2085 17.8799 17.2095 17.9062 17.2043C17.9325 17.1992 17.9573 17.1879 17.9787 17.1715C18.0001 17.155 18.0176 17.1338 18.0298 17.1094C18.0419 17.085 18.0485 17.0581 18.049 17.0307C17.9816 17.0244 17.8881 17.015 17.8621 17.1121L17.8544 17.1168ZM13.1791 17.145L13.2343 17.2014L13.124 17.0886L13.1791 17.145ZM15.8369 17.3939L15.7818 17.5928L16.0575 17.6492L16.0024 17.4785L16.2245 17.5364C16.2705 17.3579 16.0483 17.275 15.8921 17.1967L15.8369 17.3939ZM28.1763 17.3094C28.1962 17.3658 28.213 17.4221 28.233 17.4785H28.1211C28.1456 17.4174 28.1656 17.3658 28.1824 17.3094H28.1763ZM14.9239 17.4785L14.8964 17.5928L15.117 17.6492C15.1258 17.5897 15.1141 17.5289 15.0839 17.4772C15.0537 17.4255 15.0069 17.3861 14.9515 17.3658L14.9239 17.4785ZM33.9867 17.5364C34.025 17.5913 34.0618 17.6492 34.0985 17.7056H33.9867V17.5364ZM11.3547 17.8747L11.2995 17.931H11.5201L11.4098 17.8183L11.3547 17.8747ZM13.7888 17.8183L14.0109 17.931H13.7337L13.7888 17.8183ZM30.8326 17.8747C30.9214 18.0485 31.1589 18.3601 30.9429 18.4415C30.8663 18.4102 30.8632 18.0516 30.8387 17.8747H30.8326ZM12.1283 17.931L12.2401 18.0454H12.0731L12.1283 17.931ZM31.5526 17.931L31.6077 18.0454H31.4974C31.5204 18.0078 31.5403 17.9686 31.5587 17.931H31.5526ZM32.3828 18.4415H32.4931V18.6701H32.8256C32.8884 18.9097 32.5912 18.9833 32.3828 19.0663V18.4415ZM13.8715 18.5261L13.9558 18.5543L13.7888 18.4979L13.8715 18.5261ZM10.961 18.7797L11.1264 18.9504L10.8507 19.0632L10.961 18.7797ZM11.8464 18.9504H11.9015V19.2965H11.7361V19.4531C11.5262 19.4327 11.2275 19.4186 11.2934 19.1696C11.4849 19.2401 11.7208 18.9833 11.854 18.9504H11.8464ZM12.8973 18.9786L12.9524 19.0068L12.8421 18.9504L12.8973 18.9786ZM10.5182 19.1477L10.5734 19.1759L10.4631 19.1195L10.5182 19.1477ZM10.7664 20.0246L10.7388 20.1373C10.8767 20.1577 11.0023 20.1186 11.0161 19.9682L10.794 19.9119L10.7664 20.0246ZM34.4509 19.94C34.5459 19.9667 34.5367 20.0591 34.5351 20.1373L34.313 20.0246C34.3513 19.9635 34.3728 19.9056 34.4631 19.94H34.4509ZM34.4248 20.4771C34.578 20.5554 34.8017 20.6337 34.7557 20.8169C34.6623 20.7292 34.5504 20.6995 34.4785 20.8169C34.4739 20.7058 34.4539 20.5899 34.4371 20.4771H34.4248ZM36.0011 21.1849L36.0839 21.2131C36.0594 21.3274 35.9537 21.3149 35.8633 21.2695C35.9046 21.2084 35.9261 21.1489 36.0134 21.1849H36.0011ZM35.9169 21.3822C35.9368 21.4386 35.9537 21.495 35.9736 21.5513C35.9659 21.4887 35.9491 21.4386 35.9291 21.3822H35.9169ZM7.30894 21.6656C7.20784 21.7627 6.94283 21.8222 6.97653 22.0602C6.94926 22.0335 6.91637 22.0135 6.88039 22.0017C6.8444 21.99 6.80627 21.9868 6.76889 21.9924C6.73151 21.9979 6.69587 22.0122 6.66469 22.034C6.6335 22.0558 6.60761 22.0846 6.58896 22.1182L6.97653 22.1745C6.95049 21.9898 7.41924 22.054 7.30894 21.7784H7.58469C7.5709 21.6218 7.44528 21.5889 7.30894 21.6077V21.6656ZM6.25654 21.8066L6.2014 21.8911L6.36837 22.0039C6.34846 21.9099 6.33007 21.816 6.31169 21.722L6.25654 21.8066ZM35.9169 21.8347C35.9368 21.8911 35.9552 21.9475 35.9736 22.0039C35.9674 21.9475 35.9491 21.8911 35.9291 21.8347H35.9169ZM7.42384 22.2873C7.29822 22.4016 7.36256 22.5143 7.42384 22.6271C7.49701 22.5789 7.55613 22.5114 7.59495 22.4318C7.63377 22.3521 7.65086 22.2633 7.64443 22.1745C7.56477 22.1683 7.5326 22.1855 7.4315 22.2873H7.42384ZM36.1436 22.1745H36.2539C36.2371 22.2121 36.2171 22.2497 36.2003 22.2873C36.188 22.2497 36.1712 22.2121 36.1513 22.1745H36.1436ZM6.32394 22.768L6.21365 22.9089L6.60121 23.0796C6.52002 22.9434 6.61194 22.8009 6.71151 22.6834C6.56905 22.649 6.43424 22.613 6.32394 22.768ZM40.413 22.6834L40.5233 22.8526H40.413V22.6834ZM37.8088 23.1923H37.9191L37.8639 23.4758L37.8088 23.1923ZM39.1369 24.3229H39.2472V24.4936L39.1369 24.3229ZM38.639 25.289H38.8152L38.7601 25.4597L38.639 25.289ZM39.4142 25.6006L39.4678 25.6288C39.4142 25.6868 39.3575 25.7431 39.3024 25.7995C39.2426 25.6852 39.2748 25.5302 39.4172 25.5959L39.4142 25.6006ZM39.0818 25.6288C39.1001 25.6664 39.117 25.7056 39.1369 25.7416L39.0266 25.7995L39.0818 25.6288ZM39.8002 26.1377C39.8186 26.1753 39.8385 26.2145 39.8554 26.252C39.8416 26.2098 39.8217 26.1706 39.8033 26.133L39.8002 26.1377ZM41.2387 26.5903L41.3505 26.6466C41.3321 26.6858 41.3122 26.7234 41.2953 26.7609C41.2785 26.6999 41.2662 26.6435 41.2417 26.5856L41.2387 26.5903ZM41.9586 27.4953H42.0705C42.0506 27.5329 42.0337 27.5705 42.0138 27.6097C42 27.5658 41.9801 27.5282 41.9617 27.4906L41.9586 27.4953ZM1.13086 28.5664V28.6791H1.46328L1.13086 28.4521V28.5664ZM3.20503 28.5664L3.2326 28.6228L3.17745 28.51L3.20503 28.5664ZM0.991454 28.8796L0.963881 29.0221C1.12933 29.0659 1.16762 28.889 1.186 28.7386C1.08183 28.7292 1.00677 28.7308 0.977668 28.8764L0.991454 28.8796ZM1.07571 29.2475L1.13086 29.3039L1.02056 29.1912L1.07571 29.2475ZM1.546 29.4182C1.48741 29.4634 1.41841 29.4923 1.34567 29.5022C1.27294 29.5121 1.19894 29.5026 1.13086 29.4746V29.8128C1.16915 29.6437 1.49544 29.7502 1.68386 29.7564L1.73901 29.3039L1.546 29.4182ZM2.31194 30.0117C1.88148 30.1025 2.03007 30.3358 2.28437 30.436C2.29117 30.3764 2.30951 30.3188 2.33831 30.2665C2.36712 30.2142 2.40582 30.1683 2.45215 30.1314C2.49848 30.0945 2.55153 30.0675 2.60819 30.0517C2.66486 30.036 2.72402 30.032 2.78223 30.0399C2.65355 29.9334 2.58461 29.9443 2.31194 30.0086V30.0117ZM1.0129 30.0399L0.901074 30.0962L1.0129 30.3233L0.680482 30.4924C1.06498 31.0483 1.34073 29.9866 1.84165 30.209C1.7911 29.9835 1.55825 29.9647 1.34379 29.9835V30.1009C1.23962 30.0367 1.13086 29.9694 1.0129 30.0367V30.0399ZM4.00008 30.209L3.88978 30.436C4.10578 30.5222 4.04297 30.1088 4.2222 30.1526V29.9835C4.1165 29.9694 4.09965 30.0179 4.00008 30.2059V30.209ZM3.64008 30.1808L3.72434 30.2654V30.1009H3.55736L3.64008 30.1808ZM1.45562 30.7461C1.31468 31.0264 1.16149 31.1438 1.17834 31.5102L0.845928 31.3975V31.7373C0.983798 31.7561 1.10941 31.7169 1.1232 31.5666L1.34379 31.7373C1.39894 31.4836 1.40047 31.0405 1.67621 31.1109C1.64863 30.8839 1.77884 30.2575 1.45562 30.7429V30.7461ZM3.77949 30.7179L3.66766 30.8322L4.00008 30.8886L3.88825 30.602L3.77949 30.7179ZM0.458357 31.114C0.254616 31.8516 0.835205 31.8672 0.845928 31.114C0.723377 31.0921 0.527292 31.0405 0.458357 31.1109V31.114ZM3.44707 31.1422L3.50222 31.1704L3.39192 31.114L3.44707 31.1422ZM2.22922 31.5666L2.17407 31.6793L2.39619 31.5666L2.28437 31.4538L2.22922 31.5666ZM4.00008 31.6793L3.94493 31.7936H4.11037L4.05522 31.5666L4.00008 31.6793ZM3.14222 31.7655L3.0595 31.9064C3.26477 31.8531 3.34749 32.063 3.39192 32.2462C3.91123 32.2117 3.88365 31.587 3.39192 31.9064C3.40337 31.8896 3.41125 31.8705 3.41507 31.8504C3.41889 31.8302 3.41855 31.8095 3.41409 31.7895C3.40962 31.7696 3.40113 31.7508 3.38914 31.7343C3.37716 31.7179 3.36195 31.7042 3.34449 31.6941C3.32703 31.6841 3.3077 31.6778 3.28775 31.6758C3.26779 31.6738 3.24765 31.6761 3.22861 31.6825C3.20957 31.689 3.19205 31.6994 3.17718 31.7131C3.1623 31.7268 3.15039 31.7436 3.14222 31.7623V31.7655ZM1.17834 31.8782L1.23349 31.9064L1.1232 31.85L1.17834 31.8782ZM3.64008 32.3307L3.61251 32.4153H3.72434L3.66766 32.2462L3.64008 32.3307ZM0.845928 32.4435L0.901074 32.528L0.956219 32.4153L0.790778 32.3589L0.845928 32.4435ZM2.92163 32.6063L2.89406 32.6909L3.22494 32.6345L2.9492 32.5202L2.92163 32.6063ZM3.33677 32.7473L3.28162 32.86L3.50222 32.9164L3.55736 32.6345C3.46392 32.6329 3.38732 32.6345 3.33677 32.7519V32.7473ZM3.72434 32.8036C3.70595 32.8412 3.68757 32.8788 3.66766 32.9164L3.88978 33.0291L3.77949 32.6909L3.72434 32.8036ZM42.5714 32.6909C42.5882 32.7472 42.6082 32.8036 42.6265 32.86C42.6082 32.8083 42.5882 32.7519 42.5714 32.6956V32.6909ZM1.23349 33.087L1.39894 33.1434L1.23349 33.1998V33.087ZM0.901074 33.1998H0.956219L0.901074 33.596L0.518103 33.5458C0.505847 33.3485 0.746353 33.2061 0.901074 33.2045V33.1998ZM3.12231 33.3736C3.04878 33.585 3.3429 33.6445 3.50987 33.7134L3.62017 33.2045C3.42868 33.2045 3.17133 33.1716 3.12231 33.3736ZM1.37136 33.5458H1.45562C1.45492 33.5731 1.44818 33.5998 1.4359 33.624C1.42362 33.6482 1.40613 33.6693 1.38474 33.6856C1.36335 33.7018 1.33863 33.7129 1.31243 33.718C1.28623 33.7231 1.25924 33.7221 1.23349 33.715C1.25647 33.6382 1.28405 33.5458 1.37136 33.5458ZM3.8622 33.6868L3.83463 33.7713L4.00008 33.8277L4.05522 33.6586L3.88978 33.6022L3.8622 33.6868ZM0.790778 33.6586L0.845928 33.7713H0.735632L0.790778 33.6586ZM2.20164 33.715L2.17407 33.7713H2.28437L2.22922 33.6586L2.20164 33.715ZM42.4596 33.6586L42.5714 33.715C42.5515 33.7525 42.5346 33.7901 42.5147 33.8277L42.4044 33.7713C42.4243 33.7322 42.4412 33.7024 42.4596 33.657V33.6586ZM2.78376 33.8841C2.78376 33.9624 2.96759 33.9749 3.06103 33.9984V33.8277H2.78376V33.8841ZM3.58647 33.9404C3.57268 34.0579 3.39651 34.1706 3.50374 34.3366H3.39345C3.61404 34.7124 2.83891 34.6717 2.95074 34.3366H2.84044L3.06103 35.0162C3.25405 34.5104 4.18543 34.8064 3.39345 34.9598L3.4486 35.1853C4.0782 35.1039 4.09658 34.7015 3.50374 34.5073L3.94646 34.393C3.86987 34.1706 3.79327 33.8856 3.55889 33.8841L3.58647 33.9404ZM40.5799 35.0162L40.6351 35.0726L40.5248 34.9598L40.5799 35.0162ZM3.88825 35.2401L3.94339 35.2965L3.8331 35.1837L3.88825 35.2401ZM2.78069 35.7208C2.66734 36.2015 2.96759 36.7512 2.72555 37.1646H2.94767V38.126H3.12231L3.06716 38.3515C3.89591 37.9569 3.89131 38.0712 3.34443 38.7476C3.50681 38.7649 3.66919 38.7367 3.732 38.5785C3.732 39.0279 4.05369 38.9606 4.22986 38.6349C4.09812 38.5817 3.86067 38.5488 3.89744 38.4078C4.06135 38.4454 4.20382 38.2591 4.34016 38.126L4.00774 38.1824C4.08127 38.0493 4.16093 37.9177 4.22986 37.7862L4.00774 37.6735C3.97097 37.83 3.64621 37.8097 3.45473 37.8426C3.45473 37.6061 3.7611 37.4558 3.62017 37.1646C4.25437 37.5717 4.17165 37.0189 4.11803 36.485C3.48843 36.3519 3.65847 37.5623 3.01201 36.8811C3.56502 36.9171 3.47158 35.8727 4.00774 36.3722C4.09658 36.0356 3.58953 35.9667 3.28928 35.8633V36.1452H3.17745V35.9761H3.06716C3.08862 35.936 3.09969 35.891 3.09932 35.8453C3.09895 35.7996 3.08715 35.7548 3.06504 35.715C3.04293 35.6753 3.01124 35.6421 2.973 35.6184C2.93476 35.5948 2.89124 35.5815 2.84657 35.5799L2.78069 35.7208ZM3.63855 35.6363L3.66612 35.6926L3.77795 35.6363L3.61251 35.5815L3.63855 35.6363ZM42.0735 35.5815H42.1854V35.7506H42.0751L42.0735 35.5815ZM42.0169 36.034L42.1838 36.1467H42.0169V36.034ZM3.22494 36.4302C3.24333 36.5053 3.26324 36.5867 3.28162 36.6556C3.16826 36.629 3.18205 36.521 3.22494 36.4286V36.4302ZM2.50955 36.6541C2.56164 36.7715 2.6367 36.7731 2.73014 36.7684L2.45441 36.5413L2.50955 36.6541ZM3.75498 37.4182L3.7274 37.5028C3.9434 37.6187 3.98629 37.4167 3.78255 37.3337L3.75498 37.4182ZM40.2537 38.2951H40.3639V38.4642H40.2537V38.2951ZM41.5266 38.4078C41.5466 38.4642 41.5634 38.5206 41.5818 38.5785C41.5558 38.5206 41.5389 38.4642 41.519 38.4078H41.5266ZM4.19463 39.0874L4.16705 39.1438C4.25897 39.1892 4.36313 39.2017 4.38764 39.0874C4.32331 39.0671 4.2268 39.0154 4.19463 39.0874ZM4.38764 39.4836L4.44279 39.54L4.33249 39.4257L4.38764 39.4836ZM2.56164 39.7654V39.9361C2.6348 39.9349 2.70465 39.9047 2.75639 39.8518C2.80813 39.7989 2.83772 39.7275 2.83891 39.6527L2.56164 39.5963V39.7654ZM4.38152 39.9659C4.39631 39.9903 4.41895 40.0086 4.44554 40.0179C4.47213 40.0271 4.50103 40.0265 4.52729 40.0164C4.55354 40.0062 4.57551 39.987 4.58944 39.9621C4.60337 39.9371 4.60839 39.9081 4.60364 39.8798H4.33249L4.38152 39.9659ZM40.462 40.3323L40.6274 40.3902C40.6029 40.4936 40.5064 40.5155 40.4068 40.503C40.4298 40.445 40.4497 40.3887 40.4681 40.3307L40.462 40.3323ZM2.39007 40.6157H2.44521L2.39007 40.8428C2.27211 40.8287 2.2859 40.6251 2.39619 40.6142L2.39007 40.6157ZM3.49609 40.7848L3.71821 40.8991C3.69217 41.0025 3.59566 41.0244 3.49609 41.0119V40.7848ZM3.30307 42.0297C3.28775 42.2239 3.64008 42.4259 3.77336 42.2004C3.70442 42.0281 3.43941 41.8809 3.3092 42.0281L3.30307 42.0297ZM1.28251 42.0297H1.33766L1.28404 42.3147L1.1186 42.2019C1.16609 42.133 1.22124 42.0266 1.28404 42.0281L1.28251 42.0297ZM5.11376 42.3147C5.11376 42.3883 5.25622 42.4055 5.33435 42.4274L5.11376 42.2552V42.3147ZM1.73442 42.8236L1.84472 43.2198H1.67927L1.73442 42.8236ZM3.11312 42.9363L3.16826 43.1634H3.05797L3.11312 42.9363ZM5.71732 43.2198V43.2761L5.49673 43.2198C5.45996 43.3607 5.69587 43.3936 5.82761 43.4452L5.71732 43.1634V43.2198ZM5.11376 43.3857L5.1689 43.4985L5.00193 43.5564L5.11376 43.3857ZM3.53592 43.7819L3.50834 43.8383L3.61864 43.8946L3.67379 43.7819L3.56349 43.7255L3.53592 43.7819ZM6.35765 43.8946L6.38675 43.951C6.36684 43.9134 6.34846 43.8758 6.33007 43.8383L6.35765 43.8946ZM4.41522 44.0371L4.44279 44.1217L4.60977 44.0653L4.38764 43.951L4.41522 44.0371ZM4.94065 44.2626L4.9958 44.2908L4.88551 44.2344L4.94065 44.2626ZM6.38062 44.687L6.54607 44.7433C6.5426 44.7619 6.53554 44.7796 6.5253 44.7954C6.51507 44.8111 6.50187 44.8247 6.48647 44.8352C6.47107 44.8457 6.45378 44.8529 6.43561 44.8565C6.41743 44.8601 6.39874 44.8599 6.38062 44.8561V44.687ZM5.05248 45.365L5.10763 45.4229L4.9958 45.3086L5.05248 45.365ZM5.68821 45.592L5.60549 45.8755C5.86438 45.8755 6.00225 45.4057 5.77094 45.3086L5.68821 45.592ZM36.1513 45.8175C36.2646 45.8426 36.2508 45.9506 36.2079 46.0446C36.188 45.9694 36.1712 45.8942 36.1513 45.8175ZM36.0961 46.1291L36.1513 46.1573L35.9291 46.3859C35.9031 46.3605 35.8867 46.3266 35.8827 46.29C35.8787 46.2535 35.8874 46.2166 35.9074 46.186C35.9273 46.1554 35.9571 46.1329 35.9916 46.1225C36.0261 46.1121 36.0631 46.1144 36.0961 46.1291ZM6.73908 46.2701L6.76666 46.328L6.71151 46.2137L6.73908 46.2701ZM36.3167 46.328H36.3734C36.3535 46.4032 36.3366 46.4846 36.3167 46.5535C36.1942 46.5425 36.211 46.339 36.3167 46.328ZM6.76666 46.4971L6.71151 46.6098L6.87849 46.5535L6.82334 46.3844C6.79883 46.4219 6.78504 46.4595 6.76666 46.4971ZM8.06723 46.5253L7.98451 46.6662L8.42722 46.7805C8.33071 46.5832 8.24646 46.1761 8.06723 46.5253ZM7.65209 46.8651C7.37788 47.0608 7.72715 47.4351 7.81906 47.742V47.4022C8.14689 47.4116 7.95847 46.6709 7.65209 46.8651ZM37.1746 47.1188C37.185 47.1369 37.1942 47.1557 37.2021 47.1751C37.1853 47.1375 37.1654 47.1 37.147 47.0624C37.1577 47.0812 37.1654 47.1 37.1746 47.1188ZM6.26726 47.2612L6.32242 47.2894L6.21212 47.2331L6.26726 47.2612ZM36.0394 47.6856H36.211V47.7952L36.0394 47.6856ZM36.1773 47.9988L36.3152 48.027L35.9843 48.1413C36.0119 48.041 36.0364 47.9596 36.1788 47.9956L36.1773 47.9988ZM9.72779 48.1084L9.70022 48.1945L9.92081 48.2509C9.92809 48.2245 9.92935 48.1969 9.9245 48.1699C9.91965 48.143 9.90881 48.1176 9.89282 48.0957C9.87683 48.0737 9.85611 48.0558 9.83228 48.0434C9.80845 48.0309 9.78213 48.0242 9.75536 48.0238L9.72779 48.1084ZM7.42997 48.1945C7.44222 48.3902 7.50043 48.5891 7.70724 48.5907C7.52801 49.0604 7.04853 48.4576 7.4315 48.1945H7.42997ZM36.067 48.4764L36.0946 48.5327L36.0394 48.42L36.067 48.4764ZM35.9016 48.5907C35.8908 48.6095 35.8832 48.6282 35.874 48.647H35.9843C35.9644 48.6079 35.9475 48.5703 35.9276 48.5327C35.9215 48.5515 35.9123 48.5781 35.9046 48.5907H35.9016ZM8.01055 48.5907H8.09327L8.03812 48.8725C7.87115 48.8803 7.84664 48.6063 8.01208 48.5907H8.01055ZM35.8189 48.7316L35.874 48.7598L35.7622 48.7034L35.8189 48.7316ZM8.14995 48.8162L8.31539 49.0432H8.14995V48.8162ZM8.9787 48.8725L9.14568 49.0432L8.81326 49.1559L8.9787 48.8725ZM33.1626 49.2123H33.3831C33.4092 49.4221 33.2177 49.3689 33.1641 49.2123H33.1626ZM32.8853 49.3251H32.9941L32.9389 49.4378L32.8853 49.3251ZM9.11963 49.7212L8.98023 49.8903C9.12423 49.989 9.59298 49.8308 9.53477 49.6085C9.51298 49.6235 9.4885 49.6339 9.46273 49.6392C9.43697 49.6445 9.41043 49.6445 9.38466 49.6393C9.35888 49.6341 9.33438 49.6237 9.31255 49.6087C9.29073 49.5937 9.27202 49.5745 9.2575 49.5521L9.11963 49.7212ZM11.3884 49.6648L11.4159 49.7776C11.0958 49.4096 10.2946 49.823 10.8629 50.1738C10.9579 49.9044 12.3121 50.0297 11.3608 49.5474L11.3884 49.6648ZM32.7719 49.9483C32.8274 49.9681 32.8743 50.0071 32.9045 50.0586C32.9348 50.1101 32.9464 50.1708 32.9374 50.2301L32.6616 50.1174C32.7015 50.061 32.7398 50.0046 32.7765 49.9483H32.7719ZM9.5026 50.1738L9.53018 50.2301L9.4735 50.1174L9.5026 50.1738ZM11.4389 50.3711L11.4665 50.5135C11.5844 50.4619 11.7729 50.418 11.7438 50.2865C11.6181 50.3319 11.4833 50.3476 11.4113 50.2301L11.4389 50.3711ZM9.86106 50.3711L9.91621 50.4572C9.9346 50.4196 9.95451 50.382 9.97289 50.3429L9.80592 50.2865L9.86106 50.3711ZM31.8298 50.2865C31.8497 50.3241 31.8666 50.3632 31.8865 50.3992C31.8712 50.3632 31.8543 50.3241 31.8344 50.2865H31.8298ZM32.3844 50.2865L32.4947 50.3992L32.2741 50.5135L32.3844 50.2865ZM11.8571 50.7108L11.802 50.9097L11.635 50.8518L11.802 50.6827L11.4695 50.7954C11.5783 51.0522 11.9138 51.0287 12.1895 51.0224V51.2479H12.355C12.2615 51.0037 12.381 50.8283 12.6322 50.7954V50.9661H12.7425C12.7977 50.3664 11.995 50.8972 11.9123 50.5135L11.8571 50.7108ZM10.3344 50.739L10.362 50.7954L10.4738 50.739L10.3068 50.6827L10.3344 50.739ZM12.8804 50.7672L12.908 50.8518L12.9631 50.6827H12.8528L12.8804 50.7672ZM30.4481 50.7954C30.638 50.7954 30.6978 50.952 30.6702 51.1352C30.5997 51.0225 30.5247 50.9097 30.4511 50.7954H30.4481ZM32.0535 50.8518L32.1086 50.9661H31.9983L32.0535 50.8518ZM13.0734 51.0506L13.1286 51.1352H12.6859C12.718 51.2573 12.5694 51.2808 12.4637 51.3043L12.5189 51.5314L12.6859 51.475C12.839 52.2579 12.787 51.284 13.0734 51.4186C13.0535 51.4938 13.0351 51.5752 13.0167 51.6441L13.1837 51.5314C13.2542 51.7788 13.5407 52.0669 13.7367 51.8148L13.3492 51.5877L14.0692 51.6441C14.0263 51.2276 13.3645 51.0052 13.0167 50.9661L13.0734 51.0506ZM10.8323 51.1352C10.8216 51.1728 10.8124 51.2104 10.8032 51.2479L10.9702 51.1352L10.8599 51.0224L10.8323 51.1352ZM31.6659 51.475H31.8314C31.8099 51.5705 31.7685 51.6707 31.6659 51.6441V51.475ZM14.2346 51.6159L14.2897 51.6441L14.1794 51.5877L14.2346 51.6159ZM29.6745 52.0403L29.8399 52.0966L29.7296 52.153C29.7128 52.1154 29.6959 52.0778 29.6775 52.0403H29.6745ZM29.2317 52.2673H29.342V52.4928H29.2317V52.2673ZM29.6193 52.2673C29.7633 52.2313 29.8445 52.3581 29.8951 52.4928C29.7557 52.5288 29.6714 52.402 29.6239 52.2673H29.6193ZM15.12 52.4646V52.5492L15.5076 52.4928L15.12 52.3801V52.4646ZM29.5075 52.7778C29.5259 52.8154 29.5458 52.8529 29.5626 52.8905C29.5488 52.8514 29.5289 52.8138 29.5106 52.7762L29.5075 52.7778ZM16.0055 52.8342L16.0606 53.2867C15.9166 53.2507 15.8553 53.3744 15.84 53.5122C15.6547 53.5122 15.5566 53.3556 15.5076 53.1739C15.7542 53.2914 15.9059 53.0596 16.0085 52.8326L16.0055 52.8342ZM11.5232 53.3994H11.7453V53.5122H11.5232V53.3994ZM18.6066 53.4558L18.6617 53.5122L18.5514 53.3994L18.6066 53.4558ZM17.8866 53.711L17.9984 53.7392C17.9862 53.9365 17.7702 53.8864 17.6109 53.852C17.689 53.7705 17.7717 53.6719 17.8897 53.7095L17.8866 53.711ZM23.3095 54.1354C23.3294 54.173 23.3462 54.2106 23.3662 54.2481C23.3432 54.2152 23.3325 54.1714 23.3125 54.1338L23.3095 54.1354ZM25.1079 55.2941L25.137 55.3787L25.3025 55.3223L25.0803 55.2096C25.0936 55.2367 25.1038 55.2644 25.111 55.2926L25.1079 55.2941Z" fill="#F8F963"/>
    <path d="M38.004 0.0563688C38.004 0.0751592 38.0209 0.0939473 38.0301 0.112738C38.0117 0.0751569 37.9933 0.0375807 37.9764 0C37.9844 0.0194001 37.9936 0.0382306 38.004 0.0563688ZM38.4728 0.0845532L38.5295 0.112738L38.4176 0.0563688L38.4728 0.0845532ZM37.5536 0.227043C37.4648 0.280282 37.4679 0.366405 37.4709 0.452527H37.7482V0.67958L37.4158 0.621644L37.6379 0.735949C37.4127 0.914457 37.5644 1.34037 37.2503 1.41397C37.2672 1.32002 37.2871 1.22607 37.3055 1.13212H37.0849C37.1354 1.50323 36.6253 1.66451 36.6958 2.09356C36.0018 2.25015 35.6985 3.38696 35.3171 4.101C35.1869 4.69916 35.1639 4.56293 34.7641 4.58172C34.5098 5.15952 34.1513 5.90643 33.6581 6.33548C33.9506 6.88353 32.552 7.58817 32.9932 8.14562C32.3912 8.38206 32.8278 9.00215 33.3256 8.7109C32.9427 9.25113 32.6485 8.59346 32.7129 9.61597L32.2717 9.05069C32.0006 9.58465 32.7037 10.1108 32.382 10.3519C32.0634 9.55177 31.0508 10.8781 32.1047 10.6338L32.215 10.9172C31.9852 10.8937 31.7279 10.8702 31.6023 10.6917C31.5915 10.8608 31.4215 10.8749 31.2699 10.8608C31.3556 11.1944 30.9635 11.3917 31.1044 11.7095H30.9374C31.0186 11.9992 30.7842 12.1198 30.772 12.3359C30.939 12.267 31.1488 12.1949 31.2147 12.3922C31.0539 12.4063 31.0125 12.5755 30.9941 12.732C30.961 12.6373 30.9014 12.5546 30.8227 12.4942C30.744 12.4338 30.6496 12.3983 30.5514 12.3922C30.6203 12.5629 30.6893 12.7774 30.4963 12.8448C30.7705 12.9841 30.0137 13.5839 30.0796 13.7217C31.1105 13.9252 30.3308 14.182 30.386 14.7677L29.7226 14.6549L29.8329 15.3345L30.0535 15.1638L29.9432 15.1075L30.0535 14.9383C30.4181 15.1873 29.5342 15.9655 29.3351 15.6164C29.3146 15.749 29.2638 15.8748 29.1869 15.9836C29.11 16.0924 29.0091 16.1812 28.8924 16.2427C28.9996 16.5762 28.6166 16.7125 28.7269 16.9771L28.9475 16.8643V17.0914H29.1145V16.8643C29.2677 16.8236 29.3672 17.0022 29.4454 17.1478C29.7089 16.9599 29.9907 16.7626 30.2757 16.7516C29.9668 17.1743 29.5703 17.5219 29.1145 17.7694C29.3075 18.1891 29.4913 17.6943 29.7272 17.7131C29.7272 17.9605 29.2937 18.1609 29.0624 18.1092C29.2861 18.4224 28.6917 18.604 28.6748 18.9579C28.465 18.7371 28.3164 19.1145 28.2873 19.2961C28.309 19.2809 28.3335 19.2703 28.3593 19.2649C28.3851 19.2595 28.4117 19.2594 28.4375 19.2647C28.4634 19.2699 28.4879 19.2804 28.5097 19.2955C28.5315 19.3106 28.5502 19.33 28.5645 19.3525C28.4818 19.0033 28.9276 19.0393 29.0073 18.7262C29.4668 18.9657 28.7928 19.4527 28.5645 19.5749C28.6733 19.9053 28.2107 20.1276 28.344 20.4236C28.0774 20.2858 27.9748 19.9444 28.344 19.9147C28.2643 18.8984 27.1184 19.5796 27.7312 20.0274C27.385 20.184 26.9867 20.7931 27.2333 21.158C26.927 21.3787 26.7615 22.431 26.57 22.799C27.3881 22.7363 27.0847 22.3136 27.5658 21.9503L27.6209 22.799L27.3452 22.6862C27.192 23.0104 27.8691 23.3533 27.6209 23.7041C27.5734 23.4942 27.4003 23.488 27.2333 23.5913C27.4953 23.2781 27.0587 22.929 26.7922 23.1951C26.809 23.12 26.8289 23.0386 26.8458 22.9681C26.4827 22.9289 26.4184 23.2625 26.4597 23.5944C26.9101 23.2938 26.9944 23.1247 26.9009 23.8763C26.6941 23.7197 26.3694 23.8653 26.2376 23.5381C26.2269 23.7291 26.1687 23.9311 25.9603 23.8763V24.1503H26.1273V24.2631H25.9603C25.9205 24.4196 26.0967 24.523 26.2376 24.6029C26.0078 24.6185 25.9588 25.0898 25.6846 24.999C25.685 25.0264 25.6916 25.0533 25.7037 25.0776C25.7159 25.102 25.7334 25.1232 25.7549 25.1395C25.7764 25.1559 25.8012 25.1669 25.8276 25.1719C25.8539 25.1769 25.881 25.1756 25.9067 25.1681C25.8485 25.2433 25.7964 25.3247 25.7398 25.3952C25.8822 25.4108 25.942 25.5361 25.9603 25.677C26.1932 25.4797 26.3111 25.8007 26.5731 25.7913C26.2974 26.1546 26.3709 26.5226 26.7952 26.6964C26.4521 26.6479 26.0492 26.853 25.6877 27.0346C25.6678 26.9595 25.6509 26.8781 25.631 26.8092C25.7765 26.853 25.9527 26.8781 25.9634 26.6964L26.1304 26.7528C26.3219 26.4772 25.6708 26.2611 25.7428 26.0168C25.5146 26.0763 25.4701 25.7757 25.245 25.9041C25.2112 26.1155 25.7214 26.117 25.7428 26.2721C25.6126 26.4052 25.6984 26.8342 25.4655 26.8655C25.8026 27.2868 24.8329 27.1411 25.078 27.6579C25.2067 27.5639 25.3507 27.5498 25.4104 27.7142C25.2281 27.8066 24.7976 27.8708 24.7976 27.6015C24.5311 27.625 24.5479 28.5833 24.4652 28.9591L24.741 28.8448C24.8176 28.9591 24.7502 29.7185 24.5755 29.7499C24.7071 29.9293 24.7663 30.1535 24.741 30.3762H24.6322C24.6674 30.4326 24.7057 30.4889 24.741 30.5453C24.5602 30.6252 24.3411 30.7489 24.188 30.6581C24.6092 30.6064 24.4177 30.4701 24.2446 30.2916C24.358 30.1022 24.5311 29.8783 24.4652 29.5839C24.2462 29.5839 24.0731 29.6903 24.0777 29.9237C23.6181 29.7044 24.0777 30.9352 23.7468 31.0542C24.0669 30.9665 24.0531 31.3971 24.0777 31.6806C23.7805 31.6148 23.9827 31.1998 23.6349 31.1717C23.6089 31.3799 23.543 31.6414 23.3025 31.5114C23.5216 31.8763 22.918 32.0908 22.9716 32.5293C23.278 32.7187 23.3546 32.1441 23.6349 32.3038V32.191H23.8019C23.7822 32.2832 23.7871 32.3792 23.8162 32.4687C23.8453 32.5583 23.8975 32.6382 23.9674 32.6999C23.615 32.8377 23.6074 33.5299 23.3546 32.7563C22.8598 33.0695 23.5997 33.3952 23.3546 33.7741C23.0743 33.6175 22.8491 33.7632 22.7419 34.0575C22.149 33.5706 22.388 35.1537 22.6316 35.3008L22.1888 35.0754L22.0785 35.4151C22.2517 35.4574 22.4585 35.4872 22.5213 35.3008C22.7281 35.5529 22.8276 35.6453 22.4094 35.8677C22.3451 35.1724 21.524 35.9883 21.9116 36.3766C21.2391 36.4486 22.8491 37.1345 21.5516 37.0828C21.5179 37.6246 21.3095 38.1131 21.1931 38.6674C21.2804 38.9806 21.6711 39.5976 21.1931 39.7134C21.213 39.4003 21.3586 38.9978 20.971 38.9775C20.973 39.2872 20.9169 39.5945 20.8056 39.8826L21.0828 39.7698V40.0532H20.8607C20.8607 40.2521 20.827 40.523 20.971 40.6185L20.8056 40.6749V40.5058C20.0396 40.4322 20.3536 40.9411 20.2525 41.3545L20.5834 41.1838C20.516 42.0544 19.3242 42.7638 19.3671 43.8458C18.8432 43.7017 18.1416 43.3556 18.039 42.7152C17.3389 42.9798 17.2439 41.1259 16.5438 41.2433C16.1946 41.3498 16.5438 40.2036 15.8805 40.6169C15.974 39.9906 15.8315 39.6884 15.6033 39.1466C15.516 39.2938 15.2816 39.2265 15.1054 39.203V39.3721L14.94 39.203C14.9231 39.3486 14.8006 39.4112 14.6627 39.4285C14.6964 39.1497 14.9446 39.1779 15.0503 38.9759C15.7411 39.3877 15.4409 38.3668 14.8848 38.6377C14.9599 38.3042 14.5493 37.825 14.3854 38.2415L14.1097 38.1288C14.4972 37.7827 13.7482 37.5463 13.9442 37.053H14.2751C14.1296 36.7634 13.6915 36.5426 13.7773 36.0916C12.8918 36.6303 12.5778 35.5013 12.2837 34.8389C12.6529 34.9391 12.9562 34.5946 12.6161 34.33C12.3005 34.8514 12.1044 33.7209 12.4491 33.7037C12.0998 33.6363 12.0064 33.2715 11.674 33.2511C11.7587 33.1873 11.8244 33.1006 11.8636 33.0007C11.9028 32.9009 11.9141 32.7919 11.8961 32.6858H11.674C11.8272 32.4885 11.3599 31.9389 11.1761 32.1769C11.2129 31.7933 11.1562 31.5114 10.7334 31.6665V31.5099L10.4025 31.5663L10.5128 31.9061C9.81888 31.1951 8.71132 32.2349 8.57498 32.9239L8.79711 32.8111C8.84613 32.9677 8.912 33.1368 9.07438 33.0945V32.8675C9.37003 33.0241 9.06672 33.8618 8.68681 33.6034C8.76034 33.8822 8.90128 34.1327 9.18467 34.1687C9.10655 34.3128 9.01311 34.4929 8.85226 34.4521V34.6776C9.23676 34.5539 9.86636 34.4553 9.90313 34.0513H9.753C9.93836 33.9824 9.92611 33.7381 9.91845 33.5424C10.1911 33.5831 10.692 34.7168 9.97513 34.4474C9.95674 34.579 9.93683 34.7105 9.91845 34.842C9.85303 34.7793 9.77226 34.7357 9.68465 34.7158C9.59704 34.696 9.50583 34.7006 9.42059 34.7293C9.49718 34.9454 9.63505 35.1223 9.8633 35.0691L9.80815 35.5216H9.97513V35.2382C10.1436 35.7549 10.6047 36.5113 10.0854 36.9356C10.2555 36.9168 10.2892 37.3255 10.5281 37.1626L10.6936 37.9456C10.7717 37.8156 10.9387 37.8532 11.0811 37.8892L10.9709 38.1163C11.2497 38.218 11.4994 39.073 11.9114 39.0213C11.5453 39.4034 12.3787 39.4018 12.3541 39.8403C12.4767 40.2458 12.6375 40.4932 13.0174 40.548C13.9013 42.8279 16.4351 44.6522 18.5521 45.9221L18.497 46.3183C18.906 46.1351 19.2109 46.6847 19.603 46.6001C19.3288 47.1497 19.7654 47.0824 19.9354 46.6565C20.2801 47.1951 20.7688 46.2682 21.2636 46.6565C21.2758 46.4592 21.4903 46.5093 21.6512 46.5437V46.2134H21.4842C21.4152 46.0677 21.9958 45.7436 21.9269 45.587L21.7063 45.6434C21.6312 45.4022 22.2808 45.1204 22.0939 44.851L22.7572 44.7383C22.7281 44.3327 22.8659 44.007 22.5366 43.6077H22.8123L22.7572 43.3243L23.0344 43.4371C23.0513 43.0847 23.4082 42.7872 22.9241 42.532L23.3669 42.5884C23.4557 42.1593 24.0899 40.7986 24.3626 40.6091C24.237 39.9702 25.3951 39.596 24.9156 38.9117C25.4625 38.8882 25.5161 38.3386 25.4686 37.8375L25.801 37.8939V37.5541L25.5804 37.6121C25.6831 37.2128 26.0523 37.2801 26.4107 37.3286C26.5379 36.339 26.7355 35.2147 27.3513 34.4443C27.5045 34.7136 27.1583 34.7872 27.1843 35.0096C27.5321 34.972 27.7021 34.1781 28.0697 34.1609L27.9043 33.5956L28.1249 33.7647C28.1249 33.4938 28.0269 32.9207 28.5125 32.9724C28.0391 31.6712 29.6629 32.393 28.7346 31.1623H28.5125V30.9931C28.7009 31.2108 28.8985 30.7818 29.1252 30.9368V30.7097C30.2619 31.0871 29.1252 29.5009 29.954 29.8047C29.8467 29.2832 30.5116 29.2253 29.6231 29.1783L29.7334 28.8949C29.5434 28.8839 29.5358 28.6287 29.5113 28.4424C29.6039 28.4762 29.6848 28.5372 29.7439 28.6176C29.803 28.6981 29.8377 28.7945 29.8437 28.8949C30.1807 28.7837 30.4763 28.4815 30.1209 28.2169C30.6203 27.8614 30.6724 27.2476 31.227 26.972C31.0385 26.8765 30.6418 26.7966 30.674 26.6322C30.8118 26.6526 30.9374 26.6134 30.9497 26.4631C31.014 26.6463 31.1902 26.6009 31.3373 26.5195C31.2745 26.3441 31.0738 26.3394 30.8961 26.3504C31.2392 26.3253 31.2285 25.9746 31.1718 25.6708C31.2744 25.8556 31.5594 25.688 31.5042 25.5017H31.3939C31.5211 25.3012 31.4491 25.0961 31.2821 24.9364L31.7248 25.1055C31.5716 24.9943 31.5441 24.7923 31.5594 24.5966H31.8351C31.6115 24.31 31.7968 23.4081 32.0021 24.0313C32.4954 23.8293 32.7175 23.3564 31.9469 23.5224L32.1124 23.3517C31.9975 23.2781 32.0128 23.1403 32.0572 23.0135L32.2794 23.1262C32.2993 22.8444 32.768 22.5547 32.7205 22.2775C32.552 22.5015 32.3958 22.2165 32.5551 22.0505H32.3897C32.3652 21.6966 32.5429 21.5024 32.3897 21.1454C32.5291 21.302 32.7864 21.2002 33.0024 21.1454C32.0986 21.0029 34.4577 19.484 33.4451 19.1098C33.6841 19.0973 33.992 18.1484 33.9981 18.9407C34.1605 18.9125 34.2049 18.3848 34.0548 18.3143L34.1636 18.2016C33.9261 18.056 33.7193 18.1781 33.6106 18.4287C33.4344 17.901 33.8955 17.6582 34.3306 17.9182C34.2672 17.8784 34.2208 17.8158 34.2004 17.7428C34.18 17.6698 34.1871 17.5915 34.2203 17.5236L34.496 17.6363C34.4424 17.4093 34.3857 17.1838 34.3306 16.9567H34.7181L34.5527 16.2223H34.7181L34.663 16.3915L34.8284 16.4478C34.7457 16.2787 34.8391 16.1347 34.9954 16.0517C34.6308 15.8951 34.7472 15.2359 35.1608 15.3173V15.203L34.9402 15.2609C34.8897 14.9931 35.6189 15.0558 35.2711 14.7504L35.216 14.8647C35.216 14.5516 35.4442 14.395 35.2711 14.1288C35.5193 14.1006 35.4871 13.5557 35.8257 13.6763C35.7001 13.3302 35.9268 13.0264 35.8808 12.7712L36.1014 12.7148C35.7491 12.3766 36.2806 12.0055 36.4338 11.8661H36.2669C36.7892 10.9062 37.0098 9.54551 37.5399 8.642C37.3285 8.19573 38.2415 7.56156 37.595 7.17166L37.8171 7.05891V7.23899H37.9274V7.12625H38.1495C38.1296 7.0871 38.1128 7.04952 38.0929 7.01194H38.315L38.2047 6.78645L37.8723 6.95557C37.8861 6.45136 38.7761 6.45762 38.315 5.82501C38.8711 5.82501 38.6581 5.19084 38.5371 4.86357C38.675 4.77745 38.8435 4.88236 38.9783 4.97631V4.63652C38.8404 4.72734 38.7516 4.6052 38.7026 4.46741C39.2847 4.5457 38.9186 3.3713 39.3153 3.1098L38.9277 2.94069C39.1192 2.73869 39.133 2.50225 38.8726 2.37385C39.0748 2.37385 39.179 2.17029 39.2602 1.97769L38.9277 2.09199C38.9935 2.02795 39.0392 1.94543 39.0591 1.85486C39.079 1.76428 39.0722 1.66972 39.0396 1.58309L38.485 1.69582L38.8175 1.35603C38.5984 1.29653 38.0653 0.933251 37.9887 0.729689C38.1541 0.833036 38.3257 0.825209 38.3747 0.615384L38.0975 0.559015C38.1358 0.465063 38.1725 0.371103 38.2093 0.277151L37.9887 0.220783C38.0209 0.341354 37.8723 0.366411 37.7666 0.389899L37.8217 0.164414C37.7298 0.150555 37.6362 0.172941 37.5598 0.227043H37.5536ZM38.3288 0.283421L38.3564 0.33979L38.3012 0.227043L38.3288 0.283421ZM38.6888 0.764143L38.7439 0.792327L38.6336 0.735949L38.6888 0.764143ZM37.6976 1.13212H37.8095V1.30123H37.6976V1.13212ZM37.1446 1.91505C37.163 1.97299 37.1829 2.02936 37.1998 2.08573C37.1829 2.03719 37.163 1.98081 37.1446 1.92288V1.91505ZM38.5065 2.14993H38.5877C38.6321 2.31748 38.459 2.35819 38.3119 2.37541C38.3533 2.28616 38.4023 2.14523 38.5065 2.14993ZM37.2565 2.5461C37.2733 2.58368 37.2932 2.62125 37.3116 2.65883H37.1446L37.2565 2.5461ZM36.6468 3.11137C36.6651 3.18653 36.6851 3.26796 36.7019 3.33686C36.5901 3.3118 36.6023 3.20532 36.6468 3.11137ZM38.2522 5.37405C38.3947 5.39127 38.4559 5.51497 38.4728 5.65747C38.3089 5.70131 38.269 5.51654 38.2522 5.37405ZM34.2693 5.93932H34.3244C34.3857 6.32139 34.208 6.51399 33.8266 6.44823C33.8036 6.2337 34.2172 6.13349 34.2678 5.93932H34.2693ZM37.5873 6.90076H37.6976V7.07144C37.6624 7.0135 37.6241 6.95714 37.5873 6.90076ZM33.3272 7.52711C33.5784 7.63046 33.4497 7.91544 33.7147 7.97964C33.56 8.28655 33.0805 7.73224 33.3272 7.52398V7.52711ZM35.5408 9.78978C35.6235 9.88529 35.5239 9.96359 35.4289 10.0153C35.4672 9.93697 35.504 9.86181 35.5408 9.78665V9.78978ZM31.9439 10.2423C31.9806 10.3363 32.0159 10.4302 32.0542 10.5242C31.8979 10.5085 31.8903 10.3707 31.9439 10.2392V10.2423ZM34.4883 10.3551H34.545C34.5251 10.4114 34.5083 10.4678 34.4883 10.5242L34.378 10.4678C34.4026 10.413 34.4271 10.3488 34.4883 10.3519V10.3551ZM31.9439 11.2038C32.1629 11.3932 32.4479 11.6093 32.3866 11.8818C32.2786 11.9016 32.1676 11.8967 32.0617 11.8675C31.9557 11.8382 31.8574 11.7854 31.7738 11.7127L32.0496 11.5999C31.9531 11.4778 31.8627 11.3369 31.9439 11.2006V11.2038ZM31.279 11.9366C31.3158 11.9757 31.3526 12.0133 31.3909 12.0509L31.2239 12.1073C31.2438 12.0493 31.2607 11.9914 31.279 11.9366ZM33.105 12.0509L33.7178 12.1073L33.2199 12.3327C33.1801 12.2372 33.1449 12.1433 33.105 12.0493V12.0509ZM33.6627 12.3327C33.6893 12.3335 33.7155 12.3403 33.7391 12.3529C33.7628 12.3654 33.7834 12.3833 33.7993 12.4052C33.8153 12.4271 33.8261 12.4523 33.8311 12.4791C33.8361 12.5059 33.8351 12.5335 33.8281 12.5598H33.6044C33.6228 12.4815 33.6397 12.4063 33.6596 12.3312L33.6627 12.3327ZM33.2981 12.6146H33.3808C33.3287 12.9434 32.863 13.0374 32.768 13.3975C32.7513 13.3104 32.7518 13.2208 32.7695 13.1339C32.7872 13.047 32.8218 12.9646 32.8712 12.8916C32.9207 12.8186 32.9839 12.7565 33.0572 12.7089C33.1305 12.6613 33.2124 12.6293 33.2981 12.6146ZM33.2154 13.0671C33.2466 13.0793 33.2747 13.0983 33.2978 13.1229C33.3209 13.1476 33.3384 13.1771 33.349 13.2095C33.3595 13.2419 33.3629 13.2762 33.3589 13.3101C33.3548 13.344 33.3435 13.3765 33.3256 13.4054C33.1449 13.3944 33.174 13.2143 33.2169 13.0671H33.2154ZM35.9544 13.1799L35.9819 13.2362C35.962 13.1987 35.9452 13.1611 35.9253 13.1235C35.9375 13.1423 35.9467 13.1611 35.9559 13.1799H35.9544ZM32.4954 13.4054L32.716 13.4633L32.4954 13.576V13.4054ZM31.2224 13.5197C31.4215 13.9299 31.2009 14.157 30.7796 14.0849C30.7168 13.8156 31.0002 13.659 31.2239 13.5197H31.2224ZM30.916 13.8579C30.9068 13.897 30.8991 13.9346 30.8899 13.9722H31.0554C31.0186 13.8955 30.9819 13.8156 30.9436 13.7452C30.9374 13.7827 30.9298 13.8156 30.919 13.8579H30.916ZM29.9969 14.0004C29.9769 14.0474 29.9586 14.0943 29.9402 14.1413L30.173 13.9722L30.0612 13.8579C30.0443 13.9064 30.0244 13.9534 30.0076 14.0004H29.9969ZM30.438 14.0568V14.1413H30.5499V13.9722H30.438V14.0568ZM32.4295 14.0849H32.4846C32.5291 14.2619 32.3054 14.3762 32.1522 14.4811C32.0435 14.2948 32.2886 14.0928 32.4417 14.0849H32.4295ZM31.2668 14.3981L31.3786 14.4263C31.3648 14.5829 31.2254 14.5954 31.1013 14.539C31.1381 14.4529 31.1534 14.359 31.279 14.3966L31.2668 14.3981ZM30.5483 14.4827C30.5667 14.5203 30.5836 14.5578 30.6035 14.5954C30.5958 14.5563 30.579 14.5187 30.5606 14.4811L30.5483 14.4827ZM31.9868 14.6518C32.5245 14.7567 32.0174 15.1215 32.2074 15.3877L31.7662 15.2171C32.0159 15.1638 32.0098 14.8835 31.999 14.6502L31.9868 14.6518ZM32.6516 15.1043L32.8171 15.2171L32.552 15.3815C32.5888 15.2922 32.6256 15.1967 32.6639 15.1028L32.6516 15.1043ZM30.5483 15.275L30.7138 15.3314C30.664 15.4366 30.5944 15.5307 30.509 15.6084C30.4235 15.686 30.324 15.7457 30.2159 15.7839C30.2925 15.6273 30.3691 15.3971 30.5483 15.4441V15.275ZM32.5398 15.4441C32.5582 15.4817 32.5781 15.5193 32.5949 15.5569H32.4846L32.5398 15.4441ZM34.5312 15.8403H34.6967V15.953H34.5312V15.8403ZM31.5839 16.2349H31.6666C31.6835 16.3915 31.587 16.8785 31.3909 16.8612C31.4368 16.6843 31.5441 16.4447 31.3909 16.3523C31.4117 16.3186 31.4401 16.2904 31.4736 16.27C31.5072 16.2496 31.5449 16.2376 31.5839 16.2349ZM30.0076 16.6342L30.0612 16.6905C29.9693 16.736 29.8651 16.7485 29.8406 16.6342C29.8958 16.5997 29.9509 16.5668 30.0076 16.6342ZM29.0088 16.6342C29.0272 16.6718 29.0471 16.7093 29.0639 16.7469C29.0486 16.7062 29.0287 16.6686 29.0088 16.6342ZM32.4954 16.6905H32.6057L32.4402 17.0288C32.2886 17.0131 32.3422 16.6718 32.4969 16.6874L32.4954 16.6905ZM28.7882 17.1431L28.8433 17.1994L28.7331 17.0867L28.7882 17.1431ZM28.7055 17.3967C28.4144 17.4891 28.5952 17.8477 28.3455 17.9338C28.7422 17.9338 29.0456 17.7303 28.8985 17.3075L28.7055 17.3967ZM30.0061 17.3122H30.1715C30.1638 18.0669 29.2309 17.3748 30.0076 17.3091L30.0061 17.3122ZM31.0569 17.3122C31.1626 17.4516 31.2821 17.6348 31.4445 17.5956C31.4261 17.6708 31.4062 17.7522 31.3893 17.8211C31.1871 17.7068 31.0002 17.5455 31.0585 17.3091L31.0569 17.3122ZM31.6697 17.3122C31.8075 17.2918 31.9332 17.3325 31.9469 17.4813C31.806 17.4985 31.6804 17.4594 31.6666 17.3091L31.6697 17.3122ZM29.0655 17.5095L29.1222 17.5392L29.0103 17.4813L29.0655 17.5095ZM30.6709 17.4813C31.0447 17.4343 30.9099 17.9291 30.893 18.2173H31.0002V18.3864C30.2466 18.4553 30.8195 17.9276 30.6709 17.4782V17.4813ZM31.5563 17.8211L31.6666 17.9338H31.446L31.5563 17.8211ZM29.9432 18.2173C30.0689 18.3018 30.1991 18.4067 30.1654 18.5571L29.9432 18.2173ZM28.3669 18.5571C28.3302 18.6291 28.1984 18.5743 28.1172 18.5571C28.1019 18.8483 28.4696 18.7418 28.6702 18.6698C28.6289 18.5445 28.4634 18.4177 28.3746 18.5539L28.3669 18.5571ZM30.6709 18.6698L30.7812 18.8389H30.6709V18.6698ZM28.18 18.8968V18.9532H28.0146V19.1787C28.1816 19.1662 28.1938 18.9939 28.18 18.8389V18.8968ZM30.2282 18.8389L30.3385 19.0096H30.2343L30.2282 18.8389ZM30.5606 18.8968H30.6709V19.066H30.5606V18.8968ZM33.2705 19.066C33.4053 19.1286 33.3884 19.4433 33.2169 19.4058C33.2353 19.2961 33.2536 19.1756 33.2705 19.0628V19.066ZM33.7423 19.744L33.7699 19.8003C33.7515 19.7628 33.7316 19.7252 33.7147 19.6876C33.7239 19.7033 33.7316 19.7221 33.7423 19.7409V19.744ZM27.9043 20.1965L28.0697 20.2529L27.9043 20.3108V20.1965ZM31.0033 20.2529C31.2438 20.2529 31.2116 20.505 31.1687 20.7054C30.9727 20.6913 31.0002 20.433 31.0002 20.2498L31.0033 20.2529ZM28.2903 20.5927C28.3103 20.6491 28.3271 20.7054 28.347 20.7634C28.3271 20.7054 28.3103 20.6459 28.2903 20.5895V20.5927ZM27.3513 20.6491H27.4049C27.3881 20.7054 27.3681 20.7634 27.3513 20.8197L27.2395 20.7634C27.264 20.7054 27.2885 20.6428 27.3513 20.6459V20.6491ZM29.6215 20.8166L29.787 20.9293C29.571 21.1078 29.8712 21.7264 29.4546 21.778C29.3841 21.4883 29.6721 21.2034 29.6215 20.8166ZM28.1264 20.873C28.2505 20.9685 28.5155 21.0812 28.4037 21.2128C28.2428 21.1376 28.0131 21.0468 28.1249 20.873H28.1264ZM30.7276 21.0985C31.0064 21.2676 30.7643 21.8266 30.4503 21.8908C30.5407 21.6261 30.6341 21.3631 30.726 21.0985H30.7276ZM27.9319 21.1548H28.0161C27.9978 21.2316 27.9778 21.3114 27.961 21.3819C27.8338 21.3318 27.7327 21.1658 27.9365 21.1548H27.9319ZM27.9058 21.551H28.0161C27.9978 21.5886 27.9778 21.6261 27.961 21.6653C27.9365 21.6277 27.9227 21.5901 27.9043 21.551H27.9058ZM28.0713 21.7217C28.0897 21.8657 28.1663 22.0865 28.0161 22.1178L28.0713 21.7217ZM32.719 21.919C32.7022 21.9471 32.6823 21.9753 32.6654 22.0035H32.7757V21.8344L32.719 21.919ZM30.5407 22.1147L30.6234 22.1711C30.4702 22.395 30.5974 22.7316 30.291 22.9055C30.3354 22.6815 30.458 22.3621 30.2358 22.2791C30.3124 22.2024 30.4304 22.0442 30.5407 22.1147ZM28.7974 22.68C28.972 22.8021 29.1804 22.9931 29.3504 22.9618V22.7927L29.571 22.8491L29.4607 22.9055C29.5771 22.9791 29.5603 23.1184 29.5158 23.2452L29.9034 23.3016C29.8774 23.4347 29.7364 23.3924 29.6277 23.358C29.6016 23.4895 29.7977 23.6712 29.9034 23.8105C29.5572 23.5944 29.1267 23.7479 28.7422 23.9248C28.6326 23.617 28.5943 23.2873 28.6304 22.9618H28.8525C28.8005 23.1779 29.1972 23.2922 29.4056 23.4144C29.332 22.99 28.8908 23.0714 28.7897 22.6831L28.7974 22.68ZM27.8568 22.7363C27.9301 22.7368 28.0002 22.7668 28.0519 22.8199C28.1036 22.873 28.1326 22.9449 28.1326 23.0198L27.912 23.0761C27.8859 22.965 27.866 22.8522 27.8492 22.741L27.8568 22.7363ZM31.2591 22.7363C31.3633 22.7363 31.4445 22.9133 31.5088 23.0198C31.4353 22.9689 31.3486 22.9418 31.2599 22.9418C31.1712 22.9418 31.0845 22.9689 31.011 23.0198C31.0058 22.9848 31.0082 22.949 31.018 22.915C31.0278 22.8811 31.0448 22.8497 31.0677 22.8231C31.0906 22.7966 31.1189 22.7755 31.1507 22.7613C31.1824 22.7471 31.2168 22.7402 31.2515 22.741L31.2591 22.7363ZM27.4692 22.7927L27.5244 22.9055H27.4126C27.4248 22.871 27.4417 22.8334 27.4616 22.7958L27.4692 22.7927ZM32.117 22.7927L32.2273 22.9055H32.0618L32.117 22.7927ZM29.6828 22.9055H29.9034V23.0198H29.6828V22.9055ZM30.3737 23.2186L30.4564 23.2468L30.1807 23.3596C30.2205 23.2891 30.2711 23.1826 30.366 23.2202L30.3737 23.2186ZM31.3985 23.1904L31.613 23.3674H31.3924L31.3985 23.1904ZM26.2713 23.3674L26.2989 23.4238L26.2437 23.311L26.2713 23.3674ZM30.1179 23.5381C30.1608 23.632 30.1761 23.7385 30.0612 23.7636C30.0811 23.6806 30.098 23.607 30.1179 23.5318V23.5381ZM27.2395 23.7917L27.2946 23.8199C27.1828 24.8096 26.5578 24.2474 27.2395 23.7855V23.7917ZM27.4049 23.8199L27.627 23.9342C27.601 24.0376 27.506 24.0579 27.4049 24.047V23.8199ZM27.9043 23.9342H28.0146C27.9962 23.9906 27.9763 24.047 27.9595 24.1033C27.9365 24.0407 27.9227 23.9843 27.9043 23.928V23.9342ZM28.1249 23.9342H28.2428C28.2229 23.9718 28.2061 24.0094 28.1862 24.047C28.1632 24.0031 28.1433 23.9656 28.1249 23.928V23.9342ZM29.8406 23.9342L29.8958 24.1033L29.7303 24.1597L29.8406 23.9342ZM26.5762 24.047L26.7983 24.1033C26.7784 24.1785 26.76 24.2599 26.7416 24.3288C26.5961 24.3069 26.5578 24.1801 26.5762 24.0407V24.047ZM31.3342 24.047C31.4705 24.0955 31.5885 24.1879 31.5012 24.3288C31.4445 24.2286 31.3909 24.1347 31.3342 24.0407V24.047ZM28.6228 24.1033C28.6411 24.2161 28.6611 24.3288 28.6779 24.4431H28.5125C28.5492 24.3226 28.586 24.2098 28.6228 24.0971V24.1033ZM29.6215 24.7187C29.7334 24.8941 29.4852 25.0773 29.3443 25.2276C29.3029 25.0288 29.4684 24.8628 29.6215 24.7187ZM31.06 24.7187L31.1703 24.8894L30.8945 25.0022C30.9466 24.9066 31.0002 24.8127 31.0585 24.7187H31.06ZM26.4643 25.0022C26.4812 25.0397 26.5011 25.0773 26.5179 25.1149C26.5026 25.0773 26.4827 25.0397 26.4659 25.0022H26.4643ZM26.8504 25.0585L27.0173 25.2276H26.7968C26.8151 25.1713 26.835 25.1149 26.8519 25.0585H26.8504ZM26.2974 25.2276C26.3341 25.2856 26.3709 25.3419 26.4092 25.3983L26.1871 25.5111L26.2974 25.2276ZM26.5179 25.3983H26.6849V25.5111H26.5179V25.3983ZM29.2309 25.5111L29.3412 25.8508L29.1742 25.9072C29.1957 25.7757 29.2125 25.6426 29.2325 25.5111H29.2309ZM31.3327 25.5111C31.3526 25.5486 31.3694 25.5862 31.3893 25.6238H31.2775C31.2974 25.5862 31.3173 25.5486 31.3342 25.5111H31.3327ZM28.6764 25.7365L28.9536 25.8508H28.6764V25.7365ZM25.945 25.9636C25.9052 26.1546 26.063 26.1656 26.1947 26.1891C26.2683 25.9746 26.2146 25.7851 25.9726 25.7945C25.9573 25.8508 25.945 25.9072 25.945 25.9636ZM30.5667 25.7945C30.6433 25.9229 30.5667 26.0434 30.4549 26.1327C30.3737 26.0043 30.4488 25.8837 30.5606 25.7945H30.5667ZM30.8425 25.8508C30.8624 25.926 30.8792 26.0074 30.8991 26.0763C30.7904 26.1108 30.6479 26.1515 30.6219 26.02C30.6471 26.026 30.6734 26.0262 30.6987 26.0206C30.7241 26.015 30.7479 26.0037 30.7684 25.9875C30.789 25.9713 30.8057 25.9506 30.8175 25.927C30.8292 25.9034 30.8356 25.8774 30.8363 25.8508H30.8425ZM26.6926 25.9072C26.8059 25.9323 26.7922 26.0387 26.7477 26.1327C26.6298 26.1076 26.642 26.0012 26.6865 25.9072H26.6926ZM27.578 25.9072C27.6047 25.9074 27.631 25.9139 27.6549 25.9261C27.6787 25.9384 27.6995 25.9562 27.7155 25.978C27.7315 25.9998 27.7424 26.0252 27.7472 26.052C27.7521 26.0788 27.7508 26.1065 27.7435 26.1327C27.6837 26.0575 27.6301 25.9824 27.5719 25.9072H27.578ZM28.6335 26.1327L28.9107 26.247C28.8096 26.5821 28.4834 26.4427 28.6228 26.1327H28.6335ZM29.021 26.3598C29.0762 26.5289 29.1329 26.698 29.1865 26.8687C28.9919 26.7998 29.0088 26.5586 29.0088 26.3598H29.021ZM27.555 26.5007L27.6378 26.5289C27.6132 26.6447 27.5091 26.6306 27.4156 26.5852C27.4325 26.5257 27.4555 26.4662 27.5443 26.4991L27.555 26.5007ZM25.536 26.5852L25.5912 26.6416L25.4793 26.5289L25.536 26.5852ZM26.3923 26.5852L26.4766 26.6416V26.5289H26.3096L26.3923 26.5852ZM30.5713 26.5289C30.5928 26.7606 30.5591 26.9986 30.3492 27.0941L30.5713 26.5289ZM27.3053 26.8687C27.3253 26.9062 27.3421 26.9438 27.362 26.9814C27.3314 26.9438 27.3145 26.9062 27.2946 26.8687H27.3053ZM24.9539 27.2648L24.9815 27.3212L24.9263 27.2085L24.9539 27.2648ZM25.873 27.2648L25.9833 27.3776L25.7627 27.4903L25.873 27.2648ZM25.32 27.8912C25.4977 27.9037 25.4732 28.0822 25.4303 28.231L25.32 27.8912ZM29.692 28.0039C29.9708 28.0431 29.9693 28.3171 29.9126 28.5708C29.6491 28.4799 29.6047 28.2451 29.6752 27.9992L29.692 28.0039ZM28.3133 28.2873L28.4251 28.3437L28.0927 28.4564L28.0376 28.2873C28.0766 28.2669 28.1196 28.2559 28.1634 28.2551C28.2072 28.2543 28.2506 28.2637 28.2903 28.2826L28.3133 28.2873ZM30.556 28.4283L30.6387 28.4564L30.4717 28.4001L30.556 28.4283ZM25.3261 28.4564C25.6632 28.6397 25.3415 29.1063 25.4364 29.3615H24.9937C25.1297 29.071 25.2335 28.7658 25.3032 28.4517L25.3261 28.4564ZM29.0885 28.8526L29.1987 28.9669L29.0333 29.0797C29.0287 29.0045 29.0486 28.9231 29.0655 28.8479L29.0885 28.8526ZM27.8997 29.1078L27.9824 29.136C27.9625 29.1924 27.9457 29.2488 27.9273 29.3051C27.7833 29.2597 27.6715 29.0609 27.8767 29.1032L27.8997 29.1078ZM29.1451 29.1924C29.2309 29.2723 29.3397 29.3756 29.2554 29.4758C29.1957 29.3772 29.162 29.2817 29.1222 29.1877L29.1451 29.1924ZM25.271 29.4195H25.5483C25.5912 29.587 25.4181 29.6262 25.271 29.6449V29.4195ZM27.7067 29.4195C27.84 29.4351 27.9625 29.4978 27.9273 29.6449C27.768 29.6308 27.6469 29.5619 27.6837 29.4148L27.7067 29.4195ZM25.3261 29.7013C25.5084 29.6512 25.5253 29.8798 25.5483 30.0411C25.3629 30.0223 25.3231 29.8532 25.3032 29.6966L25.3261 29.7013ZM27.8155 29.7013C27.8354 29.7577 27.8522 29.814 27.8721 29.872C27.8292 29.8094 27.8124 29.753 27.7925 29.6966L27.8155 29.7013ZM27.2624 29.7577H27.3743V29.872H27.2073C27.1782 30.0724 27.3069 30.3417 27.5397 30.2102V30.3245C27.1047 30.2274 26.5838 29.9017 27.2395 29.753L27.2624 29.7577ZM25.9894 29.814C26.0277 29.872 26.063 29.9284 26.1013 29.9847H25.9894V29.814ZM27.5397 29.872L27.7067 29.9284L27.5949 29.9847L27.5397 29.872ZM25.945 30.1006H26.0277C26.0584 30.2196 25.9113 30.2744 25.8072 30.3277C25.8225 30.229 25.8378 30.0881 25.945 30.1006ZM28.8556 30.1006L28.9659 30.157L28.7453 30.3277L28.8556 30.1006ZM29.1329 30.2133H29.2432V30.4404H29.1329V30.2133ZM28.6335 30.384H28.7453C28.7254 30.4968 28.7085 30.6095 28.6886 30.7222C28.6611 30.6017 28.6411 30.4889 28.6228 30.3762L28.6335 30.384ZM27.3053 30.5531C27.5949 30.9274 27.6286 31.2202 27.0847 31.062C27.1476 30.8835 27.2226 30.7144 27.2946 30.5453L27.3053 30.5531ZM28.8556 30.5531H28.9659V30.7222H28.8556V30.5531ZM24.3626 30.8835C24.3882 30.8764 24.4152 30.8753 24.4413 30.8804C24.4674 30.8855 24.4921 30.8966 24.5134 30.9129C24.5346 30.9292 24.552 30.9503 24.5641 30.9745C24.5762 30.9987 24.5827 31.0255 24.5832 31.0527C24.5575 31.0598 24.5306 31.0609 24.5045 31.0558C24.4783 31.0507 24.4537 31.0396 24.4324 31.0232C24.4111 31.0069 24.3938 30.9859 24.3817 30.9617C24.3696 30.9374 24.363 30.9107 24.3626 30.8835ZM27.1843 31.109C27.2211 31.2233 27.2594 31.3361 27.2946 31.4488L27.1292 31.5052L27.1843 31.109ZM28.2903 31.3924L28.4022 31.5616H28.2903V31.3924ZM23.6472 31.7338L23.8678 31.7902L23.6472 31.8465V31.7338ZM26.4705 31.9029C26.6236 31.917 26.6558 32.0454 26.6359 32.1863C26.5793 32.1674 26.5311 32.1285 26.5 32.0766C26.4688 32.0246 26.4567 31.9631 26.4659 31.9029H26.4705ZM23.8142 31.9593L23.9796 32.072L23.8142 32.1284V31.9593ZM26.7983 32.1362C26.8335 32.1754 26.8703 32.213 26.9071 32.2505C26.8642 32.2051 26.8335 32.1675 26.7983 32.1362ZM28.1249 32.1942C28.18 32.2114 28.2352 32.2317 28.2903 32.2505C28.2704 32.3461 28.2275 32.4463 28.1249 32.4197V32.1942ZM9.58909 32.4197H9.69939L9.64424 32.5888L9.58909 32.4197ZM28.2107 32.5888H28.2919C28.3225 32.7078 28.1754 32.7626 28.0713 32.8158C28.0897 32.7187 28.108 32.5778 28.2092 32.5809L28.2107 32.5888ZM8.81396 32.7031H8.9794V32.8158H8.81396V32.7031ZM27.4631 32.7031H27.5183L27.4631 33.212C27.3084 33.2323 27.3773 32.7015 27.4616 32.6952L27.4631 32.7031ZM9.47726 32.7594H9.58909V32.9192H9.47726V32.7594ZM22.7587 33.0413L22.7036 33.1556L22.8705 33.0992C22.8506 33.0429 22.8338 32.9849 22.8139 32.9286L22.7587 33.0413ZM26.0216 32.9192H26.1886V33.0898L26.0216 32.9192ZM8.53516 33.2871V33.4281H8.75728L8.53516 33.1462V33.2871ZM12.0769 33.2871L12.132 33.3153L12.0217 33.2589L12.0769 33.2871ZM9.47267 33.3717L9.753 33.5455L9.42059 33.6019L9.47267 33.3717ZM22.699 33.5142V33.5988C22.7939 33.5753 22.8904 33.533 22.8659 33.4281H22.699V33.5142ZM27.2915 33.5988H27.4585C27.4355 33.6943 27.3942 33.7945 27.2915 33.7679V33.5988ZM24.525 33.6551L24.6368 33.7679L24.4698 33.8242L24.525 33.6551ZM8.97481 33.7115C9.07591 33.8681 9.36544 33.7115 9.4451 33.8524C9.43942 33.8874 9.42656 33.9207 9.40737 33.9502C9.38818 33.9797 9.36308 34.0047 9.33374 34.0235C9.30441 34.0424 9.27149 34.0546 9.23717 34.0595C9.20285 34.0644 9.16791 34.0618 9.13464 34.0519C9.10138 34.042 9.07055 34.025 9.04419 34.002C9.01783 33.979 8.99654 33.9505 8.98173 33.9185C8.96692 33.8865 8.95891 33.8516 8.95824 33.8162C8.95758 33.7808 8.96427 33.7456 8.97787 33.7131L8.97481 33.7115ZM22.915 33.937L23.1355 33.9949C23.0513 34.0889 23.0191 34.2047 23.1355 34.2768C23.0207 34.1938 22.8904 34.0889 22.9241 33.9385L22.915 33.937ZM23.301 34.0513C23.3209 34.0889 23.3378 34.1264 23.3577 34.164C23.3408 34.128 23.3301 34.0904 23.3102 34.0528L23.301 34.0513ZM10.4086 34.1077L10.5741 34.164L10.4086 34.2204V34.1077ZM12.6222 34.1922L12.6774 34.2768V34.1092H12.5655L12.6222 34.1922ZM24.4131 34.3284H24.6904C24.6475 34.6322 24.3687 34.6823 24.4131 34.3284ZM25.5207 34.4427H25.7413C25.7673 34.5477 25.6678 34.5899 25.5758 34.6119C25.5621 34.5618 25.5421 34.5054 25.5253 34.449L25.5207 34.4427ZM23.1953 34.6119L23.2504 34.8953C23.2086 34.8647 23.18 34.8188 23.1706 34.7671C23.1612 34.7154 23.1717 34.6621 23.1999 34.6181L23.1953 34.6119ZM9.16783 34.781C8.86145 35.0362 9.25208 35.2507 9.52781 35.3478C9.55178 35.3115 9.56463 35.2687 9.56472 35.2248C9.56481 35.181 9.55214 35.1382 9.52832 35.1017C9.5045 35.0653 9.47061 35.0369 9.43096 35.0202C9.39132 35.0035 9.34771 34.9993 9.30569 35.008C9.36697 34.8734 9.36391 34.6588 9.17242 34.7872L9.16783 34.781ZM12.682 34.9798L12.7371 35.008L12.6268 34.9516L12.682 34.9798ZM12.9577 35.3181L12.9026 35.4042H13.1798C13.1247 35.3478 13.0695 35.2899 13.0129 35.2335L12.9577 35.3181ZM27.0173 35.5514V35.7487H27.1276V35.3541H27.0173V35.5514ZM22.9226 35.5796L23.1984 35.6923C23.0804 35.7659 22.9778 35.7033 22.9241 35.5811L22.9226 35.5796ZM24.4131 35.863L24.5234 36.0885L24.358 36.1448L24.4131 35.863ZM9.9981 35.9757L10.0257 36.0321L10.0808 35.9194H9.97053L9.9981 35.9757ZM25.9619 36.3719C25.9818 36.5034 26.0002 36.635 26.017 36.7681C26.0048 36.635 25.9864 36.5034 25.9665 36.3719H25.9619ZM22.1996 36.541H22.3099C22.293 36.5786 22.2731 36.6162 22.2547 36.6537L22.1996 36.541ZM24.4974 36.8244L24.5801 36.8808L24.2599 37.0499C24.1328 36.9403 24.3948 36.7352 24.5005 36.8244H24.4974ZM13.5138 36.8244L13.6241 36.8808L13.4571 37.0499C13.4785 36.9748 13.4969 36.8996 13.5168 36.8244H13.5138ZM10.3581 37.0499C10.3765 37.0875 10.3964 37.1251 10.4148 37.1642H10.303L10.3581 37.0499ZM14.0944 37.3333C14.0944 37.5619 14.4559 37.7107 14.6198 37.5024C14.4651 37.4382 14.1618 37.2629 14.0974 37.3333H14.0944ZM13.3468 37.4461H13.6899C13.7344 37.6371 13.5888 37.7201 13.4127 37.7295C13.4387 37.6167 13.4785 37.4727 13.3499 37.4461H13.3468ZM15.1483 38.2431C15.1177 38.3558 15.1606 38.3825 15.231 38.4122C15.2647 38.301 15.3046 38.157 15.1759 38.1304L15.1483 38.2431ZM21.3187 38.4122L21.5393 38.525H21.3187V38.4122ZM16.141 40.1049L16.1134 40.2177H16.3355V39.9922C16.2513 39.9875 16.1685 39.9828 16.141 40.1049ZM20.4027 40.0485L20.3751 40.1049H20.4854L20.4302 39.9922L20.4027 40.0485ZM20.5957 40.1613L20.5405 40.2177H20.8178C20.7535 40.1722 20.6646 40.0908 20.5987 40.1613H20.5957ZM22.1551 43.4981H22.3206V43.6688L22.1551 43.4981ZM23.0743 43.7252L23.1018 43.8379C23.1463 43.744 23.1585 43.6375 23.0467 43.6124L23.0743 43.7252ZM21.1655 44.6303H21.2207V44.8557L21.0537 44.7994C21.0644 44.7352 21.0844 44.6287 21.1533 44.6303H21.1655ZM20.876 44.9763C21.0874 45.0233 21.3831 45.0718 21.3187 45.3145L21.596 45.2018C21.596 45.515 21.2161 45.3004 21.0981 45.5416C20.9097 45.2284 20.4532 45.4335 20.8209 45.7107L20.3782 45.8234L20.4333 45.0405L20.876 45.0969V44.9763ZM22.0111 45.3709C22.0203 45.3913 22.028 45.4101 22.0387 45.4289C22.0203 45.3913 22.0004 45.3521 21.9836 45.3145C21.9918 45.3318 22.001 45.3485 22.0111 45.3646V45.3709ZM21.3739 45.7107C21.3923 45.7483 21.4122 45.7859 21.429 45.8234H21.3187L21.3739 45.7107ZM21.596 45.7107C21.6129 45.7483 21.6328 45.7859 21.6512 45.8234C21.6328 45.7796 21.6129 45.742 21.596 45.7044V45.7107ZM21.3187 45.9941H21.3739C21.4091 46.1413 21.2835 46.2243 21.1533 46.276C21.1962 46.1742 21.2437 45.9926 21.3187 45.9879V45.9941ZM21.7614 46.1351L21.8166 46.1632L21.7063 46.1069L21.7614 46.1351ZM20.9863 46.3339L21.0981 46.4467H20.9312L20.9863 46.3339Z" fill="#F8F963"/>
  </g>
  <defs>
    <clipPath id="clip0_1762_1686">
      <rect width="43" height="56" fill="white"/>
    </clipPath>
  </defs>
</svg>