<svg xmlns="http://www.w3.org/2000/svg" width="32" height="32" viewBox="0 0 32 32" fill="none">
  <g clip-path="url(#clip0_1762_31)">
    <path d="M31.8964 13.6051C31.4668 9.47139 29.2686 5.78578 25.7113 3.22211C21.8897 0.467856 16.9416 -0.586381 12.4746 0.406076C8.22785 1.3496 4.50092 4.08289 2.24564 7.90118C-0.0103148 11.7246 -0.59989 16.3096 0.628448 20.4854C1.29037 22.7385 2.46487 24.8558 4.02172 26.6135C5.59318 28.386 7.56322 29.8016 9.7241 30.709C11.7169 31.5447 13.8339 31.9596 15.9489 31.9596C18.8332 31.9595 21.7056 31.1887 24.227 29.6694L22.4444 26.7045C19.015 28.771 14.7631 29.0734 11.0643 27.521C7.65982 26.0876 4.99964 23.0938 3.94726 19.5122C2.9892 16.2504 3.45319 12.6587 5.22555 9.65901C6.99376 6.66152 9.90986 4.52042 13.2225 3.78244C16.742 3.00279 20.6554 3.83898 23.6903 6.02766C26.4371 8.0048 28.127 10.8255 28.4538 13.9642C28.6663 15.9908 28.48 17.5891 27.9022 18.7161C26.6778 21.0988 24.8997 21.113 24.1943 21.0092C24.1704 21.0057 24.1541 21.0022 24.1394 20.9993C23.9369 20.6858 23.9626 19.5212 23.9725 19.0155C23.9762 18.8184 23.9796 18.6291 23.9796 18.4523V8.98154H21.3302C20.9923 8.7045 20.635 8.45324 20.259 8.22758C18.8159 7.369 17.144 6.91321 15.4201 6.91321C12.9626 6.91321 10.6528 7.80881 8.92129 9.43378C6.17143 12.0151 5.31843 16.2532 6.84637 19.7465C7.57134 21.4047 8.7957 22.7807 10.3855 23.7243C11.8739 24.6061 13.6125 25.0742 15.4116 25.0742C17.4733 25.0742 19.3685 24.505 20.8931 23.4268C21.0549 23.3134 21.2153 23.191 21.3685 23.0691C21.9121 23.8132 22.7048 24.2861 23.6897 24.4309C25.0545 24.6344 26.4194 24.409 27.6436 23.7829C29.0341 23.0713 30.155 21.8973 30.9768 20.2949C31.8797 18.5378 32.1814 16.35 31.8964 13.6051ZM20.4805 18.9766C20.4052 19.085 20.2921 19.2223 20.2302 19.298C20.1796 19.3638 20.1329 19.4214 20.0914 19.4732C19.7645 19.8943 19.3648 20.2744 18.8986 20.6035C17.947 21.2748 16.7729 21.6146 15.4118 21.6146C12.9635 21.6146 10.8934 20.368 10.0158 18.3571C9.06438 16.1859 9.58727 13.5521 11.2865 11.96C12.3599 10.9501 13.8674 10.3725 15.4202 10.3725C16.5213 10.3725 17.5804 10.6577 18.4854 11.1997C19.0627 11.5439 19.5724 11.9888 19.9982 12.5282C20.0402 12.58 20.0897 12.6399 20.1439 12.7052C20.2244 12.8011 20.3816 12.9957 20.4804 13.1355V18.9766H20.4805Z" fill="#F8F963"/>
  </g>
  <defs>
    <clipPath id="clip0_1762_31">
      <rect width="32" height="32" fill="white"/>
    </clipPath>
  </defs>
</svg>