<svg xmlns="http://www.w3.org/2000/svg" width="32" height="32" viewBox="0 0 32 32" fill="none">
  <path d="M16.0013 0C10.1198 0 5.33466 4.78519 5.33466 10.6667C5.33466 12.4323 5.77609 14.1829 6.61528 15.7357L15.418 31.6562C15.5352 31.8685 15.7585 32 16.0013 32C16.2442 32 16.4675 31.8685 16.5847 31.6562L25.3907 15.7304C26.2266 14.1829 26.668 12.4323 26.668 10.6666C26.668 4.78519 21.8828 0 16.0013 0ZM16.0013 16C13.0606 16 10.668 13.6074 10.668 10.6667C10.668 7.72594 13.0606 5.33337 16.0013 5.33337C18.9421 5.33337 21.3347 7.72594 21.3347 10.6667C21.3347 13.6074 18.9421 16 16.0013 16Z" fill="#F8F963"/>
</svg>