<svg xmlns="http://www.w3.org/2000/svg" width="40" height="40" viewBox="0 0 40 40" fill="none">
  <path d="M1.12668 26.7947H38.8709C38.734 27.1886 38.5846 27.5768 38.4227 27.9595H1.57489C1.41399 27.5771 1.26459 27.1888 1.12668 26.7947ZM10.0769 37.5916H29.9207C30.3656 37.3356 30.7996 37.0629 31.2226 36.7736H8.77574C9.19768 37.0624 9.63138 37.335 10.0769 37.5916ZM2.78488 30.3658H37.2127C37.4203 30.0132 37.6176 29.6538 37.8045 29.2877H2.19301C2.3799 29.6541 2.57664 30.014 2.78324 30.3675L2.78488 30.3658ZM19.9986 0C13.172 0 7.14463 3.4411 3.53599 8.69276H36.4611C32.8529 3.44275 26.8251 0.00165195 19.9986 0.00165195V0ZM6.74117 35.1819H33.256C33.5827 34.8909 33.8995 34.5894 34.2066 34.2772H5.79139C6.09841 34.5902 6.41527 34.8923 6.74198 35.1835L6.74117 35.1819ZM1.10451 13.5105H38.893C38.6949 12.9371 38.472 12.3757 38.2244 11.8263H1.77313C1.52604 12.3751 1.30317 12.9365 1.10451 13.5105ZM0.437126 15.9185H39.5592C39.4451 15.3776 39.3096 14.8451 39.1528 14.321H0.843468C0.686404 14.8448 0.550956 15.3773 0.437126 15.9185ZM0.0783965 18.3269H39.9191C39.8745 17.8174 39.8112 17.3137 39.7291 16.8157H0.268433C0.186618 17.3134 0.123272 17.8171 0.0783965 18.3269ZM0 20.1202C0 20.3258 0.00315096 20.5307 0.00944446 20.735H39.9869C39.9929 20.5307 39.996 20.3258 39.9963 20.1202C39.9963 19.849 39.991 19.5791 39.9803 19.3105H0.016008C0.0053364 19.5788 0 19.8487 0 20.1202ZM0.738802 25.551H39.2616C39.376 25.1381 39.4776 24.7211 39.5666 24.2999H0.432201C0.521951 24.7219 0.623607 25.1389 0.737164 25.551H0.738802ZM0.226156 23.143H39.7747C39.8406 22.7026 39.8923 22.2566 39.9298 21.8052H0.0693679C0.106308 22.2553 0.158025 22.7012 0.224518 23.143H0.226156ZM4.45375 32.7755H35.5479C35.8076 32.4529 36.0574 32.1226 36.2974 31.7845H3.70222C3.94192 32.1226 4.19175 32.4529 4.4517 32.7755H4.45375ZM3.11816 9.33152C2.75555 9.90442 2.42211 10.4955 2.11913 11.1024H37.8805C37.5775 10.4955 37.244 9.90442 36.8814 9.33152H3.11816ZM16.9116 40H23.0896C24.1287 39.838 25.1534 39.5934 26.154 39.2683H13.8456C14.8461 39.5933 15.8706 39.838 16.9095 40H16.9116Z" fill="#131313"/>
</svg>