<svg xmlns="http://www.w3.org/2000/svg" width="66" height="89" viewBox="0 0 66 89" fill="none">
  <g clip-path="url(#clip0_1762_1285)">
    <path d="M50.4538 6.61874C50.335 6.75281 50.0015 6.6096 49.8245 6.55522L50.0147 7.57796C49.7764 7.50426 49.7148 7.9042 49.6424 8.10994C49.6568 7.50018 48.9961 7.59135 48.9912 8.18805C48.8652 8.52217 49.3916 8.76985 49.2651 9.04681C49.1612 9.22143 49.2946 9.4483 49.3813 9.62139L49.0246 9.73892C49.1386 9.4226 48.9224 8.97976 48.5834 9.10332C48.4687 9.18857 48.3147 9.98474 48.245 10.2667C48.3869 10.2106 48.544 10.2092 48.6859 10.2629C48.8279 10.3165 48.9447 10.4214 49.0136 10.5571C48.9218 10.6097 48.8167 10.6337 48.7117 10.626C48.6068 10.6183 48.5067 10.5793 48.4243 10.514C47.6201 9.92686 48.3396 11.8429 47.8483 12.2242C47.6674 11.9971 47.5368 11.8346 47.1996 12.0999C46.8803 12.4522 46.4751 12.0776 46.2611 12.3399C46.1133 12.5191 46.4874 13.2163 46.2888 13.3846C46.1132 13.6125 45.7979 13.2359 45.5976 13.4423C45.1415 13.7547 45.775 14.839 46.1552 14.344L45.629 14.1773C45.9556 14.299 46.2569 13.8716 46.5252 13.9157C47.1755 14.2985 45.7146 15.626 45.7041 14.629C45.5473 14.7677 45.2979 15.1168 45.1317 14.954C44.7021 15.4178 45.1022 15.8377 44.872 16.2595L44.4283 15.9312C44.3349 16.1142 44.2285 16.3984 44.016 16.3379C43.856 16.7386 44.4362 16.8519 44.4742 17.1379C44.4485 17.2986 44.0684 17.9913 43.8351 17.8902L43.9564 17.6526C43.8215 17.5388 43.6025 17.6308 43.4325 17.6848C43.5162 17.9162 43.5846 18.3346 43.7889 18.3819C43.738 18.1792 43.7698 17.9948 43.9975 17.9731L43.9865 18.7914C43.6469 18.5671 41.9045 18.6785 42.8235 19.1745C43.1785 19.2987 43.1977 19.3834 43.0005 19.6243C42.7635 19.8388 42.3713 19.2582 42.1868 19.7243C42.4378 20.0291 42.8093 19.9641 43.1605 19.8108C43.0917 20.0153 43.0206 20.2187 42.9518 20.4233L42.3044 20.0929L42.4183 20.6663C41.7218 20.0891 40.9634 20.6098 42.092 20.9102C41.8245 21.2949 41.5016 21.0552 41.1911 21.2742C41.5607 21.4628 41.6412 21.7586 41.3849 22.0921C41.1878 21.8388 40.828 21.8289 40.4938 21.8441C40.915 21.9841 41.2795 22.7873 40.7034 22.9277C40.3985 23.0716 39.6089 21.9616 39.3892 22.4097C39.9811 22.5231 39.5951 23.3027 39.8617 23.6814C40.0545 23.9955 39.7889 24.1206 39.5706 24.2519C39.5712 24.1301 39.5302 24.0121 39.4546 23.9176C39.379 23.8231 39.2733 23.7578 39.1551 23.7325C39.0369 23.7072 38.9133 23.7235 38.8049 23.7786C38.6965 23.8337 38.6099 23.9243 38.5595 24.0354L39.3281 24.3258C39.2585 24.3844 39.1768 24.4269 39.0891 24.4501C39.0014 24.4733 38.9098 24.4766 38.821 24.46C38.7321 24.4433 38.6482 24.4069 38.5753 24.3536C38.5024 24.3002 38.4423 24.2311 38.3993 24.1514L38.1907 24.5602C38.3904 24.5992 38.3117 24.8406 38.2599 25.006L37.7749 24.7584C37.6732 25.1439 38.0375 25.2849 38.3812 25.3674C38.189 25.7846 38.3772 26.1892 37.8778 26.5514L38.2863 26.5532C38.109 27.1158 36.7724 26.3798 36.4043 27.4442C36.208 25.8461 34.5948 28.1234 35.9582 27.516C35.6624 27.485 35.2144 28.2 35.5421 28.3313L35.3747 28.6593L35.7797 28.866C35.6372 29.0928 35.4488 28.9967 35.2922 28.8209L35.2778 29.4306L34.4638 29.4616C34.5567 29.9134 35.1505 29.9649 35.5938 30.0383L35.3439 30.5279L34.7826 30.0347C34.9115 30.1484 34.8706 30.3043 34.7766 30.4421C34.568 30.3566 33.8314 29.6601 33.4878 29.3739L33.3216 29.6995C33.6708 29.8178 33.8623 30.0473 33.6804 30.3979L33.5178 30.3149C33.4608 30.3931 33.4324 30.4886 33.4373 30.585C33.4421 30.6814 33.4801 30.7729 33.5446 30.8439C33.6566 30.6943 33.7662 30.5436 33.8746 30.3952C34.2695 30.8424 34.8912 30.2579 35.2531 30.892C35.2807 30.7682 35.3105 30.6457 35.3369 30.5243L35.863 30.8947C35.6498 30.3066 36.3645 30.168 36.7616 30.5294C36.7305 30.0612 37.2858 30.2757 37.3718 29.9152C36.9117 29.7642 36.4006 30.3182 36.1605 29.5966C35.9283 29.3133 36.5355 28.9431 36.3934 28.7388C36.2769 28.4786 36.4007 28.1433 35.9729 28.0628C36.5539 27.6164 37.276 28.8237 36.5704 29.2934C36.9841 29.5585 37.3428 28.4893 37.6253 29.4184C37.7648 29.0462 38.0015 28.7626 38.405 28.8906C38.3459 28.2912 39.219 27.9819 38.7897 27.3404C39.2465 27.3698 39.2371 26.7778 39.7332 26.6895C40.0899 26.572 40.12 26.4256 40.1043 26.1599L40.5893 26.4074C40.68 26.1541 40.7471 25.8888 40.5166 25.7532L41.0028 25.7946L41.0598 25.1017L41.2222 25.1846C41.3017 24.8717 41.5648 24.8681 41.8346 24.9848C41.8359 24.7788 41.8395 24.5739 41.849 24.3751C42.2151 24.466 42.4097 24.131 42.5463 23.8052C42.1912 23.6869 41.9999 23.4395 42.1075 23.066C42.4883 23.8026 43.2844 23.7835 42.9041 22.9064C43.0273 22.7056 43.5122 23.0639 43.6184 22.7047C43.668 21.7294 43.1547 21.8689 44.4444 21.4816C44.1988 21.3173 43.9371 21.1208 43.9655 20.8267C44.4018 21.1752 45.0237 20.6778 45.4666 21.0776C45.3413 21.2533 45.2183 21.4302 45.0954 21.6071C45.5553 21.7699 45.1721 22.2184 44.8031 22.1799C45.0385 22.3 45.3359 22.4907 45.4895 22.2306C45.8155 22.5917 45.0785 22.9196 45.2251 23.33L44.6989 23.1633C44.9566 23.5944 44.5874 23.9631 44.2379 24.2641C44.2755 24.2856 44.3077 24.3153 44.3322 24.3511C44.3567 24.3869 44.3728 24.4278 44.3793 24.4709C44.3859 24.5139 44.3827 24.558 44.37 24.5998C44.3573 24.6416 44.3354 24.68 44.306 24.7123L44.7909 24.9598C44.731 25.1179 44.6614 25.0973 44.3641 24.9996C43.3423 24.6758 44.7294 25.8421 43.8025 26.1C44.2732 26.451 43.4421 27.2073 43.7428 27.6124L43.5028 27.2862C43.0035 28.0379 43.041 26.685 42.4952 26.6671L42.3739 26.9048C42.8901 27.0214 42.8645 27.5716 42.8066 28.0513C43.1943 27.629 43.5439 28.0081 43.6142 28.4634C42.7381 28.5346 43.7108 29.8728 43.3069 30.4666C43.058 31.1753 43.5415 31.3442 42.9177 31.8107C43.1313 31.9737 43.1857 32.0764 42.9904 32.465C42.6502 32.9744 43.1739 33.1578 42.8701 33.6019C42.6792 34.6099 43.4912 34.3503 41.8575 34.8826L42.1787 35.2532C42.2595 34.9379 42.5213 34.9367 42.7923 35.0511C42.3586 35.4648 42.9018 36.5809 42.444 36.9314L42.9677 37.3006C42.4466 37.2983 42.5606 37.8598 42.2073 37.994C42.1144 38.0102 42.0279 38.0532 41.9586 38.1179C41.8892 38.1825 41.84 38.2659 41.8168 38.3579C43.1419 38.6687 41.728 38.9447 42.0057 39.5867C42.5326 39.9964 43.3654 41.4519 41.9873 41.0183C43.0826 41.7211 42.3681 42.7315 42.7482 43.7194C43.1498 44.3047 42.6322 44.7027 42.953 45.2139C43.0775 45.385 43.1332 45.5973 43.1092 45.8089C43.0923 45.8893 43.1029 45.9728 43.1395 46.0459C43.176 46.119 43.2364 46.1773 43.3105 46.2112C43.7013 46.4106 43.5163 47.1161 44.0305 47.1958C43.8881 47.4226 43.6996 47.3265 43.5454 47.1519C43.0654 47.7727 44.0476 48.238 44.0533 48.7502C43.8081 48.6491 43.3222 48.2813 43.1633 48.4997C43.3892 49.0105 43.7877 48.8693 44.1295 49.1996C43.7904 49.6256 43.3822 49.8847 42.9884 49.441C43.224 50.1424 43.0843 50.8231 42.2413 50.6026C41.4973 50.6243 41.9301 51.666 40.8153 50.9024C40.8119 51.0172 40.7749 51.1287 40.7088 51.2229C40.6428 51.3171 40.5508 51.3899 40.4442 51.432L40.7668 51.5966L40.6455 51.8343C40.162 51.6594 39.9298 51.3702 40.3716 50.9755L39.5205 50.8407L40.0042 51.2943C39.932 51.2896 39.8594 51.2998 39.791 51.3244C39.7227 51.3489 39.6601 51.3873 39.6069 51.4371C39.5537 51.4869 39.5111 51.547 39.4818 51.6138C39.4525 51.6805 39.437 51.7526 39.4364 51.8254C39.9665 51.7634 40.3086 52.0698 40.485 52.5672C40.5178 52.2005 40.7422 52.0633 41.0987 52.1614C40.6622 52.5049 41.1231 52.8809 41.5423 52.6874C41.2823 53.4295 41.066 52.7139 40.5444 52.8462C40.3939 52.8995 40.2312 52.9063 40.0776 52.8656C39.94 52.6816 39.9921 51.9981 39.5115 52.2771C39.2089 52.4223 38.884 52.2565 38.8542 52.7625L38.6941 52.6808L38.8603 52.3552C38.6043 52.2755 38.394 52.9201 38.2394 53.1707L37.7156 52.8016C37.292 53.2594 38.3977 53.6859 38.5231 53.2136L38.6856 53.2966C38.6161 53.363 38.5489 53.4305 38.4819 53.4922C38.8449 53.8332 39.3677 53.9832 39.5416 53.4159C39.4995 53.407 39.46 53.3887 39.426 53.3624C39.392 53.3361 39.3643 53.3024 39.345 53.2638C39.3257 53.2253 39.3153 53.1827 39.3145 53.1394C39.3137 53.0961 39.3225 53.0532 39.3403 53.0136L39.7841 53.1382C39.6449 53.2889 39.8504 53.4386 39.9877 53.5417C38.9323 53.749 39.8559 54.2593 40.3816 54.5666C39.9437 54.9422 39.4108 54.143 39.1206 54.642C39.8617 55.3527 41.3027 54.5933 41.3676 53.6288C41.8878 53.9991 43.2984 53.0144 43.4546 52.5339L43.2192 52.4137C43.0724 53.0908 42.4026 52.8508 41.8744 52.6532C42.6527 51.5525 43.1779 52.5005 43.5114 51.9458C43.4261 51.7525 42.7906 51.8175 42.9077 51.431L43.7601 51.3537C43.5916 52.2653 44.1047 52.8297 44.9906 52.2393C45.6411 52.023 45.7773 50.8434 46.4084 50.9557C46.3 50.907 46.2076 50.8285 46.142 50.7291C46.0764 50.6297 46.0401 50.5135 46.0373 50.3939C46.0346 50.2742 46.0655 50.1559 46.1265 50.0526C46.1874 49.9493 46.2759 49.8651 46.3819 49.8098C45.8155 49.6405 46.2078 49.2207 46.5213 48.9552C46.0881 48.5365 46.2076 47.6627 45.5661 47.2335L45.8498 47.0787C45.1986 46.6685 45.9287 45.9416 45.2571 45.6468C45.3667 45.4961 45.4763 45.3453 45.587 45.1981C45.0532 44.9765 45.1439 44.5256 45.4393 44.0921C44.6316 44.0874 45.5005 42.4487 44.7267 42.2905C45.6851 41.087 44.5222 40.3018 44.811 38.8345C45.0358 37.673 44.6628 37.9619 44.4645 37.2166C45.2082 37.3235 44.6333 36.479 44.8843 35.9929C45.0869 35.3923 44.7133 35.0429 45.1864 34.6043L44.459 34.2331C44.7026 33.872 45.2862 33.3101 44.88 33.0069L45.1991 32.9631C45.0763 32.7386 44.9838 32.5536 45.2342 32.3129C45.5809 32.0465 45.1193 30.8343 45.2744 30.536C45.4943 30.076 46.075 30.3454 45.4468 29.6983L45.7306 29.5435L45.2832 29.4201C45.6579 29.3836 45.8506 28.9188 46.0184 28.561L45.8583 28.4793C46.4478 28.0102 45.8147 27.6751 46.2063 27.2159C46.372 27.0249 46.427 26.8822 46.3749 26.7867C46.2377 26.5729 46.638 26.184 46.3836 25.9673C46.0766 25.6908 47.1344 24.6938 46.5633 24.5162C46.9859 24.2405 47.4409 23.5291 46.698 23.4555C47.996 22.4763 46.9886 21.9442 47.6248 20.8429C48.2164 20.1082 47.9808 20.0988 47.3947 19.6949L48.0871 19.536C47.7864 19.7181 47.3812 19.2446 47.5464 18.8975C47.5874 18.544 48.158 18.3678 48.0837 18.0424C47.8946 17.5234 48.4935 17.6523 48.6016 17.33L47.9541 17.2033C48.0138 16.8653 48.934 16.574 48.4538 16.2241C48.9955 15.9942 48.4152 15.3056 49.1137 15.3266C48.9775 14.9305 49.7001 14.5264 49.2521 14.0611C49.6533 14.1879 49.89 13.9043 50.0295 13.5321L49.5033 13.3654C49.9652 12.972 51.0224 12.511 50.1692 12.0606C50.502 11.6643 51.7059 11.1252 51.1542 10.7119C51.6638 10.3938 51.3723 10.1102 51.8189 9.50828C52.1467 8.94159 52.2187 8.75969 51.688 8.77045C50.8844 8.72283 51.7953 8.11822 51.6591 7.72815C51.5759 7.25731 50.9631 7.20219 50.8661 7.68294C50.8928 7.24118 50.8927 6.75884 50.5548 6.49651C50.5209 6.55115 50.4886 6.58555 50.4538 6.61874ZM48.9927 6.38833C48.9293 6.44284 48.8695 6.49618 48.8084 6.55189C49.0223 6.7839 49.2739 6.84336 49.4947 6.60256L49.1735 6.23196C49.1161 6.28054 49.0465 6.34688 48.9927 6.38833ZM48.4906 7.4712C48.4559 7.5044 48.4234 7.53875 48.3887 7.57194L48.6653 7.61129L48.5866 7.36441C48.5589 7.40121 48.5266 7.43563 48.4906 7.4712ZM49.6471 8.11234L49.9695 8.48059C49.7306 8.45452 49.5423 8.35843 49.6424 8.10994L49.6471 8.11234ZM47.883 7.67338C47.8623 7.71378 47.8146 7.74336 47.7799 7.77656C47.8717 7.80498 47.9505 7.86502 48.0023 7.94625C48.0542 8.02748 48.0758 8.12469 48.0634 8.22085L48.3473 8.06612L47.9836 7.58094L47.883 7.67338ZM47.3176 9.18232C47.309 9.30972 47.4985 9.31058 47.6002 9.32652L47.3189 9.08107C47.3137 9.1144 47.3109 9.14894 47.3117 9.18229L47.3176 9.18232ZM47.5527 9.91942L47.5515 10.0207L47.554 9.8182L47.5527 9.91942ZM46.8166 10.2628C46.669 10.7207 47.6444 11.1585 47.6266 10.4724C47.2699 10.5899 46.8616 10.5643 46.8991 10.1011L46.8166 10.2628ZM47.2723 11.3701L47.3318 11.4513L47.2106 11.2877L47.2723 11.3701ZM49.099 15.9601L48.9352 16.0832C49.1475 16.1556 49.3641 16.1673 49.4239 15.9222C49.3193 15.8539 49.2544 15.8417 49.099 15.9601ZM48.1278 15.6712L48.4091 15.9166C48.2319 16.0719 48.0278 16.1984 47.8367 16.0379C47.9365 15.9121 48.0316 15.7899 48.129 15.6688L48.1278 15.6712ZM47.0365 15.4138L47.3591 15.5785L46.988 15.9044C47.0018 15.7437 47.0167 15.5805 47.0341 15.4186L47.0365 15.4138ZM45.453 15.121C45.681 15.3662 45.078 15.7804 45.3596 16.1009C45.1601 15.7474 45.0442 15.3408 45.4506 15.1258L45.453 15.121ZM47.5335 16.3356L47.5905 16.5204L47.0255 16.2321C47.1999 16.2042 47.4734 16.1161 47.5311 16.3403L47.5335 16.3356ZM45.8081 16.2279C46.0835 16.3685 46.0801 16.6483 45.9631 16.9241C45.6865 16.774 45.6874 16.5049 45.8032 16.2314L45.8081 16.2279ZM43.1077 16.0301C43.0859 16.0729 43.0912 16.1266 43.0847 16.1742C43.0977 16.079 43.1143 15.9825 43.1236 15.8944L43.1077 16.0301ZM44.0485 17.1813C44.0324 17.242 44.0198 17.3015 44.006 17.3633C44.0324 17.242 44.0622 17.1194 44.0921 16.9968C44.0712 17.0611 44.0574 17.1229 44.0437 17.1848L44.0485 17.1813ZM45.6552 18.1031C45.8433 18.316 45.7183 18.5608 45.5241 18.7552C45.5716 18.5458 45.6145 18.328 45.6646 18.102L45.6552 18.1031ZM45.0489 18.0933L45.0876 18.4126L44.7685 18.4565C44.8574 18.3521 44.9454 18.2262 45.0499 18.1088L45.0489 18.0933ZM47.4202 20.331C47.5591 20.4019 47.517 20.5542 47.5014 20.672L47.0965 20.4654C47.1838 20.3991 47.2883 20.2697 47.4236 20.3477L47.4202 20.331ZM45.5954 20.0169L46.0027 20.2247C45.8519 20.7469 44.9075 20.6904 45.154 20.0912L45.4364 20.3401L45.5954 20.0169ZM46.342 22.1474L46.3383 22.3522L46.1759 22.2694L46.342 22.1474ZM40.1633 20.1775L40.2215 20.36L40.1074 20.0022L40.1633 20.1775ZM42.7312 21.4371C43.0631 21.6065 42.8927 21.894 42.6755 22.1276L43.2867 21.9243C42.8496 23.0074 42.0017 22.1104 42.7321 21.4525L42.7312 21.4371ZM39.7546 20.3794L39.6516 20.4825C39.6835 20.5114 39.7214 20.5326 39.7627 20.5447C39.8039 20.5568 39.8474 20.5595 39.89 20.5525C39.9325 20.5455 39.9731 20.529 40.0086 20.5042C40.0442 20.4795 40.0738 20.4471 40.0954 20.4095C39.9977 20.3626 39.8637 20.2762 39.7557 20.3949L39.7546 20.3794ZM39.4214 26.1259L39.5743 26.4077C39.2118 26.711 39.1067 26.3877 39.4223 26.1414L39.4214 26.1259ZM37.4985 25.3992C37.4625 25.4348 37.43 25.4692 37.3953 25.5024L37.5895 25.7033C37.6566 25.6357 37.7262 25.5694 37.7909 25.5065L37.5967 25.3056L37.4985 25.3992ZM40.1863 26.72L40.1039 26.7828L40.2663 26.8657L40.2677 26.6597L40.1863 26.72ZM44.1474 28.6397L44.2686 28.8034L44.1048 28.9265L43.9836 28.7628L44.1474 28.6397ZM39.5144 27.2519C39.4797 27.2851 39.4448 27.3182 39.4112 27.355L39.5713 27.4367C39.5879 27.3403 39.6009 27.2451 39.6126 27.1582L39.5144 27.2519ZM36.5232 26.1358C36.4893 26.2952 36.6283 26.3482 36.7425 26.4035L36.8638 26.1658L36.5296 25.9952L36.5232 26.1358ZM42.2665 29.633L42.184 29.6958L42.5066 29.8604L42.583 29.7107C42.4935 29.665 42.3573 29.5715 42.2675 29.6485L42.2665 29.633ZM37.578 27.5399L37.8135 27.66L37.6461 27.988C37.1353 27.9131 36.8186 27.1733 37.5755 27.5625L37.578 27.5399ZM44.8827 31.9897L45.0452 32.0726C44.978 32.1402 44.9086 32.2066 44.8439 32.2695C44.8518 32.2016 44.8672 32.1076 44.8802 32.0124L44.8827 31.9897ZM35.0098 28.1765L35.051 28.2993L34.9723 28.0525L35.0098 28.1765ZM34.72 28.6457L34.4338 28.91L35.1685 28.6679L35.0168 28.3837L34.72 28.6457ZM37.0066 29.555L36.9872 29.6979C37.0543 29.6303 37.1214 29.5627 37.1885 29.501L37.0261 29.4181C37.0169 29.4884 37.0091 29.5383 37.0003 29.5847L37.0066 29.555ZM34.0422 28.9678L34.0203 29.1094C34.0333 29.0142 34.0487 28.9202 34.0592 28.8297L34.0422 28.9678ZM34.1586 29.234L34.2204 29.3164L34.1005 29.1503L34.1586 29.234ZM42.1204 33.5009L42.0974 33.6449L42.3752 33.6819L42.1352 33.3557C42.1318 33.4378 42.1253 33.4855 42.1188 33.5331L42.1204 33.5009ZM35.6229 31.1616L35.6605 31.2856L35.5818 31.0387L35.6229 31.1616ZM34.8107 30.8519C34.4842 30.8171 34.412 31.0109 34.5414 31.2807C34.8258 31.7584 35.4966 30.9264 34.809 30.884L34.8107 30.8519ZM32.8476 30.2096C32.7748 30.3522 32.9337 30.5351 33.0246 30.6594C33.2989 30.4998 33.0838 30.2642 32.9107 30.086L32.8476 30.2096ZM32.7991 30.7001L32.6985 30.6997L32.6947 31.1082C32.0058 30.8824 31.9594 31.4908 31.5101 31.4293C31.3497 32.1623 32.0642 31.3436 32.9262 31.8524C32.6572 31.6702 33.3199 30.8191 32.7975 30.7322L32.7991 30.7001ZM33.2233 31.1712C32.9595 31.444 33.5709 32.0137 33.7447 31.644C33.4511 31.5331 33.7223 30.647 33.2218 31.2034L33.2233 31.1712ZM34.5777 31.7096C34.5412 31.8857 34.7779 31.8987 34.9196 31.935L34.6007 31.5656C34.5914 31.6478 34.5825 31.6941 34.576 31.7418L34.5777 31.7096ZM42.0509 35.934L42.1103 36.0152L41.9891 35.8515L42.0509 35.934ZM33.9022 32.033C33.8625 32.0816 33.8205 32.1291 33.7785 32.1765L34.1422 32.464C34.1827 32.4224 34.2124 32.3715 34.2288 32.3157C34.2452 32.26 34.2477 32.2012 34.2362 32.1444C34.2247 32.0877 34.1995 32.0348 34.1629 31.9903C34.1262 31.9459 34.0793 31.9112 34.026 31.8894L33.9022 32.033ZM34.0573 32.7292C34.0153 32.7767 33.9756 32.8254 33.9336 32.8728L34.0936 32.9545C34.1235 32.8319 34.1534 32.7094 34.181 32.5857L34.0573 32.7292ZM33.1468 32.3155L33.1238 32.4595C33.1403 32.3631 33.1556 32.2691 33.1649 32.181C33.1605 32.2536 33.1541 32.3012 33.1452 32.3477L33.1468 32.3155ZM32.4981 32.1911C32.4633 32.2243 32.4286 32.2575 32.3962 32.2919C32.3779 32.0429 32.1028 31.9774 31.8701 31.9216C32.7597 32.6032 31.4713 32.7785 31.2588 32.1249C31.1029 32.3839 30.873 32.2066 30.6915 32.0391L30.4829 32.4479C31.1613 32.3627 31.1589 33.1524 30.7531 33.5115L30.3093 33.1831L30.188 33.4208C30.4929 33.4746 30.938 33.504 30.8743 33.8729C31.1754 33.7539 31.4816 33.6016 31.574 33.3043C31.7848 33.5946 32.1754 34.0037 31.8054 34.2462C32.5227 34.8699 32.4812 33.5036 33.0714 33.7599C32.9044 33.2673 33.6233 33.3645 33.7917 33.1509C33.8922 32.6749 32.6758 32.5814 32.4337 32.8174C32.5983 32.6287 32.7639 32.4377 32.9273 32.2454C32.795 32.2198 32.6034 32.1071 32.4966 32.2233L32.4981 32.1911ZM42.0931 37.3455L42.0919 37.4468L42.2955 37.4488L42.1026 37.2455L42.0931 37.3455ZM30.4696 31.6712L30.5314 31.7537L30.4115 31.5876L30.4696 31.6712ZM32.5489 32.987C32.7722 33.1309 32.6751 33.321 32.5027 33.4787L32.5489 32.987ZM32.1766 33.5189L32.3707 33.7199C32.2566 33.8504 32.102 33.8104 31.9645 33.7193C32.0383 33.6851 32.1078 33.6187 32.1749 33.5511L32.1766 33.5189ZM29.5101 33.656C29.3898 34.1069 28.8862 33.9368 28.7886 34.3663C29.3842 34.7691 29.5105 34.1146 29.8715 33.9423C30.3812 33.9029 29.8486 33.4753 29.6145 33.3468L29.5101 33.656ZM30.5844 33.9467C30.4722 34.0212 30.6173 34.3529 30.6582 34.4996C30.801 34.3478 30.9204 33.8755 30.5852 33.9741L30.5844 33.9467ZM30.9408 34.6438C30.3729 34.6925 29.6003 34.4271 29.3486 35.2692C29.3537 35.158 29.3202 35.0488 29.2538 34.9603C29.1875 34.8718 29.0924 34.8095 28.9849 34.784C28.859 36.3914 26.8251 34.946 27.6622 34.4685C27.8869 34.4993 27.7291 34.9191 27.9605 34.9832C28.0191 35.0141 28.0842 35.0306 28.1507 35.0313C28.2171 35.0319 28.2828 35.0168 28.3426 34.9871C28.4023 34.9574 28.4543 34.914 28.4943 34.8604C28.5343 34.8068 28.5613 34.7445 28.5729 34.6786C28.6599 34.2407 28.2339 34.0173 28.3027 33.5102C27.9344 33.9004 27.3394 34.8161 26.9456 34.7738C27.1002 35.2092 26.9631 35.6815 26.7683 36.1213C26.5969 36.0706 26.4392 35.9823 26.3063 35.8627C26.1734 35.7431 26.0687 35.5951 25.9998 35.4295C25.5821 35.498 25.703 35.8772 25.4431 36.0202C24.681 35.8679 24.3369 36.612 23.8425 35.6677C24.124 36.093 23.3615 36.6684 23.9077 37.1389C24.433 36.5922 24.8274 36.8953 24.7977 37.5931C24.9083 37.5131 25.036 37.4606 25.1703 37.4401C25.3047 37.4196 25.4417 37.4316 25.5701 37.475C24.5939 39.2716 27.8069 38.2901 26.0138 38.0011C26.1068 37.749 26.2708 36.9159 26.5353 36.979C26.657 37.0082 26.7669 36.9265 26.8639 36.7363C27.0444 36.3072 27.381 36.6826 27.64 36.4134C27.6647 36.3812 27.6957 36.3545 27.7311 36.3349C27.7664 36.3153 27.8054 36.3033 27.8455 36.2995C27.8856 36.2958 27.926 36.3005 27.9641 36.3132C28.0022 36.326 28.0372 36.3465 28.0669 36.3736L28.2331 36.048C28.5598 36.3555 28.7555 35.8383 29.0891 35.9696L28.8927 35.3541C29.1334 35.435 29.4821 35.589 29.5439 35.276C29.8487 35.3357 29.8389 35.8609 29.9002 36.1768C29.4372 35.7758 29.2181 36.1703 28.8017 36.1315L28.7143 36.704C28.238 36.2303 27.6677 37.0686 27.2108 36.6557C27.2464 37.336 27.105 37.4735 26.688 37.7789C26.7983 38.4524 28.2939 38.0683 28.0132 37.4787L27.6009 37.8854C27.3194 37.6638 27.4384 37.419 27.8508 37.3958C28.4472 37.2388 28.1061 36.9479 29.0234 36.7959C30.0907 36.5826 29.9881 35.9581 30.8704 35.4736C31.7175 35.151 31.6805 34.5839 30.9416 34.6712L30.9408 34.6438ZM27.6405 33.5228C27.6046 33.5583 27.5721 33.5927 27.5374 33.6259L27.6998 33.7088C27.7128 33.6135 27.7294 33.5172 27.7388 33.4291C27.7109 33.4837 27.6761 33.5169 27.6319 33.5453L27.6405 33.5228ZM26.5469 33.1713C26.5376 33.2535 26.5319 33.3344 26.5226 33.4166L26.8512 33.1738L26.5711 32.926C26.5627 33.0356 26.557 33.1166 26.5428 33.2082L26.5469 33.1713ZM28.1812 34.1612L28.3024 34.3249L28.1363 34.4468C28.1537 34.3778 28.1667 34.2826 28.1914 34.1933L28.1812 34.1612ZM26.5053 34.9506L26.5041 35.0518L26.5065 34.8494L26.5053 34.9506ZM27.394 35.7037L27.5081 36.0615L27.2727 35.9414L27.394 35.7037ZM24.9424 35.0187C24.4834 34.9762 24.8619 35.6936 25.1386 35.5293C25.3514 35.4671 25.0983 35.0504 24.9395 35.0532L24.9424 35.0187ZM26.4448 36.1449C26.9048 36.7901 25.5886 37.2059 25.0514 36.8748C25.2482 36.3612 26.2695 36.9302 26.4514 36.1843L26.4448 36.1449ZM23.0245 34.7589L22.8 34.902C23.0228 34.8899 23.4495 34.9668 23.4936 34.7407C23.4227 34.6937 23.3372 34.6737 23.2525 34.6843C23.1678 34.6948 23.0893 34.7352 23.0311 34.7982L23.0245 34.7589ZM23.4851 35.2517L23.6463 35.4358L23.3263 35.0687L23.4851 35.2517ZM22.4242 35.534L22.4252 35.6364L22.4266 35.4304L22.4242 35.534ZM21.6978 35.2652C21.4765 35.2511 21.199 35.481 21.0019 35.629C21.4444 35.9597 21.8367 35.8304 21.8992 35.2661L21.6978 35.2652ZM22.4567 36.3715C22.1538 36.5405 21.7401 36.2754 21.6381 36.7776C21.5355 36.6586 21.3943 36.58 21.2391 36.5556C21.0839 36.5311 20.9248 36.5625 20.7894 36.644C20.5644 36.3464 20.9316 36.0456 20.9288 35.7895C20.7059 35.4181 20.0444 35.2722 19.9114 35.8874C19.7033 36.4462 20.0256 36.2452 19.6761 36.8487C19.4529 37.286 19.5391 37.4019 19.8082 37.5842C19.5489 37.4758 19.4133 37.7182 19.3229 37.9537L19.9703 38.2841C19.5911 38.6897 20.0074 39.1298 19.8341 39.5507C19.6949 40.0039 20.3401 40.426 19.8583 40.8991C20.5033 40.8329 20.4149 41.4828 20.8692 41.7147L20.2108 42.2025C20.6511 42.2235 21.127 42.8378 20.8097 43.2271L20.4871 43.0624C20.5276 43.7332 21.2386 44.9798 20.9207 45.8062C20.7521 46.1366 21.5283 46.8832 21.1472 47.2579C20.9126 47.6594 21.0092 48.5924 21.3882 48.8788C21.6766 49.1278 21.7707 49.1758 21.6718 49.3231C21.4201 49.1766 21.1209 49.0419 20.9031 49.2303C21.3575 49.654 20.8177 50.2233 21.1101 50.726C21.4025 51.2288 20.4407 51.6366 20.9062 52.1198C20.9933 52.2022 21.0487 52.3131 21.0624 52.433C21.0761 52.5528 21.0474 52.674 20.9813 52.7753C20.6492 53.205 21.3716 53.6965 21.7074 53.4455C21.4308 53.7956 21.8023 54.3297 21.774 54.6118C21.4303 54.5353 21.0374 54.0202 20.6237 54.5401C21.1782 54.9189 20.3842 55.4454 20.7301 55.9305C20.4486 55.9007 20.2752 56.63 20.5178 56.7478C20.5737 56.7786 20.621 56.8228 20.6556 56.8766C20.6903 56.9303 20.7112 56.9919 20.7165 57.0559C20.5037 57.7113 19.5989 58.0134 20.6557 58.6696C20.2286 58.925 19.6241 59.7489 20.2722 60.2234C21.3426 60.9285 20.1403 61.4353 20.1509 60.4611L19.6174 60.7041C20.0507 61.018 19.7515 61.5634 20.0524 61.8518C19.6586 61.9025 19.1352 62.2824 19.372 62.6849C19.6634 62.7767 20.0222 62.6901 20.2426 63.0782C19.7539 63.0356 19.3942 63.1995 19.5003 63.73L19.1367 63.6462C19.358 64.1486 18.8497 64.5513 19.0187 64.9761C19.3946 65.5304 18.8903 65.8093 18.3384 65.8092C18.476 66.1791 18.7323 66.6304 18.4861 66.9152L18.3344 66.631L18.1257 67.0398L18.3612 67.16C17.8205 67.7019 17.2993 69.0896 18.048 69.5705C17.643 69.8581 17.4159 70.2276 17.8249 70.5891C17.3616 70.805 17.3616 71.2004 17.6018 71.6076L16.9567 71.2784C16.6372 71.5497 17.1748 72.0487 16.9832 72.3195C16.7964 72.6855 16.8962 73.6531 16.2011 73.1545C15.8473 73.5222 16.3369 73.8709 16.1474 74.2596C15.958 74.6482 16.1209 74.7943 16.4662 74.8327C15.9805 75.139 15.1628 74.2934 15.3978 75.7284L14.9965 75.3169C14.6499 75.6763 15.0105 76.5223 14.5695 76.9504L15.0957 77.117L14.4857 77.318C15.1234 77.6675 14.387 78.1335 14.4431 78.4946C14.5649 78.6047 14.4914 78.8188 14.4576 78.9663L14.7767 78.9225C14.4789 79.2678 14.3261 79.6542 14.8068 79.8635C14.5122 80.1326 14.1381 81.3946 14.7059 81.4567C15.2859 81.6748 15.2723 81.9285 16.1743 81.1786C17.5829 79.9652 17.4351 79.4523 18.6108 78.1021C19.3734 77.4218 18.9628 76.9996 19.6817 76.8991C19.6271 76.7545 19.6035 76.5997 19.6125 76.4447C19.6215 76.2898 19.6629 76.1383 19.734 76.0001L20.1365 76.2055C20.4105 75.7798 20.5597 75.2858 20.567 74.7805C20.7648 74.9743 21.0356 75.2114 20.9258 75.4789C21.0963 75.0866 21.6001 74.3611 21.4305 74.0888C22.0737 74.2763 22.4155 72.6413 22.8313 72.5419C23.0837 72.6287 23.8422 71.0027 24.0852 71.0847C24.1681 71.0639 24.2448 71.0233 24.309 70.9663C24.3732 70.9094 24.423 70.8378 24.4539 70.7577C24.6844 70.405 24.3398 70.3999 24.489 70.1075C24.6806 69.8368 25.7026 69.7413 25.4155 69.1933C25.2376 68.4255 26.3557 68.6186 26.5301 67.8059C26.7391 67.0648 27.5357 67.2076 27.7647 66.5845C27.9249 66.0671 28.2747 66.1259 28.2098 65.6134C28.6577 65.6952 28.7402 65.5336 29.2152 64.8413C29.926 63.6463 30.0639 64.184 30.7226 62.9863C31.0938 61.8576 32.3039 62.6789 31.796 61.5809C32.5456 61.7867 32.929 60.6223 33.5349 60.3713C34.0476 60.0817 34.3037 59.8649 34.2566 59.3525L34.4508 59.5535C34.8461 59.2849 34.9027 58.8075 34.8741 58.3286L35.1542 58.5764C35.3497 58.077 35.9562 58.1678 36.202 57.7211C36.3467 57.4084 36.5602 57.4844 36.7938 57.5617L36.7224 56.7014L37.5711 56.835C37.5391 55.851 38.3918 56.1574 38.9039 55.9214C39.1403 55.6616 38.7303 55.4823 38.9137 55.2044C38.9828 55.069 38.9298 54.9401 38.7524 54.8226C38.4302 54.5353 38.3261 53.8381 37.8807 54.4316C38.3965 53.2988 37.7451 53.6914 37.0756 53.9159C36.7174 53.8619 36.889 54.1712 36.611 54.245C36.4873 54.2837 36.3875 54.2178 36.3067 54.0388C35.6359 53.4868 34.909 54.5567 35.5621 55.2016L34.6684 54.9522L34.7897 54.7145L34.665 54.6509C34.4903 54.9931 34.6578 55.2464 34.9801 55.4288C34.7843 55.7603 34.0794 55.4785 33.9991 55.9557C34.3432 56.0025 34.7394 56.2496 34.478 56.6106C34.2681 56.0451 33.5672 55.924 33.2994 56.5243C33.5416 56.573 33.8236 56.6601 33.7007 56.9359C33.242 56.8695 32.883 57.0728 32.4044 56.6847C32.1558 57.2708 32.5321 57.7894 32.1398 58.4011C32.0095 57.4179 31.0411 57.1933 30.6364 58.1491C30.9772 57.9755 31.0895 58.1975 30.9589 58.5174C31.478 58.4827 31.7298 58.815 31.3976 59.2566L30.1851 58.6378L30.019 58.9634C30.3671 59.165 30.7535 59.3383 31.1102 59.2207C30.8908 60.331 28.5797 59.2894 29.6222 61.1365C29.4035 61.1987 29.2605 60.8741 29.1408 60.6842C28.8796 61.3238 28.1083 61.056 27.8469 61.5217C27.7705 61.968 27.2614 61.6573 27.1691 61.9487L27.6953 62.1154L27.4879 62.5218C27.2721 62.4447 27.1187 62.3034 27.2066 62.0787L26.638 61.9952C26.9933 62.9794 26.3422 62.8538 27.1457 63.6923C26.7465 64.3873 25.5876 63.2566 25.191 64.0338C25.5427 64.1354 25.6751 64.4517 25.7098 64.8139L25.1036 64.6064C25.0455 64.9003 24.9127 65.3118 25.175 65.4666C24.7944 65.4971 24.5595 66.6145 24.0435 66.5848C23.4813 66.6514 23.5012 67.1588 22.9569 67.2136C23.3094 67.4534 23.7566 66.8098 24.1805 67.0142C24.0575 67.1911 23.9309 67.3692 23.808 67.5461L24.3354 67.7104C24.1934 68.291 23.6104 68.0264 23.4684 68.607C23.1554 68.639 23.7188 67.6803 23.5631 67.6248C23.4493 67.5338 22.9986 68.4692 22.8233 68.2778C22.715 68.2226 22.5922 68.2947 22.4547 68.5001C22.2022 69.2041 22.0413 69.3916 21.3512 68.9645C21.1094 69.2755 21.5525 69.3668 21.5645 69.7444C21.6316 70.2759 21.2713 70.3887 20.7278 70.0873C19.6913 69.5134 20.4915 69.4455 20.8213 69.0027C20.4282 68.802 20.3993 68.3529 19.8126 68.386C20.086 67.8096 20.9748 68.1613 20.0357 67.3674C21.2262 67.4418 20.1791 66.476 20.2955 66.0621C21.0835 66.6111 20.8666 66.4254 20.8678 65.737C20.9988 65.4803 20.5132 64.897 20.6777 64.6095C20.8194 64.1575 21.6715 64.5984 21.2768 63.8367C21.158 63.6043 21.1803 63.427 21.3437 63.3046C21.7338 63.0634 21.5632 62.0836 21.9319 61.8553C21.301 61.5333 21.6581 60.9846 22.0679 60.5886C21.3611 60.177 21.8397 59.873 22.3033 59.6273C22.5511 59.4092 21.9258 58.431 22.26 58.2181C23.4199 56.1139 21.6183 55.4401 22.5819 54.9882C21.9739 54.4352 22.6804 54.5741 22.9154 54.3346C23.0283 54.0087 22.3506 53.546 22.8466 53.1671C23.3427 52.7881 22.8721 52.7217 23.1013 52.3713L22.6552 52.4432C22.737 52.0386 22.0302 51.9236 22.3825 51.4832C22.5628 51.0719 23.1037 51.2911 23.2823 51.0168C23.4776 50.6341 23.0934 50.3691 22.7634 50.2367C23.0658 50.0105 23.1172 49.875 22.977 49.3181C22.6973 48.7499 23.1766 48.2876 22.7481 48.0689L22.8318 47.9049L23.0672 48.0251C23.12 47.9561 23.1524 47.8737 23.1607 47.7873C23.1691 47.701 23.1531 47.6142 23.1145 47.5369C22.7716 47.6855 22.6111 47.4537 22.8564 47.0427C23.1398 46.5223 22.579 46.1791 23.1826 45.8221C22.4149 45.5472 22.1807 44.8255 22.9973 44.3884C22.8406 44.2186 22.6428 44.0368 22.8422 43.797C23.1122 43.4076 22.0978 42.5693 22.2921 42.1772C21.9942 42.3247 21.7028 42.3318 21.561 42.0107C21.9712 42.1662 23.4387 41.57 22.5057 41.2586C22.1272 41.3141 21.8949 39.8564 22.4342 40.5032L22.6889 39.6026C22.8971 39.8227 23.1295 39.9023 23.2952 39.6124L22.9316 39.325C23.3356 39.1148 23.3346 38.6109 22.8177 38.7516L22.9464 38.0983C23.3772 38.2193 23.2211 38.4901 23.6725 38.5707C24.5534 38.7926 23.4354 39.1927 23.3753 39.6533C23.9161 40.0881 24.0285 39.4085 24.1575 38.9231L24.4388 39.1685C24.6805 38.468 25.3302 39.201 25.7034 38.8882C25.6199 38.546 25.1165 38.5557 24.7724 38.5149C25.0985 37.5909 24.1846 37.7536 23.7297 37.3657L23.646 37.5296L23.9227 37.569L23.8014 37.8067C23.3123 37.602 23.5249 37.2611 23.5069 36.8835C23.4691 36.6784 22.6468 36.2198 22.4633 36.4108L22.4567 36.3715ZM19.474 35.8259L19.411 35.9495L19.6464 36.0697L19.7677 35.832L19.5323 35.7118L19.474 35.8259ZM20.3045 36.1988C20.3025 36.2667 20.3004 36.3346 20.3008 36.4036C20.3071 36.3739 20.3042 36.3155 20.3205 36.2429L20.3045 36.1988ZM22.4044 37.2705L22.5561 37.5546L22.3207 37.4345L22.4044 37.2705ZM41.959 49.4639L41.9795 49.6271L42.1008 49.3895L41.9384 49.3066C41.9539 49.3924 41.9616 49.4472 41.9656 49.5032L41.959 49.4639ZM43.9813 50.4959C44.2809 50.6938 44.2722 50.8272 44.197 51.0674L43.3095 50.6145C43.5162 50.4594 43.6768 50.3076 43.9879 50.5353L43.9813 50.4959ZM20.23 38.9379L20.3088 39.1848L20.0321 39.1455C20.0988 39.1136 20.1659 39.046 20.2366 38.9772L20.23 38.9379ZM44.6358 51.8066L44.8712 51.9268C44.8054 52.2826 44.322 52.0029 44.0577 51.922C44.2424 51.8275 44.3966 51.7055 44.6424 51.8459L44.6358 51.8066ZM42.3017 51.4902L42.5636 51.6748C42.1363 51.7563 41.6209 51.8707 41.7014 52.3641L41.0564 52.035C41.4822 51.9856 41.638 51.6338 41.6738 51.2207C41.9097 51.2636 42.1291 51.3704 42.3084 51.5296L42.3017 51.4902ZM20.3328 40.5332L20.6129 40.781L20.2491 40.6971L20.3328 40.5332ZM43.5444 52.9452L43.6061 53.0276L43.4849 52.8639L43.5444 52.9452ZM38.4085 50.5309L38.2266 50.5908L38.9953 50.8813C39.0725 50.666 38.6259 50.483 38.4152 50.5702L38.4085 50.5309ZM41.9014 52.7748C42.3764 53.0651 42.2442 53.3182 41.734 53.1028L41.9014 52.7748ZM38.7854 51.3913L38.7843 51.4926L38.7867 51.2901L38.7854 51.3913ZM37.6869 51.346L37.6857 51.4472C37.6877 51.3793 37.6898 51.3114 37.6894 51.2423C37.6956 51.3174 37.6963 51.3508 37.6935 51.3853L37.6869 51.346ZM41.2041 53.1409L41.5267 53.3055L41.4054 53.5432C41.3686 53.5327 41.3343 53.5148 41.3046 53.4908C41.2749 53.4668 41.2503 53.4371 41.2322 53.4033C41.2141 53.3695 41.2028 53.3324 41.1991 53.2941C41.1954 53.2558 41.1994 53.2171 41.2107 53.1802L41.2041 53.1409ZM40.5918 53.3407C40.5776 53.4383 40.5622 53.5323 40.5528 53.6204C40.5594 53.5668 40.5842 53.4776 40.5984 53.38L40.5918 53.3407ZM36.8186 52.5475L36.7349 52.7115C36.9561 52.7375 37.4263 52.9205 37.4684 52.6754L36.9011 52.3859L36.8186 52.5475ZM35.7867 52.2785L35.8861 52.3802L35.692 52.1792L35.7867 52.2785ZM21.5724 45.4887L21.6865 45.8465L21.2839 45.641L21.5724 45.4887ZM36.5019 53.5692L36.5613 53.6504L36.4425 53.4879L36.5019 53.5692ZM34.5861 53.9276L34.6466 54.0124L34.5266 53.8463L34.5861 53.9276ZM37.189 55.6184L37.5115 55.7831L37.3454 56.1087L37.189 55.6184ZM33.4705 54.0203L33.4693 54.1216L33.473 53.9167C33.4732 53.9977 33.4739 54.031 33.4782 54.0692L33.4705 54.0203ZM32.6529 55.041C32.5221 55.181 32.5686 55.2526 32.6516 55.3399L32.9802 55.0972L32.786 54.8963C32.7292 54.9901 32.6884 55.0352 32.6606 55.0899L32.6529 55.041ZM35.5953 57.1598C35.5957 57.2289 35.5936 57.2967 35.5916 57.3646C35.5896 57.3396 35.5915 57.2717 35.5911 57.2026L35.5953 57.1598ZM30.9877 56.5069L30.8035 56.5657L31.2084 56.7724L31.3297 56.5347C31.2761 56.5063 31.2158 56.4927 31.1551 56.4954C31.0943 56.498 31.0351 56.5168 30.9837 56.5498L30.9877 56.5069ZM33.6745 57.929L33.6708 58.3376L33.3929 58.3006C33.4781 58.2153 33.5754 58.0942 33.6704 57.9719L33.6745 57.929ZM31.9952 57.3297L31.9733 57.4713C32.0405 57.4037 32.11 57.3373 32.1747 57.2745L32.0123 57.1916L31.9952 57.3297ZM20.3331 51.4289L20.4943 51.6131L20.5768 51.4515L20.1718 51.2448L20.3331 51.4289ZM34.0734 58.543C34.2967 58.687 34.1996 58.8771 34.0272 59.0347L34.0734 58.543ZM30.3911 57.0772C30.3072 57.06 30.2199 57.068 30.1402 57.1003C30.0604 57.1325 29.9916 57.1876 29.9424 57.2587C30.0947 57.594 30.3768 57.1808 30.5717 57.3222C30.6733 57.437 30.7524 57.3695 30.8361 57.3043C30.7804 57.2412 30.7109 57.1917 30.6331 57.1598C30.5553 57.1279 30.4712 57.1143 30.3871 57.1201L30.3911 57.0772ZM20.9971 53.721L20.9146 53.7838L21.15 53.904L21.0713 53.6571L20.9971 53.721ZM21.507 55.629L21.9508 55.9573C21.5216 56.4902 21.2205 56.2197 21.4983 55.6694L21.507 55.629ZM29.1646 59.6898L29.224 59.8758L29.3453 59.6381L29.1099 59.518L29.1646 59.6898ZM22.2659 56.7352L22.2623 57.1438L22.0269 57.0236C22.0939 56.968 22.1754 56.8718 22.2535 56.7828L22.2659 56.7352ZM27.7519 60.5625L27.7095 60.6457L28.0745 60.7271L27.7932 60.4817L27.7519 60.5625ZM26.7527 60.7236C26.6387 60.9471 26.7939 61.0442 26.9297 61.1734C26.9687 61.1258 26.9978 61.0708 27.0153 61.0117C27.0328 60.9527 27.0383 60.8908 27.0315 60.8298C27.0247 60.7687 27.0058 60.7098 26.9758 60.6564C26.9458 60.6031 26.9054 60.5564 26.857 60.5192L26.7527 60.7236ZM19.6115 57.6454C19.6456 57.8635 19.7142 57.8805 19.8529 57.8704L19.5716 57.4273L19.6115 57.6454ZM25.8431 62.006L25.74 62.1091L25.9755 62.2293L26.0968 61.9916C26.0093 61.9769 25.9363 61.9397 25.8438 62.0512L25.8431 62.006ZM21.2209 62.5799L21.3833 62.6628L21.0922 63.2332L20.9298 63.1503L21.2209 62.5799ZM18.5899 61.4439L18.5887 61.5452C18.5907 61.4773 18.5927 61.4094 18.5923 61.3403L18.5899 61.4439ZM18.1652 63.0786C18.124 63.1594 18.1086 63.2534 18.0839 63.3367C18.2084 63.2264 18.3318 63.1186 18.4527 63.0096L18.2585 62.8087L18.1652 63.0786ZM24.0672 65.9858L24.1049 66.1098L24.0284 65.8641L24.0672 65.9858ZM22.3685 66.6167L22.3065 66.8427C22.3473 66.6928 22.3907 66.5442 22.4328 66.3919C22.4054 66.5037 22.3843 66.5799 22.3621 66.6524L22.3685 66.6167ZM22.8931 68.4842L23.218 68.65L23.1343 68.814L22.8094 68.6482L22.8931 68.4842ZM23.6408 70.7172L23.7609 70.7785C23.7193 70.9879 23.3572 70.9589 23.1473 70.9806C23.2726 70.9037 23.491 70.6617 23.6369 70.7481L23.6408 70.7172ZM16.8487 68.4492C16.828 68.4896 16.7803 68.5191 16.7456 68.5523L17.0235 68.5893L16.9458 68.346L16.8487 68.4492ZM20.3064 70.1629C20.41 70.2157 20.3243 70.4536 20.3004 70.5702C20.3876 70.5013 20.4956 70.4646 20.6061 70.4664C20.7165 70.4682 20.8227 70.5083 20.9066 70.58C20.664 71.0553 19.5026 71.2146 20.0769 72.008C19.9116 71.9656 19.6686 71.8895 19.6331 72.0811C19.2526 71.7161 19.8946 71.2199 19.7498 70.8524C19.5658 70.6896 20.1767 70.1206 20.3134 70.1724L20.3064 70.1629ZM16.1037 70.0252L16.0419 70.1464L16.2019 70.2281L16.3232 69.9904L16.1632 69.9088L16.1037 70.0252ZM15.6031 76.0938L15.8055 76.1971C15.7135 76.4647 15.4392 76.2229 15.2731 76.5425C15.1142 76.761 15.0198 76.7368 14.8694 76.6361C15.0337 76.4653 15.3512 75.9653 15.6006 76.1105L15.6031 76.0938Z" fill="#839CB5"/>
  </g>
  <defs>
    <clipPath id="clip0_1762_1285">
      <rect width="30.8551" height="83.1198" fill="white" transform="translate(37.7832) rotate(27.0371)"/>
    </clipPath>
  </defs>
</svg>