<svg xmlns="http://www.w3.org/2000/svg" width="74" height="46" viewBox="0 0 74 46" fill="none">
  <g clip-path="url(#clip0_1762_1287)">
    <path d="M4.60036 10.755L4.75357 10.8267L4.74415 10.4503C5.34702 10.4419 5.37368 11.1393 4.99734 11.4211C5.2525 11.4315 5.31693 11.7804 5.39249 12.0178L5.99371 11.7036C5.81616 12.0537 6.23371 12.0579 6.27684 12.3733C6.31778 12.5978 6.3962 12.6087 6.54336 12.5932L6.44426 11.6897C6.59953 11.6881 6.75509 11.685 6.9014 11.6816C6.35533 10.8603 7.81896 11.3348 6.9798 11.7555C6.66636 11.9069 6.67111 12.1028 6.68927 12.3642L6.84453 12.3626L6.70785 13.0553C6.91405 12.9134 7.17412 12.6869 7.38719 12.8164C7.19203 11.96 8.3457 12.364 8.07841 13.1063L8.30486 13.0266L8.31071 13.3347C8.46626 13.3316 8.62182 13.3286 8.76813 13.3252L8.74722 12.6459C9.19021 12.6074 9.08851 13.5941 9.15974 13.9949C9.40761 13.7752 9.65325 13.991 9.85062 14.2079C9.69448 13.9469 10.1081 13.7983 9.82972 13.5285C10.2643 13.3442 10.2267 13.8724 10.1864 14.1238C10.2726 14.4017 11.2678 14.7453 11.0878 15.1625C11.0521 15.1536 11.0149 15.1529 10.9789 15.1604C10.9429 15.1679 10.9092 15.1834 10.8802 15.2058C10.8513 15.2282 10.828 15.2569 10.8119 15.2897C10.7959 15.3224 10.7877 15.3585 10.7879 15.3949L11.4003 15.5342L11.4749 15.156C11.7354 15.2259 11.4565 15.6895 11.7941 15.7531L11.6458 15.908C11.5937 15.8578 11.5413 15.8091 11.489 15.7604C11.4199 16.1105 11.9375 16.7697 12.2656 16.3479C12.3113 16.3725 12.3509 16.4071 12.3811 16.4492C12.4114 16.4912 12.4315 16.5395 12.44 16.5903C12.4486 16.6412 12.4452 16.6933 12.4302 16.7426C12.4153 16.7919 12.3891 16.8371 12.3537 16.8748C12.4567 16.8951 12.5596 16.9154 12.661 16.9431L12.7353 16.5664C13.0112 16.6838 12.7712 17.0599 13.2795 17.0835C13.7461 17.0743 14.1534 17.5859 13.5962 17.6064C13.8816 17.7855 13.8062 18.7098 13.381 18.1394L13.312 18.4419L13.9194 18.505C13.8063 18.1282 14.6202 17.8039 14.714 18.2628C14.7567 18.6119 14.427 18.7126 14.4671 19.098C15.6594 19.1967 15.7707 18.9624 15.5584 20.1328C15.6422 19.8808 15.8803 19.9462 16.0885 20.0456L15.9216 19.4463C15.9731 19.4442 16.0229 19.4433 16.0771 19.4433C15.7861 20.0703 17.0458 19.725 16.8592 20.3327C16.6295 20.3979 16.5837 20.1586 16.5462 19.964L16.1753 20.2729C16.6892 20.2208 16.5733 20.973 16.1889 20.9892C15.9422 20.9206 15.7972 20.5559 15.4976 20.7393C15.4644 21.0565 15.9054 21.0284 15.8909 21.2588C16.3811 20.9028 16.4947 21.5836 16.8134 21.6173L16.8193 21.9254L17.0436 21.7702L16.8123 21.6232C16.982 21.4541 16.9062 21.2259 16.7979 21.0204C17.0671 21.0858 17.1234 21.2948 17.0387 21.5436C17.1935 21.1751 17.5782 21.2909 17.5749 21.6847L18.3314 21.5179L18.3351 21.672L17.954 21.6797C17.9073 21.9161 18.4539 21.9103 18.3473 22.1993C17.8278 22.1858 18.2706 22.7842 18.1391 23.0345L18.516 22.8756C18.5268 22.9101 18.5296 22.9467 18.524 22.9824C18.5185 23.0181 18.5048 23.052 18.484 23.0816C18.4632 23.1113 18.4359 23.1358 18.4041 23.1533C18.3723 23.1709 18.3368 23.181 18.3004 23.1829L18.46 23.4815C19.0292 23.2746 18.691 22.7505 18.4338 22.3499C18.7899 22.2022 19.2798 22.1224 19.2016 22.6364L19.5043 22.555L19.5102 22.863C19.4342 22.8634 19.3549 22.8646 19.2816 22.867C19.2682 22.9604 19.2854 23.0556 19.3306 23.1388C19.3758 23.222 19.4466 23.2888 19.5327 23.3293C19.6189 23.3698 19.7157 23.3819 19.8091 23.3639C19.9024 23.3459 19.9874 23.2987 20.0515 23.2292C20.0178 23.6829 21.0282 23.5016 20.7567 24.045C21.9763 23.5107 21.7531 25.6704 22.3018 24.9944L22.3155 25.522C22.7953 24.8493 22.6948 25.2331 23.113 25.4691C23.2401 25.4143 23.3659 25.562 23.4599 25.6511L23.5966 25.0443C23.7127 25.3357 23.9017 25.5557 24.2158 25.4089C24.237 25.6387 23.798 25.6334 23.8471 25.9501L23.6876 25.6515L23.6162 25.8799L23.3848 25.733C23.1396 26.3399 23.8366 26.1919 24.2289 26.0177L24.0052 26.2482C24.3263 26.3407 24.1082 26.7474 24.0238 27.0024C24.2713 27.0435 24.4658 26.8824 24.6247 26.6897C24.8197 26.9737 25.0533 27.2898 25.3992 27.2016C25.2534 27.5242 25.6113 27.5795 25.6078 27.9901C25.6571 28.2975 25.6925 28.3459 25.8828 28.3236C25.6625 27.5635 26.385 28.3782 26.7175 28.232L26.6549 28.7615C26.9695 28.6823 27.393 28.5311 27.5734 28.8183L27.636 28.2889L27.4876 28.4439L27.3283 28.1439L27.0277 28.301C26.8143 27.8123 27.2699 27.5921 27.4043 28.1435C27.7251 27.8999 27.952 28.1088 27.715 28.4381C28.0334 28.395 28.0816 28.6378 27.8026 28.8896C27.5603 29.2301 27.2896 28.882 27.0857 29.1303C26.9169 29.3809 27.4824 29.9943 27.7492 29.875L27.4626 30.6365C27.6339 30.6319 27.8853 30.5987 27.9228 30.7779L27.9036 29.9485C28.1395 29.9859 28.6272 29.9486 28.6692 30.1595L28.2875 30.0918C28.2289 30.4593 28.75 30.6849 28.4635 31.0688C28.619 31.0657 28.7743 31.0641 28.9194 31.0589L28.7805 31.5902C29.0556 31.0444 29.5755 31.8253 29.92 31.4927C29.266 31.9177 29.8844 32.8592 30.552 32.4599C30.5957 32.6312 30.5901 33.0522 30.7928 32.9832C30.5145 33.6081 31.3467 33.5528 31.3496 33.954L31.6503 33.7969C31.7146 34.1855 32.0804 34.1611 32.418 34.0834C32.4099 34.1334 32.3917 34.1811 32.3645 34.2239C32.3374 34.2667 32.3019 34.3037 32.2601 34.3326C32.2183 34.3615 32.171 34.3819 32.1211 34.3924C32.0712 34.4029 32.0196 34.4034 31.9694 34.3939C32.1872 34.5074 32.0349 34.8473 31.9903 35.0733C32.3347 34.8988 32.7156 34.9002 32.5296 35.3638C32.9574 35.1275 33.1803 35.6702 33.5259 35.6463C33.2016 35.8371 33.5473 36.1033 33.3153 36.3292C33.7538 36.3527 33.6899 35.8444 33.6758 35.4917C33.8417 36.0723 34.5949 35.6946 34.3788 36.2321C34.2169 36.0789 34.0225 36.1218 33.8451 36.2434C34.5069 36.6118 34.1361 36.8578 33.5588 37.0033C33.599 36.7994 33.4345 36.7301 33.2482 36.7087C33.0456 37.0678 33.6563 37.1299 33.9449 37.2222L33.939 36.9141L34.0943 36.9125C34.0006 37.3007 34.0805 37.6341 34.4946 37.7342C34.5388 37.6125 34.5753 37.5062 34.4484 37.3952C34.2647 37.164 34.7654 36.6521 35.001 36.6679L35.1693 37.2674C36.0372 36.4733 35.8981 38.2858 36.2612 38.3774L36.1737 37.9259L36.7071 37.916L36.7257 38.6701C36.9552 38.763 37.0054 38.0378 37.2442 38.131C37.2321 38.4355 37.1069 38.9448 37.4193 39.0341C37.2068 38.9722 37.1392 39.5191 37.0546 39.7203C37.4602 39.8556 37.462 39.3203 37.7293 39.2533C38.1456 39.248 38.1059 38.7506 38.0898 38.416C38.2679 38.4634 38.4463 38.5093 38.6245 38.5567L38.7627 37.9502L38.9965 38.1712C39.0212 38.0949 39.0723 38.0297 39.1407 37.9871C39.2092 37.9445 39.2907 37.9272 39.3709 37.9382L39.29 37.5632L39.6745 37.7818L39.7337 37.0261L40.2681 37.0901C40.2774 36.6423 39.8155 36.7844 40.0149 36.1194C39.8134 36.7088 39.0514 36.7226 39.5628 36.0547C39.051 35.8923 38.8182 35.6975 38.7816 35.2391C38.9148 35.224 38.9382 35.27 39.0155 35.4986C39.08 35.8551 40.0722 35.8605 40.0044 35.442L39.778 35.5217L39.7731 35.2951C40.0662 35.4589 40.0851 35.0252 39.8474 34.9184L40.2271 34.9105C39.9699 34.7062 40.2653 34.2689 39.9032 34.1253C39.8389 34.1038 39.7823 34.0641 39.7404 34.0111C39.6985 33.9581 39.6732 33.8941 39.6676 33.8271C39.6735 33.5459 39.2272 33.1694 39.2645 32.8545C39.2692 32.5715 39.0796 32.5509 38.8759 32.523C38.928 32.3062 39.0923 31.9289 38.7853 31.922C38.7845 32.6247 37.8916 32.8077 39.1166 33.0463C38.9249 33.1619 39.0479 33.3949 39.1288 33.5735C38.9216 33.6109 38.6025 33.6339 38.6799 33.8855C38.6036 33.8873 38.5246 33.8871 38.4513 33.8895C38.6955 34.3643 38.4282 34.6353 37.9383 34.7305L38.0787 34.1997C37.9001 34.1782 37.7218 34.1553 37.5446 34.1342C37.7034 33.8478 38.0364 33.9979 38.3054 34.1185C38.2345 33.5827 38.1813 32.808 37.5166 33.0037C37.6191 32.2566 38.0371 32.887 38.3446 32.6085L37.9604 32.4667C38.3286 32.1711 38.093 31.9358 38.0158 31.5967C37.9683 31.0917 37.4758 31.4043 37.2552 31.6508C37.2758 31.46 37.2247 31.2949 37.019 31.2773L37.2412 31.0465L37.4007 31.345L37.3935 31.0443C38.102 31.0107 37.6137 30.0534 37.2125 29.8408C37.5112 29.3165 38.1288 28.7938 38.0475 29.7476C38.9291 29.7006 38.4074 30.5154 37.6664 29.7553C37.5628 30.1308 38.6006 30.3294 38.2273 30.8389C38.1269 30.9158 38.1051 31.042 38.153 31.2156C38.2316 31.6025 39.0967 31.5768 39.1982 31.9498C39.2794 32.1193 39.3569 32.1975 39.4319 32.1708C39.6167 32.106 39.3854 31.8256 39.6133 31.7462C40.0774 31.4204 39.2052 31.1915 39.2006 30.6965C39.6836 30.6598 39.5372 30.2549 40.4101 30.3703L40.4042 30.0622C40.303 30.0883 40.203 30.1161 40.1015 30.1437C40.026 29.8587 39.9779 29.3643 39.6294 29.4735C39.71 29.7641 39.4373 29.8346 39.1814 29.8593L39.3777 28.5737C39.6705 28.6606 39.5409 29.0034 39.4704 29.2504C39.5467 29.2485 39.626 29.2472 39.699 29.2463C39.6723 28.9341 40.1301 28.8126 40.0595 28.4089C40.1853 28.6194 40.3676 28.7398 40.5981 28.6241C40.4457 29.0192 40.7917 29.4097 40.5498 29.7564C40.6765 29.7814 40.8033 29.8064 40.9315 29.824C40.9633 29.663 41.039 29.4048 40.8437 29.374C41.0864 29.1963 41.3008 29.6176 41.4635 29.8139C41.2349 29.8885 41.1338 30.0557 41.2462 30.2713C41.7753 30.0948 41.7134 29.6622 42.0619 29.3488C42.1236 29.8214 42.3782 30.51 42.6092 29.7162C42.7117 30.3594 44.3365 30.2994 44.0854 30.9282C43.8768 30.7996 43.245 30.7424 43.0863 30.4947C43.079 30.4621 43.065 30.4312 43.0452 30.4041C43.0254 30.377 43.0002 30.3542 42.9712 30.3371C42.9421 30.32 42.9099 30.3091 42.8765 30.3048C42.843 30.3005 42.8091 30.3031 42.7767 30.3124C42.7304 30.5473 43.0066 30.6079 42.8664 30.8396C43.7316 30.9151 44.5622 31.1189 44.2662 32.0933C44.3924 32.066 44.5186 32.0388 44.6443 32.0145C44.3048 31.6068 44.9275 31.3644 44.7731 31.0316C45.504 30.9242 45.1415 31.89 45.4824 32.1491C46.1391 33.046 46.2997 32.3103 46.0045 31.6858L46.5389 31.7498L46.3167 31.9807C46.968 32.08 46.7187 32.637 47.1031 33.0213L47.3182 32.4883C48.086 33.3089 47.9753 31.6787 47.3778 31.8094L47.4422 31.2789C47.9416 31.5907 48.176 30.9525 48.5153 31.3371C48.5235 31.2872 48.5417 31.2394 48.5689 31.1966C48.596 31.1538 48.6315 31.1169 48.6733 31.088C48.7151 31.0591 48.7624 31.0387 48.8123 31.0282C48.8622 31.0176 48.9138 31.0171 48.964 31.0266C48.9007 31.3472 48.8783 31.7279 49.2844 31.7037C49.3036 31.3238 49.0506 31.145 49.1847 30.7249C48.8725 30.8935 48.6725 30.5717 48.3433 30.5912C48.188 30.5928 48.1018 30.5588 48.0749 30.4829C47.6244 30.3158 47.5178 30.4712 47.411 29.7795C46.7628 30.2302 46.7023 29.2407 46.1095 29.5043L46.1788 29.2003C46.0025 29.23 45.825 29.2579 45.6487 29.2876C45.7348 29.4795 45.7094 29.6556 45.5062 29.7429C45.2586 29.427 45.5621 29.1923 45.5226 28.8745C45.5168 28.6447 44.8142 28.5383 44.7967 28.7758C44.6755 27.6469 44.2446 28.7389 43.7982 28.4176C43.9538 28.9409 43.7772 29.3097 43.2111 29.3361C43.3669 29.1044 43.4594 28.8364 43.4796 28.5583C43.4997 28.2801 43.4467 28.0013 43.3259 27.7489C43.5707 27.9768 43.8727 28.3387 44.1748 28.2602C44.2305 27.9781 43.8481 27.9686 43.8572 27.6635C43.5497 27.9573 43.4168 27.4845 43.1661 27.412C42.7645 27.1701 42.6293 27.8555 42.838 28.0225C42.9872 28.052 43.1205 28.5387 43.197 28.7318L42.8101 28.4391C42.7754 28.6148 42.5794 28.5639 42.4319 28.5179L42.5129 28.893L42.7351 28.6621C43.0083 28.848 43.1609 29.1896 42.7494 29.265C42.7614 28.9604 42.2585 29.1298 42.171 28.9375C42.1325 28.8102 42.0071 28.8254 41.9023 28.8308L41.9123 29.2824C41.4522 29.3682 41.565 28.9223 41.6688 28.6083C41.369 28.612 41.3315 28.3468 41.3506 28.0851C41.4268 28.0833 41.5061 28.082 41.5791 28.0811L41.5864 28.3817C41.9322 28.1998 42.0604 28.5474 42.3515 28.5174C42.2781 28.3003 42.2548 27.6174 42.0274 27.6938L42.0372 28.1469C41.73 28.0024 41.4223 27.8578 41.1141 27.7131L41.0573 28.5428C40.3877 28.3002 40.8835 27.7505 40.0993 28.2618C39.6171 28.248 40.0613 28.0225 39.9001 27.7007C39.8503 27.2305 40.2104 26.9132 39.7947 26.4522C40.3965 26.6768 41.0696 26.1083 40.4628 25.7599L40.3239 26.2911C40.1716 26.2304 39.8829 26.1703 39.9357 25.9966L40.2465 25.992L40.1653 25.6184C39.8444 25.6272 39.8232 26.025 39.486 25.8572L39.4951 26.235L39.1155 26.243C39.0342 26.4664 39.5912 26.3921 39.6176 26.5723C39.6441 26.7524 39.4551 26.8855 39.6684 27.0611L39.4395 27.0666L39.4417 27.2205C39.0645 27.1768 38.7298 27.0355 38.7429 26.6314L38.8981 26.6298C38.9032 26.5478 38.8912 26.4657 38.8631 26.3883C38.8349 26.311 38.7911 26.2401 38.7343 26.1801C38.8356 26.1771 38.9381 26.1758 39.0451 26.1754C38.9589 25.8269 39.292 25.5213 39.556 25.2588L39.2439 24.9639L39.2576 25.4914C38.7727 25.7027 38.4468 23.9227 38.1361 24.7591C38.1082 25.1204 38.3593 25.4339 37.8892 25.5944L38.0323 25.2144C37.9035 25.2175 37.7778 25.1746 37.678 25.0935C37.5782 25.0123 37.511 24.8985 37.4888 24.7726L37.942 24.6119L37.6341 24.4683C37.408 24.947 36.9242 24.3282 37.0478 25.4606C36.5922 25.0055 36.3091 25.608 35.753 25.4108C36.0524 25.5896 36.2138 26.1616 35.929 26.3878C36.2241 26.4629 36.2384 27.3957 35.8762 27.3702C36.1202 27.6256 35.8081 27.9354 35.9753 28.2738C35.5481 28.122 35.649 29.1424 35.9182 29.105C35.9489 29.4364 35.83 30.2432 36.3207 30.0024C36.4498 30.3532 36.3057 30.7222 36.1117 31.0615C36.41 31.1203 36.1419 32.0711 36.5244 32.1113C35.7329 31.9842 36.0152 32.7444 35.1654 32.5905C35.1751 32.5144 35.2092 32.4435 35.2628 32.3882C35.3164 32.333 35.3866 32.2965 35.463 32.284C35.9925 32.0662 35.3106 31.2503 35.0706 31.8383C35.0127 31.4954 34.6516 31.4333 34.7465 31.0147C34.5692 31.0181 34.3919 31.0215 34.2143 31.0263L34.2793 30.5711C33.9355 30.6567 33.7694 30.36 33.6574 30.0555L33.6687 30.5089L33.4401 30.513L33.6803 30.9608L32.9195 30.9765C33.0401 30.632 32.8633 30.4053 32.5219 30.3057L32.7392 29.8483C32.6881 29.8244 32.637 29.8005 32.5863 29.7751C32.5309 30.0558 32.3456 30.2095 32.062 30.1627L32.0561 29.8547C31.7885 29.9231 31.5165 29.9431 31.2932 29.7947C31.5622 29.5071 31.1227 29.2454 31.274 28.9653L30.7385 28.8995C30.7554 28.6804 30.9374 28.6764 31.1154 28.7406L31.1132 28.5867L30.8846 28.5907L30.8797 28.3642C30.7884 28.3783 30.7018 28.4133 30.6269 28.4667C30.552 28.5201 30.4909 28.5903 30.4484 28.6715C30.406 28.7528 30.3835 28.8429 30.3827 28.9345C30.3819 29.0261 30.4029 29.1167 30.4439 29.199C29.5282 28.7114 31.2078 28.1388 29.7131 27.3268L29.6532 28.0071C29.835 27.934 30.0105 27.9318 30.0371 28.1504C29.1535 28.4119 29.2702 27.2625 29.3933 26.6545L29.248 26.9588C29.0076 26.6536 28.5478 27.1153 29.0051 26.3599C28.5084 26.5688 28.0664 26.1149 28.1495 25.6233C28.055 25.8978 27.2783 25.9548 27.0121 25.7964C26.637 25.6871 26.7481 25.399 26.4686 25.3546C26.1493 25.3239 26.0152 24.1187 26.5212 24.3736C26.4779 24.2238 26.4376 24.1453 26.2102 24.1588C25.7867 24.1458 25.9345 23.2005 25.3598 23.6473C25.2768 23.2825 24.823 23.4385 24.8132 23.056C24.6868 23.1078 24.5619 23.1599 24.4366 23.2134L24.7299 22.7557C24.2574 22.7162 24.3867 22.4455 24.1822 22.1626C24.023 21.9486 23.7564 22.114 23.6805 21.8703C23.6046 21.6267 23.1794 21.9127 23.1785 21.5795C23.2535 21.5528 23.33 21.5264 23.4053 21.4983C23.2277 21.5032 23.0503 21.5066 22.873 21.51L22.8639 21.1322L22.3344 21.2948C22.5175 21.05 22.4078 20.6954 22.3131 20.3897L21.7861 20.6264L21.6964 20.0992C21.5699 20.1279 21.4436 20.1552 21.3182 20.1781C21.4973 20.1029 21.6643 19.9947 21.614 19.7944C21.4887 19.848 21.3641 19.8986 21.2371 19.9534C21.1661 19.6769 20.9833 19.5273 20.6897 19.586L20.6849 19.3594C20.2906 19.3783 20.3066 18.5513 19.8991 18.3942L19.756 18.7742C19.3136 18.6132 19.2916 18.2221 19.4289 17.8011L18.9046 18.1887C18.9151 17.3498 18.34 17.2962 18.3376 16.7663C17.9565 16.8446 18.1583 17.2435 18.2799 17.5222C17.811 17.5034 17.8063 16.7812 17.4613 16.7469C17.4113 16.7651 17.3561 16.7643 17.3065 16.7446C17.2569 16.7249 17.2163 16.6877 17.1927 16.6401C17.1082 16.3534 17.304 16.0759 17.0197 15.8126C16.9501 15.8774 16.8626 15.9203 16.7682 15.9358C16.6739 15.9513 16.577 15.9388 16.4896 15.8998L16.7832 15.4406C16.5045 15.447 16.2247 15.4516 15.9461 15.458L16.392 14.9967C16.2362 14.8984 16.082 14.8005 15.9275 14.704C15.7755 14.9011 16.1801 14.9947 16.0923 15.2275C15.7698 15.3619 15.8838 14.7138 15.6248 14.7854C15.687 14.7133 15.7263 14.6245 15.7377 14.5301C15.7492 14.4357 15.7323 14.34 15.6892 14.2549L15.0834 14.4193C15.401 13.9955 15.0684 13.0505 14.4545 13.6016L14.5159 12.9998C14.169 13.0695 14.1954 12.1815 14.5805 12.5076C14.7094 12.6866 15.3673 12.4465 15.4987 12.7149C15.5488 12.7868 15.6194 12.8424 15.7014 12.8744C15.7835 12.9064 15.8732 12.9135 15.9591 12.8947L15.873 12.4434C16.0489 12.3922 16.2665 12.7344 16.4165 12.8852C16.1238 11.942 17.0236 12.2116 16.6457 12.9565C16.7799 12.9677 16.808 12.9195 16.8666 12.6932C16.9634 12.2811 17.379 12.5856 17.6196 12.3399L17.8649 13.0129C18.3543 12.4097 18.599 13.0381 19.2318 12.9097L19.1454 12.4599C19.4718 12.4705 19.8535 12.5152 19.7652 12.8999C20.2272 13.0478 20.6796 11.9799 20.9789 12.7249C20.8014 12.7528 20.6236 12.7822 20.4476 12.8104C20.8601 12.9501 21.6905 13.3196 21.585 12.6373C21.7108 12.8478 21.8931 12.9682 22.1236 12.8525C22.0889 13.0283 22.2015 13.1488 22.3601 13.2246C22.4223 13.1527 22.4616 13.0641 22.473 12.9699C22.4844 12.8758 22.4674 12.7803 22.4242 12.6955C22.6026 12.7414 22.7807 12.7888 22.9607 12.8351L22.737 13.0656C23.0792 13.0902 23.0891 12.7653 23.3774 12.7884C23.4387 12.8079 23.5047 12.8067 23.565 12.785C23.6254 12.7633 23.6767 12.7223 23.7109 12.6685C23.6692 13.0685 24.814 13.3604 25.0125 12.9437C25.0485 13.201 26.3929 13.4708 26.3073 12.9935C26.4381 13.116 26.5686 13.2399 26.6994 13.3624C27.0296 12.6863 27.7805 13.6632 27.982 12.885L28.3681 13.104C28.4047 12.6278 28.7464 12.8041 28.8202 13.1686C28.8882 12.9886 28.9905 12.8155 29.1913 12.8581C29.0504 13.0774 29.3136 13.2045 29.5059 13.3054C29.5259 13.2757 29.5396 13.2423 29.5463 13.2073C29.553 13.1722 29.5525 13.1362 29.545 13.1012C29.5375 13.0663 29.523 13.0332 29.5023 13.0039C29.4817 12.9745 29.4554 12.9495 29.425 12.9303L30.0262 12.6162L30.1858 12.9147L29.656 13.0005C30.1493 13.4293 31.965 12.8422 32.5557 13.3194C32.5535 13.1501 32.5747 12.9011 32.3934 12.8699L32.7715 12.791L32.6972 13.1677C32.9597 13.2195 33.1125 13.0103 33.22 12.7798C33.3703 13.2115 34.1408 13.4218 34.4452 13.0568C34.5232 13.1566 34.6014 13.2549 34.6811 13.3535C34.6797 13.0463 35.1804 13.1788 35.4373 13.1881L35.354 12.8877C35.8376 12.7929 37.4457 13.1162 36.9404 12.4027C37.0429 12.4014 37.1442 12.3984 37.2512 12.3981C37.1758 12.6702 37.1975 13.0627 37.5343 13.0678C37.7164 13.0715 37.6564 12.5747 37.8647 12.5713C38.1481 12.5719 38.263 13.144 38.6323 12.8194L38.7156 13.1197C38.8615 13.0718 39.0591 13.0126 39.0974 13.1874L39.0922 12.9623C39.456 13.0663 39.8547 13.4642 39.8481 12.7201C40.0941 12.7302 40.1284 13.0194 40.1649 13.243C40.631 12.9774 41.0421 13.3439 41.4576 13.2172L41.219 12.7696C41.3745 12.7665 41.5298 12.7649 41.6749 12.7598L41.6862 13.2132L42.8281 13.1899C42.6477 13.1542 42.668 12.9097 42.6643 12.7401C42.8289 12.6913 42.8653 12.8995 42.9002 13.0368C43.0014 13.0107 43.1014 12.9829 43.2029 12.9554L43.2078 13.1819C43.4404 13.2278 43.59 13.09 43.6579 12.8717L43.2768 12.8793C43.9605 11.9661 43.3935 13.7249 44.8075 13.2259L44.7193 12.699L44.9558 13.071C45.2468 12.7739 45.4957 13.044 45.7877 12.8284C45.7596 13.1988 46.3882 13.3505 46.1695 12.8961C46.2176 12.8993 46.2658 12.8906 46.3097 12.8709C46.3536 12.8511 46.3919 12.821 46.4212 12.7831C46.4504 12.7451 46.4697 12.7006 46.4774 12.6534C46.4851 12.6062 46.4809 12.5578 46.4652 12.5125C46.5775 12.5009 46.6184 12.5212 46.6583 12.704C46.7352 12.9816 47.622 12.7515 47.3957 13.2547C47.0001 12.9035 46.0944 13.9601 45.7239 13.3637C45.6968 13.5717 45.6872 13.8875 45.4303 13.823L45.5002 13.5943C45.4489 13.6819 45.3662 13.7472 45.2685 13.7774C45.1708 13.8075 45.0651 13.8003 44.9723 13.7571C45.4775 13.9688 45.04 14.4979 44.6768 14.1393C44.5568 14.4809 44.2524 14.186 44.0763 14.5288C44.007 14.8328 43.0656 14.7038 42.9823 14.8899C42.9711 15.0412 42.1434 15.2155 42.1148 15.3603C41.9744 15.5459 41.7426 15.2362 41.5856 15.5214C41.3873 15.8275 40.7416 15.5974 40.6843 16.0296C40.4466 15.7893 39.9155 15.9991 39.9317 16.3415C39.7214 16.1112 39.2151 16.0466 39.1733 16.4312C38.7086 16.0771 38.2925 16.5444 37.9636 16.7588C37.7058 16.8323 37.7508 17.1696 37.3605 16.9959L37.2859 17.374C36.1542 16.8899 36.7252 17.6793 36.699 18.2911C36.5511 18.6793 36.9569 18.6335 36.9419 18.8899C36.8394 18.8911 36.7381 18.8942 36.6311 18.8946C36.5958 19.4109 37.2117 20.9703 37.646 19.9312C37.4875 20.3419 37.7838 20.6229 38.1916 20.4486L38.1996 20.8246C38.6157 20.6397 38.6559 20.9699 38.9646 20.9602L38.8926 21.1132C38.9424 21.1123 38.9939 21.1102 39.0481 21.1102C39.1318 20.6863 38.6466 20.546 38.6436 20.1372C38.7988 20.1356 38.9469 20.1311 39.0992 20.1289C39.0207 20.5738 39.603 20.6227 39.2056 21.3331C39.7531 21.5347 40.2024 19.6344 40.343 21.16L40.6464 21.1539C40.7742 21.5505 40.2759 21.6256 40.3622 21.9895C40.6038 22.0294 40.4944 21.6334 40.8123 21.6792C41.1302 21.7251 41.0881 21.1612 41.333 21.2157L41.2587 21.5923L41.4851 21.5127L41.4924 21.8134C41.7491 21.5571 41.9113 21.7088 42.1739 21.6502C42.3377 21.5029 42.7329 21.8248 42.7818 21.5613L42.8608 21.7105C42.6019 21.7269 42.5083 21.9263 42.4909 22.1715L43.0985 22.0842L43.0335 22.5318L43.3313 22.2238L43.4125 22.4485L43.6368 22.2933C43.7096 22.9215 44.4027 22.6285 44.6795 22.875C44.7168 23.0235 44.7741 23.0317 44.8736 23.0222L44.8 23.175C45.1415 23.1641 45.0909 23.5071 45.0429 23.7738C45.2288 23.6877 45.2779 23.7296 45.4309 24.0299C45.5452 24.4714 46.0088 24.2974 45.9788 24.6614L46.2752 24.353C45.8355 24.0683 46.6664 23.9407 46.5062 24.4232L46.8068 24.2661L46.8879 24.4908L46.9622 24.1142C46.7679 24.2431 46.6163 24.069 46.4999 23.8971L46.9528 23.7379C46.8948 24.2988 47.4465 23.9687 47.6536 24.3641C47.8043 24.7468 48.2869 24.4215 48.4235 24.7262C48.5029 24.9445 48.7127 24.8707 48.8818 24.8304C48.6122 25.3405 49.3544 26.0241 49.3483 25.1988C49.944 25.2503 50.2634 25.7599 50.879 25.5453C50.8968 25.6451 50.8861 25.7478 50.8482 25.8417C50.8102 25.9356 50.7465 26.017 50.6642 26.0768L50.8955 26.2237L50.8897 25.9157C50.9907 25.9141 51.092 25.9111 51.193 25.9095L50.9544 25.4619C51.4143 25.2749 51.1907 26.2513 51.579 26.1284L51.5849 26.4365C51.9497 26.3074 52.3539 26.4655 52.7317 26.6397L52.7216 26.1881L52.9487 26.1838C52.9368 26.3226 52.9971 26.3315 53.2583 26.3661C53.661 26.375 53.666 26.7105 54.0238 26.5386L54.0357 27.0673L54.3384 26.9859C54.1473 27.3733 54.7977 27.3835 54.664 27.8098C54.9135 27.6288 55.0295 28.0461 55.1315 28.2519C55.3077 28.2145 55.2472 28.0185 55.1983 27.8738L55.578 27.8658C55.5569 28.1532 55.4273 28.6294 55.823 28.5402L55.742 28.1652C56.3072 27.8531 56.5765 29.0404 57.1202 28.5154L57.2035 28.8157C57.2945 28.5113 58.0951 28.6708 58.0839 28.9479C58.0329 29.1435 58.3391 29.7196 58.5932 29.6178L58.433 29.244C58.6605 29.2137 58.8887 29.1804 59.1153 29.1545C58.3319 29.913 59.7522 29.8066 60.05 30.0403C60.1032 30.1398 60.193 30.1636 60.3183 30.1101C60.6304 29.989 60.7445 30.7297 61.131 30.5773C61.4139 30.5334 61.4495 30.4867 61.429 30.3077C61.8338 30.4551 61.8396 29.5462 62.0372 30.2957L61.8087 30.2997C61.8555 30.7693 62.3198 30.772 62.7333 30.7338L62.7382 30.9604C62.9644 30.9759 63.1839 30.9394 63.2652 30.7237C63.2999 30.8226 63.3324 30.9564 63.4617 30.9451C63.7225 31.084 63.6905 31.4506 64.2359 31.4585C64.827 31.3526 65.1191 32.4246 65.4253 31.8466C65.8584 31.2768 65.6654 32.3022 65.9713 32.4009C65.7866 32.5517 65.5766 32.7681 65.368 32.6395L65.4486 32.7888C65.2845 32.8347 65.2236 32.8765 65.3034 33.1316C65.3588 33.3068 65.2864 33.4459 65.0863 33.5492C64.7407 33.6514 64.6266 34.1905 64.3419 34.2433C64.1556 34.1666 63.8691 35.2104 63.716 35.1618C63.2611 35.2684 63.2752 35.9036 62.7861 36.0112C63.1608 36.303 62.4459 36.8556 62.1186 36.7788C62.3063 36.9508 62.2519 37.2654 62.2135 37.531C62.1099 37.4829 62.008 37.4337 61.9059 37.3859C61.8039 37.9029 61.1407 37.8166 60.7682 37.5605C60.8343 38.0109 60.6903 38.4107 60.177 38.3263C60.1548 37.9521 60.5418 38.1266 60.5829 37.7925C60.6441 37.4823 60.4684 37.3755 60.2321 37.4977C60.2493 37.1435 59.7429 37.1495 59.6095 36.9068C59.5896 36.8555 59.556 36.8105 59.5122 36.7767C59.4685 36.7429 59.4163 36.7215 59.3613 36.7149C59.3062 36.7083 59.2505 36.7168 59.2001 36.7393C59.1497 36.7619 59.1065 36.7976 59.0752 36.8428C59.3573 36.1511 58.2732 36.3132 58.0657 36.0298C57.7184 36.0702 57.7722 36.6456 58.1186 36.5942C58.1747 36.5789 58.2342 36.5811 58.2892 36.6004C58.3441 36.6198 58.3918 36.6554 58.4257 36.7024C58.4736 36.7666 58.5005 36.8438 58.5028 36.9234C58.5051 37.0031 58.4828 37.0814 58.4388 37.148C58.3947 37.2145 58.3312 37.266 58.2566 37.2955C58.182 37.3251 58.1 37.3313 58.0217 37.3133L58.0308 37.691C58.2931 37.6261 58.3964 37.8169 58.4228 38.06C57.9965 37.9513 57.9664 38.481 57.9092 38.8257C58.1648 38.8577 58.3679 38.7627 58.4356 38.5137L58.5241 39.0391L58.2162 38.8955C58.0932 39.2595 58.765 39.389 58.6928 39.7154C59.1194 39.7996 58.7781 38.592 59.3539 38.7209C59.2246 39.1482 58.8605 40.169 59.607 39.6917L59.8521 40.3661C59.9842 39.9318 60.842 39.8018 60.6891 40.3487C61.0484 40.24 60.9677 40.6568 61.3047 40.6374C61.6206 40.6537 61.6493 40.3984 61.4478 40.2574C61.7511 40.2436 61.9717 40.1152 61.8937 39.7959C62.1384 39.8043 62.4126 39.7971 62.497 39.5575L62.6566 39.8559C62.8748 39.6688 63.3279 39.4221 63.2484 39.1655C63.4039 39.1624 63.5592 39.1608 63.7043 39.1557C63.5337 38.858 63.8392 38.7941 63.8421 38.5123C63.845 38.2305 64.4038 38.1627 64.4353 37.862C64.5448 37.4953 64.9019 37.5074 64.9485 37.0593C65.0164 36.7151 65.1543 36.6994 65.3969 36.7104C65.347 36.5471 65.557 36.5118 65.6969 36.478L65.5309 35.9527C65.8225 36.0455 65.8916 35.6954 66.0946 35.6403C66.1709 35.6384 66.2577 35.5359 66.3534 35.3338C66.5335 34.8921 66.9137 34.9287 67.095 34.4887C67.2318 34.0937 67.6174 34.024 67.6061 33.6104C67.5815 33.3263 67.8432 33.1309 68.0442 32.9603C67.515 32.5014 68.747 31.6211 68.6086 31.1365C68.5069 30.7803 68.8545 30.5496 68.511 30.2332C68.6364 30.1552 68.7615 30.0786 68.8855 30.0002C68.795 30.1604 68.7145 30.3486 68.897 30.4521C69.0552 30.3023 69.2481 30.1178 69.1122 29.9191C68.8242 30.1692 68.6563 29.3949 68.4173 29.4751L68.4824 29.0275C67.803 28.9365 68.6831 30.0754 68.3605 30.3125C67.32 30.8745 68.0339 29.4393 67.5742 29.2719L67.2879 30.0319C67.0715 29.6991 66.7019 29.8134 66.3697 29.9735L66.3609 29.6724L66.1387 29.9033C65.9292 29.6379 65.6236 29.6084 65.5882 29.1594L65.9693 29.1517L65.9606 28.8507L66.8809 29.1336C66.7555 29.4158 66.1604 28.9608 66.1296 29.5256C66.361 29.2397 66.9113 29.8516 67.156 29.4672C67.1709 29.266 66.8686 29.1649 66.9565 28.9075L67.4958 29.1981C67.6742 28.7729 67.5386 28.4392 67.0948 28.301C67.0332 28.4638 66.9937 28.8136 66.8015 28.7588L66.9352 28.0025C66.4355 27.8257 66.0674 28.2073 66.2657 28.6945L65.886 28.7025C65.6868 28.1414 66.443 27.6936 65.7814 27.4971C65.8394 27.6743 65.5548 27.6949 65.4054 27.7299C65.4678 27.3509 65.1408 27.1466 64.7853 27.2131L64.7902 27.4397C64.7534 27.44 64.7171 27.4319 64.6839 27.4162C64.6507 27.4004 64.6216 27.3772 64.5988 27.3486C64.576 27.3199 64.5602 27.2865 64.5524 27.2508C64.5447 27.2152 64.5454 27.1783 64.5543 27.143C64.1743 27.1371 64.0267 27.398 64.0364 27.7575L64.6449 27.744L64.5703 28.1222C64.4434 28.0741 64.315 28.0258 64.1864 27.9789C64.2217 28.2084 64.3254 28.5388 64.1266 28.6592C64.0146 28.3547 63.8509 28.0539 63.5046 28.1436C63.7038 28.8228 62.6582 28.6718 62.8195 28.0821C62.9727 28.1538 63.1274 28.2258 63.2803 28.2989L63.3468 27.8439C63.45 27.918 63.5531 27.9921 63.6578 28.0587C63.9884 27.4902 64.0125 26.8182 63.1769 27.0876L63.3228 26.8586L63.0222 27.0156L63.013 26.6379L62.6334 26.6459C62.9335 26.5224 62.6251 26.2713 62.3975 26.3491L62.5756 27.4018L62.3443 27.2548L62.3492 27.4814C61.5452 27.6297 62.2231 25.5444 61.3289 26.37C61.3665 25.3938 60.6802 25.9351 60.9544 26.6031C60.5741 26.6692 60.3456 26.2958 60.406 25.9348C60.1857 25.9757 60.0714 26.2877 59.7241 26.2498L60.1367 27.2996C59.9152 27.4094 59.7062 27.3221 59.5243 27.1603L59.8218 26.8538C59.5737 26.8233 59.3744 26.8991 59.3717 27.164C59.3726 26.822 59.0707 26.7026 58.7513 26.6488L58.8944 26.2688L58.7443 26.3466L58.661 26.0462C58.7879 26.0943 58.9162 26.1426 59.0449 26.1895L59.0333 25.7376C58.6247 26.0729 58.1321 26.4729 57.6737 26.1415L57.6796 26.4496C57.3859 26.4853 57.1474 26.1389 57.1319 25.8566C56.6507 26.222 55.9043 25.7955 55.8233 25.2792C55.6734 25.3325 55.5219 25.3855 55.3716 25.4403C55.0843 24.894 55.5042 24.4934 55.2585 23.9324C55.0966 23.457 54.5278 23.489 54.6208 24.023C54.629 24.5234 54.95 24.3104 54.9797 24.6938C55.0221 24.9109 54.6949 25.1947 54.5329 25.0814C54.4607 24.7955 54.4712 24.6089 54.0636 24.5622L54.2809 24.1047L53.7471 24.1161C54.0202 23.8631 53.5988 23.2581 53.8741 23.0561C53.3459 23.024 53.3455 24.0077 52.7508 23.8336L52.9104 24.1321C52.5456 24.2136 52.0606 23.8524 51.6802 23.6285C51.8593 23.5534 52.0263 23.4451 51.9757 23.2463L52.2829 23.3146L52.0673 23.622L52.3782 23.8368L52.515 23.23C52.6928 23.46 53.0856 23.6603 53.1639 23.2552C53.1857 22.9173 52.4026 22.8257 52.5721 22.3987C51.878 22.6577 51.4138 21.7589 50.8809 21.7581C50.8917 21.7927 50.8945 21.8292 50.8889 21.8649C50.8834 21.9006 50.8697 21.9346 50.8489 21.9642C50.8281 21.9938 50.8008 22.0183 50.769 22.0359C50.7372 22.0534 50.7017 22.0636 50.6653 22.0655L50.5841 21.6919C50.2619 21.7542 50.5194 22.2239 50.3342 22.3378C49.9889 22.4231 49.6602 21.6309 50.1263 21.6246C49.8863 21.2703 48.6079 21.6397 48.8126 20.8222C48.301 21.1218 48.0773 20.6617 47.629 20.6562C47.1 20.5963 46.8242 19.8973 46.1351 20.2724L46.0057 19.7343C45.7983 20.0003 45.2115 19.6835 45.0996 20.0543C45.0938 19.7462 44.7619 19.7084 44.482 19.69L44.4914 20.0663L44.1103 20.074C44.0793 19.8146 44.1041 19.5479 44.4015 19.5406C44.072 18.5793 43.525 19.7421 42.799 19.3457L43.0117 18.7385C43.2314 18.8187 43.2628 19.0366 43.254 19.262C43.379 19.233 43.5053 19.2057 43.6306 19.1829C43.3984 19.0404 43.4212 18.807 43.5403 18.5803C43.2143 18.5835 43.1855 18.2034 42.8491 18.2905L42.8543 18.5156C42.3874 18.2117 42.1503 18.3767 42.3315 18.9035C42.1759 18.9066 42.0204 18.9097 41.8741 18.913C41.9821 18.2238 42.1184 17.4389 41.901 16.8758C42.0927 17.1607 42.3329 17.4827 42.6734 17.3121L42.602 17.5404C42.7511 17.5699 42.9091 17.6333 42.9801 17.4616C43.0618 17.2598 43.6991 17.3042 43.9652 17.2907C43.7558 17.1113 43.9308 16.9156 44.1056 16.7598L44.3412 17.058C44.5064 16.7468 44.9433 16.9435 45.2546 17.0386L45.2482 16.8118C45.4517 16.809 45.6541 16.8044 45.8564 16.7998C45.7264 16.4457 45.8325 16.3869 46.2678 16.4896C46.4975 16.535 46.6489 16.482 46.7207 16.3304C46.9395 15.9438 47.9207 16.2403 47.9597 15.6265C48.372 16.2618 49.5304 14.5137 49.116 16.206L49.2712 16.2044C49.0891 15.8078 49.8935 15.4064 49.7012 15.0615C50.0393 15.0131 49.9938 15.3847 50.4246 15.0861C50.9261 14.8535 50.6988 14.4818 51.3243 14.5392C51.8406 14.6242 51.6591 14.3582 52.0075 14.3671C52.0678 14.3828 52.1306 14.386 52.1921 14.3767C52.2536 14.3674 52.3125 14.3457 52.3651 14.313C52.4177 14.2802 52.463 14.2371 52.4981 14.1863C52.5332 14.1355 52.5574 14.0781 52.5692 14.0175C52.6057 13.6442 53.7449 13.9256 53.6996 13.5423L54.2431 13.9841L54.4625 13.6023C54.385 13.5793 54.3092 13.5551 54.2319 13.5307C54.2998 13.0054 55.2628 12.8839 55.5303 12.4471C55.7878 12.0606 55.9827 12.2509 56.1675 11.982C56.2603 11.7471 56.637 11.7539 56.6485 11.4446C56.6277 11.1336 57.1095 11.2286 57.0496 10.982C56.9486 10.9836 56.8473 10.9866 56.7463 10.9882C56.9952 10.3314 56.2915 10.3168 56.0319 9.79446L55.7341 10.1025C55.6581 9.90642 55.5947 9.70976 55.3084 9.80981C55.1319 9.864 55.0302 9.85314 55.0046 9.77902C54.9556 9.62664 54.4704 9.68284 54.2802 9.68062C54.3746 9.98775 54.023 10.0733 53.7584 10.1424C53.689 9.88927 53.639 9.51417 53.288 9.58916C52.8849 9.68458 52.8783 9.41934 52.5257 9.60452C52.3093 9.79816 51.8483 9.54305 51.7696 9.80836C51.8721 9.8071 51.9735 9.80405 52.0804 9.80367C52.1467 10.0331 51.9058 10.0761 51.7093 10.1141C51.7774 9.6825 50.8203 9.1223 50.7877 9.82947C50.6181 9.29112 49.7329 9.4817 49.4947 9.85672C49.4459 9.20868 46.7524 9.56433 46.5143 9.35007C46.3398 9.11921 46.0505 9.28154 46.0615 9.54767C45.8653 9.39598 45.6201 9.32032 45.3721 9.33493C45.4232 9.35881 45.474 9.38422 45.5251 9.40811L45.377 9.56151C45.3144 9.22689 44.7877 9.54037 44.6507 9.42586C44.5927 9.30391 44.1342 9.49128 44.0775 9.32355C43.9886 9.17711 43.5831 9.27666 43.391 9.30014C43.4447 9.37365 43.4966 9.44834 43.5485 9.52304C43.2232 9.42049 42.7141 9.20492 42.4773 9.24261L42.4795 9.39651C42.2938 9.39517 41.982 9.45186 41.943 9.25694L42.0242 9.63048L42.2507 9.55091L42.0334 10.0083C41.7546 9.85048 41.6069 9.61722 41.7884 9.33381C41.633 9.58707 41.2748 9.58083 40.9654 9.57811L41.1876 9.34725C40.9667 9.20238 40.625 9.15952 40.8107 9.50615C40.5997 9.49982 40.1575 9.37734 40.1283 9.59565C39.8861 9.48034 39.4563 9.2006 39.2821 9.23529C39.3524 9.95509 38.65 9.29778 38.3346 9.40435C38.0708 9.54722 37.6963 9.17565 37.4578 9.34804C37.5091 9.49629 37.7286 9.92324 37.6249 9.98564C37.4664 10.0035 37.0812 9.16784 36.8087 9.28443C36.2896 9.30018 36.5388 9.71 36.8597 9.81167C36.4464 10.0371 36.4167 9.52016 36.1722 9.36911C35.8594 9.38411 35.0454 9.3002 34.9628 9.6952C34.7841 9.58781 34.6014 9.44589 34.7227 9.2473C34.3659 9.38256 34.4014 9.11639 33.8464 9.22788C33.1699 9.24789 33.433 9.4855 32.8216 9.32498C32.413 9.13388 32.2883 9.49137 32.0221 9.34063C31.9214 9.16732 31.0688 9.36587 30.9556 9.24839C30.8782 9.2009 30.7781 9.2134 30.6524 9.29296C30.3543 9.47662 30.3975 9.21042 30.0442 9.30492C29.6909 9.39941 29.8181 9.19432 29.5088 9.19928C29.2425 9.16669 28.7627 9.83933 28.4955 9.74826C28.5621 9.56803 28.6641 9.39637 28.8664 9.43934C28.8615 8.94576 28.6179 9.32428 28.2535 9.26311C27.8449 9.19785 27.6883 9.43401 27.7333 9.76362C27.6307 9.76488 27.5294 9.76793 27.4224 9.76831L27.6446 9.53744C27.5436 9.539 27.4423 9.54198 27.3338 9.54206L27.3244 9.16576C27.1828 9.6243 26.9016 9.2665 26.6499 9.63119C26.5082 9.46972 26.3602 9.23034 26.0323 9.26692C26.0477 9.3121 26.0516 9.36025 26.0438 9.40722C26.036 9.4542 26.0167 9.49849 25.9875 9.53623C25.9583 9.57398 25.9202 9.60407 25.8765 9.62373C25.8328 9.6434 25.7848 9.65205 25.7369 9.64902C25.8422 9.33524 25.4038 8.87127 25.2327 9.28257C25.1982 9.54431 24.5799 9.92107 24.4417 9.60068C25.7662 9.4768 23.3306 8.70624 23.4502 9.54475C23.3492 9.5463 23.2479 9.54928 23.1394 9.54936L23.1303 9.17162C22.8357 9.15648 22.5092 9.17795 22.4483 9.48667L22.751 9.40522C22.8257 9.58417 22.8283 9.75965 22.6079 9.78522L22.7675 10.0838C22.098 10.3353 22.4855 9.54927 22.0644 9.34342C22.2547 9.31344 22.4182 9.23064 22.4353 9.0345C22.006 9.00351 21.706 9.70701 21.3696 9.05594L21.0735 9.36283C20.8204 8.72972 20.6198 9.53418 20.4723 9.67696C20.2404 9.53299 19.936 8.90816 19.4295 9.05682C18.7434 9.12558 17.8885 8.62853 18.0356 9.65044C17.7271 9.64329 17.8914 9.26599 17.9449 9.04943C17.6831 9.15124 17.4805 8.63093 17.2513 8.68546L17.3416 9.28791C16.9873 9.37147 16.9982 8.67232 16.5304 8.81328C16.3028 8.84358 16.1632 8.82066 16.1098 8.74567C16.0564 8.67069 15.9179 8.67405 15.6911 8.75516C15.2332 8.97173 14.6076 8.44311 14.2069 8.74618L14.2048 8.59229C13.7092 8.74774 13.2093 8.50177 12.7975 8.65686C12.5101 8.84878 12.5439 8.48105 12.226 8.63164C11.8695 8.86822 10.616 7.81524 10.6263 8.58766C10.3381 8.3052 9.88797 8.15189 9.63634 8.53194L9.63267 8.37776L9.25302 8.38573L9.24935 8.23154C8.96538 8.37502 8.81031 8.15566 8.56397 8.24978C8.51918 8.27572 8.46577 8.28296 8.41548 8.26987C8.36518 8.25678 8.32211 8.22446 8.29573 8.18C8.17572 8.00286 7.96164 8.11412 7.80104 8.18986L7.79616 7.96327C7.69466 7.99082 7.59345 8.01688 7.49344 8.04472C7.62151 7.82751 6.61692 7.77515 6.57305 7.7619C6.4634 7.76789 6.28628 8.2808 6.20834 8.44804C6.05543 8.3749 5.90075 8.3029 5.74605 8.23094C5.71498 8.34912 5.68748 8.46494 5.52385 8.46181C5.30944 8.43332 5.36908 8.77503 5.18875 8.77014C4.53824 8.85511 4.17648 10.3353 4.60036 10.755ZM5.6025 11.2597C5.67849 11.2593 5.75777 11.258 5.83107 11.2556L5.83692 11.5637C5.6744 11.6099 5.63651 11.4014 5.60191 11.2626L5.6025 11.2597ZM5.67212 11.0324L6.04442 10.6455L6.04929 10.8721C6.08412 10.8615 6.12095 10.8589 6.15699 10.8646C6.19304 10.8702 6.22735 10.8838 6.25731 10.9045C6.28728 10.9252 6.31212 10.9524 6.32995 10.984C6.34778 11.0156 6.35812 11.0508 6.3602 11.0869L5.67212 11.0324ZM6.17997 9.96629L6.1763 9.8121C6.25389 9.83508 6.32224 9.8578 6.40729 9.88225C6.33023 9.91155 6.25586 9.9429 6.17938 9.96924L6.17997 9.96629ZM6.28912 11.3215L6.58974 11.1644L6.59191 11.3183C6.49001 11.3243 6.38958 11.3228 6.29303 11.3253L6.28912 11.3215ZM7.60307 13.7092C7.82226 13.8077 7.92426 13.5577 8.01416 13.4005C7.83371 13.302 7.65447 13.2052 7.47373 13.1082C7.4505 13.3123 7.36615 13.6456 7.60248 13.7122L7.60307 13.7092ZM7.81986 11.6679L7.81496 11.4414L8.04204 11.4371L7.81986 11.6679ZM7.98157 12.0421L8.05118 11.8149L8.21076 12.1134C8.13437 12.0922 8.0568 12.0692 7.98099 12.045L7.98157 12.0421ZM8.16949 13.5478L8.24365 13.4704L8.09532 13.6253L8.16949 13.5478ZM8.49826 14.5595C8.5251 14.5648 8.54933 14.5835 8.57472 14.5961C8.67392 14.4546 8.63614 14.1355 8.63456 13.9158C8.36504 13.8918 8.36492 14.4657 8.49767 14.5625L8.49826 14.5595ZM9.18536 14.6582L9.4203 14.8811C9.5013 14.1329 8.68576 14.0333 9.18478 14.6612L9.18536 14.6582ZM9.34919 15.108L9.42306 15.0321L9.27503 15.1855L9.34919 15.108ZM9.69556 15.2531C9.88152 15.2529 9.90619 14.9708 9.7255 14.9521L9.58023 15.2564L9.69556 15.2531ZM9.84601 8.8358L9.87515 8.68809C9.95125 8.71077 10.0285 8.73522 10.1044 8.75938L9.96057 9.06402C9.86622 9.02392 9.80467 8.99032 9.84393 8.83846L9.84601 8.8358ZM10.146 14.9414L10.2595 14.9392L10.2573 14.7854L10.033 14.9406L10.146 14.9414ZM10.593 16.1392C10.888 16.2618 10.7951 16.5596 11.0617 16.5831C11.3282 16.6065 11.2546 17.0815 11.609 16.9504C11.5244 16.4288 11.0565 16.358 11.1929 15.5255C11.0293 15.4825 11.005 15.6925 10.9773 15.8328C10.8226 15.7609 10.6697 15.6877 10.515 15.6158C10.4205 15.812 10.3304 15.9937 10.5909 16.1418L10.593 16.1392ZM10.4466 14.7843L10.4832 14.7087L10.4097 14.8614L10.4466 14.7843ZM10.4667 14.0302L10.8412 13.7972L10.8435 14.1782C10.7202 14.1278 10.5918 14.0794 10.4647 14.0329L10.4667 14.0302ZM10.9938 13.7935L11.1442 13.7142L11.1464 13.8681L10.9938 13.7935ZM11.6492 17.4064C11.6884 17.3098 11.8315 17.3779 11.915 17.4021L11.829 16.9508L11.6123 17.4835L11.6492 17.4064ZM11.6067 14.0879L11.6045 13.934C11.6803 13.9581 11.7504 13.9796 11.8337 14.0053L11.6067 14.0879ZM12.4153 17.843L12.6094 17.9902C12.7441 17.7314 12.8993 17.3768 13.2042 17.4492L13.199 17.2242C12.9347 17.2917 12.576 17.3821 12.7531 17.6856C12.7164 17.6856 12.68 17.6773 12.6469 17.6613C12.6138 17.6454 12.5847 17.6221 12.562 17.5933C12.5393 17.5646 12.5235 17.5311 12.5158 17.4954C12.5081 17.4597 12.5087 17.4228 12.5176 17.3874C12.2357 17.3318 12.1541 17.6748 12.4218 17.8412L12.4153 17.843ZM12.3293 15.8832L12.4007 15.6548L12.4819 15.8795C12.4381 15.874 12.3871 15.8808 12.3359 15.8815L12.3293 15.8832ZM12.5776 18.2925L12.6927 18.2906L12.689 18.1364L12.5388 18.2142L12.4583 18.0648L12.4647 18.2917L12.5776 18.2925ZM12.3755 14.6754L12.5253 14.5207C12.5142 14.6003 12.5319 14.6813 12.5751 14.7494C12.6184 14.8174 12.6846 14.8682 12.7618 14.8928C12.6402 14.8181 12.512 14.7453 12.3821 14.6736L12.3755 14.6754ZM12.6257 9.23683L12.7737 9.08342L12.7801 9.3103C12.7389 9.28375 12.6833 9.25901 12.6323 9.23512L12.6257 9.23683ZM13.3096 15.4858L13.3813 15.3342L13.536 15.4061L13.3096 15.4858ZM13.5834 18.9513L13.697 18.9491L13.6948 18.7952L14.0024 18.9404C13.9572 18.4941 13.6247 18.6403 13.4705 18.9505L13.5834 18.9513ZM13.4157 16.7697L13.4136 16.6158L13.5668 16.6875L13.4157 16.7697ZM13.3688 14.8084L13.3625 14.5816L13.5177 14.58L13.5241 14.8068L13.3688 14.8084ZM14.0904 19.5547C14.3869 19.6224 14.4502 19.5689 14.5433 19.3955C14.4152 19.3379 14.2726 19.3221 14.2405 19.4769L14.081 19.1784L13.7849 19.4852L14.0904 19.5547ZM13.7684 12.3198L13.8404 12.1667L13.9951 12.2387L13.9216 12.3914L13.7684 12.3198ZM13.8315 11.8273L13.8292 11.7133L14.3626 11.7035L14.2936 12.006C14.2162 11.9585 14.1391 11.9095 14.062 11.8605L13.9146 12.0893C13.8615 12.0072 13.8341 11.9116 13.8356 11.8143L13.8315 11.8273ZM13.9969 9.37083L13.9933 9.21664C14.0706 9.2411 14.1467 9.26378 14.224 9.28824L13.9969 9.37083ZM14.1614 9.89589L14.1592 9.742L14.3124 9.81367L14.1614 9.89589ZM14.7888 19.7139L14.867 19.7493L14.7837 19.449C14.7588 19.5361 14.6906 19.6777 14.7888 19.7139ZM15.2096 19.7801L15.3272 19.8908L15.0935 19.6697L15.2096 19.7801ZM15.3727 20.2727L15.4096 20.1955L15.3361 20.3483L15.3727 20.2727ZM15.0974 10.4688L15.1688 10.2404L15.25 10.4652C15.1987 10.4658 15.1486 10.4682 15.0974 10.4688ZM15.3448 17.5555L15.418 17.4042L15.5712 17.4759L15.4992 17.6289C15.4481 17.605 15.3971 17.5811 15.3448 17.5555ZM15.3256 16.726L15.4736 16.5726L15.4785 16.7992C15.4283 16.7709 15.3764 16.7514 15.3256 16.726ZM15.7946 20.3728C15.8707 20.3878 15.9455 20.3933 16.0236 20.4057L15.9424 20.181L15.5658 20.3384C15.6416 20.3549 15.7185 20.3578 15.7946 20.3728ZM15.5329 9.54955L15.683 9.47172L15.7636 9.62114L15.6134 9.69897L15.5329 9.54955ZM15.8861 17.8433L15.884 17.7677C16.0257 17.7957 16.0567 17.9292 16.0436 18.0662C15.9757 18.0099 15.8806 17.9344 15.8852 17.8478L15.8861 17.8433ZM16.6483 21.0016L16.6446 20.8474L16.7993 20.9194L16.6483 21.0016ZM16.5414 10.2887L16.7636 10.0579C16.8433 10.1565 16.9213 10.2562 16.9995 10.3545C16.8408 10.5227 16.6721 10.4588 16.5399 10.2884L16.5414 10.2887ZM17.0582 22.238C17.0841 22.2247 17.1084 22.2112 17.134 22.1993C17.0815 22.1751 17.0307 22.1497 16.9796 22.1259L16.9833 22.28L17.0582 22.238ZM17.3243 22.2322C17.3646 22.2402 17.4016 22.2567 17.4398 22.2673L17.4304 21.891L17.2018 21.895C17.2 22.0143 17.1853 22.1987 17.3228 22.2319L17.3243 22.2322ZM17.2145 12.9168C17.2383 12.9215 17.2645 12.9144 17.2893 12.9147L17.2834 12.6066L17.1396 12.9113C17.1617 12.9171 17.1868 12.9159 17.213 12.9165L17.2145 12.9168ZM17.1938 12.0871L17.3421 11.9322L17.3485 12.1591L17.1938 12.0871ZM17.5282 16.4946C17.5804 16.5049 17.6311 16.5149 17.6773 16.524C17.5759 16.504 17.473 16.4837 17.3715 16.456L17.5282 16.4946ZM17.7176 22.603L17.7525 22.4886L17.6811 22.717L17.7176 22.603ZM17.7475 22.3019C17.7734 22.2886 17.7978 22.275 17.8234 22.2632L17.6732 22.341L17.7475 22.3019ZM17.6386 20.9453L17.6361 20.8328C17.8816 20.7584 17.9545 21.0721 18.0273 21.2767L18.4039 21.1193C18.3961 21.6533 17.6206 21.3039 17.6345 20.943L17.6386 20.9453ZM17.8163 21.961L17.8905 21.8835L17.7407 22.0382L17.8163 21.961ZM17.9165 22.9768L17.993 23.0133L17.8398 22.9416L17.9165 22.9768ZM18.3938 17.7227L18.3879 17.4146C18.4637 17.4388 18.5413 17.4618 18.6171 17.4859L18.3938 17.7227ZM18.5726 12.5126C18.7077 12.3305 18.8757 12.0598 19.099 12.2006C19.0322 12.4529 18.8299 12.5434 18.5728 12.5111L18.5726 12.5126ZM18.931 21.0314L19.0762 20.7271C19.1927 20.8514 19.0585 20.9584 18.9313 21.03L18.931 21.0314ZM18.7266 9.56423C18.6943 9.08366 19.6053 9.25725 19.4132 9.62604L19.1795 9.40502C19.105 9.60978 18.9296 9.63496 18.7266 9.56423ZM19.216 23.5139C19.2413 23.5189 19.2672 23.5133 19.2922 23.5121L19.2873 23.2856C19.2358 23.2877 19.186 23.2886 19.1318 23.2886L19.1367 23.5152C19.1692 23.5155 19.1939 23.5157 19.2189 23.5145L19.216 23.5139ZM19.1127 19.215L19.2629 19.1373L19.265 19.2912C19.2178 19.2634 19.1668 19.2395 19.1157 19.2156L19.1127 19.215ZM19.4932 23.9231C19.6915 23.9623 19.7554 23.8582 19.8308 23.7273C19.6238 23.7479 19.3925 23.7422 19.3685 23.5103L19.3014 23.8899L19.4932 23.9231ZM19.3314 22.0021L19.5578 21.9224L19.4858 22.0755C19.438 22.0508 19.3869 22.0268 19.3344 22.0027L19.3314 22.0021ZM19.0545 10.8398L19.0486 10.5317L19.3556 10.6015L19.0545 10.8398ZM19.6978 21.6923L19.8482 21.613L19.8519 21.7672L19.6978 21.6923ZM19.6673 20.4094L19.66 20.1087C19.8246 20.0599 19.8613 20.2666 19.8944 20.4051C19.83 20.4016 19.754 20.4096 19.6852 20.4129L19.6673 20.4094ZM20.3292 25.0027C20.5058 24.838 20.354 24.6884 20.2413 24.5526L20.1799 25.1544L20.3292 25.0027ZM20.9103 25.6698L21.0284 25.8175C21.1063 25.5796 21.0726 25.3658 20.7898 25.3699C20.7831 25.4821 20.7997 25.5314 20.9073 25.6693L20.9103 25.6698ZM20.9191 24.4239C20.9434 24.4103 20.969 24.3985 20.9949 24.3852C20.9434 24.4103 20.8932 24.4373 20.8432 24.4627L20.9191 24.4239ZM20.7789 12.3172L21.0011 12.0863L21.0077 12.3117L20.7789 12.3172ZM20.7479 9.45048C20.9173 9.2675 21.0649 9.57135 21.021 9.74684C20.9295 9.67661 20.6929 9.54858 20.7449 9.44989L20.7479 9.45048ZM21.0469 10.8016C21.0611 10.5804 21.2862 10.5235 21.4955 10.4911C21.5554 10.6748 21.2057 10.7347 21.0439 10.801L21.0469 10.8016ZM21.5767 23.392L21.6466 23.1633C21.6974 23.1887 21.7499 23.2128 21.801 23.2367L21.5767 23.392ZM21.3238 9.81423L21.3229 9.74039L21.5503 9.73459L21.5615 10.1881C21.3791 10.2564 21.3291 9.92115 21.3238 9.81423ZM21.8895 23.7621L22.0326 23.3821L22.1136 23.7572C22.0429 23.7541 21.9684 23.7624 21.8895 23.7621ZM21.6125 12.5998L21.911 12.3671C21.9689 12.529 21.7599 12.5675 21.62 12.6013L21.6125 12.5998ZM21.5684 10.7894L21.5662 10.6355L21.7194 10.7072L21.5684 10.7894ZM21.7969 10.7854C21.9102 10.5806 22.1061 10.7344 22.2491 10.85C22.1104 10.8304 21.9568 10.8077 21.8044 10.7869L21.7969 10.7854ZM21.7735 9.80478L21.8434 9.57609C21.9732 9.60169 22.1108 9.65799 22.0769 9.79862C21.9833 9.80164 21.8823 9.80322 21.778 9.80567L21.7735 9.80478ZM22.5412 24.2759L22.5703 24.1281L22.9563 24.347C22.8674 24.4184 22.8003 24.5131 22.7627 24.6204C22.7252 24.7276 22.7185 24.8432 22.7436 24.9542C22.692 24.9563 22.6408 24.957 22.588 24.9573C22.713 24.6536 22.5637 24.5151 22.5486 24.2773L22.5412 24.2759ZM22.8163 25.7482L22.9315 25.7847L22.8524 25.6356L22.7023 25.7134C22.7366 25.7202 22.7745 25.7322 22.8163 25.7482ZM23.0455 27.3664L23.1197 27.2889L22.9713 27.4439L23.0455 27.3664ZM23.2583 26.6411L23.3348 26.6777L23.3311 26.5235L23.181 26.6012L23.2583 26.6411ZM23.1553 22.3806L23.3036 22.2256L23.3085 22.4522L23.1553 22.3806ZM24.0369 24.3991L24.0305 24.1723C24.1078 24.1967 24.1765 24.2179 24.2612 24.2438C24.1875 24.2953 24.1109 24.3462 24.0369 24.3991ZM24.2198 25.9775L24.2125 25.6768C24.4025 25.6483 24.8276 25.8734 24.756 26.1186L24.6007 26.1202L24.6725 25.9686C24.5306 25.9728 24.3795 25.9768 24.2273 25.979L24.2198 25.9775ZM23.855 10.8938L23.8513 10.7396C24.0022 10.7601 24.1528 10.7821 24.3034 10.8042C24.1662 10.84 24.0134 10.8682 23.8625 10.8952L23.855 10.8938ZM24.4585 27.6345C24.5057 27.7328 24.7014 27.6517 24.8006 27.6283L24.6361 27.1032C24.3753 27.1055 24.3815 27.4827 24.4585 27.6345ZM24.3646 25.2986L24.3587 24.9905C24.4335 24.9884 24.5143 24.9874 24.5858 24.9862L24.5931 25.2869L24.3646 25.2986ZM24.1416 12.9284C24.1531 12.438 24.3642 12.3339 24.5197 12.8495C24.3929 12.8721 24.2666 12.8993 24.1401 12.9281L24.1416 12.9284ZM24.6981 26.4985L24.9917 26.0393L25.0777 26.4906L24.6981 26.4985ZM24.9593 27.9312L25.0356 27.9293L25.0307 27.7028L24.883 27.933C24.9089 27.9274 24.9339 27.9262 24.9587 27.9265L24.9593 27.9312ZM25.1001 27.4372L25.1766 27.4738L25.1744 27.3199L25.024 27.3992C25.0484 27.4086 25.0738 27.4213 25.1007 27.4266L25.1001 27.4372ZM25.0482 25.2892L25.1181 25.0606L25.1987 25.21L25.0482 25.2892ZM25.3547 28.5264L25.4286 28.4504L25.2806 28.6038L25.3547 28.5264ZM25.3594 23.9556C25.3943 23.7783 25.433 23.7553 25.5519 23.765L25.562 24.2166C25.42 24.1825 25.317 24.1545 25.3576 23.9568L25.3594 23.9556ZM25.0111 11.0973L25.1542 10.7173C25.3177 10.8155 25.2958 10.9969 25.2418 11.1689C25.1627 11.1456 25.0821 11.1221 25.0093 11.0985L25.0111 11.0973ZM25.4444 26.1792L25.5164 26.0261L25.6711 26.0981C25.6003 26.1271 25.5253 26.1537 25.4501 26.1819L25.4444 26.1792ZM26.268 30.0862L26.3046 30.0106L26.2311 30.1633L26.268 30.0862ZM26.1748 27.8257L26.3252 27.7464L26.3289 27.9006L26.1748 27.8257ZM26.1607 27.2213L26.3763 26.914L26.6165 27.3619L26.1607 27.2213ZM26.3734 25.0673C26.562 25.3055 26.9842 25.019 26.8595 24.7166C26.7236 24.7926 26.3162 24.9179 26.3746 25.069L26.3734 25.0673ZM25.9646 9.72002L25.9624 9.64444L26.2679 9.71393C26.2562 9.88349 25.9843 9.87128 25.9658 9.72183L25.9646 9.72002ZM26.5784 30.3822L26.6135 30.3063L26.5418 30.4579L26.5784 30.3822ZM26.7566 29.9264C26.8627 29.9227 26.8756 29.5907 26.8977 29.4707L26.6706 29.4751L26.6807 29.9267C26.7081 29.929 26.7331 29.9278 26.7579 29.9281L26.7566 29.9264ZM27.0566 29.6939L27.1308 29.6165L26.9813 29.7696L27.0566 29.6939ZM27.0248 25.2372L27.1002 25.1615L26.9506 25.3146L27.0248 25.2372ZM27.1335 26.5554C27.1239 26.4077 27.4484 26.3889 27.5862 26.3577C27.5103 26.5699 27.2174 26.9234 27.1338 26.5616L27.1335 26.5554ZM27.6325 31.4558L27.7065 31.3399L27.5588 31.5701L27.6325 31.4558ZM27.5616 25.383C27.6131 25.3809 27.6644 25.3803 27.7172 25.3799L27.7123 25.1534C27.6766 25.1444 27.6394 25.1437 27.6035 25.1512C27.5675 25.1587 27.5338 25.1743 27.505 25.1967C27.4762 25.2192 27.4529 25.248 27.4371 25.2808C27.4213 25.3137 27.4133 25.3497 27.4138 25.3861L27.5616 25.383ZM27.8118 26.2826L28.0355 26.052L28.1166 26.2767C28.0153 26.2797 27.914 26.2828 27.8115 26.284L27.8118 26.2826ZM28.0547 29.8264L28.1243 29.5992L28.279 29.6712L28.0547 29.8264ZM28.0838 27.8647C28.1327 27.813 28.1817 27.7613 28.2318 27.7113L28.313 27.936C28.2327 27.911 28.1554 27.8865 28.0799 27.8609L28.0838 27.8647ZM28.2556 28.6905L28.5562 28.5334C28.4858 28.6623 28.3827 28.8 28.2511 28.6896L28.2556 28.6905ZM28.5309 32.2745C28.6621 32.3004 28.6549 32.4309 28.6512 32.5361L28.8755 32.3809C28.7882 32.1795 28.6105 32.1536 28.4157 32.2379L28.5309 32.2745ZM28.3429 29.2218L28.4143 28.9935L28.5672 29.0666L28.3429 29.2218ZM28.5175 26.9543L28.5102 26.6537C28.56 26.6527 28.6116 26.6506 28.6658 26.6505L28.5175 26.9543ZM28.7302 29.7403C28.7885 29.4448 29.1116 29.3781 29.4068 29.3504C29.2213 29.5287 28.9714 29.8922 28.7326 29.7361L28.7302 29.7403ZM28.7472 27.2513L28.7435 27.0971C28.8198 27.0953 28.899 27.0941 28.972 27.0931C28.8942 27.1422 28.8235 27.1943 28.7495 27.2472L28.7472 27.2513ZM29.3077 33.0493L29.5011 33.1212L29.1829 32.598C29.15 32.765 29.0862 32.9703 29.3071 33.0446L29.3077 33.0493ZM29.2838 32.0317L29.3969 31.9926L29.1704 32.0722L29.2838 32.0317ZM29.1263 30.2618C29.1258 29.5574 29.6259 29.8264 29.9441 29.415C29.7814 29.6115 29.5856 29.9366 29.3457 29.88L29.3516 30.1881C29.974 29.9549 29.9156 30.832 30.2093 31.0004L29.8348 31.2335C29.9824 30.6426 29.7627 30.2248 29.1257 30.2571L29.1263 30.2618ZM29.003 12.5325L29.0726 12.3052L29.2322 12.6038C29.1561 12.5734 29.077 12.5578 29.0024 12.5277L29.003 12.5325ZM29.1243 11.3287C29.2498 11.266 29.3918 11.2449 29.4313 11.3985L29.1243 11.3287ZM29.6212 27.1644C29.6687 27.2612 29.8641 27.1817 29.9636 27.1568C29.8853 27.0585 29.8074 26.9587 29.7277 26.8601C29.6756 26.9357 29.5689 27.0682 29.6217 27.1538L29.6212 27.1644ZM29.1888 10.8365L29.1862 10.724C29.3146 10.7724 29.4418 10.8189 29.5702 10.8673C29.5593 11.0478 29.1896 11.0055 29.1894 10.8259L29.1888 10.8365ZM30.274 33.665C30.4011 33.6256 30.5266 33.5859 30.6525 33.5448C30.4487 33.5491 30.2464 33.5536 30.0443 33.5567C30.0598 33.3526 30.2262 33.3026 30.4188 33.3237C30.2964 32.546 29.7 33.2755 29.8966 33.787L30.274 33.665ZM29.5558 13.3827L29.6316 13.344L29.4814 13.4218L29.5558 13.3827ZM29.395 9.87813C29.4032 9.82813 29.4214 9.78028 29.4485 9.7374C29.4756 9.69453 29.5111 9.6575 29.553 9.62845C29.5948 9.5994 29.642 9.5789 29.692 9.56821C29.7419 9.55752 29.7936 9.55684 29.8439 9.56618C29.7857 9.81405 29.6539 10.0029 29.3947 9.87964L29.395 9.87813ZM30.2686 31.8546C30.518 31.6506 30.3315 31.5355 30.4467 31.3603C30.8143 31.264 31.0929 30.8417 31.5008 30.8869C31.3906 31.2334 30.8036 31.2788 30.9154 31.8042C30.7799 31.7053 30.6564 31.6088 30.5272 31.5097C30.7334 31.8941 30.5793 32.1645 30.1646 32.2715C30.0945 32.1164 30.0968 32.0417 30.2683 31.8561L30.2686 31.8546ZM29.6643 11.4583C29.758 11.0777 30.1582 10.816 30.1193 11.3746L29.888 11.2277L29.8929 11.4542L29.6643 11.4583ZM30.4013 34.1505L30.5149 34.1483L30.5127 33.9944L30.2883 34.1497L30.4013 34.1505ZM30.4714 29.1691C30.5004 28.9754 30.7621 29.0546 30.925 29.0852C30.7731 29.1166 30.6219 29.1451 30.4706 29.1735L30.4714 29.1691ZM30.0041 9.86177C29.9991 9.76105 30.2744 9.73245 30.3807 9.70431L30.3138 10.0824C30.2141 10.0382 30.0012 9.96247 30.0032 9.86617L30.0041 9.86177ZM30.7395 32.4126C31.0851 32.0434 31.7597 32.6138 31.7826 33.071L32.0832 32.9139L32.1642 33.289L31.7067 33.2985C31.903 32.8769 31.4459 32.9401 31.1699 33.0821C31.4163 32.7286 30.7076 32.6764 30.7395 32.4126ZM30.7107 28.0745C31.0557 28.1165 30.7414 27.8089 30.587 27.7432C30.5908 27.8575 30.5752 28.0463 30.7109 28.0731L30.7107 28.0745ZM30.2304 12.9557L30.6012 12.6468C30.6604 12.818 30.38 12.8885 30.2304 12.9557ZM30.9507 33.3135L31.2513 33.1565L31.1767 33.5347L30.9507 33.3135ZM31.0774 32.2551L31.1488 32.0268L31.23 32.2515C31.1784 32.2536 31.1287 32.2545 31.0774 32.2551ZM31.374 35.079C31.5278 35.3442 31.6819 35.3485 31.9131 35.3312C31.7383 35.1647 31.4513 34.9546 31.5939 34.7342C31.2752 34.6299 31.1191 34.7141 31.374 35.079ZM31.1753 28.4056L31.2867 28.3278C31.2107 28.3282 31.1314 28.3295 31.0581 28.3319L31.0618 28.4861L31.1753 28.4056ZM31.0993 11.1275L31.2446 10.8232L31.3257 11.0479L31.0993 11.1275ZM31.7309 29.3746L31.8562 29.5252C32.1898 28.6902 31.5617 28.7243 31.7309 29.3746ZM31.8431 32.466L31.9166 32.3133L31.9978 32.538L31.8431 32.466ZM32.0818 36.0075C32.1057 36.0122 32.1331 36.0069 32.1581 36.0057L32.0769 35.781L32.0055 36.0093C32.0309 36.0066 32.0562 36.0116 32.0818 36.0075ZM31.4483 12.9321L31.7446 12.6237C31.7222 12.8081 31.6535 12.9756 31.4483 12.9321ZM31.5032 11.8686L31.501 11.793C31.6873 11.8696 31.9292 11.9788 32.033 11.7828L31.964 12.0854C31.8351 12.0477 31.5004 11.9771 31.499 11.874L31.5032 11.8686ZM32.1066 33.7381L32.3929 32.9781C32.3547 33.2499 32.398 33.7296 32.1024 33.7434L32.1066 33.7381ZM32.2002 29.7373C32.3307 29.7431 32.356 29.6069 32.3851 29.5068L32.0796 29.4373L32.0855 29.7454L32.2002 29.7373ZM32.7404 36.3293C32.857 36.4136 32.9733 36.4995 33.0896 36.5854C33.0901 35.8842 32.899 35.9339 32.4577 35.6182C32.4378 35.6478 32.4242 35.681 32.4175 35.716C32.4108 35.7509 32.4113 35.7869 32.4189 35.8217C32.4264 35.8565 32.441 35.8895 32.4616 35.9187C32.4822 35.9479 32.5085 35.9728 32.5389 35.9918L32.3885 36.0711L32.7404 36.3293ZM32.358 34.6394L32.3506 34.331C32.6641 34.313 32.7216 34.6574 32.9699 34.734C33.1444 34.7684 33.1288 34.9342 33.1294 35.0724C32.7801 35.1462 32.7929 34.4689 32.3538 34.6447L32.358 34.6394ZM32.3799 29.2817L32.5346 29.3536C32.4619 29.2273 32.3534 29.0939 32.2255 29.2083C32.2739 29.2378 32.325 29.2616 32.3758 29.287L32.3799 29.2817ZM32.4365 12.4548L32.5867 12.377L32.5888 12.5309L32.4365 12.4548ZM33.1896 34.5472L33.3377 34.3938L33.3426 34.6203C33.2909 34.5993 33.2398 34.5755 33.1896 34.5472ZM33.244 30.5096L33.3184 30.4705L33.1682 30.5483L33.244 30.5096ZM33.4325 35.146L33.4288 34.9918L33.5832 35.0653L33.4325 35.146ZM33.4231 34.7697C33.4474 34.7242 33.4819 34.685 33.524 34.655C33.5662 34.6249 33.6147 34.6049 33.6659 34.5965C33.7172 34.5881 33.7698 34.5914 33.8196 34.6063C33.8694 34.6212 33.9151 34.6473 33.9532 34.6825C33.9225 34.8928 33.6026 34.7944 33.4222 34.7742L33.4231 34.7697ZM33.3404 31.2621L33.3363 31.1493L33.5648 31.1453L33.4931 31.2969C33.6795 31.3183 33.8485 31.3884 33.805 31.5932C33.6574 31.5242 33.3315 31.4092 33.338 31.2663L33.3404 31.2621ZM33.6836 33.1822C33.7338 33.1322 33.7827 33.0804 33.8317 33.0287C33.7872 33.0813 33.7382 33.1331 33.6881 33.183L33.6836 33.1822ZM33.2692 9.72637L33.2656 9.57218C33.3429 9.59664 33.4115 9.61784 33.4963 9.64377L33.2692 9.72637ZM33.6369 12.4415L33.7867 12.2869L33.7916 12.5135L33.6369 12.4415ZM34.1812 31.8224L34.1715 31.3693C34.4899 31.2786 34.6515 31.6927 34.794 31.9602C34.4941 32.1373 34.462 31.7581 34.1871 31.8159L34.1812 31.8224ZM34.7079 37.8469L34.8574 37.6938C34.6501 37.6529 34.5808 37.8157 34.5596 38.0018L34.7079 37.8469ZM34.4899 35.1352C34.7862 34.6151 35.2467 35.2261 34.7264 35.5072C34.5626 35.4104 34.5848 35.2276 34.6385 35.0571L34.4899 35.1352ZM33.9183 11.455C34.0172 11.2443 34.0814 11.013 33.9043 10.8507C34.1366 10.6863 34.2642 11.0215 34.3694 11.2187L33.9183 11.455ZM34.0324 13.0367L34.256 12.8061L34.2609 13.0327C34.1909 13.0266 34.1146 13.0284 34.0383 13.0302L34.0324 13.0367ZM35.0046 37.953C35.0974 37.8992 35.234 38.0627 35.3142 38.1353C35.2377 37.9576 35.1264 37.7914 34.926 37.8409L34.9297 37.995L35.0046 37.953ZM35.2074 36.8544C35.3056 36.6159 35.4009 36.2664 35.6491 36.2417L35.8114 36.6912L35.2074 36.8544ZM35.4897 37.5285L35.5251 37.4511L35.4531 37.6041L35.4897 37.5285ZM35.5984 37.2998L35.6725 37.2224L35.5245 37.3758L35.5984 37.2998ZM35.4958 26.7381C35.694 26.8171 35.5516 27.162 35.5101 27.341C35.8367 27.4055 35.9033 26.9735 35.8754 26.7302C35.7991 26.732 35.7201 26.7318 35.6468 26.7342L35.7212 26.3575C35.5287 26.43 35.1428 26.5718 35.5121 26.7337L35.4958 26.7381ZM35.0022 12.6372L35.2976 12.255L35.307 12.6314C35.2206 12.6297 35.1195 12.6312 35.0185 12.6328L35.0022 12.6372ZM35.9489 39.2535C35.9995 39.3034 36.0519 39.3521 36.104 39.4023L36.2386 38.7198L35.7906 39.1056L35.9489 39.2535ZM35.9348 38.689L36.0857 38.6467L35.9261 38.3482L35.7827 38.7296C35.8514 38.7109 35.902 38.6979 35.9526 38.6849L35.9348 38.689ZM35.7245 36.3149L35.7956 36.088L35.9503 36.1599L35.7245 36.3149ZM35.7843 35.6346L35.9254 35.179C36.029 35.3683 36.0051 35.5446 35.8022 35.6305L35.7843 35.6346ZM35.2684 11.1229L35.2635 10.8964L35.4188 10.8947L35.2684 11.1229ZM36.0612 34.4984L36.1354 34.4209L36.3776 34.9444C36.1807 35.0314 35.9578 34.6452 36.0791 34.4942L36.0612 34.4984ZM35.9967 33.4114C36.0242 33.0838 36.1104 33.0317 36.328 32.9887C36.1975 33.6505 37.296 33.7843 36.6585 34.0391C36.7153 33.7511 35.8745 33.8737 36.0158 33.4013L35.9967 33.4114ZM35.8492 28.6617L35.8466 28.5492C35.98 28.6584 36.0801 28.52 36.1472 28.3921L36.1594 28.9193C36.0563 28.8529 35.8536 28.7808 35.8622 28.6505L35.8492 28.6617ZM36.2392 36.3765C36.2858 36.2737 36.7151 36.2418 36.8819 36.2133C36.6931 36.3295 36.4502 36.4535 36.5123 36.6729C36.425 36.605 36.1946 36.4767 36.2392 36.3765ZM35.9482 13.3318C36.1174 13.3775 36.1404 13.2531 36.1723 13.1382L35.7955 13.2971L35.9482 13.3318ZM36.2754 29.7372L36.2541 28.8321C36.3289 28.83 36.4093 28.8305 36.4811 28.8278L36.4875 29.0547C37.3648 28.9746 36.894 29.7119 36.2694 29.736L36.2754 29.7372ZM36.2382 28.229L36.3878 28.0759L36.3929 28.301L36.2382 28.229ZM36.3855 31.1739C36.4098 31.0114 36.4051 30.5639 36.5613 30.5655C36.8589 30.6672 36.7061 31.1511 36.3804 31.1682L36.3855 31.1739ZM36.5766 35.9228L36.5745 35.8473C36.6508 35.8454 36.7297 35.8456 36.803 35.8432L36.7319 36.0702C36.657 36.0339 36.5686 36.0026 36.5715 35.9173L36.5766 35.9228ZM36.4341 30.0401C36.6332 29.9106 36.8338 29.7813 37.0332 29.6503C36.7428 30.0304 37.4396 30.174 37.2864 30.6211C37.1596 30.5961 37.0328 30.5711 36.9046 30.5535L36.9789 30.1767C36.7815 30.2897 36.5917 30.1679 36.429 30.0345L36.4341 30.0401ZM36.4033 27.2118L36.4406 27.0228C36.6786 27.191 36.8095 26.8178 37.0467 26.9352C37.2838 27.0525 37.0626 27.3726 37.2896 27.534L36.989 27.6911C36.9212 27.5243 36.8597 27.1838 36.6743 27.2439L36.7625 27.7707C36.7113 27.7714 36.6615 27.7723 36.607 27.7738C36.6695 27.5038 36.333 27.4819 36.3994 27.2003L36.4033 27.2118ZM36.5451 31.4723L36.543 31.3968L36.9226 31.3888L36.9285 31.6969C36.8144 31.6391 36.5434 31.5672 36.54 31.4668L36.5451 31.4723ZM36.88 39.1993L36.9568 39.2344L37.0279 39.0075C36.9519 39.0078 36.8726 39.0091 36.7993 39.0115C36.7981 39.0804 36.7934 39.1592 36.8779 39.1943L36.88 39.1993ZM36.6967 34.7879C36.7124 34.567 36.8882 34.5633 37.0736 34.629L36.6967 34.7879ZM36.608 27.9965C36.6594 27.9714 36.7096 27.9445 36.7596 27.9191L36.8408 28.1438L36.608 27.9965ZM36.3988 17.7392L36.4354 17.6636L36.3619 17.8163L36.3988 17.7392ZM36.7846 31.9155L37.011 31.8359L37.0162 32.061C36.9329 32.0123 36.8557 31.9633 36.7846 31.9155ZM36.6464 26.184C36.7366 26.0484 37.0478 25.9947 37.0162 25.723L37.1807 26.248C37.0086 26.1542 36.8731 26.2364 36.8038 26.4069C36.7338 26.3455 36.6366 26.265 36.6404 26.1829L36.6464 26.184ZM36.9386 35.1564C36.8852 34.9555 37.052 34.8718 37.2364 34.8483L36.9386 35.1564ZM37.0639 30.8535L37.2903 30.7738L37.2925 30.9277C37.2113 30.8994 37.134 30.875 37.0579 30.8523L37.0639 30.8535ZM37.227 34.472L37.299 34.319L37.4534 34.3924L37.227 34.472ZM37.0376 26.628C37.0667 26.4803 37.2107 26.4887 37.3403 26.5465C37.2328 26.5729 37.1328 26.6008 37.0316 26.6268L37.0376 26.628ZM36.8195 13.1646C36.9508 13.2135 37.0217 13.0663 37.0809 12.9706C36.8973 12.9037 36.7212 12.9088 36.7055 13.1298L36.8195 13.1646ZM37.3061 33.3014C37.3411 33.1241 37.3797 33.101 37.4989 33.1092L37.3534 33.4151L37.5822 33.4096L37.5844 33.5635C37.4317 33.5287 37.259 33.5085 37.3064 33.2999L37.3061 33.3014ZM37.2469 29.2659L37.3098 28.7351C37.3398 28.9129 37.4533 29.2252 37.2472 29.2644L37.2469 29.2659ZM37.0897 19.6096L37.3161 19.53L37.3973 19.7548C37.2957 19.704 37.1888 19.6568 37.09 19.6082L37.0897 19.6096ZM36.8802 11.0112C36.9014 10.8251 36.9728 10.6596 37.1781 10.7032C37.2326 10.9058 37.0687 10.9824 36.8802 11.0112ZM37.609 31.6715L37.7574 31.5166L37.7623 31.7432L37.609 31.6715ZM37.5344 28.5783L37.6754 28.1227C37.6242 28.1234 37.5741 28.1257 37.5199 28.1258C37.5002 27.9899 37.5262 27.8585 37.6652 27.8214C37.5647 28.0871 38.0366 28.1065 38.0565 28.3038C38.079 28.606 37.7923 28.6691 37.5359 28.5786L37.5344 28.5783ZM37.2058 11.835L37.8762 11.2169C38.0112 11.4676 37.8273 11.6062 37.5826 11.6761L37.817 11.9726L37.2058 11.835ZM37.2991 12.5871L37.3705 12.3587L37.4517 12.5834C37.4031 12.5861 37.3519 12.5867 37.3006 12.5873L37.2991 12.5871ZM37.8991 31.0259L37.9737 30.9854L37.8233 31.0647C37.8495 31.0499 37.8738 31.0362 37.8991 31.0259ZM37.7846 26.4623C37.861 26.436 37.936 26.4093 38.0113 26.3812C37.9393 26.4084 37.8658 26.4353 37.7879 26.4614L37.7846 26.4623ZM38.089 35.5138C38.2944 35.2581 38.0684 34.8959 38.533 34.8341C38.5133 35.154 38.4628 35.52 38.089 35.5138ZM37.6645 13.2638L37.7774 13.1863L37.5489 13.1903L37.5525 13.3445L37.6645 13.2638ZM38.0428 27.2898L38.1929 27.212L38.1978 27.4386L38.0428 27.2898ZM38.1682 29.5443C38.187 29.347 38.3502 29.2656 38.5393 29.2339C38.4794 29.4354 38.3929 29.6854 38.1682 29.5443ZM37.7194 10.9911L37.8695 10.9133L37.95 11.0627C37.8722 11.0412 37.7961 11.0185 37.7188 10.994L37.7194 10.9911ZM38.4095 33.1983C38.4364 33.2036 38.4603 33.2237 38.486 33.2349L38.4811 33.0083L38.3313 33.163L38.4095 33.1983ZM38.4888 36.4797L38.7873 36.247L38.642 36.5513L38.4888 36.4797ZM38.4559 33.5758L38.4909 33.4614L38.4212 33.6887L38.4559 33.5758ZM38.2961 28.48C38.5347 27.9853 38.8333 27.9246 38.6778 28.5476C38.549 28.533 38.4217 28.5109 38.2931 28.4947L38.2961 28.48ZM37.998 12.9796L38.0723 12.9406L37.9221 13.0184L37.998 12.9796ZM38.1778 20.409C38.2105 20.2037 38.1952 19.8416 38.3908 19.8004C38.3367 19.9723 38.3209 20.1548 38.4784 20.2519L38.1778 20.409ZM38.5071 30.8896L38.505 30.8139C38.77 30.8294 39.0358 30.8956 39.0523 31.1812C38.8374 31.234 38.5364 31.1102 38.5053 30.8984L38.5071 30.8896ZM38.6822 34.8635L38.6781 34.7507C38.8519 34.6944 38.9241 34.9726 38.9927 35.1197C38.8708 35.0542 38.6711 34.9902 38.6822 34.8635ZM38.7192 33.2779L38.7957 33.3144L38.7124 33.0141C38.6835 33.0898 38.6168 33.2316 38.7144 33.2708L38.7192 33.2779ZM38.4589 25.7068L38.4531 25.3987C38.8267 25.319 38.7699 25.874 38.6292 26.0765C38.477 26.0158 38.4684 25.9573 38.4553 25.6938L38.4589 25.7068ZM38.1258 12.0411L38.1221 11.8869C38.1984 11.8851 38.2774 11.8854 38.3507 11.883L38.1258 12.0411ZM38.8213 34.5119L39.1921 34.1246L39.1295 34.654C39.0265 34.6107 38.9228 34.5626 38.821 34.5134L38.8213 34.5119ZM38.9792 30.0205L39.2427 29.9021C39.4111 30.2423 39.1154 30.3742 38.7989 30.4392C38.7334 30.2528 38.7085 30.1358 38.9789 30.0219L38.9792 30.0205ZM38.5456 19.9506L38.5407 19.724L38.6959 19.7224L38.7008 19.949L38.5456 19.9506ZM38.346 11.4354L38.4171 11.2085L38.4962 11.3576L38.346 11.4354ZM38.9643 33.8342L38.9606 33.68C39.0382 33.703 39.1066 33.7256 39.1916 33.7501L38.9643 33.8342ZM38.9745 27.9862C39.0148 27.3895 39.6883 28.0441 39.3593 28.392C39.1902 28.2988 38.9585 28.1933 38.9671 27.9847L38.9745 27.9862ZM39.0496 24.7783L39.1235 24.7023L38.9755 24.8557L39.0496 24.7783ZM39.3384 36.988C39.3276 36.9534 39.3248 36.9169 39.3304 36.8812C39.3359 36.8455 39.3496 36.8116 39.3704 36.7819C39.3912 36.7523 39.4185 36.7278 39.4503 36.7103C39.4821 36.6927 39.5176 36.6826 39.554 36.6807C39.5341 36.8287 39.5025 37.0357 39.3384 36.988ZM39.3684 35.1002C39.5863 34.781 39.3191 34.3369 39.8042 34.1871L39.8948 34.7882C39.6611 34.7789 39.6971 35.2172 39.3672 35.1061L39.3684 35.1002ZM38.8254 12.9327L38.8205 12.7061C38.9487 12.7314 39.0864 12.7877 39.0539 12.9286C38.9809 12.9296 38.9076 12.932 38.8254 12.9327ZM38.8111 12.3298L38.8089 12.2541C38.8438 12.2436 38.8806 12.241 38.9166 12.2466C38.9527 12.2522 38.987 12.2659 39.0169 12.2866C39.0469 12.3073 39.0718 12.3345 39.0896 12.3661C39.1074 12.3977 39.1178 12.4329 39.1198 12.4689C39.0291 12.4495 38.8163 12.429 38.817 12.331L38.8111 12.3298ZM39.6814 32.5714L39.8305 32.6009L39.8283 32.447C39.7268 32.4745 39.6256 32.5006 39.5256 32.5285L39.6814 32.5714ZM39.6957 33.1743L39.7715 33.1356L39.6214 33.2134L39.6957 33.1743ZM39.4764 27.2565L39.7032 27.1754L39.7068 27.3295C39.6358 27.3048 39.5585 27.2804 39.4824 27.2577L39.4764 27.2565ZM39.8182 33.5116L39.9317 33.5094L39.9296 33.3555L39.701 33.3595L39.7046 33.5137L39.8182 33.5116ZM39.4616 20.3968L39.6838 20.1659L39.6902 20.3928C39.6213 20.3884 39.5453 20.3888 39.469 20.3906L39.4616 20.3968ZM40.1546 36.2282C40.1784 36.233 40.2058 36.2276 40.2309 36.2264L40.1496 35.8528L40.0753 36.2295L40.1546 36.2282ZM39.6222 11.0381L39.613 10.6602C39.6607 10.6555 39.7088 10.6625 39.7533 10.6804C39.7978 10.6982 39.8372 10.7265 39.8682 10.7629C39.8992 10.7992 39.9208 10.8425 39.9311 10.8889C39.9415 10.9353 39.9403 10.9835 39.9276 11.0292C39.8212 11.0267 39.7246 11.0291 39.6233 11.0321L39.6222 11.0381ZM40.2772 29.9206L40.3924 29.9571L40.3875 29.7305L40.1632 29.8858L40.2772 29.9206ZM40.08 21.7389L40.1957 21.8123L40.1838 21.2836C39.9805 21.2143 39.9146 21.6663 40.0726 21.7374L40.08 21.7389ZM40.5926 27.5365L40.9371 27.6045L40.935 27.4506C40.6745 27.5143 40.5413 27.3177 40.4684 27.0823C40.1854 27.2444 40.1304 27.476 40.5926 27.5365ZM40.6304 30.667L40.7796 30.6964L40.5458 30.4753L40.4741 30.6269L40.6304 30.667ZM40.6675 28.9632C40.8912 28.9367 41.1134 28.9652 41.2046 29.1781C41.104 29.1955 41.0003 29.1846 40.9054 29.1466C40.8104 29.1087 40.728 29.0451 40.6675 28.9632ZM40.4693 20.8182L40.5407 20.5898L40.6219 20.8145C40.571 20.8213 40.5227 20.8226 40.4682 20.8241L40.4693 20.8182ZM40.7994 26.5829C40.9369 26.5455 40.9531 26.3063 40.9807 26.1583C40.793 26.1044 40.7487 26.4547 40.6872 26.6175C40.7232 26.6154 40.7613 26.603 40.7982 26.5888L40.7994 26.5829ZM40.4637 11.0844C40.4846 10.8997 40.5548 10.7325 40.7601 10.7761L40.4637 11.0844ZM40.436 9.95249L40.5862 9.87473L40.5898 10.0289C40.5367 10.0077 40.4919 9.98346 40.4348 9.9584L40.436 9.95249ZM40.7768 20.9248L40.7745 20.8109C40.8265 20.861 40.8789 20.9097 40.9295 20.9595C41.0521 20.6523 41.3041 20.9537 41.1647 21.1809C41.034 21.1367 40.77 21.0693 40.7756 20.9308L40.7768 20.9248ZM41.1262 27.4393C41.7795 27.5605 41.6929 26.9234 41.6716 26.3713C41.2275 26.4233 41.2362 26.7719 41.3853 27.1313C41.2842 27.1341 41.1884 27.1762 41.1187 27.2486C41.049 27.3211 41.0111 27.418 41.013 27.5182L41.1262 27.4393ZM40.9979 22.121C41.1144 22.3159 41.2467 22.3128 41.4269 22.3023L41.1102 21.7794C40.9691 21.8744 40.8627 21.9423 40.9955 22.1328L40.9979 22.121ZM41.2903 31.0688C41.3626 31.3148 41.8065 31.1384 41.7059 30.9099L41.477 30.9154L41.5384 30.3136C41.2086 30.2025 41.25 30.9197 41.2903 31.0688ZM41.4072 12.2788C41.4835 12.277 41.5625 12.2772 41.6358 12.2747L41.6407 12.5013L41.4072 12.2788ZM42.1146 27.3933L42.3039 27.3524C42.138 26.6229 41.9416 26.7699 41.9258 27.4313L42.1146 27.3933ZM42.1609 31.0856C42.1867 31.0723 42.2111 31.0587 42.2367 31.0468L42.1562 30.8974L42.0866 31.1246L42.1609 31.0856ZM41.9938 22.563C42.0326 22.5706 42.0699 22.5857 42.1078 22.5978L42.0266 22.3731L41.8786 22.5265L41.9938 22.563ZM42.0638 20.6371L42.1328 20.3346C42.2086 20.3587 42.2862 20.3817 42.362 20.4058L42.0638 20.6371ZM42.426 27.7233L42.5395 27.7212C42.5687 27.5735 42.4338 27.5269 42.3061 27.4986L42.311 27.7252L42.426 27.7233ZM42.0488 16.865C42.175 16.8378 42.3013 16.8105 42.4269 16.7862L42.4318 17.0127C42.3037 16.9629 42.1766 16.9163 42.0482 16.868L42.0488 16.865ZM42.336 22.5246L42.4102 22.4472L42.2619 22.6021L42.336 22.5246ZM43.1036 32.1586C43.3244 32.4845 43.8478 31.8972 43.3191 31.8512L43.3912 31.6981C43.1401 31.7376 42.9421 31.9011 43.1024 32.1645L43.1036 32.1586ZM43.1564 31.1761C43.2075 31.2 43.2585 31.2239 43.3108 31.2495L43.3071 31.0953C43.2061 31.0969 43.1051 31.0985 42.9963 31.1L43.1564 31.1761ZM42.9963 22.9557C43.1304 22.9438 43.2081 23.1387 43.2694 23.252L43.5596 22.5666C43.4568 22.5693 43.3558 22.5708 43.2488 22.5712C43.3133 22.7941 43.0708 22.8844 42.8765 22.9581L42.9963 22.9557ZM42.6418 9.90886L42.6369 9.68234C42.7132 9.68051 42.7925 9.67922 42.8655 9.67828L42.6418 9.90886ZM43.7318 31.3541C43.7706 31.3617 43.8093 31.3694 43.8473 31.3892L43.8409 31.1623C43.7669 31.2152 43.6918 31.2663 43.6166 31.3175L43.7318 31.3541ZM43.3639 11.1026C43.3044 10.9251 43.5889 10.9045 43.7384 10.8695C43.7893 11.0514 43.5047 11.072 43.3553 11.107L43.3639 11.1026ZM44.1202 23.7621C44.4883 23.8992 44.6019 23.8572 44.8041 23.673C43.6942 22.6146 44.377 23.2695 43.7332 23.4694C43.7173 23.6289 43.807 23.6374 44.125 23.7692L44.1202 23.7621ZM43.7191 19.6929L43.7154 19.5387L43.9442 19.5332L43.8771 19.9129C43.8288 19.9033 43.7857 19.8765 43.7559 19.8375C43.7262 19.7985 43.7119 19.7501 43.7158 19.7015L43.7191 19.6929ZM44.3477 32.9995L44.4244 33.0346L44.4223 32.8807L44.2706 32.9582C44.2904 32.9836 44.3191 32.9954 44.3415 33.0074L44.3477 32.9995ZM44.0454 18.8948L44.1585 18.8558L43.932 18.9354C43.9627 18.9292 43.9978 18.9161 44.0392 18.9028L44.0454 18.8948ZM44.2489 29.4242C44.2509 29.1469 44.5155 28.9996 44.7689 28.8854C44.5371 29.1573 44.8442 29.3836 45.0878 29.5622L44.635 29.7214C44.6387 29.6736 44.6304 29.6256 44.6108 29.5816C44.5911 29.5377 44.5608 29.4993 44.5225 29.4698C44.4842 29.4403 44.4391 29.4207 44.3914 29.4128C44.3436 29.4048 44.2946 29.4087 44.2489 29.4242ZM44.5183 32.7001C44.6395 32.7455 44.7107 32.6598 44.7819 32.5818C44.6797 32.534 44.5761 32.486 44.4742 32.4367L44.4028 32.665C44.4467 32.6783 44.4864 32.6892 44.5317 32.7028L44.5183 32.7001ZM44.5161 23.1927C44.6376 23.2366 44.6688 23.1568 44.7033 23.0761L44.3964 23.0064C44.3995 23.1006 44.3997 23.162 44.5236 23.1941L44.5161 23.1927ZM44.6435 30.0944L45.0216 30.0156L44.9602 30.6173C44.7575 30.5374 44.6919 30.3204 44.6509 30.0959L44.6435 30.0944ZM44.6332 20.1726L44.6291 20.0597C44.6767 20.055 44.7249 20.0619 44.7693 20.0798C44.8138 20.0976 44.8532 20.126 44.8842 20.1624C44.9152 20.1987 44.9368 20.242 44.9472 20.2884C44.9575 20.3348 44.9563 20.383 44.9437 20.4287C44.8331 20.3762 44.6346 20.3064 44.6406 20.174L44.6332 20.1726ZM44.4488 12.5935C44.5264 12.6164 44.6022 12.6406 44.6798 12.6635C44.6156 12.6432 44.5338 12.6179 44.4563 12.5949L44.4488 12.5935ZM44.814 19.4916L44.9295 19.5266L44.8468 19.3016L44.6985 19.4565C44.7367 19.4671 44.7761 19.4795 44.814 19.4916ZM45.2201 33.1409C45.3529 33.2531 45.3005 33.4637 45.2693 33.6295C45.8541 33.7049 45.5382 33.0518 45.4003 32.7222L45.1027 33.0287L45.2201 33.1409ZM44.7814 16.5862L44.7792 16.4323L44.9324 16.504L44.7814 16.5862ZM45.0292 20.5054C45.0374 20.1893 45.4842 20.2883 45.411 20.5731C45.2836 20.551 45.1566 20.5275 45.0292 20.5054ZM45.3435 30.1589C45.2952 29.6736 45.8995 29.8619 46.2517 29.9145C46.2234 30.3172 45.5029 29.8619 45.3435 30.1589ZM45.256 23.3693C45.5982 22.9933 45.8827 23.8213 46.0398 24.1086C45.5593 24.2195 45.7569 23.3515 45.25 23.3681L45.256 23.3693ZM45.1919 17.5603L45.2658 17.4844L45.1177 17.6378L45.1919 17.5603ZM45.0074 9.94283L45.2332 9.78791L45.2354 9.9418C45.1492 9.93862 45.0774 9.9413 45.0014 9.94165L45.0074 9.94283ZM45.591 30.9075C45.5854 30.7391 45.551 30.4899 45.732 30.4519C45.8118 30.6442 45.7864 30.8202 45.585 30.9063L45.591 30.9075ZM45.2472 16.7303L45.245 16.5764L45.4739 16.5709L45.2472 16.7303ZM45.8298 31.0559L45.8276 30.902C45.8786 30.9259 45.9297 30.9498 45.9805 30.9751L45.8298 31.0559ZM45.5795 20.7245C45.6863 20.6228 45.9219 20.3317 46.0276 20.3771C46.3173 20.6445 45.7926 21.0581 45.566 20.7218L45.5795 20.7245ZM46.2024 33.8795C46.2278 33.8922 46.2534 33.9034 46.2788 33.9161L46.3481 33.6121L46.1259 33.8429C46.1382 33.8515 46.1624 33.8624 46.1892 33.8754L46.2024 33.8795ZM46.4101 33.0074C46.5912 32.9296 46.6467 32.5384 46.7 32.3234C46.3096 32.2678 46.321 32.6737 46.4872 32.9305L46.2584 32.936L46.262 33.0902L46.4101 33.0074ZM45.7496 11.9692L45.8216 11.8161L45.9028 12.0409L45.7496 11.9692ZM46.3826 33.4608L46.4192 33.3852L46.346 33.5365L46.3826 33.4608ZM46.3098 30.4447C46.4014 30.1221 46.6507 30.3585 46.655 30.588L46.955 30.3556C47.0376 30.7694 46.189 31.0255 46.2967 30.4406L46.3098 30.4447ZM46.3309 29.7644L46.4811 29.6867L46.4848 29.8408L46.3309 29.7644ZM46.3466 20.9357L46.3445 20.8601C46.7062 20.8332 47.1267 20.8226 47.1907 21.2204C46.849 21.3034 46.3757 21.3067 46.3335 20.9316L46.3466 20.9357ZM46.6872 31.8697L47.0675 31.9447L46.9983 32.2487C46.9562 32.0455 46.8715 31.886 46.6741 31.8655L46.6872 31.8697ZM46.831 31.565C46.8352 31.2374 46.9334 30.9437 47.2765 30.8779L47.3598 31.1782C47.2585 31.1813 47.1559 31.1825 47.049 31.1829L47.1299 31.558L46.831 31.565ZM46.672 17.1188C46.7123 17.1268 46.7493 17.1433 46.7875 17.1539L46.7064 16.9291L46.558 17.084C46.584 17.0861 46.621 17.1026 46.6589 17.1147L46.672 17.1188ZM46.5422 10.1428L46.5386 9.98865L46.7674 9.98315L46.7711 10.1373L46.5422 10.1428ZM47.1389 32.235L47.1352 32.0808L47.2905 32.0792L47.2999 32.4555C47.2497 32.4461 47.2051 32.418 47.1751 32.3769C47.1451 32.3359 47.1322 32.2851 47.1389 32.235ZM46.9579 21.5996C47.1732 21.1679 47.6402 21.5577 47.8618 21.2039L47.9542 21.8821C47.519 21.9835 47.3627 21.6134 46.9582 21.5981L46.9579 21.5996ZM47.4955 34.417L47.5697 34.3396L47.4217 34.493L47.4955 34.417ZM47.0207 16.3175L47.0576 16.2403L46.9841 16.3931L47.0207 16.3175ZM46.8337 10.1343L46.8966 9.60346L47.061 10.1285L46.8337 10.1343ZM47.5552 33.6983L47.6317 33.7349L47.6268 33.5083L48.0064 33.5003C48.0175 33.0989 47.3182 33.4229 47.5552 33.6983ZM47.3399 24.7994L47.4164 24.836L47.4073 24.4582C47.3575 24.4591 47.3062 24.4598 47.2517 24.4613C47.2605 24.5659 47.2441 24.759 47.3402 24.7979L47.3399 24.7994ZM47.5662 31.0194L47.7115 30.7151L48.0224 30.9299L48.0157 30.7045C48.182 30.6468 48.2617 30.9265 48.3303 31.0735C48.0885 30.8539 47.8759 31.1619 47.5665 31.018L47.5662 31.0194ZM47.453 17.0243L47.5267 16.9099L47.3715 16.9115L47.3778 17.1383L47.453 17.0243ZM47.5273 16.6476L47.6056 16.683L47.6019 16.5288L47.4518 16.6066L47.5273 16.6476ZM47.8008 24.8352L47.875 24.7577L47.727 24.9111L47.8008 24.8352ZM48.2177 34.2203C48.3957 34.1818 48.4167 34.1384 48.4028 34.0282C48.2788 34.1066 48.1537 34.1832 48.0283 34.2612L48.2177 34.2203ZM48.2292 33.1253C48.3955 33.2717 48.3619 33.4109 48.3167 33.5769C48.466 33.5112 48.9169 33.37 48.9179 33.2628C48.883 33.1101 48.1601 33.0197 48.296 32.7472C48.893 32.9571 49.2461 33.3429 48.9332 33.9472C49.7284 34.0396 48.9966 34.1991 49.0627 34.5866C49.1982 35.086 49.3506 34.4469 49.3961 34.2395L49.5551 34.4627C49.7131 34.2192 50.1283 34.0157 50.087 34.4526L50.3876 34.2955C50.2522 34.1966 50.1287 34.1001 49.9995 34.001C50.6259 34.1246 50.598 33.5512 50.894 33.229C50.7923 33.1553 50.6889 33.0827 50.5846 33.0145C50.9825 32.3564 50.8388 33.0218 51.3451 33.0004C51.7605 32.9366 51.6268 33.3629 51.9606 33.2891C51.7577 33.6343 51.4221 33.5052 51.1238 33.3051C51.1896 33.3745 51.2331 33.4617 51.2488 33.5555C51.2645 33.6494 51.2517 33.7456 51.212 33.832C51.2633 33.8314 51.3145 33.8308 51.3675 33.829C51.4064 34.119 51.0493 34.248 51.1573 34.5885L51.3837 34.5089L51.3094 34.8856C51.5629 34.9356 51.82 34.9756 52.0744 35.0212L51.6304 35.7009C51.9101 35.7207 52.19 35.7391 52.4696 35.759L52.4602 35.3827C52.6641 35.3308 52.748 35.4947 52.7724 35.6775C53.2734 35.4234 53.3384 35.3534 53.311 35.8928C53.9554 35.8542 54.0543 36.5152 53.9466 37.0924L54.1622 36.7851C54.2332 37.0615 54.416 37.2111 54.7096 37.1524C54.6274 36.7833 54.1529 36.8323 54.0854 36.5228C54.1027 36.207 54.6517 36.2125 54.6785 35.8725C54.5912 35.8335 54.4942 35.8211 54.3999 35.8366C54.3055 35.8522 54.218 35.8949 54.1484 35.9597L54.0636 35.6592L53.6867 35.8181C53.9942 34.2597 54.3797 36.2325 54.7088 35.57C54.7586 35.3175 54.111 35.1989 54.2735 34.8627C54.3407 34.6319 54.361 34.5838 54.4943 34.5993L54.5016 34.9C55.1628 34.3291 55.1157 35.5414 55.0556 36.0191C55.6455 36.1155 56.42 35.6376 55.9452 35.0206C56.0328 35.3617 55.7326 35.525 55.4273 35.6351L55.5486 34.4313L55.3933 34.4329L55.4766 34.7332L55.2492 34.739C55.2892 34.5367 55.1171 34.4352 54.9347 34.37L55.0156 34.7451C54.4389 34.2047 54.864 34.0921 53.6329 34.2452L53.9238 33.635C53.3929 33.4274 52.8141 33.2196 52.3174 33.3656C52.2513 33.9127 52.9034 34.3222 52.856 33.5808C53.1722 33.4468 53.4011 34.4465 53.6768 34.4702C54.1656 34.6787 53.5961 34.8794 53.6545 35.1487C53.3736 35.0544 53.0922 34.9595 52.8105 34.864C52.8122 35.1222 52.5471 35.3507 52.3223 35.1391C52.1255 34.8409 52.3341 34.569 52.1074 34.1237C51.8649 33.5388 52.1649 33.6517 52.0839 33.1431C52.2123 33.1914 52.3407 33.2398 52.4678 33.2864C52.6295 32.7734 52.3085 32.6411 52.007 33.0696L52.0033 32.9154C51.9273 32.9158 51.8481 32.917 51.7748 32.9194L51.7539 32.2401C51.383 32.6273 50.8255 31.707 50.4866 31.7752C50.0454 32.2606 50.8002 32.322 49.5563 32.6659L49.5429 32.1369C50.3374 32.5315 49.9841 30.9532 49.4432 31.158L49.466 32.0634C49.2967 31.7983 49.0163 31.9317 48.7791 32.0813C48.6951 31.6274 48.2428 31.7606 48.0019 31.4185C47.9771 31.5714 47.9866 31.728 48.0297 31.8771C48.0729 32.0262 48.1487 32.1641 48.2516 32.2811C48.1063 32.452 47.9269 32.8509 48.2261 33.1171L48.2292 33.1253ZM48.3132 35.0479L48.4256 34.9335C48.3502 35.0092 48.2761 35.0867 48.2019 35.1641L48.3132 35.0479ZM48.0407 25.4334C48.1265 25.6191 48.3533 25.4828 48.4967 25.4236C48.3706 25.2223 48.195 25.0832 47.9574 25.133C47.9538 25.2367 47.9829 25.339 48.0407 25.4257L48.0407 25.4334ZM47.9419 24.5284L47.9368 24.3033C48.0143 24.3263 48.0901 24.3505 48.1677 24.3735L47.9419 24.5284ZM47.9642 23.8499L47.9934 23.7022L48.0746 24.0758C47.9865 24.0277 47.9252 23.9926 47.9642 23.8422L47.9642 23.8499ZM47.9595 22.1148L48.3245 21.4272L48.5628 21.8763L47.9595 22.1148ZM48.36 33.719L48.3951 33.643L48.3231 33.7961L48.36 33.719ZM47.7414 9.65662L47.7393 9.58097L47.9681 9.57547L47.8967 9.80386C47.823 9.77704 47.7332 9.74554 47.7358 9.66165L47.7414 9.65662ZM48.8196 35.4026C48.9784 35.5245 49.0806 35.4464 49.1991 35.3562C49.024 35.2541 48.78 35.0771 48.6647 35.2922C48.7108 35.3335 48.7625 35.3698 48.814 35.4076L48.8196 35.4026ZM48.5945 32.3886L48.5922 32.2747L48.7475 32.2731L48.6764 32.5C48.8822 32.5406 49.014 32.3594 49.1265 32.1897L49.2082 32.7967C49.035 32.7088 48.5919 32.5431 48.5889 32.3937L48.5945 32.3886ZM48.2671 12.5135C48.2079 12.3345 48.4921 12.3154 48.6415 12.2804C48.6192 12.4878 48.4517 12.5437 48.2614 12.5185L48.2671 12.5135ZM48.9424 24.798L48.9402 24.6441L49.0934 24.7157L48.9424 24.798ZM48.8107 16.198C48.8361 16.203 48.862 16.1973 48.8867 16.1976L48.8056 15.9729L48.7359 16.2001C48.7565 16.2057 48.7816 16.2045 48.8066 16.2033L48.8107 16.198ZM48.9506 22.0863L48.9433 21.7856L49.1721 21.7801C49.0238 22.1237 49.4542 22.2117 49.4199 22.6055C49.0766 22.6176 49.0151 22.3798 49.1031 22.0826L48.9506 22.0863ZM49.1996 26.1255C49.2996 26.1759 49.4279 25.9419 49.4979 25.8544L49.1909 25.7846C49.1699 25.8833 49.0933 26.0754 49.1993 26.1193L49.1996 26.1255ZM49.0457 16.6955L49.1215 16.6567L48.9714 16.7346L49.0457 16.6955ZM49.5593 34.795L49.6354 34.7548L49.4849 34.834L49.5593 34.795ZM48.931 11.9754L49.0812 11.8975L49.0834 12.0514C49.0362 12.0237 48.9851 11.9999 48.931 11.9754ZM49.5973 33.165C49.9513 33.0906 50.358 33.0082 50.4991 32.6938C50.4059 32.9701 50.323 33.3036 50.6753 33.3716C50.255 33.6877 49.9528 33.1462 49.5973 33.165ZM49.8322 35.053L49.8688 34.9773L49.7956 35.1286L49.8322 35.053ZM49.8852 26.2239L50.1138 26.2199L49.9499 25.7701L49.8803 25.9974L49.7998 25.848C49.6372 25.8865 49.6449 26.0752 49.6566 26.228L49.8852 26.2239ZM49.9153 33.768L50.0627 33.5393L50.0676 33.7658L49.9153 33.768ZM49.6486 22.7581L49.6464 22.6042L49.7996 22.6758L49.6486 22.7581ZM50.1038 35.2784C50.1277 35.2831 50.1536 35.2775 50.1786 35.2763L50.1737 35.0498C50.1222 35.0519 50.0724 35.0528 50.0182 35.0529L50.0246 35.2797L50.1038 35.2784ZM50.3929 34.6695L50.4713 34.7432L50.5412 34.5145L50.3148 34.5942L50.3929 34.6695ZM49.9763 15.8509C50.0978 15.8948 50.129 15.815 50.1635 15.7343C50.0614 15.6866 49.9577 15.6385 49.8559 15.5893C49.8587 15.685 49.8482 15.8087 49.9783 15.8405L49.9763 15.8509ZM50.5044 35.9498L50.5783 35.8739L50.4302 36.0273L50.5044 35.9498ZM50.1563 22.7922C50.4199 22.367 50.6674 23.2722 50.2031 23.2066C50.1431 23.0725 50.1234 22.9242 50.1464 22.7796L50.1563 22.7922ZM50.6043 36.6295C50.6282 36.6342 50.6558 36.6273 50.6806 36.6276L50.6757 36.4011L50.5283 36.6298C50.5432 36.6173 50.5771 36.6179 50.5944 36.6167L50.6043 36.6295ZM50.8352 35.1526L51.0261 35.1903C50.9979 35.1147 50.9437 35.0513 50.8731 35.0113C50.8025 34.9712 50.72 34.9571 50.6401 34.9714C50.6221 35.0707 50.6455 35.1091 50.8253 35.1399L50.8352 35.1526ZM50.7378 34.2878L50.7747 34.2107L50.7012 34.3635L50.7378 34.2878ZM50.8486 34.1347L51.0033 34.2067L51.0636 33.9009C50.8475 33.7708 50.5306 33.9477 50.8387 34.1221L50.8486 34.1347ZM50.9805 34.8483C51.0193 34.8559 51.0563 34.8724 51.0945 34.883L51.0893 34.658C51.0133 34.6583 50.9341 34.6595 50.8608 34.662C50.8495 34.7349 50.8504 34.8088 50.9712 34.8326L50.9805 34.8483ZM50.807 32.3586L50.8029 32.2458C51.0065 32.1954 51.1498 32.3725 51.2673 32.5385C51.0406 32.6978 50.7951 32.631 50.8006 32.3436L50.807 32.3586ZM50.8543 26.4719L50.9695 26.5084L50.9658 26.3542L50.7394 26.4339C50.7677 26.4394 50.8056 26.4516 50.8438 26.4622L50.8543 26.4719ZM51.2146 36.426C51.2933 36.5536 51.4625 36.5363 51.5981 36.5324L51.285 36.1637C51.1908 36.2249 51.1053 36.297 51.1988 36.4122L51.2146 36.426ZM50.8966 23.2652L51.0419 22.9608L51.1252 23.2612L50.8966 23.2652ZM50.7806 15.3082C50.8065 15.2949 50.8308 15.2813 50.8564 15.2695L50.7063 15.3473L50.7806 15.3082ZM51.3965 34.4991C51.4626 34.0778 51.8309 34.0017 52.0782 34.3344C51.9132 34.5581 51.644 34.548 51.38 34.4882L51.3965 34.4991ZM51.5861 34.4567C51.7076 34.5006 51.7389 34.4209 51.7734 34.3402C51.6453 34.2827 51.5027 34.2669 51.4706 34.4217C51.4936 34.4232 51.5318 34.4337 51.5697 34.4458L51.5861 34.4567ZM51.4361 26.688L51.514 26.7249L51.5104 26.5707L51.3599 26.65C51.3686 26.6532 51.394 26.6658 51.4197 26.677L51.4361 26.688ZM51.4825 25.6674L51.6284 25.4384L51.7211 26.115C51.6699 26.1156 51.6198 26.1181 51.5656 26.1181C51.5887 25.9462 51.6674 25.6885 51.472 25.6576L51.4825 25.6674ZM51.6414 22.7967L51.7152 22.7208L51.8748 23.0193C51.7404 23.1508 51.5078 22.9162 51.6309 22.787L51.6414 22.7967ZM52.0382 26.6365L52.1121 26.5604L51.964 26.7138L52.0382 26.6365ZM52.1813 26.2565C52.2118 26.063 52.5216 26.1026 52.7105 26.0954C52.6917 26.3556 52.3865 26.2846 52.1709 26.2467L52.1813 26.2565ZM52.555 37.4471L52.5896 37.3342L52.52 37.5614L52.555 37.4471ZM52.2277 25.4952L52.2228 25.2686C52.2989 25.2913 52.3762 25.3158 52.4523 25.3385L52.2277 25.4952ZM52.6746 34.5395C52.8433 34.5482 53.0037 34.3558 53.1247 34.2293L52.6645 34.0879L52.5235 34.5435C52.5747 34.5352 52.6254 34.5375 52.6752 34.5365L52.6746 34.5395ZM52.1249 14.8952L52.2014 14.9318L52.1965 14.7052L52.0467 14.8598L52.1249 14.8952ZM52.8613 35.9729L53.0115 35.895L52.7801 35.7482L52.7109 36.0521L52.8613 35.9729ZM52.6134 25.7156L52.677 25.2677L52.7645 25.7193L52.6134 25.7156ZM53.2163 36.5769L53.4076 36.5733L53.3942 36.0442C53.1277 35.9732 53.0898 36.3617 53.0256 36.5853L53.2163 36.5769ZM53.3984 34.6486L53.5093 34.5339L53.2871 34.7647L53.3984 34.6486ZM53.1894 24.4296L53.3371 24.1994L53.342 24.426C53.2949 24.4136 53.2436 24.4142 53.1921 24.4163L53.1894 24.4296ZM53.5999 27.2499C53.9881 27.1516 53.7049 26.6 53.4007 26.6889L53.4162 27.2935C53.4775 27.2657 53.5394 27.2503 53.6025 27.2367L53.5999 27.2499ZM53.7963 27.5112L53.8747 27.585L54.0224 27.3548C53.878 27.2542 53.6351 27.3152 53.7989 27.4979L53.7963 27.5112ZM54.3836 37.5715L54.4973 37.6077L54.4951 37.4538L54.2687 37.5335L54.3836 37.5715ZM53.6132 10.4621L53.611 10.3082C53.6871 10.3309 53.7569 10.3539 53.8405 10.378L53.6132 10.4621ZM54.5497 36.5883C54.8402 37.1736 54.9937 36.0422 54.4617 36.2488C54.4651 36.3631 54.4962 36.475 54.5523 36.5751L54.5497 36.5883ZM53.9931 10.4603L53.9895 10.3061L54.218 10.3021C54.1461 10.337 54.0709 10.3882 53.9969 10.4411L53.9931 10.4603ZM54.6502 26.6699L54.6872 26.5927C54.8512 26.6251 54.853 26.8127 54.8489 26.9669C54.776 26.8727 54.6047 26.7438 54.654 26.6507L54.6502 26.6699ZM55.0754 37.8661L55.1867 37.7499L54.9578 37.7554L54.9642 37.9823L55.0754 37.8661ZM55.0611 37.2632L55.1773 37.3736C55.219 37.3151 55.2764 37.2694 55.3429 37.2413C55.4094 37.2133 55.4825 37.204 55.5542 37.2147L55.5578 37.3689L56.0116 37.2835C56.0403 37.7587 56.3737 38.2834 56.8642 37.8707C56.9352 38.0059 57.0177 38.2078 57.1746 38.1667C57.1882 37.933 57.0582 37.0526 57.4258 37.4827C57.6026 37.7171 57.3867 38.0888 57.7846 38.1535L57.7517 36.7965C57.4738 36.886 57.4312 36.4264 57.3563 36.2013C56.9967 36.2332 56.9295 36.731 56.5244 36.4439C56.6257 36.7155 56.7294 37.046 56.3897 37.1263L56.3806 36.7485L56.0009 36.7565C56.0186 36.6978 56.0143 36.6348 55.9891 36.5788C55.9638 36.5228 55.9191 36.4776 55.8632 36.4514C55.8072 36.4251 55.7438 36.4195 55.6842 36.4357C55.6246 36.4519 55.573 36.4887 55.5386 36.5395C55.6055 36.3577 55.5999 36.1817 55.3769 36.1653L55.4696 36.842C55.5961 36.7902 55.721 36.7381 55.8462 36.6845C56.0039 36.9612 55.7483 37.1809 55.5477 36.9173L55.5529 37.1423C55.3436 37.1901 55.1169 36.9964 54.9374 36.8536C54.9288 36.9237 54.9356 36.9948 54.9574 37.0622C54.9791 37.1295 55.0153 37.1915 55.0634 37.2437L55.0611 37.2632ZM55.0402 36.5839C55.1672 36.4662 55.1478 36.2583 55.1378 36.089C55.0626 36.1171 54.9861 36.1435 54.9111 36.1701C55.073 36.3233 55.0381 36.5159 54.9233 36.6973L55.0402 36.5839ZM54.493 12.4113L54.7167 12.1807L54.7261 12.557C54.6558 12.4894 54.5724 12.4408 54.4998 12.3927L54.493 12.4113ZM54.9362 27.5688L54.9325 27.4146L55.1611 27.4106L55.1648 27.5648L54.9362 27.5688ZM54.5144 10.0721L54.5123 9.99647C54.7144 9.94581 54.824 10.1132 54.9005 10.291C54.7956 10.2258 54.5187 10.1527 54.5188 10.0576L54.5144 10.0721ZM55.3054 27.0324L55.3765 26.8055C55.4017 26.8098 55.4257 26.8191 55.4472 26.8327C55.4687 26.8463 55.4874 26.8639 55.502 26.8846C55.5166 26.9054 55.527 26.9287 55.5325 26.9534C55.538 26.978 55.5385 27.0035 55.534 27.0284L55.3054 27.0324ZM55.7129 37.5882L55.7868 37.5123L55.6387 37.6657L55.7129 37.5882ZM55.8335 39.4352L55.9078 39.3961L55.7577 39.4739L55.8335 39.4352ZM55.5657 25.1793L55.7148 25.2087C55.6845 25.0247 55.6066 24.862 55.403 24.9124C55.4094 25.0211 55.4048 25.1307 55.571 25.1604L55.5657 25.1793ZM55.5842 24.3865C55.7183 24.3745 55.796 24.5694 55.8573 24.6828L56.0075 24.605L56.0127 24.8301L56.3147 24.6733L55.915 23.9269L55.4738 24.3647L55.5842 24.3865ZM56.0092 37.2799C56.009 37.2435 56.0172 37.2075 56.0332 37.1748C56.0492 37.1421 56.0726 37.1136 56.1015 37.0913C56.1305 37.069 56.1642 37.0535 56.2002 37.0462C56.2361 37.0389 56.2733 37.0398 56.3089 37.049L56.2399 37.3515C56.1736 37.3108 56.0918 37.2854 56.0145 37.261L56.0092 37.2799ZM55.7775 27.7026C55.6555 27.3393 56.2844 27.2301 56.0617 26.867C56.5842 26.9593 55.9201 27.7261 56.242 27.9952C56.0198 28.0297 56.0645 27.5751 55.7828 27.6837L55.7775 27.7026ZM55.988 28.5283L56.1031 28.5265L56.0967 28.2996L55.8745 28.5305C55.917 28.5112 55.9561 28.5097 55.9933 28.5094L55.988 28.5283ZM56.314 35.7271L56.4265 35.6127L56.2028 35.8433L56.314 35.7271ZM56.4225 38.5938C56.5195 38.55 56.4808 38.2984 56.4877 38.177L56.3467 38.6325C56.3838 38.6015 56.4022 38.5867 56.4278 38.5749L56.4225 38.5938ZM56.1049 25.4698L56.1856 25.6576C56.3321 25.5591 56.6108 25.4346 56.5579 25.2707C56.3834 25.3697 56.2558 25.2939 56.1725 25.1271C56.1222 25.1627 56.0877 25.2162 56.0761 25.2765C56.0645 25.3367 56.0767 25.3991 56.1102 25.4509L56.1049 25.4698ZM56.4338 36.2511L56.5099 36.2108L56.3595 36.2901L56.4338 36.2511ZM56.6555 35.1745C56.6811 35.1627 56.7054 35.1491 56.7313 35.1357L56.5766 35.0638L56.5803 35.218L56.6555 35.1745ZM56.5158 24.6516L56.5573 24.8025C56.7338 24.7483 56.9103 24.6941 57.0865 24.6414C56.8997 24.4496 56.4436 24.2245 56.5099 24.6504L56.5158 24.6516ZM56.6338 28.051L56.6316 27.8972C56.7074 27.9213 56.7776 27.9429 56.8608 27.9685L56.6338 28.051ZM57.0451 38.5324C57.0705 38.5374 57.0964 38.5318 57.1214 38.5306L57.0402 38.3059L56.9703 38.5346L57.0451 38.5324ZM57.2124 35.9643C57.3125 35.9364 57.414 35.9089 57.5152 35.8828C57.3801 35.6567 57.232 35.2054 56.9675 35.2898C57.2273 35.6142 56.8899 35.7533 56.9097 36.0457C56.999 36.0096 57.1005 35.9821 57.2017 35.956L57.2124 35.9643ZM56.798 25.1063L56.8697 24.9547L56.7145 24.9563L56.7203 25.2643L56.798 25.1063ZM57.2414 40.3022L57.3157 40.2632L57.2369 40.1126L57.1655 40.341C57.1806 40.3194 57.205 40.3058 57.2306 40.294L57.2414 40.3022ZM57.1885 25.593L57.3376 25.6225L57.3318 25.3144C57.1417 25.3352 56.8409 25.4938 57.1786 25.5804L57.1885 25.593ZM57.2531 25.1009C57.4584 25.1675 57.4958 25.1979 57.4865 25.3235C57.7327 25.2539 57.9165 25.1152 57.7801 24.8642L57.5579 25.0951C57.4652 24.8819 57.2442 24.8552 57.0193 24.8799C57.0004 24.9912 57.0375 25.0231 57.2432 25.0882L57.2531 25.1009ZM56.9781 10.5827C57.005 10.588 57.0292 10.6066 57.0549 10.6178L57.0527 10.464L56.9025 10.5417L56.9781 10.5827ZM57.8175 35.8427L57.8918 35.8037L57.7417 35.8814L57.8175 35.8427ZM57.5824 26.0391L57.657 25.9985L57.5066 26.0778L57.5824 26.0391ZM57.9597 25.9171L58.119 26.2171C58.1273 26.1671 58.1455 26.1192 58.1726 26.0764C58.1997 26.0335 58.2352 25.9965 58.277 25.9674C58.3188 25.9384 58.3661 25.9179 58.4161 25.9072C58.466 25.8965 58.5177 25.8958 58.568 25.9051L58.5607 25.6044L58.9418 25.5967L58.9354 25.3699C58.6103 25.3058 58.409 25.5561 58.2625 25.8357C58.1717 24.9921 57.6215 25.1813 57.9484 25.9041L57.9597 25.9171ZM58.0543 26.6709L58.0506 26.5167L58.2053 26.5886L58.0543 26.6709ZM58.2833 25.1568L58.4731 25.1528L58.4709 24.9989L58.0941 25.1578L58.2833 25.1568ZM58.6897 40.4299L58.768 40.4653L58.6853 40.2403L58.6133 40.3934L58.6897 40.4299ZM58.61 37.1116L58.6055 36.922C58.7924 36.8622 58.9534 37.2715 59.0749 37.4413C58.8826 37.3711 58.5894 37.3179 58.5989 37.0972L58.61 37.1116ZM58.8691 38.3506C58.8526 38.065 59.1976 37.9658 59.0791 37.5925L59.3846 37.662L59.4592 37.2838C59.5876 37.3322 59.7144 37.3802 59.8431 37.4271C59.7232 37.4771 59.6969 37.5241 59.7366 37.7314C59.8245 38.071 59.2462 38.1594 59.5638 38.4892C59.2278 38.653 59.1804 38.2493 58.858 38.3361L58.8691 38.3506ZM59.2151 25.9315L59.2515 25.8175L59.1802 26.0459L59.2151 25.9315ZM59.7498 38.5596C59.8643 37.9085 60.4942 39.0042 59.8014 39.1622C59.7336 38.9637 59.7121 38.7527 59.7387 38.5452L59.7498 38.5596ZM59.4737 25.5866L59.5476 25.5106L59.3996 25.664L59.4737 25.5866ZM59.7033 28.6014L59.8534 28.5236L59.9325 28.6727C59.8411 28.6332 59.7635 28.6102 59.6877 28.586L59.7033 28.6014ZM60.1229 39.6845C60.1981 39.6333 60.2733 39.5821 60.3472 39.5292L60.3509 39.6834C60.2596 39.6669 60.1833 39.6688 60.1073 39.6691L60.1229 39.6845ZM60.4876 38.9983C60.5138 38.8654 60.518 38.4749 60.6265 38.4671C60.837 38.5547 60.7318 38.9467 60.472 38.983L60.4876 38.9983ZM60.2315 28.3588L60.3774 28.1298L60.3841 28.3551C60.3158 28.3478 60.266 28.3488 60.2148 28.3494L60.2315 28.3588ZM60.208 27.3781L60.2059 27.3025C60.3977 27.2652 60.5803 27.3918 60.7445 27.5178C60.5272 27.567 60.2118 27.6259 60.1913 27.3687L60.208 27.3781ZM60.3488 27.0729L60.4092 26.7672C60.4865 26.7916 60.5623 26.8158 60.6398 26.8387L60.3488 27.0729ZM60.6349 31.0657L60.7484 31.0635L60.6651 30.7632L60.5213 31.0678L60.6349 31.0657ZM60.7334 27.2915C60.7379 27.1573 60.7823 27.0275 60.8612 26.9185C60.94 26.8096 61.0497 26.7263 61.1765 26.6791C61.1945 26.8469 61.3076 27.2713 61.1537 27.3207C60.9999 27.3702 61.045 27.5417 61.0477 27.6619C60.9671 27.5049 60.8949 27.2267 60.7211 27.2829L60.7334 27.2915ZM60.9762 27.8903L60.9741 27.7364C61.1529 27.6781 61.1747 27.9602 61.2106 28.1085C61.0787 28.0702 60.9614 28.0439 60.964 27.8818L60.9762 27.8903ZM61.0924 29.5476L61.3182 29.3927L61.3204 29.5466C61.2327 29.5354 61.1565 29.5372 61.0802 29.5391L61.0924 29.5476ZM61.3408 27.5034L61.3359 27.2769C61.4378 27.3261 61.5399 27.3739 61.6435 27.422L61.6398 27.2678C61.7158 27.2675 61.7951 27.2662 61.8684 27.2637L61.8827 27.8666C61.5586 27.97 61.6547 27.3889 61.336 27.4963L61.3408 27.5034ZM61.4546 29.0866L61.9819 28.8484L62.1436 29.2225C62.0675 29.1999 61.9977 29.1768 61.9141 29.1527L61.9242 29.6043C61.8983 29.343 61.6866 29.1907 61.4509 29.0736L61.4546 29.0866ZM61.8864 28.0208L62.0323 27.7918C62.112 27.8904 62.19 27.9901 62.2682 28.0884C62.136 28.0593 62.009 28.0358 61.8816 28.0137L61.8864 28.0208ZM62.1555 26.5393L62.2334 26.5762L62.2297 26.422L62.0793 26.5012C62.0987 26.5127 62.1241 26.5254 62.1498 26.5366L62.1555 26.5393ZM62.5465 36.4166C62.5733 36.4219 62.5975 36.4405 62.6229 36.4532L62.6207 36.2993L62.4706 36.377C62.4897 36.39 62.5154 36.4013 62.5483 36.4154L62.5465 36.4166ZM62.6158 36.1126L62.6922 36.1491L62.69 35.9952L62.5396 36.0746L62.6158 36.1126ZM62.3331 27.555L63.0198 27.6168L62.9508 27.9193C62.7405 27.7969 62.5323 27.6766 62.3263 27.5582L62.3331 27.555ZM62.5049 28.3807L62.4998 28.1556C62.5495 28.1547 62.6011 28.1526 62.6553 28.1526L62.6617 28.3794L62.5049 28.3807ZM63.2493 27.6866L63.5468 27.3801L63.5541 27.6808L63.2493 27.6866ZM63.8911 28.9887C63.8801 28.8638 64.0162 28.7863 64.1119 28.7254L64.2743 29.1748C64.138 29.1433 63.8792 29.1352 63.8843 28.992L63.8911 28.9887ZM64.3344 28.4148L64.4848 28.3355L64.487 28.4894L64.3344 28.4148ZM64.4602 28.9C64.6332 28.5965 64.8234 28.944 65.0746 28.9276C65.6175 28.9795 65.0793 29.3122 64.8185 29.3851C64.916 29.1265 64.4203 29.11 64.4542 28.8988L64.4602 28.9ZM64.6751 28.3684L64.7115 28.2544C64.7886 28.3034 64.8658 28.3524 64.9432 28.3999C64.9749 28.2388 65.0507 27.9806 64.8553 27.9497L65.3064 27.7134C65.1952 27.8449 65.3363 27.9464 65.466 28.0119C65.2191 28.1166 64.939 28.2716 65.0973 28.553C64.886 28.6111 64.5609 28.6804 64.668 28.3731L64.6751 28.3684ZM65.4723 28.2388C65.4668 28.141 65.6774 28.1104 65.7729 28.0817L65.6277 28.386C65.5522 28.3604 65.462 28.3304 65.4652 28.2435L65.4723 28.2388ZM66.0102 31.6228L66.1582 31.4694L66.2415 31.7698L66.0102 31.6228ZM66.5203 27.7258C66.5459 27.714 66.5703 27.7003 66.5961 27.687L66.4457 27.7663L66.5203 27.7258ZM66.805 30.2097L66.8024 30.0972C66.8525 30.0948 66.9037 30.0941 66.958 30.0941L66.9653 30.4025C66.8793 30.3671 66.8037 30.3338 66.8068 30.2162L66.805 30.2097ZM67.2175 31.5587L67.2149 31.4462C67.4803 31.4049 67.6522 31.735 67.5317 31.969C67.423 31.8678 67.2137 31.696 67.2238 31.5661L67.2175 31.5587ZM67.9513 28.8291C67.9901 28.8367 68.0274 28.8518 68.0668 28.8642L67.9841 28.6392L67.8361 28.7926L67.9513 28.8291ZM68.0069 29.5445C68.0308 29.5492 68.0567 29.5435 68.0832 29.5426L68.0774 29.2346C68.0258 29.2367 67.9746 29.2373 67.9218 29.2377L67.9277 29.5457C67.9575 29.5516 67.9825 29.5504 68.0087 29.551L68.0069 29.5445ZM68.6391 32.097L68.7548 32.1705L68.9003 31.8646L68.5924 31.721C68.5609 31.8575 68.5026 32.0271 68.6409 32.1035L68.6391 32.097ZM68.6081 29.2303C68.6923 29.3221 68.8699 29.2543 68.9878 29.2223L68.8254 28.7729C68.6232 28.7929 68.465 29.0762 68.6129 29.2374L68.6081 29.2303ZM68.9904 30.8818C69.2008 30.8051 69.1423 30.654 69.096 30.5037L68.8027 30.9615L68.9904 30.8818ZM69.0113 31.75C69.0501 31.7576 69.0889 31.7729 69.1268 31.785L69.1231 31.6308C69.0481 31.6574 68.9729 31.6856 68.8964 31.712C68.9373 31.7323 68.9752 31.7443 69.0131 31.7564L69.0113 31.75ZM69.1125 31.1822L69.1866 31.1047L69.0368 31.2593L69.1125 31.1822ZM69.4569 29.7032L69.5313 29.6641L69.3808 29.7434L69.4569 29.7032ZM69.6193 30.1526L69.6972 30.1895L69.7693 30.0365C69.6932 30.0138 69.6233 29.9908 69.5398 29.9666C69.5381 30.0461 69.5363 30.1255 69.6211 30.1591L69.6193 30.1526Z" fill="#839CB5"/>
  </g>
  <defs>
    <clipPath id="clip0_1762_1287">
      <rect width="33" height="68" fill="white" transform="translate(0 32.376) rotate(-78.8392)"/>
    </clipPath>
  </defs>
</svg>