<svg xmlns="http://www.w3.org/2000/svg" width="220" height="84" viewBox="0 0 220 84" fill="none">
  <g clip-path="url(#clip0_1762_1042)">
    <path d="M136.492 83.8281C139.3 83.3573 142.153 83.9512 144.789 83.6337C146.385 83.6337 151.674 84.0657 153.005 83.3724C153.193 83.6856 154.5 83.7827 154.6 83.3724C155.787 84.0441 156.47 83.2493 157.949 83.502C159.004 83.7525 159.447 83.286 160.024 83.5668C160.852 83.7374 165.337 82.8519 166.088 83.7633L165.93 83.3724C167.328 83.6359 169.147 82.7979 170.318 83.6337C171.188 83.8022 171.694 82.8239 172.551 83.2407C174.982 83.1349 179.438 84.0095 181.405 82.5928C180.369 80.3705 173.271 82.1868 170.874 81.6771L170.874 81.9384C167.839 81.4438 165.719 82.0658 162.579 82.1997C156.913 81.8563 148.99 82.2775 143.595 81.9384L143.595 82.461C141.839 81.3596 137.723 82.5496 135.537 82.3315C133.201 82.5129 131.137 81.9967 128.996 82.3315C128.548 82.582 126.937 82.0896 126.684 82.7245C126.905 81.8391 122.494 82.3638 122.138 82.0766C121.165 81.8779 120.474 82.8217 119.346 82.2062C117.592 81.1976 116.54 82.772 114.877 81.8153C114.85 82.2472 114.012 82.4761 113.682 82.0766C113.561 81.7073 111.905 82.0248 111.768 81.8153C110.521 81.1933 111.146 82.528 110.41 82.5992C110.597 81.7764 108.375 81.1631 108.177 81.9514L108.968 81.69C108.256 82.8152 107.246 81.2711 106.331 81.69C105.013 82.2019 104.681 81.7505 103.141 81.4935C101.651 81.027 101.227 81.7613 99.7132 81.4287L99.7132 81.69C99.0962 81.8218 99.1121 81.1069 98.4371 81.1674C97.9097 81.1674 97.0211 81.297 97.1608 81.8153L96.6836 81.8153L97.0027 81.4222C95.9982 80.8737 94.8591 81.4374 93.9706 81.2927C94.3925 82.6424 92.6338 82.9362 91.7373 82.0766C93.0345 82.0291 94.4187 80.8218 92.3753 80.8996C92.3041 82.0982 90.7775 80.6685 90.2212 80.5735C89.0927 80.5735 87.8483 81.0054 86.3137 80.6383L86.6328 81.0313L85.8418 81.4222C86.232 80.6987 85.3776 80.4353 84.8846 81.0313C85.1825 81.7635 87.6505 81.4633 87.4369 82.3271C86.8542 82.2451 85.4515 82.3271 85.3645 81.9341C84.2018 82.5517 82.2189 81.9643 80.7371 81.8045C81.4358 80.7938 83.1761 81.9319 84.0884 80.8888C83.6112 80.3294 82.5987 80.8003 82.3324 79.9753C81.805 80.8866 80.5737 80.3165 80.099 80.8888C79.8354 80.1761 78.9548 80.3078 78.1849 80.4979L78.1849 79.9753C77.0169 80.2733 74.657 79.0207 75.6326 81.0205C76.1203 80.8262 76.4948 81.0421 76.7479 81.4114C77.2752 81.1803 77.5072 80.7376 77.5389 80.2366C77.4176 80.7635 77.8342 81.189 78.3299 81.5432C78.67 80.3186 81.5888 81.9557 79.6087 81.9341L79.6087 82.3271C78.8704 81.744 77.908 81.636 76.8955 81.8045L77.0538 82.0658C76.7163 82.1846 76.5476 82.1716 76.1784 81.8045C75.4982 81.1868 74.2985 81.8866 73.5418 81.2819C74.9867 81.0421 74.0216 79.3554 73.0645 79.9753L73.8555 80.3662C73.0382 80.4482 73.1172 82.1328 72.1021 81.3466C71.7435 81.0421 71.3111 81.5259 70.7442 81.2819C70.3724 81.1933 70.1615 81.1933 70.1062 81.2819C69.7212 81.5885 68.2604 81.6036 68.2736 80.8888C67.9994 81.063 67.6623 81.1576 67.3153 81.1576C66.9682 81.1576 66.6311 81.063 66.3569 80.8888C66.3645 80.9705 66.3477 81.0524 66.308 81.1276C66.2683 81.2028 66.2068 81.2689 66.129 81.3204C66.0512 81.3718 65.9592 81.4069 65.8611 81.4228C65.763 81.4387 65.6618 81.4348 65.5659 81.4114C66.1539 82.474 67.2374 82.2926 68.2789 81.6728C68.2235 81.8045 68.1708 81.9341 68.1181 82.0658C69.5313 82.69 70.2986 82.2451 72.2655 82.6532C73.6261 83.1219 75.0341 82.5431 75.8567 82.7828C76.9536 83.0895 84.5577 83.448 85.0296 82.718C86.348 83.6834 91.5184 83.2644 93.3246 83.1111L93.3246 83.3724C94.2843 83.4264 95.1965 82.8973 94.4424 82.1954C94.9698 82.0593 95.6844 81.8412 95.8769 82.3271L95.3996 82.5884C95.927 83.6272 96.1906 83.7827 97.791 83.3724L97.791 83.8886C98.3975 83.1932 100.285 84.1823 100.343 82.9729C100.42 82.974 100.496 82.9894 100.565 83.0181C100.633 83.0468 100.693 83.0878 100.739 83.1382C100.785 83.1886 100.817 83.247 100.832 83.3089C100.846 83.3708 100.843 83.4346 100.823 83.4955L101.3 83.2342L101.619 83.6272L102.41 83.1046C102.426 83.7352 104.762 83.4199 105.601 83.4955C105.337 83.0485 106.692 82.8347 106.798 83.2342C106.903 83.6337 108.686 83.1716 109.271 83.1046L109.271 83.4955C109.561 82.9945 112.39 83.8799 112.699 83.5625C112.791 83.3055 113.54 83.3746 113.893 83.3659L113.416 83.4955C113.466 83.8842 113.972 84.07 114.207 83.6272C114.708 83.2191 116.295 83.8583 116.598 82.9793C116.77 83.4113 116.915 83.6445 117.716 83.502C118.694 83.2558 119.343 83.8173 120.108 83.3724C121.218 84.2082 124.326 83.5884 125.692 83.502C129.027 84.5365 133.012 83.6013 136.492 83.8281ZM106.421 83.502L106.26 83.3724C106.368 83.4588 106.474 83.5452 106.579 83.6337L106.421 83.502ZM100.037 82.718L99.3994 82.5884L100.037 82.4567L100.037 82.718ZM195.84 82.1954C196.581 81.2473 197.752 81.1631 197.913 79.8435C198.021 78.8263 199.091 77.5543 197.834 76.969C198.888 76.658 198.097 75.8179 198.625 74.9433C198.907 73.3861 202.978 74.7122 202.611 73.0492C203.542 73.9131 204.644 72.3797 205.483 73.3106C205.846 72.4575 206.88 73.1097 207.877 72.5914C208.989 72.1595 208.931 72.0126 209.722 71.6757C210.015 71.3474 210.83 71.775 211.078 71.0883C211.766 70.395 215.033 70.0948 214.11 68.6047C215.302 68.3736 216.372 67.9092 216.422 66.9072C216.143 66.2139 217.543 66.1837 217.458 65.7302L216.667 65.9915C216.825 65.512 216.986 65.0347 217.145 64.5553L216.506 64.4236L217.145 64.4236L216.986 63.51C217.561 63.5338 217.733 64.3501 217.944 64.8166C220.317 62.1818 216.786 61.6009 219.378 59.8494L218.901 59.5881L218.582 60.236C218.476 59.9315 218.368 59.6269 218.263 59.3203L218.56 59.3203C218.415 58.6573 219.014 58.3765 218.719 57.7524C220.2 58.0245 219.325 56.7524 219.676 56.1197C219.763 55.5538 218.98 55.2385 219.676 54.6079L219.035 54.6079C220.546 51.7571 219.868 47.7488 219.594 44.7426C220.448 42.7665 219.541 41.4059 219.275 39.3197C219.204 37.16 219.892 35.7649 219.117 33.832C218.724 33.4799 219.518 32.5707 219.117 32.1971C218.716 31.8235 219.18 31.4671 218.798 31.1518C218.466 30.7652 219.024 29.1887 218.397 28.9317C218.568 28.4609 218.753 27.8843 217.92 27.6899C218.545 27.3897 218.85 26.9815 217.92 26.9059C218.566 26.1695 217.986 25.7419 217.999 24.945C218.125 24.0984 217.152 24.4266 217.282 23.4332C217.166 22.4743 218.413 20.9064 216.644 20.7552C216.997 19.5782 217.862 17.8181 215.687 18.142C215.671 17.3624 215.908 16.7404 216.404 16.3128C216.517 16.1249 215.652 13.6499 215.048 13.9609L215.207 14.6088L214.888 14.6088C214.663 13.5549 213.965 11.3974 212.251 11.0152C210.701 10.0627 211.444 9.09953 208.662 9.77334C208.707 9.0261 208.064 8.58984 207.225 8.33716C207.17 8.8382 206.611 9.32197 206.028 8.79501C205.802 8.30693 203.147 8.46027 203.392 7.81453C202.865 7.96355 201.712 8.57258 202.116 7.68279C202.34 6.51874 200.502 6.36324 199.882 7.2919C199.537 6.27901 197.338 6.95714 197.807 5.85355C197.412 5.90107 197.051 5.8082 197.016 5.46266C197.04 6.09112 196.054 5.98314 195.419 5.9853L195.419 5.72398L195.898 5.72398L195.898 5.49289C195.776 5.46239 195.644 5.46837 195.526 5.50978C195.409 5.55119 195.312 5.62536 195.255 5.71918C195.198 5.813 195.182 5.92042 195.212 6.02247C195.242 6.12452 195.315 6.21463 195.419 6.27685L195.1 6.40642C195.098 6.34342 195.079 6.28148 195.044 6.22536C195.009 6.16925 194.959 6.12046 194.898 6.08272C194.836 6.04497 194.765 6.01929 194.689 6.00764C194.613 5.996 194.536 5.99869 194.461 6.01553L194.461 5.23157C194.121 5.31148 194.05 4.94866 193.984 4.70894C193.747 5.00049 193.457 5.31148 193.027 5.23157C193.133 5.49289 193.241 5.75421 193.346 6.01553C191.334 6.87939 190.013 4.6895 188.561 4.31588C188.917 4.12367 189.296 3.88395 189.199 3.53192C188.268 3.60534 188.263 4.21005 188.561 4.83851L187.922 4.70894C187.938 5.22078 188.851 5.01346 189.357 4.97026C188.729 7.01546 187.511 4.38067 186.486 4.32236C186.881 4.12367 186.802 3.55784 186.805 3.14534C186.757 3.57728 185.858 3.11295 185.768 3.5384C185.462 4.46489 183.981 4.23381 182.976 4.06104L183.134 5.23806C182.388 5.40219 181.489 4.42818 182.019 3.9293C182.628 3.9293 183.445 3.90339 184.091 3.40667C184.091 3.70254 184.033 4.13231 184.41 4.19278C184.674 3.32891 184.389 2.60975 183.295 2.36139L183.295 3.5384C182.56 3.61831 182.768 2.48232 181.858 2.49312C181.966 2.75444 182.072 3.01576 182.177 3.27708C179.828 3.59023 181.663 2.53632 181.386 1.83875C180.129 2.05471 179.577 2.76956 179.804 3.79971L181.08 3.79971C181.028 4.01568 180.972 4.23165 180.92 4.44761C180.226 3.63774 179.027 4.67655 180.129 5.29637C180.714 5.85357 180.21 6.18615 181.803 6.2099C185.428 6.32436 189.847 7.40635 193.37 7.64823C194.72 7.74325 196.107 8.44732 197.359 8.56177C197.607 8.87925 198.132 8.49698 198.395 8.89004C198.859 9.30469 199.031 8.70646 199.671 9.28094C200.462 9.8878 201.13 9.26798 202.063 9.60921C203.118 9.85972 203.086 10.8251 204.217 10.8489C204.639 10.9396 204.597 10.0671 204.855 10.0649C205.208 10.1102 205.612 10.7128 205.335 10.9806C206.276 10.7646 208.702 10.5703 209.005 11.568C209.161 12.3477 210.716 12.555 210.121 13.5938L211.078 13.5938C210.437 12.298 213.379 13.4988 212.673 14.2417C212.396 13.6953 211.436 14.1531 211.238 13.719C211.439 14.5354 210.685 14.9997 210.919 15.8096C211.217 16.5871 211.932 17.0579 211.397 17.7684L211.877 17.9001C211.724 17.4164 212.298 17.2199 212.834 17.1162C212.868 17.844 211.531 18.3407 212.196 19.075C212.583 18.4595 213.353 18.859 213.63 18.291C213.78 17.9433 213.846 17.8786 214.11 17.9001C214.35 18.6409 213.675 18.764 213.472 19.2715C213.643 20.0166 214.687 20.671 212.992 20.5133L212.992 20.7747L213.472 20.7747C213.208 21.1029 212.923 21.4765 212.992 21.8199L213.472 21.8199C212.865 22.4678 213.374 23.2129 213.949 23.5844C213.859 23.9407 213.045 23.8003 213.074 24.3683C212.907 25.0162 213.14 25.1458 213.791 24.9558C213.39 25.7203 214.165 25.9039 214.189 26.5237C214.155 26.6367 214.169 26.7556 214.226 26.8619C214.284 26.9681 214.383 27.0557 214.508 27.1111C215.035 27.4523 215.399 26.7548 215.863 27.1781C216.325 27.3357 215.882 28.8237 216.264 28.9425C216.87 29.4219 216.016 30.1433 215.225 29.9208C215.157 31.0503 213.933 30.6443 214.906 32.0114L214.429 32.0114C214.344 32.7996 215.333 32.9616 216.182 33.0588C215.919 33.292 215.708 33.4627 215.225 33.3849C213.453 33.7499 215.876 34.0738 216.662 33.711C216.786 34.0911 216.277 34.2509 215.871 34.3589C217.98 34.428 215.85 36.1061 215.233 34.4885C214.69 35.4431 214.505 36.9268 216.19 36.4495C216.206 36.9699 216.472 37.3544 217.147 37.2334C217.245 37.5142 216.805 37.5725 216.509 37.6243C217.081 38.3392 216.161 38.8229 215.394 39.1922C215.969 39.0972 216.517 39.5076 216.989 39.8401C216.557 40.2202 216.873 40.8681 216.032 41.1467L216.351 41.2763C216.235 40.866 217.305 40.8271 217.466 41.1467L216.509 41.7946C215.945 40.8703 215.191 41.8054 214.914 42.4425C216.145 42.5419 217.814 42.8637 215.871 43.4878C217.229 45.0644 215.65 44.1055 215.473 45.3818C215.267 46.2824 215.987 46.196 216.032 46.8936C216.003 47.3255 216.438 47.4292 216.823 47.5415C216.878 47.3255 216.931 47.1096 216.984 46.8936C218.038 47.0102 217.158 48.7401 217.775 49.1159C217.205 49.0101 216.807 48.9582 216.58 49.6385C216.404 50.5024 215.573 50.2519 215.541 51.0099C215.507 51.6967 216.106 51.6578 215.942 52.3834C215.874 52.8564 215.911 52.9752 216.18 53.1674C215.607 53.3834 214.895 54.5496 215.222 54.9966L215.702 54.7353C215.759 54.8654 215.868 54.9755 216.012 55.0468C216.157 55.118 216.327 55.1461 216.493 55.1262C216.388 55.3012 216.282 55.4761 216.174 55.6489L217.131 55.6489C217.147 56.5689 217.018 58.9359 215.217 58.6551C215.481 57.8906 215.415 57.1088 216.008 56.5646L215.37 56.4328C213.814 58.1735 214.843 58.897 214.89 60.7521C213.414 60.791 214.563 61.4 215.051 61.6657C214.756 61.9443 213.627 62.0717 213.775 62.7131C214.21 62.6008 214.273 63.4344 214.413 63.7584C217.208 62.2229 215.283 66.1772 215.051 63.888L213.933 64.1493L214.571 65.065C213.994 65.0131 213.445 65.0995 213.295 65.5876C213.862 65.7064 214.877 65.7582 214.89 66.2355C214.134 66.2139 214.02 66.7366 214.099 67.2808C214.363 67.0843 214.693 67.0087 214.89 67.2808C213.875 67.7926 212.607 68.2159 212.338 69.11L211.547 68.8487C211.547 69.5484 210.099 69.691 209.87 70.3605C209.82 70.494 209.712 70.6077 209.566 70.6802C209.42 70.7527 209.247 70.7787 209.079 70.7535C208.191 70.6434 207.761 71.585 206.764 71.4727C205.773 71.4165 205.973 71.7794 205.251 71.9284C204.649 72.0212 203.914 71.7124 203.735 72.3862C203.597 71.9867 201.646 72.2912 201.58 72.6475C200.789 72.9845 199.339 73.1788 198.311 72.9089C198.372 71.544 200.404 71.6908 201.182 71.1444C201.285 70.7125 202.139 70.7125 202.139 70.2957C202.116 69.9976 202.498 69.9588 202.777 69.9026C202.725 70.0775 202.669 70.2525 202.617 70.4274C203.814 70.0948 202.88 69.285 201.978 69.2504C202.031 70.233 199.463 69.3152 199.745 70.4274L198.311 70.4274C198.24 63.4582 197.886 55.6899 198.788 48.9949C198.074 48.7228 198.406 47.6279 198.788 47.1657C197.232 46.4854 199.669 43.5137 198.311 42.5937C198.575 42.5095 198.627 42.4296 198.63 42.0711C198.572 41.5096 199.128 41.732 199.107 41.2202C198.622 40.4729 198.997 39.8272 199.107 39.0605L198.63 39.1901C198.593 38.3262 198.554 37.0175 199.107 36.6438C198.844 36.227 198.266 36.1385 199.028 35.5964C199.635 35.2033 198.87 33.8924 198.949 33.4367C198.891 32.9184 199.526 32.4692 199.426 31.9984L199.107 31.9984C199.131 31.3138 199.421 30.1454 198.949 29.7783C199.911 29.5969 199.497 28.2665 198.949 27.8173C199.645 27.6337 199.476 26.1695 199.587 25.4654C200.294 25.7224 201.04 26.0399 201.182 26.6425L200.391 26.6425C200.091 27.5322 200.961 27.6121 201.182 28.2104C200.984 29.0375 199.582 30.4672 201.34 30.8236C200.022 31.1691 201.119 32.3224 201.021 33.0458L201.501 33.0458L201.501 32.6528C203.328 33.5167 203.473 30.3247 201.978 30.4305C202.108 30.0893 202.329 29.666 202.769 29.9079C202.957 29.4003 201.855 29.2988 202.05 28.733C202.242 28.232 201.201 27.0895 201.333 26.6425L202.29 26.9038C202.785 26.0399 201.512 26.122 201.891 25.2689C202.508 23.5412 200.573 20.7055 200.375 19.3234L200.056 19.3234C200.404 17.8375 199.956 15.4597 197.823 15.4036C197.72 14.8183 198.53 14.5699 197.984 13.9674C197.763 14.7082 197.172 15.0235 197.665 15.9262L196.386 16.058C196.547 15.7966 196.708 15.5353 196.866 15.274C195.142 15.693 193.475 14.7168 191.593 15.1423L191.593 14.7514C190.596 14.7514 189.207 14.6261 188.721 15.274C189.718 13.8162 186.889 14.6477 186.409 14.1618C185.845 13.4815 181.903 14.341 183.137 12.65C181.948 12.2008 180.031 12.5118 178.99 12.9135C176.743 12.3822 173.956 12.46 171.491 12.5852C169.996 12.7191 169.403 12.1986 167.744 12.3908C166.036 12.5463 164.364 11.5659 162.719 12.3908C161.601 10.959 160.454 13.6089 158.888 13.3065C159.987 14.516 161.482 12.4794 162.081 13.3065C163.599 13.9544 166.12 13.488 167.744 13.6996C170.5 13.8119 174.887 13.9415 177.792 14.0257C178.66 14.2417 181.566 14.2827 182.42 14.6131C182.858 15.287 183.646 14.6391 184.176 14.9392C185.076 15.1978 186.051 15.2212 186.968 15.0062L186.968 15.5288L188.882 15.3971C188.669 16.7512 194.298 15.4684 194.306 16.8354C193.251 16.0472 193.604 18.0254 193.826 18.4033C194.018 18.9843 194.955 18.9411 194.944 19.5782C195.258 19.2672 195.685 18.9735 196.059 19.3169C195.168 18.9454 196.014 18.3947 195.901 17.9455C195.582 17.2976 196.307 16.3452 197.177 17.1616C197.747 18.317 196.74 18.6107 197.098 21.5392C196.871 24.2755 197.889 25.2689 196.059 25.3294C196.115 25.1544 196.167 24.9795 196.22 24.8067L196.7 24.9363L196.7 24.4137C195.21 24.256 195.44 25.0097 195.102 25.7095C195.769 25.9686 195.88 25.5626 196.378 25.4482C197.47 25.6641 196.115 26.3984 195.587 26.6252L195.587 26.1025C195.121 26.3401 194.269 25.9082 193.673 25.7095C193.739 26.433 194.554 26.9016 193.992 27.8L195.426 27.8L195.426 28.3227L195.746 28.3227C195.482 28.6984 194.881 28.3594 194.469 28.1931C193.565 29.2254 194.541 30.059 194.15 31.3289C194.775 30.4651 194.807 31.4823 194.63 31.9768C195.094 31.8753 195.289 32.2943 195.421 32.6247C194.939 32.3526 194.308 31.8883 193.826 31.9768C193.939 32.4087 194.548 32.791 194.464 33.4151L195.102 33.1538C195.767 34.1948 193.33 34.8081 195.102 35.2444C194.622 35.9873 196.439 35.8577 196.059 36.6827L195.102 36.4214L195.102 37.4667C194.891 37.1168 194.678 36.7684 194.464 36.4214C194.058 37.4516 194.327 38.283 195.74 38.3802C195.616 38.8942 195.295 39.2851 194.625 39.1642C194.556 39.5961 195.653 39.4838 195.74 39.9481C192.724 39.4752 193.212 45.1464 194.625 42.5635C197.438 43.2265 195.927 44.1357 193.668 43.9996C193.512 44.8873 194.968 44.559 195.74 44.5223C195.5 45.1551 194.264 44.9672 194.145 45.5676L194.783 45.6993C194.166 46.6949 195.337 47.6646 195.102 48.7034L195.582 48.7034L195.102 49.0964C195.598 49.1288 195.759 49.6256 195.893 50.01C195.712 50.0812 195.509 50.1069 195.31 50.0838C195.111 50.0608 194.925 49.99 194.775 49.8804C194.678 50.4721 194.812 51.6081 193.984 51.58C194.261 50.7745 193.417 50.349 193.346 49.7487L193.665 49.7487L193.665 48.9647L194.622 48.9647L194.622 47.8222L194.303 48.2131L193.823 47.9518C193.837 49.0943 192.471 50.0165 193.267 51.0229C193.647 51.3252 192.908 52.5519 193.106 52.919C193.346 53.5259 193.839 53.7483 193.665 54.487L193.027 54.3552C192.964 54.7008 192.803 55.1672 193.027 55.4005C193.842 54.4762 194.609 56.5235 193.665 56.5775C193.711 56.4215 193.688 56.2572 193.6 56.1137C193.512 55.9703 193.365 55.8569 193.185 55.7936C192.458 56.4069 194.048 57.8668 192.708 57.8841C193.235 58.0072 193.425 58.3592 193.346 58.7976C193.752 58.3117 194.414 58.262 195.1 58.4067L195.1 57.1088L195.738 57.2384C195.782 59.7738 195.537 62.4345 195.419 65.2097C194.86 65.011 193.889 64.6136 194.628 64.1644C194.364 63.9182 194.055 63.713 193.67 63.7735C193.821 65.2853 192.12 64.0543 193.351 65.864C194.865 65.525 194.345 66.2031 193.51 66.7776C194.024 66.9439 195.128 67.0799 194.947 67.5615L195.585 67.5615C195.542 68.0172 195.392 68.4708 194.794 68.4772L195.432 69.1251L194.641 69.6478C195.661 69.9328 195.102 70.4771 195.2 71.1595C195.4 71.7815 193.813 72.2955 193.605 72.7275C193.32 73.2263 192.65 72.7685 192.328 73.1853C192.173 73.5546 189.976 73.4531 189.855 73.8332C188.906 74.317 187.654 74.5135 186.583 74.8785C185.916 74.8223 185.47 74.1571 184.737 74.6172C184.777 73.4704 183.018 73.1399 182.823 74.3558C183.182 74.4573 183.572 74.4962 183.78 74.2241C184.809 75.8352 182.016 73.9174 182.665 75.1398C182.167 75.1398 181.413 75.0664 181.389 75.5307C181.212 75.1506 180.806 75.1808 180.432 75.4011C180.537 75.1398 180.643 74.8785 180.751 74.6172C179.783 74.4703 179.617 75.8546 178.357 75.5955C177.038 75.6927 177.45 74.3386 176.442 74.4854C177.065 74.6409 177.102 75.4681 176.603 75.6624C176.34 75.6452 176.382 75.0707 175.965 75.1398C175.454 75.2435 175.425 75.8654 174.689 75.7877L174.689 75.1398C174.162 75.0577 174.077 76.0663 173.331 75.859C171.749 75.8827 170.642 76.1095 168.944 75.792L168.944 76.576L168.306 76.576L168.306 76.1851C168.183 76.3287 168.013 76.4414 167.816 76.5105C167.619 76.5795 167.402 76.6022 167.19 76.576L167.19 76.8373L167.829 76.8373C167.728 77.2152 167.52 77.1979 166.631 77.1655C165.292 77.0122 165.136 77.6083 163.995 77.4917C164.119 77.0597 163.7 76.8157 163.204 76.7077C162.885 77.375 162.563 77.6601 161.358 77.3556C159.578 76.9237 157.931 77.8653 156.333 77.3556C156.016 77.7206 153.28 77.8696 153.142 77.226C149.282 78.2605 144.096 76.9258 140.141 77.0964C136.091 77.1504 130.122 76.3211 126.341 77.226C125.32 76.4982 121.45 76.4356 120.598 77.0943C120.485 76.6515 120.095 76.7531 118.752 76.7034C116.35 76.6883 115.868 75.9756 114.046 77.226L114.046 76.7034C112.482 76.8438 110.943 75.8395 109.58 76.833C109.334 76.4658 109.131 76.1483 108.462 76.3773C107.193 76.6537 107.062 76.0468 105.35 76.2455C103.03 76.2887 101.87 75.6819 100.006 76.5716C100.235 75.9734 98.2604 76.1505 97.6144 76.049L97.6144 76.5716L97.1346 76.5716L97.2954 76.1807C96.1537 76.0015 95.7767 77.2865 94.8222 77.3556C94.2316 77.334 94.0971 77.6601 93.9442 78.0035C93.8387 77.8286 93.7306 77.6558 93.6252 77.4809L93.9442 77.4809L93.9442 77.0878C94.4293 77.3599 94.6983 76.7876 94.9013 76.4399C93.6199 76.3082 93.0556 75.5501 91.8717 76.3082C91.7135 75.2175 89.1348 76.4356 88.444 75.9821C88.2357 75.751 81.0931 75.6387 81.0246 76.0468C80.927 75.6473 80.6633 75.697 79.6693 75.7207C77.6496 75.5933 78.0873 75.8222 75.9991 75.9173C74.6149 76.0317 74.5199 75.5523 73.6868 75.6559C72.5609 76.049 71.5537 75.5004 70.3356 75.6559C68.5716 75.7423 64.9093 75.265 63.156 75.4594C61.2259 75.6279 59.3064 74.8245 57.7323 76.0468C56.9255 74.1442 56.029 76.3816 55.0956 75.9173C54.0805 76.0857 52.7648 74.4163 52.3034 75.6559C47.9793 74.9519 40.9659 75.1031 36.3491 74.7402L36.3491 74.4789C29.4015 74.5912 23.4162 73.2522 16.8852 73.695L16.8852 73.3062C15.5115 73.4768 13.8689 73.1011 13.136 72.1962C13.0753 71.5483 11.0793 70.9414 12.5795 70.8226C12.6955 70.3194 12.3422 69.976 11.7885 69.7773C13.4786 68.4815 11.8888 67.0821 12.3475 65.3997C12.5057 64.3911 12.7694 63.7756 11.7885 63.767C14.3171 61.9054 8.08139 60.7435 10.9975 63.5057C10.2593 63.6374 10.0985 64.5855 9.87967 65.2032L10.3595 65.2032C10.3595 65.7129 10.2409 66.4795 10.8367 66.6415L10.3595 67.1641C10.7998 67.0518 10.9659 67.9913 11.1505 68.339C9.13872 68.8724 11.5196 70.7146 10.6732 71.8679C11.4906 71.7685 12.2394 73.6107 11.1505 73.8289C11.1505 73.3127 10.4518 73.0967 9.87439 72.9132C10.0458 72.4618 10.5599 69.516 9.23633 70.0387C9.06496 69.5808 9.86115 69.516 9.95343 69.123C9.68977 68.691 9.50783 67.27 8.75638 67.2937C9.65811 67.2937 9.12563 66.4839 9.39456 66.0541C9.65822 65.5271 8.55603 65.4904 8.99635 64.8771C9.56323 63.808 7.30359 63.4387 7.64108 64.6805L7.16126 64.6805L7.16126 64.9419L7.7993 64.9419C7.69383 65.1168 7.58838 65.2917 7.48029 65.4645L8.27127 65.4645C8.19745 65.7712 7.78085 65.6805 7.48029 65.5962C7.36954 66.2117 6.8132 66.9417 7.48029 67.3607C7.58095 67.4163 7.65311 67.5004 7.68279 67.5968C7.71246 67.6932 7.69754 67.7953 7.64108 67.8833C7.45387 68.2958 7.2693 70.4598 7.9601 70.6909L7.48029 70.9522L8.27127 71.6001C7.71231 71.7534 7.918 72.248 8.11047 72.6454C6.99516 72.7879 6.3281 72.0104 5.47382 72.1875C4.39806 73.0859 5.63995 73.2047 6.35185 73.6259C6.72888 73.9779 8.98845 73.6993 8.74324 74.8029C8.52704 75.8179 9.84268 76.0835 9.22307 76.8265C10.0141 76.6969 10.291 78.4117 10.6601 76.8265C10.3094 79.3122 16.7507 81.6231 18.715 80.094C19.9068 80.4525 24.2521 81.6382 24.8585 80.3554C25.1538 80.9838 27.0865 81.094 27.2499 80.3554C27.2499 80.824 31.5793 81.0464 31.7164 80.5519C31.9115 80.1372 32.1673 80.094 32.2754 80.5519C32.3281 80.7678 32.7552 80.8564 33.5515 80.8132C35.0992 80.6534 34.8698 81.1695 36.1882 81.0745C37.0003 80.9665 38.3476 80.2107 38.7405 81.0097L39.6976 80.6167L39.8558 81.0097L40.3356 80.7484C40.8208 81.3272 43.8767 81.2624 43.526 79.9645C42.7218 79.7161 42.6217 80.6016 42.0891 80.6124L42.0891 80.351C40.9 80.6102 41.4378 79.7809 39.6185 80.0249C37.7254 80.0249 36.2647 79.7485 34.7513 79.5671C34.6458 79.9429 34.1422 80.5951 33.8732 79.9601C33.6096 79.5282 31.8958 79.9429 31.4001 79.6319C30.4298 79.3014 28.9874 80.3489 28.1305 79.6967C27.5689 79.2928 26.9361 80.0141 26.2849 79.5671C26.248 79.9709 25.6389 80.1027 25.1696 80.215C24.3944 78.8976 21.1513 79.9148 19.1053 79.4289C19.1606 79.6038 19.2135 79.7787 19.2662 79.9537C18.056 80.2754 17.5154 79.8759 16.8721 79.1675C16.4792 78.971 12.25 78.3706 12.1656 77.5996C11.8308 76.8135 11.14 76.8718 11.2085 76.1635C11.3588 75.5458 10.3938 75.846 10.4913 75.183C10.1776 73.9325 14.5307 74.9022 15.356 75.0512C15.8833 75.373 17.4653 74.8201 17.9927 75.3147C18.2721 75.7574 21.6154 75.5307 21.9001 75.8373C22.8441 76.4852 25.8103 75.8849 26.9256 76.4852C27.2684 76.7574 31.6901 77.267 31.9511 76.8114C32.1093 76.3794 32.3413 76.5328 32.5892 76.9431C37.4142 78.6168 45.4904 78.308 50.6978 79.0336C51.2251 79.2496 51.9106 78.7918 52.5434 79.0984C53.4109 79.5498 53.9171 79.0855 54.5367 78.7723C54.7872 79.0704 55.151 79.4375 55.8129 79.295C55.6388 78.9602 55.71 78.6471 56.1319 78.511L56.2927 79.688L57.727 79.295C57.5741 80.3057 59.2589 79.7269 60.0394 79.8176C60.7354 79.5692 63.3721 80.1459 63.9495 79.688L63.9495 80.0789L64.2686 80.0789C64.2311 79.975 64.2317 79.8644 64.2704 79.7608C64.309 79.6571 64.3839 79.5651 64.4859 79.4961C64.5878 79.427 64.7124 79.3841 64.8439 79.3725C64.9754 79.3609 65.1082 79.3813 65.2258 79.431C65.6292 79.7269 65.4472 80.5843 66.3411 80.4763L66.3411 79.9537C66.9739 79.7938 66.9633 80.364 67.5381 80.2798C67.9521 80.1977 68.0232 80.3813 68.097 80.6059L68.416 80.215C68.706 80.5994 70.2169 80.526 70.9683 80.6059C70.6124 80.3143 70.7047 79.8478 70.8101 79.4289L70.0191 79.4289L70.0191 79.8219C69.7845 79.4721 69.592 79.4505 68.743 79.4958C67.364 79.4224 67.0344 79.1222 65.5526 79.5606C65.4155 78.5952 66.2462 77.3275 67.1479 78.5153C67.5276 77.8674 68.6744 78.7594 69.3811 78.254L68.743 79.038C69.534 79.038 70.0797 78.4829 70.9762 78.9062C70.9762 78.5002 71.0659 77.8825 70.4991 77.861C70.5269 77.9394 70.5312 78.0223 70.5116 78.1024C70.4919 78.1825 70.4489 78.2576 70.3863 78.3212C70.3236 78.3848 70.2432 78.4351 70.1517 78.4678C70.0603 78.5004 69.9604 78.5145 69.8609 78.5088C69.3019 77.2843 70.855 76.6861 72.0942 76.9409C71.0949 77.4722 72.1971 78.2022 71.9334 79.0315C72.698 78.7097 72.8035 78.0229 72.7244 77.3318C72.7771 78.565 75.1448 77.9797 75.7538 78.6384C76.1177 79.1589 76.5975 79.1438 76.7109 78.6384C77.0853 78.7702 77.502 78.9429 77.8289 78.6384C78.67 78.2454 80.6027 78.9991 81.4991 78.3771C80.7925 80.1048 82.8517 78.9343 83.4925 79.7507C84.4021 80.8305 86.783 79.174 87.7111 79.9472L87.7111 79.6859C87.2286 79.5563 86.7462 78.362 85.797 78.5088L86.116 79.0315C85.5016 79.39 85.2485 78.1547 85.0007 77.7249C83.4345 78.9926 83.6823 77.9063 82.4483 77.4636C82.7674 76.5997 84.6711 77.5046 85.3197 77.1375C86.5932 77.1375 87.1653 79.4245 88.6682 79.1611L87.8772 79.4224C88.0301 79.9364 88.6919 80.0379 89.3115 80.0703L88.9925 79.9407C89.5778 79.0963 90.2713 80.4439 91.0676 80.202C90.8514 79.6276 91.5052 79.5541 91.7056 79.2215C91.8111 78.6449 92.705 79.1136 93.1426 79.2863C93.0683 79.2695 92.9902 79.2668 92.9144 79.2786C92.8386 79.2903 92.7671 79.3162 92.7054 79.3542C92.6438 79.3922 92.5936 79.4412 92.5588 79.4976C92.524 79.554 92.5054 79.6162 92.5046 79.6794C92.2673 79.2259 91.0886 79.593 91.5474 80.0055C92.3727 79.6513 94.5717 79.9558 94.577 78.7637C95.1359 78.7853 94.9936 79.3101 94.896 79.6794L95.5341 79.5476L95.5341 79.9407C96.1062 79.2453 100.807 80.5756 100.001 79.025C99.7369 78.3274 99.9346 78.1611 100.639 78.3771L100.32 77.4636C101.87 77.1915 100.892 78.4441 101.757 78.6384C100.792 78.6967 100.301 79.1611 100.48 79.9472C102.54 80.0552 105.538 79.4397 106.545 79.1611L106.068 79.9472C107.272 80.0703 107.17 79.66 108.459 79.7507C109.097 79.7938 109.469 79.7291 109.577 79.5541C109.841 79.1049 110.334 79.4677 110.215 79.8155L111.172 79.5541C111.755 80.7052 113.255 78.4376 114.521 79.2928C113.622 78.6449 115.048 78.5283 115.312 78.051C115.699 77.429 117.25 77.5392 117.226 78.3771L118.017 77.7292C118.36 78.0553 118.502 78.2583 117.935 78.7097C116.221 80.1999 120.089 80.5433 118.336 79.1654C119.006 78.7335 120.205 79.0552 120.569 78.6428C121.239 78.7356 121.508 79.606 120.727 79.6902L120.888 80.0811C121.047 80.0354 121.182 79.9457 121.269 79.8274C121.356 79.7092 121.39 79.5698 121.365 79.4332C122.064 79.7118 124.105 80.4806 124.717 79.4332C125.679 80.6534 126.151 78.5542 125.993 77.8653C126.552 77.8804 126.702 78.2259 126.631 78.6492C127.456 78.4916 128.571 78.9473 127.749 79.5649C128.337 80.1567 128.666 79.4267 128.54 78.917L129.178 79.3101C129.391 78.7075 129.824 78.2562 130.615 78.3944L130.135 78.7875L130.926 78.917C130.873 79.0488 130.818 79.1783 130.765 79.3101L131.883 79.5714L132.041 78.5261C132.882 79.8392 133.528 79.5822 134.994 79.4397C136.313 79.39 137.054 79.3922 138.422 79.0488C138.686 80.8175 141.829 78.4225 142.25 79.8327C141.884 80.0141 141.546 79.8327 141.293 79.5714C141.238 79.7032 141.185 79.8327 141.132 79.9645L144.165 80.2258C143.316 78.2367 146.944 79.8198 147.832 79.0488C148.452 79.1524 148.847 80.0573 149.588 80.094C149.902 78.1266 149.891 79.58 150.706 79.8327C150.651 79.5714 150.598 79.3101 150.545 79.0488C151.766 78.9429 152.365 79.1287 151.982 80.2258C153.098 80.58 153.364 78.6989 154.374 79.5779C154.43 79.4476 154.539 79.3373 154.683 79.2657C154.828 79.194 154.998 79.1655 155.165 79.1848C154.387 80.5865 157.696 79.66 155.484 79.1848C156.583 79.1006 157.118 79.5628 158.194 79.1848L157.717 79.5779C157.886 79.9515 158.69 79.6319 158.914 79.8392C158.996 79.9947 159.273 79.9709 159.47 79.9709L159.312 79.323C159.99 79.2021 160.76 80.2668 161.466 79.4526C161.965 78.6859 163.294 79.3511 163.46 78.6687L164.417 78.93C164.069 79.0445 163.341 79.1308 163.46 79.4526C165.279 78.8911 170.275 78.5477 172.393 78.4095C174.114 78.3037 176.16 77.5456 178.056 77.6234C180.31 77.807 179.419 77.1483 182.045 77.1008C184.197 76.8589 185.534 77.036 186.594 76.1872C189.23 75.9713 192.167 75.7834 195.047 75.0102C195.047 75.2974 194.973 75.8006 195.366 75.8611C197.008 76.5911 193.715 78.0791 195.049 79.0617C196.144 79.4937 193.33 80.2798 195.049 80.7614L194.572 81.5453C195.213 81.5453 195.389 82.109 195.529 82.5906L195.84 82.1954ZM196.631 82.1954C196.713 82.109 196.792 82.0205 196.871 81.9341L196.233 82.1954L196.391 82.4567C196.478 82.3768 196.558 82.2818 196.637 82.1954L196.631 82.1954ZM97.008 82.4567L96.5281 82.4567L96.5281 82.1954L97.0106 82.1954L97.008 82.4567ZM89.5884 82.3271C89.1798 82.3401 89.1059 82.163 89.0294 81.9341C89.649 81.7872 90.4716 81.5713 90.6246 82.1954C90.2891 82.2812 89.9399 82.3256 89.5884 82.3271ZM101.554 82.0658L101.314 81.9341L102.271 81.4114L102.592 81.9341C102.284 82.0356 101.817 82.2299 101.554 82.0658ZM65.1808 81.9989C66.4754 80.8521 61.1942 80.1826 61.8297 81.5432C61.8876 82.0161 64.9567 82.2883 65.1808 81.9989ZM100.512 82.0658L99.874 82.0658L99.874 81.6728L100.512 82.0658ZM61.1863 81.608C61.1863 81.1393 59.636 81.2862 59.6043 80.8888C59.5746 80.8008 59.5127 80.7224 59.4269 80.6641C59.3411 80.6058 59.2356 80.5704 59.1245 80.5627C58.5339 80.4309 58.2491 81.1307 57.611 80.8888C56.9729 80.6469 55.9684 81.1911 55.4569 80.6923C54.9454 80.1934 54.3099 80.4633 54.2598 81.0205L52.8229 80.6275C53.0075 81.325 53.4162 81.7073 54.339 81.4114C55.13 81.2106 55.3936 81.8822 56.0159 81.2819C55.9763 81.8693 57.2103 81.4093 57.4502 81.7375C58.2254 81.7375 60.042 81.5993 61.2786 81.9341L61.1863 81.608ZM84.4786 81.4114C84.5577 81.325 84.6367 81.2365 84.7185 81.1501L84.0804 81.4114L84.2386 81.6728L84.4786 81.4114ZM52.6514 81.1501L52.6514 80.8888L51.6944 81.0205C51.7286 81.4136 52.2216 81.4525 52.6514 81.4114L52.6514 81.1501ZM50.8955 81.0853L51.2145 80.7592C50.4868 80.1847 48.6226 79.9429 48.185 80.7592C47.7552 80.2992 45.3637 79.6016 45.4718 80.7592L44.6808 80.7592L44.6808 81.2819C46.7717 81.1544 48.4408 81.4978 50.1045 80.7592C49.9964 81.2387 50.413 81.6382 50.9008 81.081L50.8955 81.0853ZM75.0657 80.8888L74.9867 80.7592C74.9339 80.8456 74.8785 80.932 74.8257 81.0205L75.1448 81.0205L75.0657 80.8888ZM46.5898 80.7592L45.9518 80.7592L45.9518 80.4979L46.5898 80.4979L46.5898 80.7592ZM44.3565 80.3662L44.0349 80.2366L44.0349 80.4979L44.6756 80.4979L44.3565 80.3662ZM40.6863 80.4979C40.6336 80.4093 40.5782 80.323 40.5255 80.2366L40.8498 80.2366L40.6863 80.4979ZM72.2735 80.1048L72.2735 79.9753L71.6354 79.9753L72.2735 80.2366L72.2735 80.1048ZM148.531 80.0401L148.373 79.9753L148.692 80.1048L148.531 80.0401ZM147.814 79.9083L147.574 79.7139L148.054 80.1048L147.814 79.9083ZM130.583 79.8435L130.504 79.7139L130.665 79.9753C130.644 79.9299 130.615 79.8867 130.588 79.8435L130.583 79.8435ZM119.976 79.7139L120.134 79.4505L119.019 79.7139C119.33 79.8111 119.807 80.0379 119.981 79.7139L119.976 79.7139ZM117.023 79.1891C117.157 78.9732 117.286 78.7572 117.424 78.5412C116.954 78.714 116.517 78.565 116.147 78.2799C116.039 78.4959 115.934 78.7119 115.828 78.9278C116.975 79.0682 116.235 79.4569 115.509 79.5757C116.137 79.755 116.638 79.8889 117.028 79.1891L117.023 79.1891ZM102.824 79.3857L102.587 79.3209C102.693 79.0596 102.798 78.7982 102.906 78.5369C101.762 78.3037 102.938 77.5133 103.544 77.2303C103.47 77.9063 103.853 79.4872 102.83 79.3857L102.824 79.3857ZM96.5228 79.3857C95.0674 79.12 97.1899 77.4031 95.4075 77.6212C95.6369 76.8373 96.2591 77.4333 96.5228 77.753C97.3138 77.0208 99.2069 77.334 99.2359 78.4009C98.466 78.6168 98.6243 77.6126 97.9598 77.753L97.9598 78.5369L98.4371 78.5369L98.4371 78.7982C97.5248 78.5542 97.3085 79.4289 96.5281 79.3857L96.5228 79.3857ZM143.268 79.3209C143.193 79.3382 143.114 79.3411 143.037 79.3291C142.96 79.3172 142.887 79.2909 142.825 79.2521C142.763 79.2134 142.712 79.1634 142.678 79.106C142.643 79.0486 142.625 78.9854 142.625 78.9214L143.263 78.9214L143.268 79.3209ZM111.201 79.3209C111.045 78.7745 110.463 78.8587 109.925 79.0596C109.819 78.4117 110.787 78.5909 111.359 78.6665L111.201 79.3209ZM73.4706 79.1244C73.584 78.8868 73.141 78.7659 72.9116 78.6665L72.9116 79.3144C73.141 79.3252 73.402 79.3533 73.4759 79.1244L73.4706 79.1244ZM57.1233 79.3209L56.8042 79.3209C56.8569 79.2345 56.9097 79.146 56.9651 79.0596L57.1233 79.3209ZM144.397 79.1891L143.919 79.0596L144.077 78.6665C144.178 78.8414 144.283 79.0164 144.389 79.1891L144.397 79.1891ZM64.6298 79.1891C62.6945 78.5304 64.6061 78.7032 64.3108 77.6212L64.9488 77.753C64.5112 77.9625 64.6404 78.7205 64.6219 79.1891L64.6298 79.1891ZM62.5547 79.1244L62.2357 79.0596C62.6497 78.552 62.3254 77.9905 61.9167 77.4916C61.7664 77.9797 61.218 78.064 60.6406 78.0143C60.8594 77.2757 59.2168 77.239 59.3645 76.4464C59.7494 76.7034 60.1976 77.0424 60.6406 76.969L60.6406 76.576C60.7671 77.1699 62.0143 76.6299 62.1567 77.1655C62.2226 77.5564 62.808 77.4916 63.1929 77.4916C62.6023 77.8912 62.9978 78.3253 63.5119 78.6665C63.2614 78.8782 62.9055 79.2194 62.5469 79.1244L62.5547 79.1244ZM135.145 79.0596L134.665 79.0596C134.736 78.7983 134.765 78.3145 135.145 78.4117L135.145 79.0596ZM89.1982 79.0596C88.6709 78.7313 88.075 78.4592 87.4422 78.5369C87.4975 78.4052 87.5502 78.2756 87.603 78.1439C87.7717 78.4289 88.5259 78.4441 88.5602 78.0791C88.5364 77.6882 86.2662 77.7573 86.9649 77.0986C87.5423 77.1331 89.0743 76.5932 89.5172 76.969C89.069 77.4096 89.6279 78.3426 89.1902 79.0596L89.1982 79.0596ZM128.603 78.9278C128.026 78.7356 128.126 78.3166 128.764 78.4052C128.701 78.5801 128.65 78.7551 128.595 78.9213L128.603 78.9278ZM91.5923 78.9278C91.4842 78.8414 91.3788 78.7551 91.2733 78.6665C91.3709 78.7551 91.4736 78.8414 91.5843 78.9213L91.5923 78.9278ZM109.3 78.7982L108.981 78.7982L108.981 78.4052L109.3 78.7982ZM108.509 78.7982C107.781 78.8112 107.855 78.1201 107.871 77.6212C109.703 77.794 108.127 78.0575 108.493 78.7982L108.509 78.7982ZM106.914 78.7982L106.437 78.7982C106.307 78.2907 107.718 77.6385 107.552 78.5369L106.914 78.5369L106.914 78.7982ZM99.178 78.7982L98.938 78.7982C98.8141 78.4635 99.5497 78.47 99.8951 78.4052C99.6842 78.5672 99.4258 78.8112 99.1622 78.7982L99.178 78.7982ZM121.75 78.6665L121.268 78.2735L121.745 78.1417L121.75 78.6665ZM118.958 78.4721L118.721 78.2756C120.477 77.3254 120.806 78.9624 118.942 78.4721L118.958 78.4721ZM90.9621 78.5369C90.2133 78.4311 89.9497 77.889 90.8013 77.753C90.8382 78.0143 90.8909 78.2734 90.9463 78.5369L90.9621 78.5369ZM80.5921 78.5369C80.0015 78.3447 80.1255 77.8782 80.7504 78.1439L80.5921 78.5369ZM54.9929 78.2756C54.426 78.3231 54.1887 77.5716 53.6376 77.8825C54.1359 77.3275 55.2961 76.4161 56.3507 76.1851C55.921 76.82 56.9045 77.0856 56.828 77.6212L56.1899 77.6212C56.3191 78.1136 55.4437 78.2734 54.9691 78.2734L54.9929 78.2756ZM105.965 78.1439L105.646 77.8826L106.284 77.753L105.965 78.1439ZM59.5411 78.1439C59.433 77.8825 59.3276 77.6212 59.2221 77.3599L59.5411 77.3599L59.5411 78.1439ZM92.4835 77.6882C91.8902 77.5046 91.7346 77.4852 91.7663 77.2303L93.6805 77.2303C93.401 77.6256 93.1954 77.9085 92.4598 77.6882L92.4835 77.6882ZM52.6805 77.753C52.1005 77.5111 51.2962 77.0792 50.9245 77.6212C50.1097 76.7725 51.937 76.9561 52.0425 76.3146C52.2455 76.6667 52.5144 77.2411 52.9996 76.9625C52.8704 77.2303 52.7622 77.4916 52.6567 77.753L52.6805 77.753ZM48.2141 77.753C48.1587 77.6666 48.1059 77.578 48.0531 77.4916L48.3721 77.4916L48.2141 77.753ZM49.1711 77.6212C49.063 77.4916 48.9576 77.3599 48.8521 77.2303L49.3293 77.0986L49.1711 77.6212ZM195.943 77.4917C195.891 77.3599 195.838 77.2303 195.782 77.0986L196.101 77.2303L195.943 77.4917ZM64.4848 77.4916L64.1658 77.2303L64.6456 77.2303L64.4848 77.4916ZM46.777 77.3599L46.6188 77.2303L47.5759 77.2303C47.3201 77.321 46.9353 77.5305 46.7533 77.3599L46.777 77.3599ZM168.981 77.2303L168.823 77.0986L169.461 76.7077C169.695 76.9777 169.342 77.4701 168.957 77.2303L168.981 77.2303ZM88.2569 77.2951L88.0961 77.2303L88.4151 77.3599L88.2569 77.2951ZM58.1041 77.3599L57.7851 77.3599C57.8378 77.2303 57.8905 77.0986 57.9459 76.969L58.1041 77.3599ZM57.6268 77.3599L56.9888 77.2303C57.2287 77.1267 57.5293 77.0943 57.6031 77.3599L57.6268 77.3599ZM44.3856 77.1655L43.5946 76.969C44.2617 75.9 44.6835 76.9496 45.5088 76.7077C45.3057 77.1418 45.1607 77.3729 44.3618 77.1655L44.3856 77.1655ZM63.6886 76.969L63.3695 76.7077L63.8468 76.7077L63.6886 76.969ZM42.5505 76.969C42.2869 76.9798 42.2183 76.753 42.1497 76.576L42.9407 76.7077C42.8458 76.8502 42.7745 76.9776 42.5267 76.9776L42.5505 76.969ZM39.9139 76.9042C39.7003 76.8157 39.8769 76.2887 39.9139 76.0533C40.6548 76.1462 40.7708 77.1094 39.8927 76.9042L39.9139 76.9042ZM46.4553 76.7077L46.1363 76.4464L46.6162 76.4464C46.5397 76.5328 46.487 76.6213 46.4343 76.7077L46.4553 76.7077ZM164.992 76.4464L164.992 76.3146L164.512 76.4464L164.992 76.576L164.992 76.4464ZM38.9594 76.576L38.8011 76.185L39.1202 76.185L38.9594 76.576ZM31.6215 75.792C31.1575 75.7682 30.2689 75.9 30.1845 75.5307C30.6696 75.4875 31.5794 75.2802 31.5978 75.792L31.6215 75.792ZM173.927 75.2046L173.927 75.008C173.632 74.9476 173.513 75.1808 173.45 75.4011L173.927 75.4011L173.927 75.2046ZM181.505 74.0945L181.584 73.9628L180.793 73.9628L181.431 74.2241L181.505 74.0945ZM185.573 73.6367L185.415 73.5719L185.734 73.7015L185.573 73.6367ZM4.87529 72.6583C5.77966 71.4316 2.23863 71.1185 3.02963 69.2029C3.26958 67.8358 0.564317 68.1101 3.50946 67.568C2.71846 67.555 3.47255 66.3802 2.71846 66.1966C1.99602 65.9461 2.19113 65.5617 2.71846 65.3479C1.78772 64.9591 2.95838 63.4582 3.67554 63.3221C4.18704 63.2465 3.63602 62.1581 4.23454 62.0803C5.00972 61.7542 4.71448 61.4324 4.63274 60.5685C4.33744 59.4088 5.31825 59.4369 5.2708 58.4089C5.03877 58.7328 4.44556 58.6054 3.99469 58.5385L3.99469 59.5837L3.67296 59.5837C3.76814 59.3841 3.78862 59.1657 3.7318 58.9565C3.67499 58.7473 3.54346 58.5567 3.35395 58.4089C3.88127 58.1152 3.64665 56.8842 4.79097 57.1023L4.79097 57.6249C5.75072 57.6854 5.25228 56.2363 5.66887 55.8605C5.98262 55.4696 6.05654 54.9448 5.42902 54.88C5.71378 54.3206 5.98534 53.7095 5.74805 53.1825L7.33004 53.5734C5.94579 53.8714 7.19284 55.3767 6.85008 56.057L8.15528 56.057C7.73342 56.3637 7.25092 56.6574 6.72095 56.5796C6.73677 57.0375 7.16124 57.1606 7.67803 57.1023C7.67803 57.6271 6.97672 57.2621 6.72095 57.5601C6.48366 57.9424 7.00308 58.0871 6.72095 58.6054C6.39664 59.0503 7.24828 59.6615 7.03998 59.9768C6.35973 63.0306 8.91461 64.1773 9.11235 60.2381L8.47431 60.1064C8.64832 59.6097 9.5158 58.7328 8.87508 58.4737C8.48749 57.9122 9.13869 56.368 8.95413 55.6661L8.6351 55.6661L8.79334 54.3595L8.00234 54.6208C7.93642 54.379 7.86527 54.0183 7.52251 54.0982C7.41178 53.7872 8.00238 53.7635 8.31351 53.7073C8.32106 53.6256 8.30428 53.5437 8.26459 53.4685C8.22489 53.3933 8.16345 53.3272 8.08564 53.2757C8.0078 53.2243 7.91594 53.1892 7.81784 53.1733C7.71974 53.1574 7.61837 53.1613 7.52251 53.1847C7.18766 52.5368 8.9173 52.4482 9.03859 52.0076C8.58245 50.2562 8.98845 48.6256 8.47959 46.52L9.11763 46.52C9.17037 46.0686 9.11765 45.6086 8.47959 45.6043C8.5877 45.4315 8.69315 45.2566 8.79862 45.0816C6.79738 44.7123 10.7788 43.1379 8.47959 42.0775C9.21785 41.8464 9.04647 41.4059 9.19939 39.7904C8.88826 37.7064 10.4386 37.3738 9.27843 36.4581C9.97188 36.1147 9.80588 34.4431 9.91662 33.5836L9.59758 33.5836C9.59758 33.3806 9.57904 33.1862 9.83744 33.0609C10.2171 32.7975 9.63968 32.277 9.83744 31.8839C10.5731 30.9726 10.4597 29.2923 9.43667 28.6164C10.6653 26.2818 11.8255 22.1676 10.8737 19.7315C11.6831 19.7661 11.9283 19.021 12.1498 18.4249C13.4681 18.9778 11.9388 20.2131 12.4688 21.1677L13.5868 21.0381L13.5868 21.4312C13.012 21.1051 12.8854 21.9797 12.3106 21.8242C12.6771 22.673 11.4036 23.7874 12.4688 24.0465C12.2262 24.5324 11.8256 25.2214 12.6298 25.3531L12.6298 24.7052C13.542 25.2689 11.6594 25.785 11.9916 26.6662L13.1069 26.2731L13.1069 26.7958L12.6298 26.6662C13.1175 27.1262 12.5242 27.4631 11.9916 27.7115C12.337 27.759 13.2678 27.7698 13.2678 28.0376C13.1571 28.3896 11.8413 28.4306 12.1498 29.0181C12.569 28.9338 12.7404 29.2211 12.7878 29.5407L12.4688 29.1476C11.7385 29.6595 12.3106 30.8624 11.5908 31.4347C11.8255 32.9465 11.4932 35.1342 12.3106 36.4667C11.9494 36.4667 11.4273 36.5164 11.3535 36.2054C10.61 37.5638 13.136 37.2852 12.9488 38.4255C12.2211 37.9699 11.7042 38.4255 11.6725 39.0734L12.1498 39.0734C11.6436 39.2613 12.1841 39.9373 11.6725 40.1187C11.2217 40.2073 11.4458 41.272 11.1927 41.4253C11.2824 41.9134 11.7569 42.5613 11.0345 43.125L11.5117 43.2545C11.5829 42.9932 11.6119 42.5095 11.9916 42.6066C11.9362 42.7794 11.8835 42.9544 11.8308 43.1293L12.1498 43.1293C12.2632 43.4424 11.5408 43.6195 11.1927 43.7772C11.43 44.0709 11.72 44.3797 12.1498 44.2998C12.1735 44.5525 12.1498 44.7015 11.6725 44.7577C10.4966 44.9736 11.2032 46.8374 10.8815 47.3709C10.4069 48.2347 11.728 49.2001 10.7235 50.0488C12.0418 50.3102 14.4147 48.3751 12.4768 47.697L13.2678 47.4356C12.9725 47.3838 12.5322 47.3255 12.6297 47.0447C13.9217 46.1809 12.5691 45.3991 13.2678 43.5159C13.6897 41.1726 13.2678 41.0538 13.426 39.1965C13.7213 38.5486 13.128 38.4968 13.5051 37.9569C13.7687 37.6157 13.5341 37.4364 13.2678 37.2377C14.2091 36.6157 12.3159 35.8016 12.3106 35.2768L12.7878 35.2768L12.3106 34.6289L13.9058 34.4971C13.8057 33.9982 13.5736 32.9119 14.2249 32.6679C13.3416 31.9034 15.0159 30.0763 13.745 29.4003C13.2493 29.2837 13.2467 29.0461 13.2678 28.7524L13.9058 29.1433C14.2908 28.6574 14.4016 27.9382 13.745 27.5754C14.5809 27.4134 13.7081 25.9082 14.536 25.7462C13.9929 25.4762 14.6968 25.0421 14.2961 24.6361C14.0324 23.9429 14.8866 24.0098 14.6941 22.8717C14.3145 21.2238 15.0923 20.6775 14.6941 19.2132L14.0561 19.3428L14.217 18.9519C14.1427 18.9683 14.0647 18.9706 13.9891 18.9587C13.9136 18.9468 13.8422 18.9208 13.7807 18.8829C13.7192 18.845 13.6691 18.7962 13.6341 18.74C13.5991 18.6838 13.5802 18.6219 13.5788 18.5588L14.3698 18.5588C14.5307 16.641 20.044 17.5243 20.7506 16.3387C21.5917 16.8462 21.9134 15.9499 22.8257 16.2717C23.7986 16.2847 26.4247 15.7793 27.453 15.6238C29.2195 15.3431 32.7527 15.7038 34.1527 14.6434C34.0024 15.3237 35.8851 15.4403 36.2278 14.9695C36.5389 14.652 37.2825 15.153 37.6621 15.0364L37.6621 14.7751C38.9805 15.1854 38.7642 14.7168 40.4543 14.7751C42.1075 14.9284 42.888 14.9263 44.2828 15.0343C46.3763 15.0947 49.92 14.0905 52.0214 14.7751C52.1268 14.5138 52.2349 14.2525 52.3404 13.9911C54.0569 14.6801 56.0817 14.5613 57.9247 14.5138C59.28 13.8033 59.0137 13.5527 60.5614 13.9911C65.0622 14.3043 69.9954 13.6629 74.6016 13.7277C76.268 13.976 77.4413 13.1359 78.9073 13.4685C79.0628 13.7147 81.5914 13.2741 81.5439 13.7298C82.0027 13.2461 83.3475 14.0127 83.4582 13.3368C83.8484 13.6542 85.1957 13.7428 85.5306 13.3368C85.905 13.7341 90.5719 13.529 90.8751 13.5333C91.7531 13.1942 92.2593 13.8486 93.0292 13.5333C93.7991 13.218 93.7728 13.8529 94.6245 13.5981C95.4023 13.2245 97.7884 11.838 97.4957 13.5981C98.023 13.6758 98.5109 13.3821 98.9327 13.0755C99.0909 14.7384 101.704 13.4577 102.36 12.8141C103.006 13.665 103.249 13.2223 104.275 13.5333C104.984 13.7709 105.593 13.1597 106.429 13.4685L106.429 13.0755C107.159 13.2569 107.855 13.8141 108.981 13.5981L108.981 12.8141C109.508 12.6932 109.561 13.2461 109.619 13.5981C111.143 12.6997 117.265 14.9241 116.799 12.8141C118.502 13.7838 121.566 13.7277 123.577 13.3368C126.789 13.6434 135.551 13.5117 138.654 13.0755C138.709 13.6262 141.135 13.5074 141.446 13.3368C141.596 13.1079 143.801 13.7147 143.919 13.4016C144.937 13.1294 147.271 13.7126 148.225 13.0755C148.826 13.3044 149.427 13.5895 150.3 13.4685C150.216 11.9978 154.276 14.4404 155.573 13.2072C155.953 13.9674 161.284 13.1403 159.792 12.095C157.996 12.4816 155.703 11.2505 153.728 11.7689C152.937 11.7429 150.851 11.0195 150.139 11.7689C150.464 11.3369 147.582 11.473 147.584 11.2462C147.387 11.0151 146.129 11.9157 145.91 11.5723C143.682 11.0648 142.952 11.2246 140.407 11.3758C137.457 11.0627 135.883 11.1231 133.067 11.1145L133.067 11.5075C131.54 10.6566 131.567 11.2916 130.356 11.5075L130.356 11.108C130.008 11.1728 129.275 11.1663 129.399 11.5011C129.017 11.0691 127.427 11.6242 127.084 11.3045C126.383 10.7776 125.194 10.9071 123.815 10.8467C121.803 10.7409 121.215 11.5486 119.667 10.8467C119.646 11.4341 118.613 11.013 118.23 11.2397C117.735 11.3499 117.785 12.6176 117.115 12.4146L117.115 11.3693C116.764 11.5313 116.477 11.6522 116.076 11.3693C115.343 11.0519 114.558 11.6846 113.603 11.3693C113.658 11.5443 113.711 11.7192 113.764 11.892C112.849 11.46 111.837 10.9935 110.893 11.108L110.893 11.5011C107.887 10.8532 105.429 11.717 102.756 11.3693C102.687 11.6782 102.658 12.0539 102.118 11.9589C101.482 11.9891 100.322 12.4535 100.681 11.5011C99.8344 11.717 98.619 11.825 97.9704 12.4146C97.4431 10.9028 90.535 12.0302 89.4355 12.1533C89.0004 12.3865 86.7988 11.7473 86.4033 12.1533C85.7969 12.5852 85.085 12.4211 84.5577 12.0237C84.4522 12.285 84.3468 12.5463 84.2387 12.8077C83.358 11.27 79.2606 12.8077 77.6971 12.1598C76.8191 12.0669 75.9358 12.8508 74.6675 12.488C73.3492 12.0691 72.2498 12.9934 71.4773 12.2915C71.3164 12.5075 71.1581 12.7234 70.9973 12.9394C70.8919 12.7234 70.7838 12.5075 70.6783 12.2915C69.5656 13.1554 63.9443 11.8293 62.8606 12.9394C62.6207 12.5917 62.0169 12.8184 61.5845 12.9394L61.5845 12.5485L59.8337 12.5485L59.8337 12.9394C59.5015 12.0215 57.0046 12.8271 56.4826 13.0711C55.2328 12.907 55.3831 12.4988 54.1702 12.9416C53.5031 12.6629 51.589 12.7256 51.6971 13.7255C51.2884 13.1532 50.0887 12.4297 49.941 13.4642C48.5515 12.2353 46.3499 13.2785 44.8365 13.1359C44.0007 12.704 41.1214 13.0538 40.2908 13.3972C39.0859 13.5981 38.6218 13.3497 37.0979 13.6586C35.5739 13.9674 34.9885 13.6154 33.9892 14.3777C32.9688 13.1878 30.4826 14.4814 29.0429 14.1164C28.0305 13.773 27.954 14.868 27.1973 14.3129C26.1795 14.0711 22.04 14.0408 21.0565 13.5938C19.493 14.2157 16.3633 14.151 14.6732 14.639C14.3304 12.6025 13.3996 14.246 12.6798 14.9004C11.9838 15.477 11.2007 15.4122 10.3675 15.9456C11.4538 17.0255 8.25814 17.8008 7.65435 16.9909C6.54432 17.5611 6.75789 19.3557 7.33532 20.2585L7.0163 20.2585L7.0163 20.7811L5.74007 20.5198C5.86135 20.8545 5.12839 20.8481 4.783 20.9107L5.74007 21.5586L4.94907 22.2065C6.8501 22.3577 5.26018 23.2194 4.47182 22.2065C4.49291 22.66 4.32154 23.5023 4.94907 23.5152L4.15807 23.7766C4.33472 24.1437 4.80405 24.2085 5.27337 24.1675C4.35845 26.0874 2.80552 29.3614 6.39138 29.6552C5.42637 29.5061 5.42634 27.9274 4.31629 28.3486C4.22138 28.057 4.80935 27.7827 5.10729 27.5646C5.04929 27.8886 5.16268 28.1866 5.58454 28.2125C5.43425 27.7287 6.00638 27.5322 6.54162 27.4286C6.31223 26.9793 6.18831 26.5042 6.54162 26.1328C6.01429 26.3703 5.22332 26.6619 5.58454 27.178C4.04737 27.029 6.02486 26.4545 5.58454 26.001C6.21471 26.217 6.19103 25.1069 6.70255 25.2171C6.19103 24.8434 6.29642 23.8111 6.9424 23.6491C7.417 23.837 8.13952 26.1652 7.02157 26.001C7.39071 26.7677 6.67879 27.1845 6.93982 27.8302C7.35378 28.178 6.76581 29.4003 7.3406 29.5299C6.69989 29.9618 6.52051 30.9034 6.86065 31.6205L7.3406 31.0978C7.23777 31.7738 6.29905 33.0912 6.9424 33.3849C7.36162 33.8168 6.85013 36.6244 5.58454 36.0629C6.15142 35.7864 5.88512 35.2984 5.58454 34.888C6.28589 34.8988 6.23311 33.4562 6.06437 33.1236C6.04854 32.6916 4.14496 32.4195 4.30845 32.0114L5.26552 32.1431L5.26552 31.8818C6.28853 32.0977 6.32015 30.1087 5.10729 30.7048L5.10729 29.5299C3.81269 28.9381 2.8398 37.6394 4.94649 36.1946C4.99923 36.3674 5.05455 36.5423 5.10729 36.7172L6.2226 36.4559L6.70255 37.8921C5.96692 37.8468 6.27541 38.3996 5.18647 38.2204C4.41393 38.175 4.24514 38.1966 4.15021 38.5465C4.17028 38.4856 4.17318 38.4218 4.15859 38.3599C4.144 38.298 4.11229 38.2396 4.06601 38.1892C4.01975 38.1388 3.96015 38.0977 3.89158 38.0691C3.823 38.0404 3.74736 38.025 3.6704 38.0238C3.86023 38.8748 2.31249 40.5485 3.51216 41.421C2.63416 41.4469 3.36718 42.4684 3.6704 42.8593L3.35123 42.8593C3.52262 44.0018 2.8451 43.9845 2.79236 45.276C2.42586 46.507 4.1976 46.697 2.55497 47.17C3.41187 47.6905 1.5004 49.3729 3.19313 49.3923C3.28542 49.848 2.88202 49.956 2.40215 49.7832L2.40215 50.6989L2.09098 50.6989C1.98287 50.9991 2.56821 51.1092 2.88196 51.2215C2.54975 51.3921 2.59461 51.7139 2.72116 52.0055C1.27892 51.837 2.1042 54.217 2.08312 55.1413C2.73964 54.9448 5.33148 53.8153 5.11527 55.1413L3.52002 55.1413C4.34265 55.8367 4.47982 56.7524 3.04019 56.1866C3.1483 56.0138 3.25376 55.8389 3.35922 55.664L2.72116 55.664L2.88196 55.2731L2.40215 55.2731C2.45488 55.489 2.51021 55.705 2.56294 55.921L1.9249 55.921L1.9249 55.3983C1.84793 55.3994 1.77228 55.4149 1.70371 55.4435C1.63513 55.4722 1.57541 55.5133 1.52913 55.5637C1.48287 55.6141 1.45128 55.6724 1.43669 55.7343C1.42212 55.7963 1.42488 55.8601 1.44493 55.921L1.9249 55.921C1.94599 56.2341 1.92481 56.4565 1.44493 56.6401C0.82532 56.7481 1.07846 57.7631 0.806887 57.9467C0.846438 58.4845 0.0158864 61.5015 1.59789 60.8882L1.75611 61.9334C-0.453413 61.3849 -0.0394574 63.6396 0.96512 64.5466L0.17412 64.2853C-0.263563 65.3306 0.287462 66.229 0.334917 67.2246C0.448289 67.7494 -0.147597 67.9978 0.334917 68.596L0.972963 68.3347C0.85959 69.0819 1.89316 69.2504 1.76396 69.9026C2.80281 69.7493 2.7449 70.9349 2.40215 71.4727L3.19313 71.3409C3.14568 71.9975 4.05792 73.4876 4.87529 72.6583ZM1.52411 70.3064L1.44493 70.1769L1.60587 70.4382C1.5795 70.3907 1.55048 70.3475 1.52411 70.3043L1.52411 70.3064ZM213.15 69.6586C213.097 69.5722 213.042 69.4858 212.989 69.3973C213.042 69.4772 213.097 69.5635 213.15 69.6499L213.15 69.6586ZM204.296 69.2677C204.905 68.9092 204.618 68.0799 203.895 68.0907C205.39 67.9697 204.95 66.1578 203.418 66.3932C203.495 66.8251 202.482 66.7668 202.627 67.3736C202.988 68.0151 202.872 69.8508 204.296 69.259L204.296 69.2677ZM193.686 67.3067L193.686 67.1771L193.206 67.1771L193.206 67.4384L193.686 67.4384L193.686 67.3067ZM192.65 67.0454L192.729 66.9158L192.091 66.9158L192.568 67.1771C192.595 67.1253 192.624 67.0821 192.65 67.0432L192.65 67.0454ZM215.702 67.0454L215.064 66.6545L216.021 66.6545L215.702 67.0454ZM195.121 66.9158L194.483 66.7841C194.591 66.5227 194.696 66.2614 194.802 66.0001C195.21 66.0541 195.113 66.5832 195.121 66.9072L195.121 66.9158ZM204.694 65.5315C204.607 64.6546 205.651 63.0176 204.375 62.3287C205.274 61.9702 204.903 60.4303 203.737 60.4995C203.076 62.2369 202.7 64.0388 202.619 65.8576L204.852 65.9871L204.694 65.5315ZM192.41 65.5315L192.249 65.4645L192.568 65.5962L192.41 65.5315ZM213.068 64.2897L212.989 64.1579C213.042 64.2465 213.097 64.3329 213.15 64.4192C213.124 64.3804 213.097 64.3372 213.068 64.294L213.068 64.2897ZM194.567 63.3718L194.485 63.2422C194.541 63.3286 194.593 63.415 194.646 63.5035L194.567 63.3718ZM215.544 63.2422C215.143 62.9615 214.811 62.6159 214.906 62.1969C215.141 62.2881 215.332 62.4415 215.447 62.6324C215.562 62.8232 215.596 63.0404 215.541 63.2487L215.544 63.2422ZM194.166 62.7196C194.322 62.2272 194.214 62.1365 193.847 62.0717C193.823 62.4345 193.536 63.1861 194.008 63.2487L194.166 62.7196ZM7.9892 63.1105L7.82828 62.9809C7.93637 63.0673 8.04196 63.1537 8.14743 63.2422L7.9892 63.1105ZM2.56552 63.1105C2.45741 62.9809 2.35196 62.8491 2.24649 62.7196C2.89775 62.8945 2.71054 61.8903 3.36179 62.0717C3.58063 62.6742 2.61832 62.6181 2.56294 63.1169L2.56552 63.1105ZM1.28942 62.9809C0.936098 62.8556 0.959841 62.5835 0.970385 62.333L2.09097 62.7239C1.86685 62.9118 1.62961 63.1558 1.28684 62.9874L1.28942 62.9809ZM216.501 61.8039L216.024 61.8039C216.087 61.5879 216.206 61.3504 216.501 61.413L216.501 61.8039ZM12.2157 61.6073L11.9784 61.413C12.5427 61.2359 11.7622 60.3029 12.2975 60.1042C12.664 59.9768 12.6191 59.6075 12.6165 59.3203C12.0891 59.4844 11.5144 58.8495 12.1367 58.6724C11.0213 57.9813 13.4233 57.0829 12.7747 54.8822C12.4003 55.0981 11.9837 55.1521 11.6594 54.8822C13.4629 53.6015 12.9012 53.6036 12.2975 52.269L12.7747 52.4007C13.0832 51.8824 12.4662 51.4807 12.7747 50.9624L11.9837 51.092L12.1419 51.6167C10.9844 51.2388 11.5223 52.1221 11.8229 52.662L11.1849 52.662L11.1849 52.9233L11.8229 52.9233L11.8229 53.1847L11.1849 53.0529C10.8052 54.0399 10.0827 54.7094 11.3457 55.4696C10.3332 55.9577 9.68721 57.7523 11.0266 58.2771C10.6259 58.7328 12.1314 59.195 11.2639 59.6507C11.0002 59.7112 11.0214 59.925 11.0266 60.1064C10.5309 59.9574 10.515 59.4801 10.5467 59.0611L10.2277 59.0611L10.2277 60.7608L10.5283 60.7608L10.5283 60.3677L11.1663 60.3677C11.0081 60.6312 10.8473 60.8925 10.6891 61.1538C11.1558 61.2661 11.9652 61.359 11.8044 61.8017L12.4424 61.8017L12.2157 61.6073ZM194.324 61.2121C194.301 60.858 194.709 60.331 194.962 59.9703C194.367 59.8062 195.121 58.5838 194.171 58.532C194.042 58.9078 194.003 59.303 194.332 59.5773C193.771 59.4801 193.296 59.8753 192.895 60.2252C193.75 60.2835 193.544 61.1754 194.332 61.5318L194.324 61.2121ZM203.025 61.0156L203.104 60.7543L202.625 61.0156L202.944 61.2769C202.965 61.2013 202.991 61.1128 203.02 61.0264L203.025 61.0156ZM10.4649 61.0804L10.3859 60.886C10.3305 61.0156 10.2778 61.1473 10.2251 61.2769L10.5283 61.2769L10.4649 61.0804ZM1.61115 60.7543L1.1312 60.6247L1.61115 60.493L1.61115 60.7543ZM214.342 59.9811C214.313 59.8947 214.286 59.8062 214.26 59.7198C214.134 59.9358 214.094 60.1841 214.421 60.2425L214.342 59.9811ZM215.697 60.1107L215.217 60.1107L215.217 59.8494C215.731 59.9293 216.151 59.6572 216.493 59.3268C216.799 59.7587 216.314 60.1323 215.702 60.1107L215.697 60.1107ZM202.696 59.9163C202.667 59.8494 202.64 59.7846 202.614 59.7198L202.775 60.1107L202.696 59.9163ZM11.8018 59.8494C11.6963 59.763 11.5882 59.6766 11.4828 59.5881C11.6014 59.6766 11.7095 59.763 11.8149 59.8494L11.8018 59.8494ZM217.123 59.7198C216.58 59.1453 216.491 58.5061 216.965 57.8906C217.334 58.4046 217.242 59.0849 217.137 59.7198L217.123 59.7198ZM7.65434 59.7198C7.60161 59.6334 7.54891 59.5449 7.49355 59.4585L7.81256 59.4585L7.65434 59.7198ZM2.06986 59.7198L1.75083 59.7198L1.75083 59.0719L2.54183 59.0719C2.49964 59.3181 2.46802 59.7392 2.09098 59.7198L2.06986 59.7198ZM8.45061 59.5881L7.97336 59.5881L8.13159 59.1972C8.25287 59.3267 8.35828 59.4585 8.46375 59.5881L8.45061 59.5881ZM204.296 59.2684C204.222 59.0525 203.84 58.9942 203.576 58.9423L203.576 59.465L204.367 59.465L204.296 59.2684ZM195.281 59.1389L195.121 59.0719L195.44 59.2037L195.281 59.1389ZM203.497 58.6162C203.561 58.234 204.138 58.2102 204.533 58.1584C204.375 57.8539 204.214 57.5494 204.056 57.2427L204.847 57.3744L204.847 56.8518C204.349 56.9662 204.104 56.4198 203.89 56.0678C203.516 56.4134 203.086 56.1175 202.775 55.8065C202.116 56.6466 203.302 56.7244 203.566 57.3744L202.609 57.1131C202.221 57.8409 203.368 58.1713 202.928 58.9423C203.22 58.9488 203.431 58.9467 203.497 58.6098L203.497 58.6162ZM2.24391 58.8106L2.08312 58.8106C2.05104 58.6368 2.07891 58.4591 2.16371 58.2977C2.24852 58.1362 2.38684 57.9975 2.56294 57.897C2.50493 58.1346 2.47067 58.789 2.24391 58.8041L2.24391 58.8106ZM7.9865 57.1088L7.8257 57.1088C7.77033 56.7848 7.88365 56.4868 8.30553 56.4609C8.44791 56.7654 8.48482 57.139 7.9865 57.1088ZM215.942 55.6057C215.752 54.8606 215.36 55.5841 215.222 55.9318L216.013 55.9318L215.942 55.6057ZM204.694 55.2796C205.019 54.7807 203.903 54.6317 203.903 54.2991C203.83 53.7764 204.391 53.8671 204.86 53.973L204.86 53.4374L204.541 53.4374C205.567 51.9256 202.606 51.9969 204.383 51.6081C202.835 51.0466 203.344 50.4765 204.623 50.3015C204.763 49.9949 203.727 48.265 204.541 48.0792C204.08 47.9345 204.114 47.602 204.383 47.2953L203.745 47.1635C203.666 47.5005 203.582 47.697 203.028 47.8114C201.364 48.1786 204.241 48.9042 202.469 49.118C203.305 49.2865 203.716 49.74 203.426 50.4246L202.308 50.0316L202.308 50.6795L202.627 50.6795C202.1 51.1416 202.319 52.5411 203.418 52.2474C203.326 53.1912 201.681 54.623 202.938 55.515C202.841 55.1672 203.22 54.9232 203.576 54.731C203.782 55.0139 203.611 55.2558 203.257 55.3789C203.724 55.4955 204.531 55.7698 204.694 55.2774L204.694 55.2796ZM194.962 55.6704C194.857 55.5841 194.749 55.4977 194.643 55.4091C194.749 55.4955 194.857 55.5819 194.962 55.6683L194.962 55.6704ZM10.6996 55.4739L10.5388 55.4091L10.8579 55.5409L10.6996 55.4739ZM11.4906 54.6252L10.8526 54.3638L11.4906 54.3638L11.4906 54.6252ZM5.26808 54.4956L5.10999 53.3186L5.42902 53.3186L5.26808 54.4956ZM217.131 54.1025C216.227 53.5151 216.203 52.9838 217.45 53.4546C217.35 53.6533 217.242 53.8823 217.137 54.1004L217.131 54.1025ZM193.839 54.1025L193.681 53.8412L194 53.8412C193.953 53.9254 193.9 54.014 193.844 54.1004L193.839 54.1025ZM6.2253 53.906L6.06707 53.7116L6.3861 54.1025L6.2253 53.906ZM195.753 53.973L194.962 53.8412L195.121 53.4503C194.377 53.9038 193.636 53.2171 193.765 52.6642C193.884 52.4482 194.691 52.7895 194.722 52.405C195.716 51.8371 194.918 50.7572 195.919 50.4441C195.867 51.6189 195.813 52.7945 195.759 53.9708L195.753 53.973ZM203.268 53.7095C203.162 53.6209 203.057 53.5345 202.949 53.4482C203.046 53.5345 203.152 53.6209 203.268 53.7095ZM4.16863 53.7095C3.43036 53.5885 2.86357 53.1803 2.41271 52.6642L4.32685 52.9255C3.93663 53.1415 3.81793 53.4373 4.15807 53.7095L4.16863 53.7095ZM6.40193 52.9255C5.08361 52.5929 6.61283 51.1978 7.35901 50.7032C7.76505 51.7938 6.45729 52.1415 6.39138 52.9255L6.40193 52.9255ZM4.80667 52.9255L4.32685 52.6642L5.11785 52.4029C5.00711 52.5735 4.90158 52.7506 4.79611 52.9255L4.80667 52.9255ZM217.137 52.7895C216.406 52.688 216.346 52.2431 216.659 51.7442C217.284 51.8716 217.298 52.3316 217.137 52.7895ZM7.02942 52.7894C6.97669 52.6599 6.924 52.5281 6.86862 52.3985L7.18766 52.3985L7.02942 52.7894ZM3.67824 52.3985C3.34603 52.2754 3.34604 52.0962 3.35923 51.8759L4.46396 51.8759C4.57207 52.2495 4.16338 52.6232 3.67296 52.4029L3.67824 52.3985ZM10.8579 51.3533L10.8579 51.2215L11.6489 51.2215C11.5935 51.0466 11.5408 50.8738 11.4881 50.6989C10.9818 50.8177 10.5572 51.0423 10.5308 51.4829L10.85 51.4829L10.8579 51.3533ZM4.46924 50.9602L4.15021 50.9602L4.15021 50.5672L4.46924 50.9602ZM2.87412 50.8285C2.58672 50.4246 2.5867 50.0402 3.19313 49.9149C3.48581 50.3231 3.48577 50.7075 2.88196 50.8328L2.87412 50.8285ZM215.934 49.7184L215.694 49.6536L216.172 49.7832L215.934 49.7184ZM4.94649 48.9992C5.00186 48.3513 3.89183 48.509 3.8312 47.954C3.90502 48.2887 4.44286 48.144 4.78827 48.0857C4.55361 47.3817 4.39806 46.5891 5.26552 46.2565C5.15213 46.723 5.31824 48.3405 4.78827 48.2153L4.94649 48.9992ZM6.06436 48.6083C5.66887 48.6537 5.30765 48.563 5.27336 48.2153L6.06436 48.2153L6.06436 48.6083ZM216.891 48.2153C216.981 47.9561 216.854 47.8935 216.651 47.8244L216.81 48.4723C216.844 48.3946 216.873 48.3082 216.899 48.2196L216.891 48.2153ZM11.8071 48.347L11.169 47.954C11.2443 47.9363 11.3235 47.9331 11.4005 47.9447C11.4775 47.9563 11.5501 47.9824 11.6127 48.0209C11.6753 48.0595 11.7262 48.1093 11.7612 48.1667C11.7963 48.224 11.8147 48.2872 11.8149 48.3513L11.8071 48.347ZM195.582 47.8244C195.529 47.7359 195.477 47.6495 195.421 47.5631L195.74 47.4313L195.582 47.8244ZM203.798 46.9087C203.964 46.2025 204.573 44.5201 204.117 43.7729C203.648 42.8377 204.191 42.0452 202.92 41.2914C203.184 40.9157 204.104 40.2721 203.239 39.7797C202.733 39.6242 202.748 40.8055 202.282 40.6284L202.762 41.151C202.377 41.3433 201.971 41.1251 201.644 40.8897L202.124 42.1963L202.443 42.0667C201.351 43.4835 201.686 46.6236 203.816 46.913L203.798 46.9087ZM12.2763 46.7791L12.1155 46.7791C12.0698 46.6231 12.0929 46.4588 12.1807 46.3153C12.2685 46.1719 12.4153 46.0585 12.5954 45.9952C12.5558 46.2154 12.5164 46.7748 12.2949 46.7834L12.2763 46.7791ZM4.45868 45.8634C3.12191 45.1205 5.30503 45.1918 5.41576 45.6669C5.38149 46.0599 4.95438 46.1614 4.46396 45.8677L4.45868 45.8634ZM203.081 45.7338C202.553 45.6172 202.424 45.1939 202.29 44.8182L204.046 45.2112C203.843 45.52 203.626 45.9088 203.099 45.7382L203.081 45.7338ZM193.507 45.086L193.349 44.9564C193.454 45.0428 193.562 45.1291 193.668 45.2177C193.633 45.1723 193.581 45.127 193.512 45.0838L193.507 45.086ZM5.09673 45.0859L4.46396 45.0859L4.46396 44.8246L5.10201 44.8246L5.09673 45.0859ZM5.57398 44.9564C5.54053 44.7632 5.45136 44.5794 5.3138 44.4201C5.17623 44.2609 4.99424 44.1308 4.78299 44.0407L5.74007 43.3928C5.70052 43.9089 5.64513 44.4316 5.5924 44.9542L5.57398 44.9564ZM8.94628 44.5611L8.78548 44.4316L9.10451 44.6929L8.94628 44.5611ZM196.08 44.5612C195.975 44.4748 195.869 44.3862 195.761 44.2998L196.241 44.2998C196.186 44.3862 196.133 44.4748 196.078 44.5612L196.08 44.5612ZM12.6165 44.0385L12.1367 43.6476L12.7747 43.5159L12.6165 44.0385ZM203.268 43.6476L202.949 43.6476C203.002 43.5591 203.057 43.4727 203.11 43.3863L203.268 43.6476ZM5.92197 43.2545C4.81986 43.2394 5.59768 42.0495 4.80667 41.9479C5.18108 41.3389 5.01497 40.5722 4.80668 39.8574C6.11446 40.0474 5.78235 42.1661 5.91155 43.2545L5.92197 43.2545ZM12.3054 42.6066L11.9863 42.4749L12.4635 42.3453L12.3054 42.6066ZM194.973 42.3453L194.812 42.3453C194.768 42.1515 194.789 41.9514 194.874 41.7668C194.958 41.5821 195.103 41.42 195.292 41.2979C195.358 41.6759 195.558 42.3108 194.962 42.341L194.973 42.3453ZM194.335 41.5592L194.174 41.2979L194.493 41.2979L194.335 41.5592ZM201.913 40.5809L201.992 40.3844L201.673 40.3844L201.834 40.7753L201.913 40.5809ZM4.16335 40.6457L3.5253 40.6457C3.63077 40.4707 3.73623 40.298 3.84432 40.123C3.9366 40.2937 4.04996 40.4664 4.15807 40.6414L4.16335 40.6457ZM202.306 39.8617L202.306 39.6004C203.081 39.8941 203.887 37.931 203.901 37.5747C203.637 36.903 202.859 36.2961 203.263 35.415C203.186 35.416 203.11 35.4314 203.042 35.4601C202.973 35.4888 202.913 35.5299 202.867 35.5804C202.821 35.6308 202.79 35.6893 202.776 35.7512C202.761 35.8131 202.765 35.8769 202.785 35.9376C202.055 35.8577 201.467 36.0737 201.828 36.7216L201.348 36.7216C201.193 37.7625 201.625 38.2744 201.509 39.1383C201.267 39.8661 201.533 40.1878 202.3 40.1187L202.306 39.8617ZM6.07763 39.73C5.43692 39.73 5.25766 39.1663 5.12055 38.6847L5.75861 38.6847L5.75861 39.2073L6.07763 39.2073L6.07763 38.4234C6.45203 38.3046 6.85279 39.0713 6.39666 39.2073C6.04598 39.3261 6.04598 39.5054 6.07235 39.7257L6.07763 39.73ZM202.944 39.0821C202.731 39.1084 202.514 39.0855 202.317 39.016C202.12 38.9465 201.951 38.8333 201.828 38.689L202.944 38.689L202.944 39.0821ZM194.569 38.8208C194.543 38.7776 194.514 38.7344 194.488 38.689L194.649 38.9504L194.569 38.8208ZM215.947 38.4277L216.027 38.1664L215.547 38.1664L215.547 38.689C215.752 38.6934 215.871 38.6761 215.942 38.4191L215.947 38.4277ZM4.95963 37.5142L4.95963 37.2399C4.80407 37.5271 4.50876 37.6718 4.16863 37.5012L4.16863 37.7625L4.95963 37.7625L4.95963 37.5142ZM3.68352 37.3824L3.5253 37.2528L3.84432 37.5142L3.68352 37.3824ZM12.6192 37.2528L11.981 37.1211C12.2394 37.0088 12.5401 36.9764 12.6139 37.2399L12.6192 37.2528ZM196.724 36.3372C196.668 36.1644 196.616 35.9895 196.563 35.8145L197.043 35.8145L196.724 36.3372ZM201.828 35.2271L201.986 34.7693L200.871 35.4172L201.662 35.6785L201.828 35.2271ZM4.48238 35.4236C3.89176 35.2292 4.01571 34.7628 4.6406 35.0306L4.48238 35.4236ZM203.104 34.834L202.944 34.6397L202.944 35.0306L203.268 35.0306L203.104 34.834ZM201.427 34.3784C201.652 34.1624 202.498 34.3265 202.466 33.8557L202.944 34.2466C203.771 32.3288 200.354 33.413 201.348 34.5079L201.427 34.3784ZM13.0964 34.117L12.9382 33.724L13.2572 33.724C13.1966 33.8471 13.1439 33.9766 13.0912 34.1084L13.0964 34.117ZM196.083 33.4627C195.978 33.3331 195.872 33.2013 195.764 33.0718L196.244 33.2013L196.083 33.4627ZM7.35373 33.3331C7.301 33.1171 7.2483 32.9011 7.19294 32.6852C7.24303 32.8882 7.29572 33.1063 7.34845 33.3244L7.35373 33.3331ZM216.504 32.8104C216.14 32.5664 215.162 32.1042 215.389 31.763C215.565 31.5017 215.42 31.3829 215.228 31.2404C215.535 31.2342 215.837 31.173 216.113 31.061C216.388 30.9491 216.631 30.7892 216.823 30.5925C216.686 30.9013 216.604 31.6097 216.185 31.506C216.369 31.6817 216.494 31.8932 216.549 32.1202C216.604 32.3472 216.587 32.582 216.499 32.8018L216.504 32.8104ZM196.729 32.2878C196.674 32.1993 196.621 32.1129 196.568 32.0243C196.61 32.1042 196.663 32.1906 196.718 32.2727L196.729 32.2878ZM12.3054 32.156L11.9863 32.156L12.1445 31.763C12.1867 31.8861 12.2395 32.0157 12.2949 32.1474L12.3054 32.156ZM193.926 31.6248C193.9 31.5816 193.871 31.5384 193.844 31.4931L194.005 31.7544L193.926 31.6248ZM12.9329 31.7544L12.453 31.7544C12.5057 31.6248 12.5585 31.493 12.6139 31.3635C12.7194 31.493 12.8248 31.6248 12.9329 31.7544ZM5.91155 30.1864L5.75333 30.0569L6.07235 30.3182L5.91155 30.1864ZM214.584 29.0764L214.584 28.8799L214.265 28.8799L214.265 29.2729L214.584 29.2729L214.584 29.0764ZM10.0616 28.4889L9.90078 28.2276C9.84804 28.3572 9.79522 28.4889 9.73986 28.6185L10.2198 28.7503L10.0616 28.4889ZM197.037 28.3572C196.982 28.2276 196.929 28.0959 196.877 27.9663C196.94 28.0959 196.982 28.2276 197.037 28.3572ZM197.995 28.0959C197.594 28.0527 197.243 27.9102 197.204 27.5733C197.517 27.6877 198.1 27.7957 197.995 28.0959ZM214.824 27.9015L214.584 27.8346L215.064 27.9663L214.824 27.9015ZM195.919 27.705L195.759 27.705C195.914 27.2126 195.342 27.0765 194.802 27.0571C195.535 26.7547 197.074 27.2731 195.919 27.705ZM7.50667 27.5085L7.18766 27.4437C7.39068 27.0916 7.65958 26.5172 8.14472 26.7958C8.02871 27.0549 7.90745 27.6056 7.50667 27.5085ZM197.037 27.1824L196.397 27.0506C196.552 26.8347 196.74 26.6014 197.037 26.6597L197.037 27.1824ZM13.571 27.0506C13.4629 26.9642 13.3574 26.8778 13.252 26.7893C13.3574 26.8735 13.4629 26.9642 13.571 27.0506ZM215.86 26.6576C214.901 26.7116 215.28 25.2689 216.021 25.0897C215.515 25.1609 215.863 26.2148 215.86 26.6576ZM13.571 25.3618C13.4629 25.1004 13.3574 24.8391 13.252 24.5778L13.89 24.4461C13.7819 24.7419 13.6765 25.0464 13.571 25.3618ZM6.07235 24.5778C5.66367 24.5152 5.84037 24.0768 5.91155 23.7938C5.96692 24.0465 6.01961 24.3078 6.07235 24.5692L6.07235 24.5778ZM199.909 24.4461L199.577 24.4461L200.054 23.5325C200.573 23.755 200.555 24.4137 199.909 24.4374L199.909 24.4461ZM195.84 23.5973C196.072 23.1287 196.32 23.1654 196.718 23.2712C196.705 22.7745 196.357 22.524 195.759 22.6233C195.909 22.4074 196.315 21.997 195.999 21.8394C195.722 21.442 196.173 20.7401 195.6 20.2715L196.078 20.1397C195.041 20.2563 194.203 20.0144 194.164 19.0944C192.985 19.5609 194.248 20.6278 194.485 21.185C194 21.8329 194.105 22.7205 195.276 22.7551C193.396 23.1028 194.899 24.7549 195.84 23.5887L195.84 23.5973ZM7.66219 23.0099C5.90618 23.174 6.29377 20.7401 7.66219 21.0489C7.55674 21.2239 7.44864 21.3966 7.34318 21.5716C8.02343 21.5737 7.69121 22.5348 7.66747 23.0012L7.66219 23.0099ZM200.542 22.6168L199.904 22.4851L200.062 22.0942C200.138 22.095 200.213 22.1099 200.281 22.1378C200.35 22.1656 200.409 22.2058 200.456 22.2552C200.503 22.3046 200.535 22.3621 200.551 22.4232C200.566 22.4843 200.565 22.5476 200.547 22.6082L200.542 22.6168ZM214.252 22.4851L213.775 22.4851L213.775 22.2238L214.252 22.2238L214.252 22.4851ZM193.594 22.0294C193.568 21.9625 193.539 21.8977 193.512 21.8329L193.354 22.2238L193.673 22.2238L193.594 22.0294ZM13.8769 22.2238C13.8241 22.1374 13.7687 22.051 13.7159 21.9625C13.7819 22.0424 13.8373 22.1223 13.89 22.2151L13.8769 22.2238ZM10.5283 21.4312L10.37 21.0403L10.8473 21.0403L10.5283 21.4312ZM6.06179 21.4312C5.95633 21.3448 5.84824 21.2584 5.74277 21.1699C5.85879 21.2584 5.96688 21.3448 6.07235 21.4312L6.06179 21.4312ZM214.893 20.9086L214.574 20.9086L214.574 19.8633C214.688 20.2175 214.798 20.5659 214.903 20.9086L214.893 20.9086ZM200.375 20.779L199.898 20.6472L200.217 20.5177L200.375 20.779ZM214.735 19.3406L214.097 18.818C214.524 18.7359 214.698 19.021 214.745 19.3406L214.735 19.3406ZM6.47042 18.8828L6.5496 18.6863C6.4755 18.6699 6.39776 18.6675 6.32236 18.6793C6.24698 18.6911 6.17592 18.7168 6.11445 18.7545C6.05298 18.7922 6.00271 18.8408 5.96755 18.8967C5.93241 18.9526 5.91329 19.0143 5.91155 19.0771C6.13567 19.0836 6.3966 19.0987 6.47042 18.8828ZM16.2814 17.1226L15.1661 17.1226L15.1661 16.6L16.2814 17.1226ZM192.249 15.8161C191.925 15.7556 191.964 15.5094 192.091 15.2934L192.249 15.8161ZM198.633 15.1682L198.472 15.0386L198.791 15.2999L198.633 15.1682ZM212.67 14.9069L212.512 14.9069L212.512 14.3842L212.989 14.516C212.926 14.6563 212.868 14.9025 212.67 14.8982L212.67 14.9069ZM196.877 14.449L197.356 14.1229C196.998 13.9307 196.621 13.691 196.718 13.3389L196.238 13.4707L196.397 12.9459C195.666 12.9459 195.838 12.3649 195.041 12.4902C194.606 12.514 193.299 12.6349 193.367 12.1619C190.826 12.4276 183.925 11.8466 183.475 13.3389C186.836 14.2546 190.459 12.6198 193.926 13.6003C195.648 13.894 195.774 14.8723 196.877 14.4404L196.877 14.449ZM181.083 14.516L181.083 14.3842L180.593 14.3842L181.072 14.6455L181.083 14.516ZM55.0508 13.8616L54.5604 13.8616L54.5604 13.6002L55.0377 13.6002L55.0508 13.8616ZM13.1649 13.5268L13.0859 13.3303C13.1386 13.462 13.1913 13.5916 13.2467 13.7233C13.2256 13.6564 13.1966 13.5916 13.1649 13.5268ZM96.5228 13.462L96.5228 13.3303L96.0456 13.3303L96.5228 13.5916L96.5228 13.462ZM15.3138 12.2202C15.3665 11.8056 15.4219 11.3909 15.4746 10.9784C14.8523 10.9784 13.9164 10.8834 13.7186 11.3693C14.9236 11.3866 14.4859 12.1878 13.8795 12.6651L14.5175 12.6651C14.4437 13.0971 14.5966 13.4361 15.1556 13.4512L15.3138 12.2202ZM111.913 12.9372C111.243 12.8228 111.259 12.0021 111.196 11.5011L111.987 11.5011L111.987 12.4038C112.664 12.1014 113.382 11.9891 114.062 12.2742C113.469 12.6975 112.71 12.9327 111.924 12.9372L111.913 12.9372ZM13.3996 12.8076L13.2414 12.6759C13.3469 12.7645 13.4523 12.8508 13.5604 12.9372L13.3996 12.8076ZM150.203 12.7429L149.963 12.6759C150.034 12.4103 150.334 12.4427 150.601 12.5463C150.535 12.6867 150.466 12.8228 150.213 12.7429L150.203 12.7429ZM116.78 12.8077C116.079 12.8422 115.32 12.8206 115.024 12.285C115.778 12.1878 116.68 12.0928 116.786 12.8077L116.78 12.8077ZM125.634 12.6111L125.394 12.5463C125.966 12.6349 126.024 11.9762 126.67 12.285C126.388 12.4254 125.916 12.7018 125.645 12.6198L125.634 12.6111ZM122.362 12.6759L122.059 12.6759C121.935 12.2958 122.446 12.136 122.85 12.028C122.789 12.2742 122.758 12.6954 122.373 12.6759L122.362 12.6759ZM130.496 12.4038L130.019 12.4038L130.019 12.1425L130.496 12.4038ZM128.263 12.4038C127.498 12.5032 126.929 12.2699 126.829 11.6198C127.3 11.5162 127.414 11.933 127.467 12.2677L128.258 12.136L128.263 12.4038ZM120.126 12.4038L119.968 12.4038C119.943 12.2672 119.976 12.1276 120.064 12.0092C120.151 11.8909 120.286 11.8012 120.445 11.7559C120.403 11.9524 120.356 12.4038 120.139 12.4038L120.126 12.4038ZM103.057 12.4038C102.951 12.3174 102.843 12.231 102.737 12.1425C102.856 12.2418 102.964 12.3282 103.075 12.4038L103.057 12.4038ZM13.4102 12.1425L13.252 12.0129L13.571 12.2742L13.4102 12.1425ZM146.622 12.1425L146.145 12.1425L146.145 11.8812L146.622 11.8812L146.622 12.1425ZM114.238 12.1425C114.183 12.0129 114.13 11.8812 114.078 11.7516C114.13 11.892 114.183 12.0237 114.238 12.1533L114.238 12.1425ZM210.289 11.7516C210.234 11.6652 210.181 11.5767 210.128 11.4903C210.171 11.5875 210.223 11.676 210.279 11.7559L210.289 11.7516ZM13.6606 10.7711C14.3962 10.2009 16.0652 10.3024 14.8576 9.13839C14.9262 10.2506 12.809 9.81436 12.9435 11.0972C13.0877 11.1208 13.2374 11.1022 13.3665 11.0445C13.4957 10.9869 13.596 10.8939 13.65 10.7819L13.6606 10.7711ZM202.311 10.0519L202.153 9.92236L202.472 10.1837C202.408 10.1513 202.353 10.1081 202.3 10.0627L202.311 10.0519ZM209.166 9.26798L209.008 9.1384L209.327 9.39973L209.166 9.26798ZM207.571 9.26798L207.091 9.26798L207.091 8.87708L207.571 9.26798ZM15.0949 9.00665L15.0159 8.87706C15.0686 8.96345 15.1239 9.04984 15.1767 9.13839C15.1398 9.10599 15.1134 9.06064 15.0844 9.01745L15.0949 9.00665ZM14.0588 8.81228C14.2302 8.39114 15.058 8.66542 15.4957 8.74533C15.4562 8.39114 15.4957 7.98945 15.973 7.96137C15.5036 7.25732 16.0099 7.13206 16.2129 6.44961C16.1628 5.86866 17.4415 5.96368 17.6498 5.73259C19.4955 5.22724 19.8699 6.20772 22.2745 5.79738C24.3258 5.54039 24.3074 5.81467 25.5467 5.99393C26.4168 5.91833 25.9422 5.52312 27.221 5.60086C28.6922 5.79307 29.122 5.70669 30.4904 5.92697C31.3473 6.25956 31.4976 5.562 32.2465 5.86219L32.2465 5.60086C33.2589 5.55767 33.7757 6.0328 34.6406 5.99393L34.6406 5.60086L36.5547 5.86219L36.7129 4.94864C33.2536 4.58366 30.203 4.82986 26.662 4.55558C24.6818 4.58797 24.5526 5.0048 22.6753 4.62038C21.0221 4.62038 20.4553 4.89466 18.6861 4.68733L18.6861 5.07823C17.2069 4.19925 16.168 5.94208 15.4957 4.94864C15.6407 5.96152 14.1115 5.97017 13.9796 6.64615C13.9427 7.37611 12.5902 8.58984 13.9006 9.12975L14.0588 8.81228ZM15.1767 7.96137L14.3857 7.96137C14.4384 7.70005 14.4939 7.43873 14.5466 7.17741C15.0871 7.20333 15.2373 7.54887 15.1661 7.97217L15.1767 7.96137ZM200.006 6.44962L199.927 6.25526C199.872 6.34165 199.819 6.42802 199.766 6.51657L200.085 6.64616L200.006 6.44962ZM178.467 5.8622C179.245 5.95291 180.073 4.41738 178.707 4.81692C179.277 4.44545 179.203 2.39595 178.069 2.59463C178.31 3.12545 178.406 3.69289 178.351 4.2573C178.296 4.8217 178.091 5.36944 177.75 5.8622C177.943 5.92483 178.357 6.05224 178.449 5.88163L178.467 5.8622ZM63.2851 5.7326C65.2889 5.16677 69.5313 5.69374 71.7382 5.40434C72.2339 5.06528 73.518 5.78227 73.8924 5.60086C74.57 5.4756 76.3128 5.1387 76.9245 4.95297L76.9245 5.49288C78.1005 5.27692 79.8249 4.73268 80.4339 5.62246C81.8076 5.16677 83.598 5.12359 85.2986 5.29636C86.6565 5.49721 87.3447 4.89898 88.8898 5.09983C88.7896 4.7586 89.1534 4.56639 89.5278 4.45192C88.3387 4.62686 87.1364 3.67661 86.1002 4.38498C85.3223 4.41953 82.8781 3.52111 82.3508 4.45192C81.8234 4.01999 81.3805 4.55343 80.6765 4.32019C80.1017 4.16686 79.8856 4.40874 79.6403 4.71325L78.8494 4.1906C79.1816 4.36122 79.1341 4.68085 79.0076 4.97456C78.7439 4.91193 78.5171 4.85363 78.4511 4.58152C78.3905 4.20789 76.7479 4.38498 76.7743 4.71325L75.8172 4.1906C75.9095 4.87522 73.5629 4.11719 73.344 4.58151C71.3824 5.21646 70.5834 4.20789 67.9204 4.38497C65.927 4.28779 65.4551 4.90978 64.411 4.77803C63.9258 4.39362 63.0003 4.60095 62.7367 5.10414C62.473 4.73268 61.3392 4.48647 61.1547 4.97456C60.514 4.69812 59.3486 4.92056 58.6025 4.97456C58.0356 5.17325 57.0336 4.48216 56.3691 4.58366C55.4463 4.69596 55.1195 4.89465 54.2942 4.84499C53.9963 5.08903 52.4485 4.65278 52.3799 5.10631C52.3456 4.47784 48.0901 4.737 47.7526 4.84499C47.0038 5.20564 43.0514 4.24244 42.8062 5.10631C42.0416 4.98968 38.3898 4.6355 38.9778 5.69373C40.391 5.77148 41.9441 6.03928 43.6052 6.022L43.6052 5.76067C44.0745 6.27251 46.4317 5.35034 46.9564 5.69373C48.6412 6.09543 50.4367 5.63542 52.2297 6.022L52.2297 5.62894C55.4622 6.03712 60.0974 5.88378 63.2614 5.75205L63.2851 5.7326ZM175.359 5.73261C175.559 5.55552 176.648 5.60952 177.112 5.60087C177.128 4.99401 175.899 4.70893 175.198 4.42602C175.52 4.04808 175.923 3.6723 176.474 3.77812L176.316 3.25549C176.978 3.03952 176.965 3.81052 177.431 3.77812C177.413 3.27276 177.589 2.38298 176.793 2.48233L176.793 2.87323L176.002 2.6119L176.64 2.08927C176.174 1.81499 175.723 1.49321 175.683 1.04399C174.992 1.23837 174.204 1.35715 174.088 0.653103C174.13 1.13254 172.669 1.32043 172.49 0.84962C172.227 0.326984 171.043 0.795635 170.576 0.391773C169.898 0.121814 168.83 0.551593 168.504 1.10878C168.356 1.54071 168.214 1.62494 167.865 1.69837L168.024 2.08927C167.394 1.60766 166.65 2.45641 166.109 2.87323C166.004 2.56871 165.898 2.2642 165.79 1.95969C164.559 2.20805 165.184 2.51256 163.478 2.60758C162.408 2.74797 162.11 2.69614 161.962 3.00065L161.482 2.60758L162.123 2.21669L161.005 2.08494C161.116 3.3397 159.286 2.36138 158.532 2.93585C158.039 3.20796 157.928 3.2706 157.654 3.13022C158.421 2.55575 157.374 1.51048 156.776 2.48232C156.557 2.82571 156.488 2.89482 156.219 2.87322C156.641 2.22532 155.724 2.18213 155.101 2.22532L155.892 3.13886C155.228 3.506 155.007 2.61838 154.455 2.68317C153.604 3.04383 154.893 3.56648 155.094 3.79324C153.248 4.98321 153.14 2.28148 151.265 3.2706C151.16 3.00929 151.052 2.74796 150.946 2.48665C150.487 2.93801 148.889 2.47369 148.634 3.2706C148.172 4.51025 146.717 3.98761 146.24 3.2706C144.407 4.90762 144.658 1.7718 142.97 2.87754L143.927 2.87754L143.927 3.52545L144.405 3.52545C144.299 3.61183 144.194 3.70036 144.085 3.78675L143.608 3.26412C143.345 4.17765 140.924 4.02863 141.214 3.00279L140.423 3.26412L140.9 4.04807C139.996 3.70253 138.388 4.12798 137.072 3.78675C137.478 3.07623 136.687 2.74148 135.954 2.49096C136.062 3.09134 134.62 4.36339 134.04 3.53624C133.937 3.98977 131.403 3.82563 131.168 3.53624C130.965 3.79324 130.731 4.27268 130.377 4.18414L130.377 2.7458C130.035 2.99849 129.629 3.32027 129.898 3.6615C129.304 3.79324 128.727 3.76516 128.302 3.39802C128.039 3.80187 127.643 3.95522 127.187 3.6615C127.57 3.51248 127.525 2.79763 127.026 2.87538C127.253 3.56432 126.299 3.68525 125.589 3.79108L126.227 3.00712C125.117 2.79115 123.464 2.31386 123.356 3.52975C123.868 3.52975 125.03 3.25333 125.112 3.6615L123.994 4.0524L123.994 3.79108C122.7 3.6399 119.955 4.1539 119.528 3.39802C119.114 3.49088 118.178 3.95305 118.093 3.52975C119.971 2.92289 117.302 1.74588 117.455 3.26844L118.093 3.1367C117.83 3.98977 115.984 3.48872 115.457 3.65934C114.336 4.19277 112.369 3.79107 111.388 3.26844C109.78 4.34827 106.793 3.303 105.324 4.44546C105.261 3.01792 100.465 3.90986 100.697 4.96809L102.134 4.96809L102.134 4.57503C102.682 5.55983 104.77 4.41954 105.485 4.83635C105.846 5.29852 108.224 4.54912 108.356 5.22941C110.518 4.60095 114.183 5.9745 116.493 5.22941C117.616 6.2099 121.603 5.51449 122.874 5.35899C123.733 5.37627 126.001 5.4173 126.781 5.42594C127.372 5.09551 127.572 5.52528 127.34 5.88162C128.395 5.84707 129.186 5.41514 129.977 5.23373C130.667 5.49073 131.14 5.89674 132.131 5.62679L132.131 5.88162C133.186 5.90322 133.882 5.28988 134.683 5.35899C135.197 5.59439 135.957 5.11279 136.36 5.42378C136.518 5.55552 136.811 5.55552 137.235 5.42378C138.672 4.95297 141.19 5.40219 142.58 5.62032C143.743 5.67863 145.198 4.75644 145.533 5.88162C146.042 5.44969 146.809 6.06519 147.207 5.55551C147.471 5.1495 148.027 5.46914 148.404 5.62032C148.613 4.92922 153.15 5.56632 154.147 5.55551C157.216 5.86867 162.321 4.9573 165.316 5.75206L165.474 5.22942L166.112 5.359L165.954 4.9681C166.45 4.8666 166.977 5.43026 167.388 5.75206C167.496 5.49073 167.602 5.22941 167.707 4.9681C168.329 5.38707 169.756 5.71102 169.303 4.70678L169.941 4.70678L169.941 5.22942C171.657 5.2575 170.811 4.50161 170.579 3.79108L171.696 4.31372C171.591 4.09774 171.483 3.88178 171.377 3.66581L172.168 3.53408C172.089 3.90122 171.934 4.39795 172.329 4.57936C171.602 4.5664 171.676 5.25748 171.691 5.75637C172.846 5.54256 174.428 5.83413 175.34 5.75206L175.359 5.73261ZM38.2132 5.49288C38.2923 5.36114 38.3714 5.23156 38.4531 5.09982L38.1341 4.97024L38.1341 5.49288L37.8151 5.49288L37.9732 4.97024C36.3675 4.69597 37.3932 6.4928 38.2132 5.49288ZM194.957 5.29637C194.904 5.23158 194.852 5.16462 194.796 5.09984L194.638 5.49289L195.115 5.49289L194.957 5.29637ZM91.8981 5.23156L91.8981 5.09983C94.8142 4.58799 97.6987 6.00041 100.512 4.18629C99.874 3.51248 98.6875 4.83419 97.9598 3.79323C97.8095 3.98761 97.6672 4.22517 97.3218 4.05455C96.9975 3.82348 96.1273 4.30075 95.8847 3.98976C95.7503 3.66797 94.2659 4.31154 94.1314 3.98976C94.0233 3.85802 93.757 3.79323 93.3404 3.79323C92.4993 3.72844 92.5046 4.22517 91.7584 4.11934C91.4394 4.07615 91.2521 4.14093 91.1994 4.31587C91.2152 4.70893 89.649 4.69813 89.8441 5.09983C90.6905 4.79316 91.1625 5.42378 91.9192 5.36115L91.8981 5.23156ZM191.453 4.845L192.091 4.4541L190.335 4.19278C190.762 4.3893 190.483 4.88387 190.335 5.23806C190.741 5.24669 190.876 5.17759 191.453 4.845ZM174.86 4.845L174.528 4.845C174.581 4.75861 174.634 4.67006 174.689 4.58367L174.86 4.845ZM177.893 4.51889L177.732 4.4541L178.051 4.58367L177.893 4.51889ZM167.441 4.38715C166.995 4.33747 166.95 3.96817 166.885 3.67014L168.161 3.93146C168.016 4.1755 167.879 4.47138 167.441 4.37851L167.441 4.38715ZM187.464 4.19278L187.306 4.06104L187.625 4.32236L187.464 4.19278ZM174.222 4.32236L174.222 3.79971C174.816 3.73492 174.663 4.18413 174.222 4.31372L174.222 4.32236ZM159.307 4.19277C158.418 4.16902 158.213 4.17549 158.11 3.79971L159.225 3.93146L159.225 3.14534C159.65 3.03951 159.555 3.60536 160.016 3.47361C161.102 3.52545 160.504 4.36339 159.307 4.18414L159.307 4.19277ZM144.948 3.34187C145.045 3.12589 144.879 3.07839 144.708 3.01576C144.76 3.1907 144.816 3.36347 144.868 3.5384L144.948 3.34187ZM122.773 3.34186C122.744 3.27707 122.718 3.21229 122.692 3.14534C122.744 3.27708 122.8 3.40666 122.852 3.5384L122.773 3.34186ZM147.26 3.34187L147.102 3.27708L147.421 3.40666L147.26 3.34187ZM127.878 3.34187L127.638 3.27708L128.118 3.40666L127.878 3.34187ZM165.448 3.27708L165.129 3.27708L165.129 3.01577L165.92 3.01577C165.893 3.09816 165.83 3.16952 165.743 3.21617C165.656 3.26281 165.551 3.28144 165.448 3.26844L165.448 3.27708ZM139.445 3.21229L139.284 3.14534L139.603 3.27708L139.445 3.21229ZM134.578 3.08055L134.499 2.88402L134.657 3.27708L134.578 3.08055ZM116.949 3.14534L116.791 3.01576C116.896 3.10215 117.002 3.19069 117.11 3.27708L116.949 3.14534ZM157.311 3.14534L156.992 3.14534L156.992 2.62271L157.311 3.14534ZM121.416 2.88402C121.434 2.60541 121.183 2.55143 120.938 2.49312L120.938 3.14101L121.416 3.14101L121.416 2.88402ZM175.978 3.01577L175.659 2.62271L175.978 2.62271L175.978 3.01577ZM141.997 2.88402L141.836 2.75444L142.155 3.01576L141.997 2.88402ZM140.56 2.88402C140.56 2.71556 140.125 2.66806 139.922 2.6227L139.922 3.01576L140.56 3.01576L140.56 2.88402ZM119.182 2.6227L119.343 2.49312L118.863 2.36138C118.916 2.49312 118.969 2.6227 119.024 2.75444L119.182 2.6227ZM178.051 2.16701C178.989 1.4824 177.149 1.15845 176.469 0.925205C176.263 1.6055 177.165 2.79763 178.051 2.15837L178.051 2.16701ZM171.351 0.0764575L171.19 0.00950959L171.509 0.141246L171.351 0.0764575Z" fill="#839CB5"/>
  </g>
  <defs>
    <clipPath id="clip0_1762_1042">
      <rect width="220" height="84" fill="white" transform="translate(220 84) rotate(-180)"/>
    </clipPath>
  </defs>
</svg>