<svg xmlns="http://www.w3.org/2000/svg" width="27" height="45" viewBox="0 0 27 45" fill="none">
  <g clip-path="url(#clip0_1762_1823)">
    <path d="M0.0713394 0.679914C0.315479 15.3507 0.324521 30.0981 1.42767 44.7373C1.42767 44.8185 1.56331 44.8907 1.63112 44.9042C3.15926 45.2289 4.61957 44.6156 6.15222 44.6156C7.42265 44.6156 8.69308 44.7464 9.9635 44.7644C11.5956 44.7644 13.2323 44.7644 14.8689 44.7644C17.0255 44.7644 19.1866 44.7148 21.3431 44.6336C22.8667 44.575 24.544 44.6336 26.027 44.2458C26.3509 44.2109 26.6552 44.0734 26.895 43.8534C27.0804 43.6054 26.99 43.2987 26.999 43.0055C27.0397 41.8104 26.999 40.6063 26.999 39.3976C26.9779 35.0801 26.9282 30.7641 26.8498 26.4496C26.7775 22.2103 26.678 17.974 26.5514 13.7407C26.4941 11.7563 26.4293 9.77041 26.357 7.78304C26.2892 5.86632 26.4926 3.70157 26.1264 1.82544C25.7873 0.107157 24.214 0.535601 22.6723 0.445403C20.2369 0.301085 17.8001 0.191339 15.3617 0.116173C10.4427 -0.037164 5.52228 -0.0567023 0.600314 0.0575491C0.410428 0.0575491 -0.0371609 0.246966 0.0351767 0.508541L0.10299 0.743052C0.220539 1.14895 1.23326 0.878354 1.11571 0.472461L1.0479 0.237943L0.482761 0.738545C6.36019 0.606254 12.2376 0.666383 18.115 0.918939C19.39 0.973058 20.6665 1.0362 21.9444 1.10836C22.5096 1.13993 23.5042 1.02718 24.0286 1.23464C25.3533 1.7623 25.1137 2.38016 25.1544 3.43097C25.278 6.35941 25.3835 9.28936 25.4709 12.2208C25.6427 17.6778 25.7708 23.1348 25.8552 28.5918C25.8913 31.0302 25.9215 33.4701 25.9456 35.9114L25.9727 39.8621C25.9727 40.5161 25.9727 41.17 25.9727 41.8239V43.1228C25.8371 43.7948 25.8823 43.9571 26.1129 43.6099C25.6969 43.9256 24.5305 43.8354 24.0377 43.8714C22.6814 43.9707 21.2798 44.0158 19.9009 44.0563C17.2108 44.1285 14.5208 44.1465 11.8262 44.142C9.13162 44.1375 6.47773 43.8038 3.82837 44.2638C1.76223 44.6246 2.60768 44.7644 2.38163 43.8805C2.2873 43.2627 2.24496 42.6382 2.25504 42.0134C2.15105 40.4394 2.04254 38.8564 1.97924 37.2915C1.48644 25.0696 1.30108 12.8251 1.10215 0.598738C1.08406 0.102647 0.0668183 0.28755 0.0713394 0.679914Z" fill="#2C2C2C"/>
    <path d="M2.02272 39.6433L25.8851 38.4843C26.197 38.4843 26.7577 38.0017 26.2332 37.8213L25.4737 37.5552C25.0758 37.4199 24.2846 38.0062 24.8769 38.1956L25.641 38.4617L25.9891 37.7988L2.12671 38.9578C1.57514 38.9849 1.32647 39.6794 2.02272 39.6433Z" fill="#2C2C2C"/>
    <path d="M14.1974 40.481H14.5094L14.9615 40.1022C14.1612 40.2059 13.0762 40.5532 12.7371 41.3694C12.3438 42.3481 13.7272 42.6458 14.4099 42.5375C15.1966 42.4157 16.0737 41.9738 16.1144 41.0808C16.155 40.1879 15.2101 39.8496 14.4551 39.9894C14.3511 40.012 13.8583 40.1112 13.8583 40.2555C13.8583 40.3998 14.1567 40.3502 14.2562 40.3322C14.5636 40.2781 14.9253 40.6749 15.0293 40.9139C15.1047 41.1047 15.1231 41.3131 15.0822 41.514C15.0413 41.715 14.9428 41.8997 14.7987 42.0459C14.4822 42.3301 13.8402 41.9873 13.7137 41.6175C13.5599 41.1665 14.0708 40.5396 14.5139 40.481C14.6902 40.4584 15.0881 40.4133 15.192 40.2465C15.296 40.0796 15.1016 40.0931 14.9615 40.1022H14.6495C14.4777 40.1022 14.0708 40.1788 13.9713 40.3412C13.8719 40.5035 14.0618 40.49 14.2019 40.481H14.1974Z" fill="#2C2C2C"/>
    <path d="M4.09994 39.1414C4.25366 26.9105 3.9191 14.6871 3.09626 2.47119L2.08354 2.74179C2.34576 3.21533 3.73374 3.19278 4.18585 3.25141C5.69137 3.44083 7.20594 3.55808 8.70694 3.67534C12.7759 3.99103 16.8856 4.18496 20.9862 4.09927C21.4384 4.09927 22.9936 3.78808 23.3191 4.02711C23.8843 4.433 23.6175 5.41166 23.5904 5.96187C23.509 7.54936 23.4457 9.11881 23.396 10.7289C23.3056 13.6813 23.2664 16.6369 23.2784 19.5954C23.2995 25.7319 23.5437 31.8624 24.0109 37.9868C24.0109 38.1808 25.0462 37.9868 25.0236 37.7117C24.1782 26.376 24.074 14.9975 24.7116 3.64828C24.7116 3.55357 24.4585 3.57161 24.4223 3.57161C19.8072 3.76789 15.1846 3.69109 10.5787 3.34161C9.22234 3.24239 7.86601 3.13866 6.50968 3.00787C5.94002 2.95375 3.38561 3.00787 3.08722 2.47119C2.96063 2.2502 2.0564 2.47119 2.07449 2.74179C2.89733 14.9486 3.23189 27.172 3.07817 39.412C3.07817 39.5833 4.08639 39.4435 4.09091 39.1414H4.09994Z" fill="#2C2C2C"/>
  </g>
  <defs>
    <clipPath id="clip0_1762_1823">
      <rect width="27" height="45" fill="white"/>
    </clipPath>
  </defs>
</svg>