<svg xmlns="http://www.w3.org/2000/svg" width="31" height="37" viewBox="0 0 31 37" fill="none">
  <g clip-path="url(#clip0_1762_1815)">
    <path d="M10.139 10.7423C8.84652 9.14374 8.06158 7.17667 7.88981 5.10583C7.81814 4.25001 7.61335 3.13465 7.71233 2.29988C7.91028 0.58123 12.2243 -0.15533 11.8489 2.14906C11.8489 2.20869 11.8659 2.24377 11.9239 2.26481C12.5178 2.45071 13.3301 2.58748 13.8557 2.12099C14.7294 1.33533 13.3676 0.742574 15.5212 0.504068C16.0588 0.460238 16.5962 0.591553 17.057 0.879367C17.5792 1.01966 17.668 1.43705 17.3233 2.1245C17.2925 2.16724 17.2716 2.2166 17.2622 2.26886C17.2527 2.32111 17.2549 2.37489 17.2686 2.42614C17.2686 2.49278 17.2686 2.51383 17.3403 2.54189C17.5933 2.64199 17.8642 2.68563 18.1349 2.66991C18.4055 2.65419 18.6699 2.57946 18.9103 2.45069C19.5587 2.1245 19.5076 1.7492 20.3642 1.9842C21.9854 2.45069 21.3881 3.69234 20.8966 4.76562C20.2345 6.18964 19.2891 7.41022 18.5076 8.74656C18.1082 9.41998 17.6202 10.3354 18.1219 11.0895C18.6236 11.8436 19.7567 11.9594 20.511 12.1418C21.9785 12.5241 23.2414 13.3799 24.5178 14.2076C27.2209 15.9614 28.8386 19.0269 29.6919 22.1309C30.511 25.1053 30.511 28.4794 28.7328 31.0995C26.5792 34.2807 22.685 35.2593 19.1765 35.9433C12.7362 37.2024 3.53826 36.8517 1.24816 29.002C0.20038 25.4174 1.03314 21.3172 2.27205 17.8869C2.95465 16.007 3.95807 14.2778 5.60995 13.1344C7.12531 12.0821 8.87616 11.4894 10.3642 10.3915C10.7055 10.1355 9.89664 10.1916 9.72599 10.3179C7.86251 11.6928 5.54169 12.3206 3.86592 13.9727C2.25159 15.5615 1.4393 17.8063 0.852266 19.9669C-0.345686 24.3617 -0.707461 29.472 2.55875 33.0356C5.69868 36.4553 10.4939 37.2796 14.8659 36.9218C19.0536 36.5711 24.1765 35.7819 27.5963 33.0637C31.0161 30.3454 31.5895 25.9646 30.4768 21.9205C29.2618 17.4906 26.4939 13.9761 22.3267 12.1558C20.7874 11.4859 17.7704 11.5735 19.0571 9.02013C19.5042 8.12573 20.1697 7.33655 20.6816 6.47723C21.2618 5.50216 22.2925 4.07464 22.313 2.87159C22.3335 1.66854 20.1492 0.974072 19.1458 1.38795C18.9273 1.47564 18.4632 2.03683 18.2618 1.84742C18.3472 1.9281 18.3745 1.14594 18.3472 1.05825C18.2669 0.905536 18.1571 0.771344 18.0244 0.663963C17.8917 0.556581 17.7391 0.478282 17.5758 0.433915C16.6509 0.083171 14.255 -0.397337 13.5212 0.665418C13.3028 0.981088 13.2755 1.90003 12.7055 1.6019C12.586 1.54227 12.3642 0.791674 12.1355 0.609287C11.4529 0.0691412 10.4291 0.25855 9.65091 0.440937C8.87275 0.623324 7.96148 0.830266 7.31643 1.32131C6.55193 1.89653 6.90346 2.81898 6.95124 3.6783C7.11506 6.54388 7.60994 8.76759 9.34032 11.0615C9.48025 11.2438 10.2652 10.9633 10.1048 10.7563L10.139 10.7423Z" fill="#2C2C2C"/>
    <path d="M8.85213 10.9542C12.0385 11.4018 15.2777 11.2437 18.4084 10.4877C18.4972 10.4666 18.9648 10.2422 18.6951 10.1369C16.7497 9.35127 14.2344 9.95454 12.2105 10.0878C10.5825 10.1931 8.96475 10.1685 7.56885 11.1401C7.50741 11.1821 7.44257 11.2663 7.50742 11.333C8.01936 11.8696 8.62005 11.8836 9.32312 11.8801C10.5825 11.8801 11.8521 11.7574 13.1115 11.6942C15.0364 11.5995 17.016 11.6942 18.7156 10.6139C19.2276 10.2948 20.3265 9.03909 20.934 9.00051C22.4631 8.9023 20.0296 9.88438 19.7634 9.9861C19.2965 10.1099 18.84 10.2717 18.3982 10.4701C17.8897 10.7998 17.7497 10.9086 17.7156 11.596C17.6303 13.1814 17.7156 14.7071 17.4323 16.2855L18.248 16.1101C17.9972 14.403 17.9869 12.6678 18.2173 10.9577C18.2514 10.6876 17.4357 10.8419 17.4016 11.0839C17.1677 12.8301 17.1769 14.6016 17.4289 16.3451C17.463 16.5801 18.2105 16.3662 18.2446 16.1662C18.4046 15.2832 18.5083 14.3904 18.5552 13.4935C18.5244 12.9656 18.5244 12.4362 18.5552 11.9082C18.7975 10.5438 19.2378 10.5648 20.0467 10.2632C20.8555 9.96156 22.6644 9.47753 22.8078 8.35515C22.8248 8.22537 22.661 8.21484 22.5689 8.21484C21.5928 8.24983 20.6506 8.59137 19.8692 9.19343C19.2037 9.66343 18.5927 10.2457 17.8726 10.642C16.5484 11.3435 14.876 11.2242 13.4357 11.2944L10.4596 11.4382C10.1968 11.4382 9.24461 11.6521 9.01594 11.4627C8.3743 10.9261 10.8589 10.5718 11.0637 10.5578C12.1081 10.4842 13.1525 10.421 14.1968 10.3509C15.4562 10.2702 16.7975 10.0282 18.0023 10.5157L18.289 10.165C15.3566 10.863 12.3242 10.9998 9.3436 10.5683C9.12517 10.5403 8.39137 10.9191 8.82823 10.9717L8.85213 10.9542Z" fill="#2C2C2C"/>
    <path d="M15.4108 20.5104C14.8513 20.2091 14.2335 20.0398 13.6023 20.0149C12.9712 19.99 12.3425 20.1102 11.7623 20.3667C10.6599 20.8331 9.03191 22.4711 10.6906 23.3515C12.4756 24.295 16.2981 23.3269 17.2265 25.5682C18.7998 29.3668 12.4483 29.8894 10.1684 30.1279C9.96364 30.1489 9.28105 30.5067 9.81006 30.4505C11.8228 30.2573 13.8093 29.841 15.735 29.2089C17.049 28.7599 18.1889 28.1041 18.223 26.5117C18.2674 24.4879 16.8101 24.0565 15.1514 23.7794C14.0114 23.583 12.2845 23.6496 11.2947 23.0043C10.7316 22.6535 10.6667 22.173 10.9534 21.5627C11.6019 20.1597 13.4654 20.1597 14.6326 20.784C14.8408 20.8963 15.4927 20.549 15.4073 20.5034L15.4108 20.5104Z" fill="#2C2C2C"/>
    <path d="M12.948 16.127C12.8668 21.9388 12.5012 27.7428 11.8524 33.5169C11.8217 33.7939 12.6408 33.6326 12.6681 33.3906C13.3135 27.5882 13.6746 21.7562 13.75 15.9165C13.75 15.7201 12.9343 15.8569 12.9309 16.141L12.948 16.127Z" fill="#2C2C2C"/>
  </g>
  <defs>
    <clipPath id="clip0_1762_1815">
      <rect width="31" height="37" fill="white"/>
    </clipPath>
  </defs>
</svg>