<svg xmlns="http://www.w3.org/2000/svg" width="22" height="30" viewBox="0 0 22 30" fill="none">
  <g clip-path="url(#clip0_1762_1820)">
    <path d="M1.31483 28.9529C0.994312 25.5722 1.60473 22.1683 3.08025 19.1083C4.8768 15.4244 8.51663 11.0254 13.1274 12.0928C20.916 13.9114 20.9471 23.6057 20.6148 29.8441L21.4767 29.3467C14.654 29.4779 7.83816 29.3052 1.02926 28.8285C0.707333 28.8285 -0.409028 29.3467 0.245209 29.4192C7.14065 29.9132 14.0465 30.0859 20.9627 29.9373C21.2275 29.9373 21.8246 29.813 21.8454 29.471C22.0998 24.6938 22.3231 19.4866 19.4933 15.3467C17.5565 12.5228 14.1867 10.7664 10.739 11.3829C3.04909 12.7664 -0.549219 22.4037 0.0530942 29.2638C0.079056 29.5798 1.33562 29.3311 1.29927 28.9322L1.31483 28.9529Z" fill="#2C2C2C"/>
    <path d="M13.1671 0.0627263C9.93228 -0.398414 7.08169 1.81921 6.13148 4.86585C4.94244 8.67414 9.04959 11.4876 12.4662 11.5705C15.8827 11.6534 17.887 9.46687 18.5931 6.31143C18.9826 4.57568 19.1591 2.64305 17.6533 1.39952C16.1475 0.155999 14.1796 -0.123781 12.3312 0.0523851C11.9833 0.0886545 10.9863 0.674147 11.8119 0.57052C14.2783 0.332178 17.4404 1.34254 17.6274 4.19746C17.8247 7.22855 16.1579 11.4513 12.435 10.9332C10.4204 10.6482 8.1565 9.24928 7.39842 7.30627C6.30803 4.46689 9.2469 0.176725 12.3987 0.622321C12.6946 0.663771 13.8317 0.171543 13.1983 0.104186L13.1671 0.0627263Z" fill="#2C2C2C"/>
  </g>
  <defs>
    <clipPath id="clip0_1762_1820">
      <rect width="22" height="30" fill="white"/>
    </clipPath>
  </defs>
</svg>