<svg xmlns="http://www.w3.org/2000/svg" width="47" height="40" viewBox="0 0 47 40" fill="none">
  <g clip-path="url(#clip0_1762_1828)">
    <path d="M0.188524 39.9954C10.2083 38.9566 20.4325 39.415 30.4908 39.4295H39.2367C41.3106 39.4295 43.7459 39.8909 45.7931 39.4295C47.4107 39.0639 46.9426 37.4912 46.9337 36.2115C46.91 33.4665 46.8873 30.7235 46.8656 27.9823C46.8162 21.5986 46.7649 15.2071 46.7115 8.80785C46.7115 8.66857 45.9768 8.77882 45.9768 8.99935C46.0202 14.1818 46.0627 19.3633 46.1042 24.5438C46.1239 27.2076 46.1457 29.8703 46.1694 32.5322C46.1694 33.8205 46.1792 35.1108 46.199 36.4031C46.199 36.8615 46.2168 37.3171 46.2286 37.7756C46.2464 38.6229 46.2701 39.0465 45.2509 39.2264C44.0925 39.4266 42.7712 39.1394 41.592 39.122C40.2588 39.1016 38.9256 39.122 37.5894 39.122H29.7265C24.8677 39.122 20.0089 39.0871 15.153 39.122C10.2972 39.1568 5.35841 39.1974 0.499611 39.7023C0.292224 39.7255 -0.29143 40.065 0.188524 40.0157V39.9954Z" fill="#2C2C2C"/>
    <path d="M5.63413 39.2481C5.85732 34.3674 6.07754 29.4877 6.2948 24.609L5.77041 24.844C7.62661 24.7569 9.48694 24.8123 11.3343 25.0094C11.6306 25.0414 12.5194 25.0443 12.7505 25.1951C13.1504 25.4418 13.0705 25.8451 13.0912 26.2107C13.1416 27.0958 12.9875 28.033 12.9549 28.918C12.8186 32.2869 12.8305 35.6558 12.9697 39.0218C12.9697 39.1349 13.7104 39.0218 13.7045 38.8303C13.5153 34.2321 13.5766 29.6273 13.8882 25.0356C13.8824 25.024 13.8736 25.0141 13.8627 25.007C13.8517 24.9998 13.8391 24.9957 13.8259 24.9949C11.2694 24.591 8.67712 24.4471 6.09038 24.5655C5.97188 24.5655 5.56894 24.6409 5.56302 24.8005C5.3418 29.6812 5.12158 34.5609 4.90234 39.4396C4.90234 39.5354 5.62524 39.4396 5.63413 39.2481Z" fill="#2C2C2C"/>
    <path d="M18.1228 38.9817C18.4033 32.6385 18.6837 26.2944 18.9642 19.9494L18.4368 20.1873C19.6905 20.1075 20.9478 20.0988 22.2024 20.1612C22.9016 20.196 23.6008 20.257 24.2941 20.3382C24.7207 20.3904 25.6095 20.3382 25.9621 20.582C26.6849 21.0491 26.2317 22.9585 26.1991 23.6752C26.1517 24.6424 26.1112 25.6174 26.0776 26.6001C25.9354 30.7292 25.9117 34.8612 26.0302 38.9904C26.0302 39.1035 26.7709 38.9904 26.7649 38.7989C26.5872 32.6792 26.7116 26.545 27.1056 20.434C27.099 20.4225 27.0895 20.4128 27.0782 20.4058C27.0668 20.3987 27.0539 20.3944 27.0405 20.3933C24.3058 19.9012 21.5201 19.7375 18.7449 19.9059C18.6264 19.9059 18.2265 19.9813 18.2176 20.1438C17.9352 26.4869 17.6557 32.831 17.3792 39.1761C17.3792 39.2718 18.1021 39.1761 18.1109 38.9817H18.1228Z" fill="#2C2C2C"/>
    <path d="M40.4066 39.1809C40.7108 30.5358 41.0189 21.8896 41.331 13.2426C41.3243 13.2311 41.3148 13.2214 41.3035 13.2144C41.2921 13.2073 41.2792 13.203 41.2658 13.2019C38.1973 12.6991 35.0676 12.6688 31.9896 13.112C31.8978 13.1265 31.5571 13.199 31.5541 13.3383C31.3793 21.9535 30.4668 30.5367 30.1172 39.1461C30.1172 39.2447 30.8431 39.1461 30.8519 38.9546C31.2015 30.3423 32.1111 21.762 32.2888 13.1439L31.8504 13.3702C33.4514 13.136 35.0702 13.0389 36.6884 13.0801C37.3935 13.1013 38.0967 13.1487 38.7979 13.2222C39.0941 13.2513 39.9355 13.2455 40.1903 13.3992C40.5932 13.643 40.531 14.0463 40.5606 14.4178C40.6762 15.7699 40.4629 17.2353 40.4125 18.5875C40.3621 19.9397 40.3147 21.3586 40.2644 22.7427C40.0669 28.2889 39.8694 33.833 39.6718 39.3753C39.6718 39.474 40.3977 39.3753 40.4066 39.1809Z" fill="#2C2C2C"/>
    <path d="M4.97699 15.7014C16.9907 14.474 30.0828 10.9774 37.0154 0.429718C37.1725 0.188876 36.6303 0.293342 36.5414 0.32526C34.7695 0.971101 32.8797 1.24878 30.9923 1.14064C30.8116 1.14064 30.1331 1.44532 30.5272 1.48304C32.5443 1.67873 34.5733 1.24942 36.3281 0.255622L35.7356 0.275928C35.8438 2.17784 35.6336 4.08429 35.1134 5.91975C35.0571 6.12287 35.783 6.02421 35.8422 5.81239C36.369 3.94938 36.5801 2.01437 36.4673 0.084414C36.4673 -0.0983934 35.9489 0.0670059 35.8748 0.104728C34.3961 0.95053 32.6808 1.31335 30.9775 1.14064L30.5124 1.48304C32.6509 1.60213 34.7915 1.28597 36.7992 0.554498L36.3251 0.450032C29.5376 10.7801 16.8544 14.1664 5.08069 15.3706C4.75183 15.4025 4.44963 15.7536 4.96217 15.7014H4.97699Z" fill="#2C2C2C"/>
  </g>
  <defs>
    <clipPath id="clip0_1762_1828">
      <rect width="47" height="40" fill="white"/>
    </clipPath>
  </defs>
</svg>