<svg xmlns="http://www.w3.org/2000/svg" width="163" height="46" viewBox="0 0 163 46" fill="none">
  <g clip-path="url(#clip0_1762_2709)">
    <path d="M83.4484 44.5006C83.4294 44.4443 83.4125 44.388 83.3935 44.3339C84.4609 43.0225 84.9208 45.0373 83.4484 44.5006ZM84.5305 43.6674L84.4778 43.3341C85.4671 43.438 86.7054 41.5661 87.564 40.9536C88.8107 39.8997 90.6101 38.848 91.842 37.675C92.7976 39.1899 92.3673 37.4586 93.1415 36.8981C94.3882 36.6817 95.2088 35.0781 96.2825 35.7858C96.196 35.0067 97.3372 34.4873 97.1495 35.5694L97.3604 35.5694L97.3604 35.1235L97.5714 35.1235C96.9744 34.0069 98.0165 34.4137 98.546 34.6799C98.4595 33.9658 99.9846 33.6498 99.9551 32.7907L100.82 33.1239C101.145 32.7365 101.628 32.0202 102.229 32.2345C102.247 32.1177 102.224 31.9983 102.165 31.897C102.105 31.7958 102.013 31.7191 101.904 31.6805C103.083 31.648 103.136 30.3625 104.071 30.2349C104.096 30.5833 103.48 31.1806 104.178 31.2347C104.299 30.8018 104.434 30.0206 105.045 30.1245C105.019 30.2068 105.013 30.2947 105.029 30.3799C105.044 30.4651 105.081 30.5448 105.135 30.6115C105.189 30.6781 105.259 30.7296 105.338 30.761C105.416 30.7924 105.502 30.8028 105.585 30.791C105.452 30.2673 106.429 29.6722 106.885 29.235C106.959 29.4212 107.03 29.6051 107.096 29.7912C106.674 29.6506 106.326 30.4166 106.716 30.6244C107.039 30.3322 107.642 29.2459 107.638 28.7914L108.83 29.1247L108.395 28.681C109.095 28.4906 109.572 27.7375 110.129 27.6791C109.796 28.3867 110.716 28.3543 110.551 27.6791C111.418 28.0491 111.334 26.9627 112.068 26.7918L111.743 26.1252C112.886 26.1664 116.827 24.5541 114.774 23.1236C115.11 23.1907 115.363 22.9786 115.534 22.6908C114.388 22.9072 114.285 21.3794 113.15 21.8014C113.321 20.8946 112.049 21.4746 111.958 20.9141L112.393 20.9141L112.068 20.2476L112.61 20.464L112.61 19.7974L113.367 19.91C113.26 20.3168 113.156 20.7237 113.042 21.1305C113.277 21.1954 113.321 20.899 113.367 20.6977C113.5 21.0548 113.958 21.0959 114.342 21.1305L114.234 20.6977L114.559 20.6977C114.511 21.0959 114.316 21.7797 114.884 21.6412C115.306 21.6412 115.365 22.9895 115.859 22.0308C116.069 22.2602 116.365 22.2061 116.616 22.0308C116.842 22.5956 115.941 22.693 116.194 23.1409C116.711 22.8293 117.487 22.1411 117.601 21.5871L115.869 21.8036C116.204 21.3707 116.095 20.8968 115.658 20.583L116.2 20.6934C116.289 19.7174 114.724 20.6133 114.466 19.8039C113.622 19.1222 112.405 18.8495 111.65 18.1376L111.65 18.9145L111.439 18.9145C111.488 18.4124 111.424 17.8801 110.897 17.8043C110.928 17.9369 110.913 18.0765 110.853 18.1985C110.794 18.3205 110.694 18.4169 110.572 18.4708L110.994 18.8041C110.302 19.0552 110.526 17.8541 109.912 18.0272C109.898 17.9754 109.896 17.9211 109.906 17.8684C109.915 17.8156 109.937 17.7659 109.968 17.7229C109.999 17.6799 110.04 17.6448 110.086 17.6203C110.133 17.5957 110.184 17.5825 110.237 17.5814C110.095 17.3498 109.83 17.3845 109.587 17.471L109.695 17.9038C109.63 17.9231 109.563 17.9265 109.497 17.9135C109.431 17.9006 109.369 17.8718 109.316 17.8295C109.264 17.7872 109.221 17.7327 109.193 17.6703C109.165 17.608 109.152 17.5397 109.155 17.471C108.311 17.7004 109.395 18.0467 109.804 18.2479C109.418 18.354 109.287 18.7348 109.262 19.1374C108.92 19.04 108.629 18.8409 108.612 18.4708C107.935 18.4297 107.642 19.2413 107.096 19.027L107.096 19.3603C105.876 18.3042 107.927 18.2587 108.395 18.0272C108.467 18.1376 108.541 18.2436 108.606 18.3605L108.606 17.9147C107.712 17.9147 107.153 17.642 106.222 18.0272C106.292 17.5381 106.611 17.2611 107.089 17.3607L107.089 16.6941C106.421 16.5513 106.104 17.1594 105.465 16.9105L105.465 17.5533L106.115 17.4429C106.126 17.4938 106.127 17.5467 106.116 17.5978C106.105 17.6489 106.084 17.6969 106.052 17.7383C106.021 17.7797 105.982 17.8136 105.936 17.8373C105.891 17.8611 105.841 17.8742 105.79 17.8757L106.222 18.0921C106.292 18.724 104.18 18.3518 104.383 17.8757C104.524 18.1073 104.79 18.0748 105.033 17.9882L104.822 17.655C105.391 17.5359 105.125 16.7439 105.033 16.2094L104.598 16.3219L104.809 16.8759C104.176 16.8478 104.265 16.27 104.387 15.7657L105.144 16.099C105.144 15.7398 105.206 15.2334 104.82 15.2096C105.241 15.3178 105.874 15.3524 105.902 15.7657L105.48 15.8761L105.587 16.3219C107.977 15.5493 105.699 14.7421 104.938 13.8765L105.587 14.2097C105.853 13.303 106.988 14.16 107.212 14.7659C107.703 14.4305 108.429 14.292 108.621 14.9823L107.864 14.9823C107.726 15.3762 109.619 15.6316 109.488 16.0947L109.053 16.0947C109.106 16.2197 109.2 16.3216 109.319 16.3825C109.438 16.4434 109.574 16.4595 109.703 16.4279L109.703 16.0947L110.462 16.3111C110.707 15.8112 110.093 15.7051 110.028 15.1987C111.281 14.8719 110.811 17.5792 111.869 16.7547C111.842 17.0772 111.519 17.1616 111.22 17.1875C111.895 17.6052 114.295 18.5726 115.017 17.7437C115.308 18.1614 115.65 18.934 114.909 18.8539C115.146 19.4512 117.131 18.2046 117.183 19.2997C117.508 19.0963 117.846 19.1092 117.941 19.5161C117.89 19.5172 117.839 19.5301 117.794 19.5537C117.748 19.5774 117.708 19.6112 117.677 19.6527C117.646 19.6942 117.624 19.7424 117.614 19.7937C117.603 19.8449 117.604 19.898 117.616 19.9489C119.019 18.8669 118.831 21.1868 119.89 20.5051C119.578 20.477 119.495 20.1437 119.468 19.8386C120.59 19.5745 120.206 20.3969 120.93 20.7258C121.369 20.8319 121.444 20.9011 121.417 21.1716L120.877 21.1716C121.495 22.1346 118.814 24.552 118.168 24.7272L118.276 25.2812C117.54 24.632 116.044 25.8158 116.327 26.6143C115.112 26.4455 115.167 27.5146 113.945 27.6704C112.996 28.3434 111.458 27.7613 110.804 28.5036C111.81 29.4731 110.064 28.9104 109.612 28.72L109.612 29.2762L109.07 29.0598C109.072 29.2066 109.13 29.3467 109.231 29.4506C109.333 29.5544 109.469 29.6137 109.612 29.6159C109.517 29.9059 109.387 30.2652 109.07 30.1699L109.07 29.7371C108.811 30.2825 108.226 30.3041 107.663 30.1699C107.608 30.5638 107.623 31.146 107.229 31.1698L107.229 30.8365C106.653 30.9079 106.108 30.8927 106.254 31.6155C106.043 31.3753 105.781 31.4727 105.604 31.7259C105.497 31.5788 105.393 31.4294 105.279 31.2931C105.187 32.0657 106.334 32.3752 104.858 32.4596C103.984 32.676 103.539 33.1088 103.016 33.626L102.259 33.1932C101.898 33.5676 101.223 34.5566 100.634 34.193L100.742 34.6258L100.092 34.5154C100.164 34.773 100.236 35.0327 100.303 35.2923L99.5438 34.8487C99.5086 34.985 99.4455 35.112 99.3588 35.2214C99.2721 35.3308 99.1637 35.4199 99.0407 35.483C98.9178 35.546 98.7832 35.5815 98.6459 35.5871C98.5086 35.5927 98.3717 35.5682 98.2443 35.5153C98.4785 35.8896 97.9954 36.738 97.5946 36.2922C98.4131 34.3098 96.8774 36.528 96.7297 37.2379C95.9386 37.1491 94.7616 39.0925 94.886 37.5149C94.6371 37.9196 93.9895 37.8482 93.479 37.8482C94.0506 38.519 93.2005 38.8804 93.1541 39.4041C91.7618 39.7244 89.8633 40.8692 88.8212 41.6267L88.1715 41.2934C87.9901 41.8625 87.6652 42.4512 87.0893 42.0703C86.7265 43.1329 85.2963 43.1004 84.598 43.9596C84.5664 43.8881 84.5495 43.7778 84.5305 43.6674ZM85.0178 42.4447L85.0178 42.3343L85.3427 42.3343C85.1444 41.9989 85.1592 41.6526 85.5537 41.5552C85.7182 42.066 85.5536 42.4966 85.0115 42.5551L85.0178 42.4447ZM85.9397 41.5552L85.9924 41.4449L85.8848 41.6613C85.9038 41.6288 85.9207 41.592 85.9397 41.5552ZM90.3253 40.3325L90.5363 40.3325C90.5004 40.2589 90.4645 40.1854 90.4266 40.1161L90.3253 40.3325ZM91.7344 38.4454L91.842 38.229L91.6311 38.229L91.7344 38.4454ZM94.6603 37.5625L94.6603 37.3461L94.3354 37.3461L94.6603 37.5625ZM94.2257 37.0063L94.4367 37.0063L94.3291 36.7899C94.2975 36.8527 94.2616 36.9262 94.2236 36.9998L94.2257 37.0063ZM107.982 30.118L108.193 29.9016L107.868 29.9016L107.982 30.118ZM110.091 29.6852L110.036 29.5727L110.361 29.5727L110.15 29.7891L110.091 29.6852ZM109.387 28.7957L109.496 28.5793L109.285 28.5793L109.387 28.7957ZM108.737 27.85C108.838 27.5535 109.049 27.5622 109.279 27.573C109.279 27.9453 108.977 28.1076 108.629 28.1292L108.737 27.85ZM111.985 27.3501C112.154 27.1921 112.372 26.9909 112.196 26.7961C112.123 26.9627 112.059 27.1488 111.985 27.3328L111.985 27.3501ZM114.207 22.8488L114.152 22.6822L114.363 22.6822L114.255 23.0154L114.207 22.8488ZM113.395 22.4593L113.287 22.2429L113.709 22.2429L113.709 22.6865C113.57 22.68 113.494 22.6562 113.388 22.4441L113.395 22.4593ZM112.15 21.849C112.131 21.7559 112.112 21.6629 112.095 21.572L112.637 22.0048L112.203 22.1152C112.186 22.0199 112.167 21.9269 112.15 21.8339L112.15 21.849ZM115.399 21.2387L115.451 21.0223C116.105 21.1067 115.873 21.4551 115.344 21.4551C115.363 21.3707 115.38 21.2971 115.399 21.2322L115.399 21.2387ZM110.741 20.6825C110.401 20.0939 108.52 20.2757 108.631 19.1266C109.07 19.7758 109.737 19.4577 110.363 19.4598L110.363 19.6763L111.013 19.343C111.205 19.5594 110.876 19.8126 110.688 20.0095C111.72 20.1264 111.722 20.6198 110.798 21.0093C110.777 20.8903 110.76 20.7778 110.741 20.6674L110.741 20.6825ZM113.827 20.5159L113.827 20.3493L114.152 20.3493L113.827 20.6825L113.827 20.5159ZM108.087 19.6827L107.98 19.3495C108.351 19.3495 108.467 19.6611 108.412 20.016C108.233 20.0182 108.188 19.9641 108.087 19.6676L108.087 19.6827ZM107.6 19.3495C107.583 19.3127 107.564 19.2759 107.545 19.2369L107.756 19.1266L107.866 19.343L107.655 19.4533L107.6 19.3495ZM103.864 17.7935L103.972 17.6831L103.761 17.8995L103.864 17.7935ZM113.502 17.5771C113.371 17.3369 113.557 17.2373 113.713 17.1442C113.766 17.2693 113.86 17.3712 113.979 17.4321C114.098 17.4931 114.234 17.5091 114.363 17.4775L114.363 17.7697C114.07 17.7697 113.622 17.8281 113.502 17.5533L113.502 17.5771ZM107.655 17.6896C107.693 17.0036 108.722 17.6571 108.847 17.2438C108.534 17.0966 107.91 16.9928 107.98 16.6898C107.482 16.6595 107.585 17.2438 107.655 17.668L107.655 17.6896ZM112.69 17.3563L112.637 17.2438L112.848 17.1334L112.958 17.3499L112.747 17.4602L112.69 17.3563ZM109.171 17.2438L109.496 17.2438C109.422 17.0598 109.351 16.8737 109.285 16.6898L109.171 17.2438ZM102.672 16.811L102.672 16.7006C102.081 17.0339 102.016 16.1206 101.48 16.2548C102.151 15.0407 101.195 14.7832 100.291 15.4779L101.265 15.9107C100.736 17.0772 99.9066 15.1316 98.8814 15.5774C98.972 15.4733 99.0306 15.3439 99.0498 15.2057C99.0689 15.0675 99.0477 14.9265 98.989 14.8005L99.5311 14.688L99.4235 14.3547C98.816 14.3309 98.8054 15.084 98.4489 15.2442C97.9617 14.8546 96.658 14.517 96.2276 14.0236C95.4535 13.2727 93.2237 13.3441 94.5401 11.8011C93.1562 12.1842 93.2744 12.5694 93.5655 10.7991C93.0951 11.0567 92.8862 10.5438 92.4833 10.5827L92.4833 11.0155L92.9052 10.9052C93.1162 12.485 91.2978 11.9742 91.823 10.6888C91.4391 11.1216 89.6819 10.771 89.9815 10.0222L89.6566 10.0222L89.6566 10.3555C88.7411 10.2343 87.7813 9.11114 86.9501 8.79951L87.0577 8.46623C86.9709 8.47231 86.8837 8.45922 86.8022 8.42787C86.7207 8.39652 86.6467 8.34765 86.5851 8.2845C86.5236 8.22136 86.4759 8.14541 86.4454 8.06178C86.4148 7.97816 86.4021 7.88879 86.408 7.79969L86.6189 7.79969C86.4565 6.65273 85.5642 7.73259 85.1022 7.91221C84.2584 8.03556 84.2289 6.92971 83.4779 6.91023C82.8915 6.94269 82.7944 6.72413 82.8282 6.2437L83.0391 6.2437L82.9316 5.35642C80.9381 7.73693 82.7016 1.44156 84.2859 3.46715C85.0727 2.86337 82.7248 2.76815 84.231 1.68827C84.617 2.12109 84.0622 3.40442 85.098 2.80064C85.0157 3.21615 84.9609 3.68357 85.3089 3.9108L85.098 3.80043C84.9524 4.18564 85.9207 4.68338 85.2056 5.13351C85.6275 5.28284 86.1949 5.44081 86.0726 5.91042C86.1232 5.65289 86.3995 5.73296 86.6147 5.80005C86.4038 5.22007 86.6843 4.93442 87.2644 5.02314L87.2644 4.68989C86.6443 4.99719 85.9334 4.00388 86.0726 5.12271C86.0842 5.0718 86.0846 5.01889 86.0738 4.9678C86.063 4.91671 86.0413 4.86868 86.0102 4.82726C85.9791 4.78584 85.9394 4.75201 85.894 4.72825C85.8486 4.70449 85.7987 4.69141 85.7477 4.68989L86.0726 4.13371L85.638 3.91729C85.6663 3.87324 85.7029 3.83542 85.7455 3.80597C85.7882 3.77653 85.8361 3.75607 85.8866 3.7458C85.937 3.73553 85.989 3.73562 86.0394 3.74611C86.0898 3.75661 86.1376 3.77729 86.1802 3.80692L86.2878 3.14037C86.7961 3.21178 86.8847 3.45851 86.7223 4.02983C86.6379 4.74399 87.9331 4.78293 87.5893 5.69618C90.4118 4.1034 90.1376 7.46641 89.3212 6.02945L88.5639 6.24587L88.5639 5.80221C88.5238 6.39301 87.6146 6.08573 87.4796 6.46877C87.372 6.32161 87.2687 6.17228 87.1547 6.02512C86.5219 6.63973 88.2095 7.10718 88.4542 6.46877C88.6124 6.95786 89.7199 6.76307 90.2958 6.80203C90.1629 7.15694 90.2472 7.48374 90.6206 7.58112C90.4772 6.94704 90.5405 6.28266 91.2704 6.3584L91.2704 6.79122L91.7049 6.79122L91.7049 7.1245L91.1628 7.1245L91.1628 7.68066L92.2449 7.57029L92.2449 8.12431L92.5698 8.12431L92.3589 7.57029C93.4537 7.53134 94.4683 7.91656 93.9832 9.12412C94.7447 9.16091 97.7802 8.67831 96.4744 9.68029C97.1685 9.57208 97.5988 10.1629 98.0988 10.0136C98.0629 10.31 98.027 10.6065 97.9891 10.903C98.4384 10.8424 98.8793 10.9441 98.8561 11.4592C99.2611 10.5286 98.2 10.1607 100.265 10.0136C100.428 10.4464 99.4109 10.6909 99.7231 11.1259L100.048 11.0134C99.7125 11.2298 99.6999 11.7016 99.7231 12.1257C99.8222 11.5501 101.037 11.2276 101.13 11.7924C102.153 10.7623 101.406 13.1537 100.805 11.9028C100.761 12.1192 100.715 12.4114 100.48 12.3464C100.337 12.7381 102.252 12.9502 101.13 13.3463C99.1957 15.7809 100.432 11.1822 98.7485 12.2361C99.3813 11.1692 96.9807 11.8985 96.4744 11.3466C96.4635 11.4666 96.4766 11.5876 96.5129 11.7022C96.5492 11.8168 96.6079 11.9227 96.6854 12.0132C97.4111 11.3142 97.0841 12.5347 97.5524 12.6797C99.2041 12.3573 99.4762 13.3636 99.7188 14.7919C100.985 14.0539 105.334 12.6992 101.56 14.7919C102.1 14.8568 102.208 15.69 102.86 15.2247C103.282 16.1574 101.879 15.255 101.776 16.1141L102.86 15.8977C103.008 18.1332 103.267 15.4822 104.052 16.231C103.617 16.5773 103.132 16.9928 102.643 16.8975L102.672 16.811ZM106.57 16.5946C106.608 16.4474 106.644 16.2981 106.68 16.1509C106.638 16.2548 106.608 16.4085 106.57 16.5556L106.57 16.5946ZM108.142 16.2613L108.304 16.1509C107.547 15.8631 107.553 15.0689 106.68 15.0386C106.874 15.5839 107.537 16.4085 108.142 16.2223L108.142 16.2613ZM103.214 15.4281L103.214 14.9282L104.081 15.2615C103.959 15.3157 103.86 15.4123 103.801 15.5341C103.741 15.656 103.726 15.7955 103.756 15.928L103.214 15.928L103.214 15.4281ZM108.847 15.3178L108.847 15.1511L109.058 15.1511L109.058 15.4844L108.847 15.4844L108.847 15.3178ZM104.189 14.9845C104.178 14.794 104.368 14.7529 104.514 14.7053L104.621 15.1511L104.199 15.1511L104.189 14.9845ZM109.496 14.9282L109.496 14.8178L109.821 14.8178L109.496 15.0343L109.496 14.9282ZM104.296 14.4846L104.406 14.3721L104.195 14.5885L104.296 14.4846ZM96.8246 14.1513L97.2465 13.818L96.7044 13.7055C96.7508 13.8159 96.7888 13.963 96.8246 14.1123L96.8246 14.1513ZM103.702 13.9349C103.507 13.818 103.539 13.5021 103.539 13.2683C103.347 13.5951 102.752 13.3419 102.347 13.2683C102.516 13.1488 102.641 12.9737 102.7 12.7718C102.759 12.57 102.749 12.3535 102.672 12.1582C103.189 12.6148 103.997 13.7899 104.514 13.4913C104.427 13.8743 104.083 14.1794 103.702 13.8894L103.702 13.9349ZM107.005 13.7683C106.775 13.606 106.824 13.4545 106.895 13.2683C107.562 13.2251 107.807 14.1492 107.005 13.7228L107.005 13.7683ZM98.1768 13.712L98.3392 13.712C98.4068 13.4415 97.9448 13.3051 97.6895 13.158C97.6865 13.2244 97.6971 13.2908 97.7205 13.3529C97.7439 13.4149 97.7797 13.4713 97.8256 13.5183C97.8714 13.5654 97.9263 13.6021 97.9868 13.6261C98.0473 13.6501 98.112 13.661 98.1768 13.6579L98.1768 13.712ZM105.001 13.5454C104.933 13.3701 105.047 13.3289 105.163 13.2683L105.056 13.7012L105.001 13.5454ZM100.571 13.4913L100.734 13.4913C100.647 13.1169 100.485 12.7187 100.084 12.8247C100.196 13.0087 100.35 13.4415 100.561 13.4415L100.571 13.4913ZM95.6982 13.3787L95.9682 13.3787C95.8972 13.3631 95.8351 13.3193 95.7955 13.2568C95.756 13.1943 95.7422 13.1183 95.7572 13.0455L96.0821 13.0455C95.9829 12.8291 95.8711 12.5412 95.6497 12.6126L95.6497 13.0455L95.2278 13.0455C95.31 13.1905 95.4113 13.3463 95.6876 13.3333L95.6982 13.3787ZM96.293 12.9459L96.6179 12.3897C96.3205 12.3594 96.2445 12.6148 96.2825 12.8896L96.293 12.9459ZM102.033 12.8896L102.141 12.8355L101.93 12.9459L102.033 12.8896ZM104.142 12.723C103.831 12.6498 103.547 12.4845 103.326 12.2476C103.104 12.0107 102.956 11.7126 102.898 11.3899C103.337 11.7232 104.029 12.472 104.415 12.3897L104.415 12.8355C104.299 12.7814 104.187 12.7923 104.134 12.6667L104.142 12.723ZM101.706 12.5564L101.706 12.3897L102.031 12.3897L102.031 12.1733L102.463 12.2837C102.295 12.5823 102.041 12.7944 101.706 12.7273L101.706 12.5564ZM93.4199 12.5023L93.3672 12.3897L93.692 12.3897L93.4811 12.6061L93.4199 12.5023ZM95.1075 12.6126C95.194 12.4265 95.2214 12.2188 94.9999 12.169L95.1075 12.6126ZM95.6497 11.9461L96.0821 11.6128L95.6497 11.6128L95.6497 11.9461ZM95.1117 11.5566C95.9429 11.3531 94.9493 11.1865 94.5696 11.1692C94.654 11.351 94.7489 11.576 95.0906 11.4938L95.1117 11.5566ZM102.531 11.5025C102.514 11.4635 102.495 11.4267 102.476 11.3899L102.801 11.3899L102.59 11.6063L102.531 11.5025ZM91.321 11.2233L91.4307 11.1692L91.2197 11.2796L91.321 11.2233ZM96.9533 10.9463C97.1642 10.6996 97.4448 10.771 97.7106 10.8337L97.7106 10.2797C96.8352 9.94863 95.5632 11.1107 96.9343 10.89L96.9533 10.9463ZM95.5463 11.0566L95.8711 10.9463L95.5463 10.8337L95.5463 11.0566ZM95.7087 10.3403C95.9196 10.2624 95.8627 9.78198 95.8711 9.50715L95.2214 9.95296C95.3269 10.059 95.4893 10.3533 95.6876 10.2776L95.7087 10.3403ZM93.3883 10.0071C93.6203 9.95945 93.6119 9.79064 93.5992 9.61968L93.1773 9.61968C93.2954 9.08299 93.4874 8.39482 92.9664 8.17408C91.4686 9.4509 92.1817 8.79083 93.3588 9.9443L93.3883 10.0071ZM93.9283 10.0633L94.3629 9.84692L93.9283 9.84692L93.9283 10.0633ZM89.4351 9.84692C89.8422 9.86856 89.876 9.58289 89.9224 9.2929L88.9183 9.2929C88.9626 9.51364 88.9984 9.7993 89.4056 9.77766L89.4351 9.84692ZM98.8561 9.56991C98.7 9.25828 97.1115 9.86639 97.1685 9.2929C97.6537 9.23447 99.9108 8.75404 99.0079 9.72572L98.8561 9.56991ZM88.3508 9.13709L88.7305 9.08082C88.6546 7.56163 86.6105 9.09597 88.3213 9.05702L88.3508 9.13709ZM90.8421 9.08082L91.0046 9.08082C91.0868 8.75621 90.7472 8.62421 90.4624 8.52466C90.2472 8.73675 90.5173 9.01374 90.8168 9.00075L90.8421 9.08082ZM91.2218 8.74757L91.5467 8.74757C91.5973 8.53116 91.4033 8.45974 91.2218 8.41429L91.2218 8.74757ZM94.6329 8.47056C94.5949 7.83432 95.2024 8.21737 95.2299 8.6372L94.6877 8.74757C94.6392 8.57445 94.6139 8.48138 94.6139 8.39049L94.6329 8.47056ZM85.8595 8.25415C85.7688 7.5703 86.2181 8.09834 86.3468 8.42079L85.9144 8.53116C85.868 8.35371 85.849 8.26064 85.83 8.16758L85.8595 8.25415ZM96.6369 8.42079L96.7445 8.31042L96.5335 8.52683L96.6369 8.42079ZM90.1376 8.08751C90.2114 7.94035 90.2831 7.79103 90.3485 7.65469L90.0236 7.65469L90.1376 8.08751ZM95.4999 7.97714L95.445 7.8646L95.9872 7.6482L95.5653 8.08102C95.5062 7.96415 95.4872 7.92736 95.4704 7.89057L95.4999 7.97714ZM88.2981 7.8646L88.509 7.64819L88.1842 7.64819L88.2981 7.8646ZM89.0554 7.8646L89.2663 7.64819L88.9183 7.64819L89.0554 7.8646ZM87.8741 7.42098C88.0956 7.37121 88.0703 7.16129 87.9838 6.98816C87.9057 7.03793 87.8635 7.18509 87.834 7.33441L87.8741 7.42098ZM84.4082 6.98816C84.6951 6.96003 84.7731 6.70681 84.7331 6.43197L84.4082 6.54234C84.2479 6.17012 83.6066 6.10954 83.2184 5.98618C83.2881 6.54452 84.2627 6.36488 84.3681 6.89076L84.4082 6.98816ZM92.2133 6.70899C92.1247 6.40385 91.3822 6.34326 91.456 5.87581C92.1099 5.58799 92.5466 6.24154 92.4306 6.87562L92.2196 6.87562L92.2133 6.70899ZM85.8848 6.54234C86.1823 6.55749 86.2181 6.32592 86.2646 6.09869C85.7667 6.50987 85.6064 5.84117 85.1824 5.88228C85.3047 6.05325 85.5178 6.46012 85.83 6.44497L85.8848 6.54234ZM90.4877 5.98618C90.4877 5.84119 90.7704 5.80873 90.9223 5.76977C90.9213 5.82344 90.9083 5.87614 90.8844 5.92389C90.8605 5.97165 90.8263 6.01319 90.7844 6.04533C90.7425 6.07747 90.694 6.09937 90.6426 6.10937C90.5912 6.11937 90.5382 6.1172 90.4877 6.10303L90.4877 5.98618ZM84.4229 5.09888C84.4588 5.02314 84.4968 4.94956 84.5326 4.88247C84.4419 4.85218 84.404 4.92577 84.3681 5.00151L84.4229 5.09888ZM84.0011 2.87635C84.0728 2.80277 84.1445 2.72703 84.212 2.65994C84.0791 2.62099 84.0074 2.7054 83.9357 2.77898L84.0011 2.87635Z" fill="#F8F963"/>
    <path d="M123.034 44.9425L122.927 44.553L123.138 44.553C123.138 44.8127 123.096 45.1654 123.349 45.2195L123.138 45.332C123.108 45.2022 123.07 45.0723 123.034 44.9425ZM124.551 44.3322L124.551 43.9989C124.049 44.0357 123.813 44.7304 123.252 44.4318C123.209 43.7544 124.095 43.8778 124.661 43.8756C124.587 43.6592 124.515 43.4428 124.45 43.2091C124.661 43.1636 124.946 43.116 124.872 42.8758L124.33 42.8758L124.33 42.5425L123.897 42.5425C123.988 42.2482 124.133 41.8933 124.439 42.1097C124.152 41.045 125.192 41.5514 124.65 42.3261L125.3 42.3261C124.924 41.2051 126.435 42.0015 126.815 41.4367C126.439 42.4278 127.869 42.2352 127.682 41.3263C128.717 41.5578 127.593 40.162 127.892 39.6578C128.736 40.1945 129.137 39.8028 128.757 38.8809C130.588 39.0973 128.987 38.9609 129.084 39.8807C129.506 39.7292 129.873 39.8547 129.949 40.3135C129.356 40.491 128.711 40.2616 128.108 39.9802C128.753 40.9238 127.517 42.3607 128.542 42.7589C128.411 43.7869 127.808 42.2482 127.025 42.5425L127.133 42.9883C126.391 42.7135 126.059 44.9793 125.294 43.8756C125.414 44.3733 124.981 44.5768 124.534 44.6547L124.551 44.3322ZM122.547 43.8323L122.169 43.7761C122.427 43.4298 122.745 42.9991 123.144 43.2199C123.188 43.0035 123.235 42.7113 123.469 42.7871C123.433 42.9342 123.397 43.0835 123.359 43.2199L124.009 43.2199L124.009 43.6657L123.252 43.4493C123.304 43.8908 122.977 43.8994 122.547 43.8323ZM127.909 43.3324L128.12 43.2199L128.12 43.4363L127.698 43.4363L127.909 43.3324ZM125.526 42.8866C125.713 42.575 126.308 42.746 126.718 42.7762L126.718 41.8868C126.106 42.0231 125.203 42.1724 125.526 42.8866ZM129.426 42.6096C129.504 42.2222 128.517 42.2244 128.559 41.8868C128.829 41.5037 129.791 40.2291 129.859 41.454L130.069 41.2376L130.28 41.454C129.972 41.4972 129.536 41.534 129.631 41.8868C130.086 41.6704 130.55 41.7007 130.715 42.2201C130.463 42.2236 130.216 42.2854 129.991 42.4008C129.766 42.5162 129.569 42.6823 129.416 42.8866L129.426 42.6096ZM122.657 42.6096C122.674 42.5533 122.693 42.4992 122.709 42.443C122.745 42.5165 122.783 42.5901 122.819 42.6594L122.608 42.7698L122.657 42.6096ZM130.941 42.1097C130.81 41.9863 130.896 41.7353 130.941 41.5535L131.375 41.9993C131.242 42.0859 131.067 42.2482 130.941 42.1097ZM123.359 41.9431L123.359 41.7764L123.684 41.7764C123.587 41.4605 123.576 41.1272 123.895 40.9973C123.967 41.2938 124.041 41.5903 124.106 41.8868L123.781 41.7764L123.781 42.1097L123.347 42.1097L123.359 41.9431ZM122.937 41.2203L122.83 40.7874L122.07 41.0038C122.106 40.7874 122.144 40.571 122.18 40.3373C122.665 40.4477 123.513 40.4498 123.37 41.0038L123.159 41.0038C123.338 41.2635 123.37 41.5514 123.049 41.6725L122.937 41.2203ZM131.818 41.2203C131.91 40.8487 131.872 40.4557 131.711 40.1101L132.133 40.2204L132.133 39.7876C131.806 39.924 131.396 40.0646 131.266 39.6751C131.97 39.489 133.09 39.4976 133.542 39.8915C132.896 40.1469 132.031 40.5602 132.35 41.3371C132.221 41.3051 132.085 41.3209 131.966 41.3819C131.847 41.4429 131.753 41.5451 131.7 41.6704L131.818 41.2203ZM122.342 41.4367L122.288 41.3263L122.499 41.3263L122.389 41.5427L122.342 41.4367ZM131.006 41.27L130.951 41.1034C131.183 41.1553 131.563 41.1705 131.493 41.4367C131.304 41.4432 131.05 41.4756 130.996 41.2765L131.006 41.27ZM132.848 41.1597C132.829 41.1034 132.812 41.0471 132.793 40.9909L133.443 40.8805C133.43 41.1553 132.985 41.4778 132.837 41.1662L132.848 41.1597ZM124.779 40.6035L124.671 40.3243L125.211 40.6576L124.886 40.874L124.779 40.6035ZM125.808 40.5472C125.77 40.162 125.405 39.8417 125.536 39.3245L125.971 39.5409C125.897 39.6513 125.825 39.7573 125.76 39.8742C126.089 40.2118 126.513 40.0387 126.41 39.5409L127.277 39.5409C127.466 40.1901 126.331 40.4801 125.76 40.7636C125.76 40.7074 125.779 40.6273 125.798 40.5537L125.808 40.5472ZM130.139 40.5472C130.065 40.294 130.333 40.1339 130.519 39.991L130.626 40.7701C130.42 40.7788 130.177 40.8091 130.129 40.5537L130.139 40.5472ZM133.725 40.4369L133.67 40.2204L134.213 40.2204L134.213 40.6533C133.993 40.6684 133.751 40.6965 133.704 40.4434L133.725 40.4369ZM135.35 40.0473C135.295 39.7075 135.267 39.6383 135.077 39.6578L135.077 40.3243L134.656 40.3243C134.71 40.0625 134.702 39.5842 134.98 39.6578C134.934 38.487 134.404 39.3505 133.843 39.3267C133.063 38.8679 134.4 37.6668 134.98 37.7707L134.98 38.5433C135.138 38.4553 135.27 38.3272 135.365 38.1714C135.46 38.0157 135.514 37.8374 135.523 37.6538L136.172 37.8702C135.767 38.7618 134.322 39.4673 136.28 39.5366C136.257 39.924 135.835 39.8266 135.523 39.753C135.571 40.004 135.689 40.3611 135.413 40.4195L135.35 40.0473ZM134.375 40.1036C134.392 40.0668 134.411 40.03 134.428 39.991L134.32 40.2074C134.316 40.1836 134.335 40.1469 134.354 40.1101L134.375 40.1036ZM133.725 39.7703C133.742 39.7335 133.761 39.6967 133.778 39.6578L133.67 39.8742L133.725 39.7703ZM124.627 39.6578L124.572 39.5474L125.114 39.5474L124.692 39.7638C124.642 39.74 124.623 39.7032 124.606 39.6643L124.627 39.6578ZM126.901 38.9912C126.831 38.8506 127.055 38.7424 127.171 38.658C127.333 38.8484 127.139 38.9999 126.96 39.1038C126.916 39.0735 126.89 39.0345 126.89 38.9977L126.901 38.9912ZM131.666 38.9912C131.597 38.8506 131.82 38.7424 131.936 38.658L131.725 39.1038C131.681 39.0735 131.664 39.0345 131.645 38.9977L131.666 38.9912ZM137.299 38.9371C137.214 38.6601 136.615 39.0107 136.594 38.658C136.978 38.3572 137.837 38.6342 137.354 39.1038C137.313 39.054 137.294 38.9977 137.278 38.9436L137.299 38.9371ZM129.717 38.7207C128.947 37.8551 130.441 38.1407 130.422 38.777C130.308 39.0367 129.92 38.9912 129.696 38.7207L129.717 38.7207ZM132.316 38.777L132.154 38.5606C132.51 38.6168 133.126 38.5887 133.021 38.9934C132.74 39.0042 132.457 39.0237 132.295 38.777L132.316 38.777ZM134.103 38.8874L134.213 38.8874L134.213 38.5433L133.888 38.6536C133.913 38.7597 133.961 38.8938 134.082 38.8874L134.103 38.8874ZM127.658 38.4978C127.641 38.4069 127.622 38.3139 127.606 38.2208C127.764 38.5 128.097 38.3442 128.363 38.2208L128.47 38.777C128.156 38.7727 127.694 38.8398 127.637 38.4978L127.658 38.4978ZM138.868 38.1646L138.761 37.7772L139.182 37.7772L139.182 37.5608C139.571 37.959 140.237 37.3314 140.157 36.8942L139.617 36.8942C139.9 36.6583 140.109 36.351 139.942 36.0048C141.045 36.0048 142.733 36.8877 143.19 35.572C142.429 35.8879 141.636 36.2212 140.916 35.6823C141.372 35.6997 141.729 35.2495 141.127 35.1262C141.229 34.8621 141.292 34.3882 141.562 34.4596L141.454 35.1262C141.8 35.1024 142.068 34.5116 142.537 34.7929C142.484 34.3904 143.108 34.4466 143.186 34.7929C143.53 34.3601 143.973 34.0311 144.486 34.2389C144.26 34.0917 144.292 33.8212 144.378 33.5724L144.167 33.5724C144.239 33.4598 144.313 33.3559 144.378 33.2391C143.787 33.5702 143.722 32.6591 143.186 32.7933C143.262 32.593 143.397 32.4216 143.571 32.3024C143.745 32.1831 143.951 32.1218 144.161 32.1267L143.404 31.7935C143.963 30.9278 144.764 31.2524 144.268 32.2263L145.46 32.1159L145.46 32.4492L145.671 32.4492L145.564 33.449L145.775 33.449L145.775 32.895C146.224 32.895 146.867 32.975 146.859 32.4492L147.184 32.5617L147.184 32.3453C147.07 32.3636 146.953 32.3403 146.854 32.2794C146.755 32.2185 146.68 32.1239 146.642 32.012C146.471 32.3107 146.22 32.5227 145.884 32.4448L146.424 31.8887C146.178 31.6117 145.838 31.7978 145.559 32.0012L145.559 30.7785C148.255 31.761 148.639 28.0214 151.299 28.3352L151.088 28.1188C151.134 28.0481 151.197 27.991 151.271 27.953C151.345 27.9151 151.428 27.8976 151.51 27.9024C151.314 28.4261 151.24 29.4173 151.945 29.348C150.922 31.1767 153.305 29.8523 153.027 28.7918L152.702 28.7918L152.81 29.2355C151.939 29.6683 151.474 28.4304 151.945 27.8461C152.757 28.0387 155.128 28.4196 154.326 26.6797C154.731 26.6949 155.381 26.578 155.411 27.013L154.976 27.1255L155.187 27.5583C155.567 27.0173 156.527 27.0865 156.379 26.3356L155.837 26.7814C155.48 26.4611 155.415 26.0543 155.837 25.7816C155.767 26.0456 156.147 26.0629 156.379 26.1149C156.449 25.682 156.094 25.206 155.837 24.7818C156.067 24.9376 156.769 24.8034 156.704 24.4485C155.894 24.706 155.679 23.7993 155.08 23.6695C155.377 23.453 155.814 23.2366 155.729 22.8925C155.877 23.1501 156.151 23.0354 156.379 22.8925L155.837 22.4467C156.16 22.2693 156.035 21.3344 155.626 21.3366C155.594 21.6071 155.476 21.8516 155.204 21.7694L155.204 21.9858L155.529 21.9858C155.677 22.7194 155.278 23.1652 154.554 23.096L154.554 22.8796C153.411 23.3448 153.352 22.2195 154.12 21.5465C153.276 21.3928 152.991 22.0572 152.171 22.213C152.088 21.8127 151.96 21.3062 151.521 21.5465L151.521 21.1007L150.331 21.4339C150.559 20.2675 149.338 20.3281 148.49 20.5467C149.755 18.4864 148.519 18.8392 147.19 19.8801C147.156 19.1335 146.732 18.6011 146.979 17.6576L146.654 17.6576C146.802 18.3891 146.403 18.837 145.68 18.7678C146.18 17.5797 144.465 18.4518 144.218 17.9346C144.07 16.9629 143.134 17.069 142.431 17.5451C143.243 16.9586 142.106 16.0627 141.564 16.7681C141.421 16.4457 141.545 16.1341 141.775 15.8787C141.463 15.7164 141.03 15.3463 140.798 15.5454L141.34 14.9893L140.366 14.9893C140.737 16.5041 139.619 15.79 140.155 14.7729L139.83 14.7729L139.83 15.329C139.355 15.4177 139.484 14.4179 138.855 14.6603C138.948 14.0955 138.366 14.089 137.991 14.327L138.098 13.8942C137.339 13.9483 136.913 13.5848 136.149 13.8942C136.082 13.509 137.261 13.4441 137.014 12.8944C137.29 13.0654 137.647 13.4268 137.881 13.2277C137.6 12.7473 137.229 12.3274 136.689 12.3383C136.529 13.2385 134.985 12.1218 134.525 12.784C134.75 12.6369 134.717 12.3664 134.632 12.1175C133.801 12.7841 133.506 11.5851 132.791 11.6717C132.824 11.3081 133.305 11.161 133.658 11.0052C133.734 11.5354 134.132 11.8513 134.632 12.005L134.74 11.451C134.995 11.7431 135.284 11.4943 135.499 11.2346L135.71 11.5678C135.864 11.135 136.2 10.9727 136.577 11.2346C136.898 9.97074 134.734 10.8017 134.303 10.3451L134.411 10.0119C134.13 9.66126 132.768 9.06614 132.786 10.0119L133.641 10.0119C133.774 10.5182 133.101 10.581 132.666 10.6784C132.919 10.7325 132.839 11.016 132.774 11.2346C132.605 10.9597 132.141 11.0182 131.799 11.0182C131.034 12.2582 129.901 8.7242 132.449 10.462L132.557 9.90798L131.907 9.90798C131.875 9.5812 131.928 9.25873 132.232 9.12888C131.892 9.22194 131.599 9.42322 131.692 9.79544L131.042 9.12888C130.926 9.72184 129.713 11.2346 129.633 9.79544C129.661 9.83989 129.697 9.87816 129.74 9.90798C129.782 9.9378 129.83 9.95856 129.881 9.96905C129.931 9.97954 129.983 9.97954 130.034 9.96905C130.084 9.95856 130.132 9.9378 130.175 9.90798C130.017 9.44919 129.264 9.6591 128.766 9.69157L129.2 9.47516C129.101 8.62683 127.445 8.66795 127.359 9.47516C127.038 9.31718 126.635 9.15052 126.601 8.8086C127.038 8.87568 127.882 8.47318 128.226 8.25461L127.791 8.25461L127.791 8.03819C127.69 8.13119 127.564 8.19127 127.429 8.21091C127.294 8.23055 127.157 8.20887 127.034 8.14856L127.034 8.36498C125.135 8.40609 126.916 6.80249 124.543 8.2546C124.608 7.84343 124.754 7.18771 124.218 7.25479L124.325 7.58804C123.568 7.68976 123.302 6.93882 122.486 7.37164C122.621 6.61637 123.507 6.38049 123.351 5.59275L123.676 5.59275L123.676 5.37635L123.254 5.48672C123.576 4.27482 123.07 1.80777 124.663 1.93113L124.663 1.71471L124.988 2.04799C125.526 0.232319 127.247 2.56738 128.561 2.04799C128.519 3.14303 127.085 2.61064 126.937 3.38323C126.894 3.35437 126.857 3.31703 126.828 3.27333C126.799 3.22963 126.779 3.18042 126.769 3.12867C126.758 3.07691 126.758 3.02359 126.768 2.9718C126.778 2.92002 126.798 2.87082 126.827 2.82704L126.616 2.82704L126.616 3.82687C127.8 3.95239 129.523 1.25377 129.648 3.39406L130.407 3.17765C130.217 3.76195 130.861 3.94804 130.829 4.40034L132.021 3.95452C132.086 4.48689 132.483 4.74011 132.995 4.73362C132.924 5.0301 132.85 5.32657 132.784 5.62089C133.042 5.51918 133.506 5.45426 133.434 5.18807L133.645 5.18807L133.645 5.8546C134.394 5.00844 135.08 6.43676 135.812 6.29825C135.512 7.01241 136.457 6.98645 136.894 6.74407C136.917 7.30241 137.799 7.2894 137.653 7.96677C138.548 7.71789 139.13 8.29789 139.872 8.57705C140.132 8.87137 139.398 9.46867 139.817 9.7435C140.632 8.22864 142.463 9.42755 142.418 10.8537C142.167 10.594 141.864 10.2045 141.551 10.4209C141.73 10.7166 141.911 11.0131 142.094 11.3103L141.117 11.3103C141.19 11.7172 141.26 12.1247 141.328 12.533L141.653 12.4205C141.654 12.5676 141.711 12.7084 141.813 12.8125C141.914 12.9166 142.051 12.9755 142.195 12.9766C141.562 11.9098 142.95 11.5029 142.952 12.8663C143.294 12.3772 144.041 12.6282 144.469 12.1997C144.705 12.533 144.657 12.9896 144.576 13.4203C145.808 13.4939 144.735 12.4529 144.686 11.9768C143.958 12.109 143.209 12.0341 142.52 11.7604C142.75 11.1848 143.558 11.4423 144.144 11.544C143.887 11.4401 143.644 11.2778 143.722 10.9879C145.475 11.0679 146.72 12.5373 148.152 13.2104L148.152 12.8771C148.627 12.8771 148.996 13.7428 149.017 14.2102C150.053 12.8533 150.253 15.4697 151.508 14.7642L151.508 15.3204C152.388 15.2727 153.729 16.0475 153.675 16.9867C154.073 16.7184 154.497 16.4219 154.542 17.0993L155.191 16.8829C155.118 17.491 155.968 17.5321 155.841 18.1056L156.598 17.7723C156.624 18.7548 158.343 18.0839 158.225 19.2157C159.155 19.6139 160.623 19.8412 160.824 21.105C161.381 20.8453 161.878 20.9946 161.906 21.6612L161.581 21.6612C161.532 21.9274 161.701 22.1481 161.906 22.3277C160.904 22.8449 162.902 23.5764 162.773 24.3273L162.338 24.1109C162.275 24.6195 161.661 24.7234 161.906 25.2233C161.018 24.574 160.838 25.2038 160.931 26.1106C163.294 24.4442 162.408 26.5953 160.824 27L161.035 28.1102C160.277 28.3136 159.077 30.2613 158.003 29.5558C158.002 29.6094 157.989 29.6622 157.965 29.7099C157.942 29.7577 157.907 29.7992 157.865 29.8313C157.823 29.8635 157.775 29.8854 157.724 29.8954C157.672 29.9054 157.619 29.9032 157.569 29.8891C157.607 30.0362 157.643 30.1855 157.678 30.3219C157.332 30.2678 157.046 30.3868 157.029 30.7677C155.841 30.1184 155.461 32.0943 154.375 31.9341C153.4 32.6461 151.643 33.2326 150.639 33.7671L150.314 33.4338C150.173 33.6827 149.92 34.0008 150.103 34.2107C149.485 34.6025 148.985 33.7779 148.262 34.1004C148.933 35.6434 146.479 34.187 146.855 35.5438C146.549 35.2517 146.133 34.8751 145.88 35.3274L146.302 35.4378C146.224 35.8706 145.988 36.2104 145.545 36.1043L145.545 35.6715L145.87 35.6715L145.87 35.4551C144.579 35.7624 143.437 37.6409 141.862 37.1215L141.862 37.5673L141.537 37.5673C141.701 37.3811 141.762 37.1539 141.537 37.0111C140.881 37.5803 139.41 38.9761 138.847 38.1646L138.868 38.1646ZM137.354 38.2273L137.461 38.1169L137.25 38.3334L137.354 38.2273ZM136.919 37.5608C136.9 37.3799 136.919 37.197 136.975 37.0244C137.031 36.8518 137.123 36.6937 137.244 36.561C137.497 36.9808 138.067 36.0784 138.328 36.6713C139.805 36.1195 138.024 37.6603 137.244 37.3379C137.347 37.7079 137.354 38.1169 136.919 38.1169L136.919 37.5608ZM129.5 37.894L129.555 37.7837L129.447 38.0001L129.5 37.894ZM131.071 37.8378C131.071 37.6365 131.333 37.6062 131.493 37.5608C131.563 37.8507 131.325 37.9719 131.071 37.9936L131.071 37.8378ZM131.936 37.8378C131.662 37.7707 131.725 37.2946 131.725 37.0046C132.198 37.0652 132.78 37.1864 133.025 36.7882C133.132 36.8986 133.236 37.0046 133.35 37.1215L133.457 36.5653C134.852 37.1518 132.375 37.5543 131.915 37.8313L131.936 37.8378ZM130.097 37.617L130.308 37.5608L129.886 37.6711L130.097 37.617ZM136.107 36.9505C135.881 36.0502 136.868 35.9161 136.811 36.6713L136.377 36.561L136.377 36.8942L136.811 36.7839C136.868 37.0522 136.406 37.327 136.162 37.5608C136.122 37.3508 136.105 37.1474 136.086 36.944L136.107 36.9505ZM134.419 36.4484L134.63 36.232L134.198 36.6648L134.419 36.4484ZM139.402 36.3381C139.204 35.9935 139.062 35.6187 138.98 35.2279L138.545 35.3382C138.402 34.7734 139.256 34.8448 139.737 34.7821L139.845 36.4484C139.685 36.4627 139.524 36.4216 139.389 36.3316L139.402 36.3381ZM135.449 36.2277L135.394 36.1152L135.719 36.0048L135.719 36.3381C135.601 36.3359 135.489 36.3424 135.436 36.2212L135.449 36.2277ZM137.183 35.8382C137.164 35.7819 137.145 35.7278 137.128 35.6715L137.67 35.7819L137.235 35.9983C137.206 35.9464 137.187 35.8879 137.17 35.8317L137.183 35.8382ZM143.842 35.6715C144.066 35.6028 144.257 35.4509 144.377 35.2456C144.497 35.0402 144.538 34.7962 144.492 34.5613C144.123 34.8643 143.596 35.2279 143.83 35.665L143.842 35.6715ZM137.56 35.3382L137.56 35.1218L137.995 35.3382L137.56 35.5546L137.56 35.3382ZM140.159 35.3382L140.269 35.2279L140.058 35.4443L140.159 35.3382ZM137.453 34.728L137.345 34.4488L137.649 34.4488L137.649 34.1155C138.178 34.0333 137.877 35.5633 137.438 34.7215L137.453 34.728ZM138.102 34.3384L138.102 33.9987L138.86 33.9987C138.832 34.1843 138.74 34.3536 138.601 34.4759C138.462 34.5981 138.285 34.6653 138.102 34.6652L138.102 34.3384ZM145.908 34.6717C146.029 34.5649 146.115 34.4215 146.153 34.2619C146.191 34.1023 146.179 33.9345 146.118 33.7823C145.876 34.0484 145.589 34.3947 145.889 34.6652L145.908 34.6717ZM140.165 34.2822L140.058 34.1155L140.383 34.2281L140.275 34.4445L140.165 34.2822ZM142.819 34.2281L142.766 34.1155L142.977 34.0052L142.87 34.3384L142.819 34.2281ZM141.954 34.0614C141.885 33.884 142.007 33.7779 142.117 33.6719L142.224 34.2281C142.079 34.2281 141.984 34.2151 141.935 34.0549L141.954 34.0614ZM147.207 34.2281C147.521 34.3081 147.703 33.9554 147.857 33.6719L147.315 33.5615L147.207 34.2281ZM141.089 33.8385C141.016 33.6481 141.224 33.4771 141.359 33.3386C140.938 33.1503 140.952 32.7327 141.148 32.3388L141.691 32.6721C142.011 32.5228 142.499 32.0964 142.883 32.0055L142.883 32.7825C142.3 32.6353 141.651 33.5226 141.148 34.0052C141.104 33.9424 141.085 33.8883 141.068 33.832L141.089 33.8385ZM140.602 33.6719L140.71 33.5615L140.499 33.7779L140.602 33.6719ZM144.5 33.6719L144.922 33.2391C144.648 33.2521 144.41 33.3754 144.479 33.6654L144.5 33.6719ZM149.266 33.6719C149.766 33.4555 149.97 33.0227 149.266 33.1157L149.266 33.6719ZM140.492 33.2282L140.492 33.1157L140.817 33.2282L140.492 33.3386L140.492 33.2282ZM149.158 32.5617L149.808 31.893C148.709 31.3888 147.549 32.2782 149.373 32.0055L149.158 32.5617ZM150.403 31.7826C150.717 31.7394 151.47 30.9386 151.325 30.5599C150.972 30.8477 149.673 31.5641 150.382 31.7761L150.403 31.7826ZM147.966 31.6723L148.724 31.2265L147.749 31.2265C147.802 31.3693 147.874 31.5164 147.945 31.6658L147.966 31.6723ZM144.988 31.2827L145.043 31.1161L145.15 31.3325L144.939 31.4429C144.931 31.3866 144.95 31.3325 144.967 31.2762L144.988 31.2827ZM153.489 31.4494L153.814 31.233L153.47 31.233L153.489 31.4494ZM153.164 31.339L153.274 31.339C152.894 30.9365 153.305 30.6898 153.696 30.8932L153.588 30.3392C153.303 30.6465 152.905 30.6746 152.504 30.5556C152.379 30.8456 152.917 31.3044 153.143 31.3325L153.164 31.339ZM149.698 31.0057C150.143 31.1096 150.38 30.772 150.458 30.3392C149.991 30.2266 149.755 30.5664 149.673 30.9992L149.698 31.0057ZM146.498 30.2266C146.439 30.0665 146.81 29.8999 146.985 29.7938C146.958 30.0319 146.72 30.4799 146.483 30.2202L146.498 30.2266ZM150.335 30.0102C150.717 30.1141 150.719 29.5774 150.768 29.2312C150.405 29.3199 150.272 29.6315 150.329 29.9994L150.335 30.0102ZM155.966 29.8977C156.265 29.5493 156.617 29.2485 157.05 29.2312C157.018 28.9455 156.778 28.8243 156.508 28.7875C156.579 28.6382 156.651 28.4911 156.719 28.3547L156.508 28.3547C156.425 28.0301 156.765 27.8959 157.05 27.7985C156.478 26.6429 154.181 28.965 156.29 28.3547C156.105 28.5538 155.807 28.7875 155.868 29.0213L156.411 29.0213C156.478 29.2918 156.014 29.4281 155.761 29.5753L155.966 29.8977ZM154.234 29.5644L154.445 29.348L154.118 29.2355C154.156 29.3329 154.191 29.4432 154.227 29.5536L154.234 29.5644ZM154.883 29.1316L154.991 29.1316L154.883 28.3547C154.592 28.3158 154.698 29.0862 154.877 29.11L154.883 29.1316ZM158.891 28.3547C159.18 28.3547 159.381 27.7055 159.541 27.3527C159.043 27.3354 159.079 28.0496 158.567 27.9089C158.604 28.0864 158.636 28.346 158.885 28.3331L158.891 28.3547ZM157.05 27.4653L157.157 27.2489L156.833 27.1385C156.898 27.2207 156.972 27.3311 157.043 27.4436L157.05 27.4653ZM158.457 27.3527C158.508 27.3512 158.558 27.3381 158.603 27.3143C158.649 27.2906 158.688 27.2568 158.719 27.2154C158.75 27.1739 158.772 27.1259 158.783 27.0748C158.794 27.0237 158.793 26.9708 158.782 26.9199C158.668 27.0368 158.56 27.1839 158.451 27.3311L158.457 27.3527ZM157.59 27.0195C157.875 26.9156 158.421 26.8701 158.349 26.5758C158.805 26.8528 159.193 26.6429 159.324 26.143C158.744 26.0997 157.708 26.4676 157.584 26.9978L157.59 27.0195ZM160.841 26.4654L161.165 26.4654L161.165 26.1322L160.841 26.4654ZM159.649 26.249L159.86 26.249L159.86 25.9158C159.786 25.9915 159.714 26.1106 159.642 26.2209L159.649 26.249ZM156.94 25.6929C157.244 25.708 157.573 25.0437 157.265 24.8056C156.681 24.2732 156.28 25.5933 156.934 25.6647L156.94 25.6929ZM162.636 25.1389C162.617 25.0631 162.6 24.9896 162.581 24.9225L163.015 24.8121L163.015 25.3661C162.83 25.3423 162.667 25.3423 162.621 25.1107L162.636 25.1389ZM157.383 24.2494L157.594 23.8166L157.269 23.927C157.297 23.9984 157.332 24.1109 157.368 24.2213L157.383 24.2494ZM159.225 23.9162L159.436 23.36L159.003 23.36C159.064 23.518 159.136 23.7019 159.21 23.888L159.225 23.9162ZM154.025 23.5829L154.132 23.3665C154.17 23.4768 154.206 23.5829 154.242 23.6998L153.917 23.8123L154.025 23.5829ZM156.841 23.3665L157.166 23.1501L156.841 23.1501L156.841 23.3665ZM148.989 22.0334L148.935 21.923L149.146 21.8105C149.11 21.923 149.074 22.0269 149.036 22.1438L148.989 22.0334ZM157.491 21.923L157.702 21.923L157.702 21.5898L157.491 21.5898L157.491 21.923ZM154.675 21.6439L154.784 21.4772L154.459 21.3669C154.301 21.5486 154.419 21.9403 154.66 21.6092L154.675 21.6439ZM154.999 20.934C155.035 20.8583 155.071 20.7847 155.109 20.7176C155.056 20.7393 155.02 20.8129 154.985 20.8886L154.999 20.934ZM157.923 20.6008C158.153 20.3714 158.48 20.3973 158.79 20.4882L158.79 20.155C158.676 20.1731 158.56 20.1497 158.461 20.0888C158.362 20.0279 158.288 19.9333 158.25 19.8217C158.133 19.901 158.039 20.0107 157.978 20.1397C157.916 20.2687 157.889 20.4121 157.9 20.5553L157.923 20.6008ZM151.858 20.4882L152.293 20.4882C152.31 20.0056 152.344 19.378 151.751 19.4884C152.019 19.6183 151.89 20.09 151.844 20.4428L151.858 20.4882ZM150.993 20.155C151.491 20.0186 151.261 19.0729 150.783 19.2655L150.783 19.7113L150.458 19.7113C150.531 19.9321 150.614 20.2545 150.979 20.1095L150.993 20.155ZM153.268 20.2675L153.478 20.2675L153.478 19.9342L152.721 19.9342C152.86 20.0489 153.023 20.2329 153.259 20.222L153.268 20.2675ZM146.443 20.1009L146.553 20.0446L146.342 20.155L146.443 20.1009ZM150.126 19.6009C150.38 19.5468 150.299 19.2634 150.234 19.0448L149.909 19.1552C149.966 19.259 150.04 19.4062 150.112 19.5555L150.126 19.6009ZM157.058 19.0448L157.383 18.9322C157.202 18.3934 156.571 18.3739 156.084 18.599C156.347 18.7981 156.683 19.1443 157.043 18.9993L157.058 19.0448ZM148.34 18.5449L148.502 18.4886C148.454 18.2722 148.249 18.2895 148.068 18.3782C148.106 18.4518 148.152 18.5665 148.325 18.4994L148.34 18.5449ZM149.477 18.599C149.525 18.3826 149.73 18.3999 149.899 18.4886C149.935 18.3782 149.97 18.2722 150.008 18.1553C149.946 18.1357 149.881 18.1309 149.817 18.1414C149.753 18.152 149.692 18.1775 149.639 18.216C149.586 18.2545 149.543 18.305 149.512 18.3635C149.481 18.4221 149.464 18.4871 149.462 18.5535L149.477 18.599ZM153.907 18.599L154.232 18.4886C154.231 18.4349 154.218 18.3822 154.194 18.3345C154.17 18.2867 154.136 18.2452 154.094 18.213C154.052 18.1809 154.003 18.159 153.952 18.149C153.9 18.139 153.847 18.1412 153.797 18.1553C153.831 18.2592 153.867 18.4064 153.902 18.5535L153.907 18.599ZM153.314 18.0991L153.586 18.045C153.514 17.8956 153.44 17.7485 153.375 17.5992C153.006 17.6251 152.744 18.138 153.305 18.0536L153.314 18.0991ZM148.279 18.045L148.603 17.7117L148.279 17.7117L148.279 18.045ZM143.458 16.766C143.669 16.6967 143.549 16.3613 143.513 16.1557L144.271 16.2661C144.205 16.0968 144.19 15.9112 144.227 15.7331C144.265 15.555 144.353 15.3924 144.481 15.2663C144.017 15.9415 142.832 15.5 142.532 16.2661C142.944 16.0367 143.134 16.74 143.45 16.7205L143.458 16.766ZM145.245 16.8223L145.355 16.8223L145.355 16.489L145.03 16.5993C145.068 16.6534 145.116 16.7833 145.243 16.7768L145.245 16.8223ZM151.42 16.8223C151.728 16.7898 151.86 16.4587 151.962 16.1557C151.582 16.1925 151.198 16.3743 151.411 16.7768L151.42 16.8223ZM141.184 16.2661L141.239 16.1557L141.13 16.3721C141.14 16.2942 141.159 16.2531 141.176 16.2206L141.184 16.2661ZM150.337 15.8333L150.662 15.8333L150.662 15.5L150.337 15.8333ZM141.899 15.5C142.429 15.2187 142.532 14.5673 142.549 13.944C142.193 13.8033 142.047 15.0174 141.881 15.4437L141.899 15.5ZM147.747 15.2836C147.825 14.8508 148.061 14.5131 148.506 14.617C148.011 13.4398 146.994 14.4093 147.728 15.2208L147.747 15.2836ZM141.134 13.851C141.535 13.5739 141.178 12.968 140.712 12.9615C140.813 13.1714 140.959 13.7428 141.121 13.7774L141.134 13.851ZM146.658 13.3056L146.983 12.6391C146.915 12.6337 146.846 12.6481 146.785 12.6807C146.724 12.7133 146.673 12.7628 146.638 12.8236C146.602 12.8844 146.585 12.954 146.586 13.0247C146.588 13.0953 146.608 13.1642 146.646 13.2234L146.658 13.3056ZM139.347 13.1952L139.509 13.1952C139.72 12.52 138.332 11.9833 138.21 12.6391C138.72 12.3794 139.007 12.9399 139.336 13.1108L139.347 13.1952ZM139.619 13.1952L139.944 12.9788L139.619 12.9788L139.619 13.1952ZM133.067 12.4724L133.012 12.3058L133.434 12.5222L133.109 12.6326C133.09 12.4984 133.071 12.4443 133.054 12.388L133.067 12.4724ZM136.693 12.3058L136.904 11.873L136.693 11.873L136.693 12.3058ZM129.276 11.873C129.257 11.7972 129.238 11.7236 129.221 11.6566C129.272 11.6581 129.322 11.6712 129.368 11.6949C129.413 11.7187 129.453 11.7525 129.484 11.794C129.515 11.8354 129.537 11.8834 129.548 11.9345C129.558 11.9856 129.558 12.0385 129.546 12.0894C129.392 12.0093 129.31 11.9941 129.264 11.7777L129.276 11.873ZM141.623 11.9271C141.64 11.873 141.659 11.8167 141.676 11.7604L141.568 12.0937C141.573 11.9444 141.592 11.8881 141.61 11.8318L141.623 11.9271ZM135.717 11.9833L136.151 11.873L135.717 11.7604L135.717 11.9833ZM139.182 11.9833L139.393 11.9833L139.393 11.6501L139.182 11.6501L139.182 11.9833ZM140.482 11.5505L140.693 11.5505L140.693 11.1047L141.115 11.1047L140.904 10.4382C140.796 11.1177 139.704 11.0463 139.604 11.438C139.995 11.1653 140.147 11.3579 140.471 11.4445L140.482 11.5505ZM134.153 11.0506C134.17 10.9943 134.189 10.9381 134.208 10.8818L134.316 11.2172L134.105 11.2172C134.101 11.0593 134.118 10.9987 134.137 10.9446L134.153 11.0506ZM142.817 10.8277C142.566 10.5702 142.532 10.4555 142.547 10.2153C142.906 10.1265 143.501 10.7368 143.414 11.1047C143.163 11.0138 143.051 10.9792 142.8 10.7217L142.817 10.8277ZM137.999 10.9943L138.21 10.9943L138.21 10.6611L137.999 10.6611L137.999 10.9943ZM139.244 10.7714C139.455 10.6178 139.328 10.014 139.298 9.66127C138.769 9.54441 138.638 10.9359 139.227 10.6654L139.244 10.7714ZM128.141 10.3386C128.179 10.3018 128.215 10.265 128.251 10.2261C128.179 10.3018 128.106 10.3754 128.04 10.4425L128.141 10.3386ZM133.883 10.1222L133.991 10.0119L133.78 10.2283L133.883 10.1222ZM137.24 10.0119C137.369 10.0439 137.505 10.028 137.624 9.96702C137.743 9.90603 137.837 9.80385 137.889 9.67857C137.772 9.63277 137.643 9.62857 137.523 9.6666C137.403 9.70464 137.299 9.78273 137.227 9.88848L137.24 10.0119ZM128.089 9.56603C128.021 9.22194 128.527 9.08129 128.791 9.23278C128.62 9.36046 128.298 9.76081 128.072 9.44269L128.089 9.56603ZM130.633 9.34962L130.958 9.13321L130.536 9.02284L130.633 9.34962ZM134.099 9.01637L134.31 8.57055L133.985 8.68309L134.099 9.01637ZM129.669 8.90383C129.953 8.80645 130.302 8.67442 130.211 8.34981C129.899 8.31951 129.559 8.45152 129.633 8.77613L129.669 8.90383ZM132.81 8.90383C132.881 8.79346 132.955 8.68741 133.021 8.57055L132.81 8.57055L132.81 8.90383ZM137.143 8.47101L137.564 8.25461C137.438 7.73089 137.016 8.01655 137.115 8.33251L137.143 8.47101ZM134.109 8.14424C134.145 8.07065 134.181 7.99491 134.219 7.92782C134.153 7.84992 134.118 7.92565 134.082 7.99923L134.109 8.14424ZM127.72 7.92782L128.044 7.71142L127.72 7.71142L127.72 7.92782ZM125.338 7.81745L125.549 7.81745L125.224 7.48417C125.496 7.44738 125.735 7.32403 125.766 7.05135L125.344 7.05135L125.344 7.38463C125.028 7.41277 125.034 6.76569 124.585 6.93882C125.009 7.05784 124.593 7.78065 125.31 7.66595L125.338 7.81745ZM128.802 7.81745C128.84 7.60104 128.876 7.38462 128.911 7.1509C128.658 7.1444 128.69 7.41708 128.774 7.66595L128.802 7.81745ZM135.409 7.81745C135.444 7.66813 135.482 7.52097 135.518 7.38463C135.455 7.36949 135.417 7.51663 135.381 7.66595L135.409 7.81745ZM136.546 7.76119C136.833 7.7179 136.932 7.49066 137.033 7.26127C136.864 7.53611 136.4 7.47768 136.058 7.47768C136.141 7.51879 136.24 7.68112 136.518 7.60971L136.546 7.76119ZM131.943 7.70708L132.154 7.49067L131.829 7.49067L131.943 7.70708ZM134.489 7.54044C134.814 7.4885 134.759 7.09465 134.759 6.81764C135.044 6.74839 135.202 6.99943 135.301 7.25046C135.596 6.6337 134.748 6.50602 134.219 6.36102L134.544 6.91718C134.132 6.83278 133.915 7.45821 134.461 7.3803L134.489 7.54044ZM132.59 7.48417L132.801 7.26776L132.476 7.26776L132.59 7.48417ZM126.31 7.26776L126.732 7.15739L126.407 6.94098L126.31 7.26776ZM132.808 7.05136C133.019 6.99942 133.002 6.79168 132.915 6.60557L132.808 7.05136ZM133.019 6.60557L133.343 6.16192L133.008 6.16192L133.019 6.60557ZM126.194 6.04938C126.54 6.03206 126.827 5.86977 126.737 5.49538L126.194 5.49538L126.194 6.04938ZM131.502 5.93901L131.924 5.93901L131.924 5.7226L131.502 5.7226L131.502 5.93901ZM129.445 5.7226L129.77 5.7226L129.77 5.50619L129.445 5.7226ZM132.476 5.61223L132.584 5.27897C132.513 5.26357 132.439 5.27769 132.378 5.31826C132.317 5.35883 132.274 5.42254 132.259 5.49538L132.476 5.61223ZM124.353 5.05607C124.403 5.07024 124.456 5.0724 124.508 5.06241C124.559 5.0524 124.608 5.03051 124.649 4.99837C124.691 4.96623 124.726 4.92471 124.749 4.87696C124.773 4.8292 124.786 4.77646 124.787 4.72279L124.353 5.05607ZM128.091 4.61242L128.361 4.61242C128.373 4.06273 127.589 3.95019 127.279 4.27914C127.509 4.26832 127.787 4.45443 128.072 4.44361L128.091 4.61242ZM129.445 4.27914C129.732 4.251 129.808 4.00001 129.77 3.723C129.683 3.74859 129.604 3.79823 129.543 3.86655C129.482 3.93488 129.44 4.01922 129.422 4.11033L129.445 4.27914ZM124.353 2.8357C124.703 2.74914 124.971 2.52838 124.787 2.16698C124.49 2.14966 124.133 2.3531 124.334 2.6669L124.353 2.8357Z" fill="#F8F963"/>
    <path d="M-3.04884e-05 45.8334L-3.04593e-05 45.6667L0.210918 45.6667L0.210918 46L-3.05176e-05 46L-3.04884e-05 45.8334ZM0.421867 45.4438L0.314281 45.1106L0.63915 45.0002C0.710873 45.2166 0.782595 45.4438 0.850099 45.6667L0.525229 45.7771C0.506244 45.6667 0.468286 45.5564 0.432425 45.4438L0.421867 45.4438ZM1.01887 45.2274C0.999883 45.1171 0.983005 45.011 0.964019 44.8942C1.38592 44.9786 1.93438 44.3228 1.83102 43.8943C1.35849 43.8489 0.826901 43.8944 0.856433 44.4505L0.421867 44.3402C0.761494 43.9982 0.343833 43.1737 1.07161 43.2278C0.966131 42.9833 0.765718 42.8621 0.531565 43.0114C0.784703 42.4422 0.337484 42.2215 0.206696 41.8991L0.96402 42.0116C0.866983 41.6112 0.693989 41.2325 0.314282 41.1221C0.632814 39.538 2.1833 39.8973 1.9386 41.3386C2.19807 41.41 2.21282 41.0183 2.26344 40.7824L3.02288 41.3386L3.23383 40.3366C3.38454 40.3501 3.52759 40.4106 3.64375 40.5101C3.75991 40.6095 3.8436 40.743 3.88354 40.8927L3.23383 41.0031C3.58822 41.2325 3.53338 41.7 3.44478 42.1155C3.84347 42.1155 3.738 41.423 4.41936 41.6826C5.22518 41.8168 5.50151 40.8689 5.6112 42.1155C6.31155 42.2128 6.0774 41.1027 6.69337 41.1157C6.4256 40.646 6.31175 40.1006 6.36852 39.5597C7.24607 40.0444 7.60257 39.7761 7.3431 38.7827L8.31769 38.8931L8.31769 38.6767L7.99282 38.6767C7.72702 38.0275 8.62566 36.9952 8.9674 37.7894L8.33666 37.7894L8.33666 38.1119C8.6995 38.0145 8.89989 38.5447 9.09607 38.8888C8.67418 39.1052 8.13414 39.538 7.79662 39.3324C7.62365 39.6094 7.85359 39.7912 8.12149 39.8886C8.65097 39.1182 9.37453 39.9903 9.31125 40.778L8.66153 40.778L8.66153 40.3322C7.69539 40.5487 6.07319 40.0509 7.41693 41.4446C8.13416 40.579 8.18477 41.0659 8.98638 41.1113C8.93153 41.4792 9.06444 41.7887 9.42094 41.8882L9.42094 40.9988L10.2858 41.2152C10.5727 40.6439 10.0559 39.4363 9.42094 40.105C9.65088 39.6722 9.56016 39.2675 9.09607 39.1052C9.71626 39.0165 10.6465 39.9925 11.1528 39.2156C11.3026 39.6484 11.9819 39.538 12.4523 39.5488L12.4523 39.3324L12.0304 39.3324C12.0889 39.2064 12.1099 39.0655 12.0907 38.9273C12.0716 38.7891 12.0132 38.6598 11.9228 38.5555C12.7223 38.5555 12.7666 37.4735 13.5471 37.6661L13.5471 38.3283C13.9521 38.2915 14.0956 37.2982 14.6293 37.2181L14.4183 37.0017C14.933 36.7269 14.3255 36.1707 13.8783 36.3352C13.9859 36.188 14.0892 36.0387 14.2032 35.9024C14.8866 36.056 16.1312 37.019 16.802 36.1188C16.8252 36.5148 17.3189 36.4563 17.669 36.452L17.669 37.2311C16.5151 36.7464 16.4033 38.0296 15.8275 38.4538C16.0384 38.7113 16.2493 38.971 16.4772 39.2307L15.7199 39.3411L15.8275 38.8975C15.1819 38.8975 14.6799 40.6785 13.8783 40.5638L13.8783 39.7869C13.6948 40.4902 12.0894 41.2671 12.254 40.0033C10.8912 39.9817 11.2309 42.1003 9.87026 41.5593C9.94199 41.7454 10.0158 41.9293 10.0812 42.1155C9.20367 42.1436 8.39362 42.6543 7.91477 43.0049L7.91477 42.3384L7.49287 42.3384L7.49287 43.0049C7.12793 42.8231 6.82205 43.7883 6.301 43.5589C6.23139 43.2689 6.46976 43.1477 6.7229 43.1153C5.94028 41.4879 3.58188 46.2943 2.92583 44.1151C2.73175 44.5219 2.29298 44.6431 1.84366 44.6713C2.09258 44.8271 2.02086 45.1625 1.95124 45.4482L1.30153 45.0045L1.40912 45.5607C1.19817 45.5715 1.0737 45.552 1.0294 45.2209L1.01887 45.2274ZM3.88776 44.3402L4.09871 44.3402L4.09871 44.0069L3.88776 44.0069L3.88776 44.3402ZM5.40447 43.8402L5.40447 43.6736L6.27147 43.6736C6.24826 44.0675 5.75465 44.009 5.40447 44.0069L5.40447 43.8402ZM2.31829 43.8402L2.48073 43.784C2.43221 43.5676 2.2276 43.5849 2.04619 43.6736C2.10947 43.7861 2.15587 43.9008 2.32885 43.8337L2.31829 43.8402ZM2.58831 43.784L2.91318 43.784L2.91318 43.2278C2.66426 43.1499 2.64106 43.5416 2.59887 43.7775L2.58831 43.784ZM2.15586 43.1174L2.8056 43.1174L2.8056 42.6846C2.50816 42.7084 2.07149 42.7474 2.16642 43.1109L2.15586 43.1174ZM1.39645 43.0071C2.6748 42.5742 1.52302 41.6112 1.1855 40.8949C1.04206 41.7259 1.63694 42.2237 1.40701 43.0006L1.39645 43.0071ZM0.856434 42.7907L1.06738 42.7907L1.06738 42.4401L0.856434 42.7907ZM4.97204 42.6803L5.18299 42.6803C5.32433 42.1544 4.02066 42.176 4.10082 42.5677L4.96782 42.4574L4.97204 42.6803ZM7.29248 42.347C7.34522 42.3081 7.40004 42.2713 7.45489 42.2345L7.02035 42.2345C7.05621 41.9748 7.09207 41.7173 7.13004 41.4576C6.54572 41.358 6.84315 42.5331 7.31146 42.334L7.29248 42.347ZM2.14744 42.347L2.56934 42.347L2.56934 42.1306L2.14744 42.347ZM11.4081 41.1243C11.465 40.8495 11.8574 40.9079 12.1105 40.9079C12.0873 41.2628 11.6886 41.3104 11.3532 41.3537C11.3891 41.2585 11.4081 41.1849 11.4271 41.1113L11.4081 41.1243ZM5.17877 40.8451L5.17877 40.6785L4.20419 40.791C4.35185 40.3582 3.64516 38.3586 4.74631 39.9016C5.06907 39.1918 5.75253 38.3867 6.47819 38.1249L6.47819 38.3413L7.02035 38.1249C7.24184 38.7741 6.30312 39.1745 6.04577 38.5577C5.53949 39.6592 6.15757 39.8821 5.17877 41.0009L5.17877 40.8451ZM8.64464 40.2349C8.75433 40.0877 8.8556 39.9384 8.96951 39.8021L8.54761 40.0185L8.64464 40.2349ZM12.3278 40.1245C12.8552 40.2024 13.7623 39.6354 13.3024 39.1247C13.0029 38.9905 12.6105 39.7544 12.3447 40.1115L12.3278 40.1245ZM2.68957 39.9579L2.47862 39.9016C2.50815 39.4688 3.23171 39.5229 3.67048 39.4688C3.6958 39.9341 3.06294 40.0444 2.70854 39.9449L2.68957 39.9579ZM14.6567 39.4579C15.2684 39.5034 15.3296 38.43 14.7094 38.4581C15.4815 38.5447 15.4857 37.7808 15.3613 37.125C14.9626 37.3934 14.9858 38.0967 14.6018 38.4019C14.0998 38.891 13.2518 39.4363 14.6757 39.445L14.6567 39.4579ZM10.269 38.9581C10.2816 38.6724 10.1339 38.6204 9.94409 38.5685C9.94512 38.5148 9.95807 38.4621 9.98197 38.4144C10.0059 38.3666 10.0401 38.3251 10.082 38.2929C10.1239 38.2608 10.1724 38.2389 10.2238 38.2289C10.2752 38.2189 10.3282 38.2211 10.3787 38.2352C10.3428 38.3456 10.3069 38.4516 10.269 38.5685C10.7858 38.4798 11.8764 38.337 11.5705 39.1247L10.4862 38.7914L10.4862 39.235L10.2753 39.235L10.269 38.9581ZM17.2007 38.2352C19.2954 36.504 17.3189 36.5689 17.0931 34.79C16.5679 34.8766 16.5025 36.333 15.7388 36.1231C15.3591 36.0517 15.7389 34.9869 16.011 35.1233C15.9371 34.8657 15.8654 34.606 15.8 34.3464L16.1418 34.3464L16.1418 33.9135L17.4412 33.9135L17.3336 34.8008L18.4158 34.6904C18.2998 35.1384 18.7849 35.2661 19.1731 35.357L18.5234 35.5734C18.5508 36.0062 19.1963 35.9565 19.6077 36.0062C19.2554 35.4198 19.4916 34.4048 20.2574 34.3399C20.2863 34.3835 20.3064 34.4326 20.3166 34.4843C20.3269 34.536 20.327 34.5893 20.317 34.641C20.3069 34.6928 20.287 34.742 20.2583 34.7858C20.2296 34.8295 20.1927 34.867 20.1498 34.896C21.059 34.9566 20.2194 34.1191 20.4747 33.6733L19.8249 34.1061C19.3482 33.2924 18.9811 34.1841 19.5001 34.6623C18.9833 34.5087 18.3061 34.3983 18.0909 33.9958L19.0655 33.9958C18.8546 33.6777 18.8651 33.2751 18.9579 32.8856C19.3798 33.1236 19.576 32.6129 19.7152 32.2169C20.6729 33.6625 22.5736 29.871 23.0735 31.6629C23.1727 32.6713 23.6115 32.007 24.1557 31.7732C23.101 31.9074 23.5608 30.0658 23.8308 31.44C24.2063 31.3426 24.2886 31.0072 24.1557 30.6631C26.7525 31.6672 27.1596 27.8324 29.6805 28.3302L29.6805 27.8844C30.6719 27.6918 30.9693 27.8562 31.8469 28.1008C31.4693 27.8368 31.9207 26.8694 32.1717 27.6009C32.8658 28.3605 33.4079 27.1399 32.5936 26.6552C33.6189 26.9473 35.2221 25.255 34.2179 24.6555C34.4289 24.2595 34.007 23.5735 33.5682 23.6557L33.6758 23.0996C32.9691 23.0173 33.0282 23.8159 32.4861 23.989L32.5936 23.0996C31.9165 23.171 32.0747 22.195 32.0515 21.6561C30.828 23.0216 30.2606 20.9658 28.8029 21.5457C28.9759 20.8792 28.862 20.5329 28.1532 20.6563L28.1532 20.8727L27.9422 20.8727C27.9781 20.7234 28.0139 20.5762 28.0519 20.4269C27.4043 20.7126 26.8559 20.4961 26.7504 19.7604L27.2925 20.0936C27.3642 19.7236 27.4381 19.3535 27.5035 18.9835C27.4525 18.985 27.4026 18.9981 27.3572 19.0218C27.3118 19.0456 27.2721 19.0794 27.241 19.1208C27.2099 19.1623 27.1882 19.2103 27.1774 19.2614C27.1666 19.3125 27.167 19.3654 27.1786 19.4163C26.4339 19.0787 26.1998 19.9357 25.5543 19.9725L25.6619 19.1934L25.337 19.1934L25.337 18.6394L24.1451 18.9726C24.3898 18.0659 23.39 17.7023 22.8457 18.3061C22.774 18.0897 22.7023 17.8603 22.6348 17.6396C22.5356 17.8278 22.388 18.0269 22.2129 17.856C22.9491 16.6094 20.1667 17.7932 20.1561 18.4121C22.0547 15.7589 20.7194 17.6331 19.2891 15.6356L18.8546 16.0684C18.7309 15.9373 18.6375 15.7795 18.5813 15.6064C18.5251 15.4334 18.5074 15.2496 18.5297 15.0686L18.2049 15.4019C18.0656 15.0059 17.8694 14.4951 17.4475 14.7353C17.5425 14.1445 16.9012 14.1727 16.4729 14.2895L16.5805 13.8567C15.9477 13.478 15.1883 14.0169 14.6314 13.8567C14.7685 13.359 15.6355 13.4239 15.7156 12.7465L16.1375 12.963C15.8422 12.3137 14.9204 12.1384 14.8381 12.963C14.4162 12.4003 13.7327 12.4695 13.1041 12.7465C13.14 12.5301 13.1779 12.3007 13.2138 12.08L12.4544 12.1904C12.7464 11.9278 13.1059 11.7568 13.4899 11.6977C13.874 11.6386 14.2665 11.6939 14.6208 11.8571C14.3213 11.275 14.4668 10.6409 15.163 11.0802L15.163 10.6344C15.0489 10.6527 14.9322 10.6293 14.8331 10.5684C14.734 10.5075 14.6589 10.4129 14.6208 10.3011C14.1989 10.6517 13.256 10.7556 12.8889 10.0241C12.5198 9.08271 11.041 9.88561 11.0474 8.74513C10.4609 9.34675 9.8998 8.31231 9.42306 8.31231L9.53065 7.75612L8.33878 7.53971C8.39574 7.21726 8.4991 6.81691 8.2312 6.65027C8.13205 6.91429 7.97174 7.16316 7.68907 7.08309L7.68907 6.86668L7.14903 6.86668C7.22075 6.53558 6.86215 6.2391 6.6069 5.97724C6.44447 6.22828 6.24405 6.48798 5.95716 6.42089C6.23983 6.12658 6.44867 5.75865 6.16811 5.42106C7.01191 5.80626 7.64475 5.24363 8.00969 4.42127C8.0499 4.57082 8.13368 4.70419 8.24979 4.80358C8.36589 4.90297 8.50881 4.9636 8.65943 4.97741C8.37887 5.18083 8.04135 5.36697 7.79454 5.0878C7.81775 5.60719 8.6974 5.95343 8.21644 6.64377C9.24587 6.09626 9.90402 7.69336 10.8153 7.75396C11.3828 6.61131 12.043 8.03098 12.6569 8.42052C12.119 8.20411 11.579 8.24953 11.2499 8.75377C11.9608 8.45729 12.8025 9.12383 13.0893 9.86612C13.1632 9.79254 13.2349 9.7168 13.3003 9.64971C13.4712 9.86612 13.7032 10.0263 13.95 9.86612C13.8783 9.68 13.8066 9.49607 13.7391 9.30995L13.199 9.52637C13.1062 9.23205 12.9586 8.86199 12.9881 8.63692L14.1799 8.85333C14.1849 8.78339 14.1732 8.71325 14.1458 8.64897C14.1185 8.58469 14.0764 8.5282 14.023 8.48434C13.9697 8.44048 13.9067 8.41057 13.8396 8.39719C13.7725 8.38381 13.7033 8.38735 13.6378 8.40752L13.7454 8.07424C14.3192 8.2214 14.4415 8.74079 14.2875 9.29696L15.587 8.86414C14.2643 9.94619 16.9075 10.4612 16.454 9.19742C17.1438 9.25152 17.3969 10.1842 17.6458 10.8638C18.0023 10.6257 17.9834 10.0977 17.9707 9.64104C18.2787 9.68433 18.7153 9.72111 18.6204 10.0739C18.9031 9.97648 19.2533 9.84448 19.1605 9.51987C19.9515 9.51987 19.9156 10.8638 20.6772 11.0758C19.0043 11.2338 20.1941 12.199 20.5696 13.0755L21.1117 12.7422C19.7701 11.9025 22.3247 10.4093 22.736 11.8528L21.3269 11.7424C21.407 12.9197 22.7128 12.4306 23.1685 11.7424C23.2318 12.3245 23.1537 13.2984 23.7106 13.4087C24.0924 12.6794 23.1516 12.1103 24.1325 11.6299C24.1578 11.9848 24.5544 12.0324 24.8919 12.0756C24.4552 12.16 24.335 13.3092 24.7822 13.2962L24.7822 12.8634C25.8138 13.162 27.4718 12.9456 25.7568 14.4194C26.1175 14.5644 26.1977 15.1054 26.2989 15.5296C26.6048 15.4646 26.4361 14.9561 26.4065 14.6401C27.2503 14.6401 28.0118 14.3761 28.1405 13.5299L28.1405 14.5298C28.5624 14.3977 28.8388 14.9885 29.2227 14.7462C27.9022 16.2351 29.7332 16.3736 29.7648 14.8565C30.3133 15.3088 31.5263 16.2242 31.2816 17.3019L31.4925 17.3019C31.4313 16.7371 31.5157 16.1355 32.1443 16.1896C31.3976 16.9384 33.7159 17.4102 34.2011 17.6352L33.9901 18.1892C34.642 19.2886 37.3653 18.6221 37.5763 19.8015C37.2113 19.7322 36.5953 19.2626 36.7093 20.0785L36.1671 19.8621C36.4646 21.3964 39.709 18.9662 39.0909 21.0826C39.1622 21.0969 39.2301 21.1254 39.2906 21.1667C39.3511 21.208 39.4031 21.2611 39.4435 21.3231C39.4838 21.385 39.5119 21.4546 39.526 21.5277C39.54 21.6009 39.5398 21.6761 39.5254 21.7492C39.8376 21.6821 40.2595 21.5847 40.2827 21.9656L40.4937 21.8552C40.6877 22.3594 39.9136 22.288 39.9515 22.6321L40.7109 22.6321C40.289 23.1623 42.2488 24.2271 40.8185 24.0777C40.8185 24.5344 40.2469 24.6058 40.4937 25.0776L39.6267 24.8611L39.5191 25.861C40.2764 25.6078 41.2911 24.7789 40.9261 26.4171C40.5042 25.7333 39.9136 27.0664 39.5191 26.9711L39.73 28.0835C38.593 28.7782 36.4688 29.7974 35.6144 30.7496C35.1061 30.2714 34.6588 31.2149 34.2074 30.966C34.5723 32.0113 32.8151 31.585 32.5198 32.1866C31.5741 32.5398 30.681 33.0263 29.8661 33.6322L29.8661 33.4158C29.5729 33.3509 29.3239 33.6322 29.1088 33.8616C29.037 33.7123 28.9632 33.5651 28.8978 33.4158C29.1088 34.7749 26.2167 33.4829 27.0562 34.6385C26.8305 35.0562 25.1577 34.4719 25.5416 35.4154C24.894 35.2639 24.8139 36.1707 24.1325 36.082C24.1325 35.8223 24.0924 35.4717 24.3434 35.4154C23.9933 35.1428 23.6937 36.3936 23.1516 36.082C22.5187 35.8309 22.5462 37.1207 21.9597 36.7507L21.9597 36.9671C21.6222 36.7377 20.9219 37.5233 20.5527 37.0796C20.365 37.7288 18.2323 38.2352 17.1944 38.6334L17.2007 38.2352ZM9.51164 37.8457C9.75423 37.4432 10.2099 37.3891 10.1614 36.7918C11.2288 37.177 12.3299 36.3871 13.3024 36.2356C13.1547 36.5213 12.9564 36.8848 12.6527 36.6684L12.6527 37.4475C11.581 37.1164 10.4715 38.2136 9.40408 38.1141L9.51164 37.8457ZM16.1186 37.6791L16.2261 37.6791L16.2261 37.3458L15.9308 37.3458C15.9646 37.4627 16.0046 37.6791 16.1418 37.6661L16.1186 37.6791ZM16.9307 37.5687L16.9856 37.4583L17.1965 37.5687L16.8716 37.6791L16.9307 37.5687ZM12.8151 37.2917C12.7961 37.1986 12.7792 37.1056 12.7603 37.0125L13.0851 37.125L12.8742 37.5579C12.87 37.4626 12.8531 37.3696 12.8341 37.2787L12.8151 37.2917ZM15.4688 36.9022L15.6798 36.7918L15.5701 36.5754L15.3592 36.6858L15.4688 36.9022ZM21.2088 36.0127L21.5336 35.9024L21.2088 35.7898L21.2088 36.0127ZM14.4394 35.1795C14.4816 34.7792 14.6693 34.7749 14.9267 34.79C15.0069 35.2012 14.779 35.4825 14.3846 35.5691C14.4225 35.4262 14.4415 35.2986 14.4542 35.1666L14.4394 35.1795ZM22.5082 35.5691C22.8689 35.5409 22.9491 35.0432 23.0503 34.6796C22.8984 34.7689 22.7708 34.8959 22.6794 35.0491C22.5879 35.2023 22.5356 35.3767 22.5272 35.5561L22.5082 35.5691ZM24.7822 35.3527L24.9932 35.3527L24.9932 34.909L24.7822 34.909L24.7822 35.3527ZM15.3064 35.0757L15.3613 34.909C15.3233 35.0194 15.2874 35.1254 15.2516 35.2423C15.298 35.1666 15.298 35.1103 15.3254 35.0562L15.3064 35.0757ZM15.0955 34.5195C15.0786 34.4632 15.0596 34.4091 15.0427 34.3529L15.3676 34.2425C15.2937 34.3896 15.222 34.539 15.1566 34.6753L15.0955 34.5195ZM21.7572 34.5758C22.0694 34.3594 22.3901 34.0694 22.2973 33.6863C22.6137 33.6019 22.7445 33.9503 22.8394 34.2425C22.928 33.7209 22.6284 33.247 22.0821 33.353L22.1897 32.9094C21.8311 32.851 21.5294 32.9873 21.4323 33.353L20.9978 32.7969L20.4578 33.576C20.8797 33.3595 21.078 34.5758 21.4323 34.4632L21.4323 33.9092L21.7572 33.9092L21.7572 34.5758ZM24.4637 34.5758L24.6746 34.0196C24.5249 34.1581 24.3076 34.3593 24.4763 34.5563L24.4637 34.5758ZM25.8728 34.2425L26.2947 33.6863L25.8728 33.576L25.8728 34.2425ZM19.4832 33.6863L19.6941 33.2535C19.5275 33.3249 19.3334 33.4764 19.4959 33.6668L19.4832 33.6863ZM27.822 33.576L28.1469 33.2427L27.822 33.2427L27.822 33.576ZM24.4595 32.9159C24.9658 32.9159 25.3539 32.6779 25.3265 32.1368C25.0944 32.4182 24.8075 32.6475 24.4595 32.5826L24.4595 32.9159ZM21.8606 32.5263C21.9416 32.4754 22.0053 32.4001 22.0431 32.3106C22.0808 32.2211 22.0907 32.1219 22.0715 32.0265L22.3964 32.2429L22.504 31.9096C21.9576 31.7884 20.8818 32.7016 21.8774 32.5004L21.8606 32.5263ZM24.5692 32.0265L24.894 31.9139L24.6831 31.8035L24.5692 32.0265ZM26.9508 32.0265L27.6005 31.9139C27.3959 31.6499 27.1448 31.7473 26.9676 32.0005L26.9508 32.0265ZM28.8999 31.81L29.1109 31.3772L28.786 31.4876L28.8999 31.81ZM26.5183 31.5936C26.5679 31.6055 26.6195 31.6059 26.6693 31.5949C26.7191 31.5838 26.7659 31.5615 26.8063 31.5296C26.8467 31.4977 26.8796 31.457 26.9028 31.4105C26.926 31.3639 26.9387 31.3126 26.9402 31.2604L26.5183 31.5936ZM31.3912 31.1608L31.7161 30.8275L31.3912 30.8275L31.3912 31.1608ZM28.3599 30.9379L28.7818 30.8275C28.7143 30.2562 28.4021 30.4618 28.3768 30.8881L28.3599 30.9379ZM23.8646 30.7215C23.8815 30.6847 23.9005 30.6458 23.9194 30.609L23.8097 30.8254L23.8646 30.7215ZM25.164 30.332L24.894 30.1653C25.1809 29.9035 25.5079 29.6546 25.8686 29.7325C25.6091 29.9489 25.3665 30.2476 25.6577 30.5094C25.4762 30.4959 25.3061 30.4133 25.1809 30.2779L25.164 30.332ZM30.4167 30.2757L31.3912 29.6092C31.0495 28.8496 30.577 29.7563 30.4335 30.2216L30.4167 30.2757ZM34.6356 29.8429C34.7095 29.7325 34.7812 29.6265 34.8466 29.5096L34.5217 29.62L34.6356 29.8429ZM35.0702 29.2932L35.2811 29.2932L35.1735 28.9599L35.0702 29.2932ZM30.3049 29.1828L30.4124 29.1828L30.3049 28.2934C29.8935 28.1571 30.1234 29.0638 30.3259 29.1114L30.3049 29.1828ZM34.2032 28.2934C34.6377 28.315 35.336 28.315 35.2326 27.7372C34.9774 27.0469 34.4648 27.8541 34.2243 28.222L34.2032 28.2934ZM34.0956 27.1832L34.4205 26.8499L34.0956 26.8499L34.0956 27.1832ZM32.0367 27.0166L32.1464 26.9603L31.9355 27.0707L32.0367 27.0166ZM35.3887 25.7549C35.741 25.4736 35.9984 25.0819 35.5997 24.7551C35.4631 24.8555 35.3684 25.005 35.3344 25.1738C35.3003 25.3427 35.3296 25.5184 35.4161 25.6662L35.3887 25.7549ZM41.2362 25.2009C41.2362 24.9628 41.3944 24.9174 41.5611 24.8676C41.5969 25.0148 41.6328 25.162 41.6708 25.3005L41.2362 25.4108L41.2362 25.2009ZM32.3553 24.4781L32.465 24.3115L32.254 24.6447L32.3553 24.4781ZM35.9288 24.2119L36.2557 24.0994C36.2482 24.0631 36.2338 24.0287 36.2132 23.9981C36.1927 23.9676 36.1665 23.9415 36.1361 23.9214C36.1057 23.9013 36.0718 23.8875 36.0362 23.8809C36.0006 23.8743 35.9641 23.875 35.9288 23.883L35.9288 24.2119ZM30.4061 23.8224C30.4061 23.606 30.7457 23.5194 30.9482 23.4328C31.0347 23.8072 30.7521 23.9717 30.4061 23.989L30.4061 23.8224ZM37.7703 23.989L38.0952 23.3225C37.7323 23.2273 37.6733 23.5475 37.7978 23.8895L37.7703 23.989ZM35.4963 23.4328L35.6039 23.2164L35.3929 23.2164L35.4963 23.4328ZM37.013 23.1061L37.224 22.9957L36.8991 22.8832L37.013 23.1061ZM34.5217 22.7728L34.7327 22.7728C34.6715 22.3162 34.6989 21.641 34.4078 21.4397L34.083 21.773C34.0576 21.457 33.7961 21.4419 33.5408 21.5566C33.8066 21.9439 34.2433 22.2815 34.5491 22.6667L34.5217 22.7728ZM30.1888 22.5564L30.2985 22.446L30.0876 22.6624L30.1888 22.5564ZM28.8894 22.3897L28.9991 22.3356L28.7881 22.446L28.8894 22.3897ZM27.3727 22.2231L27.1617 22.1127L27.919 21.7795C27.9162 21.8411 27.8988 21.901 27.8683 21.9542C27.8379 22.0074 27.7953 22.0522 27.7442 22.0847C27.6932 22.1173 27.6352 22.1367 27.5753 22.1412C27.5153 22.1457 27.4552 22.1352 27.4001 22.1106L27.3727 22.2231ZM32.2477 22.0024L32.6696 21.6691C32.59 21.6507 32.5066 21.6619 32.4344 21.7008C32.3621 21.7396 32.3056 21.8036 32.2751 21.8812L32.2477 22.0024ZM35.9288 22.0024L36.2557 22.0024L36.2557 21.4484C36.2071 21.4538 36.1602 21.4697 36.118 21.4951C36.0759 21.5205 36.0394 21.5548 36.0111 21.5957C35.9828 21.6366 35.9633 21.6832 35.9538 21.7324C35.9443 21.7816 35.9452 21.8323 35.9562 21.8812L35.9288 22.0024ZM33.1674 21.7232L33.3299 21.6691C33.2813 21.4527 33.0767 21.4678 32.908 21.5566C32.9755 21.5631 33.0176 21.6799 33.1948 21.6107L33.1674 21.7232ZM40.2068 21.5566L40.3713 21.4462L40.3713 21.6626L40.0444 21.6626L40.2068 21.5566ZM34.739 21.5566C34.9198 21.5277 35.0845 21.4336 35.2036 21.2911C35.3228 21.1487 35.3884 20.9673 35.3887 20.7797L34.739 21.5566ZM38.2049 21.4462C38.5192 21.4181 38.5993 21.087 38.6268 20.7797L38.2049 20.7797L38.2049 21.4462ZM25.0986 20.89L25.2083 20.7797L24.9974 20.9961L25.0986 20.89ZM33.5471 21.0025L33.969 21.0025L33.969 20.7861L33.5471 20.7861L33.5471 21.0025ZM24.6662 20.2797C25.2463 19.6305 25.3476 20.5568 24.5586 20.5568L24.6662 20.2797ZM30.6761 20.3901C31.0179 19.9032 30.3702 18.9294 29.9737 19.8902C29.8893 19.531 29.6762 19.2561 29.3239 19.4574C29.4315 19.6046 29.5349 19.7539 29.6488 19.8902L29.3239 19.8902L29.3239 20.2235C29.5356 20.1023 29.7757 20.0433 30.018 20.0528C30.2602 20.0624 30.4952 20.1401 30.6972 20.2776L30.6761 20.3901ZM31.8153 20.336C32.1127 20.336 32.1781 20.2884 32.2372 20.1196C31.714 19.6284 30.7289 20.1499 31.8427 20.2235L31.8153 20.336ZM22.7698 20.1196C22.7888 20.0828 22.8078 20.046 22.8246 20.0092L22.717 20.2256L22.7698 20.1196ZM23.6368 19.6868C23.6558 19.6478 23.6726 19.611 23.6916 19.5742L23.584 19.7907L23.6368 19.6868ZM28.5645 19.5742C29.151 19.3578 29.5096 18.1914 28.6742 18.7973L28.3494 18.2412C28.0667 18.5831 28.3135 18.8666 28.6742 19.0181C28.621 19.0729 28.5845 19.1423 28.5691 19.218C28.5538 19.2937 28.5602 19.3724 28.5877 19.4444L28.5645 19.5742ZM21.9049 19.1414C21.8331 18.899 22.0125 18.8579 22.1749 18.8082L22.1749 19.3622C22.061 19.2345 21.9808 19.2193 21.9323 19.0008L21.9049 19.1414ZM33.7644 19.2518L33.872 19.2518L33.872 18.819L33.5471 18.819C33.6168 18.8233 33.6505 19.109 33.7918 19.1111L33.7644 19.2518ZM32.5726 18.819C32.7519 18.5593 32.7835 18.2715 32.465 18.1524L32.5726 18.819ZM35.3887 18.6026C35.2537 18.3191 34.8044 18.5268 34.5217 18.6026C34.6293 18.3429 34.7327 18.0832 34.8466 17.8257C35.2221 18.1113 35.9161 18.4208 35.8212 18.8255C35.6651 18.6762 35.5174 18.6762 35.4161 18.4446L35.3887 18.6026ZM26.723 18.6026C26.7968 18.529 26.8685 18.4554 26.9339 18.3862C26.9002 18.2974 26.8242 18.371 26.7504 18.4446L26.723 18.6026ZM19.1963 18.1697C19.1794 18.133 19.1604 18.094 19.1415 18.0572L19.4684 17.9468L19.4684 18.2801C19.3883 18.1156 19.2765 18.1221 19.2237 18.0009L19.1963 18.1697ZM31.8153 18.2239L32.1401 18.1698C32.1021 17.9836 32.0663 17.7997 32.0304 17.6136L31.2731 17.83C31.4039 17.9057 31.5009 18.133 31.8427 18.055L31.8153 18.2239ZM26.8327 18.1697L27.3727 18.0572C27.335 17.9456 27.2603 17.851 27.1616 17.7901C27.0629 17.7292 26.9465 17.7058 26.8327 17.724L26.8327 18.1697ZM32.7898 17.9533L33.0008 17.843L32.6759 17.7304C32.7434 17.6309 32.7793 17.7045 32.8173 17.7694L32.7898 17.9533ZM19.3587 17.2868L19.4684 17.1764L19.2575 17.3928L19.3587 17.2868ZM25.7484 17.3972C25.9931 17.4123 26.088 17.1526 26.1829 16.9644L25.3159 16.854C25.4235 16.9038 25.5206 17.2349 25.7758 17.2219L25.7484 17.3972ZM30.8386 16.9644L31.0495 16.748L30.7246 16.748L30.8386 16.9644ZM26.2905 16.854L26.6154 16.5207L26.2905 16.5207L26.2905 16.854ZM29.9737 16.854L30.2985 16.854L30.2985 16.5207L29.9737 16.854ZM21.85 16.7415C22.2572 16.5402 21.7551 15.7849 21.4703 16.1874C21.4324 16.155 21.7319 16.3974 21.8774 16.5553L21.85 16.7415ZM19.9009 16.525L20.3228 16.0792L19.673 15.9689L19.9009 16.525ZM22.5546 16.4125L22.8246 16.4125C22.6538 16.1204 22.8774 15.7373 23.0356 15.4127C22.8056 15.5144 22.4259 15.601 22.4934 15.8585L21.9513 15.8585C22.1264 15.9148 22.2783 16.2394 22.582 16.2221L22.5546 16.4125ZM27.3727 16.1961L27.8072 15.9797L27.2651 15.8693L27.3727 16.1961ZM19.0339 15.6399L19.6836 15.1941C19.3651 14.9452 19.0676 15.0643 19.0613 15.4452L19.0339 15.6399ZM20.5506 15.5296C21.0716 15.4127 21.0379 14.6358 21.0927 14.0839L20.6582 14.1943L20.8691 14.5276L20.6582 14.5276C20.7615 14.6921 20.8206 15.0838 20.5717 15.3348L20.5506 15.5296ZM26.8854 14.1943C26.8137 13.9563 27.0035 13.7918 27.1575 13.6403L27.59 14.3068C27.3748 14.1467 26.9782 14.2809 26.9128 13.9995L26.8854 14.1943ZM19.576 13.861C19.827 13.9303 19.9093 13.5429 19.9979 13.307L19.4579 13.307C19.5089 13.3482 19.549 13.4019 19.5745 13.4632C19.5999 13.5245 19.6099 13.5913 19.6034 13.6576L19.576 13.861ZM16.2177 13.5278L16.4287 13.3114L16.1038 13.1988L16.2177 13.5278ZM17.842 13.1945L17.9517 13.1945C18.0487 12.7833 17.6479 12.5215 17.302 12.3072C17.2282 12.4544 17.1564 12.6037 17.091 12.7509C17.4855 12.4198 17.6543 12.8807 17.8694 13.0084L17.842 13.1945ZM18.2766 13.1945L18.4875 13.1945L18.3799 12.9781L18.2766 13.1945ZM24.8793 12.9175L24.9869 12.8612L24.7759 12.9738L24.8793 12.9175ZM25.529 12.5842L25.4193 12.4176L25.7442 12.528L25.6366 12.7444L25.529 12.5842ZM16.7556 12.528L17.1775 11.9739L16.6375 12.0843L16.7556 12.528ZM20.1667 12.0843L20.2215 11.9739L20.1139 12.1904L20.1667 12.0843ZM12.0979 11.9739L12.0979 11.8614L12.4227 11.9739L12.0979 12.0843L12.0979 11.9739ZM17.6226 12.0843L17.9475 12.0843L17.9475 11.751L17.6226 12.0843ZM19.3102 11.751L19.4727 11.751L19.1457 11.1949L19.5802 11.3074L19.6878 10.6387C19.1373 10.7145 18.8103 11.487 17.9559 11.3074C18.5107 11.0845 18.9579 11.3853 19.3334 11.5563L19.3102 11.751ZM23.1537 11.5844L23.2613 11.5282L23.0503 11.6407L23.1537 11.5844ZM22.3964 11.2511L22.3964 11.0845L22.6073 11.0845L22.6073 11.4178L22.3964 11.4178L22.3964 11.2511ZM12.756 11.1949L12.8657 11.0845L12.6548 11.3009L12.756 11.1949ZM10.8575 11.0282L10.8026 10.8616L11.3448 11.078C11.2035 10.9308 10.9461 11.0412 10.8849 10.8335L10.8575 11.0282ZM15.4709 11.0845L15.7958 10.8681L15.3739 10.8681L15.4709 11.0845ZM16.2283 10.972L16.878 10.972L16.7704 10.3054L16.3485 10.418L16.5594 10.7512L16.2283 10.972ZM21.3733 10.7556L21.3185 10.643L21.5294 10.5327L21.637 10.7491L21.426 10.8594L21.3733 10.7556ZM12.3848 10.3098L12.3299 10.1994L12.6548 10.089L12.4438 10.4223C12.4375 10.1951 12.4185 10.1496 12.4017 10.1107L12.3848 10.3098ZM14.6039 10.4223L14.9288 10.2059L14.6039 10.2059L14.6039 10.4223ZM20.3439 10.2557L20.4535 10.1994L20.2426 10.3098L20.3439 10.2557ZM10.5959 9.80985L10.5959 9.64321L11.0305 9.75574L10.5959 9.97215L10.5959 9.80985ZM16.0658 9.03295C16.049 8.93989 16.03 8.84683 16.0131 8.75593L16.5531 8.6434C16.589 8.82951 16.6269 9.01347 16.6628 9.19958L16.1418 9.11302C16.1186 9.01996 16.1017 8.92689 16.0827 8.83384L16.0658 9.03295ZM7.1849 8.47679C8.81553 7.27571 8.66153 8.23439 7.02246 8.75593C7.09419 8.46378 7.14903 8.37073 7.20176 8.27768L7.1849 8.47679ZM9.13406 8.42268C9.15305 8.38589 9.16992 8.34693 9.18891 8.31014L9.2965 8.52655L9.08555 8.52655L9.13406 8.42268ZM16.7704 8.42268L16.878 8.31015L16.667 8.52655L16.7704 8.42268ZM10.6529 7.42285C10.5812 7.27785 10.2521 7.31466 10.058 7.31034C10.3808 7.17832 10.4504 6.78446 10.4799 6.42089L11.1296 7.08959L10.7077 7.52241L10.6529 7.42285ZM5.56269 7.08959C5.54581 6.97706 5.52683 6.87317 5.50784 6.75631L5.83271 6.86668L5.62176 7.42284L5.56269 7.08959ZM11.7372 7.25623C11.7962 7.03982 12.0536 7.15885 12.2245 7.19996L11.6823 7.41637C11.7118 7.16534 11.7329 7.11123 11.7519 7.05712L11.7372 7.25623ZM5.183 6.47714C5.04799 6.41221 5.14503 6.21746 5.183 6.08761L5.50784 6.42089C5.42135 6.27806 5.31167 6.34514 5.19775 6.27805L5.183 6.47714ZM7.67429 6.42089L7.88524 6.31052L7.56037 6.20015L7.67429 6.42089ZM4.04598 5.97724C4.02911 5.90366 4.01012 5.83008 3.99325 5.76083L4.53326 5.65046C4.55247 5.71653 4.55602 5.78635 4.54361 5.85411C4.5312 5.92187 4.5032 5.9856 4.46193 6.04001C4.42066 6.09442 4.36732 6.13794 4.30635 6.16692C4.24537 6.1959 4.17851 6.2095 4.11136 6.20662C4.0966 5.92745 4.07972 5.85172 4.06074 5.77814L4.04598 5.97724ZM2.5841 5.36695L2.47651 5.0878L2.80138 5.0878L2.69379 5.64396C2.67059 5.35181 2.64107 5.26093 2.59888 5.16787L2.5841 5.36695ZM2.96381 5.53359L2.90897 5.42106C3.09038 5.33233 3.29288 5.30636 3.34351 5.53359C3.2317 5.37345 3.04185 5.47302 2.97857 5.33451L2.96381 5.53359ZM4.31809 5.14407C4.08183 4.75886 4.14302 4.37798 4.20842 3.97762L3.45109 3.97762C4.41935 2.17493 6.71237 6.32782 4.32865 4.94497L4.31809 5.14407ZM7.72914 3.64434C7.71015 3.57076 7.69327 3.49502 7.67429 3.42793L7.99916 3.54047L7.78821 3.87375C7.77977 3.59242 7.76077 3.51884 7.74389 3.44526L7.72914 3.64434ZM3.66838 2.47792C3.82448 2.20957 4.03965 2.43464 3.99325 2.64456L3.55868 2.64456L3.66838 2.47792Z" fill="#F8F963"/>
    <path d="M42.7796 45.168L42.3577 45.1117C42.4526 43.0558 43.3344 42.1642 44.522 40.8895C45.1802 40.8744 46.5028 39.0955 47.2306 40.3334C46.7222 39.3466 51.2386 36.8708 51.1289 38.0005L51.6711 37.5677C51.7639 37.9507 51.9242 38.3381 52.3208 38.3446L52.3208 37.124L51.7787 37.124C51.7787 36.2151 55.2741 37.0418 54.1624 36.1221C54.8163 35.1396 56.679 34.8474 57.5734 34.0121C58.1008 34.5055 59.6513 34.064 58.4953 33.4559L59.3602 33.5684C58.702 32.6422 59.9445 32.5643 60.4444 33.2352C60.4818 33.1232 60.5564 33.0285 60.6552 32.9675C60.754 32.9065 60.8706 32.8833 60.9845 32.9019L60.8769 32.3457C61.1891 32.2548 61.5097 32.2289 61.7439 32.4561C61.111 31.2117 63.8154 30.3136 64.8849 30.1232L64.8849 30.9001C65.6106 30.4673 65.8953 29.1991 66.7834 29.4567C67.1273 29.5887 67.2665 29.5757 67.2707 29.1796C67.2918 28.7079 68.4078 28.9264 68.4626 28.4568C68.1926 28.4201 67.9521 28.2967 67.9204 28.011C68.3951 28.0954 68.6081 27.5306 69.1123 27.7946L69.0047 28.2274L69.2157 28.2274C69.087 27.7622 69.8802 27.8942 69.8675 27.4505C71.1184 28.9459 71.0572 26.1867 72.0318 26.1715C72.9895 26.0936 72.7892 25.0289 73.8734 25.4509L73.7658 25.0051L74.1983 25.2215C74.308 25.0051 74.4092 24.7887 74.5231 24.555C75.8057 25.3016 74.4978 23.2002 74.1455 23.276C73.9198 23.3517 72.5023 22.8064 72.574 22.4428C75.966 23.1548 72.6267 21.3803 71.1669 21.6659C71.1912 21.5808 71.1855 21.4896 71.1509 21.4083C71.1163 21.327 71.055 21.2608 70.9777 21.2211C70.9003 21.1815 70.8119 21.1709 70.7277 21.1913C70.6436 21.2117 70.5691 21.2617 70.5172 21.3326C69.4477 20.0558 67.3171 20.4821 66.0873 19.1101C66.2308 18.9629 66.3742 18.8136 66.5092 18.6773L66.1843 18.344C65.9987 18.541 65.6675 18.7898 65.8595 19.0106C65.2899 18.7942 64.6107 18.4457 63.9103 18.4544L64.1213 17.8982L64.4461 18.2315C64.4841 17.9242 64.5664 17.5931 64.8807 17.565L64.6697 17.1321C64.4018 17.5022 63.9167 16.9828 63.6952 17.3486C63.7669 17.1321 63.8386 16.9027 63.9061 16.682L62.8218 17.6818C62.8577 16.708 61.5561 17.4394 61.5224 16.682C60.0711 16.6539 51.9854 13.3969 52.9663 11.2371C52.9895 12.7131 49.8021 11.8561 50.7999 11.1268L50.1501 11.2371L50.1501 10.9039C49.1418 11.38 46.4185 8.23987 46.1421 9.01461C45.6717 8.92805 45.4671 8.49091 45.3827 8.01481C44.1845 8.53202 42.9167 7.01065 42.0265 6.40471C40.995 6.1277 42.0497 5.1214 41.4844 4.56956C41.8683 4.37046 42.5623 4.2038 42.459 3.79263L42.1341 3.79263C43.4251 2.18038 46.159 -2.21923 47.007 1.68047C46.9268 1.22168 47.218 0.814855 47.5492 0.459943C47.5724 1.20006 50.0046 1.48139 49.8232 2.23666C50.5214 1.98129 50.8568 2.58291 51.5572 2.45307L51.5572 2.88589C52.1204 3.1023 54.3649 4.02852 54.2636 4.77514C55.5293 4.42888 58.2274 5.50227 58.3792 6.77476L58.7041 6.77476L58.7041 6.55835C59.8559 6.72715 60.7714 7.78323 61.8451 7.7789L61.7376 8.77871C62.5814 7.53652 62.921 9.14228 64.1192 8.89125L64.1192 9.44527C64.5685 10.1551 66.3236 9.39983 66.6105 10.4451C66.9438 11.0575 69.6882 11.1203 69.1018 12.4469C69.8591 12.3473 70.6965 12.2954 71.1606 12.8797C70.7155 12.8797 70.5151 13.2194 70.5109 13.6566C71.1859 13.3017 72.3504 12.9576 71.8104 14.1024L72.7849 14.1024L72.7849 14.3188C73.2575 14.0353 73.3946 14.8274 73.8671 14.5352L73.7595 15.0914L73.325 14.9789L73.325 15.4247L73.7595 15.4247L73.7595 15.9808L74.5168 15.6476C74.5052 15.6985 74.5048 15.7514 74.5156 15.8025C74.5264 15.8536 74.5481 15.9016 74.5792 15.943C74.6103 15.9844 74.65 16.0182 74.6954 16.042C74.7408 16.0657 74.7907 16.0789 74.8417 16.0804C74.8775 15.4679 74.2236 15.4853 74.0844 14.968C74.8712 14.7776 75.1792 15.4961 75.4914 16.0241C75.2193 16.3639 74.8396 16.4851 75.2214 17.0802C75.7234 17.4568 75.8542 17.9047 76.466 18.1363C77.0419 17.7857 78.219 17.9718 78.7421 17.5238C78.7822 18.2272 79.4868 18.2099 80.0416 18.08C80.3707 18.5128 80.782 19.1621 81.341 19.5256L80.9065 19.9584L81.5562 20.2917C80.9782 20.4865 81.6532 21.8196 80.6913 21.4019C80.8411 22.3931 79.9593 23.566 79.1197 23.7824C78.5902 24.1135 79.048 25.3535 77.9827 25.0614L77.9827 25.6154C77.1284 25.1393 75.9576 26.0807 76.0335 26.9485C75.3037 26.8706 73.6119 28.0457 73.0001 28.5044L72.6752 28.1712C72.401 28.511 72.0086 29.2143 71.6479 29.0044C71.3589 28.3248 70.1713 28.2383 70.9434 29.0606C70.6902 29.2208 70.4413 29.4437 70.6185 29.7272C69.4477 29.0368 69.4013 28.5304 69.2114 30.2833C68.7896 30.5235 68.0217 29.989 68.3445 30.9499C67.4838 30.1968 67.2539 31.7311 66.6105 31.5039C66.6822 31.3935 66.756 31.2875 66.8214 31.1706C66.4206 31.0884 66.1464 31.3243 66.0641 31.7268L66.486 31.6164C66.5746 31.967 66.14 32.1293 65.8363 32.283L65.6253 31.8372C65.3532 32.0016 65.5072 32.3435 65.6253 32.6162C64.4588 32.5383 63.2332 33.1096 62.8092 33.9493C62.2375 33.5403 61.1216 33.9233 60.86 34.6158C61.303 34.7435 61.689 34.2956 62.0519 34.2826C62.0223 34.7695 61.3009 34.499 61.1849 34.9491C60.2883 34.0835 59.8327 36.4359 59.2357 35.1655C59.1112 35.7607 58.6872 36.0117 58.1535 35.7195C58.278 37.6932 56.6326 35.5291 56.6895 36.9422C54.8965 39.1539 50.783 39.9374 48.5132 42.0538L47.8635 41.621C48.1082 42.7658 47.0661 42.2551 46.6716 42.7312C46.1506 43.1099 45.638 43.6379 44.9397 43.6206C44.8743 44.5685 43.5643 45.1442 42.7796 45.168ZM41.9126 44.3348L42.0223 44.1184L42.1299 44.5512L41.805 44.5512L41.9126 44.3348ZM54.0443 38.667C54.3016 38.7385 54.3185 38.3489 54.3691 38.113C54.26 38.1513 54.1676 38.2279 54.1082 38.3293C54.0488 38.4306 54.0261 38.5502 54.0443 38.667ZM53.6097 38.5004C53.8439 38.4528 53.8333 38.284 53.8206 38.113L53.2785 38.2234C53.3334 38.39 53.3734 38.574 53.6097 38.5004ZM60.3242 32.5665L60.3242 32.4539L60.6512 32.4539L60.6512 32.6703L60.3263 32.6703L60.3242 32.5665ZM66.2919 30.6815C66.4352 30.6798 66.5722 30.6207 66.6735 30.5168C66.7748 30.4128 66.8324 30.2723 66.8341 30.1253C66.5388 30.2097 66.1991 30.3439 66.2814 30.6685L66.2919 30.6815ZM69.6502 29.8484L69.6502 29.6817L70.0827 29.6817L70.0827 30.015L69.6502 30.015L69.6502 29.8484ZM65.5346 29.7921L65.6422 29.6817L65.4313 29.8981L65.5346 29.7921ZM74.7953 23.1245L74.9577 23.1245C75.0273 22.8605 74.6455 22.8432 74.4156 22.7912C74.4978 22.9276 74.6033 23.1224 74.7847 23.1115L74.7953 23.1245ZM76.4829 22.5705L76.8077 22.0143L76.3858 22.0143L76.4829 22.5705ZM71.8272 22.181C71.2766 21.337 72.5761 21.9992 72.3673 22.458C72.1247 22.4601 72.0065 22.432 71.8061 22.168L71.8272 22.181ZM75.1834 22.458C75.7635 22.1637 75.6053 21.6724 74.9725 21.7914L75.1834 22.458ZM74.4261 21.7914C74.81 21.7481 75.059 21.0967 75.2931 20.6812C74.2173 20.7202 73.7194 19.4542 72.5845 19.5711C72.5845 20.1294 73.4283 20.0363 73.2343 20.6812L73.884 20.1251C74.0949 20.8003 74.5738 20.9734 74.405 21.7784L74.4261 21.7914ZM71.2851 21.1249C71.4264 20.8933 71.6922 20.9258 71.9348 21.0145C71.9538 20.5687 71.1986 20.6618 71.264 21.1119L71.2851 21.1249ZM79.0902 20.9085L79.415 20.7959L78.9805 20.5795C78.9889 20.6683 79.0248 20.7786 79.0628 20.8912L79.0902 20.9085ZM71.6163 20.5752C71.688 20.4259 71.7597 20.2787 71.8272 20.1294L72.2491 20.4627L72.1415 19.5754L72.4643 19.5754C72.1668 19.2659 71.7787 18.6318 71.4897 18.6859L71.4897 19.24C70.8569 18.911 70.5194 19.3071 69.8654 19.3525C70.3506 17.0802 68.99 20.0991 68.5639 19.24L68.7748 19.7961C69.2178 19.24 70.397 19.8805 70.8337 19.4628C70.9834 19.7182 70.8337 19.9541 70.6227 20.1294C70.9877 20.1511 71.3737 20.2528 71.5888 20.5579L71.6163 20.5752ZM79.6323 20.019L80.1745 19.4629C79.8602 19.5451 79.5205 19.6771 79.6028 20.0017L79.6323 20.019ZM71.2935 19.6858L71.1859 19.4693L71.6078 19.6858L71.3969 19.9022L71.2935 19.6858ZM77.7907 19.7961L78.4426 19.6858C78.4742 18.4306 77.3351 18.5583 76.4913 18.963C76.7318 19.7182 77.9996 18.409 77.7612 19.7788L77.7907 19.7961ZM79.3074 19.7961L79.3075 19.3633L78.7674 19.3633C78.6704 19.5927 79.048 19.6771 79.2779 19.7788L79.3074 19.7961ZM68.0449 19.4628L68.1525 19.3525L67.5028 19.0192C67.3741 19.2854 67.7855 19.6403 68.0154 19.4455L68.0449 19.4628ZM75.1919 19.2464C75.2805 18.7271 76.177 19.2032 76.2761 18.8136C75.7677 18.3721 75.3585 18.673 75.1623 19.2226L75.1919 19.2464ZM79.9572 19.1361C79.993 19.0625 80.031 18.9889 80.0669 18.9197C80.0015 18.9651 79.9635 19.0387 79.9277 19.1123L79.9572 19.1361ZM70.8611 18.9197C71.3505 18.7033 71.1058 18.2337 70.6501 18.476C70.686 18.5951 70.7577 18.7422 70.8315 18.8894L70.8611 18.9197ZM73.1351 18.476C73.3018 18.1298 73.0929 17.8268 72.8102 17.5866C72.7385 17.7359 72.6647 17.8831 72.5993 18.0324C72.8461 17.9328 73.0064 18.1817 73.0971 18.4457L73.1351 18.476ZM63.3872 18.0865L63.2796 17.9198L63.6044 17.8095L63.712 18.2423C63.641 18.2633 63.5648 18.2557 63.499 18.2211C63.4332 18.1865 63.3826 18.1276 63.3576 18.0562L63.3872 18.0865ZM66.9606 18.2531L67.0703 18.0367L66.8594 18.0367L66.9606 18.2531ZM65.9333 17.6537C66.3278 17.6147 66.4248 17.3421 66.5282 17.0434C66.0704 16.9352 65.7899 17.5152 65.3363 17.2598C65.4165 17.4849 65.5178 17.6861 65.9038 17.6126L65.9333 17.6537ZM71.8399 17.7099C72.1605 17.7099 72.2175 17.5909 72.2618 17.3767C71.8167 17.0586 70.9012 17.6017 71.8061 17.6688L71.8399 17.7099ZM74.4388 17.7099C75.0336 17.0001 74.0169 16.4483 73.7891 17.4935C73.9874 17.5752 74.194 17.634 74.405 17.6688L74.4388 17.7099ZM75.1961 17.7099C75.2319 17.6342 75.2678 17.5606 75.3058 17.4935L75.0948 17.3832L74.9872 17.5996L75.1961 17.7099ZM77.2549 17.4308C76.8794 17.0391 75.7572 17.5238 75.6306 16.5976C76.3753 16.3595 76.9912 17.0044 77.6874 16.4872C77.873 16.9893 77.9089 17.5368 77.3625 17.7099L77.2549 17.4308ZM73.4093 17.2641L73.6794 17.2641L73.6794 16.7101L72.9221 16.8205C72.9875 17.0001 73.0845 17.2403 73.3756 17.223L73.4093 17.2641ZM62.7417 16.5976C63.0096 16.6365 63.2564 16.5587 63.2838 16.2643L62.7417 16.154L62.7417 16.5976ZM72.3799 16.5976L73.1393 15.8207C72.7048 15.6605 72.8313 14.8901 72.8145 14.3751C72.7238 14.4796 72.665 14.6092 72.6455 14.7477C72.626 14.8862 72.6466 15.0276 72.7048 15.1542C71.6732 14.7408 71.5909 16.1475 72.3461 16.5565L72.3799 16.5976ZM65.233 16.3812C67.8677 16.0371 64.1128 13.3125 64.366 15.2688C65.0811 14.8706 66.1612 15.812 65.1992 16.3357L65.233 16.3812ZM69.6629 16.3812C69.8844 16.3292 69.857 16.1215 69.7705 15.9354L69.6629 16.3812ZM61.6468 16.2687C61.7607 16.2868 61.8771 16.2634 61.9758 16.2025C62.0745 16.1416 62.1492 16.0471 62.1869 15.9354C61.8979 15.851 61.6511 15.9289 61.6257 16.2232L61.6468 16.2687ZM60.8874 16.1583L61.4296 15.9419C61.3599 15.3965 60.3601 15.3165 60.3453 15.8315L60.8874 15.7211L60.8874 16.1583ZM63.7036 16.1583C63.8242 16.0199 63.9904 15.9321 64.1703 15.9117C64.3502 15.8913 64.531 15.9399 64.6782 16.0479C64.714 15.3446 63.6424 15.4333 63.6825 16.1128L63.7036 16.1583ZM67.1146 16.1583L67.2771 16.1583C67.3298 15.9224 67.0324 15.6908 66.8552 15.4917C66.8678 15.6779 66.8805 16.1063 67.0935 16.1128L67.1146 16.1583ZM71.5024 16.0479L71.6099 15.9354L71.188 15.719C70.956 15.8532 71.2977 16.1864 71.4813 16.0025L71.5024 16.0479ZM62.8366 15.7146L62.9463 15.7146C62.9104 15.4982 62.8725 15.2689 62.8366 15.0459C63.3872 15.1109 63.9736 15.0243 63.9209 14.3794C63.5855 14.4963 63.2543 14.4638 63.0539 14.163C62.6235 14.3967 62.3008 15.3792 62.8155 15.6692L62.8366 15.7146ZM68.1441 15.548L68.355 15.4917L67.8129 15.3814C67.8551 15.4766 67.9078 15.5632 68.123 15.5026L68.1441 15.548ZM62.1869 15.2688C62.4379 15.1585 62.3978 14.849 62.3978 14.6023L61.6405 14.8187C61.7544 14.994 61.9021 15.3684 62.1658 15.2234L62.1869 15.2688ZM60.0753 14.8295C60.4402 14.8447 60.7355 14.6391 60.6701 14.2734C60.166 14.4486 59.6386 14.2258 59.1555 13.9401C59.3855 14.2236 59.7209 14.7863 60.0542 14.7798L60.0753 14.8295ZM71.0678 14.8295L71.6099 14.8295L71.6099 14.6131L71.2851 14.6131C71.2703 13.3471 69.5574 14.8079 71.0467 14.7798L71.0678 14.8295ZM67.0598 14.717C67.7728 14.5937 68.4858 14.4032 67.4817 13.9401L67.0598 14.717ZM69.2241 14.717C69.4351 14.6737 69.857 14.6521 69.8759 14.5006C69.722 14.0916 69.26 14.334 69.2051 14.6672L69.2241 14.717ZM66.7349 14.5006L66.9459 14.2842L66.524 14.1738L66.7349 14.5006ZM61.1026 14.2842C61.3346 13.5268 62.2607 14.1522 62.5096 13.6177C61.9422 13.7475 61.8451 13.1653 61.3178 13.0615C61.4359 13.5203 60.8621 13.7453 61.0836 14.2236L61.1026 14.2842ZM65.2182 14.2842C65.4566 13.7648 66.1084 13.9228 66.1928 13.2844C65.6021 13.3515 64.9145 13.5765 65.1992 14.2236L65.2182 14.2842ZM72.7997 13.8405C72.7638 13.767 72.728 13.6912 72.69 13.6241L73.0149 13.6241L72.9073 14.0569L72.7997 13.8405ZM68.5807 13.9509C68.6546 13.8773 68.7263 13.8037 68.7917 13.7345C68.701 13.7432 68.6292 13.8167 68.5554 13.8903L68.5807 13.9509ZM69.2305 13.9509L69.665 13.8405C69.664 13.7869 69.651 13.7341 69.6271 13.6864C69.6032 13.6386 69.569 13.5971 69.5271 13.565C69.4852 13.5328 69.4367 13.5109 69.3853 13.5009C69.3339 13.4909 69.2809 13.4931 69.2305 13.5073L69.2305 13.9509ZM59.2673 13.6177C59.4298 13.0701 58.9615 11.9989 58.6176 12.8407C58.9889 12.7931 59.1513 13.174 59.242 13.5571L59.2673 13.6177ZM58.0185 12.8516C58.2928 12.6654 58.5522 11.9578 58.181 11.8517C58.1071 12.0357 58.0354 12.2218 57.97 12.4057C57.8635 12.2465 57.716 12.1207 57.544 12.0424C57.3719 11.964 57.182 11.9363 56.9954 11.9621C56.9448 12.3993 57.4637 13.174 57.9974 12.7801L58.0185 12.8516ZM61.0499 12.9576L61.2123 12.9576L61.2123 12.6243L60.5626 12.6243C60.6786 12.7001 60.8474 12.8992 61.0288 12.8905L61.0499 12.9576ZM65.4355 12.9576C65.4735 12.884 65.5093 12.8104 65.5452 12.7412C65.4882 12.7433 65.4523 12.8169 65.4144 12.8905L65.4355 12.9576ZM53.6224 12.8472L53.8333 12.8472L53.7257 12.6308C53.6899 12.6308 53.6456 12.7044 53.6097 12.7801L53.6224 12.8472ZM53.8333 12.4014L54.1582 12.0682L53.7363 12.0682L53.8333 12.4014ZM64.1213 12.4014L64.8807 12.2911C64.5833 12.066 64.2373 11.9751 64.115 12.3343L64.1213 12.4014ZM65.2055 12.185C65.2552 12.1969 65.3068 12.1973 65.3566 12.1863C65.4064 12.1752 65.4531 12.1529 65.4935 12.121C65.5339 12.0891 65.5669 12.0484 65.59 12.0018C65.6132 11.9553 65.626 11.904 65.6274 11.8517C65.5825 11.8388 65.5356 11.8354 65.4893 11.8417C65.4431 11.848 65.3986 11.8639 65.3586 11.8884C65.3185 11.9129 65.2837 11.9455 65.2563 11.9842C65.2289 12.0229 65.2095 12.0669 65.1992 12.1136L65.2055 12.185ZM65.7477 12.0725L65.9586 12.0725L65.8511 11.8561L65.7477 12.0725ZM63.1467 11.8561L63.3576 11.7435L63.25 11.5271L63.0391 11.6375L63.1467 11.8561ZM54.3754 11.7435L54.7003 11.6332L54.3754 11.5228L54.3754 11.7435ZM61.0899 11.5271L61.4148 11.1939L61.0899 11.1939L61.0899 11.5271ZM63.4716 11.4146L63.7964 11.3042C63.7892 11.268 63.7749 11.2337 63.7546 11.2031C63.7343 11.1726 63.7083 11.1465 63.6781 11.1264C63.6478 11.1062 63.614 11.0924 63.5786 11.0858C63.5431 11.0792 63.5067 11.0799 63.4716 11.0878L63.4716 11.4146ZM65.8553 11.3042C66.4881 11.1224 66.2308 10.4689 65.6443 10.7481C65.8722 10.7784 65.9882 10.9839 65.8489 11.2242L65.8553 11.3042ZM64.6634 10.9709L65.0853 10.8584L64.8744 10.3044C64.617 10.2784 64.6592 10.629 64.6592 10.8909L64.6634 10.9709ZM56.6474 10.8584L56.8583 10.8584L56.7507 10.642L56.6474 10.8584ZM55.2382 10.5252C55.3121 10.378 55.3838 10.2308 55.4492 10.0815L55.1243 10.1919L55.2382 10.5252ZM52.7469 10.1919L53.1815 10.1919C53.2237 9.70062 52.8461 9.80667 52.7427 10.1118L52.7469 10.1919ZM48.8486 9.97546L49.3907 9.97546L49.3907 9.54698L48.838 9.54698L48.8486 9.97546ZM62.8197 9.97546L63.1446 9.86293L62.7227 9.64652L62.8197 9.97546ZM63.3619 9.97546L63.7943 9.97546L63.7943 9.75906L63.3619 9.97546ZM52.0972 9.4193C52.5191 9.5037 52.8039 9.25265 52.9642 8.86312C52.5508 8.81767 51.9664 8.84581 52.093 9.33057L52.0972 9.4193ZM47.5492 9.20289L48.2052 9.20289C48.3423 8.43897 47.3888 8.44112 47.5449 9.11416L47.5492 9.20289ZM50.148 9.09252L50.4729 8.98215L50.2619 8.86962L50.148 9.09252ZM45.9797 8.03644L46.1421 7.8698L45.4924 7.65339C45.4544 7.80055 45.4186 7.94771 45.3827 8.08621C45.5831 8.06024 45.8088 8.13598 45.9755 7.94554L45.9797 8.03644ZM54.2594 7.43265L54.5843 7.32228L54.2594 7.20975L54.2594 7.43265ZM48.4161 6.73365L48.5237 6.67738L48.1018 6.46097C48.1693 6.56701 48.2748 6.79641 48.4161 6.73365ZM42.459 6.23159L42.6699 6.23159L42.6699 5.89832L42.459 6.23159ZM45.4924 5.56504L45.7034 5.34863L45.1633 5.13222C45.2709 5.26206 45.3785 5.40924 45.4882 5.5564L45.4924 5.56504ZM47.2306 3.01142L47.4416 3.01142C47.4057 2.89889 47.3677 2.795 47.3319 2.67814L47.2306 3.01142ZM45.389 2.24965L45.6 2.24965L45.4924 1.91637C45.4502 2.00078 45.4143 2.11329 45.3785 2.22366L45.389 2.24965ZM46.5809 2.08302C46.8594 1.77139 46.313 1.65019 46.0388 1.69347C46.1822 1.81682 46.4206 2.12627 46.5704 2.05702L46.5809 2.08302ZM44.3069 1.69347L44.4145 1.47706L44.2035 1.47706C44.2246 1.52034 44.2605 1.59395 44.2963 1.66753L44.3069 1.69347ZM47.123 0.193765L47.0133 0.0271235L47.4479 0.139661L47.237 0.356072L47.123 0.193765Z" fill="#F8F963"/>
  </g>
  <defs>
    <clipPath id="clip0_1762_2709">
      <rect width="163" height="46" fill="white" transform="matrix(1 1.74846e-07 1.74846e-07 -1 0 46)"/>
    </clipPath>
  </defs>
</svg>
