<svg xmlns="http://www.w3.org/2000/svg" width="63" height="75" viewBox="0 0 63 75" fill="none">
  <path d="M31.034 20.4374C29.6232 16.647 29.4075 12.5154 30.4159 8.59873C30.8314 6.97965 31.1626 4.79588 31.8866 3.32831C33.3662 0.303009 41.9828 1.80359 39.7913 5.78721C39.7529 5.89671 39.7625 5.97242 39.8585 6.04944C40.8597 6.7836 42.3049 7.57202 43.5971 7.06296C45.7518 6.19798 43.563 4.20875 47.7813 5.1951C48.8242 5.47017 49.754 6.06674 50.4386 6.90011C51.3339 7.50313 51.2329 8.32833 50.1398 9.36283C50.0543 9.42099 49.9831 9.49781 49.9316 9.58752C49.8801 9.67723 49.8497 9.77746 49.8426 9.88065C49.7998 10.003 49.7862 10.0417 49.9034 10.1406C50.3166 10.4918 50.7997 10.7511 51.3207 10.9012C51.8418 11.0514 52.3887 11.089 52.9254 11.0115C54.3593 10.8414 54.5042 10.1183 55.9698 11.1164C58.7295 13.0453 56.8032 14.9306 55.1849 16.5765C53.0188 18.7538 50.4489 20.3701 48.1138 22.3073C46.9267 23.2799 45.4164 24.6383 45.8781 26.355C46.3398 28.0717 48.404 29.0336 49.7103 29.8675C52.2343 31.5402 54.0671 33.9471 55.9437 36.3115C59.9171 41.3199 60.9979 48.0195 60.6108 54.2844C60.2428 60.2883 58.0715 66.4849 53.0292 70.1204C46.9172 74.5383 38.9373 73.7599 31.8749 72.6954C18.9088 70.7483 1.77353 64.0207 2.50239 48.0905C2.83148 40.8145 7.04185 33.8354 11.5877 28.3552C14.0859 25.3542 17.0926 22.8423 20.9462 21.835C24.4836 20.9048 28.1697 20.9742 31.6848 19.9423C32.4938 19.6978 30.931 19.2659 30.5276 19.3849C26.1256 20.6774 21.3411 20.2954 17.115 22.2209C13.0455 24.0711 10.0678 27.6563 7.56942 31.2359C2.48018 38.5145 -1.49124 47.6602 2.38044 56.3648C6.10632 64.7217 14.6268 69.407 23.1091 71.6416C31.239 73.7671 41.4161 75.7061 49.6201 72.9759C57.8241 70.2457 61.7255 62.5798 62.2279 54.4171C62.7853 45.4781 59.8225 37.1933 53.1284 31.0941C50.6542 28.8458 44.9031 27.0113 48.9749 23.1731C50.3943 21.8263 52.1583 20.8172 53.6776 19.5776C55.4002 18.1707 58.2643 16.2308 59.0771 14.035C59.89 11.8392 56.214 9.11915 54.0538 9.21557C53.5851 9.23214 52.3479 9.95576 52.0897 9.47475C52.1988 9.67933 52.7537 8.26098 52.7586 8.08189C52.7054 7.74838 52.5844 7.42929 52.4031 7.14434C52.2218 6.8594 51.9841 6.61463 51.7045 6.42517C50.1844 5.16931 45.9714 2.70225 43.9025 4.16863C43.2871 4.60388 42.6442 6.27343 41.7602 5.34895C41.5731 5.16044 41.6375 3.63527 41.3232 3.14909C40.3824 1.70567 38.328 1.37632 36.7419 1.1966C35.1558 1.01689 33.3026 0.79422 31.7691 1.26937C29.9559 1.8201 30.0258 3.74664 29.563 5.35636C28.0282 10.7272 27.5313 15.1383 29.3212 20.4954C29.4679 20.9229 31.1301 20.9267 30.9605 20.4406L31.034 20.4374Z" fill="#05060F"/>
</svg>