<svg xmlns="http://www.w3.org/2000/svg" width="83" height="89" viewBox="0 0 83 89" fill="none">
  <g clip-path="url(#clip0_1762_2624)">
    <path d="M36.034 26.4374C34.6232 22.647 34.4075 18.5154 35.4159 14.5987C35.8314 12.9796 36.1626 10.7959 36.8866 9.32831C38.3662 6.30301 46.9828 7.80359 44.7913 11.7872C44.7529 11.8967 44.7625 11.9724 44.8585 12.0494C45.8597 12.7836 47.3049 13.572 48.5971 13.063C50.7518 12.198 48.563 10.2087 52.7813 11.1951C53.8242 11.4702 54.754 12.0667 55.4386 12.9001C56.3339 13.5031 56.2329 14.3283 55.1398 15.3628C55.0543 15.421 54.9831 15.4978 54.9316 15.5875C54.8801 15.6772 54.8497 15.7775 54.8426 15.8806C54.7998 16.003 54.7862 16.0417 54.9034 16.1406C55.3166 16.4918 55.7997 16.7511 56.3207 16.9012C56.8418 17.0514 57.3887 17.089 57.9254 17.0115C59.3593 16.8414 59.5042 16.1183 60.9698 17.1164C63.7295 19.0453 61.8032 20.9306 60.1849 22.5765C58.0188 24.7538 55.4489 26.3701 53.1138 28.3073C51.9267 29.2799 50.4164 30.6383 50.8781 32.355C51.3398 34.0717 53.404 35.0336 54.7103 35.8675C57.2343 37.5402 59.0671 39.9471 60.9437 42.3115C64.9171 47.3199 65.9979 54.0195 65.6108 60.2844C65.2428 66.2883 63.0715 72.4849 58.0292 76.1204C51.9172 80.5383 43.9373 79.7599 36.8749 78.6954C23.9088 76.7483 6.77353 70.0207 7.50239 54.0905C7.83148 46.8145 12.0418 39.8354 16.5877 34.3552C19.0859 31.3542 22.0926 28.8423 25.9462 27.835C29.4836 26.9048 33.1697 26.9742 36.6848 25.9423C37.4938 25.6978 35.931 25.2659 35.5276 25.3849C31.1256 26.6774 26.3411 26.2954 22.115 28.2209C18.0455 30.0711 15.0678 33.6563 12.5694 37.2359C7.48018 44.5145 3.50876 53.6602 7.38044 62.3648C11.1063 70.7217 19.6268 75.407 28.1091 77.6416C36.239 79.7671 46.4161 81.7061 54.6201 78.9759C62.8241 76.2457 66.7255 68.5798 67.2279 60.4171C67.7853 51.4781 64.8225 43.1933 58.1284 37.0941C55.6542 34.8458 49.9031 33.0113 53.9749 29.1731C55.3943 27.8263 57.1583 26.8172 58.6776 25.5776C60.4002 24.1707 63.2643 22.2308 64.0771 20.035C64.89 17.8392 61.214 15.1192 59.0538 15.2156C58.5851 15.2321 57.3479 15.9558 57.0897 15.4747C57.1988 15.6793 57.7537 14.261 57.7586 14.0819C57.7054 13.7484 57.5844 13.4293 57.4031 13.1443C57.2218 12.8594 56.9841 12.6146 56.7045 12.4252C55.1844 11.1693 50.9714 8.70225 48.9025 10.1686C48.2871 10.6039 47.6442 12.2734 46.7602 11.3489C46.5731 11.1604 46.6375 9.63527 46.3232 9.14909C45.3824 7.70567 43.328 7.37632 41.7419 7.1966C40.1558 7.01689 38.3026 6.79422 36.7691 7.26937C34.9559 7.8201 35.0258 9.74664 34.563 11.3564C33.0282 16.7272 32.5313 21.1383 34.3212 26.4954C34.4679 26.9229 36.1301 26.9267 35.9605 26.4406L36.034 26.4374Z" fill="#05060F"/>
    <path d="M33.4707 25.973C39.1968 28.9025 45.4126 30.7546 51.8082 31.4368C51.9892 31.4568 53.0162 31.3539 52.575 30.9823C49.4088 28.2528 44.2729 27.697 40.367 26.6032C37.2266 25.7197 34.1889 24.6047 30.9289 25.4657C30.7859 25.5023 30.6093 25.614 30.6888 25.7793C31.3098 27.1034 32.4345 27.5265 33.7638 27.985C36.1409 28.818 38.6162 29.4323 41.0339 30.1493C44.7281 31.2485 48.4035 32.7316 52.3067 31.8718C53.4784 31.6243 56.3608 30.0451 57.5322 30.3761C60.4814 31.207 55.2563 31.4011 54.6884 31.4118C53.7275 31.3303 52.7617 31.3256 51.8002 31.3978C50.6281 31.6669 50.2941 31.7741 49.7872 33.014C48.606 35.869 47.7852 38.7274 46.2349 41.4386L47.8873 41.6561C48.5125 38.3552 49.6096 35.1616 51.145 32.1735C51.3832 31.7001 49.7443 31.444 49.5241 31.8659C47.9589 34.9179 46.8363 38.1773 46.19 41.5459C46.1032 42 47.6517 42.1015 47.8448 41.7569C48.7149 40.2411 49.4852 38.6701 50.1509 37.054C50.4326 36.064 50.7733 35.0919 51.1711 34.1426C52.5065 31.7972 53.3239 32.127 55.0448 32.108C56.7656 32.0891 60.4913 32.3966 61.4841 30.4302C61.5999 30.2031 61.2974 30.0754 61.1235 30.0145C59.2587 29.4332 57.2606 29.4372 55.3982 30.0261C53.8396 30.4491 52.3118 31.1142 50.6975 31.3658C47.7466 31.7782 44.6668 30.4531 41.9032 29.6294L36.1934 27.9251C35.6974 27.7513 33.7624 27.5144 33.4526 27.0153C32.5869 25.6055 37.5046 26.5982 37.9001 26.7079C39.9187 27.2633 41.9306 27.8381 43.9469 28.4001C46.3759 29.0849 49.0633 29.5275 51.0236 31.2197L51.7904 30.7652C45.8064 30.1077 39.9948 28.3532 34.6466 25.5895C34.2524 25.3935 32.6236 25.6038 33.4143 25.9894L33.4707 25.973Z" fill="#05060F"/>
    <path d="M39.6959 47.8597C38.8339 46.9362 37.7767 46.2167 36.6014 45.7536C35.4261 45.2904 34.1622 45.0954 32.902 45.1825C30.5211 45.3101 26.3942 47.2415 28.9585 49.9553C31.7204 52.8686 39.5583 53.619 39.8682 58.3489C40.3935 66.3654 28.0688 63.1243 23.6121 62.0545C23.2121 61.9577 21.6935 62.1632 22.7281 62.41C26.6514 63.3863 30.6688 63.9356 34.7102 64.0485C37.4793 64.0931 40.0529 63.6425 41.1421 60.7408C42.5282 57.0535 40.0551 55.2973 37.1027 53.6914C35.0775 52.5767 31.775 51.557 30.3221 49.7171C29.4849 48.7006 29.6718 47.7752 30.6056 46.844C32.7324 44.6964 36.2497 45.9289 38.051 47.8474C38.3718 48.1913 39.8256 47.9847 39.6939 47.8446L39.6959 47.8597Z" fill="#05060F"/>
    <path d="M37.8707 38.1796C33.9776 48.7991 29.5525 59.2161 24.6122 69.3909C24.3759 69.8794 26.0258 70.1249 26.2331 69.6985C31.1852 59.4695 35.6198 48.998 39.52 38.3236C39.6464 37.9629 38.0188 37.6746 37.8295 38.1941L37.8707 38.1796Z" fill="#05060F"/>
  </g>
  <defs>
    <clipPath id="clip0_1762_2624">
      <rect width="62" height="72" fill="white" transform="translate(23.8086) rotate(19.311)"/>
    </clipPath>
  </defs>
</svg>