<svg xmlns="http://www.w3.org/2000/svg" width="65" height="74" viewBox="0 0 65 74" fill="none">
  <g clip-path="url(#clip0_1762_224)">
    <path d="M6.69468 40.5374C15.9216 37.7183 24.7549 32.9368 33.5406 28.9892C42.8516 24.7962 53.007 21.2077 61.77 15.9752C62.5029 15.5392 62.0173 14.5329 61.2194 14.7964C51.8123 17.848 42.7049 22.9448 33.7125 27.0514C24.7201 31.158 14.95 34.7694 6.51935 39.995C6.27164 40.1497 6.35041 40.6358 6.69468 40.5374Z" fill="#05060F"/>
    <path d="M60.8838 15.2809C57.5621 22.873 54.7993 30.7426 51.828 38.4832C48.8566 46.2239 45.1027 53.893 43.1481 61.8222C43.0346 62.281 43.7021 62.7575 43.9719 62.2491C47.6637 55.2489 49.9361 47.265 52.7307 39.8644C55.7771 31.7999 59.0721 23.7832 61.7613 15.589C61.944 15.0276 61.1356 14.734 60.8966 15.2749L60.8838 15.2809Z" fill="#05060F"/>
    <path d="M7.75063 40.4422C15.4044 41.8073 24.3629 43.3592 32.1331 42.8515C32.6782 42.8155 32.7368 41.9218 32.2216 41.7878C24.6778 39.8562 15.59 39.715 7.81614 39.6467C7.29754 39.6392 7.24995 40.3561 7.75063 40.4422Z" fill="#05060F"/>
    <path d="M32.6272 43.5417C35.7967 50.5446 39.1046 57.4595 42.492 64.3607L43.7886 63.5443L43.2561 62.9892C42.8929 62.6125 42.0831 62.8503 42.2439 63.462L42.4338 64.1693C42.7332 65.2782 44.3845 64.6864 43.892 63.6989C40.4825 56.8003 37.0114 49.9539 33.39 43.1698C33.1369 42.6949 32.3972 43.0326 32.6212 43.5289L32.6272 43.5417Z" fill="#05060F"/>
    <path d="M6.62301 40.8518C7.13668 43.8898 8.04081 46.995 9.0064 49.9311C9.2262 50.5855 10.3111 50.2348 10.1614 49.5634C9.45976 46.5742 8.60346 43.4544 7.4619 40.5927C7.27207 40.1194 6.55023 40.3786 6.63241 40.8553L6.62301 40.8518Z" fill="#05060F"/>
    <path d="M10.2341 49.9196C13.7329 50.6266 17.2727 51.1039 20.8057 51.5999C23.8593 52.0388 26.9685 52.7639 30.0467 52.5202C30.5824 52.4807 30.6009 51.6682 30.1309 51.4975C27.2292 50.4648 23.98 50.3591 20.9341 49.9868C17.3995 49.554 13.8657 49.0896 10.3192 48.8653C9.63397 48.8185 9.59244 49.7823 10.2375 49.9102L10.2341 49.9196Z" fill="#05060F"/>
    <path d="M31.2206 42.6691C30.0803 45.8084 29.9073 49.565 29.3924 52.8571C29.2696 53.6636 30.5418 53.764 30.6646 52.9574C31.1658 49.703 32.1436 46.1323 32.0195 42.8422C31.9997 42.3988 31.3913 42.1991 31.2206 42.6691Z" fill="#05060F"/>
    <path d="M30.3244 52.6636C31.6115 56.3549 33.9178 59.7886 35.8421 63.19C37.5792 66.2574 39.1131 69.7084 41.379 72.404C41.7961 72.896 42.4802 72.3891 42.2801 71.827C40.9982 68.1802 38.5151 64.7354 36.5702 61.3904C34.7981 58.3316 33.1754 55.0079 30.8813 52.3021C30.6207 51.9946 30.1979 52.3091 30.315 52.6602L30.3244 52.6636Z" fill="#05060F"/>
    <path d="M42.23 72.7557C43.0226 69.373 44.3002 65.592 44.2571 62.108C44.251 61.627 43.5888 61.429 43.3985 61.9237C42.1317 65.1767 41.9998 69.1717 41.5696 72.6115C41.5184 72.9866 42.1533 73.1428 42.2394 72.7591L42.23 72.7557Z" fill="#05060F"/>
    <path d="M8.76235 40.9374C9.20295 42.6827 9.63416 44.4246 10.0748 46.1699C10.464 47.705 10.7482 49.3829 11.4664 50.8034C11.5895 51.0503 11.9252 50.9169 11.9098 50.6666C11.799 49.0092 11.132 47.3306 10.665 45.7459C10.1979 44.1613 9.68902 42.4869 9.20403 40.8638C9.11936 40.599 8.70331 40.6606 8.77175 40.9408L8.76235 40.9374Z" fill="#05060F"/>
    <path d="M11.5332 41.4226C11.9665 44.1546 12.5203 47.2284 13.6481 49.7766C13.8362 50.196 14.4025 49.9549 14.3691 49.5491C14.152 46.7785 13.1744 43.8168 12.2636 41.1985C12.1199 40.7739 11.4681 41.0159 11.5392 41.4354L11.5332 41.4226Z" fill="#05060F"/>
    <path d="M15.2207 41.698C15.6186 43.3853 16.042 45.0605 16.4877 46.7332C16.847 48.0872 17.0799 49.5549 17.8971 50.7029C18.0467 50.9062 18.379 50.7822 18.3917 50.5421C18.4929 49.0042 17.8165 47.4393 17.3777 45.9819C16.9389 44.5245 16.4523 42.9646 15.9545 41.4646C15.8202 41.0434 15.1214 41.2683 15.2207 41.698Z" fill="#05060F"/>
    <path d="M19.3269 42.1682C19.7974 43.8606 20.2679 45.5529 20.7734 47.2366C21.1891 48.6112 21.4886 50.0712 22.2725 51.2815C22.4366 51.5326 22.9056 51.3838 22.8978 51.0831C22.8605 49.6332 22.274 48.2605 21.8361 46.8885C21.2955 45.2133 20.726 43.5595 20.1598 41.8963C20.0016 41.4239 19.1943 41.6839 19.3303 42.1588L19.3269 42.1682Z" fill="#05060F"/>
    <path d="M23.5102 43.0707C23.9434 45.8028 24.1649 48.8835 25.2483 51.4368C25.3851 51.7632 25.9344 51.6861 25.9445 51.3067C25.9649 48.5267 25.0053 45.6034 24.3653 42.9132C24.2404 42.3784 23.4237 42.518 23.5196 43.0741L23.5102 43.0707Z" fill="#05060F"/>
    <path d="M28.1551 42.3216C28.1095 44.0286 28.3835 45.7346 28.6105 47.4236C28.8375 49.1126 28.8031 50.9939 29.6383 52.4144C29.7563 52.6169 30.1314 52.668 30.2022 52.3852C30.5886 50.8233 30.0558 49.0977 29.816 47.5317C29.5377 45.7496 29.3081 43.9214 28.7402 42.2043C28.647 41.9045 28.1601 42.0148 28.1491 42.3088L28.1551 42.3216Z" fill="#05060F"/>
    <path d="M30.3462 53.9802C31.0635 52.8257 31.7996 51.6781 32.498 50.5168C33.1137 49.4956 33.878 48.4752 34.1433 47.3055C34.2107 47.0321 33.8936 46.7041 33.6433 46.9537C31.9266 48.575 30.8922 51.54 29.8121 53.6053C29.6158 53.9702 30.1148 54.3537 30.3462 53.9802Z" fill="#05060F"/>
    <path d="M33.0604 56.1152C34.3944 54.6102 36.3793 52.7777 37.0288 50.8432C37.1312 50.5613 36.8099 50.3914 36.5878 50.5341C35.6901 51.1017 35.1001 51.9939 34.4673 52.828C33.7653 53.7646 33.0762 54.6952 32.4084 55.6549C32.1121 56.0899 32.7214 56.492 33.0604 56.1152Z" fill="#05060F"/>
    <path d="M34.5731 59.8883C35.89 58.5474 37.8152 57.055 38.4955 55.27C38.5707 55.0632 38.3391 54.8514 38.1434 54.9506C36.4094 55.7996 35.1277 57.8342 33.9031 59.2725C33.57 59.6622 34.2024 60.2643 34.5731 59.8883Z" fill="#05060F"/>
    <path d="M36.3948 62.9865C37.1361 62.2344 37.8774 61.4823 38.6034 60.7139C39.1799 60.0935 39.911 59.4866 40.1576 58.6612C40.2276 58.41 39.9994 58.1888 39.7499 58.2897C38.9538 58.607 38.4047 59.3863 37.8436 60.023C37.1425 60.811 36.4661 61.6186 35.7803 62.4228C35.4797 62.7817 36.0566 63.3317 36.3914 62.9959L36.3948 62.9865Z" fill="#05060F"/>
    <path d="M38.8833 67.2949C39.8492 66.1882 41.3021 64.9711 41.7826 63.5604C41.8713 63.316 41.5919 63.0017 41.3347 63.153C39.9979 63.9335 39.0903 65.5827 38.1723 66.792C37.8248 67.2509 38.5212 67.706 38.8833 67.2949Z" fill="#05060F"/>
    <path d="M42.6153 72.6616C47.5625 64.1385 50.7433 54.2397 53.773 44.9031C56.8616 35.375 59.3282 25.6849 61.3018 15.8583C61.4186 15.273 60.4967 15.2041 60.3799 15.7894C58.2936 25.8092 55.6973 35.7394 52.5147 45.4674C49.5149 54.634 45.3871 63.3909 42.347 72.5216C42.289 72.6814 42.5257 72.8205 42.6153 72.6616Z" fill="#05060F"/>
    <path d="M44.7083 59.7823C44.8683 60.4256 45.0223 61.056 45.1823 61.6993C45.3252 62.2725 45.4194 62.8919 45.6998 63.4087C45.757 63.5146 45.9535 63.5009 45.9603 63.365C45.9729 62.7738 45.7797 62.1929 45.6368 61.6197C45.4862 60.9798 45.3262 60.3366 45.1756 59.6967C45.1046 59.3943 44.6339 59.4893 44.7083 59.7823Z" fill="#05060F"/>
    <path d="M45.874 55.8117C46.011 56.6062 46.1385 57.3973 46.2789 58.1824C46.3996 58.8752 46.4512 59.6706 46.8145 60.2814C46.9265 60.471 47.1964 60.4308 47.2339 60.2103C47.3507 59.508 47.1053 58.7486 46.9624 58.0583C46.7904 57.2723 46.6278 56.4898 46.4558 55.7039C46.377 55.3348 45.8081 55.4367 45.874 55.8117Z" fill="#05060F"/>
    <path d="M47.4487 51.213C47.7318 52.1031 48.0089 52.9805 48.292 53.8706C48.5169 54.5694 48.6283 55.4929 49.171 56.0199C49.3283 56.1727 49.5675 56.1 49.605 55.8796C49.732 55.1491 49.2892 54.318 49.0608 53.6286C48.7743 52.7478 48.4784 51.8637 48.1919 50.9829C48.0542 50.5712 47.3332 50.7987 47.4675 51.2198L47.4487 51.213Z" fill="#05060F"/>
    <path d="M50.0896 46.6079C50.1633 47.2837 50.2754 47.9415 50.397 48.6027C50.4817 49.1017 50.5093 49.7287 50.9759 50.0259C51.0784 50.0951 51.2151 50.0702 51.2937 49.9711C51.6156 49.5242 51.4164 48.9305 51.3094 48.4341C51.1656 47.7755 51.0347 47.1108 50.8525 46.4701C50.7165 45.9951 50.0458 46.1133 50.099 46.6113L50.0896 46.6079Z" fill="#05060F"/>
    <path d="M52.1232 39.9842C52.2567 40.6711 52.3903 41.3579 52.5238 42.0448C52.6436 42.6522 52.6849 43.3587 53.0123 43.8926C53.161 44.1275 53.5036 44.0923 53.5462 43.7993C53.6357 43.1722 53.3937 42.5204 53.2645 41.9095C53.1181 41.2287 52.9624 40.5444 52.8195 39.8541C52.7236 39.415 52.0436 39.5297 52.1266 39.9748L52.1232 39.9842Z" fill="#05060F"/>
    <path d="M54.1942 32.5549C54.4843 33.7774 54.7034 35.0486 55.1976 36.2069C55.3079 36.4598 55.6471 36.317 55.6316 36.0667C55.538 34.8304 55.1429 33.6336 54.8332 32.4359C54.7271 32.025 54.0881 32.144 54.1848 32.5515L54.1942 32.5549Z" fill="#05060F"/>
  </g>
  <defs>
    <clipPath id="clip0_1762_224">
      <rect width="46.44" height="61.46" fill="white" transform="translate(20.9834) rotate(19.9632)"/>
    </clipPath>
  </defs>
</svg>