<svg width="151" height="201" viewBox="0 0 151 201" fill="none" xmlns="http://www.w3.org/2000/svg">
<g clip-path="url(#clip0_1762_213)">
<g clip-path="url(#clip1_1762_213)">
<path d="M135.053 123.861C134.807 123.199 135.836 122.111 136.319 121.484C135.314 121.269 135.983 119.806 136.74 120.406C136.589 120.445 136.434 120.482 136.283 120.521C136.326 120.672 136.371 120.823 136.414 120.974C137.78 120.433 137.194 119.848 137.82 118.864C138.424 117.603 138.826 117.021 139.649 115.678L139.355 115.508C139.615 115.281 139.876 115.056 140.137 114.829L139.106 114.237C142.094 114.363 149.079 89.9063 147.17 88.5619C148.466 88.1955 147.339 87.1771 147.972 86.4823C148.892 85.6914 148.652 82.4435 147.749 81.7439L147.505 82.1684C147.253 81.861 146.634 81.3801 146.943 81.0943C147.688 82.0159 148.047 81.2188 147.956 80.3566C148.08 80.3664 148.208 80.3753 148.332 80.3851C148.299 80.5538 148.266 80.7248 148.236 80.8948C148.388 80.8562 148.542 80.8189 148.694 80.7802C147.818 79.9463 148.129 78.8242 147.669 78.1213C148.466 77.91 148.255 76.4882 147.426 76.663C146.621 77.0289 146.567 76.2739 146.71 75.687C147.738 76.2223 148.13 74.2328 147.472 73.6767C147.536 74.0481 147.501 74.4111 147.279 74.6949C146.852 74.4869 147.137 73.7916 146.571 73.5369C146.728 73.3757 146.886 73.2145 147.044 73.0569C146.873 72.8975 146.704 72.7359 146.533 72.5765C146.69 72.4153 146.848 72.2541 147.006 72.0965C147.1 72.2763 147.192 72.4549 147.286 72.6347C147.747 72.3317 148.313 72.0768 147.978 71.4303C147.675 70.8729 148.45 70.0601 147.789 69.5338C147.116 68.8372 146.281 70.2108 145.603 69.4078C146.845 68.1695 146.383 66.5024 147.584 65.2749C147.117 65.0739 146.616 64.9617 146.227 65.2474C145.966 64.6435 145.594 64.0068 144.914 64.1165C144.836 63.4519 146.2 63.3546 146.841 63.1519C146.577 62.6385 145.851 62.9089 145.335 63.0391C146.369 61.8779 145.351 61.008 145.55 59.5857C145.19 59.7563 144.831 59.9245 144.473 60.0964C144.816 60.3543 145.053 60.699 144.887 61.0853C143.998 60.8877 144.734 59.7182 144.127 59.3299C144.534 59.4474 145.903 56.7515 145.294 56.6136L145.051 57.0381C144.633 56.4488 144.053 56.1372 143.346 56.2465C144.976 56.3023 142.641 51.6272 144.528 53.1611C144.753 52.9407 145.045 52.7064 144.786 52.3676C144.449 52.1804 145.026 50.4501 144.793 50.3014C143.276 51.1759 144.35 49.547 142.794 49.3406C142.992 48.5709 145.434 48.0989 143.702 47.4142C142.843 41.8931 142.834 45.4436 140.512 44.0769C141.047 43.7306 142.73 41.8684 141.681 41.3582C141.54 41.7161 141.4 42.074 141.26 42.4356L140.965 42.2664C140.662 42.9081 140.358 43.5498 140.057 44.1928C140.023 43.7958 139.987 43.4011 139.953 43.0041C139.662 43.3494 139.166 42.8007 138.839 42.5521C139.123 42.402 139.404 42.2506 139.689 42.0982C138.619 41.4686 139.806 40.4323 138.796 39.8922C138.912 40.5077 138.446 40.7924 137.851 40.8559C138.153 39.9373 139.138 37.6408 137.513 38.0268C138.102 37.506 139.014 36.8089 138.421 36.1005C138.256 36.9962 136.669 37.9656 137.196 36.5259C136.386 36.1374 135.107 35.7101 135.224 34.8293C135.496 34.9244 135.77 35.0171 136.043 35.1122C136.08 34.8209 136.117 34.526 136.155 34.2347C135.419 34.3768 134.683 34.519 133.948 34.6611C134.123 33.9151 134.941 34.3602 135.271 33.7272C135.675 33.119 134.754 32.9124 134.913 32.2978C135.009 31.7702 134.325 31.7245 133.921 31.6335C134.017 31.1059 134.311 30.7011 134.866 30.6699C134.594 30.5748 134.32 30.4821 134.047 30.387L134.617 29.3949C133.467 29.1364 133.017 31.9887 132.069 30.7543C132.968 30.6076 133.095 28.8004 133.236 28.038L132.993 28.4625C132.822 28.3032 132.653 28.1415 132.482 27.9821C133.06 27.6946 134.981 27.2999 134.048 26.6237C133.503 26.3166 131.248 28.7281 131.625 26.7389C131.374 26.7202 131.122 26.7016 130.871 26.683C131.168 24.8596 130.948 23.071 130.547 21.6044C130.091 21.459 129.239 22.9795 128.709 22.2426L129.034 21.6773L129.328 21.8465C129.42 21.4606 129.51 21.0734 129.603 20.6853C129.054 20.8147 128.718 21.174 128.807 21.7342C128.394 21.7333 127.936 21.6821 127.92 21.2253C129.471 21.1189 127.63 20.5434 126.966 20.4905L127.697 19.217C126.658 19.292 126.272 19.7701 126.908 18.1997C125.941 17.939 125.232 18.6638 124.272 18.005C124.558 17.0926 125.369 16.9848 126.266 17.2663C125.225 16.9141 125.686 15.8105 125.096 15.3707C124.172 15.1102 124.605 15.9511 125.099 16.2193C123.798 17.874 123.987 14.277 121.999 14.4397C122.443 14.0045 122.892 13.572 123.336 13.1368C122.927 12.7269 122.539 13.2896 122.257 13.6462C122.12 13.3158 121.983 12.9854 121.844 12.6573C120.955 13.3952 120.083 12.6033 119.384 11.8098L119.06 12.3751C119.128 12.0367 119.188 11.6943 119.253 11.3568C119.552 11.6086 119.855 11.5588 120.088 11.272C119.651 10.6683 118.839 10.9598 118.545 10.1988C118.726 10.1131 118.902 10.0269 119.083 9.94348C118.527 9.22893 118.323 8.43036 118.647 7.62288C118.235 7.82494 117.511 8.05006 117.702 8.58655C117.934 9.33304 116.536 9.69925 116.795 8.63012C116.855 7.93448 115.731 7.96387 115.164 7.88107C115.228 7.4422 115.449 7.09986 115.88 6.97289C115.577 6.36058 114.227 7.58514 113.768 6.88953C113.736 7.05824 113.703 7.22926 113.673 7.39931L112.933 6.97439L113.257 6.40913C112.681 5.98924 111.735 6.59966 111.241 5.816C111.112 6.35833 110.468 6.05611 110.03 5.87243L111.065 6.46651L110.821 6.89103L109.787 6.29696C109.866 6.84583 109.945 7.39107 110.023 7.93862C110.404 7.84448 110.786 7.74803 111.169 7.65522C111.156 7.89902 111.149 8.14682 111.14 8.38965C111.389 8.40694 111.64 8.42557 111.894 8.44552C111.769 9.00242 111.647 9.55833 111.524 10.1166C112.258 10.1115 112.555 11.4382 113.315 11.6138C114.506 12.3222 115.365 12.7757 115.583 14.3268C117.41 12.9708 116.174 14.6509 116.784 15.4856C117.305 15.9106 117.329 17.1481 118.1 17.4651C118.61 17.7797 118.72 17.8459 118.677 18.1738C118.551 18.1627 118.426 18.1552 118.302 18.1454C118.618 18.5354 119.063 18.6993 119.563 18.6827C118.768 19.4286 121.199 20.5846 120.737 21.4268C121.629 20.8717 121.668 22.6638 122.429 22.5852C122.073 23.8658 124.237 25.1419 124.62 26.2912C124.593 27.1714 125.983 26.776 126.041 27.5789C126.211 28.2501 125.782 28.5777 125.3 28.1873C125.672 28.7966 126.304 30.178 127.174 30.3923C126.179 32.0295 128.357 32.507 128.817 33.6884C128.934 34.7585 129.817 34.3544 129.806 35.3846C129.697 36.2182 130.54 36.0884 130.662 36.6279C130.673 36.9375 130.901 37.0562 131.132 37.1798C129.369 37.6984 132.604 39.6352 132.201 40.6158C131.95 41.5207 132.859 41.4378 132.78 42.1717C132.702 42.6181 132.95 42.8429 133.233 43.0913L133.557 42.5261C133.678 42.6598 133.798 42.7898 133.92 42.9212C133.659 43.1491 133.398 43.3733 133.138 43.6011C133.916 43.8421 135.003 44.3988 134.061 45.0727C134.38 45.3173 134.695 45.5629 135.012 45.8061C134.652 45.9767 134.293 46.145 133.933 46.3155C134.444 46.7959 134.951 47.2773 135.462 47.7577C135.256 47.891 135.048 48.0229 134.843 48.1538C135.103 48.7444 135.806 48.9488 136.467 49.0862L136.143 49.6515L135.405 49.2279C135.582 50.1023 135.936 50.9683 136.89 51.7735C136.248 51.7793 136.144 52.3363 136.239 52.9064C136.697 52.7917 137.156 52.6808 137.613 52.5661C137.234 53.2809 138.293 54.1771 137.228 54.6026C137.447 54.7899 137.665 54.9795 137.885 55.1669L138.698 53.7503L139.436 54.1739C139.016 54.5616 138.6 54.9483 138.179 55.3361C138.453 55.4288 138.726 55.5238 138.998 55.6189C138.744 56.2337 138.275 56.6268 137.593 56.6958C138.063 56.9041 138.534 57.1101 139.004 57.3184C139.063 57.1012 139.123 56.884 139.18 56.6678C139.613 57.0851 140.136 57.4099 140.672 57.1473L139.491 56.4693L139.815 55.904L139.521 55.7349L139.927 55.0266C140.147 55.2139 140.365 55.4036 140.584 55.5909C140.677 55.285 140.831 54.8706 140.466 54.7712C140.73 54.2728 141.051 53.6345 141.64 53.7521C141.561 54.7007 141.428 55.7344 140.634 56.1869L141.372 56.6105C141.193 57.5448 140.012 57.5231 139.906 58.309C139.994 58.9729 139.048 59.1168 139.584 59.7252C138.085 58.8587 138.441 61.2438 138.97 61.8207C139.56 61.905 140.69 61.1671 140.381 62.4432C140.211 62.2816 140.04 62.1222 139.87 61.9628C139.709 62.5331 139.44 63.06 138.908 63.2942C139.234 63.7265 139.868 64.3456 139.453 64.736C139.991 65.3576 140.515 64.6277 140.959 64.8487C140.7 65.1912 140.336 65.5835 139.96 65.2174C139.979 65.6576 139.601 65.8426 139.178 65.8972C140.415 66.365 139.43 68.4467 140.215 69.2227C140.529 69.5899 140.564 69.9261 140.326 70.2281C139.748 70.8593 140.659 71.3517 140.177 72.0256C139.987 72.84 139.891 73.5179 140.505 74.1895C140.299 74.3227 140.09 74.4546 139.885 74.5856C140.592 75.2733 139.682 75.7296 140.294 76.6086C140.558 77.7568 140.738 79.3605 139.958 80.2743C140.133 80.3134 140.307 80.3489 140.482 80.388C140.07 80.9003 140.013 81.447 140.65 81.8037C139.728 82.5289 140.022 83.6454 139.394 84.8464C139.663 85.86 138.895 87.6063 140.103 87.8886C139.269 88.6214 138.753 87.8865 138.778 89.858C137.697 92.5903 138.476 96.1294 136.512 98.2503C137.003 98.6091 136.123 99.7974 136.879 100.345C135.37 100.012 136.298 101.299 136.06 101.945C135.815 102.178 135.893 102.316 136.036 102.496C134.783 102.954 135.149 103.456 134.744 104.576C134.335 105.599 133.332 105.514 134.056 106.629C133.75 106.705 133.444 106.781 133.139 106.855C133.492 106.998 133.302 107.211 132.98 107.987C132.373 108.807 132.989 110.05 132.836 110.634C132.375 110.471 131.887 110.461 131.388 110.932L131.683 111.101C131.042 111.46 131.532 112.288 131.838 112.884C131.506 113.006 131.172 113.13 130.84 113.252C131.238 113.638 131.479 114.116 131.09 114.525C129.321 113.19 128.55 116.462 131.11 115.855C130.277 116.662 129.319 116.465 128.473 115.66L128.31 115.944L129.048 116.368C128.791 116.472 128.536 116.577 128.28 116.679C128.904 117.193 128.004 117.434 128.252 118.264C128.368 119.002 127.986 119.034 127.504 119.058C127.64 118.504 128.261 117.379 127.579 117.218C126.606 119.337 125.082 121.088 124.403 122.922C124.645 123.635 125.645 123.945 125.532 124.889L124.202 124.126C123.291 125.542 121.08 125.088 122.185 127.296C121.393 126.21 120.806 127.566 120.258 128.261C120.962 128.502 121.715 128.867 121.639 129.618C119.604 127.858 118.406 132.225 117.067 132.45L118.543 133.298L118.38 133.581C117.684 132.562 116.272 133.292 117.571 133.964C118.611 134.941 117.054 135.035 116.467 134.177C116.402 134.517 116.34 134.855 116.275 135.195C115.315 134.46 114.823 136.181 114.318 136.894C115.569 137.171 115.787 138.102 115.36 139.185C114.696 138.976 114.784 137.508 113.831 137.743C113.891 137.526 113.951 137.309 114.007 137.093C113.832 137.054 113.658 137.018 113.483 136.979C113.445 137.27 113.409 137.565 113.371 137.856L112.928 137.602C112.809 138.024 112.354 138.043 111.932 137.972C111.975 138.123 112.021 138.274 112.064 138.425C112.383 138.219 112.744 138.165 113.045 138.424C112.865 139.146 111.235 138.526 111.119 139.389C111.321 139.379 111.522 139.369 111.725 139.359C111.714 139.604 111.705 139.851 111.695 140.094C110.806 139.531 110.103 140.502 110.212 141.313C110.046 141.031 109.883 140.747 109.717 140.465C109.378 140.932 108.962 141.35 108.395 141.399C108.549 141.926 108.705 142.454 108.858 142.983C107.919 142.871 106.69 142.724 106.783 143.863C106.661 143.731 106.542 143.599 106.42 143.468C106.179 143.737 105.741 144.118 106.081 144.402L106.325 143.977C108.098 145.731 100.83 144.102 105.593 149.014C105.332 149.303 105.014 148.986 104.774 148.731C104.085 149.25 105.071 150.107 104.773 150.614C104.501 150.863 104.673 151.133 104.818 151.391C103.916 151.705 103.145 150.403 101.998 150.15C103.368 149.719 104.961 148.805 104 147.345C103.687 148.288 102.71 147.893 102.3 148.253C102.698 148.355 103.098 148.459 103.496 148.562C103.29 149.677 102.055 149.229 101.627 149.937C101.474 150.417 101.16 150.497 100.77 150.574C100.887 150.828 101.002 151.084 101.118 151.338C100.351 151.245 99.396 151.141 99.3547 152.019C97.9454 151.508 99.319 150.087 98.249 149.501C98.1529 150.243 95.3698 149.986 95.7673 151.089C96.2249 150.974 96.6835 150.863 97.1411 150.748C97.1457 151.294 98.0819 151.42 98.6168 151.595C98.3787 151.897 98.1406 152.199 97.8988 152.502C97.4432 151.974 96.2066 151.479 96.1626 152.447C95.7791 152.282 95.3656 152.251 95.2465 152.673C95.5467 152.72 95.847 152.766 96.1472 152.813C96.033 153.125 95.9202 153.434 95.8083 153.747C95.9833 153.786 96.1573 153.822 96.3323 153.861C96.3978 153.521 96.4596 153.182 96.525 152.843C96.6902 153.124 96.854 153.409 97.0192 153.691C97.346 153.213 97.811 152.618 98.3266 153.122C98.3099 152.925 98.2923 152.725 98.2756 152.528C99.5277 152.809 100.234 152.453 101.422 153.206C101.101 154.313 99.8387 154.631 99.8344 153.236C99.4877 153.727 99.141 154.218 98.7919 154.708C98.3543 154.331 97.9167 153.954 97.4791 153.577L96.9917 154.426C96.2634 154.002 95.5758 154.706 94.8291 153.749C94.253 154.296 95.2213 154.84 95.752 155.221C95.3919 155.391 95.0331 155.56 94.6729 155.73C94.4025 155.1 92.2965 154.222 93.9605 153.72C94.6515 153.801 94.3946 152.883 94.8312 152.714C95.516 152.3 94.6664 151.711 94.1643 151.484C94.6714 151.815 92.5005 153.91 92.9557 154.272C93.2686 154.544 92.9722 154.926 92.804 155.219C95.5988 156.391 90.7942 156.672 90.7867 158.389C91.5893 158.42 91.8207 159.43 91.1856 159.747C91.1231 159.254 90.8187 158.935 90.316 158.87C90.7661 158.414 90.3424 157.916 89.917 157.512C89.3941 158.182 88.7296 158.791 87.9228 158.251C88.2361 157.931 88.5531 157.61 88.8678 157.287C88.9884 157.421 89.1095 157.549 89.2288 157.685C89.2529 157.38 89.3525 157.093 89.7018 157.205C88.954 156.116 87.3796 157.596 86.4159 158.141C87.1821 158.289 87.2148 159.516 88.3348 159.242C88.2618 159.826 88.1875 160.412 88.1132 160.998C87.6966 160.698 87.2812 160.395 86.8645 160.094C86.8602 160.215 86.8533 160.34 86.8501 160.464L86.4069 160.209C87.5758 159.07 85.9603 159.085 86.0955 160.408C85.7624 160.327 85.3163 160.212 85.4398 159.841C85.2539 160.584 84.448 160.698 84.1026 161.144C84.4028 161.191 84.7044 161.235 85.0033 161.284C84.2691 162.875 85.8314 161.83 86.6574 161.482C86.518 161.837 86.376 162.198 86.2377 162.557L85.943 162.388C85.8315 162.802 85.68 163.292 85.225 163.294C85.467 163.507 85.8346 163.807 85.5706 164.057C84.7545 162.797 82.5512 163.723 81.4593 163.013C81.182 163.093 80.7494 162.906 80.8354 162.563C80.9586 162.262 78.9577 161.04 78.8012 161.49C79.0417 162.012 79.5528 162.228 80.1307 162.253C79.7385 162.593 79.3487 162.933 78.9551 163.275C79.884 163.231 80.1611 164.13 80.7279 164.293C80.7125 164.094 80.6922 163.898 80.6769 163.699C81.1521 163.785 81.6287 163.868 82.1016 163.952C81.979 164.591 81.0519 164.083 80.7213 164.476C80.564 164.637 80.3247 164.656 79.9999 164.534C79.1975 164.261 79.4103 165.024 78.4711 164.973C77.814 165.037 77.6778 165.097 77.506 165.455C77.5979 165.07 77.6889 164.68 77.7808 164.294C78.5187 164.782 79.0328 163.559 78.4312 163.161L77.9437 164.01C77.3284 163.47 76.4148 161.311 77.2434 160.786C76.217 159.994 72.8263 158.56 73.4764 160.507C73.2082 160.292 72.939 160.073 72.6721 159.855C72.6387 160.026 72.609 160.196 72.5769 160.365C71.7792 160.18 69.787 160.34 69.1592 160.848C69.6069 160.74 70.7676 161.115 70.635 161.695C71.4043 161.397 72.1581 162.508 72.6645 161.921C73.0695 162.866 73.7336 162.09 74.3031 162.485C74.7012 162.06 74.4266 161.657 73.9718 161.353C75.2926 159.568 75.2246 163.072 76.1499 161.665C76.9411 162.205 76.9374 163.377 76.2076 163.955C76.5844 163.982 76.9609 164.014 77.3376 164.04C77.1051 164.219 76.8689 164.399 76.6364 164.579C76.8721 164.797 77.25 165.084 76.9843 165.343C76.8623 165.212 76.744 165.079 76.6219 164.948C76.3086 165.268 75.9916 165.589 75.677 165.912C75.2672 165.529 76.616 164.34 75.4409 164.27C75.672 166.608 72.209 161.672 71.0038 163.793C70.6957 163.411 70.8294 163.049 71.1965 162.775C70.7389 162.111 70.1397 162.794 69.5579 162.212C69.9086 162.622 69.6494 163.046 69.283 163.373C69.0426 163.109 68.8023 162.845 68.5596 162.58C69.3237 162.485 69.9716 161.093 68.8344 161.419C68.5094 161.647 68.3473 161.44 68.1629 161.224C67.6749 162.235 66.4004 162.123 65.9119 162.754C66.9725 163.292 67.6548 163.812 68.9907 163.205L68.7469 163.63C69.2653 163.866 69.7851 164.1 70.3035 164.336C69.9331 164.605 69.8093 164.982 70.1107 165.354C70.358 163.999 74.7996 163.442 73.0591 165.35C73.583 165.464 74.1083 165.575 74.6323 165.689C74.5459 165.952 74.4596 166.216 74.3755 166.48C73.3518 165.684 72.1912 164.723 71.045 164.759C71.0695 165.398 71.0949 166.042 71.1181 166.684C71.353 166.506 71.5868 166.324 71.8194 166.145C72.1978 166.727 70.5564 167.469 70.0079 167.93C69.9864 167.43 69.1896 167.099 68.6951 166.799C68.9986 166.158 70.5924 167.057 70.757 166.287C69.7059 166.291 69.9656 164.753 69.2434 164.479L68.9189 165.044C68.5233 164.471 67.5408 163.753 67.1995 164.622L66.6078 164.282C66.1789 165.438 67.6791 165.56 68.2465 164.845C68.077 165.334 68.9068 165.286 69.0441 165.681C69.1789 166.773 67.6224 166.131 67.0433 166.603C66.8382 165.853 66.4445 165.201 65.6497 165.612C65.582 165.386 65.518 165.159 65.4503 164.933C64.7267 165.356 63.7635 164.137 63.0882 163.577C62.7665 164.546 61.9896 164.137 61.2712 163.663L60.9467 164.229C60.4826 163.898 60.0172 163.569 59.5531 163.238C59.4667 163.502 59.3814 163.769 59.295 164.032C59.869 164.171 60.4417 164.313 61.0144 164.455C60.7763 164.756 60.5369 165.061 60.2964 165.361C60.8446 165.513 61.3556 165.472 61.3755 164.852C61.8902 165.025 62.9368 165.147 62.6243 165.756C62.0209 165.173 61.563 166.116 60.8881 165.701C60.8825 165.824 60.8793 165.948 60.8737 166.07C62.0421 165.959 61.7904 166.961 60.9037 167.216C59.8782 167.535 58.6726 166.024 60.3497 165.956L59.1687 165.278C59.354 168.422 58.1164 165.128 56.4564 166.924C56.4698 167.244 56.4809 167.564 56.4943 167.884C56.1175 167.858 55.741 167.826 55.3642 167.8C55.4319 168.026 55.496 168.253 55.5637 168.479C54.6796 167.95 53.767 167.874 52.9945 168.51C52.7325 166.752 52.0039 168.414 51.1265 168.002C50.967 168.463 51.77 168.488 52.1591 168.595C51.8944 168.943 51.6285 169.294 51.3603 169.643C50.3082 169.164 51.3963 167.409 50.0618 168.143C49.2823 168.603 49.121 167.256 48.3424 167.72C47.9835 168.388 42.615 165.487 42.6411 166.705C41.4111 166.241 42.869 162.799 40.6179 164.415C41.7488 164.723 42.1712 165.266 41.2294 166.085C41.0744 165.404 39.926 164.481 39.2442 164.755C39.5222 164.012 38.9165 163.472 38.2558 163.059C38.1466 164.775 36.5942 162.954 35.8161 163.541C35.2927 164.066 34.8717 163.65 35.0782 163.118C34.8809 164.176 33.7353 163.571 33.1559 163.898C32.8813 164.209 32.5123 163.783 32.263 163.572L32.1001 163.856L31.6569 163.602C31.9665 163.068 32.4625 162.994 32.9485 163.404C34.006 162.094 32.9536 162.165 32.5807 161.31C31.3349 161.653 28.8577 160.17 27.6139 159.87C25.968 160.716 29.7708 161.884 30.0259 160.972C30.4399 161.256 30.2983 161.739 30.1302 162.161C29.2252 161.491 28.0536 162.591 27.2951 161.285L27.1322 161.569C26.7585 161.204 26.3969 161.597 26.1352 161.935C26.0643 161.833 25.9923 161.727 25.9213 161.625C26.3763 161.687 26.5536 160.927 26.2626 160.692C26.0348 160.546 25.6865 161.196 25.4206 160.96C25.2685 160.247 24.1476 159.825 23.2149 159.504C22.9514 160.027 23.6219 160.219 24.0845 160.38C23.4595 161.055 22.7038 161.303 22.0393 160.525C22.9535 160.421 22.8486 159.202 22.8823 158.374C23.2016 158.619 23.5172 158.865 23.8364 159.109L24.0801 158.685L25.1127 159.277L25.3564 158.853L25.651 159.022C25.1093 157.736 29.6343 158.29 28.8327 156.897C29.1496 157.141 29.4698 157.389 29.7831 157.633C29.8188 157.464 29.8463 157.292 29.8806 157.125C30.3954 157.384 30.6665 156.809 30.892 156.389C31.5124 157.227 33.0507 155.816 33.5289 156.584C34.104 156.034 33.3836 155.424 34.0475 154.998C34.7127 155.978 36.0336 156.574 36.7111 155.491C36.903 154.941 38.197 155.525 38.322 154.909C38.6021 154.282 39.7245 154.46 39.0186 153.524C39.3954 153.55 39.7732 153.58 40.1487 153.608C39.3859 155.324 41.6315 154.088 41.0792 153.014C41.4459 153.288 41.8152 153.559 42.1782 153.835C42.5334 152.474 43.025 152.655 43.8268 152.333L43.2351 151.993C43.6501 151.566 43.9647 151.072 43.9022 150.493C44.066 150.777 44.2311 151.059 44.3963 151.341C44.1044 150.667 45.0101 150.653 44.9891 149.798C45.2276 148.754 43.5998 148.795 43.6295 147.889C42.8839 147.887 42.5798 148.884 42.2793 149.558C42.851 148.417 41.236 148.64 41.6732 149.588C40.4455 149.039 39.4646 150.651 38.3638 149.194C37.9736 150.363 36.6707 149.875 36.045 150.498C35.8821 150.782 35.501 150.876 34.9005 150.783C33.0864 150.621 31.3974 152.226 29.9173 152.627L30.161 152.203C29.4318 151.84 27.781 152.125 27.3392 152.841C26.7016 154.113 26.6045 152.772 26.0695 152.489L25.8258 152.914L26.269 153.168C25.8583 153.583 25.4489 154.081 24.821 153.466C23.7994 152.849 22.1609 154.037 21.4451 154.73C21.5064 154.011 20.8889 153.662 20.2131 153.458C20.097 153.892 19.9772 154.326 19.8574 154.76C19.408 154.683 19.0437 154.453 18.907 154.025C18.7702 154.747 17.2504 154.739 17.7837 155.638C16.6134 156.085 16.4727 155.621 16.9949 154.62C15.7648 155.5 14.6607 154.925 13.4352 154.835C12.8707 154.48 12.1436 155.918 11.5129 155.614C10.6674 155.362 10.7959 157.39 9.88098 156.748C10.0648 156.541 10.2486 156.333 10.4325 156.126C10.0015 155.716 8.85012 156.19 8.15791 156.327C8.3241 156.655 8.19995 156.93 7.8988 157.116C7.52921 156.18 6.58779 157.014 5.88238 156.523C6.0253 156.731 6.16822 156.939 6.31115 157.147C5.40532 157.553 4.92746 158.251 5.32192 159.214C5.62776 159.138 5.93359 159.062 6.2381 158.988C6.42639 160.563 9.57084 160.389 9.96762 162.068C10.2488 161.745 10.7898 162.178 11.1631 162.377C11.4539 162.01 11.4792 161.574 11.2881 161.133C11.6371 161.207 11.9861 161.282 12.3374 161.358C12.2201 161.551 12.0608 161.77 12.273 161.98C12.5625 162.309 11.5684 163.057 11.9132 163.467C12.8036 164.205 13.0268 164.628 14.1777 165.331C15.6202 165.979 14.5434 166.446 15.873 167.338C16.4591 167.801 16.7241 168.14 16.6642 168.357C17.0653 169.351 18.18 169.973 18.2065 171.313C18.5222 170.994 18.8368 170.672 19.1515 170.349C19.1391 170.79 18.8807 171.654 19.3222 171.766C19.5171 171.271 19.8736 170.972 20.3989 171.256C19.9881 171.52 19.5714 171.784 19.1593 172.05C19.459 172.431 19.7823 172.84 20.1751 173.011C20.3425 172.515 20.8061 172.357 21.3363 172.358C20.3941 172.882 22.2968 174.189 21.0195 174.624L22.3467 175.386L21.6964 176.519C22.961 176.616 22.1815 177.791 22.7922 178.372C23.425 178.855 22.9573 179.326 23.5998 179.872C23.9695 180.266 24.0461 180.352 23.8735 180.594C24.0561 179.824 25.0478 180.311 25.6882 180.507C24.8856 180.604 24.4641 182.188 24.9217 182.702C25.495 182.724 26.5829 181.861 26.1093 183.196C26.4638 183.148 26.8207 183.102 27.174 183.056C27.0791 184.339 24.0184 183.496 26.5615 185.149C26.7913 184.717 27.0035 184.256 27.6472 184.457C29.8005 184.349 27.1427 182.17 26.075 182.235C26.4551 181.573 27.5416 180.411 27.2272 179.884C27.4509 179.951 27.6759 180.016 27.8996 180.083C27.6555 180.363 27.7176 180.669 28.0183 180.903C28.7157 179.892 27.2791 178.859 26.2558 179.701C25.2921 180.289 24.7388 179.124 23.856 179.265C24.3836 178.684 25.3545 179.223 25.621 178.582C25.7981 179.536 26.5573 178.923 26.7665 178.301C27.1901 178.562 27.7407 178.93 28.0427 178.469C27.9587 178.733 27.8686 178.998 27.7846 179.262C28.0849 179.309 28.3864 179.353 28.6854 179.402C28.5559 179.515 28.425 179.63 28.2955 179.743C29.5979 180.564 29.8267 181.622 28.207 181.95C29.1805 182.269 28.7639 183.634 30.0307 183.561C29.1272 183.818 29.2649 185.68 28.2061 185.713C27.0312 185.401 28.0612 186.82 27.2313 187.411C28.2206 187.531 26.9933 189.336 28.2364 188.74C28.5613 188.512 28.7212 188.717 28.9102 188.936C29.0955 188.484 29.195 188.005 28.8867 187.607C29.244 187.747 29.5342 187.65 29.6544 187.296L28.6218 186.703C28.7462 186.272 29.1472 186.315 29.538 186.478C29.2452 185.994 29.8546 185.34 30.3201 185.798L30.7254 185.092C31.319 185.353 30.6377 186.765 29.9943 186.365C30.0727 187.588 32.9913 186.997 33.2571 187.861C32.7358 187.85 32.6934 188.531 32.6068 188.994C32.2611 188.795 31.7639 188.587 31.8833 188.201C31.0796 189.381 29.8881 188.265 29.1214 189.251C30.1116 190.003 31.811 188.08 31.632 190.692C31.9335 189.264 32.1045 188.38 33.707 189.813C34.1771 189.343 32.4496 188.091 33.9286 188.056C33.7094 187.734 33.639 187.384 33.892 187.094C32.3385 187.113 33.2877 185.922 34.18 185.566C35.8785 187.449 35.0056 183.122 32.9547 185.991C32.9691 185.622 32.9858 185.254 32.9989 184.888C31.4068 184.587 32.9522 185.625 32.1857 186.304L31.594 185.965C32.2883 185.293 31.2151 184.158 32.2885 183.728C31.8248 183.499 31.4527 183.626 31.2916 184.095C31.3812 183.707 31.4731 183.322 31.5651 182.936C30.8125 182.973 29.0819 183.424 29.819 182.216C30.3142 181.638 29.4032 180.188 29.8831 179.712C30.1513 179.928 30.4205 180.147 30.6887 180.362C30.5394 180.031 30.2214 179.526 30.6508 179.402C29.8507 179.022 29.3478 179.979 28.6877 179.403C28.9816 178.612 29.7289 178.605 29.6625 177.705C29.3912 177.85 29.0638 178.012 28.8271 177.79L29.0708 177.366L27.8898 176.688C28.921 175.875 27.9472 175.454 26.9524 175.585C27.3736 174.83 27.4664 174.018 27.4985 173.264C26.0686 174.056 27.1567 171.521 26.7618 170.957C27.3093 170.535 29.2427 167.845 29.2211 169.924C29.4494 169.865 29.6774 169.812 29.908 169.754C29.9744 169.983 30.0398 170.207 30.1075 170.433C30.1651 170.215 30.2273 169.999 30.2835 169.783L30.5782 169.952L30.1729 170.658L30.4676 170.827C30.8466 169.903 32.0435 170.554 32.7277 170.996C32.7863 170.781 32.8461 170.564 32.906 170.346L33.3492 170.601C33.1654 170.808 32.9802 171.018 32.7964 171.225L33.9774 171.903C34.1347 170.963 35.1662 171.337 35.5285 170.91C35.8002 171.367 35.8922 171.846 35.552 172.24C36.2058 172.777 36.8358 172.314 37.2372 171.701C37.4043 171.861 37.575 172.021 37.7468 172.184L38.1534 171.475C38.6437 171.809 39.0819 172.238 38.7793 172.776C39.0043 172.841 39.2267 172.91 39.4531 172.973C39.3144 172.645 39.1771 172.314 39.0397 171.984C39.6913 172.107 40.617 172.38 40.789 171.672L41.2322 171.927C39.5699 173.914 41.6646 173.307 42.883 173.157C43.361 173.345 43.4689 173.211 43.611 172.915C43.9779 173.012 43.819 173.439 43.7297 173.735C44.7806 173.323 45.585 174.318 46.4408 173.972C46.9255 173.628 47.2305 173.935 47.5644 174.24C47.6507 173.976 47.7371 173.713 47.8212 173.448C48.4659 173.868 50.8208 174.833 51.4906 174.236C52.4072 173.397 52.8134 174.624 53.5513 173.726C54.0308 175.078 57.2873 175.042 57.5606 173.582C57.7258 173.864 57.8897 174.149 58.0548 174.431C58.7265 173.755 59.6878 174.23 59.9968 173.101C60.5269 174.337 63.3865 173.795 64.0075 172.955C64.5624 174.004 65.3898 173.304 66.065 173.477C66.493 173.854 67.7133 172.846 68.2331 173.123C68.7892 173.261 68.853 172.951 68.933 172.586C69.004 172.688 69.076 172.794 69.1469 172.896C69.6872 172.433 70.2843 172.285 70.6524 173.009C70.8172 171.781 72.3542 172.452 72.8083 171.989C72.6807 171.98 72.5568 171.97 72.4315 171.963C72.9481 171.063 74.0246 172.245 74.5907 171.791C74.8948 171.401 75.3967 171.784 75.754 171.99C75.7119 171.321 76.4077 171.619 76.6579 171.097C76.8631 170.525 78.3338 171.268 78.3805 170.488C78.4478 169.812 79.4445 169.581 79.7543 170.148C79.7724 169.214 81.0993 169.895 81.0915 168.845C82.2259 169.717 82.8485 168.826 83.9554 168.983C84.4028 169.117 84.6845 169.024 84.7973 168.715C84.9115 168.403 85.1163 168.272 85.4165 168.319C86.1492 168.402 86.0646 167.356 86.7472 167.199C86.8901 167.407 87.0317 167.617 87.1759 167.822C88.0579 167.329 88.9719 166.795 89.9235 167.142C90.0247 166.847 90.112 166.309 90.5183 166.45C91.1785 166.525 91.3749 165.635 92.2856 165.768C93.4763 165.774 93.1362 164.195 94.4825 164.676C94.4426 164.402 94.4037 164.131 94.3639 163.857C95.2773 164.786 96.2785 164.407 97.1292 163.656C97.6613 162.734 98.2675 163.699 98.6379 162.737C99.1514 161.74 100.809 163.072 101.4 161.687C102.01 160.813 102.251 160.715 102.943 160.88C102.924 160.16 102.985 159.759 104.051 159.632C105.363 159.615 105.47 158.514 106.518 158.414C107.392 158.526 107.205 156.605 108.058 156.758C109.182 156.875 110.237 155.536 108.925 154.903C109.193 154.56 109.558 154.349 110.005 154.393C109.7 154.709 109.915 155.109 110.19 155.441C110.44 155.214 110.754 154.916 110.448 154.648C111.616 155.138 111.092 152.214 112.374 153.683C112.851 153.079 113.33 152.474 113.807 151.871C113.929 152.002 114.047 152.134 114.169 152.266C114.442 151.925 114.492 151.521 114.213 151.162C114.895 151.603 115.211 151.719 115.513 150.779C116.016 149.86 116.9 149.75 117.412 148.67C116.432 148.212 116.979 147.676 117.93 147.084C118.985 146.751 119.288 144.778 120.066 144.734C119.826 144.47 119.583 144.205 119.343 143.941C120.069 144.229 120.222 143.265 121.133 143.558C121.785 143.668 121.93 143.61 122.09 143.261C121.915 143.222 121.741 143.186 121.566 143.147L121.891 142.582L122.629 143.005C122.927 142.728 122.393 142.389 122.135 142.157C122.549 141.677 123.638 142.263 123.309 141.138C123.045 140.468 124.073 140.592 123.811 139.92C123.494 138.827 124.554 139.34 125.104 139.72C124.97 138.466 126.34 138.534 126.417 137.088C127.448 137.302 127.262 135.294 128.456 135.246C128.234 134.928 128.165 134.57 128.419 134.283C129.406 134.902 129.4 133.601 129.34 133.023C130.359 133.022 130.532 129.932 131.679 130.32C131.807 128.979 133.399 126.829 134.09 125.775C134.712 125.724 135.319 124.483 135.073 123.891L135.053 123.861ZM131.149 129.807L130.986 130.091C130.917 129.987 130.843 129.883 130.772 129.781C130.898 129.789 131.024 129.8 131.148 129.81L131.149 129.807ZM139.291 115.281C139.188 115.348 139.085 115.415 138.979 115.48C139.082 115.413 139.185 115.347 139.291 115.281ZM124.472 139.901L124.252 139.775L124.089 140.058L124.532 140.313L124.695 140.029L124.475 139.902L124.472 139.901ZM138.525 115.594C138.285 115.916 137.944 116.134 137.609 115.819C137.915 115.743 138.221 115.667 138.525 115.594ZM133.826 123.436L133.582 123.86L133.287 123.691C133.466 123.606 133.648 123.521 133.826 123.436ZM129.194 131.504C128.928 131.603 128.473 131.863 128.318 131.66C128.156 131.135 128.9 131.216 129.194 131.504ZM130.776 127.894C129.636 128.095 130.123 126.485 130.334 125.757C131.156 126.253 131.473 127.331 130.776 127.894ZM135.544 119.244C135.451 119.347 135.36 119.452 135.267 119.555C135.048 119.367 134.83 119.178 134.61 118.99C135.461 118.454 135.239 117.842 135.436 117.207C136.07 117.727 136.058 118.693 135.544 119.244ZM128.034 132.154C127.856 132.239 127.674 132.325 127.496 132.41C127.556 132.192 127.616 131.975 127.672 131.759C127.794 131.89 127.912 132.023 128.034 132.154ZM124.54 138.241C124.334 138.374 124.126 138.506 123.921 138.637C123.987 138.297 124.048 137.958 124.114 137.618C124.257 137.826 124.4 138.034 124.54 138.241ZM122.036 142.26C121.861 142.221 121.687 142.185 121.512 142.146L121.674 141.862C121.796 141.994 121.915 142.126 122.037 142.258L122.036 142.26ZM120.597 144.256L120.376 144.129L120.213 144.413L120.656 144.668L120.819 144.384L120.599 144.257L120.597 144.256ZM140.745 109.331C140.642 109.397 140.539 109.464 140.433 109.529C140.362 109.427 140.29 109.321 140.219 109.219C140.322 109.153 140.425 109.086 140.531 109.021C140.602 109.123 140.674 109.229 140.745 109.331ZM133.268 122.355C132.497 122.225 132.472 123.548 131.865 123.433L132.759 121.876C132.93 122.035 133.099 122.197 133.268 122.355ZM139.539 111.087C139.307 111.266 139.07 111.446 138.838 111.626C138.875 111.335 138.912 111.04 138.95 110.748L139.539 111.087ZM128.406 130.481C128.303 130.548 128.2 130.614 128.094 130.679C128.075 130.481 128.06 130.282 128.043 130.086C128.165 130.217 128.284 130.35 128.406 130.481ZM137.359 114.541C136.971 114.916 136.489 115.142 135.985 114.881C136.314 114.318 136.826 114.06 137.359 114.541ZM134.109 120.202C133.982 120.191 133.857 120.184 133.733 120.174L134.14 119.466C134.129 119.711 134.12 119.957 134.11 120.2L134.109 120.202ZM131.752 124.307L131.589 124.591L131.295 124.422L131.701 123.713C131.846 123.897 131.922 124.033 131.752 124.307ZM127.608 131.526C127.351 131.63 127.096 131.735 126.84 131.837C127.058 131.603 127.338 131.261 127.608 131.526ZM129.491 127.902C129.388 127.968 129.285 128.035 129.18 128.1C129.283 128.034 129.386 127.967 129.491 127.902ZM138.201 112.386L137.794 113.094L136.762 112.502C137.068 111.978 137.672 112.125 138.201 112.386ZM136.413 115.501C136.256 115.908 135.933 116.154 135.482 116.095L135.97 115.246L136.413 115.501ZM129.911 126.827C129.787 126.817 129.66 126.808 129.536 126.798L129.698 126.514C129.769 126.617 129.841 126.722 129.912 126.824L129.911 126.827ZM128.449 129.374C128.122 129.373 127.794 129.375 127.467 129.375C127.533 129.035 127.595 128.696 127.66 128.357C128.11 128.535 128.376 128.909 128.449 129.374ZM125.537 134.101C125.38 134.263 125.223 134.424 125.064 134.581C124.765 134.351 124.702 134.036 124.946 133.762L125.537 134.101ZM141.984 104.769C141.865 105.133 141.522 105.252 141.134 105.223L141.541 104.515L141.984 104.769ZM132.8 120.767C132.613 121.099 132.41 121.577 132.018 121.447C132.114 121.011 132.31 120.526 132.8 120.767ZM138.177 111.056L138.015 111.34L137.571 111.086L137.734 110.802L138.177 111.056ZM122.574 138.238C122.471 138.304 122.368 138.371 122.262 138.436C122.365 138.369 122.468 138.303 122.574 138.238ZM115.859 149.251C115.733 149.24 115.608 149.233 115.484 149.223C115.609 149.23 115.735 149.242 115.859 149.251ZM121.173 139.314C120.921 139.639 120.579 139.859 120.174 139.682L120.581 138.974L121.173 139.314ZM135.588 113.521C135.071 114.108 134.856 114.091 134.443 113.805C135.224 113.585 135.239 112.054 136.238 112.388C136.177 112.816 136.075 112.957 135.588 113.521ZM128.355 126.12C128.203 126.159 128.049 126.196 127.897 126.235C127.908 125.99 127.917 125.743 127.927 125.5C128.07 125.708 128.213 125.916 128.356 126.124L128.355 126.12ZM120.065 140.561C119.913 140.6 119.759 140.637 119.607 140.676C119.639 140.507 119.673 140.336 119.702 140.166C119.824 140.297 119.943 140.43 120.065 140.561ZM119.171 142.118L119.008 142.402L118.713 142.233L119.283 141.241C119.317 141.546 119.346 141.839 119.171 142.118ZM118.44 143.392C118.31 143.505 118.179 143.62 118.047 143.731C117.925 143.6 117.807 143.467 117.685 143.336C117.814 143.223 117.945 143.108 118.077 142.997C118.199 143.128 118.318 143.26 118.44 143.392ZM117.478 144.723C117.375 144.79 117.272 144.856 117.166 144.922C117.269 144.855 117.372 144.789 117.478 144.723ZM137.159 110.095L136.753 110.803L136.458 110.634C136.691 110.454 136.927 110.274 137.159 110.095ZM128.869 124.535C128.744 124.528 128.618 124.517 128.494 124.507C128.5 124.384 128.505 124.262 128.508 124.138C128.629 124.272 128.749 124.402 128.871 124.533L128.869 124.535ZM121.149 137.984C120.898 137.965 120.646 137.947 120.394 137.928C120.669 137.767 121.017 137.629 121.149 137.984ZM113.916 150.584L113.672 151.008L113.378 150.839L113.621 150.414L113.916 150.584ZM122.64 134.699C122.465 134.66 122.291 134.624 122.116 134.585L122.279 134.301C122.401 134.433 122.519 134.565 122.641 134.697L122.64 134.699ZM117.957 142.173C117.828 142.286 117.697 142.401 117.565 142.513C117.597 142.344 117.631 142.173 117.66 142.003L117.955 142.172L117.957 142.173ZM121.563 135.21C121.296 135.504 120.856 135.184 120.514 134.985C120.882 134.699 121.277 134.843 121.563 135.21ZM120.927 135.973L120.603 136.539L120.308 136.369L120.633 135.804L120.927 135.973ZM143.94 95.5422C143.816 95.5324 143.689 95.5236 143.565 95.5138L143.727 95.23C143.798 95.3321 143.87 95.4379 143.941 95.5399L143.94 95.5422ZM146.067 91.4932L145.742 92.0585L145.448 91.8893L145.772 91.3241L146.067 91.4932ZM119.377 137.814C119.311 137.871 119.248 137.926 119.181 137.983C119.268 137.72 119.355 137.454 119.439 137.19C119.511 137.409 119.596 137.642 119.375 137.812L119.377 137.814ZM133.094 113.409C132.965 113.521 132.834 113.636 132.702 113.748C132.487 113.548 132.282 113.292 132.503 113.069L133.094 113.409ZM127.257 123.233C127.032 123.168 126.809 123.101 126.587 123.035L126.75 122.751C126.919 122.913 127.09 123.072 127.259 123.23L127.257 123.233ZM108.891 155.226L108.728 155.51L108.285 155.256L108.448 154.972L108.891 155.226ZM127.922 121.731L127.841 121.872L127.252 121.533C127.53 121.322 128.099 121.256 127.922 121.731ZM121.339 133.198C121.215 133.188 121.088 133.179 120.964 133.169C121.09 133.18 121.215 133.188 121.339 133.198ZM125.027 126.091C124.702 126.566 123.706 126.921 123.856 126.078C124.001 125.799 124.687 126.027 125.027 126.091ZM121.858 131.612C121.706 131.65 121.552 131.688 121.4 131.726C121.338 131.378 121.277 131.027 121.215 130.678C121.65 130.587 121.742 131.239 121.858 131.612ZM133.087 111.708L132.762 112.273C132.64 112.142 132.522 112.009 132.4 111.878C132.629 111.822 132.857 111.763 133.087 111.708ZM127.167 121.675C126.972 122.262 126.468 122.442 125.861 122.241C126.176 121.768 126.619 121.363 127.167 121.675ZM123.185 128.613C122.633 128.897 121.718 128.7 122.152 128.02L123.185 128.613ZM119.819 134.303C119.129 134.748 118.984 133.394 118.781 132.861C119.492 132.493 120.329 133.786 119.819 134.303ZM118.958 135.975C118.579 136.711 117.926 136.649 117.29 136.146C117.644 135.481 118.323 135.641 118.958 135.975ZM113.805 144.78C113.569 144.998 113.301 144.654 113.1 144.471C113.357 144.367 113.612 144.262 113.868 144.16C113.939 144.379 114.025 144.612 113.803 144.783L113.805 144.78ZM121.085 131.926C120.526 132.626 119.127 131.173 119.556 130.484C120.563 130.568 120.181 131.668 121.085 131.926ZM132.816 110.804C132.659 110.965 132.501 111.126 132.343 111.284C132.5 111.123 132.658 110.961 132.816 110.804ZM117.212 137.985C117.109 138.051 117.006 138.118 116.901 138.183C117.004 138.117 117.107 138.05 117.212 137.985ZM145.915 87.642C145.812 87.7086 145.709 87.7752 145.603 87.8405C145.706 87.7739 145.809 87.7073 145.915 87.642ZM118.69 135.066L118.609 135.207L118.018 134.867C118.147 134.755 118.278 134.64 118.41 134.528C118.547 134.681 118.795 134.894 118.69 135.066ZM133.413 109.076C133.18 109.326 132.921 109.131 132.74 108.877C132.965 108.942 133.189 109.009 133.413 109.076ZM125.773 122.384C125.597 122.347 125.424 122.309 125.249 122.27C125.327 122.033 125.539 121.958 125.788 122.015C125.782 122.137 125.777 122.26 125.773 122.384ZM114.07 142.77L113.907 143.054C113.787 142.92 113.667 142.79 113.545 142.659C113.721 142.696 113.894 142.733 114.069 142.772L114.07 142.77ZM111.077 147.641C110.974 147.707 110.871 147.774 110.765 147.839C110.868 147.773 110.971 147.706 111.077 147.641ZM130.984 112.108C130.923 112.042 130.862 111.977 130.805 111.91C130.718 112.173 130.631 112.439 130.547 112.704C130.753 112.57 130.961 112.438 131.166 112.308C131.105 112.242 131.044 112.176 130.987 112.109L130.984 112.108ZM117.202 136.289C116.915 136.842 116.53 137.621 115.879 137.223L116.123 136.798C114.953 136.074 116.536 136.035 117.202 136.289ZM143.14 90.7609C142.988 90.7996 142.834 90.8369 142.683 90.8755L142.926 90.451C142.997 90.5531 143.069 90.6588 143.14 90.7609ZM111.002 145.718L110.759 146.142L110.167 145.802C110.256 145.449 110.687 145.616 111.002 145.718ZM143.605 88.5801C143.502 88.6467 143.399 88.7134 143.294 88.7787C143.397 88.712 143.5 88.6454 143.605 88.5801ZM109.309 148.323L109.066 148.747L108.623 148.493C108.852 148.437 109.08 148.378 109.309 148.323ZM113.468 140.734L113.387 140.875C113.265 140.744 113.147 140.611 113.025 140.48C113.128 140.413 113.231 140.347 113.336 140.281C113.433 140.42 113.569 140.58 113.468 140.734ZM111.273 144.557L111.193 144.698L110.75 144.444L110.993 144.019C111.13 144.174 111.379 144.385 111.273 144.557ZM100.82 162.084C100.666 162.122 100.514 162.16 100.362 162.199C100.347 162 100.328 161.802 100.312 161.605C100.481 161.767 100.653 161.924 100.821 162.088L100.82 162.084ZM101.093 160.922C100.969 160.912 100.841 160.903 100.717 160.893C100.843 160.904 100.969 160.912 101.093 160.922ZM147.024 80.567C146.9 80.5572 146.772 80.5483 146.648 80.5385L146.811 80.2548C146.882 80.3569 146.954 80.4626 147.025 80.5647L147.024 80.567ZM110.202 143.001C110.045 143.162 109.887 143.323 109.729 143.481C109.429 143.25 109.367 142.935 109.61 142.661L110.202 143.001ZM147.291 77.7109C146.76 78.0657 146.27 77.484 146.339 76.9774C146.859 76.8773 147.985 77.1307 147.291 77.7109ZM107.171 147.942L107.049 148.154C106.734 148.053 106.648 147.638 106.555 147.306C106.469 147.569 106.381 147.835 106.297 148.099C105.694 147.946 106.1 147.217 106.275 146.768C105.905 146.617 105.531 146.467 105.162 146.316C105.863 145.976 106.472 146.365 106.949 146.964L107.192 146.54C107.669 146.623 107.285 147.722 107.173 147.939L107.171 147.942ZM108.231 145.069C107.882 144.994 107.531 144.918 107.182 144.844C107.488 144.768 107.794 144.692 108.098 144.618C108.141 144.769 108.187 144.92 108.23 145.071L108.231 145.069ZM107.368 145.889C107.117 145.871 106.865 145.852 106.614 145.833C106.646 145.665 106.679 145.494 106.709 145.324C106.927 145.513 107.147 145.701 107.366 145.888L107.368 145.889ZM97.86 162.453C97.7291 162.568 97.601 162.678 97.4678 162.792C97.2927 162.602 97.2509 162.385 97.4168 162.198L97.86 162.453ZM147.397 75.1339C147.168 75.1894 146.94 75.2486 146.71 75.3041C146.622 75.0016 146.533 74.6992 146.443 74.3991C145.348 74.4481 145.572 75.9173 144.383 74.9095C145.06 75.0562 145.448 74.0425 145.8 73.4658C146.332 74.0226 146.864 74.5794 147.395 75.1326L147.397 75.1339ZM104.136 150.15C104.121 149.838 103.946 149.83 103.734 149.824C103.722 150.069 103.714 150.316 103.704 150.559C103.935 150.51 104.18 150.47 104.137 150.148L104.136 150.15ZM105.357 146.996L104.951 147.704L104.656 147.535L105.063 146.826L105.357 146.996ZM98.9607 155.747C98.6683 156.143 98.3759 156.54 98.0811 156.935C97.425 155.574 95.5428 156.343 97.2557 154.955C97.4209 155.237 97.5847 155.521 97.7499 155.803C98.0172 155.515 98.4261 154.722 98.7626 155.066L98.5189 155.49L98.9621 155.745L98.9607 155.747ZM147.197 70.694C146.592 70.3404 146.708 69.6063 147.455 69.9004C147.369 70.1637 147.281 70.4293 147.197 70.694ZM102.584 147.382C102.5 147.303 102.413 147.223 102.331 147.141C102.232 147.468 102.531 147.594 102.841 147.622C102.757 147.543 102.671 147.462 102.588 147.381L102.584 147.382ZM146.009 72.0822L145.928 72.2229C145.552 72.093 145.418 71.7521 145.434 71.3748C145.62 71.5494 146.119 71.8907 146.009 72.0822ZM101.579 148.967C101.395 148.647 101.812 148.464 102.059 148.302C101.372 147.613 100.049 148.516 99.1657 148.898C99.5317 149.249 100.05 148.937 100.459 148.699C100.209 149.445 102.043 150.023 101.582 148.966L101.579 148.967ZM97.0852 157.305C96.6257 157.627 96.0713 157.803 95.7281 157.278C96.1899 156.957 96.7419 156.78 97.0852 157.305ZM147.679 68.1455C147.267 67.5099 146.837 68.3337 146.897 68.8254C147.163 68.6742 147.777 68.4377 147.679 68.1455ZM148.076 66.772C148.041 66.7209 148.005 66.6699 147.969 66.6152C147.909 66.8323 147.849 67.0495 147.793 67.2657C147.94 67.1325 148.215 66.9593 148.077 66.7697L148.076 66.772ZM101.638 147.493C101.586 147.524 101.535 147.559 101.483 147.591C101.586 147.524 101.69 147.457 101.795 147.392C101.743 147.424 101.692 147.459 101.64 147.49L101.638 147.493ZM100.28 149.348L99.9856 149.179C99.6773 149.496 99.9157 149.838 100.253 150.084L100.577 149.518L100.283 149.349L100.28 149.348ZM95.0922 158.042C94.4227 158.547 93.7238 157.851 93.1566 157.308C93.6381 156.737 94.414 156.214 95.0687 156.712C94.7276 157.102 94.8193 157.587 95.0909 158.044L95.0922 158.042ZM99.065 150.439C99.003 150.434 98.941 150.429 98.8754 150.425C98.9994 150.435 99.127 150.444 99.2509 150.453C99.1889 150.448 99.127 150.444 99.0613 150.44L99.065 150.439ZM146.093 68.1735C145.918 68.1344 145.744 68.0989 145.569 68.0598L145.732 67.776C145.854 67.9074 145.972 68.0398 146.094 68.1712L146.093 68.1735ZM92.8754 160.533C92.6461 160.588 92.4178 160.647 92.1885 160.703C92.4155 160.646 92.6461 160.588 92.8754 160.533ZM93.0017 159.286C92.6694 159.408 92.3358 159.533 92.0034 159.655C92.294 159.444 92.7163 158.994 93.0017 159.286ZM146.571 65.626C146.342 65.6814 146.114 65.7406 145.884 65.7961L146.209 65.2308C146.331 65.3622 146.449 65.4946 146.571 65.626ZM88.7089 166.42C88.6246 166.777 88.1792 166.607 87.8736 166.505C88.1529 166.475 88.4296 166.45 88.7089 166.42ZM92.9652 158.324L92.7215 158.748L92.1298 158.408C92.4078 158.381 92.6848 158.35 92.9652 158.324ZM145.496 66.1344L144.809 66.3045C144.878 65.8408 144.947 65.3809 145.016 64.9172C145.176 65.3217 145.336 65.7299 145.496 66.1344ZM90.4262 161.381C90.1969 161.437 89.9686 161.496 89.7393 161.552C89.7504 161.306 89.7579 161.062 89.7691 160.817C89.9872 161.007 90.208 161.192 90.4248 161.384L90.4262 161.381ZM147.196 61.4632C146.554 61.4046 146.713 62.0787 147.167 62.1977L147.573 61.4894C147.449 61.4796 147.322 61.4707 147.198 61.4609L147.196 61.4632ZM91.9813 155.593C91.3701 154.524 93.1744 154.321 91.0485 153.456L90.724 154.022C90.3204 153.376 89.7454 153.926 89.3502 154.362C89.8485 154.853 90.5784 154.383 91.0697 154.784C90.9151 155.242 90.4009 154.799 90.1046 155.267C89.4088 155.662 88.0864 154.639 87.5531 155.778C87.4423 155.402 87.3314 155.025 87.2205 154.648C87.0061 155.28 86.3521 155.527 85.6694 155.642C87.3804 156.326 85.2014 158.262 84.9695 156.178C84.9001 157.347 83.1216 156.845 82.5686 157.625C82.5061 157.132 82.203 156.811 81.699 156.749C81.2877 157.497 82.4872 157.971 81.9183 158.758C82.1299 158.502 82.3402 158.249 82.5542 157.994C83.1864 158.661 83.3565 160.219 84.6216 159.181L85.3595 159.605C85.9232 158.977 85.9062 158.072 85.8247 157.424C86.2701 157.465 87.6017 156.956 87.0811 156.262C87.5438 156.487 87.9192 156.366 88.0781 155.895C88.7348 156.358 89.7511 156.377 90.3594 157.392C91.062 156.915 91.2738 156.224 90.891 155.44C91.3064 155.742 91.7244 156.041 92.1384 156.346C92.3235 156.072 92.3825 155.915 91.98 155.595L91.9813 155.593ZM89.7835 160.448C89.1976 160.351 89.2213 161.524 88.3953 161.157C88.45 160.514 89.2904 159.69 89.7835 160.448ZM88.6602 162.061C88.0491 162.094 87.1386 162.304 86.86 161.779C87.3528 161.243 88.0728 161.687 88.6602 162.061ZM146.812 59.7363C146.614 59.6291 146.365 59.9673 146.193 60.1324C146.543 60.2751 146.846 60.1704 146.96 59.8216L146.812 59.7363ZM145.187 62.5673C145.003 62.7746 144.818 62.9843 144.632 63.1903C144.669 62.899 144.705 62.6064 144.744 62.3129L145.187 62.5673ZM145.201 62.1982L145.12 62.339C144.95 62.1796 144.78 62.0179 144.609 61.8586C144.822 61.5634 145.33 61.8981 145.201 62.1982ZM93.0161 152.42C92.9806 152.369 92.9451 152.318 92.9087 152.263C92.8056 152.33 92.7026 152.397 92.5973 152.462C92.6682 152.564 92.7402 152.67 92.8111 152.772C92.9142 152.705 93.0172 152.639 93.1226 152.573C93.0871 152.522 93.0516 152.471 93.0151 152.417L93.0161 152.42ZM92.5684 153.2C92.4932 153.218 92.4167 153.239 92.3391 153.256C92.4909 153.217 92.645 153.18 92.7967 153.141C92.7215 153.159 92.645 153.18 92.5674 153.196L92.5684 153.2ZM145.894 59.9642C145.819 59.9824 145.743 60.0029 145.665 60.0197C145.817 59.9811 145.971 59.9438 146.123 59.9051C146.047 59.9233 145.971 59.9438 145.893 59.9606L145.894 59.9642ZM84.1307 161.912C83.8962 161.262 83.8765 161.097 84.1007 160.766C83.7649 160.453 83.4286 160.668 83.1845 160.991C82.2584 160.53 83.4721 158.561 82.0412 159.393C81.5562 159.744 81.209 159.897 81.5459 160.428C81.7467 161.126 80.7564 162.346 81.9814 162.748C82.4052 161.924 81.0245 161.589 82.7947 161.332C82.5252 161.898 83.4415 162.666 83.7451 162.068C83.8615 162.322 83.9766 162.578 84.0931 162.832C84.4095 162.673 84.3391 162.537 84.1294 161.914L84.1307 161.912ZM144.1 57.6185C143.997 57.6851 143.894 57.7517 143.789 57.817C143.422 57.5111 143.993 57.1884 144.276 56.968C144.368 57.2228 144.426 57.4279 144.1 57.6185ZM145.22 55.1571C145.159 55.0914 145.098 55.0257 145.041 54.959C144.911 55.0718 144.781 55.1868 144.649 55.2983L145.24 55.6379C145.342 55.4817 145.417 55.3525 145.223 55.1584L145.22 55.1571ZM140.524 63.8479C140.224 63.8013 139.924 63.7547 139.624 63.7081C139.828 63.0128 140.616 63.0599 140.524 63.8479ZM141.543 61.0463C141.311 61.2257 141.075 61.4061 140.842 61.5855C140.459 61.1139 140.075 60.6423 139.691 60.1731C140.151 59.8665 140.691 59.6613 141.13 60.0575C141.425 59.3771 140 58.4793 140.992 57.9074C141.134 58.1152 141.277 58.323 141.42 58.5308L141.583 58.2471L142.026 58.5015C141.91 58.2475 141.795 57.9912 141.678 57.7373C144.33 58.0355 140.185 60.199 141.546 61.0477L141.543 61.0463ZM85.5629 158.218L85.0755 159.068L83.1566 157.966C83.6512 156.793 84.7309 158.416 85.5629 158.218ZM142.023 56.616C141.943 56.6959 141.866 56.7772 141.786 56.8571C141.675 56.4806 141.565 56.1018 141.454 55.7253C141.732 55.6977 142.012 55.6679 142.287 55.6391C142.279 55.987 142.283 56.3726 142.021 56.6147L142.023 56.616ZM142.923 54.8753C142.672 54.8566 142.42 54.838 142.171 54.8207C142.203 54.652 142.237 54.481 142.266 54.311C142.486 54.4983 142.704 54.6879 142.923 54.8753ZM80.5088 163.599C80.3836 163.592 80.2573 163.581 80.132 163.573C80.2583 163.584 80.3836 163.592 80.5088 163.599ZM142.997 53.0374L142.754 53.4619C142.632 53.3305 142.513 53.1981 142.391 53.0668C142.594 53.0574 142.795 53.0467 142.997 53.0374ZM80.6271 160.658L80.3324 160.489L80.5761 160.064C80.3037 159.969 80.0299 159.877 79.7561 159.784C80.0097 159.181 80.4865 158.372 80.0585 157.887C78.8545 159.226 77.5536 158.746 76.2472 158.711C76.3846 159.042 76.5233 159.37 76.6606 159.7C76.953 159.153 78.904 160.951 79.201 160.407C78.9424 160.169 78.4051 159.843 78.7069 159.559L79.5932 160.068C79.0263 160.883 80.2738 161.333 80.9228 160.831L80.6281 160.662L80.6271 160.658ZM144.512 49.2011C144.46 49.2326 144.409 49.2677 144.357 49.2992C144.46 49.2326 144.563 49.166 144.668 49.1007C144.616 49.1322 144.565 49.1673 144.513 49.1988L144.512 49.2011ZM81.3394 158.901C81.2797 158.833 81.2187 158.768 81.16 158.703C81.0305 158.816 80.8974 158.93 80.7678 159.042L81.3595 159.382C81.4642 159.221 81.5307 159.1 81.3417 158.903L81.3394 158.901ZM74.5737 170.171L74.4108 170.455L73.9677 170.2C74.1681 170.19 74.3709 170.18 74.5737 170.171ZM81.0657 158.18C81.0024 158.177 80.9404 158.172 80.8761 158.166C81.0014 158.173 81.1277 158.185 81.2529 158.192C81.1909 158.187 81.1277 158.185 81.0634 158.178L81.0657 158.18ZM78.5055 162.64C78.4341 162.35 77.6323 161.957 77.258 161.733C77.2955 162.377 77.96 162.655 78.5709 162.864C78.5486 162.79 78.5264 162.716 78.5032 162.638L78.5055 162.64ZM141.666 52.2728C141.46 52.4061 141.251 52.538 141.046 52.6689L141.371 52.1036L141.666 52.2728ZM140.365 54.5385C140.253 54.7227 139.851 54.5471 139.61 54.4826L140.017 53.7743C140.165 54.0003 140.469 54.3526 140.365 54.5385ZM80.792 157.458C80.7323 157.39 80.6713 157.324 80.6126 157.26L80.3689 157.685L80.8121 157.939C80.9167 157.778 80.9833 157.657 80.7943 157.459L80.792 157.458ZM77.9925 161.308C77.8828 161.215 77.7744 161.119 77.6633 161.027C77.7311 161.253 77.7951 161.48 77.8628 161.706C78.0156 161.671 78.1687 161.63 78.3204 161.592C78.2107 161.498 78.1009 161.404 77.9925 161.308ZM140.83 52.3577C140.705 52.3502 140.579 52.339 140.455 52.3292C140.579 52.339 140.706 52.3479 140.83 52.3577ZM140.261 53.3498C137.831 54.2497 137.393 51.6974 139.811 51.3982C139.969 51.8969 139.585 52.2593 139.16 52.531C139.287 52.5422 139.412 52.5497 139.536 52.5595C139.305 53.0313 139.812 53.2394 140.259 53.3521L140.261 53.3498ZM142.404 48.9331C142.247 49.0943 142.09 49.2555 141.931 49.4131C141.948 49.1098 142.067 48.8222 142.404 48.9331ZM140.972 50.7458C140.715 50.8497 140.46 50.955 140.204 51.0566C140.461 50.9527 140.716 50.8474 140.972 50.7458ZM75.913 163.222C75.1455 161.754 74.7542 164.069 76.119 163.717C76.049 163.555 75.9816 163.387 75.913 163.222ZM142.449 47.8296L142.286 48.1134C140.738 47.6115 141.673 45.225 143.048 46.1031C142.578 46.7014 142.534 47.262 142.449 47.8296ZM137.718 55.559C137.657 55.4933 137.596 55.4276 137.537 55.3596C137.358 55.5948 137.271 55.8759 137.507 56.0941C137.636 55.9813 137.767 55.8662 137.899 55.7548C137.838 55.6891 137.777 55.6234 137.72 55.5567L137.718 55.559ZM72.8398 166.35C72.6394 166.361 72.4365 166.37 72.2337 166.38C72.2923 166.165 72.3522 165.948 72.4097 165.729C72.5527 165.937 72.6956 166.145 72.8362 166.351L72.8398 166.35ZM141.689 46.0743C141.559 46.187 141.428 46.3021 141.296 46.4135C141.426 46.3008 141.557 46.1857 141.689 46.0743ZM74.1436 163.053C74.0173 162.848 73.683 163.071 73.4978 163.151C73.6198 163.283 73.7382 163.415 73.8602 163.546C74.0076 163.413 74.2829 163.24 74.1436 163.053ZM139.769 48.736L139.362 49.4443L138.77 49.1047C138.89 48.6822 139.343 48.6664 139.769 48.736ZM139.118 49.8688C138.307 50.1544 138.068 51.9992 136.88 51.032C139.535 50.5131 134.348 46.9369 136.669 46.9565C136.609 47.1736 136.549 47.3908 136.493 47.607C137.24 47.6063 137.011 48.3587 137.667 48.4683C138.389 48.5759 138.292 49.922 139.122 49.8679L139.118 49.8688ZM140.524 45.0286C140.367 45.1898 140.21 45.351 140.051 45.5086C140.068 45.2053 140.187 44.9177 140.524 45.0286ZM73.7217 161.396C73.1999 161.784 72.7888 161.425 73.2121 160.914C73.3815 161.075 73.5523 161.235 73.7217 161.396ZM138.863 46.8968L138.782 47.0375C138.248 46.897 138.359 46.1782 138.383 45.6796C138.852 45.5013 138.969 46.7062 138.863 46.8968ZM66.5329 172.893C66.3812 172.931 66.2284 172.966 66.0753 173.007C66.2294 172.97 66.3812 172.931 66.5329 172.893ZM66.3335 172.214C66.2095 172.204 66.0819 172.195 65.958 172.185L66.1209 171.901C66.1929 172.007 66.2638 172.109 66.3335 172.214ZM72.2802 161.511C72.1039 161.474 71.9312 161.436 71.7549 161.399C71.9312 161.436 72.1026 161.476 72.2802 161.511ZM141.119 40.5693C139.905 39.7438 139.27 41.6089 140.722 41.9428C140.921 41.5693 141.458 40.8652 141.119 40.5693ZM68.3828 167.273C68.2431 167.549 67.721 167.292 67.4423 167.203L67.8489 166.494C68.0654 166.692 68.5517 167.011 68.3828 167.273ZM139.385 43.2458L139.141 43.6703L138.698 43.4159C138.928 43.3604 139.156 43.3013 139.385 43.2458ZM137.733 45.7792C137.273 46.2754 136.733 46.2324 136.961 47.1243C137.243 46.1818 135.362 46.0347 135.676 45.2576C135.948 45.3526 136.222 45.4454 136.495 45.5404C135.713 44.7575 136.987 43.8445 136.928 43.2491C136.714 43.0407 136.873 42.8223 136.99 42.6252C137.486 43.088 137.272 43.7506 136.996 44.3223C137.769 44.4222 138.134 45.1409 137.73 45.7802L137.733 45.7792ZM67.6538 167.511L67.4101 167.936L67.1155 167.767C67.295 167.68 67.4756 167.596 67.6538 167.511ZM64.9208 171.59L64.7579 171.874L64.3147 171.619C64.5175 171.61 64.719 171.603 64.9208 171.59ZM66.8339 167.231C66.5306 167.802 65.6938 167.717 65.4967 168.534C64.9388 168.21 64.8438 167.72 65.2462 167.261C64.5484 166.676 63.8986 166.803 63.4956 167.575C61.7593 164.947 65.5231 166.3 66.8325 167.233L66.8339 167.231ZM140.102 38.5743C140.031 38.4722 139.959 38.3665 139.888 38.2644C139.731 38.4256 139.573 38.5868 139.415 38.7444C139.634 38.9317 139.852 39.1214 140.072 39.3087C140.221 39.0754 140.333 38.8816 140.102 38.5743ZM136.089 46.2464L135.926 46.5302L135.483 46.2758L135.646 45.992L136.089 46.2464ZM62.5952 173.927C62.5333 173.922 62.47 173.919 62.407 173.911C62.4014 174.033 62.3972 174.153 62.3926 174.28C62.5221 174.167 62.6529 174.052 62.7848 173.94C62.7228 173.935 62.6608 173.93 62.5952 173.927ZM138.311 41.6876C138.182 41.8004 138.051 41.9155 137.919 42.0269C138.049 41.9142 138.18 41.7991 138.311 41.6876ZM139.256 38.8435L139.036 38.7169C138.97 39.0567 138.908 39.3954 138.843 39.7351C139.055 39.4793 139.265 39.2258 139.479 38.9713L139.258 38.8448L139.256 38.8435ZM135.851 42.7229C135.382 43.0552 135.032 42.8386 134.646 42.596C134.934 42.1168 135.427 42.1976 135.857 42.5396L136.02 42.2558L135.577 42.0014L135.821 41.5768C136.383 41.8014 136.481 42.3764 135.851 42.7229ZM65.9183 164.543C65.8308 164.523 65.742 164.506 65.6568 164.488C65.8318 164.527 66.0058 164.562 66.1808 164.601C66.0933 164.582 66.0045 164.565 65.9193 164.546L65.9183 164.543ZM137.564 39.5656C137.461 39.6322 137.358 39.6988 137.253 39.7641C137.356 39.6975 137.459 39.6309 137.564 39.5656ZM134.882 44.2376C134.728 44.275 134.577 44.3136 134.425 44.3523C134.577 44.3136 134.731 44.2763 134.882 44.2376ZM135.303 43.1603C134.901 43.3677 134.417 43.5225 134.173 43.076C134.451 42.6678 134.92 42.8939 135.303 43.1603ZM60.0214 173.955C59.9872 173.902 59.9517 173.851 59.9139 173.798C59.7844 173.911 59.6512 174.025 59.5217 174.138C59.7245 174.128 59.926 174.121 60.1278 174.108C60.0923 174.057 60.0582 174.004 60.0204 173.952L60.0214 173.955ZM65.4961 163.736C65.4619 163.682 65.4265 163.631 65.3887 163.579L65.2257 163.863C65.3497 163.873 65.4773 163.881 65.6012 163.891C65.5671 163.838 65.5316 163.787 65.4938 163.735L65.4961 163.736ZM61.7851 170.544C61.6088 170.507 61.4374 170.467 61.2598 170.433C61.4361 170.47 61.6088 170.507 61.7851 170.544ZM139.095 35.3616C139.043 35.3931 138.992 35.4282 138.94 35.4597C139.043 35.3931 139.146 35.3265 139.252 35.2612C139.199 35.295 139.149 35.3278 139.097 35.3593L139.095 35.3616ZM136.089 40.5989C135.818 40.9097 135.293 40.5131 134.965 40.3313C135.303 40.0866 135.639 39.8406 135.978 39.5936C136.128 39.9187 136.376 40.3345 136.089 40.5989ZM66.5188 160.933C66.4568 160.928 66.3948 160.924 66.3305 160.917C66.4581 160.926 66.5821 160.936 66.7073 160.943C66.644 160.941 66.5821 160.936 66.5178 160.93L66.5188 160.933ZM138.7 34.8523C138.692 34.501 138.17 34.3827 137.855 34.272C137.495 35.5594 138.478 36.5346 138.7 34.8523ZM65.824 161.289C65.7512 160.68 64.9558 160.625 64.8158 160.993C64.7685 161.263 65.6386 161.526 65.4982 161.857C65.4397 162.114 65.5743 162.192 65.7466 162.278C65.9413 161.982 65.9794 161.814 65.824 161.289ZM64.548 163.001C64.4127 162.893 64.2811 162.784 64.1459 162.675C64.6761 162.676 65.1373 162.518 65.3071 162.023C64.8377 161.787 64.1786 162.43 63.653 161.825L63.4093 162.25C63.6098 162.239 63.8126 162.23 64.0154 162.22C63.9834 162.389 63.95 162.56 63.9202 162.73C63.3551 162.452 62.6447 162.722 62.0212 162.959C62.293 163.195 62.6428 163.579 62.9896 163.325C63.58 163.059 64.3443 163.872 64.9528 163.323C64.8175 163.214 64.6859 163.105 64.5506 162.997L64.548 163.001ZM61.6999 168.989C61.2218 169.236 60.4807 169.845 60.1799 169.245C60.6272 169.1 61.5273 168.473 61.6999 168.989ZM61.4415 167.902C60.6851 168.118 60.523 168.148 60.2372 167.775C60.9799 167.938 61.1365 166.752 61.9201 167.235C61.9786 167.02 62.0385 166.803 62.0961 166.585C62.7018 167.147 62.363 167.646 61.4379 167.903L61.4415 167.902ZM63.4356 165.283C63.3326 165.35 63.2272 165.415 63.1242 165.482C63.2272 165.415 63.3302 165.348 63.4356 165.283ZM137.387 35.6078C137.299 35.5883 137.212 35.5687 137.125 35.5528C137.199 35.6562 137.268 35.7606 137.339 35.8627C137.442 35.7961 137.545 35.7295 137.651 35.6642C137.563 35.6446 137.476 35.6251 137.389 35.6092L137.387 35.6078ZM135.269 38.4379C135.015 38.7771 134.602 38.7452 134.206 38.5796C134.39 38.3722 134.575 38.1625 134.761 37.9565C134.932 38.1159 135.102 38.2775 135.272 38.4369L135.269 38.4379ZM137.65 33.78C137.598 33.8115 137.547 33.8466 137.495 33.8781C137.598 33.8115 137.701 33.7449 137.806 33.6796C137.754 33.7111 137.703 33.7462 137.651 33.7777L137.65 33.78ZM64.3185 161.176C64.0308 161.097 63.9226 161.345 63.8146 161.544L64.2578 161.798L64.5823 161.233C64.4935 161.215 64.406 161.196 64.3208 161.178L64.3185 161.176ZM134.406 39.2585C133.62 39.2891 133.37 39.8599 133.444 40.5899C132.393 40.1953 133.692 37.6706 134.406 39.2585ZM60.1397 168.284C60.0415 168.718 59.3709 168.312 59.0096 168.199C59.2948 167.783 59.7519 168.024 60.1397 168.284ZM134.694 37.7305C134.26 37.38 133.203 36.8562 133.689 36.402C134.284 36.6822 134.884 37.088 134.694 37.7305ZM60.6648 166.515C60.6114 166.548 60.5618 166.581 60.5084 166.615C60.6115 166.548 60.7145 166.482 60.8198 166.416C60.7665 166.45 60.7181 166.481 60.6648 166.515ZM58.4257 169.561C58.2419 169.768 58.0581 169.975 57.8719 170.181C57.6315 169.918 57.3875 169.655 57.1485 169.389C57.4505 168.927 57.9997 169.298 58.4247 169.557L58.4257 169.561ZM137.002 32.0004C137.021 31.8548 137.04 31.7091 137.056 31.5622C136.756 31.5156 136.456 31.469 136.156 31.4224C136.273 31.8888 136.302 32.752 136.701 32.8642C136.864 32.5959 136.95 32.4185 136.999 32.0014L137.002 32.0004ZM58.8621 168.118C58.1487 169.006 57.1926 168.07 56.4391 168.233C57.0139 167.882 57.8995 167.43 57.4816 166.761C57.9438 167.213 58.4023 167.667 58.8621 168.118ZM135.651 33.6724C135.589 33.6675 135.527 33.6626 135.461 33.6587C135.585 33.6685 135.713 33.6773 135.837 33.6871C135.775 33.6822 135.713 33.6773 135.647 33.6734L135.651 33.6724ZM132.667 38.3586C131.849 38.7905 132.222 37.6244 132.451 37.1979C132.95 37.3184 133.004 38.0733 132.667 38.3586ZM134.113 35.3297C133.956 35.4909 133.798 35.6521 133.64 35.8097C133.651 35.5645 133.66 35.3181 133.67 35.0752L134.113 35.3297ZM133.219 36.887L132.975 37.3115C132.76 37.1113 132.555 36.8557 132.776 36.6326L133.219 36.887ZM54.8763 173.357L54.7134 173.641C54.5427 173.482 54.3733 173.32 54.2025 173.161C54.4276 173.226 54.6513 173.293 54.8763 173.357ZM135.757 31.0954C135.621 30.8976 135.216 31.0547 134.963 31.1088C135.263 31.1554 135.563 31.202 135.864 31.2486C135.828 31.1975 135.793 31.1465 135.756 31.0918L135.757 31.0954ZM55.3416 171.177C55.1001 171.431 54.8574 171.23 54.6691 170.978C54.9119 170.721 55.1545 170.922 55.3416 171.177ZM132.643 36.176C132.467 36.1392 132.294 36.1014 132.119 36.0623L132.282 35.7785C132.403 35.9122 132.522 36.0423 132.644 36.1737L132.643 36.176ZM55.8578 169.589C55.6772 169.673 55.4977 169.76 55.3194 169.845L55.5631 169.42L55.8578 169.589ZM133.057 33.4015L132.733 33.9668C132.367 33.8673 132.523 33.4507 132.614 33.1471L133.057 33.4015ZM57.4597 164.58C57.3987 164.514 57.339 164.446 57.2803 164.382L57.1174 164.665C57.2937 164.702 57.4664 164.74 57.6427 164.777C57.5817 164.711 57.522 164.643 57.462 164.581L57.4597 164.58ZM54.8762 169.59C54.75 169.579 54.6247 169.572 54.4994 169.564C54.6247 169.572 54.751 169.583 54.8762 169.59ZM132.176 34.5921C132.073 34.6588 131.97 34.7254 131.865 34.7907C131.968 34.7241 132.071 34.6574 132.176 34.5921ZM54.4019 170.073L54.1582 170.497L53.8635 170.328L54.1072 169.904L54.4019 170.073ZM135.275 27.9965C135.165 27.9028 135.055 27.8091 134.947 27.7132C133.946 28.6878 134.596 28.9164 135.604 28.2775C135.494 28.1838 135.385 28.0901 135.276 27.9942L135.275 27.9965ZM56.3971 165.571C56.0805 165.365 55.4586 165.486 55.0401 165.543C55.1645 166.02 55.5818 166.094 56.0072 165.911C56.0262 166.109 56.0415 166.308 56.0582 166.505C56.2698 166.249 56.4824 165.997 56.6941 165.741L56.3994 165.572L56.3971 165.571ZM53.0925 169.79C53.0259 169.847 52.9616 169.905 52.8964 169.96C52.5824 169.685 52.8997 169.272 53.0891 168.942C53.1687 169.211 53.3323 169.609 53.0925 169.79ZM130.758 34.1553C130.457 34.5346 130.25 34.5198 129.916 34.4235C130.235 34.0512 130.649 33.2491 131.091 33.4044C131.096 33.6899 131.046 33.805 130.758 34.1553ZM53.9075 167.344L53.6871 167.218L53.5242 167.501C53.727 167.492 53.9288 167.479 54.1303 167.472L53.9099 167.345L53.9075 167.344ZM131.283 32.3862C131.157 32.375 131.032 32.3675 130.908 32.3577L131.071 32.074C131.142 32.176 131.214 32.2818 131.285 32.3839L131.283 32.3862ZM55.0432 164.511C54.9799 164.509 54.9179 164.504 54.8537 164.498C54.9789 164.505 55.1052 164.516 55.2305 164.524C55.1672 164.521 55.1052 164.516 55.0409 164.51L55.0432 164.511ZM54.6099 164.922C53.754 164.167 53.5843 165.548 53.8775 166.198C54.1793 165.871 54.8984 165.312 54.6099 164.922ZM55.4974 163.548C55.4917 163.284 54.5414 162.828 54.1744 162.602L53.9307 163.026C54.5792 162.966 55.1505 164.303 55.4974 163.548ZM51.2632 171.096C51.1336 171.209 51.0005 171.323 50.871 171.435C50.903 171.267 50.9364 171.096 50.9662 170.926L51.2608 171.095L51.2632 171.096ZM52.9226 166.497C52.5325 166.408 52.4265 165.856 52.321 165.492C52.1094 165.747 51.8991 166.001 51.6851 166.255C52.1787 166.53 52.9315 167.115 53.2583 166.594C53.1476 166.561 53.0346 166.527 52.9239 166.494L52.9226 166.497ZM133.474 25.8341C133.39 25.755 133.304 25.6747 133.221 25.5934C133.088 25.9315 133.205 26.2343 133.569 26.3576C133.689 26.181 133.731 26.0642 133.477 25.8354L133.474 25.8341ZM130.641 31.4528L130.316 32.0181L130.021 31.8489L130.346 31.2836L130.641 31.4528ZM34.8841 196.887C34.8131 196.785 34.7398 196.682 34.6702 196.577C34.6381 196.746 34.6047 196.917 34.575 197.087C34.75 197.126 34.924 197.162 35.099 197.201C35.0293 197.096 34.956 196.993 34.8864 196.889L34.8841 196.887ZM53.6703 163.818L53.3756 163.649L53.1319 164.074L53.7236 164.413L53.9673 163.989L53.6726 163.82L53.6703 163.818ZM36.8369 192.459C36.6208 192.491 36.4071 192.525 36.1911 192.558C36.7134 192.808 37.3103 192.989 37.484 192.358C37.2667 192.393 37.0529 192.427 36.8369 192.459ZM36.3495 193.308C36.2155 193.197 36.0826 193.091 35.9474 192.982L35.7037 193.407L36.59 193.916C36.7443 193.7 36.7125 193.605 36.3495 193.308ZM36.0017 194.424C35.9407 194.359 35.881 194.291 35.8223 194.226C35.7903 194.395 35.7569 194.566 35.7271 194.736C35.8799 194.701 36.033 194.66 36.1847 194.622C36.1237 194.556 36.0627 194.49 36.003 194.422L36.0017 194.424ZM132.41 25.9744C132.251 25.5891 132.022 25.5312 131.713 25.4793C131.747 25.8763 131.783 26.271 131.817 26.668C132.074 26.5641 132.329 26.4588 132.585 26.3572C132.528 26.2297 132.468 26.1032 132.412 25.9757L132.41 25.9744ZM50.0942 170.048C49.3632 170.064 48.6318 170.086 47.9018 170.105C48.5143 169.613 49.3239 169.756 50.0942 170.048ZM131.224 28.2112C131.025 28.3388 130.748 27.9989 130.561 27.8302C130.821 27.6024 131.083 27.3782 131.343 27.1503C131.348 27.4537 131.428 28.0921 131.224 28.2112ZM34.5991 195.503C34.4685 195.333 34.3342 195.164 34.2035 194.993C34.5359 194.871 34.8682 194.749 35.2005 194.627L34.0195 193.949C34.2501 193.891 34.4757 193.837 34.7064 193.779C34.302 193.602 34.7901 192.134 34.8625 191.798L35.3057 192.052C35.3934 191.787 35.4784 191.526 35.5638 191.259C36.1382 191.564 36.7168 191.448 37.2309 191.09C36.9271 190.566 35.5455 190.442 34.7713 190.243C34.912 189.885 35.054 189.525 35.191 189.168C34.5897 188.85 34.3847 189.788 34.1652 190.272C33.7171 190.128 32.7101 189.443 32.592 189.933L33.1837 190.273C32.8988 190.425 32.6175 190.577 32.3339 190.727C32.5478 191.037 32.7603 191.349 32.9765 191.66C33.2299 191.321 33.6421 191.355 34.0389 191.518C33.7664 191.273 33.9658 191.044 34.2149 190.868C34.7404 191.344 34.3674 191.833 33.8593 192.17C34.3946 192.554 34.0552 193.151 33.4526 192.878L33.7771 192.313C32.9848 191.705 32.1975 193.238 31.29 192.201C31.2733 192.569 31.2589 192.938 31.2458 193.305C30.4858 193.022 30.7232 193.903 29.9627 194.169C29.0622 194.61 29.5148 195.02 30.1889 195.146C30.2 194.901 30.2075 194.657 30.2187 194.411L30.6619 194.666C30.9419 193.931 32.2666 192.875 32.8046 194.012C32.418 194.229 32.0314 194.446 31.6448 194.663C32.1438 194.556 32.4472 195.737 32.7139 196.218C32.828 195.906 32.9409 195.597 33.0528 195.284C33.202 196.179 35.7056 196.902 34.5928 195.508L34.5991 195.503ZM50.8432 166.524C50.748 166.405 50.6515 166.288 50.555 166.171C50.3801 166.911 49.2701 165.943 48.9543 166.568C49.6193 167.076 50.3749 167.178 51.1323 166.88C51.0371 166.761 50.9406 166.644 50.8455 166.525L50.8432 166.524ZM132.688 23.7812C132.215 23.4606 132.498 22.4454 131.765 22.3097C131.761 22.9979 131.76 23.6876 131.757 24.3758C132.239 24.3915 132.858 24.425 132.982 23.9504L132.688 23.7812ZM128.923 29.9946L128.802 30.2069C128.4 29.9335 128.578 29.5813 128.913 29.3294C128.986 29.5521 129.062 29.7798 128.923 29.9946ZM51.7692 163.196C51.6873 163.054 51.6053 162.912 51.5221 162.772C51.5355 163.093 51.5453 163.414 51.5587 163.735C51.7104 163.696 51.8658 163.657 52.0163 163.62C51.9343 163.478 51.8524 163.336 51.7692 163.196ZM51.2174 164.668C51.1422 164.686 51.067 164.704 50.9881 164.723C51.1422 164.686 51.294 164.647 51.4457 164.609C51.3692 164.629 51.294 164.647 51.2151 164.667L51.2174 164.668ZM50.9162 164.682C50.7984 164.259 49.5143 163.604 49.2687 164.301C49.6664 164.403 50.0678 164.505 50.4642 164.61L50.2205 165.034C50.4748 165.306 50.9084 164.975 50.9139 164.681L50.9162 164.682ZM33.7107 194.143C33.5112 194.743 32.9641 194.938 32.3225 194.852C32.7844 194.617 33.2475 194.38 33.7107 194.143ZM46.773 170.019C46.599 169.983 46.4241 169.944 46.2477 169.907L46.5722 169.342C46.6376 169.567 46.704 169.795 46.7717 170.021L46.773 170.019ZM128.137 27.9418C128.034 28.0084 127.931 28.075 127.825 28.1403C127.928 28.0737 128.031 28.007 128.137 27.9418ZM48.131 166.283C47.9291 166.038 48.2741 165.383 47.7176 165.294C47.4836 165.933 47.5808 167.488 48.2795 166.368L48.131 166.283ZM35.7711 187.985C35.719 188.017 35.6694 188.05 35.616 188.083C35.7191 188.017 35.8244 187.951 35.9274 187.885C35.8741 187.919 35.8244 187.951 35.7711 187.985ZM35.3723 188.508L35.2238 188.423C35.1917 188.591 35.1584 188.762 35.1286 188.932C35.2581 188.82 35.389 188.705 35.5208 188.593L35.3723 188.508ZM31.3844 195.627C31.4119 195.52 31.4443 195.409 31.4731 195.3C30.7873 195.146 30.7848 196.016 30.7406 196.576C30.993 196.298 31.3044 195.97 31.3844 195.627ZM36.0394 187.007C35.9641 187.025 35.8889 187.044 35.8101 187.063C35.9641 187.025 36.1146 186.989 36.2677 186.948C36.1911 186.969 36.1159 186.987 36.037 187.006L36.0394 187.007ZM46.2423 168.208C45.7574 168.73 45.162 168.305 44.6691 167.869C45.2565 167.636 45.8262 167.702 46.2423 168.208ZM127.556 25.5349C127.096 26.0193 126.543 26.7785 125.924 26.6687C125.876 25.7267 126.682 25.5112 127.556 25.5349ZM32.2351 191.409C32.2374 191.346 32.2407 191.287 32.243 191.224C29.3732 189.935 29.7779 191.514 32.2286 191.593C32.2295 191.532 32.2328 191.473 32.2351 191.409ZM44.9195 169.142C44.7167 169.151 44.5152 169.158 44.3134 169.171C44.3501 168.876 44.3887 168.588 44.4254 168.293C44.5892 168.578 44.7544 168.86 44.9195 169.142ZM129.998 20.2555C129.936 20.2506 129.874 20.2457 129.808 20.2417C129.935 20.2529 130.06 20.2604 130.184 20.2702C130.122 20.2653 130.06 20.2604 129.994 20.2564L129.998 20.2555ZM47.6149 163.253C47.4273 163.032 47.1993 163.107 46.9757 163.168C47.2481 163.264 47.5242 163.358 47.7943 163.451C47.7346 163.383 47.6736 163.318 47.6149 163.253ZM45.8745 166.113C45.5969 165.506 44.468 165.204 43.8581 165.52C44.4746 165.736 45.5427 165.901 45.4002 166.595C45.6092 166.495 45.9674 166.381 45.8732 166.115L45.8745 166.113ZM30.2652 192.444C30.0154 191.939 29.2015 192.002 28.661 191.993C28.9133 191.328 29.6675 189.31 28.4904 190.576C28.2765 190.266 28.0616 189.952 27.8477 189.642C26.6416 190.588 30.8093 194.619 30.2642 192.441L30.2652 192.444ZM29.5009 193.604C29.4243 193.624 29.3468 193.641 29.2739 193.66C29.4243 193.624 29.5797 193.584 29.7315 193.546C29.6549 193.566 29.5774 193.583 29.5009 193.604ZM45.9507 163.24C45.9166 163.186 45.8788 163.134 45.842 163.085C45.7124 163.198 45.5793 163.312 45.4521 163.426L45.8953 163.68C45.9807 163.542 46.0721 163.404 45.9517 163.243L45.9507 163.24ZM32.8905 186.329C32.761 186.441 32.6279 186.555 32.5007 186.669C32.4297 186.567 32.3554 186.46 32.2868 186.359C32.4873 186.349 32.6914 186.337 32.8929 186.33L32.8905 186.329ZM42.9044 168.546C42.5235 168.855 41.9518 168.696 42.3127 168.206L42.9044 168.546ZM125.61 24.1322L125.488 24.3445L125.193 24.1753C125.385 23.8467 125.697 23.4274 125.386 23.1571C125.884 23.311 125.841 23.7833 125.612 24.1335L125.61 24.1322ZM126.236 22.7032C126.112 22.6934 125.982 22.6832 125.86 22.6748C125.89 22.5047 125.926 22.335 125.956 22.165C126.05 22.3448 126.142 22.5234 126.236 22.7032ZM44.3887 163.564C44.3168 163.458 44.2458 163.356 44.1748 163.254C43.5901 163.633 42.8779 164.197 42.2627 163.849C42.9294 164.435 43.8078 164.2 44.6036 163.877C44.5316 163.772 44.4607 163.67 44.391 163.565L44.3887 163.564ZM30.5399 187.516C30.4302 187.422 30.3218 187.326 30.212 187.233C30.0316 187.638 30.3085 187.914 30.7062 188.081C30.844 187.884 30.8522 187.778 30.5412 187.514L30.5399 187.516ZM127.974 17.9615C127.884 18.0051 127.793 18.045 127.706 18.0899L128 18.259L128.244 17.8345C128.154 17.8781 128.064 17.918 127.974 17.9615ZM30.2076 188.267C30.1178 188.31 30.027 188.35 29.9408 188.393C30.1191 188.308 30.301 188.222 30.4792 188.138C30.3894 188.181 30.2987 188.221 30.2089 188.265L30.2076 188.267ZM33.3527 182.45C33.2775 182.468 33.1999 182.485 33.1234 182.505C33.2775 182.468 33.4279 182.431 33.581 182.39C33.5045 182.411 33.4269 182.428 33.3527 182.45ZM43.1192 165.093C43.0427 165.113 42.9651 165.13 42.8909 165.152C43.0404 165.112 43.1981 165.074 43.3485 165.037C43.2733 165.055 43.1958 165.072 43.1192 165.093ZM126.273 19.9026C126.119 19.9399 125.967 19.9786 125.816 20.0172C125.967 19.9786 126.122 19.9412 126.273 19.9026ZM41.2671 167.98C41.1419 167.973 41.0156 167.962 40.8903 167.954C40.8936 167.83 40.9001 167.712 40.9047 167.585C41.0267 167.717 41.1451 167.849 41.2671 167.98ZM32.2493 182.663C32.1595 182.706 32.071 182.748 31.9812 182.791L32.2759 182.96L32.5196 182.536C32.4298 182.579 32.3377 182.622 32.2493 182.663ZM30.7758 184.547C30.5753 184.558 30.3739 184.565 30.1697 184.576L30.3326 184.293L30.7758 184.547ZM42.9051 162.902C42.8554 162.935 42.8034 162.967 42.7501 163C42.8568 162.933 42.9561 162.867 43.0615 162.802C43.0082 162.836 42.9585 162.869 42.9051 162.902ZM123.368 22.5663C123.136 22.853 122.833 22.9029 122.533 22.6511C122.765 22.3643 123.069 22.3145 123.368 22.5663ZM40.962 166.115C40.6275 166.386 40.2286 166.565 39.9805 166.116C40.2421 165.757 40.6183 165.86 40.962 166.115ZM30.8841 183.671L30.7212 183.954C30.6515 183.85 30.5796 183.744 30.5086 183.642C30.6349 183.653 30.7602 183.661 30.8841 183.671ZM28.5279 187.775C28.4248 187.842 28.3218 187.908 28.2188 187.975C28.3218 187.908 28.4235 187.844 28.5279 187.775ZM41.7606 163.187C41.6655 163.068 41.569 162.951 41.4725 162.835C41.2772 163.271 41.6206 163.469 42.0475 163.542C41.9523 163.423 41.8558 163.306 41.7606 163.187ZM123.632 20.7421L123.51 20.9544C123.149 20.8517 123.231 20.3924 123.243 20.0494C123.434 20.2327 123.795 20.4953 123.632 20.7421ZM31.0159 181.393C30.9317 181.314 30.8452 181.234 30.7623 181.153C30.6783 181.417 30.5882 181.682 30.5042 181.946C30.9238 182.15 31.4768 181.827 31.0173 181.391L31.0159 181.393ZM124.027 19.3709L123.784 19.7954C123.545 19.5819 123.17 19.2838 123.436 19.0312L124.027 19.3709ZM126.421 14.3463L126.198 14.2184L126.036 14.5022L126.479 14.7566L126.642 14.4728L126.419 14.345L126.421 14.3463ZM41.1666 162.002C40.9839 161.864 40.7999 161.728 40.616 161.591C40.7975 162.162 41.091 162.741 41.7162 162.41C41.5322 162.274 41.3496 162.135 41.1656 161.999L41.1666 162.002ZM37.2484 170.198C37.0944 170.235 36.9426 170.274 36.7908 170.313C36.9436 170.278 37.0967 170.237 37.2484 170.198ZM125.408 15.084C125.359 15.1168 125.305 15.1506 125.253 15.1821C125.359 15.1168 125.459 15.0488 125.565 14.9836C125.513 15.015 125.462 15.0502 125.41 15.0817L125.408 15.084ZM38.695 166.136C38.644 166.171 38.592 166.202 38.5387 166.236C38.4468 166.058 38.3513 165.88 38.2584 165.698C38.0723 165.904 37.8908 166.113 37.7046 166.319C37.5949 165.532 37.1522 164.986 36.3241 164.962C36.8735 164.811 37.2796 164.458 37.4984 163.943C37.6204 164.074 37.7388 164.206 37.8608 164.338C38.6314 163.259 39.0213 165.884 38.694 166.132L38.695 166.136ZM27.3476 185.22C27.0615 185.047 26.7003 185.628 26.4913 185.857C26.7946 186.173 27.2639 185.586 27.5704 185.348L27.3476 185.22ZM39.9923 163.022C39.8517 162.837 40.1373 162.651 40.2757 162.528L39.6841 162.188L39.4404 162.613C39.393 161.997 38.7821 161.637 38.2083 161.341C38.1871 162.114 39.2069 163.003 39.9368 163.462C40.0209 163.326 40.1173 163.185 39.9923 163.022ZM31.5395 177.746C31.504 177.695 31.4699 177.642 31.4344 177.591L31.2715 177.874C31.3967 177.882 31.523 177.893 31.6483 177.901C31.6128 177.85 31.5763 177.795 31.5408 177.744L31.5395 177.746ZM122.677 17.2795C122.522 17.3169 122.371 17.3555 122.219 17.3941C122.371 17.3555 122.525 17.3182 122.677 17.2795ZM34.9062 170.173C34.5794 170.172 34.249 170.173 33.9223 170.172C34.2446 169.971 34.5999 169.911 34.9062 170.173ZM124.583 11.9752C124.51 11.8718 124.44 11.7674 124.369 11.6653C124.337 11.834 124.304 12.005 124.272 12.1738C124.447 12.2129 124.621 12.2483 124.796 12.2874C124.722 12.184 124.653 12.0796 124.582 11.9775L124.583 11.9752ZM120.885 18.4169L120.763 18.6292C120.45 18.2835 120.063 17.8343 120.578 17.5812C120.739 17.8175 121.045 18.177 120.885 18.4169ZM37.4729 162.52C37.3157 162.396 37.155 162.273 36.9965 162.152C37.0377 162.424 37.0753 162.697 37.1152 162.971C37.3922 162.94 37.6702 162.913 37.9506 162.886C37.7921 162.765 37.6327 162.639 37.4742 162.518L37.4729 162.52ZM35.7559 166.709C35.493 167.071 35.1214 166.971 34.772 166.709C35.0347 166.354 35.4065 166.447 35.7559 166.709ZM35.5941 165.11C35.3375 165.509 34.4338 164.815 34.2292 165.269C34.0464 165.63 33.4419 165.307 33.0991 165.184C34.0507 164.037 35.242 165.439 35.7126 164.049C35.7671 164.406 35.871 164.864 35.5941 165.11ZM32.0745 170.903C32.0135 170.837 31.9538 170.769 31.8928 170.703L31.6491 171.128C31.8496 171.117 32.0511 171.11 32.2552 171.099C32.1942 171.033 32.1368 170.966 32.0758 170.901L32.0745 170.903ZM26.8089 180.586C26.6856 181.064 26.1188 180.966 25.6658 180.868C25.9592 180.432 26.3634 180.18 26.8089 180.586ZM35.195 161.872C34.719 161.062 33.9207 160.975 33.8379 161.844C34.2147 161.871 34.5925 161.9 34.968 161.929C34.3046 162.778 36.1983 163.123 35.195 161.872ZM26.6848 178.067C26.483 178.08 26.2816 178.087 26.0787 178.096C26.1304 177.377 26.7335 177.23 26.6848 178.067ZM119.436 15.9867C118.656 16.4376 118.119 15.3782 118.948 14.9553C119.188 15.2309 119.748 15.6963 119.436 15.9867ZM28.805 172.32L28.5104 172.151C28.4806 172.321 28.4449 172.491 28.4152 172.661C28.6421 172.604 28.8751 172.548 29.102 172.491L28.8074 172.322L28.805 172.32ZM29.5594 170.496C29.4574 170.502 29.3579 170.503 29.2559 170.509C29.4564 170.498 29.6578 170.491 29.862 170.479C29.7599 170.485 29.6615 170.49 29.5594 170.496ZM25.5534 177.985C25.2722 178.136 24.9886 178.286 24.705 178.436C24.8281 178.071 25.1614 177.953 25.5534 177.985ZM120.871 11.2616C120.836 11.2105 120.8 11.1595 120.766 11.1061L120.442 11.6714C120.624 11.5856 120.8 11.4995 120.98 11.416C120.945 11.365 120.907 11.3126 120.873 11.2593L120.871 11.2616ZM40.848 151.003C40.5422 151.079 40.2363 151.155 39.9318 151.229C40.1156 151.022 40.3018 150.816 40.4833 150.607C40.6053 150.738 40.7237 150.871 40.8457 151.002L40.848 151.003ZM31.7494 165.827L31.6275 166.039C31.4094 165.849 31.1886 165.664 30.9718 165.472C31.2174 165.012 31.9414 165.385 31.7494 165.827ZM29.1149 170.244C29.1035 169.909 28.4712 169.914 28.4346 170.23C28.6596 170.295 28.882 170.365 29.1084 170.427C29.113 170.365 29.1126 170.307 29.1149 170.244ZM118.112 15.0424C117.985 15.0313 117.862 15.0251 117.736 15.014C117.864 15.0228 117.988 15.0326 118.112 15.0424ZM25.7904 175.863L25.4659 176.428L25.1712 176.259C25.3796 176.127 25.5833 175.993 25.7904 175.863ZM24.6671 177.476C24.305 177.768 23.9393 178.061 23.5736 178.354C23.4307 178.146 23.2914 177.938 23.1448 177.731C23.7234 177.787 24.2881 177.706 24.306 177.078C24.4244 177.211 24.5477 177.34 24.6671 177.476ZM26.7575 172.464C26.2319 172.595 25.5069 172.697 25.3693 173.173L25.0746 173.004C25.2738 172.281 26.0515 172.307 26.7575 172.464ZM30.5595 165.331C29.7692 165.573 28.998 164.563 30.1142 164.225C30.299 164.522 30.8231 165.108 30.5595 165.331ZM25.7173 173.938C24.8126 174.062 24.4319 175.623 24.0244 176.542C22.5432 175.99 24.5265 172.309 25.7173 173.938ZM33.0687 160.277L32.846 160.149L32.6022 160.574C32.8292 160.517 33.0598 160.459 33.2891 160.404L33.0687 160.277ZM23.6345 176.883C23.5083 176.872 23.3853 176.866 23.2591 176.855C23.3853 176.866 23.5106 176.873 23.6345 176.883ZM116.285 14.463C116.195 14.5066 116.107 14.5478 116.017 14.5914L116.311 14.7605L116.555 14.336C116.465 14.3796 116.375 14.4195 116.285 14.463ZM38.1303 150.949L37.9674 151.233L37.5242 150.979L37.6871 150.695L38.1303 150.949ZM26.2246 171.689L26.1027 171.901C25.6985 171.439 25.161 170.575 24.627 171.054C24.7523 167.509 26.7428 169.373 26.2246 171.689ZM27.0177 169.791C26.9667 169.826 26.916 169.856 26.8627 169.889C26.7462 169.635 26.6311 169.379 26.5147 169.125C26.9014 169.188 27.4709 169.453 27.0154 169.79L27.0177 169.791ZM119.929 7.42633C119.854 7.4445 119.778 7.46498 119.702 7.48315C119.857 7.44583 120.006 7.40585 120.16 7.36853C120.085 7.38671 120.006 7.40585 119.931 7.42402L119.929 7.42633ZM34.532 155.847L34.3835 155.762L34.1398 156.186C34.3181 156.102 34.5023 156.017 34.6782 155.931L34.532 155.847ZM25.3327 172.211C25.1322 172.221 24.9271 172.229 24.7266 172.24L24.8895 171.956L25.3327 172.211ZM36.7411 151.655C36.4673 151.562 36.1962 151.465 35.9211 151.375C36.1369 150.719 36.8469 151.019 36.7411 151.655ZM29.426 164.398C29.1332 164.714 28.4122 164.831 28.5253 164.258C28.6352 164.066 29.1811 164.325 29.426 164.398ZM31.2672 159.998L31.0444 159.87L30.8007 160.294C31.0277 160.237 31.2583 160.18 31.4876 160.124L31.2672 159.998ZM119.019 6.62132C118.957 6.61642 118.892 6.61019 118.829 6.60759C118.9 6.70968 118.974 6.81674 119.043 6.9175L119.207 6.63141C119.145 6.62651 119.083 6.62161 119.02 6.61901L119.019 6.62132ZM22.9828 174.251C22.3549 174.286 22.4062 173.466 22.3569 172.95C22.8655 172.843 22.861 173.813 22.9828 174.251ZM119.041 6.06661C118.98 6.00092 118.921 5.93656 118.859 5.86722L118.696 6.151C118.871 6.19011 119.045 6.22558 119.22 6.26468C119.159 6.19898 119.098 6.13329 119.039 6.06529L119.041 6.06661ZM28.8524 163.688C28.2611 164.1 27.6498 163.746 27.133 163.265C27.6899 162.999 28.3091 163.339 28.8524 163.688ZM30.3855 160.335C30.3513 160.282 30.3135 160.229 30.2781 160.178C30.1773 160.246 30.0707 160.314 29.969 160.378C30.1416 160.416 30.318 160.453 30.4929 160.492C30.4575 160.441 30.4233 160.387 30.3865 160.339L30.3855 160.335ZM114.757 13.0185C114.722 12.9675 114.686 12.9165 114.652 12.8631L114.489 13.1469C114.617 13.1557 114.741 13.1655 114.865 13.1753C114.829 13.1243 114.791 13.0719 114.757 13.0185ZM24.2803 170.287C24.1589 170.644 23.8723 170.74 23.5127 170.598C23.671 170.441 23.8283 170.279 23.9857 170.118C23.6065 169.983 23.4764 169.651 23.4892 169.269C24.0426 169.369 24.6681 169.703 23.9857 170.118L24.2803 170.287ZM24.3722 168.929C24.2569 168.958 24.1452 168.986 24.0276 169.013C23.9833 168.537 24.1286 168.16 24.6635 168.25C24.6954 168.538 24.7582 168.853 24.3709 168.931L24.3722 168.929ZM115.116 10.6846C114.99 10.6735 114.867 10.6673 114.74 10.6562C114.868 10.665 114.992 10.6748 115.116 10.6846ZM20.9622 173.843C20.9645 173.78 20.9677 173.72 20.97 173.657C20.7182 173.601 20.5094 173.675 20.4316 173.912C20.608 173.949 20.7806 173.987 20.9569 174.024C20.9616 173.962 20.9625 173.901 20.9635 173.84L20.9622 173.843ZM26.3107 162.984C26.1292 163.192 25.943 163.398 25.7592 163.606C25.6079 163.267 25.3244 162.81 25.5728 162.56L26.3107 162.984ZM20.0604 173.699C20.0107 173.732 19.9587 173.764 19.9053 173.797C20.0084 173.731 20.1137 173.666 20.2144 173.598C20.1634 173.633 20.1114 173.664 20.0581 173.698L20.0604 173.699ZM113.978 8.89951C113.748 9.08023 113.509 9.25927 113.277 9.43866C113.264 9.01432 113.57 8.85838 113.978 8.89951ZM21.3088 168.956C21.1859 168.95 21.0573 168.937 20.932 168.93C21.055 168.936 21.1836 168.948 21.3088 168.956ZM20.3639 169.92C20.1843 170.007 20.0027 170.086 19.8255 170.175L20.0692 169.75L20.3639 169.92ZM29.7536 152.536C29.5995 152.574 29.4501 152.614 29.296 152.651C29.4501 152.614 29.6005 152.577 29.7536 152.536ZM26.9086 157.492C26.7823 157.481 26.6571 157.474 26.5331 157.464C26.6594 157.475 26.7823 157.481 26.9086 157.492ZM24.5691 161.229C24.1825 161.446 23.7958 161.663 23.4092 161.879C23.5476 161.52 23.6882 161.162 23.8289 160.804L24.5691 161.229ZM28.9205 152.623C28.6935 152.68 28.4606 152.736 28.2336 152.793L28.4773 152.368L28.9205 152.623ZM112.157 7.2895C111.98 7.2527 111.808 7.21493 111.633 7.17582C111.808 7.21493 111.982 7.2504 112.157 7.2895ZM19.1928 167.177C19.0688 167.167 18.9389 167.157 18.8173 167.148L18.9802 166.864C19.0499 166.969 19.1231 167.072 19.1928 167.177ZM22.1628 160.977C21.9623 160.987 21.7585 160.993 21.5567 161.006C21.5413 160.807 21.5187 160.61 21.5057 160.412C21.7239 160.602 21.9433 160.789 22.1615 160.979L22.1628 160.977ZM18.6309 166.103C18.4258 166.111 18.2276 166.123 18.0248 166.132L18.1877 165.848L18.6309 166.103ZM22.383 159.223C22.2567 159.212 22.1315 159.204 22.0075 159.194C22.3493 159.486 21.9064 159.854 21.6686 160.129C21.2942 159.453 21.6232 158.655 22.383 159.223ZM19.0971 160.158C18.9941 160.225 18.8874 160.293 18.788 160.358C18.8897 160.294 18.9964 160.226 19.0971 160.158ZM17.74 160.131C17.077 160.996 16.4671 160.639 15.8266 160.729L16.0703 160.304L16.3649 160.473C16.449 160.209 16.5377 159.947 16.6217 159.682C16.9953 159.832 17.3639 159.986 17.7387 160.133L17.74 160.131ZM19.4902 156.056C19.3607 156.169 19.2275 156.282 19.1003 156.396C19.1301 156.226 19.1658 156.057 19.1955 155.887L19.4902 156.056ZM13.4767 162.769C13.3226 162.807 13.1721 162.843 13.0191 162.884C13.1708 162.845 13.3226 162.807 13.4767 162.769ZM4.46263 157.782C4.36057 157.788 4.25983 157.791 4.15777 157.797C4.35825 157.786 4.56105 157.777 4.76385 157.768C4.66179 157.774 4.5647 157.776 4.46263 157.782ZM4.91685 156.819C4.85488 156.814 4.79159 156.811 4.72961 156.806C4.85588 156.818 4.98114 156.825 5.10508 156.835C5.04311 156.83 4.9775 156.826 4.91552 156.821L4.91685 156.819Z" fill="#839CB5"/>
</g>
</g>
<defs>
<clipPath id="clip0_1762_213">
<rect width="151" height="201" fill="white"/>
</clipPath>
<clipPath id="clip1_1762_213">
<rect width="209.27" height="97.0526" fill="white" transform="translate(182.357 42.3188) rotate(119.859)"/>
</clipPath>
</defs>
</svg>
