<svg width="63" height="64" viewBox="0 0 63 64" fill="none" xmlns="http://www.w3.org/2000/svg">
<g clip-path="url(#clip0_5861_366)">
<path d="M61.9063 39.1657V38.3945H61.7188L61.5 38.9087L61.2813 38.3945H61.0938V39.1657H61.2188V38.5873L61.4375 39.1015H61.5938L61.8125 38.5873V39.1657H61.9063ZM60.6563 39.1657V38.5231H60.9062V38.3945H60.2812V38.5231H60.5313V39.1657H60.6563Z" fill="#00A2E5"/>
<path d="M39.6875 42.4756H22.7812V11.2417H39.6875V42.4756Z" fill="#7375CF"/>
<path d="M23.875 26.8586C23.875 20.5283 26.75 14.8728 31.25 11.2416C27.9688 8.57455 23.8125 7 19.3125 7C8.65625 7 0 15.901 0 26.8586C0 37.8162 8.65625 46.7172 19.3125 46.7172C23.8125 46.7172 27.9688 45.1427 31.25 42.4756C26.75 38.8445 23.875 33.1889 23.875 26.8586Z" fill="#EB001B"/>
<path d="M62.5 26.8586C62.5 37.8162 53.8437 46.7172 43.1875 46.7172C38.6875 46.7172 34.5312 45.1427 31.25 42.4756C35.75 38.8445 38.625 33.1889 38.625 26.8586C38.625 20.5283 35.75 14.8728 31.25 11.2416C34.5312 8.57455 38.6875 7 43.1875 7C53.8437 7 62.5 15.901 62.5 26.8586Z" fill="#00A2E5"/>
<path d="M45.375 51.3125C45.5938 51.3125 45.9375 51.3447 46.1562 51.4411L45.8125 52.5336C45.5625 52.4372 45.3438 52.4051 45.125 52.4051C44.4062 52.4051 44.0312 52.8871 44.0312 53.7547V56.711H42.9062V51.4411H44V52.0837C44.3125 51.6017 44.75 51.3125 45.375 51.3125ZM41.25 52.4693H39.4375V54.8472C39.4375 55.3614 39.625 55.7148 40.1875 55.7148C40.4688 55.7148 40.8438 55.6184 41.1875 55.4256L41.5 56.4218C41.1563 56.6789 40.5938 56.8395 40.0938 56.8395C38.7813 56.8395 38.3125 56.1004 38.3125 54.8794V52.4693H37.2813V51.4089H38.3125V49.8022H39.4375V51.4089H41.25V52.4693ZM26.9688 53.594C27.0938 52.8228 27.5312 52.3087 28.3438 52.3087C29.0625 52.3087 29.5312 52.7585 29.6562 53.594H26.9688ZM30.8125 54.076C30.8125 52.4372 29.8125 51.3125 28.375 51.3125C26.875 51.3125 25.8125 52.4372 25.8125 54.076C25.8125 55.747 26.9062 56.8395 28.4375 56.8395C29.2188 56.8395 29.9062 56.6467 30.5312 56.1004L29.9688 55.265C29.5313 55.6184 29 55.8112 28.4688 55.8112C27.75 55.8112 27.0938 55.4578 26.9375 54.5259H30.75C30.7813 54.3652 30.8125 54.2367 30.8125 54.076ZM35.7188 52.7907C35.4063 52.5979 34.7812 52.3408 34.125 52.3408C33.5 52.3408 33.1562 52.5657 33.1562 52.9513C33.1562 53.3048 33.5312 53.4012 34.0312 53.4655L34.5625 53.5298C35.6875 53.6904 36.3438 54.1724 36.3438 55.1043C36.3438 56.1004 35.5 56.8395 34 56.8395C33.1563 56.8395 32.375 56.6146 31.7812 56.1647L32.3125 55.265C32.6875 55.5542 33.25 55.8112 34.0312 55.8112C34.7813 55.8112 35.1875 55.5863 35.1875 55.1686C35.1875 54.8794 34.9062 54.7187 34.2812 54.6223L33.75 54.558C32.5938 54.3974 31.9688 53.8511 31.9688 53.0156C31.9688 51.9552 32.8125 51.3125 34.0938 51.3125C34.9062 51.3125 35.6563 51.5053 36.1875 51.8588L35.7188 52.7907ZM49.4688 52.3729C49.25 52.3729 49.0312 52.4051 48.8438 52.5015C48.6562 52.5979 48.4688 52.6943 48.3438 52.8549C48.2188 53.0156 48.0938 53.1763 48 53.4012C47.9063 53.594 47.875 53.8511 47.875 54.076C47.875 54.3331 47.9063 54.558 48 54.7508C48.0938 54.9436 48.1875 55.1364 48.3438 55.2971C48.5 55.4578 48.6562 55.5542 48.8438 55.6506C49.0312 55.747 49.25 55.7791 49.4688 55.7791C49.6875 55.7791 49.9062 55.747 50.0938 55.6506C50.2812 55.5542 50.4687 55.4578 50.5937 55.2971C50.75 55.1364 50.8437 54.9758 50.9375 54.7508C51.0312 54.558 51.0625 54.301 51.0625 54.076C51.0625 53.819 51.0312 53.594 50.9375 53.4012C50.8437 53.2084 50.75 53.0156 50.5937 52.8549C50.4375 52.6943 50.2812 52.5979 50.0938 52.5015C49.9062 52.4372 49.6875 52.3729 49.4688 52.3729ZM49.4688 51.3125C49.875 51.3125 50.25 51.3768 50.5625 51.5375C50.9063 51.666 51.1875 51.8588 51.4375 52.1159C51.6875 52.3729 51.875 52.6621 52.0312 52.9835C52.1562 53.337 52.25 53.6904 52.25 54.076C52.25 54.4616 52.1875 54.8472 52.0312 55.1686C51.9062 55.522 51.6875 55.8112 51.4375 56.0362C51.1875 56.2933 50.9063 56.486 50.5625 56.6146C50.2188 56.7431 49.8438 56.8395 49.4688 56.8395C49.0625 56.8395 48.6875 56.7753 48.375 56.6146C48.0312 56.486 47.75 56.2933 47.5 56.0362C47.25 55.7791 47.0625 55.4899 46.9063 55.1686C46.7813 54.8151 46.6875 54.4616 46.6875 54.076C46.6875 53.6904 46.75 53.3048 46.9063 52.9835C47.0313 52.63 47.25 52.3408 47.5 52.1159C47.75 51.8588 48.0312 51.666 48.375 51.5375C48.6875 51.3768 49.0625 51.3125 49.4688 51.3125ZM20.4688 54.076C20.4688 53.1441 21.0625 52.3729 22.0312 52.3729C22.9688 52.3729 23.5625 53.112 23.5625 54.076C23.5625 55.04 22.9375 55.747 22.0312 55.747C21.0625 55.747 20.4688 55.0079 20.4688 54.076ZM24.625 54.076V51.4411H23.5V52.0837C23.1562 51.6017 22.625 51.3125 21.875 51.3125C20.4375 51.3125 19.3125 52.4693 19.3125 54.076C19.3125 55.6827 20.4375 56.8395 21.875 56.8395C22.5938 56.8395 23.125 56.5503 23.5 56.0683V56.711H24.625V54.076ZM18.3438 56.711V53.4012C18.3438 52.148 17.5625 51.3125 16.3125 51.3125C15.6563 51.3125 14.9688 51.5053 14.5 52.2444C14.1563 51.666 13.5938 51.3125 12.8125 51.3125C12.2813 51.3125 11.7188 51.4732 11.3125 52.0837V51.4411H10.1875V56.711H11.3125V53.7868C11.3125 52.8871 11.8125 52.3729 12.5625 52.3729C13.3125 52.3729 13.6875 52.8549 13.6875 53.7547V56.6789H14.8125V53.7547C14.8125 52.8549 15.3438 52.3408 16.0625 52.3408C16.8125 52.3408 17.1875 52.8228 17.1875 53.7226V56.6467H18.3438V56.711Z" fill="#E8E8E8"/>
<path d="M53.4375 56.2934V56.4219H53.5625C53.5937 56.4219 53.625 56.4219 53.625 56.3898C53.6562 56.3898 53.6562 56.3577 53.6562 56.3255C53.6562 56.2934 53.6562 56.2934 53.625 56.2934C53.625 56.2934 53.5937 56.2613 53.5625 56.2613H53.4375V56.2934ZM53.5625 56.2291C53.625 56.2291 53.6562 56.2291 53.6875 56.2613C53.7187 56.2934 53.75 56.3255 53.75 56.3898C53.75 56.4219 53.75 56.4541 53.7187 56.4862C53.6875 56.5183 53.6562 56.5183 53.5937 56.5183L53.75 56.7111H53.625L53.4688 56.5183H53.4375V56.7111H53.3437V56.2291H53.5625ZM53.5312 56.8718C53.5937 56.8718 53.625 56.8718 53.6875 56.8397C53.75 56.8076 53.7812 56.7754 53.8125 56.7433C53.8437 56.7111 53.875 56.679 53.9062 56.6147C53.9375 56.5505 53.9375 56.5183 53.9375 56.4541C53.9375 56.3898 53.9375 56.3577 53.9062 56.2934C53.875 56.2291 53.8437 56.197 53.8125 56.1649C53.7812 56.1327 53.75 56.1006 53.6875 56.0685C53.6562 56.0363 53.5937 56.0363 53.5312 56.0363C53.4687 56.0363 53.4375 56.0363 53.375 56.0685C53.3125 56.1006 53.2812 56.1327 53.25 56.1649C53.2187 56.197 53.1875 56.2613 53.1562 56.2934C53.125 56.3577 53.125 56.3898 53.125 56.4541C53.125 56.5183 53.125 56.5505 53.1562 56.6147C53.1875 56.679 53.2187 56.7111 53.25 56.7433C53.2812 56.7754 53.3437 56.8076 53.375 56.8397C53.4375 56.8718 53.4687 56.8718 53.5312 56.8718ZM53.5312 55.9399C53.5937 55.9399 53.6562 55.9399 53.7187 55.9721C53.7812 56.0042 53.8437 56.0363 53.875 56.0685C53.9062 56.1006 53.9687 56.1649 54 56.2291C54.0312 56.2934 54.0312 56.3577 54.0312 56.4219C54.0312 56.4862 54.0312 56.5505 54 56.6147C53.9687 56.679 53.9375 56.7433 53.875 56.7754C53.8125 56.8075 53.7812 56.8718 53.7187 56.904C53.6562 56.9361 53.5937 56.9361 53.5312 56.9361C53.4687 56.9361 53.375 56.9361 53.3125 56.904C53.25 56.8718 53.1875 56.8397 53.1562 56.7754C53.125 56.7433 53.0625 56.679 53.0312 56.6147C53 56.5505 53 56.4862 53 56.4219C53 56.3577 53 56.2934 53.0312 56.2291C53.0625 56.1649 53.0938 56.1006 53.1562 56.0685C53.1875 56.0363 53.25 55.9721 53.3125 55.9721C53.375 55.9399 53.4687 55.9399 53.5312 55.9399Z" fill="#E8E8E8"/>
</g>
<defs>
<clipPath id="clip0_5861_366">
<rect width="62.5" height="50" fill="white" transform="translate(0 7)"/>
</clipPath>
</defs>
</svg>
