<svg width="63" height="64" viewBox="0 0 63 64" fill="none" xmlns="http://www.w3.org/2000/svg">
<g clip-path="url(#clip0_5861_377)">
<path d="M11.3983 54.8903V51.572C11.3983 50.3026 10.6389 49.4714 9.33519 49.4714C8.68334 49.4714 7.97454 49.6905 7.48724 50.4122C7.10752 49.8065 6.56326 49.4714 5.74688 49.4714C5.20262 49.4714 4.65836 49.639 4.22801 50.2446V49.581H3.08887V54.8903H4.22801V51.9586C4.22801 51.0178 4.71532 50.5733 5.47475 50.5733C6.23418 50.5733 6.61389 51.0694 6.61389 51.9586V54.8903H7.75304V51.9586C7.75304 51.0178 8.2973 50.5733 8.99977 50.5733C9.7592 50.5733 10.1389 51.0694 10.1389 51.9586V54.8903H11.3983ZM28.2957 49.581H26.4477V47.9766H25.3086V49.581H24.277V50.6312H25.3086V53.0668C25.3086 54.2846 25.7959 54.9998 27.0995 54.9998C27.5868 54.9998 28.1311 54.8323 28.5108 54.6132L28.1817 53.6145C27.8526 53.8336 27.4729 53.8916 27.2008 53.8916C26.6565 53.8916 26.4414 53.5565 26.4414 53.0088V50.6312H28.2893V49.581H28.2957ZM37.9657 49.465C37.3139 49.465 36.8772 49.8001 36.6051 50.2382V49.5745H35.466V54.8838H36.6051V51.8941C36.6051 51.0114 36.9848 50.5088 37.6936 50.5088C37.9088 50.5088 38.1809 50.5668 38.4024 50.6184L38.7315 49.5101C38.5037 49.465 38.1809 49.465 37.9657 49.465ZM23.353 50.0191C22.8088 49.6325 22.0493 49.465 21.2329 49.465C19.9293 49.465 19.0622 50.1287 19.0622 51.1789C19.0622 52.0617 19.7141 52.5642 20.8532 52.7253L21.3975 52.7833C21.9924 52.8928 22.3215 53.0604 22.3215 53.3374C22.3215 53.724 21.8848 54.0011 21.1254 54.0011C20.3659 54.0011 19.7647 53.724 19.385 53.447L18.8407 54.3297C19.4356 54.7743 20.252 54.9934 21.0684 54.9934C22.5873 54.9934 23.4606 54.2717 23.4606 53.2794C23.4606 52.3387 22.7518 51.8426 21.6696 51.6751L21.1254 51.6171C20.6381 51.5591 20.2583 51.4495 20.2583 51.1209C20.2583 50.7343 20.6381 50.5153 21.2393 50.5153C21.8911 50.5153 22.543 50.7923 22.872 50.9599L23.353 50.0191ZM53.6607 49.465C53.0088 49.465 52.5721 49.8001 52.3 50.2382V49.5745H51.1609V54.8838H52.3V51.8941C52.3 51.0114 52.6797 50.5088 53.3885 50.5088C53.6037 50.5088 53.8758 50.5668 54.0973 50.6184L54.4264 49.523C54.2049 49.465 53.8822 49.465 53.6607 49.465ZM39.1049 52.2356C39.1049 53.84 40.1934 54.9998 41.8768 54.9998C42.6362 54.9998 43.1805 54.8323 43.7248 54.3941L43.1805 53.4534C42.7438 53.7885 42.3135 53.9495 41.8199 53.9495C40.8959 53.9495 40.244 53.2859 40.244 52.2356C40.244 51.2369 40.8959 50.5733 41.8199 50.5217C42.3072 50.5217 42.7438 50.6892 43.1805 51.0178L43.7248 50.0771C43.1805 49.6325 42.6362 49.4714 41.8768 49.4714C40.1934 49.465 39.1049 50.6312 39.1049 52.2356ZM49.642 52.2356V49.581H48.5028V50.2446C48.1231 49.7485 47.5789 49.4714 46.8701 49.4714C45.4018 49.4714 44.2627 50.6312 44.2627 52.2356C44.2627 53.84 45.4018 54.9998 46.8701 54.9998C47.6295 54.9998 48.1738 54.7227 48.5028 54.2266V54.8903H49.642V52.2356ZM45.4588 52.2356C45.4588 51.2949 46.0537 50.5217 47.0346 50.5217C47.9586 50.5217 48.6104 51.2434 48.6104 52.2356C48.6104 53.1763 47.9586 53.9495 47.0346 53.9495C46.06 53.8916 45.4588 53.1699 45.4588 52.2356ZM31.827 49.465C30.3081 49.465 29.2196 50.5733 29.2196 52.2292C29.2196 53.8916 30.3081 54.9934 31.884 54.9934C32.6434 54.9934 33.4028 54.7743 34.004 54.2717L33.4598 53.4405C33.0231 53.7756 32.4789 53.9946 31.9409 53.9946C31.2321 53.9946 30.5296 53.6596 30.3651 52.7253H34.2192C34.2192 52.5578 34.2192 52.4483 34.2192 52.2807C34.2698 50.5733 33.2889 49.465 31.827 49.465ZM31.827 50.4637C32.5358 50.4637 33.0231 50.9083 33.1307 51.733H30.4157C30.5233 51.0178 31.0106 50.4637 31.827 50.4637ZM60.1285 52.2356V47.4805H58.9893V50.2446C58.6096 49.7485 58.0653 49.4714 57.3565 49.4714C55.8883 49.4714 54.7492 50.6312 54.7492 52.2356C54.7492 53.84 55.8883 54.9998 57.3565 54.9998C58.116 54.9998 58.6602 54.7227 58.9893 54.2266V54.8903H60.1285V52.2356ZM55.9453 52.2356C55.9453 51.2949 56.5402 50.5217 57.5211 50.5217C58.4451 50.5217 59.0969 51.2434 59.0969 52.2356C59.0969 53.1763 58.4451 53.9495 57.5211 53.9495C56.5402 53.8916 55.9453 53.1699 55.9453 52.2356ZM17.8092 52.2356V49.581H16.67V50.2446C16.2903 49.7485 15.7461 49.4714 15.0372 49.4714C13.569 49.4714 12.4299 50.6312 12.4299 52.2356C12.4299 53.84 13.569 54.9998 15.0372 54.9998C15.7967 54.9998 16.3409 54.7227 16.67 54.2266V54.8903H17.8092V52.2356ZM13.5753 52.2356C13.5753 51.2949 14.1702 50.5217 15.1512 50.5217C16.0751 50.5217 16.727 51.2434 16.727 52.2356C16.727 53.1763 16.0751 53.9495 15.1512 53.9495C14.1702 53.8916 13.5753 53.1699 13.5753 52.2356Z" fill="#E8E8E8"/>
<path d="M40.0861 9.25879H22.9736V40.5603H40.0861V9.25879Z" fill="#FF5A00"/>
<path d="M24.1127 24.9098C24.1127 18.5503 27.0492 12.9059 31.5551 9.25902C28.239 6.60438 24.0558 5 19.4929 5C8.68361 5 -0.0625 13.9046 -0.0625 24.9098C-0.0625 35.915 8.68361 44.8196 19.4929 44.8196C24.0558 44.8196 28.239 43.2152 31.5551 40.5606C27.0429 36.9652 24.1127 31.2693 24.1127 24.9098Z" fill="#EB001B"/>
<path d="M63.1728 24.9098C63.1728 35.915 54.4267 44.8196 43.6175 44.8196C39.0546 44.8196 34.8714 43.2152 31.5552 40.5606C36.1181 36.9072 38.9976 31.2693 38.9976 24.9098C38.9976 18.5503 36.0611 12.9059 31.5552 9.25902C34.865 6.60438 39.0482 5 43.6111 5C54.4267 5 63.1728 13.9626 63.1728 24.9098Z" fill="#F79E1B"/>
</g>
<defs>
<clipPath id="clip0_5861_377">
<rect width="63" height="53" fill="white" transform="translate(0 5)"/>
</clipPath>
</defs>
</svg>
