<svg width="69" height="64" viewBox="0 0 69 64" fill="none" xmlns="http://www.w3.org/2000/svg">
<g clip-path="url(#clip0_5861_387)">
<path d="M54.4891 22.3171L60.1829 21.2927V43.378H54.4891V22.3171ZM62.8005 22.3171V43.3659H68.4943V21.2927L62.8005 22.3171ZM46.3947 43.3659H52.0885V27.2195H46.3947V43.3659ZM8.76984 29.5C8.04605 29.4512 6.38134 29.3415 6.38134 27.8293C6.38134 26 8.7819 26 9.67457 26C11.2548 26 13.3056 26.4756 14.7652 26.9146C14.7652 26.9146 15.5855 27.2073 16.2731 27.5L16.3334 27.5122V22.5122L16.249 22.4878C14.5239 21.878 12.5215 21.2927 8.79397 21.2927C2.37639 21.2927 0.108521 25.0732 0.108521 28.3049C0.108521 30.1707 0.904686 34.561 8.25113 35.0732C8.87841 35.1098 10.5311 35.2073 10.5311 36.7805C10.5311 38.0732 9.17999 38.8415 6.90006 38.8415C4.40299 38.8415 1.99037 38.1951 0.518667 37.5854V42.7439C2.71415 43.3293 5.19916 43.622 8.10637 43.622C14.3792 43.622 17.1899 40.0488 17.1899 36.5C17.1899 32.4756 14.0535 29.8659 8.76984 29.5ZM43.1859 26.9878C37.9264 27.1585 35.2604 29.5488 35.2604 34.2927V43.378H41.0025V35.9634C41.0025 33.122 41.3644 31.9024 44.7059 31.7927V27.061C44.1268 26.9512 43.1859 26.9878 43.1859 26.9878ZM27.7451 27.2073C27.6245 27.5244 26.7077 30.1341 24.5002 32.8293V21.2927L18.6254 22.4634V43.3659H24.5002V36.9024C26.201 39.4878 27.0455 43.3659 27.0455 43.3659H34.0783C33.3786 40.439 30.3387 35.0488 30.3387 35.0488C33.065 31.5488 34.2713 27.8171 34.4643 27.1951H27.7451V27.2073ZM49.2295 25.6707C50.7736 25.6707 52.0402 24.4024 52.0402 22.8415C52.0402 21.2805 50.7857 20 49.2295 20C47.6855 20 46.4309 21.2683 46.4309 22.8415C46.4309 24.4024 47.6855 25.6707 49.2295 25.6707Z" fill="url(#paint0_linear_5861_387)"/>
</g>
<defs>
<linearGradient id="paint0_linear_5861_387" x1="0.120587" y1="31.8033" x2="68.4982" y2="31.8033" gradientUnits="userSpaceOnUse">
<stop stop-color="#862166"/>
<stop offset="1" stop-color="#A55EAD"/>
</linearGradient>
<clipPath id="clip0_5861_387">
<rect width="68.5185" height="25" fill="white" transform="translate(0 19)"/>
</clipPath>
</defs>
</svg>
