<svg width="74" height="64" viewBox="0 0 74 64" fill="none" xmlns="http://www.w3.org/2000/svg">
<g clip-path="url(#clip0_5861_384)">
<path d="M48.1353 20C42.8922 20 38.2065 22.718 38.2065 27.7386C38.2065 33.4969 46.5165 33.8945 46.5165 36.7877C46.5165 38.0059 45.1209 39.0962 42.7363 39.0962C39.353 39.0962 36.8242 37.5727 36.8242 37.5727L35.7421 42.6399C35.7421 42.6399 38.6552 43.9268 42.5226 43.9268C48.2551 43.9268 52.7663 41.0758 52.7663 35.9687C52.7663 29.8837 44.4216 29.4978 44.4216 26.8131C44.4216 25.8588 45.5674 24.8136 47.9446 24.8136C50.6271 24.8136 52.8151 25.9216 52.8151 25.9216L53.8744 21.0282C53.8744 21.0282 51.4927 20 48.1346 20H48.1353ZM0.164128 20.3696L0.0369873 21.108C0.0369873 21.108 2.24273 21.5116 4.22967 22.3174C6.788 23.2406 6.96984 23.7787 7.40079 25.4478L12.0954 43.5454H18.3888L28.084 20.3696H21.8054L15.5755 36.1269L13.0334 22.7697C12.8006 21.2411 11.6193 20.3689 10.1742 20.3689H0.164867L0.164128 20.3696ZM30.6091 20.3696L25.6839 43.5454H31.6713L36.5788 20.3696H30.6091ZM64.0027 20.3696C62.5591 20.3696 61.794 21.1428 61.233 22.4933L52.461 43.5454H58.7397L59.9542 40.0365H67.6033L68.3418 43.5454H73.882L69.0492 20.3696H64.0027ZM64.8195 26.6313L66.6808 35.3278H61.695L64.8203 26.6313H64.8195Z" fill="#A3E9E6"/>
</g>
<defs>
<clipPath id="clip0_5861_384">
<rect width="73.9189" height="24" fill="white" transform="translate(0 20)"/>
</clipPath>
</defs>
</svg>
