<svg width="90" height="64" viewBox="0 0 90 64" fill="none" xmlns="http://www.w3.org/2000/svg">
<path d="M88.6734 29.9874C88.6734 24.7111 85.1383 21 80.1823 21C73.8732 21 69.6445 25.7663 69.6445 32.5729C69.6445 37.8844 73.2135 41.5603 78.254 41.5603C82.8379 41.5603 86.2546 39.2563 87.6585 35.5804H82.5673C81.8907 36.7236 80.4529 37.4447 78.6938 37.4447C75.9875 37.4447 74.296 35.5804 74.1438 32.9422H88.3859C88.5719 31.9397 88.6734 31.0779 88.6734 29.9874ZM74.5328 29.3719C74.9895 26.9447 77.2561 25.0101 79.9962 25.0101C82.3643 25.0101 84.1572 26.804 84.1572 29.3719H74.5328ZM55.9606 41.0854L56.874 36.0201C59.6649 36.6005 60.0878 34.9648 60.8151 31.0251L61.1703 29.0729C62.1852 23.5678 64.2319 20.8241 70.0843 21.5628L69.1709 26.6281C66.38 26.0477 65.8895 28.2462 65.2637 31.6583L64.9085 33.6106C63.8936 39.1859 61.7793 41.8241 55.9606 41.0854ZM49.1272 41.103L52.5777 21.4749H57.1277L53.6941 41.103H49.1272ZM23.0618 21.4749H27.4765L28.9142 35.6683L34.699 21.4749H39.0799L40.6191 35.809L46.2009 21.4749H50.5987L42.5981 41.103H37.5914L35.9676 27.5955L30.4366 41.103H25.599L23.0618 21.4749Z" fill="#EDEDED"/>
<path d="M6.57009 26.6811L1.32657 31.8872H10.2405L11.1708 29.6183H6.65466L9.47939 26.6811L7.83868 23.7439H15.501L8.43069 41.1032H11.0863L19.0869 21.4751H3.62695L6.57009 26.6811Z" fill="#EDEDED"/>
</svg>
