<svg xmlns="http://www.w3.org/2000/svg" width="40" height="40" viewBox="0 0 40 40" fill="none">
  <g clip-path="url(#clip0_1762_1657)">
    <path d="M18.2271 16.0195C17.4039 16.0195 16.7343 16.8688 16.7343 17.9125C16.7343 18.9563 17.4039 19.8054 18.2271 19.8054C19.0502 19.8054 19.7199 18.9563 19.7199 17.9125C19.7199 16.8688 19.0502 16.0195 18.2271 16.0195Z" fill="#839CB5"/>
    <path d="M10.6803 10.6998C11.5048 10.6998 12.1731 9.85237 12.1731 8.80695C12.1731 7.76154 11.5048 6.91406 10.6803 6.91406C9.85586 6.91406 9.1875 7.76154 9.1875 8.80695C9.1875 9.85237 9.85586 10.6998 10.6803 10.6998Z" fill="#839CB5"/>
    <path d="M22.6562 0.685547V6.24906H28.2198L22.6562 0.685547Z" fill="#839CB5"/>
    <path d="M18.9062 30.625C18.9062 24.7471 23.2564 19.8666 28.9062 19.0326V8.59375H21.4844C20.8372 8.59375 20.3125 8.06906 20.3125 7.42188V0H1.17188C0.524687 0 0 0.524687 0 1.17188V38.8281C0 39.4753 0.524687 40 1.17188 40H23.6015C20.7525 37.8602 18.9062 34.4542 18.9062 30.625ZM17.7157 5.65766C18.213 5.86641 18.447 6.43875 18.2383 6.93602L12.6497 20.2525C12.4409 20.7498 11.8686 20.9838 11.3713 20.7751C10.8739 20.5663 10.64 19.994 10.8487 19.4966L16.4373 6.18023C16.646 5.68297 17.2184 5.44898 17.7157 5.65766ZM10.6792 4.96094C12.5793 4.96094 14.1252 6.68625 14.1252 8.80695C14.1252 10.9277 12.5793 12.653 10.6792 12.653C8.77914 12.653 7.23328 10.9277 7.23328 8.80695C7.23328 6.68625 8.77914 4.96094 10.6792 4.96094ZM15.2344 35.2344H5.85938C5.21219 35.2344 4.6875 34.7097 4.6875 34.0625C4.6875 33.4153 5.21219 32.8906 5.85938 32.8906H15.2344C15.8816 32.8906 16.4062 33.4153 16.4062 34.0625C16.4062 34.7097 15.8816 35.2344 15.2344 35.2344ZM15.2344 30.5469H5.85938C5.21219 30.5469 4.6875 30.0222 4.6875 29.375C4.6875 28.7278 5.21219 28.2031 5.85938 28.2031H15.2344C15.8816 28.2031 16.4062 28.7278 16.4062 29.375C16.4062 30.0222 15.8816 30.5469 15.2344 30.5469ZM15.2344 25.8594H5.85938C5.21219 25.8594 4.6875 25.3347 4.6875 24.6875C4.6875 24.0403 5.21219 23.5156 5.85938 23.5156H15.2344C15.8816 23.5156 16.4062 24.0403 16.4062 24.6875C16.4062 25.3347 15.8816 25.8594 15.2344 25.8594ZM14.7811 17.9118C14.7811 15.791 16.327 14.0657 18.227 14.0657C20.1271 14.0657 21.673 15.7911 21.673 17.9118C21.673 20.0325 20.1271 21.7578 18.227 21.7578C16.327 21.7578 14.7811 20.0325 14.7811 17.9118Z" fill="#839CB5"/>
    <path d="M31.5391 31.5898V34.1745C31.9426 33.8918 32.1857 33.4525 32.2563 33.0328C32.3091 32.7187 32.3317 31.9899 31.5391 31.5898Z" fill="#839CB5"/>
    <path d="M29.4762 28.4963C29.5109 28.5234 29.5473 28.5504 29.5851 28.5771V27.0566C29.4151 27.2414 29.3159 27.4744 29.2768 27.6819C29.2112 28.0301 29.2894 28.3498 29.4762 28.4963Z" fill="#839CB5"/>
    <path d="M30.625 21.25C25.4473 21.25 21.25 25.4473 21.25 30.625C21.25 35.8027 25.4473 40 30.625 40C35.8027 40 40 35.8027 40 30.625C40 25.4473 35.8027 21.25 30.625 21.25ZM34.1832 33.3564C33.9713 34.6171 33.0217 35.8948 31.5399 36.2994V36.875C31.5399 37.4143 31.1027 37.8516 30.5634 37.8516C30.0241 37.8516 29.5868 37.4143 29.5868 36.875V36.3941C28.8586 36.3187 28.2655 36.1077 27.4591 35.5801C27.0077 35.2848 26.8812 34.6796 27.1764 34.2282C27.4716 33.7768 28.0769 33.6503 28.5283 33.9455C28.9572 34.2262 29.2406 34.3613 29.5868 34.4249V30.807C29.0348 30.5509 28.6172 30.3028 28.2726 30.0326C27.5069 29.432 27.1569 28.3926 27.3591 27.3197C27.5788 26.1534 28.3915 25.2251 29.4798 24.8973C29.5159 24.8864 29.5513 24.877 29.5868 24.8671V24.375C29.5868 23.8357 30.0241 23.3984 30.5634 23.3984C31.1027 23.3984 31.5399 23.8357 31.5399 24.375V24.7628C32.3932 24.9274 32.9982 25.3539 33.2956 25.6953C33.6499 26.102 33.6074 26.7189 33.2008 27.0731C32.797 27.425 32.1861 27.3856 31.8305 26.9869C31.8124 26.9691 31.7169 26.8804 31.5399 26.798V29.498C31.6797 29.5495 31.8191 29.5998 31.9564 29.6483C33.5655 30.2171 34.4605 31.7073 34.1832 33.3564Z" fill="#839CB5"/>
    <path d="M34.1832 33.3564C33.9713 34.6171 33.0217 35.8948 31.5399 36.2994V36.875C31.5399 37.4143 31.1027 37.8516 30.5634 37.8516C30.0241 37.8516 29.5868 37.4143 29.5868 36.875V36.3941C28.8586 36.3187 28.2655 36.1077 27.4591 35.5801C27.0077 35.2848 26.8812 34.6796 27.1764 34.2282C27.4716 33.7768 28.0769 33.6503 28.5283 33.9455C28.9572 34.2262 29.2406 34.3613 29.5868 34.4249V30.807C29.0348 30.5509 28.6172 30.3028 28.2726 30.0326C27.5069 29.432 27.1569 28.3926 27.3591 27.3197C27.5788 26.1534 28.3915 25.2251 29.4798 24.8973C29.5159 24.8864 29.5513 24.877 29.5868 24.8671V24.375C29.5868 23.8357 30.0241 23.3984 30.5634 23.3984C31.1027 23.3984 31.5399 23.8357 31.5399 24.375V24.7628C32.3932 24.9274 32.9982 25.3539 33.2956 25.6953C33.6499 26.102 33.6074 26.7189 33.2008 27.0731C32.797 27.425 32.1861 27.3856 31.8305 26.9869C31.8124 26.9691 31.7169 26.8804 31.5399 26.798V29.498C31.6797 29.5495 31.8191 29.5998 31.9564 29.6483C33.5655 30.2171 34.4605 31.7073 34.1832 33.3564Z" fill="#839CB5"/>
    <path d="M31.2357 24.666V26.5996H30.2266V24.666H31.2357ZM31.112 35.2975V37.0423H30.1094V35.2975H31.112ZM31.9583 33.1751C31.9583 32.9277 31.9106 32.7129 31.8151 32.5306C31.724 32.3483 31.5699 32.1855 31.3529 32.0423C31.1402 31.8991 30.8537 31.7624 30.4935 31.6322C29.9336 31.4282 29.4431 31.2046 29.0221 30.9616C28.6011 30.7142 28.2734 30.4082 28.0391 30.0436C27.809 29.679 27.694 29.219 27.694 28.6634C27.694 28.1296 27.8177 27.6673 28.0651 27.2767C28.3168 26.8817 28.6662 26.5779 29.1133 26.3652C29.5603 26.1482 30.079 26.0397 30.6693 26.0397C31.1293 26.0397 31.5417 26.1092 31.9062 26.248C32.2752 26.3826 32.5898 26.5801 32.8503 26.8405C33.115 27.1009 33.3168 27.4221 33.4557 27.804C33.599 28.1816 33.6706 28.6135 33.6706 29.0996H31.9518C31.9518 28.8305 31.9214 28.5918 31.8607 28.3835C31.7999 28.1751 31.7131 27.9993 31.6003 27.8561C31.4874 27.7086 31.3507 27.5979 31.1901 27.5241C31.0339 27.4503 30.8559 27.4134 30.6562 27.4134C30.3698 27.4134 30.1332 27.4677 29.9466 27.5762C29.7643 27.6847 29.6298 27.8322 29.543 28.0189C29.4605 28.2055 29.4193 28.4204 29.4193 28.6634C29.4193 28.8978 29.4627 29.1039 29.5495 29.2819C29.6406 29.4555 29.7925 29.6139 30.0052 29.7572C30.2222 29.9004 30.5195 30.0458 30.8971 30.1934C31.4614 30.4017 31.9518 30.6317 32.3685 30.8835C32.7852 31.1309 33.1085 31.4347 33.3385 31.7949C33.5686 32.1552 33.6836 32.6109 33.6836 33.1621C33.6836 33.7263 33.5534 34.2038 33.293 34.5944C33.0369 34.985 32.6766 35.2823 32.2122 35.4863C31.7478 35.6903 31.2075 35.7923 30.5911 35.7923C30.1962 35.7923 29.8056 35.7402 29.4193 35.6361C29.033 35.5319 28.6814 35.3626 28.3646 35.1283C28.0521 34.8895 27.8025 34.5749 27.6159 34.1842C27.4293 33.7893 27.3359 33.3053 27.3359 32.7324H29.0612C29.0612 33.0623 29.1046 33.3357 29.1914 33.5527C29.2782 33.7697 29.3954 33.9434 29.543 34.0736C29.6905 34.1994 29.8555 34.2884 30.0378 34.3405C30.2201 34.3926 30.4045 34.4186 30.5911 34.4186C30.895 34.4186 31.1467 34.3665 31.3464 34.2624C31.5503 34.1582 31.7023 34.0128 31.8021 33.8262C31.9062 33.6352 31.9583 33.4182 31.9583 33.1751Z" fill="white"/>
  </g>
  <defs>
    <clipPath id="clip0_1762_1657">
      <rect width="40" height="40" fill="white"/>
    </clipPath>
  </defs>
</svg>