<svg xmlns="http://www.w3.org/2000/svg" width="40" height="40" viewBox="0 0 40 40" fill="none">
  <g clip-path="url(#clip0_1762_1848)">
    <path d="M20.8125 20.7832V24.0499C21.4291 23.747 21.7944 23.1495 21.8895 22.5837C21.9418 22.2723 22.0159 21.2309 20.8125 20.7832Z" fill="#839CB5"/>
    <path d="M18.4133 16.8439C18.3328 17.2713 18.4388 17.6714 18.6833 17.8633C18.7935 17.9497 18.919 18.034 19.0555 18.1162V15.875C18.6789 16.1023 18.4777 16.5026 18.4133 16.8439Z" fill="#839CB5"/>
    <path d="M20.0015 10.2363C14.618 10.2363 10.2383 14.6162 10.2383 19.9995C10.2383 25.3829 14.618 29.7627 20.0015 29.7627C25.3849 29.7627 29.7647 25.383 29.7647 19.9995C29.7647 14.6161 25.3849 10.2363 20.0015 10.2363ZM23.6248 22.8747C23.4033 24.1923 22.3916 25.5281 20.8147 25.9039V26.6386C20.8147 27.1238 20.4213 27.5173 19.936 27.5173C19.4507 27.5173 19.0573 27.1238 19.0573 26.6386V25.9853C18.2736 25.9255 17.6367 25.7265 16.7254 25.1304C16.3193 24.8647 16.2054 24.3202 16.4711 23.9141C16.7368 23.508 17.2814 23.3941 17.6874 23.6597C18.2366 24.019 18.58 24.1645 19.0573 24.22V20.0918C18.4364 19.8099 17.9759 19.5401 17.6005 19.2456C16.834 18.6445 16.4844 17.5993 16.6882 16.5181C16.9107 15.3377 17.7317 14.3987 18.8309 14.0677C18.9073 14.0446 18.9827 14.0243 19.0573 14.0054V13.3608C19.0573 12.8755 19.4507 12.4821 19.936 12.4821C20.4213 12.4821 20.8147 12.8755 20.8147 13.3608V13.9053C21.7472 14.0518 22.4041 14.5062 22.7187 14.8673C23.0375 15.2332 22.9993 15.7882 22.6334 16.107C22.2691 16.4246 21.7169 16.388 21.3975 16.0262C21.3753 16.0032 21.1856 15.8163 20.8147 15.7021V18.9131C20.9986 18.9818 21.1825 19.048 21.3628 19.1118C23.0226 19.6983 23.9105 21.1754 23.6248 22.8747Z" fill="#839CB5"/>
    <path d="M23.6248 22.8747C23.4033 24.1923 22.3916 25.5281 20.8147 25.9039V26.6386C20.8147 27.1238 20.4213 27.5173 19.936 27.5173C19.4507 27.5173 19.0573 27.1238 19.0573 26.6386V25.9853C18.2736 25.9255 17.6367 25.7265 16.7254 25.1304C16.3193 24.8647 16.2054 24.3202 16.4711 23.9141C16.7368 23.508 17.2814 23.3941 17.6874 23.6597C18.2366 24.019 18.58 24.1645 19.0573 24.22V20.0918C18.4364 19.8099 17.9759 19.5401 17.6005 19.2456C16.834 18.6445 16.4844 17.5993 16.6882 16.5181C16.9107 15.3377 17.7317 14.3987 18.8309 14.0677C18.9073 14.0446 18.9827 14.0243 19.0573 14.0054V13.3608C19.0573 12.8755 19.4507 12.4821 19.936 12.4821C20.4213 12.4821 20.8147 12.8755 20.8147 13.3608V13.9053C21.7472 14.0518 22.4041 14.5062 22.7187 14.8673C23.0375 15.2332 22.9993 15.7882 22.6334 16.107C22.2691 16.4246 21.7169 16.388 21.3975 16.0262C21.3753 16.0032 21.1856 15.8163 20.8147 15.7021V18.9131C20.9986 18.9818 21.1825 19.048 21.3628 19.1118C23.0226 19.6983 23.9105 21.1754 23.6248 22.8747Z" fill="#839CB5"/>
    <path d="M39.1955 16.5309L36.2541 15.5505C35.8825 14.1913 35.3409 12.8863 34.6378 11.6566L36.0263 8.87969C36.2528 8.4268 36.1641 7.87969 35.8059 7.52172L32.4784 4.19414C32.1203 3.83609 31.5734 3.74742 31.1204 3.97367L28.3434 5.36227C27.1137 4.65914 25.8087 4.1175 24.4496 3.74602L23.4691 0.804531C23.3089 0.323984 22.8593 0 22.353 0H17.6471C17.1407 0 16.6912 0.323984 16.531 0.804453L15.5505 3.74594C14.1914 4.1175 12.8865 4.65914 11.6568 5.36219L8.87969 3.97367C8.42672 3.74711 7.87969 3.83594 7.52164 4.19414L4.19414 7.52164C3.83609 7.87969 3.74734 8.42672 3.97375 8.87961L5.36227 11.6566C4.65922 12.8862 4.1175 14.1912 3.74602 15.5504L0.804531 16.5309C0.324063 16.6911 0 17.1407 0 17.647V22.3529C0 22.8593 0.324062 23.3088 0.804453 23.4691L3.74594 24.4495C4.1175 25.8087 4.65914 27.1137 5.36219 28.3434L3.97375 31.1203C3.74727 31.5732 3.83602 32.1203 4.19414 32.4783L7.52164 35.8058C7.87977 36.1638 8.42672 36.2525 8.87961 36.0262L11.6566 34.6377C12.8863 35.3409 14.1913 35.8825 15.5505 36.254L16.5309 39.1955C16.6911 39.6759 17.1406 39.9999 17.647 39.9999H22.3529C22.8593 39.9999 23.3088 39.6759 23.469 39.1955L24.4495 36.254C25.8086 35.8824 27.1136 35.3408 28.3433 34.6377L31.1203 36.0262C31.5733 36.2528 32.1203 36.164 32.4783 35.8058L35.8058 32.4783C36.1638 32.1202 36.2526 31.5732 36.0262 31.1203L34.6377 28.3434C35.3407 27.1137 35.8824 25.8087 36.2539 24.4495L39.1954 23.4691C39.6758 23.3089 39.9998 22.8593 39.9998 22.3529V17.647C40 17.1407 39.6759 16.6911 39.1955 16.5309ZM20 32.1064C13.3245 32.1064 7.89359 26.6755 7.89359 20C7.89359 13.3245 13.3245 7.89359 20 7.89359C26.6755 7.89359 32.1064 13.3245 32.1064 20C32.1064 26.6755 26.6755 32.1064 20 32.1064Z" fill="#839CB5"/>
    <path d="M20.8997 14V15.9336H19.8906V14H20.8997ZM20.776 24.6315V26.3763H19.7734V24.6315H20.776ZM21.6224 22.5091C21.6224 22.2617 21.5747 22.0469 21.4792 21.8646C21.388 21.6823 21.2339 21.5195 21.0169 21.3763C20.8043 21.2331 20.5178 21.0964 20.1576 20.9661C19.5977 20.7622 19.1072 20.5386 18.6862 20.2956C18.2652 20.0482 17.9375 19.7422 17.7031 19.3776C17.4731 19.013 17.3581 18.553 17.3581 17.9974C17.3581 17.4635 17.4818 17.0013 17.7292 16.6107C17.9809 16.2157 18.3303 15.9119 18.7773 15.6992C19.2244 15.4822 19.7431 15.3737 20.3333 15.3737C20.7934 15.3737 21.2057 15.4431 21.5703 15.582C21.9392 15.7166 22.2539 15.9141 22.5143 16.1745C22.7791 16.4349 22.9809 16.7561 23.1198 17.138C23.263 17.5156 23.3346 17.9475 23.3346 18.4336H21.6159C21.6159 18.1645 21.5855 17.9258 21.5247 17.7174C21.464 17.5091 21.3772 17.3333 21.2643 17.1901C21.1515 17.0425 21.0148 16.9319 20.8542 16.8581C20.6979 16.7843 20.52 16.7474 20.3203 16.7474C20.0339 16.7474 19.7973 16.8016 19.6107 16.9102C19.4284 17.0187 19.2938 17.1662 19.207 17.3529C19.1246 17.5395 19.0833 17.7543 19.0833 17.9974C19.0833 18.2318 19.1267 18.4379 19.2135 18.6159C19.3047 18.7895 19.4566 18.9479 19.6693 19.0911C19.8863 19.2344 20.1836 19.3798 20.5612 19.5273C21.1254 19.7357 21.6159 19.9657 22.0326 20.2174C22.4492 20.4648 22.7726 20.7687 23.0026 21.1289C23.2326 21.4891 23.3477 21.9449 23.3477 22.4961C23.3477 23.0603 23.2174 23.5378 22.957 23.9284C22.701 24.319 22.3407 24.6163 21.8763 24.8203C21.4119 25.0243 20.8715 25.1263 20.2552 25.1263C19.8602 25.1263 19.4696 25.0742 19.0833 24.9701C18.697 24.8659 18.3455 24.6966 18.0286 24.4622C17.7161 24.2235 17.4666 23.9089 17.2799 23.5182C17.0933 23.1233 17 22.6393 17 22.0664H18.7253C18.7253 22.3963 18.7687 22.6697 18.8555 22.8867C18.9423 23.1037 19.0595 23.2773 19.207 23.4076C19.3546 23.5334 19.5195 23.6224 19.7018 23.6745C19.8841 23.7266 20.0686 23.7526 20.2552 23.7526C20.559 23.7526 20.8108 23.7005 21.0104 23.5964C21.2144 23.4922 21.3663 23.3468 21.4661 23.1602C21.5703 22.9692 21.6224 22.7522 21.6224 22.5091Z" fill="white"/>
  </g>
  <defs>
    <clipPath id="clip0_1762_1848">
      <rect width="40" height="40" fill="white"/>
    </clipPath>
  </defs>
</svg>