<svg xmlns="http://www.w3.org/2000/svg" width="40" height="40" viewBox="0 0 40 40" fill="none">
  <g clip-path="url(#clip0_1762_1648)">
    <path d="M10.5469 0C4.73102 0 0 4.73102 0 10.5469C0 16.3627 4.73102 21.0938 10.5469 21.0938C16.3342 21.0938 21.0938 16.4204 21.0938 10.5469C21.0938 4.80086 16.4109 0 10.5469 0ZM11.7188 16.1904V17.5781C11.7188 18.2259 11.1946 18.75 10.5469 18.75C9.89914 18.75 9.375 18.2259 9.375 17.5781V16.1788C8.73273 15.9488 8.1518 15.5564 7.73508 15.0009C7.34711 14.4825 7.45125 13.7478 7.96852 13.3598C8.49039 12.9753 9.22391 13.0749 9.60961 13.5933C9.83273 13.892 10.1749 14.0625 10.5469 14.0625C11.1934 14.0625 11.7188 13.5372 11.7188 12.8906C11.7188 12.2441 11.1934 11.7188 10.5469 11.7188C8.60828 11.7188 7.03125 10.1417 7.03125 8.20312C7.03125 6.67734 8.01391 5.38875 9.375 4.90336V3.51562C9.375 2.86789 9.89914 2.34375 10.5469 2.34375C11.1946 2.34375 11.7188 2.86789 11.7188 3.51562V4.91492C12.361 5.14492 12.942 5.53734 13.3587 6.09281C13.7466 6.61125 13.6425 7.34594 13.1252 7.73391C12.6068 8.12297 11.8744 8.01883 11.4841 7.50047C10.8719 6.68219 9.375 7.18461 9.375 8.20312C9.375 8.84969 9.90031 9.375 10.5469 9.375C12.4855 9.375 14.0625 10.952 14.0625 12.8906C14.0625 14.4164 13.0798 15.705 11.7188 16.1904Z" fill="#839CB5"/>
    <path d="M11.7188 16.1904V17.5781C11.7188 18.2259 11.1946 18.75 10.5469 18.75C9.89914 18.75 9.375 18.2259 9.375 17.5781V16.1788C8.73273 15.9488 8.1518 15.5564 7.73508 15.0009C7.34711 14.4825 7.45125 13.7478 7.96852 13.3598C8.49039 12.9753 9.22391 13.0749 9.60961 13.5933C9.83273 13.892 10.1749 14.0625 10.5469 14.0625C11.1934 14.0625 11.7188 13.5372 11.7188 12.8906C11.7188 12.2441 11.1934 11.7188 10.5469 11.7188C8.60828 11.7188 7.03125 10.1417 7.03125 8.20312C7.03125 6.67734 8.01391 5.38875 9.375 4.90336V3.51562C9.375 2.86789 9.89914 2.34375 10.5469 2.34375C11.1946 2.34375 11.7188 2.86789 11.7188 3.51562V4.91492C12.361 5.14492 12.942 5.53734 13.3587 6.09281C13.7466 6.61125 13.6425 7.34594 13.1252 7.73391C12.6068 8.12297 11.8744 8.01883 11.4841 7.50047C10.8719 6.68219 9.375 7.18461 9.375 8.20312C9.375 8.84969 9.90031 9.375 10.5469 9.375C12.4855 9.375 14.0625 10.952 14.0625 12.8906C14.0625 14.4164 13.0798 15.705 11.7188 16.1904Z" fill="#839CB5"/>
    <path d="M38.8281 4.6875H21.9905C22.7429 6.15836 23.2066 7.74969 23.3641 9.375H33.9844C34.6321 9.375 35.1562 9.89914 35.1562 10.5469V19.9219C35.1562 20.5696 34.6321 21.0938 33.9844 21.0938H17.927C15.9823 22.4521 13.9269 23.1713 11.7188 23.365V38.8281C11.7188 39.4759 12.2429 40 12.8906 40H38.8281C39.4759 40 40 39.4759 40 38.8281V5.85938C40 5.21164 39.4759 4.6875 38.8281 4.6875ZM24.6094 23.4375H26.9531C27.6009 23.4375 28.125 23.9616 28.125 24.6094C28.125 25.2571 27.6009 25.7812 26.9531 25.7812H24.6094C23.9616 25.7812 23.4375 25.2571 23.4375 24.6094C23.4375 23.9616 23.9616 23.4375 24.6094 23.4375ZM24.6094 28.125H26.9531C27.6009 28.125 28.125 28.6491 28.125 29.2969C28.125 29.9446 27.6009 30.4688 26.9531 30.4688H24.6094C23.9616 30.4688 23.4375 29.9446 23.4375 29.2969C23.4375 28.6491 23.9616 28.125 24.6094 28.125ZM19.9219 35.1562H17.5781C16.9304 35.1562 16.4062 34.6321 16.4062 33.9844C16.4062 33.3366 16.9304 32.8125 17.5781 32.8125H19.9219C20.5696 32.8125 21.0938 33.3366 21.0938 33.9844C21.0938 34.6321 20.5696 35.1562 19.9219 35.1562ZM19.9219 30.4688H17.5781C16.9304 30.4688 16.4062 29.9446 16.4062 29.2969C16.4062 28.6491 16.9304 28.125 17.5781 28.125H19.9219C20.5696 28.125 21.0938 28.6491 21.0938 29.2969C21.0938 29.9446 20.5696 30.4688 19.9219 30.4688ZM19.9219 25.7812H17.5781C16.9304 25.7812 16.4062 25.2571 16.4062 24.6094C16.4062 23.9616 16.9304 23.4375 17.5781 23.4375H19.9219C20.5696 23.4375 21.0938 23.9616 21.0938 24.6094C21.0938 25.2571 20.5696 25.7812 19.9219 25.7812ZM33.9844 35.1562H24.6094C23.9616 35.1562 23.4375 34.6321 23.4375 33.9844C23.4375 33.3366 23.9616 32.8125 24.6094 32.8125H33.9844C34.6321 32.8125 35.1562 33.3366 35.1562 33.9844C35.1562 34.6321 34.6321 35.1562 33.9844 35.1562ZM33.9844 30.4688H31.6406C30.9929 30.4688 30.4688 29.9446 30.4688 29.2969C30.4688 28.6491 30.9929 28.125 31.6406 28.125H33.9844C34.6321 28.125 35.1562 28.6491 35.1562 29.2969C35.1562 29.9446 34.6321 30.4688 33.9844 30.4688ZM33.9844 25.7812H31.6406C30.9929 25.7812 30.4688 25.2571 30.4688 24.6094C30.4688 23.9616 30.9929 23.4375 31.6406 23.4375H33.9844C34.6321 23.4375 35.1562 23.9616 35.1562 24.6094C35.1562 25.2571 34.6321 25.7812 33.9844 25.7812Z" fill="#839CB5"/>
    <path d="M32.8141 18.75V11.7188H23.3406C23.0998 14.3576 22.0861 16.7899 20.4648 18.75H32.8141Z" fill="#839CB5"/>
    <path d="M11.3997 5V6.93359H10.3906V5H11.3997ZM11.276 15.6315V17.3763H10.2734V15.6315H11.276ZM12.1224 13.5091C12.1224 13.2617 12.0747 13.0469 11.9792 12.8646C11.888 12.6823 11.7339 12.5195 11.5169 12.3763C11.3043 12.2331 11.0178 12.0964 10.6576 11.9661C10.0977 11.7622 9.6072 11.5386 9.1862 11.2956C8.76519 11.0482 8.4375 10.7422 8.20312 10.3776C7.97309 10.013 7.85807 9.55295 7.85807 8.9974C7.85807 8.46354 7.98177 8.0013 8.22917 7.61068C8.4809 7.21571 8.8303 6.91189 9.27734 6.69922C9.72439 6.4822 10.2431 6.3737 10.8333 6.3737C11.2934 6.3737 11.7057 6.44314 12.0703 6.58203C12.4392 6.71658 12.7539 6.91406 13.0143 7.17448C13.2791 7.4349 13.4809 7.75608 13.6198 8.13802C13.763 8.51562 13.8346 8.94748 13.8346 9.43359H12.1159C12.1159 9.1645 12.0855 8.92578 12.0247 8.71745C11.964 8.50911 11.8772 8.33333 11.7643 8.1901C11.6515 8.04253 11.5148 7.93186 11.3542 7.85807C11.1979 7.78429 11.02 7.7474 10.8203 7.7474C10.5339 7.7474 10.2973 7.80165 10.1107 7.91016C9.92839 8.01866 9.79384 8.16623 9.70703 8.35286C9.62457 8.5395 9.58333 8.75434 9.58333 8.9974C9.58333 9.23177 9.62674 9.43793 9.71354 9.61589C9.80469 9.7895 9.9566 9.94792 10.1693 10.0911C10.3863 10.2344 10.6836 10.3798 11.0612 10.5273C11.6254 10.7357 12.1159 10.9657 12.5326 11.2174C12.9492 11.4648 13.2726 11.7687 13.5026 12.1289C13.7326 12.4891 13.8477 12.9449 13.8477 13.4961C13.8477 14.0603 13.7174 14.5378 13.457 14.9284C13.201 15.319 12.8407 15.6163 12.3763 15.8203C11.9119 16.0243 11.3715 16.1263 10.7552 16.1263C10.3602 16.1263 9.96962 16.0742 9.58333 15.9701C9.19705 15.8659 8.84549 15.6966 8.52865 15.4622C8.21615 15.2235 7.96658 14.9089 7.77995 14.5182C7.59332 14.1233 7.5 13.6393 7.5 13.0664H9.22526C9.22526 13.3963 9.26866 13.6697 9.35547 13.8867C9.44227 14.1037 9.55946 14.2773 9.70703 14.4076C9.8546 14.5334 10.0195 14.6224 10.2018 14.6745C10.3841 14.7266 10.5686 14.7526 10.7552 14.7526C11.059 14.7526 11.3108 14.7005 11.5104 14.5964C11.7144 14.4922 11.8663 14.3468 11.9661 14.1602C12.0703 13.9692 12.1224 13.7522 12.1224 13.5091Z" fill="white"/>
  </g>
  <defs>
    <clipPath id="clip0_1762_1648">
      <rect width="40" height="40" fill="white"/>
    </clipPath>
  </defs>
</svg>