<svg xmlns="http://www.w3.org/2000/svg" width="40" height="40" viewBox="0 0 40 40" fill="none">
  <path d="M0 26.9724H40V27.0846C40 28.2273 39.0602 29.162 37.9118 29.162H2.08818C0.939757 29.162 0 28.2272 0 27.0846V26.9724ZM40 2.07734V25.6836H0V2.07734C0 0.93472 0.939757 5.20589e-09 2.08818 5.20589e-09H37.9117C39.0602 -8.05463e-05 40 0.93464 40 2.07734ZM10.0914 13.0797C10.3737 13.2966 10.7793 13.2448 10.9973 12.964L16.9719 5.23625L22.8121 9.12955C23.065 9.29806 23.3943 9.2652 23.6086 9.06857L28.8256 4.27785L28.6729 5.1143C28.61 5.46325 28.8434 5.79689 29.1942 5.8594C29.5449 5.92191 29.8803 5.68976 29.9432 5.34081L30.4156 2.75381C30.5063 2.36523 30.2211 1.98471 29.8168 1.96578L27.1432 1.84052C26.7868 1.82385 26.4843 2.09772 26.4675 2.45223C26.4508 2.80674 26.7261 3.10768 27.0824 3.12435L28.1225 3.17309L23.107 7.77983L17.1998 3.84183C16.9189 3.64536 16.5296 3.70191 16.3177 3.97498L9.97514 12.1786C9.757 12.4594 9.80915 12.8629 10.0914 13.0797ZM12.3021 17.3905C12.3021 17.1243 12.0839 16.9072 11.8163 16.9072H9.15587C8.88826 16.9072 8.67004 17.1243 8.67004 17.3905V22.7177C8.67004 22.9839 8.88826 23.201 9.15587 23.201H11.8163C12.0839 23.201 12.3021 22.9839 12.3021 22.7177V17.3905ZM18.6447 10.4156C18.6447 10.1494 18.4265 9.93233 18.1589 9.93233H15.4985C15.2309 9.93233 15.0126 10.1494 15.0126 10.4156V22.7177C15.0126 22.9839 15.2309 23.201 15.4985 23.201H18.1589C18.4265 23.201 18.6447 22.9839 18.6447 22.7177V10.4156ZM24.9873 13.4152C24.9873 13.149 24.7691 12.9319 24.5015 12.9319H21.8411C21.5734 12.9319 21.3552 13.149 21.3552 13.4152V22.7178C21.3552 22.984 21.5734 23.2011 21.8411 23.2011H24.5015C24.7691 23.2011 24.9873 22.984 24.9873 22.7178V13.4152ZM31.3299 7.58965C31.3299 7.32342 31.1117 7.10634 30.844 7.10634H28.1836C27.916 7.10634 27.6978 7.32342 27.6978 7.58965V22.7178C27.6978 22.984 27.916 23.2011 28.1836 23.2011H30.844C31.1116 23.2011 31.3299 22.984 31.3299 22.7178V7.58965ZM28.2921 30.4507H11.7079L9.91312 33.5146C9.77749 33.7461 9.96089 34 10.1935 34H29.8064C30.039 34 30.2224 33.7462 30.0868 33.5146L28.2921 30.4507Z" fill="#839CB5"/>
</svg>