<svg xmlns="http://www.w3.org/2000/svg" width="399" height="24" viewBox="0 0 399 24" fill="none">
  <path d="M346.211 0.404994V0.816649L345.069 0.277743L344.84 1.89821C345.433 1.89821 346.315 1.74477 346.426 2.43711L347.34 1.89821V2.68785C348.126 2.95356 348.155 1.61379 348.925 1.8795L348.697 2.41841L349.842 1.8795C349.604 2.84504 351.155 3.48123 351.897 4.0351L351.212 5.11292C352.03 5.04181 353.061 4.87341 352.798 3.76566C353.556 4.1399 354.384 4.65635 354.171 5.63686L355.085 5.09795V5.9063C354.425 5.75286 353.258 6.16828 354.057 6.98786C354.628 7.3621 355.494 6.40405 355.77 7.52677L356.455 6.98786L355.998 8.33514L357.14 8.87404L357.368 8.06567C358.003 9.31189 358.38 11.1419 359.198 12.1112V10.7602H359.883C357.809 6.60988 351.32 -0.646626 346.401 1.59133L346.629 -0.0253906H346.172L346.211 0.404994ZM126.024 1.07862L125.909 1.61753L124.768 0.809157V1.61753L123.394 1.34806C123.75 2.51195 125.408 3.79559 126.366 3.77688L126.138 2.96853C127.486 2.85251 128.393 5.25514 128.193 2.16018C130.933 3.51867 133.842 4.95948 135.735 7.55297L135.05 7.28352C135.196 8.032 136.385 7.77376 137.105 7.82241C137.051 8.57089 137.105 9.37925 137.794 9.43913C137.832 6.53128 138.916 9.95185 140.077 9.70859C140.22 9.00502 139.706 8.60831 139.164 8.36131C140.198 6.62858 136.842 5.89509 136.192 5.12415V6.20197C134.838 6.15332 134.289 5.30753 135.963 5.12415C135.427 4.00143 134.203 3.14442 133.223 4.04634C132.874 1.98428 130.632 2.54938 129.795 1.07862C129.439 2.12275 127.628 1.50525 127.736 0.539715C127.149 0.554685 126.166 0.397505 126.024 1.07862ZM340.264 0.943901C338.751 1.4117 337.333 0.910209 336.607 2.96853L338.89 3.77688L338.434 3.23797L339.347 2.69909L339.119 3.77688C340.26 4.02013 342.129 2.89742 341.177 1.34806L344.146 2.16018V0.539715H343.689V1.34806C342.588 0.92007 341.421 0.782121 340.27 0.943901H340.264ZM114.939 1.21334C113.879 1.58758 113.524 1.51274 112.884 1.07862L112.655 2.16018C114.152 1.67367 115.878 2.45955 117.454 3.23797C117.283 2.38845 117.162 1.39298 117.911 1.07862C116.908 0.906471 116.062 0.786709 114.945 1.21334H114.939ZM196.294 1.07862V1.34806H194.924C194.737 2.60925 197.039 2.13771 196.751 3.77688C197.087 3.0995 197.791 3.48123 198.337 3.77688L198.108 2.16018C199.06 1.98055 199.199 4.03137 200.395 3.50743C199.355 1.3069 197.832 1.75224 196.272 0.809157L196.294 1.07862ZM51.7537 1.48281L51.6394 1.89072H52.5529V1.07862C52.2421 1.07114 51.8678 1.02623 51.76 1.48281H51.7537ZM53.5805 1.34806C53.6186 1.43788 53.6566 1.52771 53.6978 1.61753C53.6185 1.43789 53.5424 1.24329 53.4663 1.07862L53.5805 1.34806ZM118.139 1.34806V1.61753H118.824L118.139 1.07862V1.34806ZM122.823 1.34806L122.938 1.61753L122.709 1.07862L122.823 1.34806ZM59.8666 1.61753V1.89072H60.5517L59.8666 1.34806V1.61753ZM199.608 1.61753L199.723 1.89072L199.494 1.34806L199.608 1.61753ZM62.2771 1.89072C62.1534 2.26496 62.94 2.68411 63.3079 2.96853C63.4506 2.26121 62.9337 1.86827 62.3913 1.61753L62.2771 1.89072ZM190.709 2.02544C189.922 2.39968 188.866 1.86826 188.08 2.96853C187.854 2.36974 187.445 2.08158 186.938 2.42962L187.166 2.96853C186.053 2.96853 185.038 3.42884 185.336 4.83973H184.651V3.76191C183.915 3.97149 183.348 4.5104 183.738 5.37863L182.824 4.57029V5.68177L181.451 4.87342V5.95121C179.925 4.50664 177.512 8.45489 175.625 8.51477C173.953 12.2834 179.446 8.83286 180.081 6.49012C180.515 7.08516 179.586 7.98708 179.167 8.64949C180.436 8.50728 181.165 7.39952 181.451 5.95121C182.085 6.10465 181.644 6.98786 181.451 7.57167C181.93 7.71014 182.279 6.98037 182.596 6.49012L183.053 7.03277C183.157 6.45644 183.192 5.50962 183.738 5.68177V6.49012C185.958 5.33371 190.081 5.99988 191.965 3.79561L190.823 2.44833C191.775 4.58898 193.693 3.5935 194.946 4.31953C195.025 3.23049 193.481 2.44833 193.345 3.78062C192.881 3.6459 192.761 2.99473 192.659 2.43337H193.345V1.62127C192.558 2.75148 191.445 1.56512 190.703 2.02544H190.709ZM200.991 2.02544C201.144 2.65042 202.228 2.1976 202.019 1.61753H200.874L200.991 2.02544ZM204.077 2.83381L204.534 4.04634C204.426 3.43633 204.182 2.54938 204.762 2.42962H204.077V1.61753H203.621L204.077 2.83381ZM272.175 2.02544C272.426 2.50821 273.225 2.58681 273.761 2.69909C273.492 1.89447 272.68 1.71857 271.934 1.61753L272.175 2.02544ZM125.012 1.89072L125.469 2.69909H125.012V1.89072ZM197.223 1.89072H197.452V2.68785L196.767 2.41841C196.856 2.18638 196.957 1.872 197.214 1.89072H197.223ZM265.543 2.31361L265.772 2.71779L265.315 1.90942L265.543 2.31361ZM266.343 2.58305L266.685 3.2567C266.625 3.1508 266.582 3.03174 266.561 2.90644C266.54 2.78114 266.54 2.65209 266.561 2.52677C266.582 2.40144 266.624 2.28235 266.685 2.17638C266.745 2.0704 266.823 1.97965 266.914 1.90942H266L266.343 2.58305ZM275.94 2.44833L276.054 2.98724L276.511 2.17889L275.826 1.90942L275.94 2.44833ZM63.4157 2.98724L63.3015 3.79561C64.2911 3.61223 64.8619 6.07473 66.0418 4.87342C66.0418 5.79779 66.6761 6.08968 67.4151 5.95121L67.1868 7.03277L66.0418 6.49012C65.8578 7.37706 67.0281 8.40623 67.6276 9.18839C67.6289 9.05819 67.6556 8.93007 67.7055 8.81395C67.7554 8.69782 67.8273 8.5968 67.9156 8.51867C68.0038 8.44054 68.1061 8.38741 68.2146 8.36337C68.3231 8.33933 68.4348 8.34505 68.5411 8.38004V9.18839L70.1269 8.91895C67.3295 11.0222 71.3955 10.2812 71.0403 12.1561H71.7286C71.5065 13.1366 72.8006 13.2489 73.5554 13.5034L73.3271 12.9645L74.2405 12.695C74.6147 14.4465 76.5526 15.7862 78.1257 15.659C74.897 10.3635 67.7165 6.56871 63.5014 2.18636L63.4157 2.98724ZM110.603 2.31361C109.753 2.43711 109.652 2.64669 109.69 3.2567C109.109 3.16314 108.218 2.79637 108.104 3.52614H109.017V4.87342L108.561 4.33451L108.104 4.87342C108.066 3.37646 106.15 3.53737 105.817 4.60395L106.502 4.33451V5.14286C105.712 4.57402 104.571 5.6406 105.589 6.22067C105.053 6.59491 104.076 6.90927 104.219 7.57167C105.624 6.22815 117.777 3.33528 110.603 2.31361ZM118.944 2.58305L118.374 2.98724C119.132 3.24546 119.978 3.26044 119.959 2.17889C119.611 2.13772 119.465 2.20507 118.944 2.56434V2.58305ZM122.601 2.58305L122.487 2.98724L123.857 3.2567C124 2.63172 123.201 2.42214 122.716 2.17889L122.601 2.58305ZM194.47 2.31361L194.699 2.44833L194.242 2.17889L194.47 2.31361ZM262.457 2.58305C262.299 3.10699 261.458 2.79264 260.973 2.71779C260.656 6.35166 264.433 6.00735 263.028 2.44833C263.523 3.39141 264.151 4.97445 265.083 4.31953C264.503 3.33902 263.279 1.22831 262.457 2.56434V2.58305ZM45.7053 2.85251C45.7053 3.39516 46.752 3.94155 47.2912 4.34947C47.5481 3.03963 46.7615 2.42962 45.7053 2.47828V2.85251ZM49.7048 2.58305L50.0473 2.71779L49.3622 2.44833L49.7048 2.58305ZM114.032 3.12196V3.79561L115.862 3.52614L114.032 2.44833V3.12196ZM202.812 2.68785L202.926 2.95729L202.698 2.41841L202.812 2.68785ZM343.01 2.55313L343.239 2.68785L342.782 2.41841L343.01 2.55313ZM344.038 2.95729L343.924 3.4962C344.39 3.3727 344.336 2.86749 344.152 2.41841L344.038 2.95729ZM60.5581 3.09203C60.5581 3.60474 61.2812 3.65339 61.6998 3.76566L60.5581 2.68785V3.09203ZM121.117 2.82257L121.345 2.95729L120.889 2.68785L121.117 2.82257ZM201.676 3.09203C201.197 3.55609 201.454 4.45801 202.019 4.30457V2.68785L201.676 3.09203ZM279.603 2.95729L279.717 3.22675L279.489 2.68785L279.603 2.95729ZM280.402 2.95729L280.631 3.22675L280.165 2.68785L280.402 2.95729ZM342.332 2.95729L342.56 3.22675L342.103 2.68785L342.332 2.95729ZM131.419 2.95729L132.104 3.4962H131.415L131.419 2.95729ZM189.234 2.95729L190.147 4.30457L188.562 3.76566L189.234 2.95729ZM195.406 3.36148L195.178 3.76566L196.091 4.0351L195.634 2.95729L195.406 3.36148ZM333.546 3.22675L333.66 3.4962L332.747 4.0351C333.042 4.58524 333.381 5.62562 333.889 5.11292L333.432 4.0351C333.879 4.62266 334.434 5.2963 335.018 4.84347C334.961 4.12868 334.444 3.94154 333.876 4.0351C334.444 2.98349 337.013 5.38238 337.761 3.76566L333.419 2.95729L333.546 3.22675ZM44.4653 3.63094L44.1227 4.0351L45.7244 4.57401L44.8078 3.22675L44.4653 3.63094ZM206.037 3.4962L205.923 3.76566H206.38L206.152 3.22675L206.037 3.4962ZM207.408 3.36148C207.845 3.52988 207.598 4.34573 207.522 4.85844L207.978 4.05009C208.372 4.52911 209.069 5.13164 208.667 5.66681L210.252 6.20571L209.796 7.01781C210.186 6.24313 211.296 6.81572 212.079 7.01781C210.752 5.20694 209.004 3.89424 207.052 3.24172L207.408 3.36148ZM259.853 3.63094C258.813 4.25218 257.468 6.03729 257.113 4.57401C257.386 5.85765 254.839 5.55454 255.055 7.00284L254.141 6.19073L253.685 7.27229C254.636 8.13304 256.917 8.60085 257.113 7.00284H256.425V6.19073C257.097 6.49386 258.011 7.18621 258.483 6.72963L258.027 5.65182H258.712V6.19073L261.227 5.92129C260.723 5.26637 260.139 4.42432 260.767 3.76566L259.853 3.22675V3.63094ZM277.678 3.36148L277.906 3.4962L277.45 3.22675L277.678 3.36148ZM346.35 3.4962C346.483 3.83301 346.883 3.5935 347.149 3.4962L346.236 3.22675L346.35 3.4962ZM348.748 3.4962L348.291 3.76566C348.681 3.96027 349.103 4.06131 349.436 3.76566L349.208 3.22675L348.748 3.4962ZM129.271 4.0351L129.386 4.57401C129.941 4.49542 130.445 4.19977 130.299 3.4962H129.157L129.271 4.0351ZM202.625 3.76566L202.739 4.0351L203.196 3.76566L202.51 3.4962L202.625 3.76566ZM278.265 3.76566C278.449 4.1399 279.286 3.84051 279.752 3.76566L278.151 3.4962L278.265 3.76566ZM280.666 3.63094C279.952 3.90414 279.768 5.17655 278.839 4.84347C280.716 7.46315 280.209 0.745555 282.721 7.00284L282.493 5.38238L284.094 5.65182C283.511 4.76113 281.731 3.27166 280.624 3.64216L280.666 3.63094ZM43.2315 4.30457L43.0031 4.84347L43.9166 4.30457L43.4598 3.76566L43.2315 4.30457ZM200.684 4.0351L200.912 4.30457L200.455 3.76566L200.684 4.0351ZM259.413 4.30457L259.869 5.65182C258.842 5.9325 258.353 4.81352 259.371 4.31578L259.413 4.30457ZM131.897 4.97819L132.811 5.38238L130.984 4.57401L131.897 4.97819ZM331.627 4.84347V5.11292H332.496V4.57401H331.583L331.627 4.84347ZM41.5188 4.97819C41.1065 5.11666 41.1763 5.74538 41.1763 6.19073L42.3181 5.11292C42.1995 5.00708 42.0594 4.93996 41.9119 4.91828C41.7643 4.8966 41.6145 4.92115 41.4775 4.98943L41.5188 4.97819ZM43.4598 5.5171V5.92129L44.3733 5.65182L43.4598 5.11292V5.5171ZM280.552 5.5171L280.437 5.92129H281.122V5.11292C280.821 5.10917 280.612 5.10919 280.51 5.52834L280.552 5.5171ZM0.0402913 5.78657V6.19073C0.788795 5.61066 1.23917 7.01406 1.6261 7.81119L2.53953 7.00284C1.01398 9.18092 4.57886 8.40623 3.22458 9.69735L4.59474 9.96682C4.41713 10.5731 4.34734 11.2318 4.82309 11.5835C5.14025 10.88 5.37178 9.52522 5.96804 9.71234L5.51134 11.0596H6.19639V11.868L7.7822 10.7902C5.62867 8.59711 2.84398 6.89804 0.0117188 5.39734L0.0402913 5.78657ZM330.254 5.5171L330.482 5.65182L330.026 5.38238L330.254 5.5171ZM332.769 5.5171L332.998 5.65182L332.541 5.38238L332.769 5.5171ZM352.535 5.65182L352.421 5.92129L353.334 6.19073V5.38238C353.01 5.39361 352.614 5.34121 352.494 5.68177L352.535 5.65182ZM40.488 5.92129C40.783 6.29553 40.4151 7.22364 40.2597 7.81119H40.9479C40.9479 6.93921 41.0748 5.70796 40.2597 5.65182L40.488 5.92129ZM41.9755 6.05601C41.8328 6.48264 42.0865 6.74462 42.3181 7.00284L43.0031 5.92129C42.6098 5.83521 42.0612 5.56575 41.9343 6.05601H41.9755ZM65.2838 6.05601L65.398 6.46019L65.6263 5.65182H65.1284L65.2838 6.05601ZM103.79 5.92129L103.562 6.19073H104.247L104.019 5.65182L103.79 5.92129ZM283.866 6.05601L283.181 6.46019C283.723 6.59492 283.641 7.45191 283.638 8.08064H284.094V7.00284H284.779C285.004 7.65028 286.857 10.7452 287.523 11.0446C287.447 10.6704 287.371 10.3261 287.291 9.96682H288.665C288.553 9.6629 288.354 9.4152 288.103 9.26733C287.852 9.11947 287.564 9.0809 287.291 9.15845C287.691 8.06567 284.662 5.43477 283.825 6.05601H283.866ZM327.97 6.32545V6.72963H328.373L327.917 5.92129L327.97 6.32545ZM329.112 6.72963L329.341 7.54173C329.588 6.86061 329.487 6.20571 328.884 5.92129L329.112 6.72963ZM136.912 6.19073C137.14 6.56497 137.368 6.91302 137.6 7.27229C137.34 6.92424 137.124 6.56124 136.883 6.20197L136.912 6.19073ZM102.062 7.40701C101.919 7.93094 102.696 8.15549 103.093 8.3501C103.235 7.64279 102.719 7.24984 102.176 7.00284L102.062 7.40701ZM252.889 7.54173L253.003 8.08064H252.546L252.774 9.42791L252.089 9.15845L252.318 10.2363C252.8 9.34183 253.482 8.68692 254.373 8.88901L252.787 7.01781L252.889 7.54173ZM38.8768 7.94591V8.61954H39.5619C39.4572 8.04695 39.4223 7.09639 38.8768 7.27229V7.94591ZM211.867 7.81119C212.308 8.87029 214.547 8.87777 215.067 10.2363C215.403 8.87403 212.951 8.02825 211.867 7.27229V7.81119ZM37.6209 8.21538L37.5067 8.88901L36.5933 8.3501L36.3649 9.15845L37.9507 9.69735L38.4074 7.54173C37.992 7.52302 37.6875 7.53051 37.5923 8.22659L37.6209 8.21538ZM326.572 7.94591L326.115 8.08064L326.8 9.15845C327 8.35009 327.517 7.96837 328.174 8.3501V7.81119C327.631 7.77725 327.088 7.82631 326.556 7.95715L326.572 7.94591ZM101.022 8.75428V9.42417C101.57 9.59632 101.602 8.6495 101.707 8.07691H101.022V8.75428ZM251.274 9.42791L251.16 10.5057H251.617C251.617 9.877 251.531 9.00876 252.077 8.88901L251.388 8.3501L251.274 9.42791ZM324.745 8.88901L324.517 9.42791C325.008 9.27073 325.107 9.99302 325.202 10.5057C326.489 10.2288 326.007 8.73182 324.973 8.3501L324.745 8.88901ZM100.207 9.04993L100.092 9.45411H100.549L100.321 8.64574L100.207 9.04993ZM140.426 9.04993C140.578 9.52895 140.109 10.2774 139.855 10.8014L140.768 11.0708V9.99302C141.663 9.9032 141.825 13.9225 142.827 11.0708C141.698 11.2654 141.894 9.9481 142.827 9.72355L140.312 8.64574L140.426 9.04993ZM4.56938 8.91521L4.79773 9.99302C4.3315 9.85829 4.3886 9.34931 4.56938 8.90022V8.91521ZM250.117 9.18465L250.231 9.45411L249.317 9.18465L249.546 10.2625C248.413 10.1876 247.988 11.1719 248.176 12.4218C248.204 11.3216 249.838 11.6734 250.688 11.6097C250.37 10.6928 250.183 9.70111 250.688 8.91521H250.002L250.117 9.18465ZM34.7347 9.58883V9.99302H36.108V9.18465H34.7347V9.58883ZM172.646 10.2475C170.601 12.3133 167.819 12.8934 166.135 14.8319C164.495 14.0498 164.441 15.659 164.549 17.257C165.818 17.2795 169.535 16.1642 169.12 14.293C170.204 15.4382 175.146 11.8118 174.603 10.2475L174.832 10.7864C176.205 9.76099 173.639 9.20337 172.646 10.2475ZM357.292 9.70859L357.406 9.97803L357.178 9.43913L357.292 9.70859ZM70.6121 9.84331L71.0688 9.97803L70.8405 10.7864L69.927 10.2475C70.0475 9.90694 70.1586 9.68987 70.6121 9.84331ZM323.359 9.97803V10.2475H324.272L323.359 9.70859V9.97803ZM71.757 9.97803L72.2138 10.7864H71.757V9.97803ZM34.7347 10.7864L34.963 11.0558L34.5063 10.5169L34.7347 10.7864ZM215.153 10.7864C216.51 11.5349 217.109 16.2765 218.924 14.5625V16.4337C222.343 16.9239 220.259 11.49 218.01 13.2003C218.635 11.9915 215.692 10.4271 215.146 10.7864H215.153ZM288.167 11.0558L287.71 11.5948L288.167 11.8642C287.713 12.4967 288.826 13.3612 289.308 14.0236C289.432 13.335 290.314 13.4996 290.894 13.4847V14.5625L289.752 14.0236C289.562 14.8731 290.482 15.2698 291.123 15.6403V14.5625C292.188 15.8536 291.928 17.8745 294.323 17.257L293.866 18.3386C295.281 18.5257 295.874 19.9815 297.295 19.6858L297.066 18.8775L298.652 19.1469C296.831 15.6178 290.901 14.2818 289.283 10.5169C289.073 10.485 288.86 10.5179 288.664 10.6124C288.469 10.7068 288.297 10.8597 288.167 11.0558ZM7.99789 11.0558C8.46095 11.5948 9.87231 11.6995 10.2846 12.6763C10.3036 11.4937 8.92717 11.1494 7.99789 10.7864V11.0558ZM322.442 11.46V12.1374C322.557 11.4937 323.283 11.591 323.816 11.5948C323.704 11.2908 323.505 11.0431 323.254 10.8953C323.003 10.7474 322.715 10.7089 322.442 10.7864V11.46ZM33.7071 11.3253L33.5929 11.5948L34.5063 11.8642L33.8213 11.0558L33.7071 11.3253ZM321.415 11.3253L321.301 11.5948L321.757 11.8642L321.986 11.0558C321.764 11.0484 321.526 11.0297 321.415 11.3253ZM360.15 11.46C360.15 11.9877 361.032 12.3732 361.52 12.6763V12.1374H360.835V11.0558H360.15V11.46ZM288.626 11.3253L289.083 11.8642H288.411L288.626 11.3253ZM320.162 11.8642L319.934 12.4068L320.847 12.6763L320.39 11.3253L320.162 11.8642ZM71.9886 11.5948L73.1304 12.1374H71.9886V11.5948ZM11.0712 12.4068L11.4137 12.6763V12.1374H10.7287L11.0712 12.4068ZM94.9385 12.5416C94.7926 13.0618 95.5728 13.6231 95.9661 14.0385L95.0527 12.1674L94.9385 12.5416ZM96.2071 12.6763L96.4355 13.2152C96.778 12.7549 96.3689 12.3844 95.9788 12.1374L96.2071 12.6763ZM143.969 12.2721L144.197 12.4068L143.74 12.1374L143.969 12.2721ZM146.024 12.6763L146.484 13.2152L145.567 12.1374L146.024 12.6763ZM246.247 12.5416C245.844 12.972 245.902 13.8739 245.905 14.5625H246.361V13.4847H247.046V12.1374C246.892 12.1093 246.733 12.1322 246.589 12.2036C246.445 12.2749 246.32 12.3918 246.228 12.5416H246.247ZM7.44285 12.811L7.55703 13.2152L7.32868 12.4068L7.44285 12.811ZM30.9795 12.6763L31.0936 12.9458L30.8653 12.4068L30.9795 12.6763ZM321.659 12.6763L321.773 12.9458L321.545 12.4068L321.659 12.6763ZM29.1526 13.0805L29.0384 13.4847L28.3534 12.9458L28.125 13.4847L30.1803 14.5625L29.7235 13.2152L30.4086 12.9458C29.9709 12.8597 29.289 12.564 29.1368 13.0805H29.1526ZM94.2819 12.9458L94.1678 13.2152L94.3961 12.6763L94.2819 12.9458ZM247.503 13.0805L247.275 13.4847L247.963 13.2152L247.735 12.6763L247.503 13.0805ZM319.033 12.811L319.261 12.9458L318.805 12.6763L319.033 12.811ZM11.0997 13.2152L10.9856 13.4847C11.3035 13.5161 11.6056 13.6623 11.8507 13.9033C12.0959 14.1443 12.2722 14.4686 12.3557 14.8319C10.919 15.1276 10.0182 13.6531 9.15554 13.2152C9.4727 14.7646 10.3385 15.7301 11.6706 14.8319C11.7372 15.4906 11.9878 16.0819 12.584 15.9097L12.3557 14.8319C14.5822 14.5775 11.9307 12.347 11.0839 13.2152H11.0997ZM13.6117 13.2152L13.9542 13.4847L13.2691 12.9458L13.6117 13.2152ZM143.528 13.2152V13.4847H144.67L143.528 12.9458V13.2152ZM244.763 13.4847L244.991 14.0236H243.849L244.078 15.1014C244.481 14.3866 245.102 14.323 245.664 14.8319C245.454 14.0198 245.232 13.0169 244.522 12.9607L244.763 13.4847ZM360.622 13.2152L360.851 13.4847L360.394 12.9458L360.622 13.2152ZM361.891 13.4847C362.208 13.9787 362.253 14.162 362.234 14.5625L361.092 14.293L361.777 15.9097L362.005 15.3708C364.669 17.4179 363.766 13.4996 361.549 12.9458L361.891 13.4847ZM398.571 13.2152V13.4847L397.657 13.2152C397.918 14.6373 395.498 14.1358 395.599 15.0864C396.928 15.3184 398.098 14.6298 399.028 13.4697L398.571 12.9308V13.2152ZM8.02642 13.7541L8.25481 14.0236L7.79807 13.4847L8.02642 13.7541ZM25.9652 14.0236C25.2325 14.5213 25.0771 14.7721 24.9376 15.3708H27.2211L26.536 14.5625C27.1037 14.656 27.6208 14.4689 27.681 13.7541C27.0689 13.5408 26.6915 13.4996 25.9366 14.0236H25.9652ZM92.8072 13.7541V14.0236H93.9521L92.8072 13.4847V13.7541ZM145.824 13.8888C145.539 14.046 145.742 14.5176 145.824 14.8319L146.512 14.293C146.293 14.0685 146.059 13.713 145.796 13.8888H145.824ZM316.987 14.1583V14.5625L316.302 14.293L316.53 15.1014L315.389 14.5625V15.6403C316.074 15.2062 316.819 15.0939 317.444 15.6403L317.216 14.293H318.36V13.7541H316.955L316.987 14.1583ZM319.502 14.0236L319.731 14.293L319.274 13.7541L319.502 14.0236ZM76.5843 14.0236H77.041L76.8127 14.8319L76.5843 14.0236ZM78.5253 14.8319C78.6173 15.7713 79.4007 15.6478 80.0096 15.6403L79.7813 16.7181H80.6693V15.9097L81.8112 16.4487C81.3766 15.1051 79.4134 15.1912 78.3826 14.0236L78.5253 14.8319ZM144.996 14.2893L145.11 14.5587L144.882 14.0198L144.996 14.2893ZM15.7684 14.8282V15.3671L14.6266 15.0976C14.3285 16.037 14.4522 17.6574 15.54 16.9688L15.0833 16.1605C15.5685 16.037 16.371 15.9996 16.2251 15.3521L17.5952 16.1605C17.1702 15.2211 16.6755 14.0011 15.7684 14.2893V14.8282ZM18.1661 14.8282L18.2803 15.0976L18.0519 14.5587L18.1661 14.8282ZM19.6536 14.9629V15.3671H18.9685V15.906L19.6536 15.6365C19.4316 16.7855 19.384 18.1402 20.567 18.0654V16.7144C21.6644 17.5751 23.5452 18.1552 24.909 16.7144C24.2747 16.2204 24.2144 15.3895 24.4523 14.5587C23.1836 14.4427 22.5144 15.3072 21.2521 14.5587L21.7088 15.6365L19.6536 14.5587V14.9629ZM27.6524 14.8282C27.6746 15.2024 28.4105 15.2623 28.7942 15.3671V14.5587H27.6524V14.8282ZM92.3219 14.8282L92.5502 15.0976L92.0935 14.5587L92.3219 14.8282ZM149.452 14.8282L149.681 15.0976L149.224 14.5587L149.452 14.8282ZM221.448 15.0976C221.166 15.6814 221.562 15.9247 221.905 16.1754L222.133 14.5587C221.807 14.5325 221.648 14.5887 221.439 15.1014L221.448 15.0976ZM13.8337 15.0976L13.7195 15.3671L14.4077 15.0976L13.9479 14.8282L13.8337 15.0976ZM90.2699 15.5018L90.4982 16.1754L90.7266 14.8282H90.0415L90.2699 15.5018ZM74.9572 15.3671V15.6365H75.6423V15.0976H74.9604L74.9572 15.3671ZM93.1243 15.3671L93.2385 15.6365L93.0101 15.0976L93.1243 15.3671ZM394.429 15.6365C394.457 16.2428 393.924 16.4823 393.515 16.7144C393.698 16.7287 393.882 16.6967 394.054 16.6205C394.225 16.5444 394.381 16.4257 394.511 16.2727C394.641 16.1196 394.741 15.9356 394.806 15.7329C394.87 15.5303 394.898 15.3137 394.885 15.0976H394.429V15.6365ZM82.1632 15.6365L82.049 15.906H82.7341L82.2774 15.3671L82.1632 15.6365ZM83.99 15.6365L84.1042 15.906L83.8759 15.3671L83.99 15.6365ZM222.704 16.1754C222.257 19.1694 224.452 18.1215 225.79 19.6821C225.942 18.3647 223.957 18.4433 224.189 17.2533H224.874C224.69 15.9621 223.19 14.323 222.695 16.1792L222.704 16.1754ZM313.762 15.7862L313.53 16.1904L314.675 16.7293C314.83 15.9846 314.329 14.9255 313.762 15.7862ZM364.606 15.6515L364.72 15.921L364.492 15.3821L364.606 15.6515ZM20.8017 15.6515H21.2585L21.0301 16.1904L20.8017 15.6515ZM85.7028 15.7862L85.9311 15.921L85.4743 15.6515L85.7028 15.7862ZM87.8721 16.5946C88.3161 18.0429 89.2328 17.5789 89.8163 16.7293L89.1312 15.921L89.3596 16.9988H88.443C88.5857 16.2952 88.0719 15.8985 87.5295 15.6515L87.8721 16.5946ZM162.722 16.5946C163.176 18.5257 163.902 17.0212 164.096 15.921L162.51 15.6515L162.722 16.5946ZM22.4098 15.921L23.5547 16.4599L22.1814 16.7293L22.4098 15.921ZM76.9141 16.3251L76.8 16.7293H78.1701L77.0283 15.921L76.9141 16.3251ZM78.4999 16.5946C78.5951 17.2907 78.8996 17.2982 79.2992 17.2682L78.3858 15.921L78.4999 16.5946ZM240.522 16.0557C239.498 16.748 240.332 18.0017 241.322 18.0803C241.284 17.1709 241.544 15.5991 240.519 16.0445L240.522 16.0557ZM292.512 15.921H292.968V16.7293H292.512V15.921ZM365.865 16.9988L366.782 18.0803C367.346 17.1298 365.656 16.4561 364.952 15.921L365.865 16.9988ZM149.243 16.5946L149.7 16.9988C149.698 16.8688 149.671 16.7411 149.621 16.6254C149.571 16.5096 149.499 16.409 149.411 16.331C149.322 16.253 149.22 16.1998 149.112 16.1754C149.004 16.1511 148.893 16.1562 148.786 16.1904L149.243 16.5946ZM391.933 16.5946V16.9988L391.019 16.7293V17.5414C390.905 16.8977 390.182 16.995 389.649 16.9988V17.8109C388.533 17.2982 387.784 18.8924 386.449 18.8887L387.134 20.236L385.307 19.6971V20.7749C384.92 19.9927 383.439 20.453 382.564 20.5054L382.792 22.9342C383.848 22.7246 385.428 22.5038 385.079 21.0443H385.535L385.307 22.1221C386.322 21.7853 387.683 21.3325 387.362 19.9665H387.819V20.7749C388.869 20.947 392.142 19.581 391.704 17.8109C393.813 19.1432 394.318 16.0258 391.933 16.1904V16.5946ZM17.3859 16.5946C16.6818 17.8446 18.404 17.7847 19.2159 17.5414C18.8385 16.7106 18.052 16.1605 17.3669 16.5834L17.3859 16.5946ZM161.355 17.1335C161.064 17.882 161.622 18.4059 162.041 18.8887L161.812 17.2682L162.269 17.5414V16.4599C161.828 16.4187 161.546 16.4487 161.336 17.1223L161.355 17.1335ZM311.151 16.8641C311.044 17.3244 310.669 17.2795 310.352 17.2682C311.199 19.5998 312.642 15.412 311.132 16.8528L311.151 16.8641ZM312.864 16.7293L313.092 16.9988L312.636 16.4599L312.864 16.7293ZM81.4876 17.1335C81.2656 17.9493 82.0332 18.1477 82.5153 17.8109L81.6018 16.7293L81.4876 17.1335ZM152.786 17.1335L153.128 17.5414L152.443 16.7293L152.786 17.1335ZM158.726 16.9988C158.063 17.2682 158.273 18.0055 158.384 18.6192C158.511 17.4479 160.458 18.3573 160.785 17.6761C161.007 16.3962 159.367 16.6545 158.707 16.9876L158.726 16.9988ZM225.686 17.5414L225.8 18.3498C226.723 17.1073 228.02 18.8775 227.855 20.221C228.388 20.0937 228.223 19.4051 228.083 18.8737H228.54C228.343 19.7756 229.45 20.2734 230.126 20.7449C228.886 18.4583 228.096 17.4628 225.552 16.6994L225.686 17.5414ZM238.023 17.2682L237.681 17.8109C238.54 18.2562 238.813 20.4305 239.511 17.8109C238.911 17.9793 238.578 17.3693 238.366 16.7293L238.023 17.2682ZM394.334 17.1335L394.219 17.5414H394.66L394.432 16.7293L394.334 17.1335ZM223.71 16.9876H223.938V17.7997L223.025 17.5302C223.231 17.2832 223.469 16.9726 223.71 16.9876ZM295.008 16.9876L296.594 17.7997L295.905 18.8775C295.319 18.4546 294.884 17.8221 295.021 16.9876H295.008ZM153.794 17.6574V18.0616H154.708L153.794 17.2495V17.6574ZM156.195 17.5227L156.081 17.7922H157.223V18.3311L156.538 18.0616C156.367 19.0571 156.855 19.742 157.68 19.9328C157.676 18.7502 157.385 16.3551 156.195 17.5302V17.5227ZM364.72 17.388L364.948 17.5227L364.492 17.2495L364.72 17.388ZM299.02 18.0616L299.362 18.6005L298.677 17.5227L299.02 18.0616ZM230.005 18.4658L229.434 19.1394C230.094 19.2779 230.922 19.5361 231.264 18.87L231.956 21.0256L232.184 20.4867C233.542 21.673 234.591 20.3894 234.699 18.6155C235.299 20.1948 237.132 17.9606 235.613 17.8071V18.885H235.156V18.0691C233.887 18.1065 232.362 17.736 231.956 19.4164C232.273 17.9718 230.827 17.3842 230.005 18.4733V18.4658ZM236.983 18.1964C237.249 18.6155 237.094 19.1881 236.983 19.6933H237.896C237.69 18.8625 237.541 17.5564 236.755 17.8221L236.983 18.1964ZM308.738 18.0616V18.3311L309.654 18.0616L308.738 17.7922V18.0616ZM390.093 17.7922L391.007 18.6005C390.9 18.636 390.789 18.6423 390.68 18.619C390.572 18.5957 390.469 18.5433 390.38 18.466C390.292 18.3887 390.219 18.2885 390.168 18.173C390.117 18.0575 390.089 17.9298 390.087 17.7997L390.093 17.7922ZM151.745 18.4658L151.974 18.87V18.0691H151.517L151.745 18.4658ZM159.63 19.0047L158.599 19.6783L161.114 19.1394C160.804 18.477 160.569 18.4059 159.624 19.0122L159.63 19.0047ZM311.139 18.6005L311.253 18.87L311.025 18.3311L311.139 18.6005ZM233.554 18.87C234.572 19.6484 233.237 21.587 233.098 19.4089L232.869 20.2173L232.184 19.6783C232.555 19.2405 233.025 18.5294 233.542 18.8775L233.554 18.87ZM368.269 19.0047C368.383 19.4875 368.919 19.4089 369.297 19.4089L368.155 18.6005L368.269 19.0047ZM236.526 19.2742L236.755 19.4089L236.298 19.1394L236.526 19.2742ZM297.999 19.8131L297.77 20.2173L298.684 19.6783C298.427 19.5287 298.217 19.3864 297.992 19.8206L297.999 19.8131ZM235.835 19.9478L235.606 20.2173H236.52L236.063 19.6783L235.835 19.9478ZM298.906 20.0825C298.906 20.6177 299.8 20.6439 300.276 20.7562C300.425 20.0825 299.448 19.9291 298.906 19.6783V20.0825ZM307.59 19.9478L307.818 20.2173L307.361 19.6783L307.59 19.9478ZM230.694 20.2173L230.579 20.4867L231.493 20.7562L230.808 19.9478L230.694 20.2173ZM300.736 20.6214L300.504 21.0256H301.878L300.964 20.2173L300.736 20.6214ZM376.033 21.0256L376.376 21.5645L374.996 21.0256L375.225 22.1034C374.695 22.2269 373.956 21.2726 373.398 20.7562L374.311 22.1034C373.816 22.7172 373.109 22.4777 372.484 22.1034V22.9155C373.436 22.9417 374.933 22.676 375.225 23.7239C375.282 22.182 376.934 21.4185 377.511 22.9155H376.141V24.0195C377.324 23.7875 377.847 21.9462 379.11 22.3991C377.882 23.4993 378.926 23.896 380.026 23.7501V22.6723L382.538 23.2112C382.5 22.0885 379.658 22.3167 379.795 21.34C380.219 21.5041 380.671 21.5407 381.11 21.4466C381.549 21.3525 381.962 21.1306 382.31 20.8011C381.26 20.2247 380.16 21.4036 379.338 20.5316C379.265 21.2464 379.107 22.0922 378.425 21.8789L378.653 21.34C377.825 21.6693 377.48 20.4904 376.826 20.5316V21.34L375.684 20.5316L376.033 21.0256ZM372.262 21.295L372.491 21.5645L372.034 21.0256L372.262 21.295ZM378.089 23.4544L378.203 23.7239L377.974 23.185L378.089 23.4544Z" fill="#839CB5"/>
</svg>