<svg width="112" height="110" viewBox="0 0 112 110" fill="none" xmlns="http://www.w3.org/2000/svg">
<g clip-path="url(#clip0_1762_1230)">
<path d="M55.8932 2.88161C53.5849 3.094 52.2914 3.26974 52.0127 3.40883C51.7324 3.5498 51.5924 3.72459 51.5924 3.93605V4.25181L51.1744 4.04036L50.7539 3.82891L50.8578 4.25181C50.8925 4.38925 50.9603 4.51209 51.0533 4.60561C51.1463 4.69913 51.2605 4.75935 51.3821 4.77903L51.8026 4.88335L51.5924 5.6192L51.3821 6.35787H52.223V6.56932C52.223 6.70747 52.4646 6.8146 52.9478 6.88509L53.6727 6.9894L53.5688 6.67364C53.5325 6.56932 53.4988 6.46218 53.465 6.35787L54.0932 6.14642C54.5136 6.00545 54.7577 5.79682 54.8181 5.51488L54.9219 5.0948L55.7604 5.30343C56.321 5.4444 56.7059 5.37486 56.9153 5.0948C56.9878 4.97572 57.0814 4.87628 57.1898 4.8033C57.2983 4.73031 57.4189 4.6855 57.5435 4.6719C57.6462 4.67185 57.7474 4.70049 57.8386 4.75542C57.9298 4.81036 58.0084 4.89 58.0678 4.98766C58.137 5.09065 58.1829 5.2122 58.2015 5.34122C58.2201 5.47024 58.2107 5.60264 58.1741 5.72633L58.0678 6.14642L58.3844 5.72633C58.5922 5.4444 58.9788 5.41056 59.5369 5.6192C60.0951 5.82783 61.2138 5.83065 62.8931 5.6192L65.4108 5.30343V5.72633L65.8288 5.6192C65.9553 5.58366 66.0872 5.58434 66.2135 5.62116C66.3397 5.65798 66.4564 5.72984 66.5537 5.83065L66.8678 6.14642C66.7977 5.97162 66.7277 5.79682 66.66 5.6192L66.4498 5.0948L66.8678 5.19912C67.1481 5.2696 67.322 5.19912 67.3921 4.98766C67.4622 4.77621 67.7426 4.70573 68.2331 4.77903L68.9579 4.88335C68.8879 4.6719 68.8201 4.46045 68.75 4.25181C68.7051 4.06849 68.6099 3.90744 68.4789 3.79336C68.348 3.67928 68.1886 3.61848 68.0252 3.62028C67.6748 3.62028 67.4646 3.51314 67.3946 3.30169C67.3245 3.09024 65.9618 2.91544 63.3063 2.77729C60.8358 2.6348 58.3601 2.66964 55.8932 2.88161ZM56.8355 3.82891L57.0458 4.25181L57.256 4.6719L56.9418 4.56758C56.8151 4.54048 56.6848 4.54532 56.5598 4.58179C56.4348 4.61826 56.3179 4.68552 56.217 4.77903L55.7966 5.0948V4.04036L56.217 4.25181L56.6375 4.46044C56.6713 4.35613 56.7076 4.25181 56.7414 4.14468C56.7752 4.03754 56.8017 3.93605 56.8355 3.82891ZM58.9352 3.82891C59.0391 4.00653 59.1431 4.18133 59.2494 4.35613L59.5635 4.88335L59.2494 4.6719C59.1602 4.62688 59.0835 4.55367 59.028 4.46051C58.9725 4.36736 58.9403 4.25797 58.9352 4.14468V3.82891ZM69.7359 4.14468C69.6996 4.03754 69.6658 3.93605 69.632 3.82891C69.6658 3.93605 69.7021 4.04036 69.7456 4.14468H69.7359ZM53.5858 5.0948L54.1101 5.30343H52.8512V6.35787L52.3269 6.25355L51.8026 6.14642L52.4332 5.51488C52.852 5.09574 53.2362 4.95665 53.5858 5.09762V5.0948ZM39.7431 6.9894C39.7069 7.13037 39.6731 7.27134 39.6368 7.40948L39.4266 7.20085C39.2864 7.05989 39.0424 7.02323 38.7017 7.09372L38.1749 7.20085L38.3852 7.62094C38.5524 7.92788 38.8103 8.15258 39.11 8.25247L39.6343 8.46392H39.0061C38.5857 8.46392 38.3054 8.32296 38.1652 8.04384C38.1057 7.91104 38.015 7.80076 37.9038 7.72587C37.7925 7.65098 37.6654 7.61458 37.5371 7.62094C37.4184 7.61135 37.2994 7.63501 37.1901 7.68994C37.0809 7.74487 36.9844 7.82947 36.9089 7.9367C36.7687 8.1491 36.3137 8.35964 35.5437 8.56827C34.7737 8.7769 34.3895 8.98836 34.3912 9.20263V9.51839L33.7604 9.41126C33.5996 9.36488 33.4321 9.35975 33.2694 9.39625C33.1067 9.43276 32.9527 9.51004 32.8181 9.62271C32.6079 9.83416 32.5378 10.0428 32.6079 10.2542C32.6417 10.3614 32.678 10.4657 32.7118 10.57L31.8733 10.4657L31.035 10.3614V10.9929L30.6145 10.8858C30.221 10.8333 29.8226 10.9064 29.4619 11.0972C28.9787 11.3087 28.6574 11.5878 28.5173 11.943C28.4331 12.1306 28.3141 12.2939 28.1691 12.4212C28.0241 12.5485 27.8566 12.6365 27.6788 12.6789L27.0505 12.8903C27.1206 13.1018 27.1883 13.3132 27.2584 13.5219L27.4685 14.1534L26.8404 13.7333C26.5352 13.4833 26.1625 13.3711 25.7917 13.4176L25.3713 13.5219L25.5816 14.1534C25.7217 14.5763 25.6854 14.8554 25.4776 14.9992C25.2166 15.1484 24.9192 15.1863 24.6368 15.1064L24.1125 14.9992C24.1487 15.1064 24.1825 15.2107 24.2188 15.315L24.3226 15.6307L24.847 15.4221L25.3713 15.2107V15.8422H23.9022V16.688H24.3202C24.6005 16.688 24.8421 17.0038 25.0451 17.6353C25.2553 18.2668 25.6733 18.515 26.3039 18.374C26.9346 18.233 27.2704 18.0582 27.3526 17.8468C27.4347 17.6353 27.5943 17.531 27.877 17.531C28.1914 17.5143 28.4895 17.3639 28.7154 17.1081L29.1358 16.688L28.411 16.5837L27.6861 16.4766L27.8962 16.1608L28.1065 15.845L28.2104 16.0565C28.2466 16.127 28.2804 16.1974 28.3142 16.2679L28.6308 16.0565C28.8911 15.9082 29.1879 15.8713 29.4692 15.9522L29.9936 16.0565V15.4249L30.414 15.5293L30.832 15.6336L30.6218 15.1092C30.5517 14.9316 30.4817 14.7568 30.414 14.582L31.2524 14.7934C31.8097 14.9306 32.1593 14.8601 32.301 14.582C32.3767 14.4403 32.4844 14.3259 32.6124 14.2513C32.7403 14.1766 32.8834 14.1447 33.0259 14.1591H33.5503C33.5141 14.0547 33.4801 13.9504 33.4439 13.8433C33.4076 13.7361 33.3739 13.6347 33.3401 13.5275L33.9683 13.6347L34.5989 13.739V12.8932H35.4349C35.9931 12.8932 36.3797 12.7522 36.5875 12.4731C36.7953 12.194 37.0079 12.0868 37.2181 12.1573C37.3132 12.1946 37.4163 12.1941 37.5112 12.1558C37.606 12.1176 37.6873 12.0437 37.7424 11.9459C37.8825 11.7344 38.2257 11.5596 38.7911 11.4186C39.3251 11.2946 39.8061 10.9602 40.1538 10.4713C40.505 9.98077 40.5751 9.524 40.364 9.1011L40.05 8.46957L40.5743 8.36525L41.0986 8.25811L40.9923 8.04948C40.9214 7.90852 40.6798 7.90852 40.2674 8.04948L39.6368 8.25811L40.0572 7.62658C40.335 7.2065 40.4752 6.92456 40.4752 6.78077V6.57214H40.1611C40.06 6.5709 39.9619 6.6125 39.885 6.68923C39.8082 6.76595 39.7577 6.87261 39.7431 6.9894ZM82.008 10.0484C81.8678 10.6837 82.1819 11.1752 82.9503 11.523C83.8357 11.9593 84.6524 12.5654 85.3665 13.3161C86.2042 14.1562 86.7631 14.5425 87.0434 14.4748L87.4639 14.3677V15.2135H87.8819C88.1622 15.2135 88.8266 15.7774 89.8753 16.9051C90.9239 18.0329 91.6231 18.6296 91.9726 18.6954L92.4969 18.7997L92.393 19.1155C92.3221 19.3279 92.5315 19.5741 93.0212 19.8541C93.5045 20.1361 93.7895 20.4518 93.8596 20.8014C93.873 20.9507 93.9348 21.0884 94.0322 21.1864C94.1297 21.2843 94.2555 21.3352 94.384 21.3287C94.7711 21.2802 95.1366 21.0964 95.4326 20.8014C95.8531 20.4518 95.9159 20.0289 95.6429 19.5384C95.3699 19.0478 95.0847 18.7659 94.8044 18.6926C94.6826 18.6736 94.5681 18.6136 94.475 18.52C94.3819 18.4264 94.3142 18.3031 94.2801 18.1654C94.265 18.0481 94.2142 17.9411 94.137 17.8639C94.0598 17.7868 93.9613 17.7446 93.8596 17.7453C93.6494 17.7453 93.4754 17.5677 93.3353 17.2181C93.1952 16.8685 93.0212 16.7247 92.811 16.7951C92.6008 16.8656 92.4268 16.7247 92.2867 16.3751C92.2478 16.2246 92.1611 16.0972 92.0442 16.0191C91.9274 15.941 91.7893 15.918 91.6584 15.955L91.2381 16.0593V15.6364C91.2381 15.3545 91.0278 15.1458 90.6098 15.0049C90.1918 14.8639 89.9454 14.6186 89.885 14.269L89.781 13.7418L89.3607 13.8461L88.9402 13.9532V12.8988H88.5222C88.2419 12.8988 88.0679 12.7945 87.9979 12.583C87.9616 12.4787 87.9278 12.3716 87.8916 12.2673L87.4736 12.4787L87.0531 12.6874C87.0869 12.5492 87.1232 12.4054 87.157 12.2673C87.2263 11.9853 86.9122 11.7391 86.2147 11.5286C85.5172 11.3181 85.1322 11.0728 85.0597 10.7927C84.9896 10.5108 84.6755 10.336 84.1174 10.2655C83.5592 10.195 83.2765 10.054 83.2765 9.84542C83.2765 9.63678 83.1026 9.45917 82.7522 9.3182L82.2279 9.10674C82.1458 9.41124 82.0684 9.72702 82.008 10.0428V10.0484ZM83.0566 10.5757L83.4746 10.6828L83.8951 10.7871C83.8588 10.8914 83.825 10.9986 83.7888 11.1029L83.6848 11.4186L83.3708 10.9986L83.0566 10.5757ZM32.7143 12.2616L33.0307 12.5774L33.3449 12.8932H32.7143V12.2616ZM28.7299 12.4731L28.9401 12.6817L29.1503 12.8932H28.5196L28.6259 12.6817L28.7299 12.4731ZM32.0861 13.1046C32.1199 13.2794 32.156 13.4542 32.1899 13.6318L32.2962 14.1562H32.0861C31.9459 14.1562 31.8444 14.0181 31.7719 13.7361C31.6994 13.4542 31.7357 13.2794 31.8758 13.2089L32.0861 13.1046ZM27.8914 14.9992H28.1016V15.6307H27.4613L27.5676 15.315C27.6474 15.1007 27.7512 14.9936 27.8914 14.9936V14.9992ZM28.5196 14.9992L28.8338 15.1064L29.1503 15.2107L28.8338 15.315L28.5196 15.4221V14.9992ZM31.0373 15.2107V15.4221H31.6656L31.3515 15.2107L31.0373 14.9992V15.2107ZM27.6813 16.6852H28.3094V17.1053L27.9953 16.8966L27.6813 16.6852ZM26.8428 17.3167L27.053 17.4239L27.2608 17.5282L26.9467 17.6325L26.6325 17.7396L26.7365 17.5282L26.8428 17.3167ZM15.8223 23.9479C15.3391 24.4384 14.9896 24.6837 14.7737 24.6837H14.4595L14.88 25.1066L15.298 25.5267L14.6698 25.6338C14.2493 25.7015 14.0077 26.0868 13.9449 26.7898C13.9111 27.1422 13.8748 27.4946 13.841 27.8442L13.4206 27.7399L13.0001 27.6328V28.3715C13.0001 28.862 12.8262 29.144 12.4758 29.2173L11.9515 29.3216L13.1064 29.8488L14.259 30.376L13.841 30.5847L13.4206 30.7961L13.3166 30.5847C13.2466 30.4465 12.8963 30.3394 12.268 30.2689L11.3232 30.1646L11.5335 30.4803L11.7437 30.7961H11.2169C10.869 30.7961 10.6596 31.1824 10.5887 31.9549C10.5178 32.7274 10.3431 33.1484 10.0644 33.2179L9.64391 33.3251L9.75033 33.7451C9.78416 33.8861 9.82033 34.0271 9.85415 34.168L9.32985 34.0609L8.80554 33.9566L9.01578 34.3767L9.22591 34.7996H8.1773C8.21112 34.6924 8.24741 34.5881 8.28124 34.4838L8.38754 34.168H7.96706L8.28124 35.2197C8.38755 35.5721 8.4914 35.9217 8.5953 36.2741L8.1773 36.167C7.89701 36.0993 7.75693 35.9922 7.75693 35.8512V36.3784C7.75693 36.869 7.93088 37.1509 8.28124 37.2242L8.80554 37.3285L8.49148 37.4357C8.38725 37.4713 8.29317 37.5391 8.21918 37.6319C8.14519 37.7247 8.09398 37.839 8.071 37.9629C8.00093 38.2448 7.7931 38.4168 7.44275 38.4873C7.09239 38.5578 6.91844 38.7693 6.91844 39.1189V39.6461H6.28784L6.49808 40.069L6.7082 40.4891H5.65959V41.1206L6.07996 41.0163C6.35782 40.9458 6.53431 40.9796 6.60438 41.1206C6.67445 41.2616 6.84598 41.2982 7.12869 41.2277L7.54669 41.1206V41.7493L7.86323 41.645C8.07103 41.5745 8.14107 41.3997 8.071 41.1178C8.00093 40.8358 8.17729 40.5539 8.5953 40.272C9.01331 39.99 9.18968 39.7476 9.11961 39.5361C9.04954 39.3247 9.25983 38.8679 9.75033 38.1659C10.2408 37.4639 10.4485 37.0071 10.3785 36.7985C10.3446 36.6914 10.3085 36.5871 10.2746 36.4799L10.6926 36.3756C10.7559 36.3665 10.8169 36.343 10.8723 36.3063C10.9277 36.2696 10.9762 36.2205 11.0153 36.1618C11.0544 36.1031 11.0831 36.036 11.0999 35.9643C11.1167 35.8926 11.1211 35.8178 11.113 35.7441C11.1118 35.5721 11.1503 35.4029 11.2243 35.2541C11.2982 35.1054 11.405 34.9825 11.5335 34.8983C11.6518 34.8283 11.7525 34.7238 11.8257 34.5948C11.899 34.4658 11.9424 34.3168 11.9515 34.1624C11.9627 34.045 11.9371 33.9269 11.8793 33.83C11.8215 33.733 11.7355 33.6638 11.6373 33.6352L11.3232 33.528C11.3571 33.4237 11.3934 33.3194 11.4272 33.2123C11.461 33.1051 11.4972 33.0036 11.5335 32.8965L11.9515 33.4237L12.3719 33.951L12.8963 33.3194L13.4206 32.6879L13.0001 32.4764L12.5821 32.265L12.7923 31.8449L13.0001 31.422H11.9515V31.0019H13.2055C13.1717 31.2134 13.1354 31.422 13.1016 31.6334L12.9953 32.265H13.4158V31.6334H14.2541V31.3177C14.2597 31.2046 14.2921 31.0954 14.3476 31.0024C14.403 30.9094 14.4794 30.836 14.5683 30.7905L14.8848 30.579L14.4644 29.9475L14.044 29.3159L14.6746 29.0002C15.0926 28.7887 15.3391 28.5801 15.3995 28.3686L15.5033 28.0529L15.7135 28.1572L15.9238 28.2643V27.8414L16.134 27.9457L16.3418 28.0529L15.9238 28.3686C15.6435 28.5801 15.5033 28.7887 15.5033 29.0002V29.3159H15.7135C15.8537 29.3159 16.0276 29.0707 16.2378 28.5801C16.5001 28.0287 16.9029 27.5863 17.3904 27.3142C17.951 26.9646 18.1258 26.5783 17.9148 26.1554C17.8153 25.9881 17.7535 25.7942 17.7354 25.5916C17.7172 25.389 17.7432 25.1844 17.8109 24.9967C17.951 24.6471 17.9147 24.4018 17.7069 24.2608C17.6174 24.2159 17.5403 24.1428 17.4844 24.0497C17.4285 23.9566 17.396 23.8471 17.3904 23.7336C17.3904 23.5221 17.2503 23.384 16.9724 23.3135C16.6945 23.243 16.32 23.4545 15.8295 23.9479H15.8223ZM15.9286 23.8407L16.2427 24.0522L16.5569 24.2636H15.9286V23.8407ZM16.5569 25.1066L16.8709 25.2109L17.1875 25.3152L17.0812 25.5267C17.0512 25.5929 17.0058 25.6478 16.9502 25.6853C16.8946 25.7227 16.8312 25.741 16.7671 25.7382H16.5569V25.1151V25.1066ZM12.6764 26.3697C12.6425 26.5107 12.6063 26.6516 12.5724 26.7898L12.8866 26.6855L13.2007 26.5811L12.9904 26.2654L12.7827 25.9496C12.7537 26.0878 12.7222 26.2428 12.6836 26.3697H12.6764ZM14.2493 26.3697C14.5296 26.614 14.8091 26.8603 15.0878 27.1084L15.9286 27.8442L15.4043 27.7399C15.2251 27.7 15.0561 27.6126 14.9103 27.4846C14.7646 27.3565 14.6459 27.1911 14.5635 27.0012L14.2493 26.3697ZM16.1389 26.5811L16.5569 26.7898L16.9772 27.0012L16.5569 27.1084L16.1389 27.2127V26.5811ZM100.669 27.6328L100.038 28.2671H100.458V28.8987H101.087V29.4231C101.087 29.7764 101.402 30.3741 102.031 31.2162C102.808 32.3197 103.476 33.5206 104.025 34.7968C104.724 36.3418 105.213 37.1143 105.491 37.1143H105.912L105.702 37.4301C105.562 37.6387 105.803 38.446 106.427 39.8519C107.05 41.2578 107.364 42.2408 107.369 42.8009C107.369 43.3648 107.475 43.6777 107.685 43.7482L107.999 43.8554C107.963 43.9597 107.929 44.064 107.896 44.1711C107.826 44.3798 107.859 44.5207 107.999 44.5912C108.14 44.6617 108.21 45.1551 108.21 46.0658C108.21 46.9764 108.35 47.4754 108.628 47.5403C108.906 47.6051 109.048 47.8561 109.048 48.279V48.9105H110.935V47.9519C110.935 47.3176 110.831 46.9313 110.621 46.7932C110.356 46.5585 110.17 46.222 110.097 45.843C109.957 45.3525 109.957 45.0367 110.097 44.8957L110.307 44.6843C110.201 44.6166 110.097 44.5461 109.993 44.4756L109.676 44.2642L109.887 43.9484L110.097 43.6327L109.783 43.4212C109.572 43.2802 109.397 42.894 109.258 42.2624C109.12 41.6309 108.91 41.2446 108.628 41.1037C108.35 40.9627 108.244 40.6469 108.314 40.1564C108.35 39.9111 108.384 39.6658 108.42 39.4205H108.21C108.07 39.4205 107.929 39.0681 107.789 38.3661C107.649 37.6641 107.405 37.2778 107.064 37.2073L106.54 37.103L106.854 36.9959C107.064 36.9263 107.134 36.681 107.064 36.26C106.994 35.8371 106.854 35.5918 106.646 35.5214C106.439 35.4509 106.262 35.1351 106.122 34.5741C105.982 34.013 105.772 33.6972 105.491 33.6267L105.073 33.5196C105.107 33.3815 105.144 33.2376 105.177 33.0995C105.211 32.9613 105.247 32.8176 105.281 32.6794H105.073C104.933 32.6794 104.757 32.3608 104.549 31.7293C104.394 31.1846 104.101 30.7078 103.708 30.3619C103.36 30.08 103.184 29.798 103.184 29.5161V29.0932H102.976C102.836 29.0932 102.626 28.7774 102.345 28.1459C102.065 27.5144 101.821 27.1619 101.621 27.0943C101.42 27.0266 101.094 27.2127 100.673 27.6328H100.669ZM14.0392 27.8442H14.6698V28.0557C14.6698 28.1967 14.4281 28.4053 13.9449 28.6872L13.22 29.1073C13.2563 29.003 13.2901 28.8987 13.3263 28.7915C13.3564 28.6925 13.4137 28.6078 13.4893 28.5507C13.5649 28.4936 13.6546 28.4673 13.7443 28.4758H14.0584V27.8442H14.0392ZM12.0481 28.69L11.9418 28.9015H12.5724L12.3622 28.69L12.1521 28.4786L12.0481 28.69ZM9.52558 32.7048L9.42164 32.9134H10.2601V32.4934H9.94594C9.86904 32.4819 9.79093 32.494 9.7193 32.5286C9.64767 32.5633 9.58502 32.6191 9.53761 32.6907L9.52558 32.7048ZM10.8884 32.9134H11.0985L10.8884 33.3363L10.6781 33.7564L10.9947 33.8636L11.3087 33.9679L11.2024 34.1793L11.0985 34.388L10.7844 34.1793C10.6803 34.105 10.602 33.99 10.5636 33.8548C10.5251 33.7196 10.5289 33.5729 10.5742 33.4407C10.6563 33.077 10.7603 32.8993 10.9004 32.8993L10.8884 32.9134ZM10.0499 34.6051L10.2601 34.7094C10.4003 34.7799 10.4341 35.0618 10.3641 35.5552C10.294 36.0486 10.0161 36.2939 9.52558 36.2939H8.80071V35.871H9.33952C9.49481 35.8842 9.64823 35.8252 9.76638 35.7069C9.88453 35.5886 9.95778 35.4205 9.97013 35.2394C9.99187 35.0054 10.0282 34.7968 10.0644 34.5853L10.0499 34.6051ZM7.00787 37.6584L6.69369 37.977L7.32442 37.8699C7.74242 37.7994 7.95254 37.6951 7.95254 37.5541V37.3427H7.64815C7.41526 37.3511 7.19254 37.4561 7.01991 37.6387L7.00787 37.6584ZM8.3827 38.6085H8.80071V39.1329C8.80071 39.4854 8.52037 39.6968 7.96222 39.7673L7.12385 39.8716V39.0258L7.75209 39.1301L8.3827 39.2373V38.6057V38.6085ZM7.33409 40.0831V40.7146H6.92328L7.13352 40.3988L7.33409 40.0831ZM3.03311 51.775C3.06694 52.0203 3.10322 52.2655 3.13705 52.5108L2.82287 52.4065L2.5088 52.2994C2.47256 52.4065 2.43869 52.5108 2.40486 52.6151C2.37103 52.7195 2.33481 52.8266 2.29856 52.9309V52.2994H2.0908C1.93396 52.3077 1.7852 52.3829 1.67279 52.5108C1.53265 52.6518 1.56652 53.0014 1.77673 53.5653C1.98695 54.1291 1.88056 54.5126 1.46255 54.724L0.831946 55.0398L1.14849 55.3556L1.46255 55.6713L1.14849 55.8828C0.938274 56.0209 0.906877 56.3367 1.04219 56.8301C1.1775 57.3235 1.14846 57.6026 0.938246 57.6759L0.624182 57.7802C0.694253 57.955 0.764291 58.1298 0.831946 58.3074C0.971706 58.7126 0.971706 59.1652 0.831946 59.5705C0.764291 59.8158 0.694253 60.0611 0.624182 60.3092H1.25231L1.04219 61.3608L0.831946 62.4152L1.14849 62.3081L1.46255 62.2038V62.4152C1.46255 62.5562 1.2886 62.6972 0.938246 62.8353L0.41394 63.0468L0.831946 63.4669L1.25231 63.8898L0.831946 64.3098L0.41394 64.7327L0.831946 65.1528C1.11223 65.4348 1.14846 65.7167 0.938246 65.9986L0.624182 66.4187L1.67279 66.3144C2.37028 66.2449 2.71979 66.0691 2.7214 65.7872V65.3671H2.30104L2.51128 65.1557C2.65142 65.0147 2.65142 64.4198 2.51128 63.3654L2.30104 61.7865L2.51128 61.8908L2.7214 61.9952L2.82534 61.6794C2.91389 61.3023 2.94977 60.911 2.93165 60.5206V59.6748H2.30104V59.4662C2.30104 59.3252 2.40731 59.2209 2.6151 59.1504C2.8229 59.0799 2.89542 58.9023 2.82534 58.6232C2.78986 58.4899 2.79106 58.3469 2.82877 58.2145C2.86647 58.082 2.93881 57.9666 3.03559 57.8845C3.2466 57.6759 3.42136 57.1496 3.55989 56.3057C3.69842 55.4617 3.69842 54.865 3.55989 54.5154C3.41975 54.163 3.48985 53.9177 3.77013 53.7767C4.05042 53.6357 4.18814 53.2523 4.18814 52.618C4.18814 51.9836 3.98032 51.5663 3.55989 51.3549L2.93165 51.0391L3.03311 51.775ZM1.8782 51.5635V51.8793L2.29856 51.775L2.71904 51.6678L2.29856 51.4564L1.8782 51.2477V51.5635ZM2.29856 55.0398L2.40486 55.2484C2.43869 55.3189 2.47256 55.3894 2.5088 55.4599L2.19474 55.5642L1.8782 55.6713L2.08844 55.3556L2.29856 55.0398ZM2.5088 57.1458L2.71904 57.2502L2.92929 57.3573L2.61274 57.4616L2.29856 57.5659C2.33481 57.4954 2.36862 57.425 2.40486 57.3573C2.44111 57.2896 2.47504 57.1966 2.51128 57.1261L2.5088 57.1458ZM110.95 59.4633V59.672H110.322C109.901 59.672 109.657 59.8129 109.597 60.0949C109.536 60.3768 109.597 60.5516 109.807 60.6221L110.121 60.7264L109.807 61.1465L109.493 61.5694L110.121 61.4651L110.749 61.358V61.7809H110.435C110.323 61.7871 110.214 61.8297 110.122 61.9039C110.029 61.9781 109.956 62.081 109.911 62.201C109.842 62.3075 109.805 62.4371 109.805 62.5703C109.805 62.7035 109.842 62.8331 109.911 62.9396L110.121 63.2554L109.701 63.1483L109.282 63.044V63.7798C109.265 64.1808 109.337 64.5803 109.493 64.9386L109.701 65.3615L109.911 65.15L110.121 64.9386V65.7844L109.701 65.5757C109.569 65.506 109.426 65.47 109.281 65.47C109.137 65.47 108.994 65.506 108.862 65.5757L108.444 65.7844L108.862 66.523C109.142 67.0136 109.142 67.3999 108.862 67.6818C108.582 67.9637 108.512 68.209 108.652 68.4176L108.862 68.7334H108.024V69.1563L108.444 69.0492L108.862 68.9449V69.1563C108.862 69.2973 108.688 69.4016 108.338 69.4721L107.813 69.5764L108.024 70.1036L108.234 70.6308H108.024C107.883 70.6308 107.782 70.8395 107.71 71.2624C107.673 71.4739 107.64 71.6825 107.603 71.8939L107.289 71.7896C107.202 71.7514 107.107 71.741 107.015 71.7593C106.923 71.7776 106.837 71.8241 106.765 71.8939L106.555 72.1054L106.869 72.4212L107.185 72.7369L106.869 72.8412C106.765 72.8773 106.671 72.9453 106.598 73.0381C106.524 73.1308 106.474 73.2449 106.451 73.3685C106.417 73.5062 106.349 73.6295 106.256 73.7231C106.163 73.8167 106.048 73.8767 105.926 73.8957L105.506 74L106.03 74.4229L106.555 74.843L106.03 75.0544L105.506 75.2659L105.716 75.686C105.856 75.9679 105.716 76.2498 105.296 76.5318C104.875 76.8137 104.701 77.1295 104.771 77.4791C104.808 77.6539 104.841 77.8315 104.878 78.0063H104.457C104.329 77.9997 104.203 78.0506 104.106 78.1486C104.008 78.2466 103.946 78.3842 103.933 78.5335C103.863 78.8831 103.899 79.0974 104.039 79.165L104.247 79.2693L103.829 79.4808C103.549 79.6218 103.409 79.7966 103.409 80.008V80.3238H104.247C104.808 80.3238 105.158 80.2167 105.296 80.008C105.37 79.9023 105.47 79.8254 105.583 79.7877C105.696 79.7499 105.815 79.753 105.926 79.7966C106.207 79.868 106.661 79.4113 107.289 78.4264C107.92 77.4452 108.198 76.8109 108.128 76.5318C108.058 76.2526 108.164 76.0384 108.444 75.9002C108.724 75.7621 109.036 75.0911 109.386 73.8985C109.737 72.7059 109.87 72.0011 109.807 71.7924C109.744 71.5838 109.841 71.2652 110.121 70.8423C110.401 70.4194 110.471 70.0359 110.331 69.6863L110.121 69.1591H110.331C110.471 69.1591 110.612 68.9815 110.749 68.6319C110.887 68.2823 110.819 67.8932 110.541 67.4732L110.121 66.8416L110.749 66.4187L111.38 65.9986L111.17 65.7872C111.029 65.6462 111.029 65.4714 111.17 65.26L111.38 64.9442L110.959 64.7356L110.541 64.5241L110.749 64.3127L110.959 64.1012L111.17 64.3127L111.38 64.5241L111.484 64.2084C111.52 64.1012 111.554 63.9969 111.59 63.8926L111.274 63.7854C111.066 63.7178 110.926 63.7516 110.856 63.8926C110.819 63.9631 110.785 64.0336 110.749 64.1012V63.5768C110.749 63.2244 110.681 63.0129 110.541 62.9453L110.331 62.8381L110.541 62.6267L110.749 62.4181L110.856 62.8381L110.959 63.2611L111.274 63.1539L111.59 63.0496L111.274 62.8381C111.185 62.7926 111.108 62.7192 111.053 62.6262C110.997 62.5331 110.965 62.4241 110.959 62.3109V61.9952L111.38 62.3109L111.788 62.6126V61.981C111.798 61.7911 111.751 61.603 111.656 61.4488C111.56 61.2946 111.422 61.1838 111.264 61.1352L110.74 60.9266H111.264C111.613 60.9266 111.824 60.8561 111.894 60.7152L111.998 60.5037H111.37L111.474 59.8722C111.51 59.6607 111.544 59.4521 111.58 59.2406H110.95V59.4633ZM110.322 60.3092L110.425 60.5178L110.532 60.7292H110.111L110.215 60.5178L110.322 60.3092ZM109.901 68.1019H110.532V68.5248L110.215 68.3133L109.901 68.1019ZM108.642 71.4739H109.063L108.959 71.6825L108.852 71.8939L108.749 71.6825L108.642 71.4739ZM107.383 72.7369L107.594 72.9484L107.804 73.157H107.176L107.279 72.9484C107.318 72.8553 107.352 72.7848 107.386 72.7143L107.383 72.7369ZM2.92929 76.2132C2.78914 76.4218 2.99846 77.1586 3.55741 78.4235C4.11637 79.6885 4.3258 80.4263 4.18566 80.6368L3.9779 80.9525L4.3959 81.0569C4.67619 81.1273 4.87912 81.4093 5.02651 81.9027C5.1739 82.396 5.3406 82.6752 5.55081 82.7485C5.76103 82.8218 5.82877 82.9938 5.7587 83.2757C5.68862 83.5576 5.79495 83.7663 6.07524 83.9072L6.49324 84.1187L6.3893 84.3273C6.31842 84.4683 6.56005 84.9955 7.11417 85.909C7.6683 86.8224 8.29734 87.3139 9.00127 87.3835L10.0499 87.4878L9.73582 87.8036C9.63213 87.9077 9.55001 88.0379 9.49561 88.1844C9.44121 88.3309 9.41587 88.4899 9.42164 88.6494C9.43671 89.0612 9.54517 89.4611 9.73582 89.8081C9.94603 90.2282 10.1539 90.4763 10.3641 90.5468C10.4781 90.5951 10.578 90.68 10.6524 90.7917C10.7268 90.9035 10.7726 91.0375 10.7844 91.1783C10.8545 91.5279 10.9946 91.7028 11.2024 91.7028C11.4102 91.7028 11.5891 91.8804 11.7292 92.23C11.7932 92.3991 11.8935 92.5462 12.0205 92.6568C12.1475 92.7674 12.2969 92.838 12.4541 92.8615C12.7148 92.8948 12.9642 93.0044 13.179 93.1801L13.3891 93.3887L13.179 93.4959L12.9687 93.6002L13.075 93.8116C13.1451 93.9498 13.3553 93.9864 13.7033 93.916L14.2276 93.8116V94.4432C14.2276 94.8642 14.5071 95.2504 15.0661 95.6019C15.5561 95.8674 15.9924 96.2508 16.3466 96.7268C16.6269 97.146 17.1512 97.5322 17.9195 97.8856L19.0746 98.41L19.3886 97.4627C19.598 96.8312 19.458 96.4101 18.9683 96.1996C18.4786 95.9891 17.8495 95.4252 17.0812 94.508C16.3128 93.5945 15.7184 93.0683 15.298 92.9292C14.7918 92.7285 14.3275 92.4057 13.9352 91.9819C13.452 91.4885 13.1668 91.0684 13.0967 90.716C13.0267 90.3636 12.4662 89.6982 11.4175 88.7142C10.3689 87.7303 9.84448 87.0649 9.84448 86.7153V86.1881H9.00611V85.6609C9.01423 85.5871 9.00978 85.5123 8.99301 85.4406C8.97625 85.3689 8.94749 85.3018 8.90842 85.2431C8.86935 85.1844 8.8207 85.1353 8.76531 85.0986C8.70992 85.0619 8.64884 85.0384 8.58563 85.0293C8.30776 84.9588 8.13139 84.6064 8.06132 83.9749C7.99125 83.3433 7.85353 83.0276 7.64332 83.0276C7.4331 83.0276 7.29302 82.8528 7.22295 82.5004C7.15288 82.1479 7.04891 81.9731 6.90877 81.9731H6.69853V81.3416C6.69853 80.9206 6.38369 80.1133 5.75386 78.9198C5.12402 77.7262 4.84449 77.0242 4.91537 76.8137C4.98544 76.6022 4.91534 76.3908 4.70513 76.1822C4.43365 75.9484 4.09922 75.8363 3.76282 75.8664C3.34964 75.8636 3.06937 75.9792 2.93165 76.1906L2.92929 76.2132ZM102.353 80.6198L102.143 80.9356L102.563 80.8313L102.983 80.7242L102.877 81.4628C102.807 81.9534 102.635 82.1987 102.353 82.1987C102.234 82.1893 102.115 82.2131 102.006 82.268C101.897 82.3229 101.8 82.4074 101.725 82.5144C101.584 82.7259 101.654 82.9712 101.932 83.2531L102.353 83.6732L102.457 83.4646C102.527 83.3236 102.667 83.2869 102.877 83.3574C103.087 83.4279 103.157 83.6027 103.087 83.8846C103.017 84.1666 103.121 84.3752 103.401 84.5162L103.822 84.7276C103.786 84.5528 103.752 84.3752 103.715 84.2004C103.646 83.8489 103.786 83.6037 104.136 83.4646C104.532 83.2784 104.864 82.9443 105.081 82.5144C105.359 82.0239 105.465 81.6376 105.395 81.3557C105.359 81.2175 105.325 81.0738 105.288 80.9356L105.605 81.0399L105.919 81.1471C105.953 81.0061 105.989 80.8651 106.023 80.7242L106.129 80.3041L105.709 80.5127C105.303 80.6678 104.871 80.7046 104.45 80.6198L103.612 80.5127V80.9356H103.191V80.3041H102.877C102.777 80.3049 102.678 80.3335 102.589 80.3874C102.5 80.4413 102.423 80.519 102.365 80.6142L102.353 80.6198ZM103.715 81.6715L104.032 81.7786L103.401 82.1987L102.773 82.6216C102.877 82.444 102.983 82.2692 103.087 82.0944C103.298 81.7363 103.508 81.5953 103.715 81.6658V81.6715ZM104.032 82.4101L104.136 82.6216L104.24 82.8302H103.815L103.919 82.6216L104.032 82.4101ZM94.0675 90.8372C94.1376 90.9753 94.0675 91.153 93.8572 91.3616C93.647 91.5702 93.2991 91.6097 92.8086 91.4687L92.0838 91.2573V91.4687C92.0838 91.6097 92.364 91.7845 92.9246 91.9959C93.4852 92.2074 93.7268 92.4499 93.6495 92.7318C93.6157 92.8728 93.5818 93.0137 93.5455 93.1547L93.1251 92.8361C92.8472 92.6275 92.4268 92.5908 91.8687 92.7318C91.3105 92.8728 90.9578 93.0137 90.8201 93.1547C90.6824 93.2957 90.6098 93.6086 90.6098 94.102V94.8379L89.9792 94.6293C89.562 94.4883 89.1077 94.6631 88.6164 95.1537C88.1332 95.647 87.7418 95.9262 87.4639 95.9995C87.3591 96.041 87.2475 96.0532 87.1379 96.035C87.0284 96.0169 86.924 95.969 86.8333 95.8951L86.623 95.6837L87.0434 96.2109L87.4639 96.7381L87.0434 96.9468C86.7401 97.0881 86.402 97.0881 86.0987 96.9468L85.5743 96.7381V97.1582H86.205L85.9948 97.3697C85.8546 97.5106 85.5743 97.474 85.1563 97.2654L84.5257 96.9468V97.2654C84.5257 97.474 84.632 97.615 84.8422 97.6854L85.1563 97.7897L84.1077 98.317C83.407 98.6694 82.9528 98.8075 82.7425 98.7399L82.4285 98.6327L82.6386 98.8442C82.7787 98.9852 82.7787 99.16 82.6386 99.3714L82.4285 99.6872L83.0591 100.003C83.4771 100.214 83.7573 100.214 83.8974 100.003C83.9525 99.9051 84.034 99.8312 84.1288 99.793C84.2237 99.7547 84.3267 99.7542 84.4219 99.7915L84.7359 99.8958L84.632 99.6872L84.5257 99.4757H84.8422C85.05 99.4757 85.1902 99.721 85.2602 100.214C85.3303 100.708 85.4342 100.987 85.5743 101.06C85.7144 101.134 85.9948 100.922 86.4153 100.429C86.572 100.214 86.7638 100.039 86.9796 99.9124C87.1954 99.786 87.4307 99.7113 87.6716 99.6928C88.0921 99.6928 88.3361 99.5518 88.3965 99.2699C88.4569 98.988 88.7469 98.7794 89.235 98.6384C89.6571 98.5364 90.0527 98.3201 90.3899 98.0068L90.8104 97.5868L90.6002 97.4796L90.3899 97.3753L90.4939 97.1639L90.6002 96.9524L90.9142 97.1639C91.1236 97.3048 91.4386 97.1291 91.859 96.6366C92.2794 96.1442 92.629 95.8989 92.9076 95.9008H93.3256L93.2218 95.585C93.1856 95.4779 93.1517 95.3735 93.1155 95.2692L93.7461 95.1621C93.9211 95.1522 94.0908 95.0887 94.238 94.9778C94.3852 94.8669 94.5047 94.7126 94.5845 94.5306C94.6495 94.3622 94.7501 94.2159 94.877 94.1054C95.0038 93.9949 95.1525 93.9239 95.3093 93.899C95.6336 93.845 95.9309 93.6581 96.1478 93.3718C96.3581 93.0899 96.3242 92.7403 96.0439 92.3202C95.9053 92.111 95.7312 91.9374 95.5325 91.8103C95.3337 91.6833 95.1147 91.6054 94.889 91.5815L94.1641 91.4772L94.4782 91.1614L94.7924 90.8457L94.3719 90.7385L93.9539 90.6342L94.0675 90.8372ZM90.7113 92.4217L90.3972 92.7374L90.8176 92.6331C91.0208 92.6111 91.2088 92.4979 91.3419 92.3174L91.4458 92.1059H91.2356C91.0365 92.136 90.8519 92.2433 90.7113 92.4104V92.4217ZM94.3816 92.8418L94.5918 92.9489L94.2776 93.2647L93.9635 93.5804C93.9273 93.4761 93.8935 93.369 93.8572 93.2647C93.7872 93.0532 93.8234 92.9122 93.9635 92.8418C94.0302 92.8049 94.1027 92.7849 94.1764 92.7829C94.2501 92.781 94.3233 92.7972 94.3912 92.8305L94.3816 92.8418ZM92.2842 93.5833L92.8086 94.1105L93.3329 94.6377L92.6081 94.3191L91.8832 94.0033L92.091 93.7947L92.2842 93.5833ZM91.2356 95.2692L91.4458 95.4779L91.6561 95.6893H91.0254L91.1317 95.4779L91.2356 95.2692ZM88.0897 96.3209L88.5101 96.6366L88.9281 96.9524H88.0897V96.3209ZM89.5587 96.3209L89.8728 96.5323L90.187 96.7438H89.5587V96.3209ZM87.041 97.5868L87.4614 98.0068L87.8794 98.4269H85.1539C85.1878 98.3226 85.2241 98.2183 85.2579 98.1112C85.3279 97.9025 85.6082 97.8292 86.0963 97.9025C86.5843 97.9758 86.867 97.9364 86.9371 97.7954L87.041 97.5868ZM82.6362 98.2183V98.4269L82.9503 98.3226L83.2645 98.2183L82.9503 98.1112L82.6362 98.0068V98.2183ZM84.7335 98.8498H85.9924V99.2643H85.468C85.1177 99.2643 84.9075 99.1938 84.8399 99.0556L84.7335 98.8498ZM85.9924 99.6956L86.0963 99.9043L86.2026 100.116L85.8885 100.223L85.5719 100.327L85.7822 100.011L85.9924 99.6956ZM83.6848 101.063L83.4746 101.59L83.8951 101.697L84.3131 101.802V100.539H84.1053C83.9652 100.527 83.825 100.696 83.6848 101.046V101.063ZM27.8914 102.222C27.768 102.273 27.6566 102.357 27.5656 102.467C27.4747 102.577 27.4067 102.71 27.3671 102.856C27.2962 103.134 27.5056 103.38 27.9953 103.592L28.7202 103.908C28.7564 103.733 28.7903 103.558 28.8241 103.381C28.8598 103.215 28.8594 103.042 28.8231 102.876C28.7868 102.711 28.7157 102.558 28.6162 102.433C28.537 102.303 28.4214 102.209 28.2891 102.167C28.1568 102.125 28.0161 102.139 27.8914 102.205V102.222ZM72.4638 102.96L72.1498 103.065C72.2174 103.206 72.2875 103.347 72.3575 103.488L72.5678 103.908L72.1498 103.696L71.7293 103.488C71.7631 103.592 71.7994 103.696 71.8332 103.803L71.9395 104.119L71.6254 104.224C71.3891 104.298 71.1452 104.334 70.9005 104.331H70.4704C70.5067 104.19 70.5406 104.049 70.5744 103.908C70.6082 103.767 70.6444 103.626 70.6807 103.488V103.908H69.8422C69.3391 103.895 68.8392 104.002 68.3731 104.224C67.9527 104.435 67.745 104.61 67.745 104.751V104.962L67.4284 104.751C67.3358 104.683 67.232 104.639 67.1238 104.621C67.0156 104.603 66.9053 104.612 66.8002 104.646L66.486 104.751L66.5899 104.962L66.6962 105.171L66.2759 105.067L65.8554 104.962L65.9617 105.278C65.9955 105.382 66.0318 105.487 66.0656 105.594L65.7516 105.382C65.6396 105.314 65.5153 105.279 65.3891 105.279C65.263 105.279 65.1386 105.314 65.0267 105.382C64.6206 105.536 64.1884 105.572 63.7677 105.487L62.9294 105.382L63.1396 105.909L63.3497 106.437L62.9294 106.121L62.5089 105.805V106.651L61.9846 106.231C61.6366 105.949 60.2038 105.949 57.6861 106.231C55.1683 106.513 53.8048 107.215 53.5954 108.337C53.4915 108.901 53.3852 109.465 53.2813 110.029L53.6993 109.924C53.9795 109.854 54.1197 109.676 54.1197 109.397V108.974L54.33 109.186C54.3962 109.246 54.4426 109.332 54.4615 109.428C54.4804 109.524 54.4706 109.624 54.4338 109.713L54.33 110.029L54.748 109.924C54.8697 109.905 54.984 109.845 55.077 109.751C55.1701 109.658 55.2379 109.535 55.2723 109.397C55.3085 109.256 55.3424 109.115 55.3786 108.974L55.7966 109.397C56.0769 109.675 56.4264 109.675 56.8452 109.397C57.2656 109.115 57.5459 109.011 57.6861 109.081C57.8262 109.152 57.8601 109.29 57.79 109.501L57.6861 109.817L58.0002 109.606C58.261 109.459 58.5572 109.422 58.8386 109.501C59.0226 109.534 59.2104 109.522 59.3905 109.468C59.5707 109.414 59.7396 109.318 59.8873 109.186C60.0891 109.041 60.3147 108.947 60.5494 108.911C60.7842 108.875 61.0228 108.896 61.25 108.974C61.8106 109.115 62.161 109.08 62.3011 108.87L62.5089 108.554L62.7191 108.766L62.9294 108.974L63.1396 108.343L63.3497 107.711L62.8254 107.607L62.3011 107.5C62.2649 107.677 62.2311 107.852 62.1948 108.027C62.1586 108.202 62.1247 108.379 62.0909 108.554L61.7768 108.238L61.4603 107.923L61.6705 108.027L61.8807 108.131L62.0909 107.607C62.231 107.254 62.5089 107.113 62.9294 107.184L63.5576 107.291V106.868H64.3984L64.0819 106.657C63.9932 106.612 63.9168 106.539 63.8614 106.446C63.806 106.354 63.7735 106.245 63.7677 106.132V105.816L64.3984 106.237C64.6509 106.441 64.936 106.584 65.2368 106.657H65.4471L65.2368 106.341L65.0267 106.025L65.3408 105.921C65.5102 105.85 65.6956 105.85 65.8651 105.921C66.0052 105.991 66.0414 106.132 65.9714 106.341C65.9351 106.448 65.9013 106.552 65.8651 106.657H66.9137C66.8436 106.798 66.7736 106.939 66.7059 107.08L66.4957 107.5H67.0201C67.3678 107.5 67.7034 107.35 67.9624 107.08L68.3828 106.657L67.6579 105.921L66.933 105.182L67.3535 105.394L67.7739 105.605L67.9818 105.182L68.1919 104.762L68.8226 105.078L69.4507 105.394V104.548H71.1301C72.2464 104.548 72.877 104.443 73.0172 104.232C73.0873 104.106 73.1248 103.959 73.1248 103.809C73.1248 103.659 73.0873 103.512 73.0172 103.386C72.848 103.014 72.674 102.873 72.4638 102.944V102.96ZM29.3581 103.806C29.2204 104.052 29.0802 104.297 28.9401 104.542L29.8848 104.438L30.8272 104.333V104.542C30.8272 104.683 31.0374 104.787 31.4578 104.858C31.8782 104.928 32.0861 105.106 32.0861 105.385V105.808H32.7143C33.1347 105.808 33.415 105.946 33.5551 106.228C33.6953 106.51 34.0094 106.648 34.4975 106.648H35.2223C35.1885 106.544 35.1522 106.44 35.1184 106.332C35.0846 106.225 35.0483 106.124 35.0121 106.017H35.4349C35.7152 106.017 35.9593 106.228 36.1598 106.648C36.3604 107.068 36.544 107.283 36.6841 107.283H36.8944L36.6841 106.755C36.544 106.403 36.544 106.191 36.6841 106.124L36.8944 106.017C36.9282 106.124 36.9645 106.228 36.9983 106.332C37.0321 106.437 37.0683 106.544 37.1021 106.648L37.4187 106.44C37.6265 106.299 37.6603 106.087 37.5226 105.808L37.3124 105.385L36.6841 105.701L36.0535 106.017L36.4739 105.597L36.8944 105.174L36.6841 104.965C36.6096 104.896 36.5172 104.858 36.422 104.858C36.3267 104.858 36.2343 104.896 36.1598 104.965L35.8457 105.174C35.8095 105.069 35.7756 104.965 35.7393 104.858C35.6693 104.649 35.3552 104.542 34.797 104.542H33.9852V104.226C33.9852 104.015 33.502 103.877 32.5186 103.806C31.5352 103.736 31.0132 103.595 30.9455 103.383C30.8779 103.172 30.6653 103.068 30.3149 103.068C29.9646 103.068 29.636 103.293 29.3581 103.775V103.806ZM30.8272 103.911L31.1413 104.122L31.4578 104.333H30.8272V103.911ZM35.4421 104.965L35.5461 105.174L35.6524 105.385H35.232L35.3383 105.174L35.4421 104.965ZM71.9395 105.385L71.7293 105.808H72.5678L72.3575 105.385C72.2875 105.244 72.2174 105.103 72.1498 104.965L71.9395 105.385ZM31.0373 105.385L30.8272 105.597H31.4578L31.3515 105.385L31.2476 105.174L31.0373 105.385ZM73.0921 105.489L72.9881 105.808H73.8266V105.174H73.5124C73.4247 105.163 73.3364 105.186 73.2607 105.239C73.185 105.292 73.1259 105.372 73.0921 105.467V105.489ZM70.6807 105.912V106.228H69.8422L70.6807 106.44C71.2388 106.58 71.5553 106.544 71.6254 106.332C71.6954 106.121 71.5553 105.946 71.205 105.808L70.6807 105.597V105.912ZM38.0638 106.332C38.1 106.51 38.1339 106.685 38.1677 106.86H37.5395L37.7497 107.175C37.8899 107.387 38.2329 107.387 38.7983 107.175L39.6368 106.86L39.4266 106.648C39.3516 106.58 39.2593 106.543 39.1644 106.543C39.0695 106.543 38.9773 106.58 38.9023 106.648L38.5881 106.86L38.7983 106.332L39.0086 105.808H37.96L38.0638 106.332ZM40.2674 106.228C40.5453 106.51 40.6516 106.719 40.5815 106.86C40.5114 107.001 40.3713 107.034 40.1611 106.967L39.8469 106.86L40.1611 107.387C40.3713 107.736 40.5453 107.914 40.6854 107.914H40.8957L40.6854 107.598L40.4752 107.283L40.7917 107.071C40.8843 107.003 40.9881 106.959 41.0963 106.941C41.2046 106.923 41.3148 106.932 41.42 106.967L41.734 107.071L41.5239 107.283L41.316 107.491C41.4538 107.598 41.5939 107.703 41.734 107.807L42.1545 108.123V106.431L42.4686 107.483C42.5725 107.835 42.6789 108.185 42.7828 108.537L43.4134 107.906C43.8306 107.483 44.04 107.096 44.0416 106.747V106.22L43.6236 106.535C43.496 106.638 43.3408 106.685 43.1865 106.666C43.0322 106.646 42.8889 106.563 42.7828 106.431C42.5049 106.149 42.0579 106.079 41.42 106.22C40.7821 106.361 40.3713 106.324 40.1611 106.115L39.8469 105.8L40.2674 106.228ZM68.8975 106.755L68.5833 107.071L68.8975 106.967L69.2116 106.86C69.2478 106.967 69.2816 107.071 69.3179 107.175L69.4218 107.491L69.5257 106.967C69.5619 106.789 69.5957 106.614 69.632 106.44H69.4218C69.2237 106.467 69.0392 106.572 68.8975 106.736V106.755ZM61.0326 107.491L61.3468 107.598L61.6608 107.703L61.4506 107.807L61.2403 107.914C61.2065 107.844 61.1728 107.773 61.1365 107.703L61.0326 107.491ZM65.1208 108.018L65.2271 108.334L65.5413 108.23L65.8554 108.123L65.4374 107.914L65.017 107.703C65.0533 107.787 65.087 107.894 65.1208 108.004V108.018ZM63.7582 108.334L63.5479 108.757H64.8068L64.3888 108.334L63.9683 107.914L63.7582 108.334ZM59.3534 108.123L59.7737 108.334L60.1917 108.546L59.7737 108.65L59.3534 108.757V108.123ZM56.5215 108.546H56.8355C56.8017 108.65 56.768 108.757 56.7317 108.861L56.6278 109.177L56.3112 109.073L55.9972 108.966L56.1035 108.757C56.1479 108.677 56.2105 108.613 56.2843 108.572C56.3582 108.531 56.4403 108.515 56.5215 108.526V108.546Z" fill="#839CB5"/>
</g>
<g clip-path="url(#clip1_1762_1230)">
<path fill-rule="evenodd" clip-rule="evenodd" d="M39.875 72.375C39.375 72.375 39 72 39 71.5V50.75C39 50.25 39.375 49.875 39.875 49.875C40.375 49.875 40.75 50.25 40.75 50.75V71.5C40.75 72 40.375 72.375 39.875 72.375ZM33.375 72.375C32.875 72.375 32.5 72 32.5 71.5V50.75C32.5 50.25 32.875 49.875 33.375 49.875C33.875 49.875 34.25 50.25 34.25 50.75V71.5C34.25 72 33.875 72.375 33.375 72.375Z" fill="black"/>
<path fill-rule="evenodd" clip-rule="evenodd" d="M41.25 78.125C40.75 78.125 40.375 77.75 40.375 77.25V72.375H32.875V77.25C32.875 77.75 32.5 78.125 32 78.125C31.5 78.125 31.125 77.75 31.125 77.25V71.5C31.125 71 31.5 70.625 32 70.625H41.25C41.75 70.625 42.125 71 42.125 71.5V77.25C42.125 77.75 41.75 78.125 41.25 78.125Z" fill="black"/>
<path fill-rule="evenodd" clip-rule="evenodd" d="M41.25 51.625H32C31.5 51.625 31.125 51.25 31.125 50.75V44.875C31.125 44.375 31.5 44 32 44C32.5 44 32.875 44.375 32.875 44.875V49.875H40.375V44.875C40.375 44.375 40.75 44 41.25 44C41.75 44 42.125 44.375 42.125 44.875V50.75C42.125 51.25 41.75 51.625 41.25 51.625Z" fill="black"/>
<path fill-rule="evenodd" clip-rule="evenodd" d="M80 51.625H70.75C70.25 51.625 69.875 51.25 69.875 50.75V44.875C69.875 44.375 70.25 44 70.75 44C71.25 44 71.625 44.375 71.625 44.875V49.875H79.125V44.875C79.125 44.375 79.5 44 80 44C80.5 44 80.875 44.375 80.875 44.875V50.75C80.875 51.25 80.5 51.625 80 51.625Z" fill="black"/>
<path fill-rule="evenodd" clip-rule="evenodd" d="M78.625 72.375C78.125 72.375 77.75 72 77.75 71.5V50.75C77.75 50.25 78.125 49.875 78.625 49.875C79.125 49.875 79.5 50.25 79.5 50.75V71.5C79.5 72 79.125 72.375 78.625 72.375ZM72.125 72.375C71.625 72.375 71.25 72 71.25 71.5V50.75C71.25 50.25 71.625 49.875 72.125 49.875C72.625 49.875 73 50.25 73 50.75V71.5C73 72 72.625 72.375 72.125 72.375Z" fill="black"/>
<path fill-rule="evenodd" clip-rule="evenodd" d="M80 78.125C79.5 78.125 79.125 77.75 79.125 77.25V72.375H71.625V77.25C71.625 77.75 71.25 78.125 70.75 78.125C70.25 78.125 69.875 77.75 69.875 77.25V71.5C69.875 71 70.25 70.625 70.75 70.625H80C80.5 70.625 80.875 71 80.875 71.5V77.25C80.875 77.75 80.5 78.125 80 78.125Z" fill="black"/>
<path fill-rule="evenodd" clip-rule="evenodd" d="M83.375 82.75C82.875 82.75 82.5 82.375 82.5 81.875V79.5C82.5 78.75 81.875 78.125 81.125 78.125H30.875C30.125 78.125 29.5 78.75 29.5 79.5V81.875C29.5 82.375 29.125 82.75 28.625 82.75C28.125 82.75 27.75 82.375 27.75 81.875V79.5C27.75 77.75 29.125 76.375 30.875 76.375H81.125C82.875 76.375 84.25 77.75 84.25 79.5V81.875C84.25 82.375 83.875 82.75 83.375 82.75Z" fill="black"/>
<path fill-rule="evenodd" clip-rule="evenodd" d="M85.875 87H26.125C25.625 87 25.25 86.625 25.25 86.125V81.875C25.25 81.375 25.625 81 26.125 81H85.875C86.375 81 86.75 81.375 86.75 81.875V86.125C86.75 86.625 86.375 87 85.875 87ZM27 85.25H85V82.75H27V85.25Z" fill="black"/>
<path fill-rule="evenodd" clip-rule="evenodd" d="M83.375 45.75H28.625C28.125 45.75 27.75 45.375 27.75 44.875V42.625C27.75 40.875 29.125 39.375 30.875 39.375C31.375 39.375 31.75 39.75 31.75 40.25C31.75 40.75 31.375 41.125 30.875 41.125C30.125 41.125 29.5 41.875 29.5 42.625V44H82.5V42.625C82.5 41.875 81.875 41.125 81.125 41.125C80.625 41.125 80.25 40.75 80.25 40.25C80.25 39.75 80.625 39.375 81.125 39.375C82.875 39.375 84.25 40.875 84.25 42.625V44.875C84.25 45.375 83.875 45.75 83.375 45.75Z" fill="black"/>
<path fill-rule="evenodd" clip-rule="evenodd" d="M87.125 41.1256H24.875C24.375 41.1256 24 40.7506 24 40.2506V35.8756C24 35.5006 24.25 35.1256 24.625 35.0006L52.375 25.5006C52.75 25.3756 53.25 25.6256 53.5 26.1256C53.625 26.6256 53.375 27.0006 52.875 27.2506L25.75 36.5006V39.3756H86.25V36.5006L59.125 27.3756C58.625 27.1256 58.375 26.6256 58.5 26.2506C58.75 25.7506 59.25 25.5006 59.625 25.6256L87.375 35.0006C87.75 35.1256 88 35.5006 88 35.8756V40.2506C88 40.7506 87.625 41.1256 87.125 41.1256Z" fill="black"/>
<path fill-rule="evenodd" clip-rule="evenodd" d="M56.3758 73.375C54.5008 73.375 52.6258 72.75 51.1258 71.75C48.2508 69.5 47.3758 65.75 48.7508 61.25C50.3758 56.25 53.1258 53.25 56.3758 53.25C59.7508 53.25 62.6258 56.5 64.2508 62C65.3758 66.25 64.3758 69.75 61.3758 71.875C60.0008 72.875 58.1258 73.375 56.3758 73.375ZM56.3758 55C54.0008 55 51.7508 57.5 50.5008 61.75C49.2508 65.5 49.8758 68.5 52.2508 70.25C54.5008 72 58.0008 72 60.3758 70.375C62.7508 68.75 63.5008 66 62.5008 62.5C61.2508 57.875 58.8758 55 56.3758 55Z" fill="black"/>
<path fill-rule="evenodd" clip-rule="evenodd" d="M54.875 55.25C54.625 55.25 54.25 55.125 54.125 54.875L51 50.125C50.875 49.875 50.875 49.5 51 49.25C51.125 48.875 51.375 48.75 51.75 48.75H61.125C61.5 48.75 61.75 48.875 61.875 49.25C62 49.5 62 49.875 61.875 50.125L58.625 54.875C58.375 55.25 57.75 55.375 57.375 55.125C57 54.75 56.875 54.25 57.125 53.875L59.5 50.5H53.375L55.625 53.875C55.875 54.25 55.75 54.875 55.375 55.125C55.25 55.25 55 55.25 54.875 55.25Z" fill="black"/>
<path fill-rule="evenodd" clip-rule="evenodd" d="M56.375 67.875C54.875 67.875 53.625 66.625 53.625 65.125C53.625 64.625 54 64.25 54.5 64.25C55 64.25 55.375 64.625 55.375 65.125C55.375 65.625 55.875 66.125 56.375 66.125C56.875 66.125 57.375 65.625 57.375 65.125C57.375 64.625 56.875 64.125 56.375 64.125C54.875 64.125 53.625 62.875 53.625 61.375C53.625 59.875 54.875 58.625 56.375 58.625C57.875 58.625 59.125 59.875 59.125 61.375C59.125 61.875 58.75 62.25 58.25 62.25C57.75 62.25 57.375 61.875 57.375 61.375C57.375 60.875 56.875 60.375 56.375 60.375C55.875 60.375 55.375 60.875 55.375 61.375C55.375 61.875 55.875 62.375 56.375 62.375C57.875 62.375 59.125 63.625 59.125 65.125C59.125 66.625 57.875 67.875 56.375 67.875Z" fill="black"/>
<path fill-rule="evenodd" clip-rule="evenodd" d="M56.375 69C55.875 69 55.5 68.625 55.5 68.125V67C55.5 66.5 55.875 66.125 56.375 66.125C56.875 66.125 57.25 66.5 57.25 67V68.125C57.25 68.625 56.875 69 56.375 69Z" fill="black"/>
<path fill-rule="evenodd" clip-rule="evenodd" d="M56.375 60.375C55.875 60.375 55.5 60 55.5 59.5V58.375C55.5 57.875 55.875 57.5 56.375 57.5C56.875 57.5 57.25 57.875 57.25 58.375V59.5C57.25 60 56.875 60.375 56.375 60.375Z" fill="black"/>
<path fill-rule="evenodd" clip-rule="evenodd" d="M55.9996 38.25C55.7496 38.25 55.4996 38.125 55.3746 38L48.6246 31.25C48.3746 31 48.2496 30.625 48.4996 30.25C48.6246 30 48.8746 29.75 49.2496 29.75H51.7496V23.875C51.7496 23.375 52.1246 23 52.6246 23H59.3746C59.8746 23 60.2496 23.375 60.2496 23.875V29.75H62.7496C63.1246 29.75 63.3746 30 63.6246 30.25C63.7496 30.625 63.6246 31 63.3746 31.25L56.6246 38C56.4996 38.125 56.2496 38.25 55.9996 38.25ZM51.3746 31.5L55.9996 36.125L60.6246 31.5H59.3746C58.8746 31.5 58.4996 31.125 58.4996 30.625V24.75H53.4996V30.625C53.4996 31.125 53.1246 31.5 52.6246 31.5H51.3746Z" fill="black"/>
</g>
<defs>
<clipPath id="clip0_1762_1230">
<rect width="112" height="110" fill="white"/>
</clipPath>
<clipPath id="clip1_1762_1230">
<rect width="64" height="64" fill="white" transform="translate(24 23)"/>
</clipPath>
</defs>
</svg>
