<svg width="64" height="60" viewBox="0 0 64 60" fill="none" xmlns="http://www.w3.org/2000/svg">
<g clip-path="url(#clip0_1762_268)">
<path d="M29.816 0.406821C18.2992 -1.15395 6.81053 6.84857 2.24514 17.2632C-2.696 28.5197 0.873644 41.9613 9.30928 50.5125C27.909 69.3647 68.603 55.3367 63.5773 26.2306C60.7028 9.56337 44.6676 0.870324 29.1302 7.33676e-05C28.1533 -0.0566821 28.1533 1.47572 29.1302 1.52301C45.1467 2.33651 62.6285 12.5903 62.5158 30.6859C62.4031 48.7814 44.1415 59.2528 28.4069 57.9001C12.6723 56.5474 1.25879 43.6167 1.19303 28.3021C1.12728 12.4106 14.8328 1.32437 29.769 0.766272C29.9569 0.766272 30.032 0.435199 29.816 0.406821Z" fill="#34F3CA"/>
<path d="M6.9608 10.4335C10.8686 15.2861 15.7346 19.486 20.1685 23.8562C24.1796 27.8102 28.0217 32.3884 32.5871 35.6897C33.0568 36.0303 33.4419 35.3303 33.1507 34.9519C29.3932 30.0709 24.189 25.9845 19.7458 21.7279C15.6595 17.8117 11.7141 13.5362 7.20504 10.1119C7.00777 9.96057 6.82928 10.2633 6.9608 10.4335Z" fill="#34F3CA"/>
<path d="M34.2686 36.087C40.1303 27.2142 45.8887 17.9536 50.952 8.59844C51.3372 7.889 50.332 7.31199 49.8905 7.97413C43.9724 16.8185 38.4676 26.221 33.348 35.5478C33.0098 36.1532 33.8929 36.664 34.2686 36.087Z" fill="#34F3CA"/>
<path d="M33.4138 35.141C29.8535 37.3261 27.1387 41.4314 24.377 44.553C21.6152 47.6745 18.177 50.9285 15.8192 54.5703C15.5374 55.0054 16.1386 55.3838 16.4862 55.0906C19.9431 52.1866 22.7894 48.2799 25.7766 44.8746C28.3975 41.8949 31.8826 38.8963 33.5453 35.264C33.5829 35.1883 33.5077 35.0843 33.4232 35.141H33.4138Z" fill="#34F3CA"/>
<path d="M32.5401 34.564C31.9765 42.3679 32.2583 50.5501 32.6904 58.3635C32.728 59.0918 33.7989 59.1013 33.8177 58.3635C33.9962 50.5407 34.015 42.349 33.2071 34.564C33.1601 34.1384 32.5777 34.1289 32.5495 34.564H32.5401Z" fill="#34F3CA"/>
<path d="M18.0265 53.0098C18.5056 53.8706 19.0599 54.6935 19.5953 55.5165C20.018 56.1597 20.4032 57.0489 21.0889 57.4272C21.211 57.4935 21.4083 57.4178 21.3895 57.2475C21.305 56.4056 20.6098 55.6773 20.1495 54.9962C19.6141 54.2016 19.0787 53.3976 18.4962 52.6409C18.2802 52.3665 17.8669 52.7165 18.0265 53.0098Z" fill="#34F3CA"/>
<path d="M19.6423 51.3921C20.159 52.7921 20.9668 54.0691 21.6995 55.3745C22.4323 56.6799 23.0523 58.0893 24.0198 59.2055C24.1701 59.3757 24.4707 59.196 24.405 58.9785C23.9447 57.569 23.0523 56.292 22.3195 55.0056C21.5868 53.7191 20.9105 52.357 19.9805 51.1935C19.8584 51.0421 19.5859 51.203 19.6517 51.3921H19.6423Z" fill="#34F3CA"/>
<path d="M21.0045 49.6705C22.7142 52.7258 24.2642 56.0744 26.3402 58.8932C26.5844 59.2243 27.0541 58.95 26.885 58.5716C25.4572 55.3649 23.3248 52.3663 21.5118 49.3678C21.3145 49.0367 20.8166 49.3299 21.0045 49.6705Z" fill="#34F3CA"/>
<path d="M23.1559 47.1259C25.354 51.4204 27.8528 56.2163 30.9339 59.9338C31.0936 60.1229 31.4506 59.9243 31.3566 59.6878C29.4967 55.2231 26.4343 50.7772 23.6631 46.8327C23.4471 46.53 22.9868 46.7854 23.1652 47.1259H23.1559Z" fill="#34F3CA"/>
<path d="M25.5791 43.6733C26.7158 45.6787 27.9276 47.6462 29.1394 49.6043C30.2009 51.3353 31.1778 53.1988 32.5775 54.6744C32.7372 54.8447 33.0754 54.6744 32.9814 54.4379C32.2393 52.5366 30.9805 50.8718 29.8721 49.1691C28.6133 47.23 27.3545 45.2908 26.0206 43.4085C25.8327 43.1341 25.4006 43.3706 25.5697 43.6733H25.5791Z" fill="#34F3CA"/>
<path d="M27.4958 40.5516C28.1064 41.6773 28.7264 42.8029 29.3558 43.9191C29.91 44.8934 30.3985 46.0191 31.197 46.8136C31.3849 46.9934 31.7043 46.8136 31.6291 46.5582C31.3285 45.4704 30.5864 44.4867 30.0134 43.5313C29.3558 42.434 28.6701 41.3462 27.9937 40.2584C27.7964 39.9368 27.308 40.2205 27.4958 40.5516Z" fill="#34F3CA"/>
<path d="M29.4403 39.0005C29.8724 39.6627 30.2951 40.3248 30.746 40.9775C31.1406 41.564 31.5257 42.2356 32.0705 42.6802C32.2302 42.8126 32.5402 42.6991 32.4651 42.4532C32.2302 41.7721 31.7605 41.1951 31.3472 40.6181C30.8869 39.9748 30.4172 39.3411 29.9475 38.6978C29.7315 38.4046 29.2336 38.6695 29.4497 38.9911L29.4403 39.0005Z" fill="#34F3CA"/>
<path d="M8.14643 15.9158C8.14643 16.9835 7.81028 17.8921 7.26844 18.827C6.55964 20.05 5.87956 21.324 5.12544 22.518C4.80912 23.0189 4.53581 23.5452 4.19546 24.0314C4.10646 24.1586 3.6479 24.7187 3.82578 24.6033C4.46539 24.1884 4.92228 23.4334 5.51245 22.9397C6.53992 22.0801 7.62575 21.2974 8.85113 20.7447C10.2397 20.1185 11.833 19.3724 13.3797 19.2487C14.0418 19.1957 13.4224 20.1013 13.218 20.3057C12.52 21.0037 11.5632 21.393 10.8959 22.1137C8.79592 24.3817 6.88591 26.968 5.524 29.7442C5.1978 30.4091 4.81333 31.2011 4.70955 31.9276C4.65249 32.327 4.3213 32.8924 4.15503 33.2619C3.75598 34.1487 4.81001 32.7587 4.99259 32.563C6.91849 30.4981 9.13767 28.6876 11.2656 26.8387C12.3259 25.9175 13.3768 24.9615 14.483 24.095C14.5602 24.0345 15.6699 23.2058 15.7133 23.3672C15.9064 24.0844 14.1646 25.5759 13.7841 26.0011C12.0615 27.9263 10.9164 30.2115 9.67714 32.459C8.99772 33.6912 8.13681 34.9607 7.67855 36.3002C7.44708 36.9768 7.30171 37.7187 7.02583 38.3739C6.71339 39.116 6.48908 39.9077 5.80704 40.4534C5.7389 40.5079 5.63672 40.5832 5.78394 40.436C6.29296 39.927 6.86697 39.5097 7.36086 38.9746C8.07767 38.1981 8.68381 37.3473 9.371 36.5486C10.8813 34.7931 12.6293 33.1067 14.4252 31.6446C15.3136 30.9213 16.2394 30.2161 17.1747 29.5535C17.4558 29.3545 17.7438 29.135 18.0701 29.0163C18.1965 28.9704 18.4397 28.4974 18.4397 28.7737C18.4397 29.9968 17.1244 30.6661 16.4874 31.5579C15.5965 32.8051 15.1314 34.4085 14.6159 35.8323C13.9615 37.6397 13.1239 39.4296 11.7566 40.8173C11.2702 41.3109 10.2573 42.3146 9.49808 42.4231C9.08639 42.4819 9.01199 42.4587 9.10529 42.9718C9.24888 43.7616 9.18616 44.5841 9.18616 45.3863C9.18616 46.105 9.08219 45.8651 9.08219 45.3401" stroke="#34F3CA" stroke-width="3" stroke-linecap="round"/>
<path d="M14.9047 37.9579C15.5001 37.9579 15.8202 37.5486 16.3372 37.3572C17.0806 37.0818 17.6252 36.4712 18.2029 35.9131C20.0735 34.106 21.9612 32.3108 23.8001 30.4719C24.6906 29.5814 23.6248 30.7591 23.3669 31.0553C21.9073 32.7311 20.4407 34.4146 19.1676 36.2366C17.0392 39.2824 15.2255 42.4734 13.3682 45.6866C12.8685 46.5509 12.3367 47.4033 11.7913 48.2397C11.6319 48.484 11.1735 48.9944 11.2714 49.3372C11.3164 49.4946 11.8721 48.9502 11.9126 48.9097C12.8507 47.9716 13.7895 47.0917 14.8238 46.2526C17.7122 43.9095 20.6858 41.5763 23.3496 38.9745C24.2387 38.1061 25.0351 37.1745 26.0182 36.4099C26.4455 36.0775 27.4235 34.8522 27.2659 35.3701C27.1833 35.6415 26.8374 35.9156 26.6305 36.1037C25.7027 36.9472 24.9306 37.8171 24.2102 38.8532C22.4239 41.4226 20.6171 44.0712 19.0636 46.7898C18.6782 47.4642 18.2496 48.1122 17.839 48.7711C17.6923 49.0065 17.2926 49.5957 17.7581 49.0599C20.4167 46.0001 23.1134 42.9711 25.7583 39.8987C26.6018 38.9189 27.4516 37.9449 28.2941 36.9644C28.4823 36.7453 28.6436 36.5628 28.7331 36.2943" stroke="#34F3CA" stroke-width="3" stroke-linecap="round"/>
</g>
<defs>
<clipPath id="clip0_1762_268">
<rect width="64" height="60" fill="white"/>
</clipPath>
</defs>
</svg>
