<svg width="68" height="60" viewBox="0 0 68 60" fill="none" xmlns="http://www.w3.org/2000/svg">
<path d="M28.3403 1.15084C43.1962 2.87712 57.1137 10.945 58.3166 27.3446C59.4353 42.5095 48.4168 55.8881 33.2121 57.4825C18.8855 58.981 5.96637 49.3546 2.88695 35.3886C-0.481177 20.1758 10.1765 5.67032 24.9963 2.2897C26.3796 1.97801 25.7902 -0.155852 24.4068 0.167825C12.2696 2.92507 2.23738 12.7912 0.324766 25.2467C-1.47959 36.983 4.46275 49.4745 14.6032 55.6603C38.1199 70.022 67.2782 46.1898 58.9662 20.4276C55.0447 8.30769 41.3678 -2.1099 28.2321 0.371621C27.7509 0.467525 27.9313 1.10289 28.3403 1.15084Z" fill="#F8F963"/>
<path d="M31.1912 59.6883C36.5923 59.7242 41.9572 59.4845 47.3462 59.2327C48.5611 59.1728 48.5611 57.2547 47.3462 57.3386C41.9452 57.7342 36.5562 58.1298 31.1912 58.8131C30.6499 58.8851 30.6138 59.6763 31.1912 59.6763V59.6883Z" fill="#F8F963"/>
<path d="M22.7469 7.18075C10.1886 9.74618 3.09148 24.8631 6.68815 36.5274C10.5735 49.1148 24.455 56.967 37.1456 52.8071C49.8964 48.6353 56.9694 35.5684 53.0359 22.7172C48.513 7.924 33.2963 2.98494 19.1863 5.95797C18.0676 6.19773 18.5367 7.90003 19.6554 7.67225C32.7791 4.91501 47.1056 9.33859 51.3519 23.1967C55.0568 35.2926 47.9477 47.7602 35.9066 51.3925C24.1543 54.941 11.4156 47.916 7.80685 36.2277C3.87337 23.4964 12.1012 12.9829 22.8431 7.38454C22.9634 7.3246 22.8792 7.15677 22.7589 7.18075H22.7469Z" fill="#F8F963"/>
<path d="M33.2364 15.6444C29.5435 13.5465 25.3333 13.3427 21.7126 15.8601C18.8497 17.8382 16.8288 21.7343 18.4287 25.0909C20.6059 29.6584 25.9949 28.3397 30.0126 28.1598C33.3687 28.004 38.457 27.9441 37.0376 34.4895C36.4602 37.1628 33.5371 39.3686 31.0471 40.2078C25.5619 42.042 21.3999 38.6014 18.7896 34.1658C18.3685 33.4585 17.2619 33.9261 17.4664 34.7173C20.0646 44.7273 34.8844 45.015 38.6134 35.6404C40.2974 31.3966 38.4329 27.3087 33.8258 26.4336C30.5299 25.8102 27.2219 27.4885 23.9861 26.7692C17.6588 25.3666 19.403 18.8691 23.6132 16.6154C26.416 15.1049 29.8683 15.1648 32.7192 16.5315C33.2965 16.8072 33.8018 15.98 33.2364 15.6564V15.6444Z" fill="#F8F963"/>
<path d="M24.9602 10.6813C25.6699 21.4825 26.6443 33.0269 29.014 43.6004C29.1343 44.1398 29.9883 44.02 29.9763 43.4685C29.6996 32.6313 27.8351 21.2188 25.8864 10.5494C25.7902 10.0339 24.9241 10.1418 24.9602 10.6693V10.6813Z" fill="#F8F963"/>
<path d="M28.5208 11.3168C29.7959 22.6574 31.937 33.9381 33.7534 45.2069C33.8978 46.094 35.245 45.7104 35.1007 44.8352C33.3204 33.6264 31.8408 22.2978 29.5312 11.1849C29.4109 10.6334 28.4607 10.7413 28.5208 11.3168Z" fill="#F8F963"/>
</svg>
