<svg xmlns="http://www.w3.org/2000/svg" width="66" height="63" viewBox="0 0 66 63" fill="none">
  <g clip-path="url(#clip0_1762_1131)">
    <path d="M32.847 0.0460819C18.7894 1.69103 5.58327 9.31621 1.43278 23.6186C-0.555786 30.4699 -0.606779 37.1778 2.17721 43.7781C4.4248 49.1728 8.16151 53.8085 12.9461 57.1376C18.1418 60.7247 24.3472 62.4824 30.5933 62.8872C37.1454 63.3074 44.0442 62.6156 50.0099 59.7049C61.3957 54.1552 67.5246 41.385 65.6737 28.9582C63.369 13.4978 47.8275 -1.78847 31.6182 0.194695C31.1083 0.256189 30.5984 0.799381 31.4244 0.70714C45.6248 -1.05055 59.5091 11.7452 63.4862 24.6947C66.979 36.071 63.5678 49.1229 54.0941 56.5432C48.4853 60.9348 41.6477 62.4004 34.652 62.4773C28.3549 62.549 21.9456 61.314 16.398 58.2291C6.65914 52.8074 0.0254857 41.5183 1.22372 30.2496C2.02425 22.691 4.96121 15.4502 10.4833 10.1464C16.4847 4.39162 24.5307 1.53218 32.6533 0.579029C33.1632 0.52266 33.673 -0.0154071 32.847 0.0665841V0.0460819Z" fill="#2C2C2C"/>
    <path d="M5.61928 49.2412C16.2199 52.403 26.6573 54.5348 37.7066 52.6028C47.0936 50.9579 57.633 47.627 64.6389 40.8474C65.1488 40.3349 64.0475 40.1299 63.6701 40.4938C60.1825 43.8708 55.8688 46.0999 51.3869 47.8474C46.6309 49.738 41.6875 51.1123 36.6409 51.9469C26.1882 53.5919 16.2811 51.4345 6.28214 48.4623C5.77226 48.3137 4.92583 49.0465 5.61928 49.2515V49.2412Z" fill="#2C2C2C"/>
    <path d="M0.368088 34.0369C2.91753 35.0208 4.69703 37.1833 7.33826 38.0237C9.66335 38.7617 12.1465 38.8026 14.5634 38.7821C20.8846 38.7238 27.1919 38.1756 33.4293 37.1423C39.667 36.1268 45.82 34.6417 51.8363 32.6994C56.5272 31.1621 61.4171 29.5171 64.7619 25.6943C65.0373 25.3817 63.9206 25.4944 63.7065 25.7302C59.9843 29.9937 54.0696 31.5874 48.8432 33.1452C43.3617 34.7732 37.7755 36.0213 32.1239 36.881C26.4678 37.7431 20.7581 38.202 15.0376 38.2543C12.4881 38.2543 9.79593 38.2185 7.38925 37.2294C5.16614 36.3173 3.5549 34.4366 1.31139 33.5655C1.02075 33.4527 -0.0245321 33.9088 0.37828 34.0779L0.368088 34.0369Z" fill="#2C2C2C"/>
    <path d="M5.01636 16.9722C8.56009 19.3345 12.8024 19.9802 16.958 20.344C21.4611 20.7286 25.9914 20.6565 30.4802 20.1288C39.5979 19.0558 48.408 16.1526 56.3877 11.5915C57.0709 11.202 56.4488 10.623 55.8778 10.9458C48.2891 15.298 39.926 18.1148 31.2603 19.2372C26.9878 19.7843 22.6723 19.9096 18.3755 19.6113C14.0618 19.3089 9.57477 18.7811 5.89337 16.3214C5.49056 16.0549 4.47078 16.6186 5.00107 16.9722H5.01636Z" fill="#2C2C2C"/>
    <path d="M31.2919 0.456004C29.4533 11.2713 29.2453 22.3032 30.6749 33.1807C32.0057 43.1581 34.3359 53.7042 40.5565 61.8418C40.7452 62.0878 41.8466 61.7086 41.6324 61.4267C35.4475 53.3352 33.1479 42.7891 31.8273 32.8733C30.3908 22.0379 30.5919 11.0465 32.4238 0.271523C32.4799 -0.0615662 31.3378 0.138288 31.2817 0.456004H31.2919Z" fill="#2C2C2C"/>
    <path d="M20.0187 2.88562C16.2048 6.15502 14.41 11.2641 12.9466 15.9427C11.2897 21.2376 10.4639 26.7597 10.4991 32.3102C10.6237 43.0066 14.5169 53.3124 21.4872 61.3966C21.8339 61.8014 22.9251 61.3351 22.5427 60.8842C15.8178 53.1167 11.9782 43.2477 11.677 32.9559C11.558 27.9283 12.1678 22.9101 13.4871 18.0591C14.8383 13.0064 16.6892 6.94418 20.7836 3.43905C21.375 2.92661 20.4623 2.52178 20.0187 2.90099V2.88562Z" fill="#2C2C2C"/>
    <path d="M42.6224 2.49528C48.2912 10.0611 52.3415 18.7237 54.5185 27.9386C56.6956 37.1534 56.9524 46.7213 55.2727 56.0407C55.181 56.5531 56.3486 56.3789 56.4302 55.9228C58.1188 46.5393 57.858 36.9062 55.6643 27.6289C53.4706 18.3515 49.3914 9.63042 43.683 2.01358C43.4076 1.64974 42.3012 2.06995 42.6224 2.49528Z" fill="#2C2C2C"/>
  </g>
  <defs>
    <clipPath id="clip0_1762_1131">
      <rect width="66" height="63" fill="white"/>
    </clipPath>
  </defs>
</svg>