<svg xmlns="http://www.w3.org/2000/svg" width="57" height="66" viewBox="0 0 57 66" fill="none">
  <g clip-path="url(#clip0_1762_1145)">
    <path d="M18.6453 19.1633C16.2688 16.3119 14.8256 12.8031 14.5097 9.10912C14.3779 7.58253 14.0014 5.59296 14.1834 4.10391C14.5474 1.03821 22.4796 -0.27565 21.7893 3.83488C21.7893 3.94124 21.8206 4.00382 21.9273 4.04136C23.0192 4.37295 24.5128 4.61694 25.4792 3.78482C27.0857 2.38336 24.5818 1.32602 28.5416 0.900574C29.5301 0.82239 30.5182 1.05663 31.3656 1.57003C32.3257 1.82029 32.4889 2.5648 31.8551 3.79108C31.7986 3.86732 31.7601 3.95536 31.7428 4.04857C31.7254 4.14179 31.7294 4.23772 31.7547 4.32913C31.7547 4.44801 31.7547 4.48556 31.8865 4.53561C32.3517 4.71417 32.8497 4.79201 33.3474 4.76397C33.8451 4.73592 34.3311 4.60262 34.7732 4.37293C35.9655 3.79108 35.8714 3.12162 37.4465 3.54081C40.4274 4.37292 39.3291 6.58776 38.4255 8.50226C37.208 11.0424 35.4697 13.2197 34.0327 15.6034C33.2984 16.8046 32.401 18.4376 33.3235 19.7827C34.246 21.1279 36.3295 21.3344 37.7163 21.6597C40.4148 22.3417 42.7367 23.8683 45.0838 25.3448C50.0539 28.473 53.0285 33.9412 54.5973 39.4782C56.1035 44.7838 56.1035 50.8025 52.8339 55.4762C48.8741 61.1508 41.7138 62.8964 35.2627 64.1164C23.4209 66.3625 6.50849 65.7369 2.29765 51.7348C0.371087 45.3406 1.9023 38.0267 4.18029 31.9079C5.43538 28.5544 7.28039 25.4699 10.3177 23.4303C13.104 21.5533 16.3233 20.496 19.0594 18.5377C19.687 18.081 18.1997 18.1811 17.8859 18.4063C14.4595 20.8589 10.1922 21.9788 7.11096 24.9256C4.14266 27.7598 2.6491 31.764 1.56972 35.618C-0.63297 43.4574 -1.29817 52.5732 4.70745 58.9298C10.4809 65.0299 19.2979 66.5002 27.3368 65.862C35.0367 65.2364 44.4562 63.8286 50.7442 58.9798C57.0322 54.131 58.0865 46.3166 56.0407 39.1029C53.8066 31.2009 48.7172 24.9318 41.0549 21.6847C38.2247 20.4897 32.6772 20.6461 35.043 16.0914C35.8651 14.496 37.0888 13.0883 38.0301 11.5554C39.097 9.81609 40.9922 7.26971 41.0298 5.12372C41.0675 2.97774 37.0512 1.73896 35.2062 2.47723C34.8045 2.63364 33.9511 3.63468 33.5808 3.29683C33.7377 3.44073 33.7879 2.04553 33.7377 1.88911C33.5902 1.61671 33.3882 1.37734 33.1443 1.18579C32.9004 0.994246 32.6197 0.854576 32.3195 0.775436C30.6188 0.149784 26.2134 -0.707337 24.8642 1.18839C24.4626 1.75147 24.4124 3.39067 23.3644 2.85887C23.1447 2.75251 22.7368 1.4136 22.3164 1.08826C21.0613 0.124758 19.1787 0.462622 17.7479 0.787961C16.3171 1.1133 14.6415 1.48244 13.4554 2.35835C12.0497 3.38442 12.6961 5.02987 12.784 6.56271C13.0852 11.6743 13.9951 15.6409 17.1768 19.7327C17.4341 20.058 18.8774 19.5575 18.5825 19.1884L18.6453 19.1633Z" fill="#2C2C2C"/>
    <path d="M16.2779 19.5387C22.1367 20.3372 28.0928 20.0552 33.8492 18.7066C34.0124 18.6691 34.8721 18.2686 34.3764 18.0809C30.7994 16.6795 26.1744 17.7556 22.453 17.9933C19.4596 18.181 16.485 18.1372 13.9184 19.8703C13.8054 19.9454 13.6862 20.0955 13.8054 20.2144C14.7467 21.1716 15.8512 21.1967 17.144 21.1904C19.4596 21.1904 21.7941 20.9715 24.1097 20.8588C27.6491 20.6899 31.2889 20.8588 34.414 18.9318C35.3554 18.3625 37.3761 16.1226 38.4931 16.0538C41.3045 15.8786 36.8301 17.6304 36.3406 17.8119C35.4821 18.0327 34.6427 18.3214 33.8304 18.6753C32.8953 19.2634 32.638 19.4574 32.5753 20.6836C32.4184 23.5116 32.5753 26.2332 32.0545 29.0486L33.5543 28.7358C33.0931 25.6907 33.0741 22.5954 33.4978 19.5449C33.5606 19.0632 32.0607 19.3385 31.998 19.7702C31.5678 22.8849 31.5847 26.0449 32.0482 29.1549C32.1109 29.5741 33.4853 29.1925 33.548 28.8359C33.8421 27.2608 34.0328 25.6682 34.1191 24.0684C34.0625 23.1266 34.0625 22.1823 34.1191 21.2405C34.5646 18.8067 35.3742 18.8442 36.8614 18.3062C38.3487 17.7681 41.6747 16.9047 41.9383 14.9026C41.9697 14.6711 41.6685 14.6523 41.499 14.6523C39.7043 14.7148 37.972 15.324 36.5351 16.3979C35.3114 17.2363 34.1881 18.2749 32.864 18.9819C30.4291 20.2332 27.3541 20.0205 24.7059 20.1456L19.2337 20.4021C18.7505 20.4021 16.9996 20.7837 16.5791 20.4459C15.3994 19.4886 19.9679 18.8567 20.3444 18.8317C22.2647 18.7003 24.185 18.5877 26.1053 18.4626C28.4209 18.3187 30.8872 17.887 33.1024 18.7566L33.6296 18.131C28.2378 19.3762 22.662 19.6201 17.1816 18.8505C16.78 18.8004 15.4307 19.4761 16.234 19.57L16.2779 19.5387Z" fill="#2C2C2C"/>
    <path d="M28.3337 36.5879C27.3051 36.0503 26.1691 35.7483 25.0085 35.704C23.848 35.6596 22.6922 35.8739 21.6253 36.3314C19.5983 37.1635 16.6049 40.0853 19.6548 41.6557C22.9368 43.3387 29.9654 41.6119 31.6723 45.6098C34.5653 52.3856 22.8866 53.3178 18.6946 53.7433C18.3181 53.7808 17.063 54.419 18.0357 54.3189C21.7365 53.9741 25.3891 53.2315 28.9299 52.104C31.3459 51.3032 33.4419 50.1333 33.5047 47.2928C33.5863 43.6828 30.9067 42.9132 27.8568 42.4189C25.7608 42.0686 22.5854 42.1875 20.7655 41.0363C19.7301 40.4106 19.6108 39.5535 20.138 38.4648C21.3303 35.9622 24.7567 35.9622 26.9029 37.0759C27.2857 37.2761 28.4843 36.6567 28.3274 36.5754L28.3337 36.5879Z" fill="#2C2C2C"/>
    <path d="M23.8091 28.7676C23.6599 39.1346 22.9876 49.4877 21.7947 59.7874C21.7382 60.2817 23.2443 59.9939 23.2945 59.5622C24.4813 49.212 25.1452 38.8089 25.2838 28.3922C25.2838 28.0418 23.784 28.2858 23.7777 28.7926L23.8091 28.7676Z" fill="#2C2C2C"/>
  </g>
  <defs>
    <clipPath id="clip0_1762_1145">
      <rect width="57" height="66" fill="white"/>
    </clipPath>
  </defs>
</svg>