<svg xmlns="http://www.w3.org/2000/svg" width="45" height="66" viewBox="0 0 45 66" fill="none">
  <g clip-path="url(#clip0_1762_1139)">
    <path d="M0 28.1829C0.939992 40.585 1.61793 52.9872 1.75465 65.4293C1.75465 65.5036 1.96544 65.5093 1.98823 65.5093C8.55678 65.9208 15.0912 65.4636 21.6825 65.6579C29.1341 65.8751 36.5629 66.2866 44.0144 65.7036C44.2024 65.7036 45.0171 65.555 45 65.2636C44.6411 58.2566 44.8918 51.2497 44.9316 44.2371C44.9316 40.7336 44.9316 37.2301 44.6981 33.7381C44.5841 31.7778 45.2165 27.5942 42.7326 27.1713C39.7873 26.6683 36.3749 27.0855 33.384 27.0627C29.6924 27.0398 26.0008 27.0303 22.3092 27.0341C15.2336 27.0341 8.158 27.097 1.08242 27.2227C0.808968 27.2227 -0.450056 27.7656 0.188 27.7542C6.80023 27.6475 13.4144 27.5847 20.0304 27.5656C26.5875 27.5656 33.3384 27.1541 39.8728 27.6685C40.9552 27.7485 42.3452 27.6228 42.858 28.8458C43.0258 29.5242 43.1043 30.2217 43.0915 30.9205C43.2453 32.5893 43.3536 34.2582 43.4277 35.9271C43.5701 39.1219 43.5872 42.3225 43.5587 45.5173C43.5017 52.227 43.2852 58.931 43.6327 65.6351L44.6183 65.1893C37.5427 65.7608 30.4899 65.3836 23.4144 65.155C17.3016 64.9607 11.1945 65.395 5.08736 65.1035C4.67148 65.1035 3.66882 65.2293 3.37828 65.0121C2.84847 64.6406 3.10482 62.766 3.09913 62.2802C3.07064 60.5085 3.03646 58.7367 2.98519 56.965C2.90164 53.6578 2.7801 50.3505 2.62059 47.0433C2.31295 40.6307 1.86859 34.2239 1.37865 27.8171C1.37865 27.6056 -0.0113914 27.8171 0.0113963 28.1829H0Z" fill="#2C2C2C"/>
    <path d="M22.275 50.4478C22.275 48.4303 22.6624 45.2469 20.9476 43.8581C19.8936 43.0065 18.7429 42.8922 18.8454 41.2462C19.0505 37.9885 24.1208 37.0798 26.5363 38.4686C27.368 38.9429 28.6897 40.0974 28.5701 41.189C28.4106 42.6979 26.861 43.2808 26.109 44.4124C25.6349 45.328 25.3445 46.328 25.2544 47.3558C25.0721 48.4474 25.1291 50.8307 24.3316 51.6194L25.3912 51.2822C24.4701 51.1809 23.5715 50.93 22.7307 50.5392C22.4003 50.4135 21.1584 50.9336 21.6198 51.1108C22.5997 51.488 24.2917 52.3624 25.3627 51.7109C26.6844 50.905 26.4736 47.7502 26.7357 46.4071C27.0661 44.6925 27.6415 44.121 28.9404 42.9208C29.4345 42.5724 29.7834 42.0535 29.9202 41.4634C30.2336 39.7145 28.5872 38.2571 27.1629 37.6399C24.3145 36.4225 20.2639 37.3712 18.2757 39.7602C17.0794 41.2005 17.1363 42.6464 18.6403 43.7609C19.7797 44.6011 20.4804 44.904 20.6855 46.4757C20.8564 47.9188 20.9306 49.3719 20.9077 50.825C20.9077 51.1108 22.275 50.8993 22.275 50.4592V50.4478Z" fill="#2C2C2C"/>
    <path d="M23.6995 50.5627C23.5986 48.631 23.295 46.7153 22.7937 44.8474C22.5003 44.2145 22.2473 43.5636 22.036 42.8985C21.6828 40.4867 23.0273 39.7266 24.5313 38.6749C24.9585 38.372 24.7307 37.8977 24.2977 37.8005C21.1929 37.0804 17.2335 39.6808 19.6262 42.99L20.6403 42.1956C20.5263 41.7212 20.4181 41.2468 20.3041 40.7782C20.761 40.4673 21.2388 40.1884 21.7341 39.9437C22.4556 39.5807 23.2019 39.2694 23.9673 39.0121C24.6224 38.7835 24.725 37.932 23.8818 37.972C20.9821 38.092 18.3786 40.7553 20.7542 43.3958L21.4264 42.5442L20.646 42.5899C20.2928 42.5899 19.8199 42.8928 19.9111 43.31C20.2586 44.9274 21.4948 44.8474 21.6657 47.0078C21.7797 48.4023 21.5233 49.6368 21.8081 51.0542C21.9335 51.6886 23.1697 51.4086 23.1868 50.8313C23.1778 48.9753 22.8976 47.1306 22.355 45.3561C22.0293 44.4335 21.8207 43.4734 21.7341 42.4985C21.7341 41.1097 23.3805 37.9548 25.4884 38.6407C26.1207 38.8464 27.0949 37.9319 26.2631 37.6633C24.4629 37.0918 21.6258 38.5549 20.6631 40.1666C20.0421 41.2068 20.3042 42.567 20.4979 43.6872C20.9308 46.1448 21.8822 48.3852 21.7967 50.9285L23.1754 50.6999C22.8621 49.111 23.2893 47.5908 23.0843 46.0476C22.8963 44.6417 21.5461 44.2016 21.2783 42.9557L20.5434 43.6758L21.3239 43.6301C21.6429 43.6301 22.3664 43.19 22.0018 42.7842C21.2954 42.2927 21.2707 41.6355 21.9278 40.8125C21.8252 39.4579 22.4405 38.8693 23.7793 39.0579L23.6995 38.012C21.9107 38.6292 15.4504 41.4011 19.8598 43.1557C20.2757 43.3215 21.2726 42.9157 20.8738 42.3556C19.2616 40.1266 21.6543 38.3549 23.8419 38.8464L23.6084 37.972C22.1329 39.0064 19.8085 40.3895 20.344 42.4813C20.6802 43.7958 21.4151 44.9732 21.7284 46.322C22.0311 47.8308 22.2328 49.3583 22.3323 50.8942C22.3892 51.5686 23.7565 51.2257 23.6995 50.5284V50.5627Z" fill="#2C2C2C"/>
    <path d="M7.88485 27.0558C8.00448 21.4948 7.79369 15.6995 9.94713 10.4815C12.2259 4.94337 17.0626 0.668353 23.2551 0.685499C36.3239 0.731222 35.4124 18.6315 35.5776 27.7359C35.5776 28.0674 36.9505 27.8331 36.9448 27.3701C36.8195 20.4375 37.1727 12.1389 33.9426 5.78924C31.5783 1.13129 26.5366 -0.497559 21.5916 0.171128C19.2207 0.503097 16.9533 1.36057 14.9539 2.68131C12.9545 4.00205 11.2734 5.7529 10.0326 7.80673C6.41503 13.6992 6.66 20.7518 6.51758 27.4158C6.51758 27.7302 7.87345 27.513 7.88485 27.0443V27.0558Z" fill="#2C2C2C"/>
    <path d="M10.5797 26.6683C10.42 21.8339 11.0571 17.0062 12.4654 12.3801C13.6048 8.65942 15.3822 5.57317 19.1479 4.1615C21.7685 3.18418 24.2751 3.13275 26.7989 4.45298C29.3226 5.77321 30.1658 7.65926 30.4506 10.3169C31.0602 15.9978 31.2994 21.7474 31.459 27.4627C31.459 27.8456 32.8433 27.5941 32.8262 27.0969C32.7237 23.3591 32.5471 19.6251 32.2964 15.895C32.0913 12.963 32.4217 8.88803 30.8209 6.28758C28.4681 2.46406 23.2326 2.14972 19.4271 3.38993C16.0089 4.50441 13.5706 6.5219 12.0951 9.83676C9.77647 15.0319 8.9732 21.3931 9.20677 27.0397C9.20677 27.4284 10.5911 27.1655 10.574 26.6683H10.5797Z" fill="#2C2C2C"/>
  </g>
  <defs>
    <clipPath id="clip0_1762_1139">
      <rect width="45" height="66" fill="white"/>
    </clipPath>
  </defs>
</svg>