<svg xmlns="http://www.w3.org/2000/svg" width="246" height="84" viewBox="0 0 246 84" fill="none">
  <g clip-path="url(#clip0_1762_2707)">
    <path d="M152.624 83.8281C155.764 83.3573 158.954 83.9512 161.902 83.6337C163.686 83.6337 169.6 84.0657 171.089 83.3724C171.299 83.6856 172.761 83.7827 172.873 83.3724C174.2 84.0441 174.963 83.2493 176.617 83.502C177.797 83.7525 178.292 83.286 178.938 83.5668C179.863 83.7374 184.878 82.8519 185.719 83.7633L185.542 83.3724C187.104 83.6359 189.138 82.7979 190.448 83.6337C191.42 83.8022 191.987 82.8239 192.945 83.2407C195.663 83.1349 200.646 84.0095 202.845 82.5928C201.686 80.3705 193.75 82.1868 191.07 81.6771L191.07 81.9384C187.676 81.4438 185.306 82.0658 181.794 82.1997C175.459 81.8563 166.599 82.2775 160.567 81.9384L160.567 82.461C158.603 81.3596 154.001 82.5496 151.557 82.3315C148.945 82.5129 146.636 81.9967 144.242 82.3315C143.741 82.582 141.94 82.0896 141.657 82.7245C141.904 81.8391 136.972 82.3638 136.574 82.0766C135.486 81.8779 134.714 82.8217 133.452 82.2062C131.491 81.1976 130.315 82.772 128.454 81.8153C128.425 82.2472 127.487 82.4761 127.119 82.0766C126.983 81.7073 125.132 82.0248 124.979 81.8153C123.584 81.1933 124.283 82.528 123.46 82.5992C123.669 81.7764 121.184 81.1631 120.963 81.9514L121.847 81.69C121.051 82.8152 119.922 81.2711 118.899 81.69C117.425 82.2019 117.054 81.7505 115.332 81.4935C113.666 81.027 113.191 81.7613 111.499 81.4287L111.499 81.69C110.809 81.8218 110.827 81.1069 110.072 81.1674C109.482 81.1674 108.489 81.297 108.645 81.8153L108.111 81.8153L108.468 81.4222C107.345 80.8737 106.071 81.4374 105.078 81.2927C105.549 82.6424 103.583 82.9362 102.581 82.0766C104.031 82.0291 105.579 80.8218 103.294 80.8996C103.214 82.0982 101.507 80.6685 100.885 80.5735C99.6234 80.5735 98.2319 81.0054 96.516 80.6383L96.8727 81.0313L95.9883 81.4222C96.4246 80.6987 95.4693 80.4353 94.9179 81.0313C95.2511 81.7635 98.0107 81.4633 97.7719 82.3271C97.1203 82.2451 95.5519 82.3271 95.4546 81.9341C94.1544 82.5517 91.9372 81.9643 90.2803 81.8045C91.0616 80.7938 93.0076 81.9319 94.0277 80.8888C93.4941 80.3294 92.3619 80.8003 92.0641 79.9753C91.4745 80.8866 90.0975 80.3165 89.5669 80.8888C89.272 80.1761 88.2874 80.3078 87.4265 80.4979L87.4265 79.9753C86.1204 80.2733 83.4817 79.0207 84.5725 81.0205C85.118 80.8262 85.5366 81.0421 85.8196 81.4114C86.4093 81.1803 86.6687 80.7376 86.7041 80.2366C86.5685 80.7635 87.0343 81.189 87.5886 81.5432C87.9689 80.3186 91.2327 81.9557 89.0185 81.9341L89.0185 82.3271C88.193 81.744 87.1169 81.636 85.9848 81.8045L86.1617 82.0658C85.7843 82.1846 85.5957 82.1716 85.1829 81.8045C84.4223 81.1868 83.0808 81.8866 82.2346 81.2819C83.8503 81.0421 82.7712 79.3554 81.701 79.9753L82.5855 80.3662C81.6715 80.4482 81.7598 82.1328 80.6248 81.3466C80.2238 81.0421 79.7403 81.5259 79.1064 81.2819C78.6907 81.1933 78.4549 81.1933 78.393 81.2819C77.9625 81.5885 76.3291 81.6036 76.3439 80.8888C76.0373 81.063 75.6603 81.1576 75.2723 81.1576C74.8842 81.1576 74.5072 81.063 74.2006 80.8888C74.2091 80.9705 74.1903 81.0524 74.1459 81.1276C74.1015 81.2028 74.0329 81.2689 73.9458 81.3204C73.8588 81.3718 73.756 81.4069 73.6463 81.4228C73.5366 81.4387 73.4233 81.4348 73.3162 81.4114C73.9736 82.474 75.1852 82.2926 76.3498 81.6727C76.2879 81.8045 76.2289 81.9341 76.17 82.0658C77.7502 82.69 78.6082 82.2451 80.8076 82.6532C82.3289 83.1219 83.9033 82.5431 84.8232 82.7828C86.0496 83.0895 94.5524 83.448 95.0802 82.718C96.5543 83.6834 102.336 83.2644 104.355 83.1111L104.355 83.3724C105.429 83.4264 106.449 82.8973 105.605 82.1954C106.195 82.0593 106.994 81.8412 107.209 82.3271L106.676 82.5884C107.265 83.6272 107.56 83.7827 109.35 83.3724L109.35 83.8886C110.028 83.1932 112.139 84.1823 112.204 82.9729C112.29 82.974 112.374 82.9894 112.451 83.0181C112.528 83.0468 112.594 83.0878 112.646 83.1382C112.698 83.1886 112.733 83.247 112.75 83.3089C112.766 83.3708 112.763 83.4346 112.74 83.4955L113.274 83.2342L113.631 83.6272L114.515 83.1046C114.533 83.7352 117.145 83.4199 118.083 83.4955C117.788 83.0485 119.303 82.8347 119.421 83.2342C119.539 83.6337 121.532 83.1716 122.186 83.1046L122.186 83.4955C122.511 82.9945 125.674 83.8799 126.019 83.5625C126.122 83.3055 126.96 83.3746 127.355 83.3659L126.821 83.4955C126.877 83.8842 127.443 84.07 127.706 83.6272C128.266 83.2191 130.041 83.8583 130.38 82.9793C130.571 83.4113 130.733 83.6445 131.63 83.502C132.723 83.2558 133.449 83.8173 134.304 83.3724C135.545 84.2082 139.021 83.5884 140.548 83.502C144.278 84.5365 148.733 83.6013 152.624 83.8281ZM118.999 83.502L118.82 83.3724C118.94 83.4588 119.058 83.5452 119.176 83.6337L118.999 83.502ZM111.862 82.718L111.148 82.5884L111.862 82.4567L111.862 82.718ZM218.987 82.1954C219.815 81.2473 221.124 81.1631 221.304 79.8435C221.425 78.8263 222.622 77.5543 221.216 76.969C222.395 76.658 221.51 75.8179 222.1 74.9433C222.416 73.3861 226.968 74.7122 226.558 73.0492C227.599 73.9131 228.831 72.3797 229.769 73.3106C230.175 72.4575 231.331 73.1097 232.446 72.5914C233.69 72.1595 233.625 72.0126 234.509 71.6757C234.837 71.3474 235.748 71.775 236.025 71.0883C236.794 70.395 240.447 70.0948 239.415 68.6047C240.748 68.3736 241.945 67.9092 242.001 66.9072C241.688 66.2139 243.254 66.1837 243.159 65.7302L242.275 65.9915C242.452 65.512 242.632 65.0347 242.809 64.5553L242.095 64.4236L242.809 64.4236L242.632 63.51C243.274 63.5338 243.466 64.3501 243.702 64.8166C246.355 62.1818 242.408 61.6009 245.306 59.8494L244.772 59.5881L244.416 60.236C244.298 59.9315 244.177 59.627 244.059 59.3203L244.392 59.3203C244.23 58.6573 244.899 58.3765 244.569 57.7524C246.226 58.0245 245.247 56.7525 245.639 56.1197C245.736 55.5538 244.861 55.2385 245.639 54.6079L244.923 54.6079C246.612 51.7572 245.854 47.7488 245.548 44.7426C246.503 42.7665 245.489 41.4059 245.191 39.3197C245.111 37.16 245.881 35.7649 245.014 33.832C244.575 33.48 245.462 32.5707 245.014 32.1971C244.566 31.8235 245.085 31.4671 244.657 31.1518C244.286 30.7653 244.911 29.1887 244.209 28.9317C244.401 28.4609 244.607 27.8843 243.675 27.6899C244.374 27.3897 244.716 26.9815 243.675 26.906C244.398 26.1695 243.749 25.7419 243.764 24.945C243.905 24.0984 242.818 24.4267 242.962 23.4332C242.832 22.4743 244.227 20.9064 242.249 20.7552C242.644 19.5782 243.611 17.8181 241.178 18.1421C241.161 17.3624 241.426 16.7404 241.98 16.3128C242.107 16.1249 241.14 13.65 240.465 13.961L240.642 14.6088L240.285 14.6088C240.034 13.5549 239.253 11.3974 237.337 11.0152C235.603 10.0628 236.435 9.09955 233.324 9.77337C233.374 9.02612 232.655 8.58987 231.717 8.33719C231.655 8.83823 231.03 9.32199 230.379 8.79503C230.125 8.30695 227.156 8.46029 227.431 7.81455C226.841 7.96357 225.552 8.57259 226.004 7.68281C226.254 6.51876 224.199 6.36326 223.506 7.29191C223.12 6.27904 220.661 6.95716 221.186 5.85357C220.744 5.90109 220.34 5.80823 220.302 5.46267C220.328 6.09114 219.226 5.98317 218.515 5.98533L218.515 5.724L219.052 5.724L219.052 5.49292C218.914 5.46242 218.767 5.46839 218.636 5.5098C218.504 5.55121 218.396 5.62539 218.332 5.71921C218.268 5.81302 218.251 5.92045 218.285 6.0225C218.318 6.12455 218.4 6.21465 218.515 6.27688L218.158 6.40645C218.157 6.34344 218.136 6.2815 218.097 6.22539C218.058 6.16927 218.001 6.12048 217.933 6.08274C217.864 6.045 217.784 6.01932 217.699 6.00767C217.615 5.99602 217.528 5.99872 217.445 6.01555L217.445 5.2316C217.065 5.3115 216.985 4.94868 216.911 4.70896C216.646 5.00051 216.322 5.3115 215.841 5.2316C215.959 5.49291 216.08 5.75423 216.198 6.01555C213.948 6.87941 212.471 4.68952 210.847 4.3159C211.245 4.12368 211.669 3.88396 211.56 3.53194C210.519 3.60537 210.514 4.21007 210.847 4.83853L210.133 4.70896C210.151 5.2208 211.171 5.01348 211.737 4.97028C211.035 7.01548 209.673 4.3807 208.526 4.32238C208.969 4.12369 208.88 3.55786 208.883 3.14537C208.83 3.5773 207.825 3.11297 207.724 3.53843C207.382 4.46492 205.725 4.23383 204.602 4.06106L204.779 5.23808C203.945 5.40221 202.939 4.4282 203.532 3.92933C204.213 3.92933 205.127 3.90341 205.849 3.40669C205.849 3.70256 205.784 4.13233 206.206 4.1928C206.501 3.32893 206.182 2.60977 204.959 2.36141L204.959 3.53843C204.136 3.61834 204.369 2.48234 203.352 2.49315C203.473 2.75446 203.591 3.01578 203.709 3.2771C201.082 3.59025 203.134 2.53634 202.824 1.83877C201.418 2.05474 200.802 2.76958 201.055 3.79973L202.482 3.79973C202.423 4.0157 202.362 4.23167 202.303 4.44764C201.527 3.63776 200.186 4.67657 201.418 5.29639C202.073 5.85358 201.509 6.18617 203.29 6.20993C207.344 6.32438 212.285 7.40637 216.224 7.64825C217.734 7.74328 219.284 8.44733 220.685 8.5618C220.962 8.87927 221.549 8.497 221.844 8.89006C222.363 9.30471 222.554 8.70649 223.271 9.28096C224.155 9.88782 224.901 9.268 225.945 9.60923C227.124 9.85975 227.089 10.8251 228.353 10.8489C228.825 10.9396 228.778 10.0671 229.067 10.0649C229.462 10.1103 229.913 10.7128 229.603 10.9806C230.656 10.7646 233.368 10.5703 233.707 11.568C233.881 12.3477 235.621 12.555 234.955 13.5938L236.025 13.5938C235.308 12.298 238.599 13.4988 237.808 14.2417C237.499 13.6953 236.426 14.1532 236.205 13.7191C236.429 14.5354 235.585 14.9997 235.848 15.8096C236.181 16.5871 236.98 17.0579 236.382 17.7684L236.918 17.9002C236.747 17.4164 237.39 17.2199 237.988 17.1162C238.027 17.844 236.532 18.3407 237.275 19.075C237.708 18.4595 238.569 18.8591 238.879 18.2911C239.047 17.9434 239.12 17.8786 239.415 17.9002C239.684 18.6409 238.929 18.764 238.702 19.2715C238.893 20.0166 240.061 20.671 238.165 20.5134L238.165 20.7747L238.702 20.7747C238.407 21.1029 238.088 21.4766 238.165 21.8199L238.702 21.8199C238.024 22.4678 238.593 23.2129 239.235 23.5844C239.135 23.9407 238.224 23.8004 238.257 24.3684C238.071 25.0162 238.33 25.1458 239.059 24.9558C238.61 25.7203 239.477 25.9039 239.504 26.5237C239.466 26.6367 239.481 26.7556 239.546 26.8619C239.61 26.9681 239.721 27.0558 239.86 27.1111C240.45 27.4523 240.857 26.7548 241.376 27.1781C241.892 27.3357 241.396 28.8237 241.824 28.9425C242.502 29.4219 241.547 30.1433 240.662 29.9208C240.586 31.0503 239.218 30.6443 240.306 32.0114L239.772 32.0114C239.678 32.7997 240.783 32.9616 241.733 33.0588C241.438 33.2921 241.202 33.4627 240.662 33.3849C238.681 33.7499 241.391 34.0739 242.269 33.711C242.408 34.0911 241.839 34.2509 241.385 34.3589C243.743 34.428 241.361 36.1061 240.671 34.4885C240.064 35.4431 239.857 36.9268 241.741 36.4495C241.759 36.97 242.057 37.3544 242.812 37.2334C242.921 37.5142 242.428 37.5725 242.098 37.6243C242.738 38.3392 241.709 38.823 240.851 39.1923C241.494 39.0972 242.107 39.5076 242.635 39.8402C242.151 40.2203 242.505 40.8681 241.565 41.1467L241.921 41.2763C241.792 40.866 242.989 40.8271 243.168 41.1467L242.098 41.7946C241.467 40.8703 240.624 41.8054 240.314 42.4425C241.691 42.5419 243.557 42.8637 241.385 43.4878C242.903 45.0644 241.137 44.1055 240.94 45.3818C240.71 46.2824 241.514 46.196 241.565 46.8936C241.532 47.3255 242.019 47.4292 242.449 47.5415C242.511 47.3255 242.57 47.1096 242.629 46.8936C243.808 47.0102 242.823 48.7401 243.513 49.1159C242.877 49.0101 242.431 48.9582 242.178 49.6385C241.98 50.5024 241.051 50.2519 241.016 51.0099C240.978 51.6967 241.647 51.6578 241.464 52.3835C241.388 52.8564 241.429 52.9752 241.73 53.1674C241.09 53.3834 240.294 54.5496 240.659 54.9966L241.196 54.7353C241.259 54.8654 241.381 54.9755 241.543 55.0468C241.704 55.1181 241.894 55.1461 242.081 55.1262C241.963 55.3012 241.845 55.4761 241.724 55.6489L242.794 55.6489C242.812 56.5689 242.667 58.9359 240.653 58.6551C240.948 57.8906 240.875 57.1088 241.538 56.5646L240.824 56.4328C239.085 58.1735 240.235 58.897 240.288 60.7521C238.637 60.791 239.922 61.4 240.468 61.6657C240.138 61.9443 238.876 62.0717 239.041 62.7131C239.527 62.6008 239.598 63.4344 239.754 63.7584C242.879 62.2229 240.727 66.1772 240.468 63.888L239.218 64.1493L239.931 65.065C239.286 65.0131 238.672 65.0995 238.504 65.5876C239.138 65.7064 240.273 65.7582 240.288 66.2355C239.442 66.2139 239.315 66.7366 239.403 67.2808C239.698 67.0843 240.067 67.0087 240.288 67.2808C239.153 67.7926 237.735 68.2159 237.434 69.11L236.55 68.8487C236.55 69.5484 234.931 69.691 234.674 70.3605C234.618 70.494 234.497 70.6078 234.334 70.6802C234.171 70.7527 233.978 70.7788 233.79 70.7535C232.796 70.6434 232.316 71.585 231.201 71.4727C230.093 71.4165 230.317 71.7794 229.509 71.9284C228.837 72.0212 228.014 71.7124 227.814 72.3862C227.661 71.9867 225.479 72.2912 225.405 72.6475C224.521 72.9845 222.899 73.1788 221.749 72.9089C221.817 71.544 224.09 71.6908 224.96 71.1444C225.075 70.7125 226.03 70.7125 226.03 70.2957C226.004 69.9976 226.431 69.9588 226.744 69.9026C226.685 70.0775 226.623 70.2525 226.564 70.4274C227.902 70.0948 226.859 69.285 225.85 69.2504C225.909 70.233 223.038 69.3152 223.353 70.4274L221.749 70.4274C221.67 63.4582 221.275 55.6899 222.283 48.9949C221.484 48.7228 221.855 47.6279 222.283 47.1657C220.543 46.4854 223.268 43.5137 221.749 42.5937C222.044 42.5095 222.103 42.4296 222.106 42.0711C222.041 41.5096 222.663 41.732 222.64 41.2202C222.097 40.4729 222.516 39.8272 222.64 39.0605L222.106 39.1901C222.065 38.3262 222.021 37.0175 222.64 36.6439C222.345 36.227 221.699 36.1385 222.551 35.5964C223.229 35.2034 222.374 33.8925 222.463 33.4368C222.398 32.9184 223.108 32.4692 222.996 31.9984L222.64 31.9984C222.666 31.3138 222.991 30.1454 222.463 29.7783C223.539 29.5969 223.076 28.2665 222.463 27.8173C223.241 27.6337 223.052 26.1695 223.176 25.4654C223.966 25.7224 224.801 26.0399 224.96 26.6425L224.075 26.6425C223.739 27.5322 224.712 27.6122 224.96 28.2104C224.739 29.0375 223.17 30.4672 225.137 30.8236C223.663 31.1691 224.889 32.3224 224.78 33.0459L225.317 33.0459L225.317 32.6528C227.36 33.5167 227.522 30.3247 225.85 30.4305C225.995 30.0893 226.242 29.666 226.735 29.9079C226.944 29.4004 225.712 29.2988 225.93 28.733C226.145 28.232 224.981 27.0895 225.128 26.6425L226.198 26.9038C226.752 26.0399 225.328 26.122 225.753 25.2689C226.443 23.5412 224.279 20.7056 224.058 19.3234L223.701 19.3234C224.09 17.8375 223.589 15.4598 221.204 15.4036C221.089 14.8183 221.994 14.57 221.384 13.9674C221.136 14.7082 220.476 15.0235 221.027 15.9262L219.597 16.058C219.777 15.7967 219.957 15.5353 220.134 15.274C218.206 15.693 216.342 14.7168 214.237 15.1423L214.237 14.7514C213.123 14.7514 211.569 14.6261 211.026 15.274C212.141 13.8162 208.977 14.6477 208.441 14.1618C207.81 13.4815 203.402 14.341 204.782 12.65C203.452 12.2008 201.309 12.5118 200.144 12.9135C197.632 12.3822 194.516 12.46 191.76 12.5852C190.088 12.7191 189.425 12.1987 187.57 12.3909C185.66 12.5464 183.79 11.5659 181.951 12.3909C180.701 10.959 179.418 13.6089 177.667 13.3066C178.896 14.516 180.568 12.4794 181.237 13.3066C182.935 13.9545 185.754 13.488 187.57 13.6996C190.651 13.8119 195.557 13.9415 198.806 14.0257C199.776 14.2417 203.025 14.2827 203.98 14.6132C204.47 15.287 205.351 14.6391 205.944 14.9393C206.95 15.1978 208.041 15.2212 209.066 15.0062L209.066 15.5289L211.206 15.3971C210.967 16.7512 217.262 15.4684 217.271 16.8355C216.091 16.0472 216.487 18.0254 216.734 18.4034C216.949 18.9843 217.996 18.9411 217.984 19.5782C218.335 19.2672 218.813 18.9735 219.231 19.3169C218.235 18.9454 219.181 18.3947 219.055 17.9455C218.698 17.2976 219.509 16.3452 220.481 17.1616C221.118 18.317 219.992 18.6107 220.393 21.5392C220.14 24.2755 221.278 25.2689 219.231 25.3294C219.293 25.1545 219.352 24.9795 219.411 24.8068L219.948 24.9363L219.948 24.4137C218.282 24.256 218.539 25.0098 218.161 25.7095C218.907 25.9686 219.031 25.5626 219.588 25.4482C220.809 25.6641 219.293 26.3984 218.704 26.6252L218.704 26.1025C218.182 26.3401 217.23 25.9082 216.563 25.7095C216.637 26.433 217.548 26.9016 216.92 27.8L218.524 27.8L218.524 28.3227L218.881 28.3227C218.586 28.6985 217.914 28.3594 217.454 28.1931C216.442 29.2254 217.533 30.059 217.097 31.3289C217.796 30.4651 217.831 31.4823 217.634 31.9768C218.152 31.8753 218.371 32.2943 218.518 32.6247C217.979 32.3526 217.274 31.8883 216.734 31.9768C216.861 32.4088 217.542 32.791 217.448 33.4152L218.161 33.1538C218.904 34.1948 216.18 34.8081 218.161 35.2444C217.625 35.9873 219.656 35.8577 219.231 36.6827L218.161 36.4214L218.161 37.4667C217.925 37.1168 217.688 36.7684 217.448 36.4214C216.994 37.4516 217.294 38.283 218.875 38.3802C218.736 38.8942 218.377 39.2851 217.628 39.1642C217.551 39.5961 218.777 39.4838 218.875 39.9481C215.502 39.4752 216.047 45.1464 217.628 42.5635C220.773 43.2265 219.084 44.1357 216.557 43.9997C216.383 44.8873 218.011 44.559 218.875 44.5223C218.606 45.1551 217.224 44.9672 217.091 45.5676L217.804 45.6993C217.115 46.6949 218.424 47.6646 218.161 48.7034L218.698 48.7034L218.161 49.0964C218.715 49.1288 218.895 49.6256 219.046 50.01C218.843 50.0812 218.616 50.1069 218.394 50.0838C218.171 50.0608 217.963 49.99 217.796 49.8804C217.687 50.4722 217.837 51.6081 216.911 51.5801C217.221 50.7745 216.277 50.3491 216.198 49.7487L216.554 49.7487L216.554 48.9647L217.625 48.9647L217.625 47.8223L217.268 48.2132L216.731 47.9518C216.746 49.0943 215.219 50.0165 216.109 51.0229C216.534 51.3252 215.708 52.5519 215.929 52.9191C216.198 53.5259 216.749 53.7484 216.554 54.487L215.841 54.3552C215.77 54.7008 215.59 55.1673 215.841 55.4005C216.752 54.4762 217.61 56.5235 216.554 56.5775C216.606 56.4215 216.58 56.2572 216.482 56.1137C216.383 55.9703 216.219 55.8569 216.018 55.7936C215.204 56.4069 216.982 57.8668 215.484 57.8841C216.074 58.0072 216.286 58.3592 216.198 58.7976C216.652 58.3117 217.392 58.2621 218.158 58.4067L218.158 57.1088L218.872 57.2384C218.922 59.7738 218.648 62.4345 218.515 65.2097C217.89 65.011 216.805 64.6136 217.631 64.1644C217.336 63.9182 216.991 63.713 216.56 63.7735C216.728 65.2853 214.827 64.0543 216.204 65.8641C217.896 65.525 217.315 66.2031 216.381 66.7776C216.955 66.9439 218.191 67.0799 217.987 67.5615L218.701 67.5615C218.654 68.0172 218.485 68.4708 217.816 68.4772L218.53 69.1251L217.645 69.6478C218.786 69.9329 218.161 70.4771 218.27 71.1595C218.494 71.7815 216.72 72.2955 216.487 72.7275C216.168 73.2263 215.419 72.7685 215.06 73.1853C214.886 73.5546 212.43 73.4531 212.294 73.8332C211.233 74.317 209.832 74.5135 208.635 74.8785C207.89 74.8223 207.391 74.1571 206.572 74.6172C206.616 73.4704 204.649 73.1399 204.431 74.3558C204.832 74.4573 205.268 74.4962 205.501 74.2241C206.651 75.8352 203.529 73.9174 204.254 75.1398C203.697 75.1398 202.854 75.0664 202.827 75.5307C202.63 75.1506 202.176 75.1808 201.757 75.4011C201.875 75.1398 201.993 74.8785 202.114 74.6172C201.032 74.4703 200.846 75.8546 199.437 75.5955C197.963 75.6927 198.423 74.3386 197.296 74.4854C197.992 74.6409 198.033 75.4681 197.476 75.6624C197.181 75.6452 197.229 75.0707 196.763 75.1398C196.191 75.2435 196.158 75.8654 195.336 75.7877L195.336 75.1398C194.746 75.0577 194.652 76.0663 193.817 75.859C192.048 75.8827 190.81 76.1095 188.911 75.792L188.911 76.576L188.198 76.576L188.198 76.1851C188.06 76.3287 187.871 76.4414 187.65 76.5105C187.43 76.5795 187.188 76.6022 186.951 76.576L186.951 76.8373L187.664 76.8373C187.552 77.2152 187.319 77.1979 186.326 77.1655C184.828 77.0122 184.654 77.6083 183.378 77.4917C183.516 77.0597 183.047 76.8157 182.493 76.7077C182.136 77.375 181.777 77.6601 180.429 77.3556C178.439 76.9237 176.597 77.8653 174.81 77.3556C174.456 77.7206 171.396 77.8696 171.243 77.226C166.926 78.2605 161.127 76.9258 156.705 77.0964C152.176 77.1504 145.501 76.3211 141.274 77.226C140.133 76.4982 135.804 76.4356 134.852 77.0943C134.725 76.6515 134.289 76.7531 132.788 76.7034C130.103 76.6883 129.563 75.9756 127.526 77.226L127.526 76.7034C125.777 76.8438 124.056 75.8395 122.531 76.833C122.257 76.4658 122.03 76.1483 121.281 76.3773C119.863 76.6537 119.716 76.0468 117.802 76.2455C115.208 76.2887 113.911 75.6819 111.826 76.5716C112.083 75.9734 109.875 76.1505 109.152 76.049L109.152 76.5716L108.616 76.5716L108.795 76.1807C107.519 76.0015 107.097 77.2865 106.03 77.3556C105.37 77.334 105.219 77.6601 105.048 78.0035C104.93 77.8286 104.809 77.6558 104.692 77.4809L105.048 77.4809L105.048 77.0878C105.591 77.3599 105.891 76.7876 106.118 76.4399C104.686 76.3082 104.055 75.5501 102.731 76.3082C102.554 75.2175 99.6705 76.4356 98.8981 75.9821C98.6652 75.751 90.6784 75.6387 90.6018 76.0468C90.4927 75.6473 90.1978 75.697 89.0863 75.7207C86.828 75.5933 87.3174 75.8222 84.9824 75.9173C83.4345 76.0317 83.3284 75.5523 82.3967 75.6559C81.1378 76.049 80.0116 75.5004 78.6495 75.6559C76.6771 75.7423 72.582 75.265 70.6214 75.4594C68.4633 75.6279 66.3168 74.8245 64.5567 76.0468C63.6546 74.1442 62.6522 76.3816 61.6085 75.9173C60.4734 76.0857 59.0023 74.4163 58.4863 75.6559C53.6512 74.9519 45.8089 75.1031 40.6465 74.7402L40.6465 74.4789C32.8778 74.5912 26.1851 73.2522 18.8823 73.695L18.8823 73.3062C17.3463 73.4768 15.5096 73.1011 14.69 72.1962C14.6221 71.5483 12.3902 70.9414 14.0678 70.8226C14.1975 70.3194 13.8024 69.976 13.1833 69.7773C15.0731 68.4815 13.2954 67.0821 13.8084 65.3997C13.9852 64.3911 14.28 63.7756 13.1833 63.767C16.0107 61.9054 9.03803 60.7435 12.2988 63.5057C11.4733 63.6374 11.2935 64.5855 11.0488 65.2032L11.5853 65.2032C11.5853 65.7129 11.4527 66.4795 12.119 66.6415L11.5853 67.1641C12.0777 67.0518 12.2634 67.9913 12.4698 68.339C10.2203 68.8724 12.8826 70.7146 11.9362 71.8679C12.8501 71.7685 13.6875 73.6107 12.4698 73.8289C12.4698 73.3127 11.6886 73.0967 11.0429 72.9132C11.2346 72.4618 11.8095 69.516 10.3295 70.0387C10.1378 69.5808 11.0281 69.516 11.1313 69.123C10.8365 68.691 10.633 67.27 9.79279 67.2937C10.8011 67.2937 10.2057 66.4839 10.5064 66.0541C10.8012 65.5271 9.56876 65.4904 10.0611 64.8771C10.695 63.808 8.16831 63.4387 8.54567 64.6805L8.00914 64.6805L8.00914 64.9419L8.7226 64.9419C8.60468 65.1168 8.48676 65.2917 8.36588 65.4645L9.25035 65.4645C9.1678 65.7712 8.70197 65.6805 8.36588 65.5962C8.24205 66.2117 7.61997 66.9417 8.36588 67.3607C8.47844 67.4163 8.55913 67.5004 8.59232 67.5968C8.6255 67.6932 8.60881 67.7953 8.54567 67.8833C8.33635 68.2958 8.12996 70.4598 8.90241 70.6909L8.36588 70.9522L9.25035 71.6001C8.62532 71.7534 8.85532 72.248 9.07054 72.6454C7.82343 72.7879 7.07752 72.0104 6.12228 72.1875C4.91939 73.0859 6.30805 73.2047 7.10408 73.6259C7.52568 73.9779 10.0523 73.6993 9.77811 74.8029C9.53635 75.8179 11.0075 76.0835 10.3146 76.8265C11.1991 76.6969 11.5087 78.4117 11.9215 76.8265C11.5294 79.3122 18.7319 81.6231 20.9284 80.094C22.261 80.4525 27.1198 81.6382 27.7979 80.3554C28.1281 80.9838 30.2891 81.094 30.4719 80.3554C30.4719 80.824 35.313 81.0464 35.4663 80.5519C35.6844 80.1372 35.9705 80.094 36.0913 80.5519C36.1503 80.7678 36.6279 80.8564 37.5182 80.8132C39.2489 80.6534 38.9924 81.1695 40.4665 81.0745C41.3746 80.9665 42.8812 80.2107 43.3205 81.0097L44.3907 80.6167L44.5676 81.0097L45.1041 80.7484C45.6466 81.3272 49.0637 81.2624 48.6715 79.9645C47.7723 79.7161 47.6604 80.6016 47.0648 80.6124L47.0648 80.351C45.7352 80.6102 46.3366 79.7809 44.3023 80.0249C42.1854 80.0249 40.5521 79.7485 38.8598 79.5671C38.7419 79.9429 38.1787 80.5951 37.878 79.9601C37.5832 79.5282 35.6668 79.9429 35.1126 79.6319C34.0276 79.3014 32.4148 80.3489 31.4566 79.6967C30.8286 79.2928 30.121 80.0141 29.3928 79.5671C29.3515 79.9709 28.6705 80.1027 28.1457 80.215C27.2789 78.8976 23.6526 79.9148 21.3647 79.4289C21.4266 79.6038 21.4857 79.7787 21.5447 79.9537C20.1914 80.2754 19.587 79.8759 18.8676 79.1675C18.4283 78.971 13.6993 78.3706 13.6049 77.5996C13.2305 76.8135 12.4581 76.8718 12.5348 76.1635C12.7028 75.5458 11.6237 75.846 11.7328 75.183C11.3819 73.9325 16.2496 74.9022 17.1724 75.0512C17.762 75.373 19.531 74.8201 20.1206 75.3147C20.4331 75.7574 24.1715 75.5307 24.4899 75.8373C25.5454 76.4852 28.8622 75.8849 30.1093 76.4852C30.4926 76.7574 35.4368 77.267 35.7287 76.8114C35.9056 76.3794 36.165 76.5328 36.4422 76.9431C41.8375 78.6168 50.8681 78.308 56.6909 79.0336C57.2805 79.2496 58.0471 78.7918 58.7547 79.0984C59.7246 79.5498 60.2907 79.0855 60.9836 78.7723C61.2636 79.0704 61.6705 79.4375 62.4105 79.295C62.2159 78.9602 62.2955 78.6471 62.7672 78.511L62.947 79.688L64.5508 79.295C64.3798 80.3057 66.2638 79.7269 67.1365 79.8176C67.9148 79.5692 70.8631 80.1459 71.5088 79.688L71.5088 80.0789L71.8655 80.0789C71.8236 79.975 71.8243 79.8644 71.8675 79.7607C71.9107 79.6571 71.9945 79.5651 72.1085 79.4961C72.2225 79.427 72.3618 79.3841 72.5088 79.3725C72.6559 79.3609 72.8044 79.3813 72.9358 79.431C73.3869 79.7269 73.1835 80.5843 74.1829 80.4763L74.1829 79.9537C74.8905 79.7938 74.8787 80.364 75.5215 80.2798C75.9843 80.1977 76.0638 80.3813 76.1464 80.6059L76.5031 80.215C76.8274 80.5994 78.5168 80.526 79.3571 80.6059C78.9591 80.3143 79.0622 79.8478 79.1801 79.4289L78.2957 79.4289L78.2957 79.8219C78.0333 79.4721 77.8181 79.4505 76.8688 79.4958C75.3268 79.4224 74.9583 79.1222 73.3013 79.5606C73.148 78.5952 74.0768 77.3275 75.0851 78.5153C75.5097 77.8674 76.7921 78.7594 77.5822 78.254L76.8688 79.038C77.7532 79.038 78.3634 78.4829 79.3659 78.9062C79.3659 78.5002 79.4662 77.8825 78.8323 77.861C78.8635 77.9394 78.8683 78.0223 78.8463 78.1024C78.8244 78.1825 78.7763 78.2576 78.7062 78.3212C78.6362 78.3848 78.5462 78.4351 78.4439 78.4678C78.3417 78.5004 78.23 78.5145 78.1187 78.5088C77.4937 77.2843 79.2303 76.6861 80.616 76.9409C79.4986 77.4722 80.731 78.2022 80.4362 79.0315C81.2912 78.7097 81.4091 78.0229 81.3207 77.3318C81.3796 78.565 84.0271 77.9797 84.7081 78.6384C85.115 79.1589 85.6516 79.1438 85.7783 78.6384C86.197 78.7702 86.6629 78.9429 87.0285 78.6384C87.9689 78.2454 90.13 78.9991 91.1324 78.3771C90.3423 80.1048 92.6449 78.9343 93.3613 79.7507C94.3785 80.8305 97.0407 79.174 98.0785 79.9472L98.0785 79.6859C97.539 79.5563 96.9995 78.362 95.9382 78.5088L96.2949 79.0315C95.6079 79.39 95.3249 78.1547 95.0478 77.7249C93.2965 78.9926 93.5736 77.9063 92.1938 77.4636C92.5506 76.5997 94.6792 77.5046 95.4045 77.1375C96.8285 77.1375 97.4682 79.4245 99.1487 79.1611L98.2642 79.4224C98.4352 79.9364 99.1752 80.0379 99.8681 80.0703L99.5114 79.9407C100.166 79.0963 100.941 80.4439 101.832 80.202C101.59 79.6276 102.321 79.5541 102.545 79.2215C102.663 78.6449 103.663 79.1136 104.152 79.2863C104.069 79.2695 103.982 79.2668 103.897 79.2786C103.812 79.2903 103.732 79.3162 103.663 79.3542C103.594 79.3922 103.538 79.4412 103.499 79.4976C103.46 79.554 103.439 79.6162 103.439 79.6794C103.173 79.2259 101.855 79.593 102.368 80.0055C103.291 79.6513 105.75 79.9558 105.756 78.7637C106.381 78.7853 106.222 79.3101 106.113 79.6794L106.826 79.5476L106.826 79.9407C107.466 79.2453 112.723 80.5756 111.82 79.025C111.526 78.3274 111.747 78.1611 112.534 78.3771L112.177 77.4636C113.911 77.1915 112.817 78.4441 113.784 78.6384C112.705 78.6967 112.157 79.1611 112.357 79.9472C114.66 80.0552 118.012 79.4397 119.138 79.1611L118.604 79.9472C119.952 80.0703 119.837 79.66 121.278 79.7507C121.992 79.7939 122.408 79.7291 122.529 79.5541C122.823 79.1049 123.375 79.4677 123.242 79.8155L124.312 79.5541C124.964 80.7052 126.641 78.4376 128.057 79.2928C127.051 78.6449 128.646 78.5283 128.941 78.051C129.374 77.429 131.108 77.5392 131.081 78.3771L131.966 77.7292C132.349 78.0553 132.508 78.2583 131.874 78.7097C129.958 80.1999 134.283 80.5433 132.323 79.1654C133.071 78.7335 134.413 79.0552 134.82 78.6428C135.569 78.7356 135.869 79.606 134.997 79.6902L135.177 80.0811C135.354 80.0354 135.505 79.9457 135.602 79.8274C135.7 79.7092 135.738 79.5698 135.71 79.4332C136.491 79.7118 138.773 80.4806 139.457 79.4332C140.534 80.6534 141.061 78.5542 140.884 77.8653C141.509 77.8804 141.677 78.2259 141.598 78.6492C142.521 78.4916 143.768 78.9473 142.848 79.5649C143.505 80.1567 143.874 79.4267 143.732 78.917L144.446 79.3101C144.685 78.7075 145.168 78.2562 146.053 78.3944L145.516 78.7875L146.401 78.917C146.342 79.0488 146.28 79.1783 146.221 79.3101L147.471 79.5714L147.648 78.5261C148.588 79.8392 149.31 79.5822 150.95 79.4397C152.424 79.39 153.252 79.3922 154.782 79.0488C155.077 80.8175 158.592 78.4225 159.063 79.8327C158.654 80.0141 158.276 79.8327 157.993 79.5714C157.931 79.7032 157.872 79.8327 157.813 79.9645L161.204 80.2258C160.254 78.2367 164.311 79.8198 165.305 79.0488C165.998 79.1524 166.44 80.0573 167.268 80.094C167.619 78.1266 167.607 79.58 168.518 79.8327C168.456 79.5714 168.398 79.3101 168.339 79.0488C169.704 78.9429 170.373 79.1287 169.945 80.2258C171.193 80.58 171.49 78.6989 172.619 79.5779C172.682 79.4476 172.805 79.3373 172.966 79.2657C173.127 79.194 173.317 79.1655 173.504 79.1848C172.634 80.5865 176.334 79.66 173.861 79.1848C175.09 79.1006 175.689 79.5628 176.891 79.1848L176.358 79.5779C176.547 79.9515 177.446 79.6319 177.696 79.8392C177.788 79.9947 178.097 79.9709 178.318 79.9709L178.142 79.323C178.899 79.2021 179.76 80.2668 180.55 79.4526C181.107 78.6859 182.593 79.3511 182.779 78.6687L183.849 78.93C183.46 79.0445 182.646 79.1308 182.779 79.4526C184.813 78.8911 190.4 78.5477 192.768 78.4095C194.693 78.3037 196.981 77.5456 199.101 77.6234C201.621 77.807 200.625 77.1483 203.561 77.1008C205.967 76.8589 207.462 77.036 208.647 76.1872C211.595 75.9713 214.88 75.7834 218.099 75.0102C218.099 75.2975 218.017 75.8006 218.456 75.8611C220.293 76.5911 216.61 78.0791 218.102 79.0617C219.326 79.4937 216.18 80.2798 218.102 80.7614L217.569 81.5453C218.285 81.5453 218.483 82.109 218.639 82.5906L218.987 82.1954ZM219.871 82.1954C219.963 82.109 220.051 82.0205 220.14 81.9341L219.426 82.1954L219.603 82.4567C219.7 82.3768 219.789 82.2818 219.877 82.1954L219.871 82.1954ZM108.474 82.4567L107.938 82.4567L107.938 82.1954L108.477 82.1954L108.474 82.4567ZM100.178 82.3271C99.7207 82.3401 99.6382 82.163 99.5527 81.9341C100.245 81.7872 101.165 81.5713 101.336 82.1954C100.961 82.2812 100.571 82.3256 100.178 82.3271ZM113.557 82.0658L113.289 81.9341L114.359 81.4114L114.719 81.9341C114.374 82.0356 113.852 82.2299 113.557 82.0658ZM72.8856 81.9989C74.3332 80.8521 68.4278 80.1826 69.1384 81.5432C69.2032 82.0161 72.635 82.2883 72.8856 81.9989ZM112.392 82.0658L111.679 82.0658L111.679 81.6728L112.392 82.0658ZM68.419 81.608C68.419 81.1393 66.6854 81.2862 66.65 80.8888C66.6168 80.8008 66.5476 80.7224 66.4517 80.6641C66.3557 80.6058 66.2377 80.5704 66.1135 80.5627C65.4531 80.4309 65.1346 81.1307 64.4211 80.8888C63.7077 80.6469 62.5844 81.1911 62.0124 80.6923C61.4405 80.1934 60.7299 80.4633 60.6739 81.0205L59.0672 80.6275C59.2736 81.325 59.7305 81.7073 60.7624 81.4114C61.6469 81.2106 61.9417 81.8822 62.6375 81.2819C62.5933 81.8693 63.973 81.4093 64.2413 81.7375C65.1081 81.7375 67.1395 81.5993 68.5222 81.9341L68.419 81.608ZM94.464 81.4114C94.5525 81.325 94.6408 81.2365 94.7322 81.1501L94.0188 81.4114L94.1957 81.6728L94.464 81.4114ZM58.8754 81.1501L58.8754 80.8888L57.8053 81.0205C57.8436 81.4136 58.3949 81.4525 58.8754 81.4114L58.8754 81.1501ZM56.912 81.0853L57.2687 80.7592C56.455 80.1847 54.3705 79.9429 53.8811 80.7592C53.4005 80.2992 50.7264 79.6016 50.8473 80.7592L49.9628 80.7592L49.9628 81.2818C52.3008 81.1544 54.1672 81.4978 56.0275 80.7592C55.9066 81.2387 56.3725 81.6382 56.9179 81.081L56.912 81.0853ZM83.9387 80.8888L83.8503 80.7592C83.7913 80.8456 83.7293 80.932 83.6703 81.0205L84.0271 81.0205L83.9387 80.8888ZM52.0975 80.7592L51.384 80.7592L51.384 80.4979L52.0975 80.4979L52.0975 80.7592ZM49.6002 80.3662L49.2406 80.2366L49.2406 80.4979L49.9569 80.4979L49.6002 80.3662ZM45.4963 80.4979C45.4373 80.4093 45.3754 80.323 45.3165 80.2366L45.6791 80.2366L45.4963 80.4979ZM80.8165 80.1048L80.8165 79.9753L80.1029 79.9753L80.8165 80.2366L80.8165 80.1048ZM166.086 80.0401L165.909 79.9753L166.266 80.1048L166.086 80.0401ZM165.284 79.9083L165.016 79.714L165.552 80.1048L165.284 79.9083ZM146.017 79.8435L145.929 79.7139L146.109 79.9753C146.085 79.9299 146.053 79.8867 146.023 79.8435L146.017 79.8435ZM134.156 79.7139L134.333 79.4505L133.086 79.7139C133.434 79.8111 133.968 80.0379 134.162 79.7139L134.156 79.7139ZM130.854 79.1891C131.005 78.9732 131.149 78.7572 131.302 78.5412C130.778 78.714 130.288 78.565 129.876 78.2799C129.755 78.4959 129.637 78.7119 129.519 78.9278C130.801 79.0682 129.973 79.4569 129.162 79.5757C129.864 79.755 130.424 79.8889 130.86 79.1891L130.854 79.1891ZM114.978 79.3857L114.713 79.3209C114.831 79.0596 114.948 78.7982 115.069 78.5369C113.79 78.3037 115.105 77.5133 115.783 77.2303C115.7 77.9063 116.128 79.4872 114.984 79.3857L114.978 79.3857ZM107.932 79.3857C106.304 79.12 108.678 77.4031 106.684 77.6212C106.941 76.8373 107.637 77.4333 107.932 77.753C108.816 77.0208 110.933 77.334 110.965 78.4009C110.104 78.6168 110.281 77.6126 109.538 77.753L109.538 78.5369L110.072 78.5369L110.072 78.7982C109.052 78.5542 108.81 79.4289 107.938 79.3857L107.932 79.3857ZM160.201 79.3209C160.117 79.3382 160.029 79.3411 159.943 79.3291C159.857 79.3172 159.776 79.2909 159.706 79.2521C159.636 79.2134 159.58 79.1634 159.541 79.106C159.502 79.0486 159.482 78.9854 159.482 78.9214L160.195 78.9214L160.201 79.3209ZM124.345 79.3209C124.171 78.7745 123.519 78.8587 122.918 79.0596C122.8 78.4117 123.882 78.5909 124.521 78.6665L124.345 79.3209ZM82.155 79.1244C82.2818 78.8868 81.7865 78.7659 81.53 78.6665L81.53 79.3144C81.7865 79.3252 82.0784 79.3533 82.161 79.1244L82.155 79.1244ZM63.8758 79.3209L63.519 79.3209C63.5779 79.2345 63.637 79.146 63.6989 79.0596L63.8758 79.3209ZM161.463 79.1891L160.93 79.0596L161.106 78.6665C161.218 78.8414 161.336 79.0164 161.454 79.1891L161.463 79.1891ZM72.2694 79.1891C70.1054 78.5304 72.2429 78.7032 71.9127 77.6212L72.6262 77.753C72.1367 77.9625 72.2813 78.7205 72.2607 79.1891L72.2694 79.1891ZM69.9491 79.1244L69.5924 79.0596C70.0553 78.552 69.6926 77.9905 69.2357 77.4916C69.0676 77.9797 68.4544 78.064 67.8087 78.0143C68.0535 77.2757 66.2167 77.239 66.3818 76.4464C66.8123 76.7034 67.3134 77.0424 67.8087 76.969L67.8087 76.576C67.9503 77.1699 69.3448 76.6299 69.504 77.1655C69.5777 77.5564 70.2323 77.4916 70.6627 77.4917C70.0023 77.8912 70.4445 78.3253 71.0195 78.6665C70.7394 78.8782 70.3413 79.2194 69.9403 79.1244L69.9491 79.1244ZM151.118 79.0596L150.581 79.0596C150.661 78.7983 150.693 78.3145 151.118 78.4117L151.118 79.0596ZM99.7414 79.0596C99.1517 78.7313 98.4854 78.4592 97.7778 78.5369C97.8397 78.4052 97.8986 78.2756 97.9576 78.1439C98.1463 78.4289 98.9896 78.4441 99.0279 78.0791C99.0014 77.6882 96.4629 77.7573 97.2442 77.0986C97.8898 77.1331 99.6028 76.5932 100.098 76.969C99.5969 77.4096 100.222 78.3426 99.7325 79.0596L99.7414 79.0596ZM143.803 78.9278C143.157 78.7356 143.27 78.3166 143.983 78.4052C143.912 78.5801 143.856 78.7551 143.794 78.9214L143.803 78.9278ZM102.418 78.9278C102.298 78.8414 102.18 78.7551 102.062 78.6665C102.171 78.7551 102.286 78.8414 102.41 78.9213L102.418 78.9278ZM122.219 78.7982L121.862 78.7982L121.862 78.4052L122.219 78.7982ZM121.334 78.7982C120.521 78.8112 120.603 78.1201 120.621 77.6212C122.67 77.794 120.907 78.0575 121.317 78.7982L121.334 78.7982ZM119.551 78.7982L119.017 78.7982C118.873 78.2907 120.45 77.6385 120.264 78.5369L119.551 78.5369L119.551 78.7982ZM110.901 78.7982L110.632 78.7982C110.494 78.4635 111.316 78.47 111.702 78.4052C111.467 78.5672 111.178 78.8112 110.883 78.7982L110.901 78.7982ZM136.141 78.6665L135.601 78.2735L136.135 78.1417L136.141 78.6665ZM133.018 78.4721L132.753 78.2756C134.717 77.3254 135.085 78.9624 133.001 78.4721L133.018 78.4721ZM101.714 78.5369C100.876 78.4311 100.582 77.889 101.534 77.753C101.575 78.0143 101.634 78.2734 101.696 78.5369L101.714 78.5369ZM90.1182 78.5369C89.4578 78.3447 89.5964 77.8782 90.2952 78.1439L90.1182 78.5369ZM61.4936 78.2756C60.8597 78.3231 60.5943 77.5716 59.9781 77.8825C60.5354 77.3275 61.8326 76.4161 63.0119 76.1851C62.5314 76.82 63.6311 77.0856 63.5456 77.6212L62.8321 77.6212C62.9766 78.1136 61.9977 78.2734 61.467 78.2734L61.4936 78.2756ZM118.489 78.1439L118.133 77.8826L118.846 77.753L118.489 78.1439ZM66.5793 78.1439C66.4585 77.8825 66.3406 77.6212 66.2226 77.3599L66.5793 77.3599L66.5793 78.1439ZM103.415 77.6882C102.752 77.5046 102.578 77.4852 102.613 77.2303L104.753 77.2303C104.441 77.6256 104.211 77.9085 103.388 77.6882L103.415 77.6882ZM58.908 77.753C58.2594 77.5111 57.3601 77.0792 56.9444 77.6212C56.0334 76.7725 58.0766 76.9561 58.1945 76.3146C58.4215 76.6667 58.7222 77.2411 59.2647 76.9625C59.1202 77.2303 58.9993 77.4916 58.8813 77.753L58.908 77.753ZM53.9136 77.753C53.8517 77.6666 53.7926 77.578 53.7337 77.4916L54.0904 77.4916L53.9136 77.753ZM54.9838 77.6212C54.8629 77.4916 54.745 77.3599 54.6271 77.2303L55.1607 77.0986L54.9838 77.6212ZM219.102 77.4917C219.043 77.3599 218.984 77.2303 218.922 77.0986L219.279 77.2303L219.102 77.4917ZM72.1073 77.4917L71.7506 77.2303L72.2871 77.2303L72.1073 77.4917ZM52.3068 77.3599L52.1299 77.2303L53.2 77.2303C52.914 77.321 52.4837 77.5305 52.2803 77.3599L52.3068 77.3599ZM188.953 77.2303L188.776 77.0986L189.489 76.7077C189.752 76.9777 189.357 77.4701 188.926 77.2303L188.953 77.2303ZM98.6888 77.2951L98.509 77.2303L98.8657 77.3599L98.6888 77.2951ZM64.9725 77.3599L64.6158 77.3599C64.6747 77.2303 64.7337 77.0986 64.7956 76.969L64.9725 77.3599ZM64.4388 77.3599L63.7254 77.2303C63.9937 77.1267 64.3298 77.0943 64.4124 77.3599L64.4388 77.3599ZM49.6328 77.1655L48.7483 76.969C49.4942 75.9 49.9658 76.9496 50.8886 76.7077C50.6616 77.1418 50.4994 77.3729 49.6061 77.1655L49.6328 77.1655ZM71.217 76.969L70.8602 76.7077L71.3939 76.7077L71.217 76.969ZM47.5808 76.969C47.286 76.9798 47.2093 76.753 47.1326 76.576L48.0171 76.7077C47.911 76.8502 47.8313 76.9776 47.5541 76.9776L47.5808 76.969ZM44.6325 76.9042C44.3937 76.8157 44.5912 76.2887 44.6325 76.0533C45.461 76.1462 45.5907 77.1094 44.6089 76.9042L44.6325 76.9042ZM51.947 76.7077L51.5903 76.4464L52.127 76.4464C52.0415 76.5328 51.9825 76.6213 51.9236 76.7077L51.947 76.7077ZM184.492 76.4464L184.492 76.3146L183.955 76.4464L184.492 76.576L184.492 76.4464ZM43.5652 76.576L43.3883 76.185L43.745 76.185L43.5652 76.576ZM35.3602 75.792C34.8413 75.7682 33.8477 75.9 33.7533 75.5307C34.2958 75.4875 35.3131 75.2802 35.3337 75.792L35.3602 75.792ZM194.484 75.2046L194.484 75.0081C194.154 74.9476 194.021 75.1808 193.95 75.4011L194.484 75.4011L194.484 75.2046ZM202.957 74.0945L203.045 73.9628L202.161 73.9628L202.875 74.2241L202.957 74.0945ZM207.506 73.6367L207.329 73.5719L207.686 73.7015L207.506 73.6367ZM5.45302 72.6583C6.46428 71.4316 2.50476 71.1185 3.38924 69.2029C3.65753 67.8358 0.63257 68.1101 3.92577 67.568C3.04129 67.555 3.88449 66.3802 3.04129 66.1966C2.23348 65.9461 2.45165 65.5617 3.04129 65.3479C2.00057 64.9591 3.30956 63.4582 4.11148 63.3221C4.68344 63.2465 4.06729 62.1581 4.73654 62.0803C5.60333 61.7542 5.27321 61.4324 5.18181 60.5685C4.85161 59.4088 5.94834 59.4369 5.89527 58.4089C5.63582 58.7328 4.97251 58.6054 4.46836 58.5385L4.46836 59.5837L4.1086 59.5837C4.21503 59.3841 4.23792 59.1658 4.17439 58.9565C4.11086 58.7473 3.96379 58.5567 3.75188 58.4089C4.34152 58.1152 4.07918 56.8842 5.35874 57.1023L5.35874 57.6249C6.4319 57.6854 5.87456 56.2363 6.34038 55.8605C6.69123 55.4696 6.77388 54.9448 6.07219 54.88C6.3906 54.3206 6.69426 53.7095 6.42891 53.1825L8.19788 53.5734C6.65004 53.8714 8.04447 55.3767 7.6612 56.057L9.12064 56.057C8.64893 56.3637 8.10941 56.6574 7.5168 56.5797C7.5345 57.0375 8.00913 57.1606 8.58699 57.1023C8.58699 57.6271 7.80278 57.2621 7.5168 57.5601C7.25147 57.9424 7.83228 58.0871 7.5168 58.6054C7.15418 59.0503 8.10645 59.6615 7.87354 59.9768C7.11289 63.0306 9.96971 64.1773 10.1908 60.2381L9.47737 60.1064C9.67195 59.6097 10.6419 58.7328 9.92551 58.4737C9.49211 57.9122 10.2203 56.368 10.0139 55.6661L9.65718 55.6661L9.83411 54.3595L8.94962 54.6208C8.87592 54.379 8.79636 54.0183 8.41309 54.0982C8.28926 53.7872 8.94968 53.7635 9.29756 53.7073C9.30603 53.6256 9.28725 53.5437 9.24286 53.4685C9.19849 53.3933 9.12979 53.3272 9.04276 53.2757C8.95574 53.2243 8.85303 53.1892 8.74333 53.1733C8.63364 53.1574 8.52027 53.1613 8.41309 53.1847C8.03867 52.5368 9.97272 52.4482 10.1083 52.0077C9.5983 50.2562 10.0523 48.6256 9.48328 46.52L10.1967 46.52C10.2557 46.0686 10.1968 45.6086 9.48328 45.6043C9.60416 45.4315 9.72208 45.2566 9.84 45.0816C7.60227 44.7123 12.0542 43.1379 9.48328 42.0775C10.3088 41.8465 10.1171 41.4059 10.2882 39.7905C9.94025 37.7064 11.6738 37.3738 10.3765 36.4581C11.1519 36.1147 10.9663 34.4431 11.0901 33.5836L10.7334 33.5836C10.7334 33.3806 10.7127 33.1862 11.0016 33.061C11.4262 32.7975 10.7805 32.277 11.0016 31.8839C11.8242 30.9726 11.6974 29.2924 10.5535 28.6164C11.9274 26.2818 13.2246 22.1676 12.1603 19.7315C13.0654 19.7661 13.3396 19.021 13.5872 18.4249C15.0614 18.9778 13.3514 20.2131 13.944 21.1677L15.1941 21.0381L15.1941 21.4312C14.5514 21.1051 14.4098 21.9797 13.767 21.8242C14.1769 22.673 12.7529 23.7874 13.944 24.0465C13.6727 24.5325 13.2247 25.2214 14.1239 25.3531L14.1239 24.7052C15.144 25.2689 13.0388 25.7851 13.4103 26.6662L14.6574 26.2731L14.6574 26.7958L14.1239 26.6662C14.6693 27.1262 14.0059 27.4631 13.4103 27.7115C13.7965 27.759 14.8374 27.7698 14.8374 28.0376C14.7135 28.3896 13.2423 28.4306 13.5872 29.0181C14.056 28.9338 14.2476 29.2211 14.3007 29.5407L13.944 29.1477C13.1273 29.6595 13.767 30.8624 12.9622 31.4347C13.2246 32.9465 12.8531 35.1342 13.767 36.4667C13.3631 36.4667 12.7794 36.5164 12.6969 36.2054C11.8654 37.5638 14.69 37.2853 14.4806 38.4256C13.6669 37.9699 13.089 38.4256 13.0536 39.0735L13.5872 39.0735C13.0212 39.2613 13.6255 39.9373 13.0536 40.1187C12.5494 40.2073 12.8001 41.272 12.517 41.4253C12.6173 41.9134 13.148 42.5613 12.3401 43.125L12.8738 43.2546C12.9534 42.9932 12.9858 42.5095 13.4103 42.6067C13.3484 42.7794 13.2895 42.9544 13.2305 43.1293L13.5872 43.1293C13.714 43.4424 12.9062 43.6195 12.517 43.7772C12.7824 44.0709 13.1067 44.3797 13.5872 44.2998C13.6138 44.5525 13.5872 44.7015 13.0536 44.7577C11.7387 44.9736 12.5288 46.8374 12.1691 47.3709C11.6384 48.2347 13.1156 49.2001 11.9923 50.0488C13.4664 50.3102 16.1199 48.3751 13.9529 47.697L14.8374 47.4357C14.5072 47.3838 14.0148 47.3255 14.1239 47.0448C15.5686 46.1809 14.0561 45.3991 14.8374 43.5159C15.3091 41.1726 14.8374 41.0539 15.0143 39.1966C15.3445 38.5487 14.6811 38.4968 15.1027 37.9569C15.3975 37.6157 15.1351 37.4364 14.8374 37.2377C15.8899 36.6158 13.7729 35.8016 13.767 35.2768L14.3007 35.2768L13.767 34.6289L15.5508 34.4971C15.4388 33.9982 15.1793 32.9119 15.9076 32.6679C14.9199 31.9034 16.7921 30.0763 15.371 29.4003C14.8167 29.2837 14.8138 29.0462 14.8374 28.7524L15.5508 29.1433C15.9813 28.6574 16.1051 27.9382 15.371 27.5754C16.3056 27.4134 15.3297 25.9082 16.2555 25.7462C15.6482 25.4762 16.4353 25.0421 15.9872 24.6361C15.6923 23.9429 16.6475 24.0098 16.4323 22.8717C16.0077 21.2239 16.8775 20.6775 16.4323 19.2132L15.7188 19.3428L15.8988 18.9519C15.8157 18.9683 15.7285 18.9707 15.644 18.9587C15.5595 18.9468 15.4797 18.9209 15.4109 18.883C15.3421 18.8451 15.286 18.7962 15.2469 18.74C15.2078 18.6838 15.1867 18.6219 15.1852 18.5588L16.0696 18.5588C16.2495 16.6411 22.4144 17.5244 23.2045 16.3387C24.145 16.8462 24.5047 15.95 25.5248 16.2718C26.6127 16.2847 29.5491 15.7794 30.699 15.6239C32.6743 15.3431 36.625 15.7038 38.1905 14.6434C38.0225 15.3237 40.1276 15.4403 40.5109 14.9695C40.8587 14.652 41.6901 15.1531 42.1147 15.0364L42.1147 14.7751C43.5888 15.1855 43.347 14.7168 45.2369 14.7751C47.0854 14.9284 47.9581 14.9263 49.5177 15.0343C51.8586 15.0947 55.8211 14.0905 58.1709 14.7751C58.2888 14.5138 58.4097 14.2525 58.5276 13.9912C60.447 14.6801 62.7111 14.5613 64.772 14.5138C66.2874 13.8033 65.9896 13.5527 67.7202 13.9912C72.7529 14.3043 78.2691 13.6629 83.4197 13.7277C85.283 13.9761 86.595 13.1359 88.2343 13.4685C88.4082 13.7147 91.2356 13.2742 91.1825 13.7299C91.6955 13.2461 93.1992 14.0128 93.323 13.3368C93.7594 13.6543 95.2659 13.7428 95.6403 13.3368C96.059 13.7342 101.277 13.529 101.616 13.5333C102.598 13.1942 103.164 13.8486 104.025 13.5333C104.886 13.218 104.857 13.853 105.809 13.5981C106.679 13.2245 109.347 11.838 109.019 13.5981C109.609 13.6759 110.155 13.3821 110.626 13.0755C110.803 14.7384 113.725 13.4577 114.459 12.8142C115.181 13.6651 115.453 13.2223 116.599 13.5333C117.393 13.7709 118.074 13.1597 119.008 13.4685L119.008 13.0755C119.825 13.2569 120.603 13.8141 121.862 13.5981L121.862 12.8142C122.452 12.6932 122.511 13.2461 122.576 13.5981C124.28 12.6997 131.126 14.9241 130.604 12.8142C132.508 13.7838 135.934 13.7277 138.184 13.3368C141.775 13.6435 151.572 13.5117 155.042 13.0755C155.104 13.6262 157.816 13.5074 158.164 13.3368C158.332 13.1079 160.797 13.7147 160.93 13.4016C162.068 13.1295 164.677 13.7126 165.744 13.0755C166.416 13.3044 167.088 13.5895 168.064 13.4685C167.97 11.9978 172.51 14.4404 173.961 13.2072C174.385 13.9674 180.347 13.1403 178.678 12.095C176.67 12.4816 174.105 11.2506 171.897 11.7689C171.013 11.743 168.681 11.0195 167.885 11.7689C168.247 11.337 165.025 11.473 165.028 11.2462C164.807 11.0152 163.4 11.9157 163.156 11.5724C160.664 11.0648 159.848 11.2246 157.002 11.3758C153.703 11.0627 151.943 11.1232 148.795 11.1145L148.795 11.5076C147.087 10.6567 147.117 11.2916 145.764 11.5076L145.764 11.108C145.375 11.1728 144.555 11.1663 144.693 11.5011C144.266 11.0692 142.488 11.6242 142.105 11.3045C141.321 10.7776 139.991 10.9072 138.449 10.8467C136.2 10.7409 135.542 11.5486 133.812 10.8467C133.788 11.4341 132.632 11.013 132.205 11.2398C131.65 11.3499 131.706 12.6176 130.958 12.4146L130.958 11.3693C130.565 11.5313 130.244 11.6523 129.796 11.3693C128.976 11.0519 128.098 11.6847 127.031 11.3693C127.092 11.5443 127.151 11.7192 127.21 11.892C126.187 11.46 125.055 10.9936 124 11.108L124 11.5011C120.639 10.8532 117.891 11.7171 114.901 11.3693C114.825 11.6782 114.792 12.054 114.188 11.9589C113.477 11.9892 112.18 12.4535 112.581 11.5011C111.635 11.717 110.276 11.825 109.55 12.4146C108.961 10.9029 101.236 12.0302 100.007 12.1533C99.5203 12.3865 97.0584 11.7473 96.6162 12.1533C95.9381 12.5852 95.1421 12.4211 94.5524 12.0237C94.4345 12.285 94.3166 12.5464 94.1957 12.8077C93.211 11.27 88.6294 12.8077 86.881 12.1598C85.8993 12.0669 84.9115 12.8509 83.4934 12.488C82.0193 12.0691 80.79 12.9934 79.9261 12.2915C79.7463 12.5075 79.5693 12.7234 79.3895 12.9394C79.2715 12.7234 79.1507 12.5075 79.0327 12.2915C77.7886 13.1554 71.5029 11.8293 70.2912 12.9394C70.0229 12.5917 69.3478 12.8185 68.8643 12.9394L68.8643 12.5485L66.9066 12.5485L66.9066 12.9394C66.5351 12.0216 63.7431 12.8271 63.1593 13.0712C61.7619 12.907 61.9299 12.4988 60.5737 12.9416C59.8278 12.663 57.6874 12.7256 57.8083 13.7255C57.3513 13.1532 56.0098 12.4297 55.8447 13.4642C54.291 12.2354 51.8292 13.2785 50.1369 13.1359C49.2023 12.704 45.9827 13.0539 45.054 13.3973C43.7067 13.5981 43.1878 13.3497 41.4837 13.6586C39.7796 13.9674 39.1251 13.6154 38.0077 14.3777C36.8667 13.1878 34.0866 14.4814 32.4768 14.1164C31.3447 13.773 31.2592 14.868 30.4131 14.313C29.275 14.0711 24.6462 14.0408 23.5465 13.5938C21.7982 14.2158 18.2987 14.151 16.4088 14.6391C16.0255 12.6025 14.9848 14.246 14.1799 14.9004C13.4016 15.477 12.5259 15.4122 11.5943 15.9457C12.809 17.0255 9.23566 17.8008 8.56051 16.9909C7.3193 17.5611 7.55811 19.3558 8.20379 20.2585L7.84705 20.2585L7.84705 20.7811L6.41999 20.5198C6.55561 20.8546 5.73603 20.8481 5.34981 20.9107L6.41999 21.5586L5.53551 22.2065C7.66121 22.3577 5.8834 23.2194 5.00187 22.2065C5.02546 22.66 4.83384 23.5023 5.53551 23.5153L4.65104 23.7766C4.84858 24.1437 5.37336 24.2085 5.89815 24.1675C4.8751 26.0874 3.13865 29.3615 7.14827 29.6552C6.06922 29.5062 6.06917 27.9274 4.82796 28.3486C4.72182 28.057 5.37929 27.7828 5.71244 27.5646C5.64757 27.8886 5.77437 28.1866 6.2461 28.2125C6.07804 27.7288 6.71778 27.5322 7.31627 27.4286C7.05977 26.9794 6.92121 26.5042 7.31627 26.1328C6.72663 26.3703 5.84218 26.6619 6.2461 27.178C4.52726 27.029 6.73845 26.4546 6.2461 26.001C6.95073 26.217 6.92426 25.1069 7.49622 25.2171C6.92426 24.8435 7.04209 23.8111 7.76442 23.6492C8.29511 23.837 9.10302 26.1652 7.85296 26.001C8.26571 26.7677 7.46966 27.1845 7.76154 27.8303C8.22442 28.178 7.56696 29.4003 8.20968 29.5299C7.49326 29.9618 7.29268 30.9035 7.67301 31.6205L8.20968 31.0978C8.0947 31.7738 7.04505 33.0912 7.76442 33.3849C8.23319 33.8168 7.66126 36.6244 6.2461 36.0629C6.87996 35.7864 6.58219 35.2984 6.2461 34.888C7.03032 34.8988 6.97132 33.4562 6.78263 33.1236C6.76493 32.6917 4.63639 32.4195 4.81917 32.0114L5.88936 32.1431L5.88936 31.8818C7.03328 32.0977 7.06864 30.1087 5.71244 30.7048L5.71244 29.5299C4.26484 28.9382 3.17698 37.6394 5.53264 36.1946C5.5916 36.3674 5.65348 36.5423 5.71244 36.7173L6.95955 36.4559L7.49622 37.8921C6.67366 37.8468 7.0186 38.3996 5.80097 38.2204C4.93714 38.175 4.74839 38.1966 4.64226 38.5465C4.66468 38.4856 4.66793 38.4218 4.65162 38.3599C4.6353 38.298 4.59984 38.2396 4.5481 38.1892C4.49637 38.1388 4.42972 38.0977 4.35305 38.0691C4.27637 38.0404 4.19179 38.025 4.10572 38.0239C4.318 38.8748 2.58735 40.5485 3.92881 41.421C2.94703 41.4469 3.76667 42.4684 4.10572 42.8593L3.74884 42.8593C3.94049 44.0018 3.1829 43.9845 3.12394 45.276C2.71411 46.507 4.69524 46.6971 2.85846 47.17C3.81665 47.6905 1.67928 49.3729 3.57207 49.3923C3.67527 49.848 3.22417 49.956 2.68759 49.7832L2.68759 50.6989L2.33965 50.6989C2.21877 50.9991 2.87328 51.1092 3.22412 51.2215C2.85265 51.3921 2.9028 51.7139 3.04431 52.0055C1.43161 51.837 2.35445 54.217 2.33086 55.1413C3.06497 54.9448 5.96312 53.8153 5.72136 55.1413L3.93758 55.1413C4.85744 55.8367 5.01079 56.7524 3.40105 56.1866C3.52193 56.0138 3.63985 55.8389 3.75777 55.664L3.04431 55.664L3.22412 55.2731L2.68759 55.2731C2.74655 55.489 2.80843 55.705 2.86739 55.921L2.15393 55.921L2.15393 55.3983C2.06787 55.3994 1.98329 55.4149 1.90662 55.4435C1.82994 55.4722 1.76314 55.5133 1.71141 55.5637C1.65967 55.6141 1.62436 55.6724 1.60805 55.7344C1.59174 55.7963 1.59484 55.8601 1.61727 55.921L2.15393 55.921C2.17752 56.2341 2.15384 56.4566 1.61727 56.6401C0.924426 56.7481 1.20748 57.7631 0.903811 57.9467C0.948031 58.4845 0.0193349 61.5015 1.78829 60.8882L1.96521 61.9335C-0.50543 61.3849 -0.042555 63.6396 1.08074 64.5466L0.196245 64.2853C-0.293165 65.3306 0.322984 66.229 0.376054 67.2246C0.502824 67.7494 -0.163481 67.9978 0.376054 68.596L1.08951 68.3347C0.962739 69.0819 2.11846 69.2504 1.97398 69.9026C3.13561 69.7493 3.07086 70.9349 2.68759 71.4727L3.57207 71.3409C3.519 71.9975 4.53906 73.4876 5.45302 72.6583ZM1.7058 70.3065L1.61727 70.1769L1.79721 70.4382C1.76773 70.3907 1.73528 70.3475 1.7058 70.3043L1.7058 70.3065ZM238.342 69.6586C238.283 69.5722 238.221 69.4858 238.162 69.3973C238.221 69.4772 238.283 69.5636 238.342 69.6499L238.342 69.6586ZM228.442 69.2677C229.123 68.9092 228.801 68.0799 227.994 68.0907C229.665 67.9697 229.173 66.1578 227.46 66.3932C227.545 66.8251 226.413 66.7668 226.576 67.3737C226.979 68.0151 226.85 69.8508 228.442 69.259L228.442 69.2677ZM216.578 67.3067L216.578 67.1771L216.041 67.1771L216.041 67.4384L216.578 67.4384L216.578 67.3067ZM215.419 67.0454L215.508 66.9158L214.794 66.9158L215.328 67.1771C215.357 67.1253 215.39 67.0821 215.419 67.0432L215.419 67.0454ZM241.196 67.0454L240.483 66.6545L241.553 66.6545L241.196 67.0454ZM218.182 66.9158L217.468 66.7841C217.589 66.5227 217.707 66.2614 217.825 66.0001C218.282 66.0541 218.173 66.5832 218.182 66.9072L218.182 66.9158ZM228.887 65.5315C228.79 64.6546 229.957 63.0176 228.53 62.3287C229.536 61.9702 229.12 60.4304 227.817 60.4995C227.077 62.2369 226.657 64.0388 226.567 65.8576L229.064 65.9872L228.887 65.5315ZM215.151 65.5315L214.971 65.4645L215.328 65.5963L215.151 65.5315ZM238.251 64.2897L238.162 64.1579C238.221 64.2465 238.283 64.3329 238.342 64.4192C238.313 64.3804 238.283 64.3372 238.251 64.294L238.251 64.2897ZM217.563 63.3718L217.471 63.2422C217.533 63.3286 217.592 63.415 217.651 63.5035L217.563 63.3718ZM241.019 63.2422C240.571 62.9615 240.2 62.6159 240.306 62.197C240.568 62.2881 240.781 62.4415 240.91 62.6324C241.039 62.8232 241.077 63.0404 241.016 63.2487L241.019 63.2422ZM217.115 62.7196C217.289 62.2272 217.168 62.1365 216.758 62.0717C216.731 62.4345 216.41 63.1861 216.938 63.2487L217.115 62.7196ZM8.93494 63.1105L8.75499 62.9809C8.87587 63.0673 8.99393 63.1537 9.11186 63.2422L8.93494 63.1105ZM2.87027 63.1105C2.74939 62.9809 2.63147 62.8491 2.51355 62.7196C3.24176 62.8945 3.03243 61.8903 3.76065 62.0717C4.00536 62.6742 2.92931 62.6181 2.86739 63.1169L2.87027 63.1105ZM1.44336 62.9809C1.0483 62.8556 1.07485 62.5835 1.08663 62.333L2.33965 62.7239C2.08904 62.9118 1.82376 63.1558 1.44048 62.9874L1.44336 62.9809ZM242.089 61.8039L241.556 61.8039C241.626 61.5879 241.759 61.3504 242.089 61.413L242.089 61.8039ZM13.6609 61.6073L13.3956 61.413C14.0266 61.2359 13.1539 60.3029 13.7524 60.1042C14.1622 59.9768 14.112 59.6075 14.1091 59.3203C13.5194 59.4844 12.8768 58.8495 13.5725 58.6724C12.3254 57.9813 15.0113 57.0829 14.286 54.8822C13.8674 55.0981 13.4015 55.1521 13.0389 54.8822C15.0555 53.6015 14.4275 53.6036 13.7524 52.269L14.286 52.4007C14.631 51.8824 13.9411 51.4807 14.286 50.9624L13.4015 51.092L13.5784 51.6168C12.2842 51.2388 12.8856 52.1221 13.2217 52.662L12.5083 52.662L12.5083 52.9233L13.2217 52.9234L13.2217 53.1847L12.5083 53.0529C12.0837 54.0399 11.2759 54.7094 12.6881 55.4696C11.5559 55.9577 10.8336 57.7524 12.3313 58.2771C11.8832 58.7328 13.5666 59.195 12.5967 59.6507C12.3018 59.7112 12.3254 59.925 12.3313 60.1064C11.7771 59.9574 11.7593 59.4801 11.7947 59.0611L11.4379 59.0611L11.4379 60.7608L11.7741 60.7608L11.7741 60.3677L12.4875 60.3677C12.3106 60.6312 12.1308 60.8925 11.9539 61.1538C12.4757 61.2661 13.3808 61.359 13.201 61.8017L13.9144 61.8017L13.6609 61.6073ZM217.292 61.2121C217.265 60.858 217.722 60.331 218.005 59.9703C217.339 59.8062 218.182 58.5838 217.12 58.532C216.976 58.9078 216.932 59.303 217.3 59.5773C216.672 59.4801 216.142 59.8753 215.694 60.2252C216.649 60.2835 216.419 61.1754 217.3 61.5318L217.292 61.2121ZM227.021 61.0156L227.109 60.7543L226.573 61.0156L226.929 61.2769C226.953 61.2013 226.982 61.1128 227.015 61.0264L227.021 61.0156ZM11.7032 61.0804L11.6149 60.886C11.553 61.0156 11.494 61.1473 11.4351 61.2769L11.7741 61.2769L11.7032 61.0804ZM1.80312 60.7543L1.26644 60.6247L1.80312 60.493L1.80312 60.7543ZM239.675 59.9811C239.642 59.8948 239.613 59.8062 239.583 59.7198C239.442 59.9358 239.397 60.1842 239.763 60.2425L239.675 59.9811ZM241.19 60.1107L240.653 60.1107L240.653 59.8494C241.228 59.9293 241.697 59.6572 242.081 59.3268C242.423 59.7587 241.88 60.1323 241.196 60.1107L241.19 60.1107ZM226.652 59.9163C226.62 59.8494 226.59 59.7846 226.561 59.7198L226.741 60.1107L226.652 59.9163ZM13.1981 59.8494C13.0802 59.763 12.9593 59.6766 12.8414 59.5881C12.9741 59.6766 13.0949 59.763 13.2128 59.8494L13.1981 59.8494ZM242.785 59.7198C242.178 59.1454 242.078 58.5061 242.608 57.8906C243.021 58.4046 242.918 59.0849 242.8 59.7198L242.785 59.7198ZM8.5605 59.7198C8.50154 59.6334 8.44261 59.5449 8.38069 59.4585L8.73743 59.4585L8.5605 59.7198ZM2.31604 59.7198L1.95931 59.7198L1.95931 59.0719L2.84378 59.0719C2.79662 59.3181 2.76125 59.7392 2.33965 59.7198L2.31604 59.7198ZM9.45088 59.5881L8.91724 59.5881L9.09416 59.1972C9.22978 59.3267 9.34764 59.4585 9.46556 59.5881L9.45088 59.5881ZM228.442 59.2685C228.359 59.0525 227.932 58.9942 227.637 58.9423L227.637 59.465L228.521 59.465L228.442 59.2685ZM218.362 59.1389L218.182 59.0719L218.539 59.2037L218.362 59.1389ZM227.549 58.6162C227.619 58.234 228.265 58.2102 228.707 58.1584C228.53 57.8539 228.35 57.5494 228.174 57.2427L229.058 57.3744L229.058 56.8518C228.501 56.9663 228.227 56.4199 227.988 56.0678C227.569 56.4134 227.089 56.1175 226.741 55.8065C226.004 56.6466 227.33 56.7244 227.625 57.3744L226.555 57.1131C226.122 57.8409 227.404 58.1713 226.912 58.9423C227.239 58.9488 227.475 58.9467 227.549 58.6098L227.549 58.6162ZM2.51067 58.8106L2.33086 58.8106C2.295 58.6368 2.32616 58.4591 2.42098 58.2977C2.51581 58.1362 2.67047 57.9975 2.86739 57.897C2.80254 58.1346 2.76422 58.789 2.51067 58.8041L2.51067 58.8106ZM8.93192 57.1088L8.75211 57.1088C8.6902 56.7848 8.81693 56.4868 9.28864 56.4609C9.44785 56.7654 9.48914 57.139 8.93192 57.1088ZM241.464 55.6057C241.252 54.8606 240.813 55.5841 240.659 55.9318L241.544 55.9318L241.464 55.6057ZM228.887 55.2796C229.25 54.7807 228.003 54.6317 228.003 54.2991C227.92 53.7764 228.548 53.8671 229.073 53.973L229.073 53.4374L228.716 53.4374C229.863 51.9256 226.552 51.9969 228.539 51.6081C226.808 51.0466 227.378 50.4765 228.807 50.3015C228.964 49.9949 227.805 48.265 228.716 48.0793C228.2 47.9346 228.238 47.602 228.539 47.2953L227.826 47.1636C227.737 47.5005 227.643 47.697 227.024 47.8115C225.163 48.1786 228.38 48.9042 226.399 49.118C227.333 49.2865 227.793 49.74 227.469 50.4246L226.219 50.0316L226.219 50.6795L226.576 50.6795C225.986 51.1417 226.231 52.5411 227.46 52.2474C227.357 53.1912 225.517 54.623 226.923 55.515C226.814 55.1673 227.239 54.9232 227.637 54.731C227.867 55.0139 227.675 55.2558 227.28 55.3789C227.802 55.4955 228.704 55.7698 228.887 55.2774L228.887 55.2796ZM218.005 55.6705C217.887 55.5841 217.766 55.4977 217.648 55.4091C217.766 55.4955 217.887 55.5819 218.005 55.6683L218.005 55.6705ZM11.9657 55.4739L11.7859 55.4091L12.1426 55.5409L11.9657 55.4739ZM12.8502 54.6252L12.1367 54.3638L12.8502 54.3638L12.8502 54.6252ZM5.89225 54.4956L5.71546 53.3186L6.07219 53.3186L5.89225 54.4956ZM242.794 54.1025C241.783 53.5151 241.756 52.9838 243.151 53.4546C243.039 53.6533 242.918 53.8823 242.8 54.1004L242.794 54.1025ZM216.749 54.1025L216.572 53.8412L216.929 53.8412C216.876 53.9255 216.817 54.014 216.755 54.1004L216.749 54.1025ZM6.96257 53.906L6.78565 53.7116L7.14237 54.1025L6.96257 53.906ZM218.889 53.973L218.005 53.8412L218.182 53.4503C217.35 53.9039 216.522 53.2171 216.666 52.6642C216.799 52.4482 217.701 52.7895 217.737 52.4051C218.848 51.8371 217.955 50.7572 219.075 50.4441C219.016 51.6189 218.956 52.7945 218.895 53.9708L218.889 53.973ZM227.292 53.7095C227.174 53.6209 227.056 53.5345 226.935 53.4482C227.044 53.5345 227.162 53.6209 227.292 53.7095ZM4.66284 53.7095C3.83733 53.5885 3.20355 53.1804 2.69939 52.6642L4.83977 52.9255C4.40341 53.1415 4.27071 53.4374 4.65103 53.7095L4.66284 53.7095ZM7.16008 52.9255C5.68595 52.5929 7.39591 51.1978 8.23026 50.7032C8.6843 51.7938 7.22199 52.1416 7.14827 52.9255L7.16008 52.9255ZM5.3763 52.9255L4.83977 52.6642L5.72425 52.4029C5.60042 52.5735 5.48242 52.7506 5.36449 52.9255L5.3763 52.9255ZM242.8 52.7895C241.983 52.688 241.915 52.2431 242.266 51.7442C242.965 51.8716 242.98 52.3316 242.8 52.7895ZM7.86173 52.7895C7.80277 52.6599 7.74384 52.5281 7.68193 52.3986L8.03865 52.3986L7.86173 52.7895ZM4.1145 52.3986C3.74303 52.2755 3.74303 52.0962 3.75777 51.8759L4.99308 51.8759C5.11396 52.2495 4.65699 52.6232 4.1086 52.4029L4.1145 52.3986ZM12.1426 51.3533L12.1426 51.2215L13.0271 51.2215C12.9652 51.0466 12.9063 50.8738 12.8473 50.6989C12.2812 50.8177 11.8064 51.0423 11.777 51.4829L12.1338 51.4829L12.1426 51.3533ZM4.99898 50.9602L4.64226 50.9602L4.64226 50.5672L4.99898 50.9602ZM3.21533 50.8285C2.89398 50.4246 2.89397 50.0402 3.57207 49.9149C3.89933 50.3231 3.89928 50.7075 3.22412 50.8328L3.21533 50.8285ZM241.455 49.7184L241.187 49.6536L241.721 49.7832L241.455 49.7184ZM5.53264 48.9993C5.59455 48.3514 4.35334 48.509 4.28553 47.954C4.36808 48.2887 4.96949 48.144 5.35572 48.0857C5.09331 47.3817 4.91939 46.5891 5.88936 46.2565C5.76259 46.723 5.94831 48.3406 5.35572 48.2153L5.53264 48.9993ZM6.78263 48.6084C6.34038 48.6537 5.93647 48.563 5.89815 48.2153L6.78263 48.2153L6.78263 48.6084ZM242.526 48.2153C242.626 47.9562 242.484 47.8935 242.257 47.8244L242.434 48.4723C242.473 48.3946 242.505 48.3082 242.535 48.2196L242.526 48.2153ZM13.204 48.347L12.4906 47.954C12.5747 47.9363 12.6633 47.9331 12.7494 47.9447C12.8355 47.9564 12.9166 47.9824 12.9866 48.021C13.0566 48.0595 13.1135 48.1094 13.1528 48.1667C13.192 48.224 13.2126 48.2872 13.2128 48.3514L13.204 48.347ZM218.698 47.8244C218.639 47.7359 218.58 47.6495 218.518 47.5631L218.875 47.4314L218.698 47.8244ZM227.885 46.9087C228.07 46.2025 228.751 44.5201 228.241 43.7729C227.717 42.8378 228.324 42.0452 226.903 41.2914C227.198 40.9157 228.227 40.2721 227.26 39.7797C226.694 39.6242 226.711 40.8055 226.189 40.6284L226.726 41.1511C226.296 41.3433 225.841 41.1251 225.476 40.8897L226.012 42.1963L226.369 42.0668C225.149 43.4835 225.523 46.6236 227.905 46.913L227.885 46.9087ZM13.7287 46.7791L13.5489 46.7791C13.4978 46.6231 13.5236 46.4588 13.6218 46.3153C13.72 46.1719 13.8842 46.0585 14.0855 45.9952C14.0412 46.2154 13.9971 46.7748 13.7495 46.7834L13.7287 46.7791ZM4.98717 45.8634C3.4924 45.1205 5.93354 45.1918 6.05736 45.6669C6.01903 46.0599 5.54146 46.1615 4.99308 45.8677L4.98717 45.8634ZM227.083 45.7339C226.493 45.6172 226.349 45.1939 226.198 44.8182L228.162 45.2112C227.935 45.5201 227.693 45.9088 227.103 45.7382L227.083 45.7339ZM216.378 45.086L216.201 44.9564C216.319 45.0428 216.439 45.1292 216.557 45.2177C216.519 45.1723 216.46 45.127 216.383 45.0838L216.378 45.086ZM5.70064 45.0859L4.99308 45.0859L4.99308 44.8246L5.70653 44.8246L5.70064 45.0859ZM6.23429 44.9564C6.19689 44.7632 6.09717 44.5794 5.94335 44.4201C5.78952 44.2609 5.58602 44.1308 5.34981 44.0407L6.41999 43.3928C6.37577 43.9089 6.31383 44.4316 6.25487 44.9542L6.23429 44.9564ZM10.0051 44.5611L9.82532 44.4316L10.1821 44.6929L10.0051 44.5611ZM219.255 44.5612C219.137 44.4748 219.019 44.3862 218.898 44.2998L219.435 44.2998C219.373 44.3862 219.314 44.4748 219.252 44.5612L219.255 44.5612ZM14.1091 44.0385L13.5725 43.6476L14.286 43.5159L14.1091 44.0385ZM227.292 43.6476L226.935 43.6476C226.994 43.5591 227.056 43.4727 227.115 43.3863L227.292 43.6476ZM6.6234 43.2546C5.39103 43.2394 6.26078 42.0495 5.3763 41.948C5.79496 41.3389 5.60921 40.5723 5.3763 39.8574C6.83864 40.0475 6.46727 42.1661 6.61174 43.2546L6.6234 43.2546ZM13.7613 42.6067L13.4044 42.4749L13.9381 42.3453L13.7613 42.6067ZM218.017 42.3454L217.837 42.3454C217.787 42.1515 217.811 41.9514 217.906 41.7668C218 41.5821 218.162 41.42 218.374 41.2979C218.447 41.6759 218.671 42.3108 218.005 42.341L218.017 42.3454ZM217.303 41.5592L217.123 41.2979L217.48 41.2979L217.303 41.5592ZM225.777 40.5809L225.865 40.3844L225.508 40.3844L225.688 40.7753L225.777 40.5809ZM4.65694 40.6457L3.94349 40.6457C4.06142 40.4707 4.17933 40.298 4.30021 40.123C4.4034 40.2937 4.53016 40.4664 4.65104 40.6414L4.65694 40.6457ZM226.216 39.8617L226.216 39.6004C227.083 39.8941 227.985 37.931 228 37.5747C227.705 36.903 226.835 36.2961 227.286 35.415C227.2 35.416 227.116 35.4314 227.039 35.4601C226.962 35.4888 226.896 35.5299 226.844 35.5804C226.793 35.6308 226.758 35.6893 226.742 35.7512C226.726 35.8131 226.729 35.8769 226.752 35.9376C225.936 35.8577 225.278 36.0737 225.682 36.7216L225.146 36.7216C224.972 37.7626 225.455 38.2744 225.326 39.1383C225.054 39.8661 225.352 40.1879 226.21 40.1187L226.216 39.8617ZM6.79746 39.73C6.08103 39.73 5.88057 39.1663 5.72727 38.6847L6.44072 38.6847L6.44072 39.2073L6.79746 39.2073L6.79746 38.4234C7.2161 38.3046 7.66423 39.0713 7.15418 39.2073C6.76206 39.3261 6.76207 39.5054 6.79155 39.7257L6.79746 39.73ZM226.929 39.0821C226.692 39.1084 226.45 39.0855 226.229 39.016C226.009 38.9466 225.819 38.8333 225.682 38.689L226.929 38.689L226.929 39.0821ZM217.566 38.8208C217.536 38.7776 217.504 38.7344 217.474 38.689L217.654 38.9504L217.566 38.8208ZM241.47 38.4277L241.559 38.1664L241.022 38.1664L241.022 38.689C241.252 38.6934 241.385 38.6761 241.464 38.4191L241.47 38.4277ZM5.54732 37.5142L5.54732 37.2399C5.37337 37.5271 5.04317 37.6718 4.66285 37.5012L4.66285 37.7625L5.54732 37.7625L5.54732 37.5142ZM4.12041 37.3824L3.94349 37.2529L4.30021 37.5142L4.12041 37.3824ZM14.1121 37.2529L13.3985 37.1211C13.6874 37.0088 14.0237 36.9764 14.1062 37.2399L14.1121 37.2529ZM219.974 36.3372C219.913 36.1644 219.853 35.9895 219.795 35.8145L220.331 35.8145L219.974 36.3372ZM225.682 35.2271L225.859 34.7693L224.612 35.4172L225.497 35.6785L225.682 35.2271ZM5.01366 35.4236C4.35326 35.2293 4.49186 34.7628 5.19059 35.0306L5.01366 35.4236ZM227.109 34.8341L226.929 34.6397L226.929 35.0306L227.292 35.0306L227.109 34.8341ZM225.234 34.3784C225.485 34.1624 226.431 34.3265 226.396 33.8557L226.929 34.2466C227.855 32.3289 224.034 33.413 225.146 34.508L225.234 34.3784ZM14.6458 34.117L14.4688 33.724L14.8256 33.724C14.7578 33.8471 14.6988 33.9767 14.6399 34.1084L14.6458 34.117ZM219.258 33.4627C219.14 33.3331 219.022 33.2014 218.901 33.0718L219.438 33.2014L219.258 33.4627ZM8.22437 33.3331C8.16539 33.1171 8.10648 32.9011 8.04456 32.6852C8.10058 32.8882 8.1595 33.1063 8.21846 33.3244L8.22437 33.3331ZM242.092 32.8105C241.685 32.5664 240.592 32.1043 240.845 31.763C241.043 31.5017 240.88 31.3829 240.665 31.2404C241.009 31.2342 241.347 31.173 241.655 31.0611C241.963 30.9491 242.234 30.7892 242.449 30.5925C242.296 30.9013 242.204 31.6097 241.736 31.506C241.941 31.6817 242.082 31.8932 242.143 32.1202C242.204 32.3472 242.185 32.582 242.086 32.8018L242.092 32.8105ZM219.98 32.2878C219.918 32.1993 219.859 32.1129 219.8 32.0243C219.848 32.1042 219.907 32.1906 219.969 32.2727L219.98 32.2878ZM13.7613 32.1561L13.4044 32.1561L13.5813 31.763C13.6285 31.8861 13.6876 32.0157 13.7495 32.1474L13.7613 32.1561ZM216.846 31.6248C216.817 31.5816 216.784 31.5384 216.755 31.4931L216.935 31.7544L216.846 31.6248ZM14.4629 31.7544L13.9263 31.7544C13.9852 31.6248 14.0443 31.493 14.1062 31.3635C14.2241 31.493 14.3421 31.6248 14.4629 31.7544ZM6.61174 30.1864L6.43482 30.0569L6.79155 30.3182L6.61174 30.1864ZM239.946 29.0764L239.946 28.8799L239.589 28.8799L239.589 29.2729L239.946 29.2729L239.946 29.0764ZM11.2522 28.489L11.0724 28.2276C11.0135 28.3572 10.9544 28.489 10.8925 28.6185L11.4292 28.7503L11.2522 28.489ZM220.325 28.3572C220.263 28.2277 220.204 28.0959 220.145 27.9663C220.216 28.0959 220.263 28.2277 220.325 28.3572ZM221.395 28.0959C220.947 28.0527 220.555 27.9102 220.511 27.5733C220.862 27.6877 221.513 27.7957 221.395 28.0959ZM240.214 27.9016L239.946 27.8346L240.483 27.9663L240.214 27.9016ZM219.075 27.705L218.895 27.705C219.069 27.2126 218.43 27.0766 217.825 27.0571C218.645 26.7548 220.366 27.2731 219.075 27.705ZM8.39539 27.5085L8.03866 27.4437C8.26568 27.0917 8.56637 26.5172 9.10885 26.7958C8.97912 27.0549 8.84353 27.6057 8.39539 27.5085ZM220.325 27.1824L219.609 27.0506C219.783 26.8347 219.992 26.6014 220.325 26.6597L220.325 27.1824ZM15.1764 27.0506C15.0555 26.9642 14.9376 26.8778 14.8197 26.7893C14.9376 26.8735 15.0555 26.9642 15.1764 27.0506ZM241.373 26.6576C240.3 26.7116 240.724 25.2689 241.553 25.0897C240.987 25.1609 241.376 26.2149 241.373 26.6576ZM15.1764 25.3618C15.0555 25.1005 14.9376 24.8391 14.8197 24.5778L15.5331 24.4461C15.4122 24.7419 15.2943 25.0465 15.1764 25.3618ZM6.79155 24.5778C6.33457 24.5152 6.53214 24.0768 6.61175 23.7939C6.67367 24.0465 6.73258 24.3079 6.79155 24.5692L6.79155 24.5778ZM223.536 24.4461L223.164 24.4461L223.698 23.5326C224.279 23.755 224.258 24.4137 223.536 24.4374L223.536 24.4461ZM218.987 23.5973C219.246 23.1287 219.523 23.1654 219.969 23.2712C219.954 22.7745 219.565 22.524 218.895 22.6233C219.063 22.4074 219.517 21.997 219.164 21.8394C218.854 21.442 219.358 20.7401 218.718 20.2715L219.252 20.1397C218.093 20.2564 217.156 20.0145 217.112 19.0944C215.794 19.5609 217.206 20.6278 217.471 21.185C216.929 21.8329 217.047 22.7205 218.356 22.7551C216.254 23.1028 217.934 24.7549 218.987 23.5887L218.987 23.5973ZM8.5693 23.0099C6.60575 23.174 7.03914 20.7401 8.5693 21.0489C8.45136 21.2239 8.3305 21.3966 8.21256 21.5716C8.97321 21.5737 8.60172 22.5348 8.57519 23.0013L8.5693 23.0099ZM224.244 22.6169L223.53 22.4851L223.707 22.0942C223.792 22.095 223.876 22.1099 223.952 22.1378C224.029 22.1657 224.096 22.2058 224.148 22.2552C224.2 22.3046 224.236 22.3621 224.254 22.4232C224.271 22.4843 224.27 22.5476 224.249 22.6082L224.244 22.6169ZM239.575 22.4851L239.041 22.4851L239.041 22.2238L239.575 22.2238L239.575 22.4851ZM216.475 22.0294C216.445 21.9625 216.413 21.8977 216.383 21.8329L216.207 22.2238L216.563 22.2238L216.475 22.0294ZM15.5184 22.2238C15.4595 22.1374 15.3975 22.051 15.3385 21.9625C15.4122 22.0424 15.4742 22.1223 15.5331 22.2151L15.5184 22.2238ZM11.7741 21.4312L11.5972 21.0403L12.1308 21.0403L11.7741 21.4312ZM6.77974 21.4312C6.66181 21.3448 6.54094 21.2584 6.42302 21.1699C6.55274 21.2584 6.67362 21.3448 6.79156 21.4312L6.77974 21.4312ZM240.291 20.9086L239.934 20.9086L239.934 19.8633C240.062 20.2175 240.185 20.5659 240.303 20.9086L240.291 20.9086ZM224.058 20.779L223.524 20.6472L223.881 20.5177L224.058 20.779ZM240.114 19.3407L239.4 18.818C239.878 18.736 240.073 19.021 240.126 19.3407L240.114 19.3407ZM7.23667 18.8828L7.3252 18.6863C7.24233 18.6699 7.15542 18.6675 7.07111 18.6793C6.98682 18.6911 6.90735 18.7169 6.83863 18.7545C6.76989 18.7922 6.71367 18.8408 6.67437 18.8967C6.63506 18.9526 6.6137 19.0143 6.61175 19.0772C6.86236 19.0836 7.15412 19.0988 7.23667 18.8828ZM18.2071 17.1227L16.96 17.1227L16.96 16.6L18.2071 17.1227ZM214.971 15.8161C214.609 15.7556 214.653 15.5094 214.794 15.2935L214.971 15.8161ZM222.109 15.1682L221.929 15.0386L222.286 15.2999L222.109 15.1682ZM237.806 14.9069L237.629 14.9069L237.629 14.3842L238.162 14.516C238.092 14.6564 238.027 14.9026 237.806 14.8982L237.806 14.9069ZM220.145 14.449L220.682 14.1229C220.281 13.9307 219.859 13.691 219.969 13.339L219.432 13.4707L219.609 12.9459C218.792 12.9459 218.984 12.365 218.093 12.4902C217.607 12.514 216.145 12.6349 216.221 12.1619C213.379 12.4276 205.664 11.8466 205.159 13.339C208.918 14.2547 212.969 12.6198 216.846 13.6003C218.771 13.894 218.913 14.8723 220.145 14.4404L220.145 14.449ZM202.485 14.516L202.485 14.3842L201.937 14.3842L202.473 14.6456L202.485 14.516ZM61.5584 13.8616L61.01 13.8616L61.01 13.6003L61.5437 13.6003L61.5584 13.8616ZM14.7223 13.5268L14.634 13.3303C14.6929 13.462 14.7519 13.5916 14.8138 13.7234C14.7902 13.6564 14.7577 13.5916 14.7223 13.5268ZM107.932 13.4621L107.932 13.3303L107.398 13.3303L107.932 13.5916L107.932 13.4621ZM17.1251 12.2202C17.1841 11.8056 17.246 11.3909 17.305 10.9784C16.6092 10.9784 15.5626 10.8834 15.3415 11.3693C16.6889 11.3866 16.1994 12.1878 15.5213 12.6651L16.2348 12.6651C16.1522 13.0971 16.3232 13.4361 16.9482 13.4512L17.1251 12.2202ZM125.141 12.9373C124.392 12.8228 124.409 12.0021 124.339 11.5011L125.223 11.5011L125.223 12.4038C125.981 12.1015 126.783 11.9892 127.543 12.2742C126.88 12.6975 126.032 12.9327 125.152 12.9373L125.141 12.9373ZM14.9848 12.8077L14.8079 12.6759C14.9258 12.7645 15.0437 12.8509 15.1646 12.9372L14.9848 12.8077ZM167.955 12.7429L167.687 12.6759C167.767 12.4103 168.103 12.4427 168.4 12.5464C168.327 12.6867 168.25 12.8228 167.967 12.7429L167.955 12.7429ZM130.583 12.8077C129.799 12.8422 128.95 12.8206 128.62 12.285C129.463 12.1879 130.471 12.0928 130.589 12.8077L130.583 12.8077ZM140.483 12.6112L140.215 12.5464C140.855 12.6349 140.92 11.9762 141.642 12.285C141.327 12.4254 140.799 12.7019 140.495 12.6198L140.483 12.6112ZM136.825 12.6759L136.486 12.6759C136.347 12.2958 136.919 12.136 137.37 12.028C137.302 12.2742 137.267 12.6954 136.836 12.6759L136.825 12.6759ZM145.92 12.4038L145.386 12.4038L145.386 12.1425L145.92 12.4038ZM143.423 12.4038C142.568 12.5032 141.931 12.2699 141.819 11.6199C142.347 11.5162 142.473 11.933 142.532 12.2678L143.417 12.136L143.423 12.4038ZM134.324 12.4038L134.148 12.4038C134.119 12.2672 134.157 12.1276 134.254 12.0092C134.352 11.8909 134.503 11.8013 134.681 11.7559C134.634 11.9525 134.581 12.4038 134.339 12.4038L134.324 12.4038ZM115.237 12.4038C115.12 12.3174 114.999 12.231 114.881 12.1425C115.013 12.2418 115.134 12.3282 115.258 12.4038L115.237 12.4038ZM14.9966 12.1425L14.8197 12.0129L15.1764 12.2742L14.9966 12.1425ZM163.952 12.1425L163.418 12.1425L163.418 11.8812L163.952 11.8812L163.952 12.1425ZM127.741 12.1425C127.679 12.0129 127.62 11.8812 127.561 11.7516C127.62 11.892 127.679 12.0237 127.741 12.1533L127.741 12.1425ZM235.143 11.7516C235.081 11.6652 235.022 11.5767 234.963 11.4903C235.011 11.5875 235.069 11.676 235.131 11.7559L235.143 11.7516ZM15.2766 10.7711C16.0991 10.201 17.9654 10.3025 16.6151 9.13841C16.6918 10.2506 14.3244 9.81438 14.4747 11.0972C14.636 11.1208 14.8034 11.1022 14.9478 11.0445C15.0922 10.9869 15.2044 10.894 15.2648 10.7819L15.2766 10.7711ZM226.222 10.052L226.045 9.92238L226.402 10.1837C226.331 10.1513 226.269 10.1081 226.21 10.0628L226.222 10.052ZM233.887 9.268L233.71 9.13843L234.067 9.39975L233.887 9.268ZM232.104 9.268L231.567 9.268L231.567 8.8771L232.104 9.268ZM16.8804 9.00667L16.792 8.87708C16.851 8.96347 16.9129 9.04986 16.9718 9.13841C16.9306 9.10601 16.9011 9.06066 16.8686 9.01747L16.8804 9.00667ZM15.7219 8.8123C15.9135 8.39116 16.8391 8.66544 17.3286 8.74535C17.2843 8.39116 17.3286 7.98947 17.8622 7.96139C17.3374 7.25734 17.9035 7.13208 18.1306 6.44963C18.0745 5.86868 19.5044 5.9637 19.7373 5.73262C21.801 5.22726 22.2197 6.20774 24.9085 5.7974C27.2023 5.54041 27.1817 5.81469 28.5674 5.99394C29.5403 5.91835 29.0096 5.52314 30.4396 5.60088C32.0847 5.7931 32.5652 5.70671 34.0954 5.92699C35.0535 6.25958 35.2216 5.56202 36.059 5.86221L36.059 5.60088C37.1911 5.55769 37.769 6.03282 38.736 5.99394L38.736 5.60088L40.8764 5.86221L41.0533 4.94866C37.1852 4.58368 33.774 4.82988 29.8145 4.5556C27.6003 4.58799 27.4558 5.00482 25.3567 4.6204C23.5081 4.6204 22.8743 4.89468 20.896 4.68735L20.896 5.07825C19.242 4.19927 18.0804 5.9421 17.3286 4.94866C17.4907 5.96154 15.7807 5.97019 15.6333 6.64616C15.592 7.37612 14.0796 8.58985 15.5449 9.12977L15.7219 8.8123ZM16.9718 7.96139L16.0874 7.96139C16.1463 7.70007 16.2083 7.43875 16.2673 7.17743C16.8717 7.20335 17.0396 7.54889 16.96 7.97219L16.9718 7.96139ZM223.645 6.44964L223.557 6.25529C223.495 6.34167 223.436 6.42805 223.377 6.51659L223.733 6.64618L223.645 6.44964ZM199.561 5.86222C200.43 5.95293 201.356 4.4174 199.829 4.81694C200.466 4.44548 200.383 2.39597 199.116 2.59465C199.384 3.12547 199.492 3.69291 199.43 4.25732C199.369 4.82172 199.14 5.36946 198.759 5.86222C198.974 5.92485 199.437 6.05226 199.54 5.88165L199.561 5.86222ZM70.7658 5.73262C73.0065 5.16679 77.7503 5.69376 80.2179 5.40437C80.7722 5.06529 82.208 5.7823 82.6267 5.60088C83.3844 5.47563 85.3332 5.13872 86.0172 4.95299L86.0172 5.49291C87.3321 5.27694 89.2603 4.7327 89.9413 5.62248C91.4773 5.16679 93.4793 5.12361 95.3809 5.29638C96.8993 5.49723 97.6688 4.899 99.3965 5.09985C99.2844 4.75862 99.6913 4.56641 100.11 4.45194C98.7803 4.62688 97.4359 3.67663 96.2772 4.385C95.4074 4.41955 92.6744 3.52114 92.0847 4.45194C91.495 4.02001 90.9997 4.55345 90.2125 4.32021C89.5698 4.16687 89.3281 4.40876 89.0539 4.71327L88.1695 4.19062C88.5409 4.36124 88.4879 4.68086 88.3464 4.97458C88.0516 4.91195 87.7979 4.85365 87.7242 4.58154C87.6564 4.20791 85.8197 4.385 85.8492 4.71327L84.779 4.19062C84.8822 4.87524 82.2582 4.1172 82.0135 4.58154C79.82 5.21648 78.9266 4.2079 75.9489 4.38499C73.72 4.28781 73.1922 4.9098 72.0247 4.77805C71.4822 4.39364 70.4474 4.60097 70.1525 5.10416C69.8577 4.7327 68.59 4.4865 68.3836 4.97458C67.6672 4.69814 66.3641 4.92059 65.5298 4.97458C64.8959 5.17327 63.7755 4.48218 63.0325 4.58368C62.0006 4.69598 61.6352 4.89468 60.7123 4.845C60.3792 5.08905 58.6485 4.6528 58.5718 5.10633C58.5335 4.47787 53.7751 4.73702 53.3977 4.845C52.5604 5.20566 48.1409 4.24246 47.8667 5.10633C47.0117 4.98971 42.9283 4.63551 43.5858 5.69375C45.1661 5.7715 46.9027 6.0393 48.7601 6.02202L48.7601 5.76069C49.2849 6.27254 51.9206 5.35036 52.5073 5.69375C54.3913 6.09544 56.399 5.63544 58.4038 6.02202L58.4038 5.62896C62.0184 6.03714 67.2014 5.8838 70.7393 5.75207L70.7658 5.73262ZM196.085 5.73263C196.309 5.55554 197.526 5.60954 198.045 5.60089C198.063 4.99403 196.689 4.70896 195.905 4.42604C196.265 4.0481 196.716 3.67232 197.332 3.77814L197.155 3.25551C197.895 3.03955 197.88 3.81054 198.402 3.77814C198.381 3.27278 198.579 2.38301 197.688 2.48235L197.688 2.87325L196.804 2.61192L197.517 2.08929C196.996 1.81501 196.491 1.49323 196.447 1.04402C195.675 1.23839 194.793 1.35717 194.664 0.653125C194.711 1.13256 193.077 1.32045 192.877 0.849643C192.582 0.327006 191.258 0.795657 190.736 0.391795C189.979 0.121837 188.785 0.551615 188.419 1.10881C188.254 1.54074 188.095 1.62496 187.706 1.69839L187.883 2.08929C187.178 1.60768 186.346 2.45643 185.742 2.87325C185.624 2.56874 185.506 2.26422 185.385 1.95971C184.009 2.20807 184.707 2.51258 182.8 2.60761C181.603 2.74799 181.27 2.69616 181.104 3.00067L180.568 2.60761L181.284 2.21671L180.034 2.08496C180.158 3.33972 178.112 2.3614 177.269 2.93587C176.718 3.20799 176.594 3.27062 176.287 3.13024C177.145 2.55577 175.975 1.5105 175.305 2.48235C175.061 2.82573 174.984 2.89484 174.683 2.87325C175.155 2.22534 174.129 2.18215 173.433 2.22534L174.318 3.13888C173.575 3.50602 173.327 2.6184 172.711 2.68319C171.759 3.04385 173.2 3.5665 173.424 3.79326C171.361 4.98323 171.24 2.2815 169.143 3.27062C169.026 3.00931 168.905 2.74799 168.787 2.48666C168.274 2.93803 166.487 2.47371 166.201 3.27062C165.685 4.51027 164.058 3.98763 163.524 3.27062C161.475 4.90765 161.755 1.77182 159.868 2.87756L160.938 2.87756L160.938 3.52547L161.472 3.52547C161.354 3.61185 161.236 3.70039 161.115 3.78677L160.582 3.26414C160.287 4.17767 157.58 4.02866 157.905 3.00282L157.02 3.26414L157.554 4.0481C156.543 3.70255 154.744 4.128 153.273 3.78677C153.727 3.07625 152.843 2.7415 152.023 2.49097C152.144 3.09136 150.531 4.36341 149.882 3.53626C149.767 3.98978 146.934 3.82565 146.672 3.53626C146.445 3.79326 146.182 4.2727 145.787 4.18416L145.787 2.74583C145.404 2.99851 144.95 3.3203 145.251 3.66152C144.587 3.79326 143.942 3.76518 143.467 3.39804C143.172 3.80189 142.73 3.95524 142.22 3.66152C142.647 3.5125 142.597 2.79765 142.04 2.8754C142.294 3.56434 141.226 3.68527 140.433 3.7911L141.147 3.00714C139.906 2.79117 138.057 2.31389 137.936 3.52978C138.508 3.52978 139.808 3.25335 139.9 3.66152L138.65 4.05242L138.65 3.7911C137.202 3.63992 134.133 4.15391 133.655 3.39804C133.192 3.4909 132.146 3.95306 132.051 3.52978C134.151 2.92291 131.167 1.7459 131.338 3.26846L132.051 3.13672C131.757 3.98979 129.693 3.48874 129.103 3.65936C127.85 4.19279 125.651 3.7911 124.554 3.26846C122.755 4.34829 119.415 3.30302 117.773 4.44548C117.702 3.01794 112.339 3.90988 112.599 4.96811L114.206 4.96811L114.206 4.57505C114.819 5.55986 117.154 4.41956 117.953 4.83638C118.357 5.29854 121.016 4.54915 121.163 5.22944C123.581 4.60097 127.679 5.97452 130.262 5.22944C131.518 6.20992 135.975 5.51451 137.397 5.35901C138.358 5.37629 140.893 5.41732 141.766 5.42596C142.426 5.09553 142.65 5.5253 142.391 5.88164C143.57 5.84709 144.455 5.41516 145.339 5.23375C146.112 5.49074 146.639 5.89677 147.748 5.62681L147.748 5.88164C148.927 5.90324 149.706 5.2899 150.602 5.35902C151.177 5.59441 152.026 5.11281 152.477 5.4238C152.654 5.55554 152.981 5.55554 153.456 5.4238C155.063 4.95299 157.878 5.40221 159.432 5.62034C160.732 5.67865 162.359 4.75646 162.734 5.88165C163.303 5.44972 164.161 6.06522 164.606 5.55553C164.901 5.14952 165.523 5.46916 165.945 5.62034C166.177 4.92925 171.252 5.56634 172.366 5.55554C175.798 5.86869 181.506 4.95732 184.855 5.75208L185.032 5.22944L185.745 5.35902L185.568 4.96812C186.122 4.86661 186.712 5.43029 187.172 5.75208C187.293 5.49076 187.411 5.22943 187.529 4.96812C188.225 5.3871 189.82 5.71104 189.313 4.7068L190.026 4.7068L190.026 5.22944C191.945 5.25752 190.999 4.50163 190.739 3.7911L191.989 4.31373C191.872 4.09777 191.751 3.8818 191.633 3.66584L192.517 3.5341C192.429 3.90124 192.255 4.39797 192.697 4.57938C191.883 4.56642 191.966 5.2575 191.984 5.75639C193.275 5.54258 195.044 5.83414 196.064 5.75208L196.085 5.73263ZM42.7308 5.4929C42.8193 5.36116 42.9078 5.23158 42.9992 5.09984L42.6424 4.97027L42.6424 5.4929L42.2857 5.4929L42.4625 4.97027C40.667 4.69599 41.8139 6.49283 42.7308 5.4929ZM217.999 5.29639C217.94 5.2316 217.881 5.16465 217.819 5.09986L217.642 5.49292L218.176 5.49292L217.999 5.29639ZM102.76 5.23159L102.76 5.09985C106.021 4.58801 109.246 6.00043 112.392 4.18631C111.679 3.5125 110.352 4.83421 109.538 3.79325C109.37 3.98762 109.211 4.22519 108.825 4.05458C108.462 3.8235 107.489 4.30077 107.218 3.98978C107.068 3.66799 105.408 4.31156 105.258 3.98978C105.137 3.85804 104.839 3.79325 104.373 3.79325C103.433 3.72847 103.439 4.22519 102.604 4.11936C102.247 4.07617 102.038 4.14096 101.979 4.31589C101.997 4.70895 100.245 4.69815 100.464 5.09985C101.41 4.79318 101.938 5.4238 102.784 5.36117L102.76 5.23159ZM214.081 4.84501L214.794 4.45412L212.831 4.1928C213.308 4.38933 212.996 4.88389 212.831 5.23808C213.285 5.24672 213.435 5.1776 214.081 4.84501ZM195.527 4.84501L195.156 4.84501C195.215 4.75863 195.274 4.67008 195.336 4.58369L195.527 4.84501ZM198.918 4.5189L198.738 4.45412L199.095 4.58369L198.918 4.5189ZM187.231 4.38717C186.733 4.3375 186.683 3.9682 186.609 3.67016L188.036 3.93148C187.874 4.17552 187.72 4.4714 187.231 4.37853L187.231 4.38717ZM209.62 4.1928L209.443 4.06106L209.8 4.32238L209.62 4.1928ZM194.814 4.32238L194.814 3.79973C195.477 3.73494 195.306 4.18415 194.814 4.31373L194.814 4.32238ZM178.136 4.1928C177.142 4.16904 176.912 4.17552 176.797 3.79973L178.044 3.93148L178.044 3.14536C178.519 3.03954 178.413 3.60537 178.929 3.47363C180.143 3.52547 179.474 4.36341 178.136 4.18416L178.136 4.1928ZM162.079 3.34188C162.189 3.12592 162.003 3.07842 161.811 3.01579C161.87 3.19072 161.932 3.36349 161.991 3.53842L162.079 3.34188ZM137.285 3.34188C137.252 3.27709 137.223 3.21231 137.193 3.14536C137.252 3.2771 137.314 3.40668 137.373 3.53842L137.285 3.34188ZM164.665 3.34188L164.488 3.2771L164.845 3.40669L164.665 3.34188ZM142.992 3.34188L142.724 3.2771L143.261 3.40668L142.992 3.34188ZM185.002 3.2771L184.645 3.2771L184.645 3.01579L185.53 3.01579C185.5 3.09818 185.43 3.16954 185.332 3.21619C185.235 3.26283 185.117 3.28146 185.002 3.26847L185.002 3.2771ZM155.926 3.21231L155.747 3.14536L156.103 3.2771L155.926 3.21231ZM150.484 3.08057L150.395 2.88404L150.572 3.2771L150.484 3.08057ZM130.772 3.14536L130.595 3.01578C130.713 3.10217 130.831 3.19071 130.952 3.2771L130.772 3.14536ZM175.904 3.14536L175.547 3.14536L175.547 2.62273L175.904 3.14536ZM135.766 2.88404C135.787 2.60544 135.507 2.55145 135.233 2.49314L135.233 3.14103L135.766 3.14103L135.766 2.88404ZM196.777 3.01579L196.421 2.62273L196.777 2.62273L196.777 3.01579ZM158.78 2.88404L158.6 2.75446L158.957 3.01579L158.78 2.88404ZM157.173 2.88404C157.173 2.71558 156.687 2.66808 156.46 2.62273L156.46 3.01579L157.173 3.01579L157.173 2.88404ZM133.269 2.62272L133.449 2.49314L132.912 2.3614C132.971 2.49314 133.03 2.62272 133.092 2.75446L133.269 2.62272ZM199.095 2.16703C200.144 1.48242 198.086 1.15847 197.326 0.925228C197.096 1.60552 198.104 2.79766 199.095 2.1584L199.095 2.16703ZM191.603 0.0764799L191.423 0.00953197L191.78 0.141269L191.603 0.0764799Z" fill="#839CB5"/>
  </g>
  <defs>
    <clipPath id="clip0_1762_2707">
      <rect width="246" height="84" fill="white" transform="translate(246 84) rotate(-180)"/>
    </clipPath>
  </defs>
</svg>