<svg width="114" height="53" viewBox="0 0 114 53" fill="none" xmlns="http://www.w3.org/2000/svg">
<g clip-path="url(#clip0_1762_219)">
<path d="M44.6393 39.2285C44.0362 37.4476 43.3976 36.3763 42.4396 35.4539C42.2126 35.5533 41.95 35.6455 41.7159 35.7732C40.0768 36.6672 38.4448 37.5754 36.7985 38.4622C36.4438 38.6538 36.0535 38.8028 35.6632 38.9234C34.4499 39.2995 33.7403 39.1221 32.9881 38.1288C32.5837 37.6037 32.2573 37.5754 31.6541 37.8379C28.0637 39.3988 24.452 40.91 20.8402 42.4284C20.6558 42.5064 20.4571 42.5632 20.2584 42.6199C19.5204 42.8328 18.7683 42.9463 18.2148 42.2936C17.711 41.7118 17.8529 41.059 18.151 40.4205C18.2858 40.1225 18.4135 39.8174 18.6548 39.2711C17.8388 39.4272 17.2853 39.5123 16.746 39.6471C12.3254 40.7327 7.91183 41.8395 3.48409 42.9179C2.77451 43.0882 2.02946 43.2372 1.2986 43.2372C0.205862 43.2372 -0.319231 42.3574 0.198759 41.4563C0.432921 41.0519 0.780615 40.7043 1.11412 40.3637C4.24333 37.1142 7.9473 34.5174 11.8429 32.1618C12.2473 31.9206 12.6305 31.651 13.184 31.2962C12.7582 31.0905 12.5311 30.9202 12.2828 30.8776C10.6579 30.6222 9.03295 30.3881 7.40803 30.161C6.75522 30.0688 6.10242 30.0191 5.44961 29.9269C4.80389 29.8347 4.23624 29.6005 4.09432 28.9194C3.94531 28.1886 4.37105 27.7345 5.00257 27.4223C6.38624 26.7341 7.74153 25.982 9.17486 25.4003C12.3183 24.1302 15.4901 22.9312 18.8322 22.1862C19.0592 22.1365 19.2721 22.023 19.5914 21.9095C19.4353 21.6257 19.3501 21.3703 19.1798 21.1787C18.8889 20.8523 18.5483 20.5685 18.2219 20.2705C17.8388 19.9158 17.3491 19.5681 17.5549 18.9934C17.7891 18.3478 18.4206 18.1988 19.0734 18.213C21.6208 18.2555 24.1752 18.3194 26.7226 18.3762C27.049 18.3832 27.3825 18.4116 27.7089 18.4329C28.163 18.4684 28.5178 18.3407 28.6952 17.9079C28.7662 17.7305 28.8797 17.5602 28.972 17.3899C29.6106 16.2335 30.604 15.6446 31.9947 15.8148C33.5061 15.9993 35.0033 16.2335 36.5076 16.4463C37.1604 16.5385 37.8132 16.6095 38.4589 16.7159C38.9344 16.794 39.2821 16.6875 39.4169 16.2193C39.6723 15.3324 39.9136 14.4384 40.1903 13.4522C39.8355 13.4025 39.5659 13.3316 39.3033 13.3387C35.0672 13.5586 30.8381 13.7786 26.6091 14.0127C25.417 14.0766 24.232 14.2256 23.0399 14.2468C22.3516 14.261 21.6421 14.1759 20.968 14.0198C19.7475 13.736 19.2295 12.8775 19.5062 11.7139C19.5772 11.4159 19.6907 11.1108 19.8397 10.8341C22.6142 5.64055 26.7226 1.92984 32.8533 0.567586C38.6292 -0.716617 43.9794 0.148979 48.7194 3.66812C50.0888 4.68271 51.3235 5.83921 52.2247 7.25112C52.6575 7.93225 52.9129 8.73399 53.14 9.51444C53.3671 10.2949 53.3955 10.4155 54.2753 10.4226C55.8009 10.4368 57.3265 10.38 58.845 10.38C61.9742 10.38 65.0963 10.38 68.2255 10.3871C69.2544 10.3871 70.2833 10.451 71.3122 10.4723C77.968 10.6142 84.418 11.7565 90.5274 14.2681C92.8974 15.2401 95.1183 16.5314 97.3819 17.7305C98.3966 18.2697 99.2126 19.0644 99.7448 20.0648C100 20.5401 100.334 20.7459 100.901 20.7601C102.59 20.8098 104.272 20.8807 105.954 20.9871C106.663 21.0297 107.153 20.8878 107.642 20.3131C108.111 19.7668 108.806 19.3127 109.501 19.0431C110.786 18.5464 111.893 18.9863 112.851 19.8945C113.844 20.831 114.241 21.9237 113.844 23.1937C113.532 24.1728 112.659 24.7049 111.673 24.9391C109.814 25.3719 107.813 24.7759 106.94 23.066C106.642 22.4913 106.223 22.2784 105.592 22.2571C104.194 22.2004 102.796 22.1152 101.398 22.0443C100.937 22.023 100.483 22.0088 100.32 22.5764C99.7731 24.4921 98.2476 25.6912 96.6014 26.6206C94.3875 27.8764 92.0743 29.0613 89.6688 29.9269C83.978 31.9845 78.2376 33.9214 72.4617 35.7377C68.7577 36.9013 64.9544 37.774 61.1866 38.7602C59.9661 39.0795 59.9661 39.0511 60.257 40.2573C61.0659 43.5423 60.2996 46.3661 57.7168 48.7997C55.1978 51.1695 52.1679 52.3827 48.7336 52.8084C42.5532 53.5747 36.8908 52.0918 31.647 49.048C29.9654 48.076 28.4185 46.8912 26.8219 45.7985C26.5594 45.614 26.2898 45.4225 26.0769 45.1883C25.5731 44.6207 25.6157 44.0106 26.2259 43.5494C26.5736 43.2869 27.0064 43.1166 27.418 42.9605C30.2208 41.8891 33.1868 41.3996 36.1386 40.8604C38.5654 40.4205 40.9921 40.0019 43.4189 39.562C43.802 39.491 44.1781 39.3562 44.6322 39.2285L44.6393 39.2285ZM82.6582 13.509C82.3744 13.4025 82.0835 13.2322 81.7784 13.1826C80.2812 12.913 78.7911 12.6221 77.2797 12.4376C72.8236 11.8842 68.332 11.8558 63.8475 11.8132C60.5125 11.7849 57.1775 11.8771 53.8425 11.9977C51.586 12.0828 49.3296 12.2815 47.0732 12.4802C45.9733 12.5795 44.8735 12.7711 43.7878 12.9697C42.7235 13.1684 42.0281 13.7857 41.7656 14.7932C41.5385 15.6588 41.2901 16.5243 41.1198 17.4041C40.5877 20.0648 40.4103 22.7467 41.0915 25.3932C41.6875 27.692 42.4184 29.9695 43.1847 32.2257C43.4969 33.1339 44.0504 33.9711 44.5045 34.8367C45.0154 35.8087 45.5902 36.7523 46.0301 37.7456C46.3068 38.3771 46.7184 38.7106 47.3996 38.7035C47.9743 38.7035 48.542 38.6041 49.1167 38.5545C55.0771 38.0152 60.9382 36.9368 66.6503 35.2908C72.1991 33.6944 77.6487 31.8 83.1408 30.0262C83.4317 29.934 83.6871 29.7353 83.9426 29.5934C81.3526 23.3711 80.6572 22.4274 82.6724 13.516L82.6582 13.509ZM28.7094 44.6278C29.1777 45.0677 29.4048 45.3302 29.6744 45.536C32.1154 47.3523 34.7124 48.9132 37.6997 49.8001C41.3043 50.8715 44.9515 51.51 48.7549 50.8928C51.6002 50.4316 54.0908 49.3744 56.1557 47.4446C58.1638 45.5786 58.9443 43.3791 58.2915 40.7539C57.9722 39.4626 57.9083 39.4343 56.5672 39.6258C54.4101 39.9309 52.253 40.1934 50.0959 40.4772C48.9961 40.6191 47.8963 40.7326 46.8106 40.9313C44.9161 41.279 43.0286 41.6976 41.1411 42.0594C37.5152 42.7618 33.8893 43.4359 30.2634 44.1383C29.8376 44.2234 29.4261 44.3937 28.7094 44.6136L28.7094 44.6278ZM21.6988 12.0616C22.5645 12.5015 23.3521 12.317 24.1185 12.2531C25.268 12.1538 26.4033 11.9764 27.5528 11.9126C32.3211 11.6571 37.0895 11.4585 41.8507 11.196C44.5187 11.047 47.1796 10.8412 49.8476 10.6355C50.4507 10.5929 51.0397 10.4652 51.6925 10.3658C51.657 9.39383 51.2171 8.68432 50.7346 8.02448C49.358 6.1372 47.5911 4.63305 45.4837 3.50494C41.4037 1.32676 37.1037 1.15648 32.6972 2.35554C27.6238 3.73907 24.2604 7.01698 21.8833 11.3308C21.7769 11.5223 21.7698 11.7636 21.7059 12.0616L21.6988 12.0616ZM21.5782 39.7181C22.7774 39.562 30.7246 36.1989 31.5406 35.5249C31.3916 35.1701 31.2497 34.7657 31.0581 34.3897C30.6749 33.6447 30.5969 33.6376 29.717 33.8079C28.3475 34.0704 26.9781 34.3613 25.5944 34.5387C24.2959 34.7019 22.976 34.7586 21.6633 34.8296C21.0673 34.858 20.4784 34.7373 20.2513 34.1201C20.0384 33.5312 20.3152 33.07 20.7764 32.6727C21.5711 31.9916 22.3587 31.3104 23.118 30.6009C23.4302 30.31 23.6644 29.9553 24.0901 29.4444C23.7921 29.2741 23.5792 29.1606 23.3663 29.04C22.9122 28.7704 22.4439 28.5221 22.0252 28.2099C21.1808 27.5784 21.2873 26.8335 22.2736 26.4148C22.6496 26.2588 23.0541 26.1594 23.4444 26.0601C24.7926 25.7053 26.1408 25.3435 27.489 25.0171C28.014 24.8894 28.2411 24.6553 28.2056 24.1161C28.1347 22.9879 28.1276 21.8598 28.0992 20.7388C28.0708 19.7668 28.0069 19.6745 26.9568 19.6675C25.1474 19.6462 23.3308 19.6533 21.5214 19.6675C21.2234 19.6675 20.9183 19.7739 20.6345 19.8306C20.6345 20.0222 20.599 20.1215 20.6345 20.1712C20.9963 20.6395 21.3866 21.0936 21.7485 21.5689C22.4936 22.5268 22.2665 23.2292 21.0673 23.6052C20.7196 23.7187 20.3506 23.7826 19.9888 23.8606C16.1854 24.6411 12.6092 26.0317 9.05424 27.4862C8.70655 27.6281 8.27371 27.7274 8.14599 28.3163C9.08263 28.4582 9.96959 28.5575 10.8353 28.7278C12.446 29.0471 14.0709 29.3309 15.6462 29.7637C16.9518 30.1256 17.115 31.1118 16.079 31.9561C15.6462 32.3108 15.1424 32.5875 14.6528 32.8784C11.3745 34.8367 8.16727 36.88 5.25093 39.2994C4.87485 39.6116 4.57683 40.009 4.24334 40.3637C4.3001 40.4418 4.34977 40.5269 4.40653 40.6049C4.9529 40.5056 5.51346 40.4347 6.05274 40.3069C10.1966 39.3065 14.3406 38.2849 18.4845 37.2845C19.045 37.1497 19.6056 37.0007 20.1732 36.951C21.4718 36.8375 22.1884 37.6818 21.8549 38.8737C21.784 39.1292 21.6917 39.3846 21.5711 39.7535L21.5782 39.7181ZM84.6096 13.9701C84.4606 14.3036 84.3399 14.5023 84.269 14.7222C83.3678 17.5248 83.2898 20.4053 83.6162 23.2717C83.8148 25.0029 84.3045 26.7128 85.4043 28.1886C86.0358 29.0471 86.1281 29.1181 87.1144 28.7349C89.5908 27.7771 92.0885 26.8547 94.4939 25.7692C95.7428 25.2087 96.8497 24.3573 97.9779 23.5839C99.0707 22.8318 99.2268 21.051 98.0418 20.1003C97.538 19.6958 97.0342 19.2914 96.4807 18.965C93.0961 16.9288 89.5127 15.2898 85.6597 14.1901C85.3546 14.1049 85.0282 14.0553 84.6025 13.9701L84.6096 13.9701ZM38.9415 25.8401C39.0408 25.6131 39.0976 25.5422 39.0905 25.4783C39.0408 24.9816 39.0053 24.4779 38.9273 23.9812C38.7783 23.0518 38.6292 22.9667 37.65 23.0731C36.387 23.2079 35.124 23.3072 33.8609 23.4207C32.7398 23.5201 31.6116 23.6123 30.3627 23.7258C30.5756 24.9178 30.7601 25.9962 30.9729 27.174C33.79 26.9824 36.3302 26.2304 38.9415 25.8543L38.9415 25.8401ZM28.4185 26.2375C26.8858 26.5284 25.5447 27.0179 24.0333 27.5004C24.3526 27.8197 24.4946 27.997 24.679 28.1389C25.9208 29.0897 26.0343 29.8843 25.0693 31.0905C24.7997 31.431 24.4591 31.729 24.1965 32.0696C24.0475 32.2612 23.9766 32.5095 23.8559 32.7649C25.1261 32.9565 28.3333 32.5166 29.8447 31.9348C29.3835 30.0901 28.9223 28.2241 28.4256 26.2375L28.4185 26.2375ZM31.9451 30.8492C34.7763 30.0333 37.3449 29.3025 39.9419 28.5575C39.8355 28.0822 39.7575 27.7416 39.6794 27.4082C39.5446 26.798 39.1259 26.5851 38.5015 26.6774C38.2603 26.7128 38.0119 26.7483 37.7707 26.7838C35.9187 27.1031 34.0667 27.4294 32.2147 27.7558C31.9096 27.8126 31.6045 27.9048 31.1432 28.0183C31.4129 28.9762 31.6541 29.8488 31.938 30.8492L31.9451 30.8492ZM32.5411 31.8355C32.6972 32.9565 33.1797 33.7795 33.719 34.6096C36.1457 33.6447 38.5157 32.7011 40.9637 31.729C40.7509 31.0621 40.5664 30.4874 40.3464 29.8205C37.6926 30.5016 35.1736 31.1543 32.534 31.8355L32.5411 31.8355ZM30.4975 20.008C30.0363 21.1077 30.0292 22.1223 30.4053 23.0021C32.9952 22.6899 35.422 22.392 37.8487 22.1011C37.9693 22.0869 38.1184 22.1011 38.2035 22.0372C38.3809 21.9095 38.6292 21.7463 38.6505 21.576C38.6647 21.4057 38.4802 21.1361 38.3028 21.0581C38.019 20.9304 37.6713 20.902 37.352 20.8665C36.7418 20.7885 36.1315 20.753 35.5213 20.675C33.868 20.4621 32.2147 20.2422 30.4975 20.0222L30.4975 20.008ZM38.6221 20.0932C38.7428 19.8235 38.8492 19.6533 38.8918 19.4688C39.1259 18.3407 38.906 18.1207 37.6926 18.0143C36.0251 17.8653 34.3576 17.6808 32.6972 17.4822C31.2213 17.3048 30.5969 17.8653 30.753 19.3269C33.3784 19.5823 36.0038 19.8377 38.6292 20.0932L38.6221 20.0932ZM110.722 23.6549C110.956 23.5768 111.439 23.4704 111.857 23.2505C112.368 22.995 112.581 22.541 112.489 21.9804C112.368 21.2638 111.502 20.455 110.757 20.3628C110.09 20.2776 109.402 20.682 108.998 21.3986C108.203 22.7964 108.763 23.662 110.722 23.662L110.722 23.6549ZM34.6911 36.9084C35.6278 36.7594 39.8284 34.7515 41.0631 33.9001C41.1979 33.8079 41.276 33.6234 41.3753 33.4815C41.3398 33.4318 41.3043 33.3751 41.2618 33.3254C38.906 34.0846 36.5502 34.8438 34.088 35.6384C34.3079 36.1138 34.4853 36.4898 34.684 36.9084L34.6911 36.9084Z" fill="#05060F"/>
<path d="M75.534 24.6482C75.5695 28.3518 72.3552 30.5016 69.3962 30.9982C65.2523 31.7006 61.5767 30.1965 59.3913 26.9399C56.7375 22.9808 59.1642 17.5673 63.5706 16.3044C68.6157 14.857 73.9233 17.5034 75.2502 22.3494C75.456 23.0873 75.4418 23.8819 75.534 24.6553L75.534 24.6482ZM67.0192 17.5247C65.4794 17.5318 64.2305 17.8866 63.0739 18.5251C61.2291 19.5468 59.9873 22.0585 60.3847 23.9174C60.9736 26.6915 63.6487 28.8342 66.8914 29.1322C69.7794 29.3948 72.3481 27.8977 73.5401 25.2512C73.9446 24.3502 73.9801 23.4633 73.6111 22.5338C72.8873 20.7104 71.5888 19.3411 69.8858 18.3123C68.9776 17.7589 67.9487 17.4609 67.0263 17.5247L67.0192 17.5247Z" fill="#05060F"/>
<path d="M61.9173 23.4634C61.9386 20.9162 63.9325 19.1425 66.636 19.0715C68.8215 19.0148 71.7307 21.1858 71.6669 23.6053C71.603 26.1311 69.4672 28.1177 66.707 28.0822C63.9467 28.0468 61.8961 26.0672 61.9173 23.4634ZM66.707 26.3723C68.4028 26.3581 69.822 24.9888 69.8291 23.3569C69.8291 21.6612 68.5731 20.3983 66.8773 20.3983C65.1601 20.3983 63.6913 21.8031 63.67 23.4846C63.6487 25.0952 65.0111 26.3865 66.707 26.3723Z" fill="#05060F"/>
</g>
<defs>
<clipPath id="clip0_1762_219">
<rect width="53" height="114" fill="white" transform="translate(114) rotate(90)"/>
</clipPath>
</defs>
</svg>
