<svg xmlns="http://www.w3.org/2000/svg" width="50" height="80" viewBox="0 0 50 80" fill="none">
  <g clip-path="url(#clip0_1762_1804)">
    <path d="M14.1786 79.9168C13.7294 79.0073 14.9872 79.0994 15.4717 79.5986C15.5245 79.3847 15.5792 79.1725 15.632 78.9603L13.37 78.9603C13.4246 79.1203 13.4792 79.2786 13.532 79.4386C10.486 79.6125 8.16233 78.0368 5.7805 77.8438C6.13284 77.6855 6.30903 77.3916 6.10291 77.0455C5.69948 77.8212 3.76336 77.4612 4.16503 76.5672L3.35815 76.8855C3.28416 75.9968 2.00871 76.2907 1.58061 75.4507L2.38744 75.4507C3.66821 72.369 7.52287 68.7481 10.7908 67.6351C9.76729 65.9759 12.6389 67.3481 11.5977 65.8803C13.3594 66.1046 14.1557 62.2281 16.1235 63.3272C15.1564 64.3186 15.4558 66.9794 13.3753 66.8368C14.471 67.8977 11.2242 67.6368 12.4063 68.4316C10.4931 68.7933 9.87296 70.7777 8.20462 71.9412C8.4495 72.289 9.9047 72.3551 9.8219 71.7812L10.9529 72.1012C10.8983 71.8351 10.8437 71.569 10.7908 71.3029C10.8437 71.409 10.8983 71.5168 10.9529 71.6229C11.4339 71.082 12.3006 71.1933 13.0529 71.3029C12.8961 70.4333 13.3436 70.0507 14.1839 70.1864C13.9161 70.4942 13.6025 70.9029 14.0218 71.1446C15.0876 69.9586 16.2592 68.8838 18.0614 69.2316L18.0614 68.4333L19.0321 68.4333L19.0321 67.9551C20.3499 68.2699 20.7128 66.3655 22.101 67.1586C21.835 66.7551 21.5302 66.289 21.7786 65.882L22.4252 66.3603C22.2296 65.6977 23.8733 65.5099 24.5251 65.2438L24.2027 64.6055C24.7929 64.7255 25.1699 64.4003 25.1717 63.8073L25.6561 64.2873C25.7231 63.5325 28.0996 63.7655 26.1406 63.0107C26.9017 63.3742 27.8671 61.2559 28.5647 61.7342C28.6193 61.4159 28.6722 61.0959 28.7268 60.7777L29.5337 61.096C29.4121 60.6299 29.9195 60.4386 30.3423 60.2994C30.0904 60.0716 29.768 59.7777 30.0199 59.5012C30.3899 59.889 30.9712 59.6942 31.4733 59.5012C30.9166 59.1777 30.9836 58.3081 31.7957 58.4577C32.4722 58.4055 32.3965 59.7777 32.9267 59.6542L32.9267 59.1759L33.5733 59.1759C33.2297 59.9638 32.2397 60.4351 31.1509 60.1325C32.1075 60.9499 32.9602 61.6977 31.3113 62.5255C31.4187 62.2055 31.5279 61.8873 31.6354 61.5672C30.8814 61.2194 30.5009 62.9429 29.5337 62.6838C30.2049 64.0646 29.7557 64.3394 28.5647 63.8003C29.0932 64.249 29.0228 64.9777 28.2423 64.5986L28.2423 65.2368C27.5905 65.0855 27.5376 65.9325 27.7561 66.3533C28.9417 66.1046 29.2289 65.2473 30.3423 64.9168L30.1802 64.5986C32.895 63.9742 34.0102 60.0038 36.3216 59.4942C36.2123 59.122 36.1043 58.7499 35.9974 58.3777L36.9663 58.2177L36.644 57.4212C37.5565 57.8351 38.0657 56.7359 38.2594 55.9846C37.7732 56.0473 37.1654 56.1151 37.1284 56.6229L36.644 56.3046C37.0862 56.1551 37.5653 55.9568 37.6129 55.5064C38.6488 56.1673 39.0417 55.1672 39.0681 54.2299L38.4215 54.2299L38.4215 53.9116L39.3904 53.9116C38.4515 52.4716 40.1251 52.1099 40.037 50.7203C39.6847 50.7707 39.4803 51.0073 39.5526 51.3586C39.0769 51.4055 38.6012 51.3307 38.4215 50.8803C39.0962 50.889 39.1121 50.1846 39.0681 49.6038C39.4944 49.5429 39.8661 49.689 40.037 50.0838C40.2854 49.6786 40.8104 49.1394 40.5215 48.8073L39.8749 49.1255C39.6776 48.6525 39.4662 47.6264 38.906 48.009C38.7915 47.6107 39.653 47.3133 40.037 47.0525C39.0381 46.2333 40.2572 46.0194 41.006 46.4142C41.0394 44.3794 41.6472 43.3064 41.168 41.3099L40.3612 41.6281C40.1533 40.5081 40.1181 37.0055 39.5526 36.8438L40.1991 36.2055C40.3894 36.889 41.0253 37.0751 41.3301 36.3655L40.6836 36.2055C41.0676 35.6003 40.0634 35.3151 39.5526 35.4072C40.0811 34.6629 38.5572 33.6316 39.0681 32.9359C39.5649 32.3968 39.2442 32.1255 38.7439 32.3777C39.2037 31.3968 37.6146 30.6925 37.937 29.6646L37.1284 29.6646C37.183 29.4525 37.2359 29.2403 37.2905 29.0281C36.8677 29.129 36.6915 28.7777 36.644 28.3899L36.1595 28.5481L36.1595 28.0699L35.1906 28.3899C34.9474 27.6403 34.5211 26.6507 34.7043 25.5186L35.5129 25.6768C35.2046 26.4194 34.9281 27.3116 35.675 27.7516C35.712 27.2994 36.1031 27.2768 36.4819 27.4316C36.6739 26.8264 35.6451 26.9203 35.8353 26.3151L36.3216 26.6351C36.3779 26.2386 36.2634 25.8768 35.8353 25.8368L36.3216 25.3586L34.8664 25.0403L35.0284 24.5603L35.675 24.8803C35.4266 24.1342 34.7431 24.0942 34.0595 24.402C34.1124 24.1881 34.167 23.9759 34.2199 23.7638L33.2509 23.7638C33.9098 23.0177 33.3355 22.1985 32.4423 22.3272C32.8422 22.5777 32.7629 23.2472 32.7664 23.7638C31.5561 23.7255 31.8944 22.0525 31.9578 21.0525L32.4423 21.5307L32.7664 21.0525L33.0888 21.849C33.2509 21.689 33.413 21.5307 33.5733 21.3707C32.9725 21.1968 32.6026 20.5307 32.282 19.9342L31.1509 20.8925L30.6647 20.2542C30.6277 20.7064 30.2384 20.729 29.8579 20.5725L30.5044 19.9342C28.6881 19.4786 30.256 18.1951 30.8268 19.6159L31.4733 19.1377C31.0681 18.6246 30.0639 17.8873 29.6957 18.6594C29.4914 17.6907 28.6986 16.6333 27.5958 17.0646C27.7614 16.2542 26.6674 16.2507 26.4648 15.4681C27.2118 15.4455 27.7473 16.7081 28.2423 15.9481C28.1402 15.6525 27.3897 15.4473 27.7561 14.9899L26.7872 14.9899L26.9493 14.5116C25.8323 14.3725 25.4042 12.7968 24.0407 13.0768C24.0935 12.9168 24.1481 12.7568 24.2027 12.5968C22.1098 11.7133 20.3587 10.282 17.739 10.2055L18.0614 9.40725C17.5118 9.41943 16.7014 9.3116 16.4459 9.72551C16.0513 8.23855 13.5796 8.56899 12.4063 8.29072C12.7587 6.9429 14.5292 6.28377 15.7994 6.05769L15.7994 6.37594C17.0837 5.99507 18.2429 6.40378 19.1924 7.01421C19.3898 6.32899 18.4966 6.18812 17.9011 6.05769C18.9387 4.85074 20.0909 7.05768 21.2942 6.69594C20.6229 7.21767 21.3347 7.6142 21.9407 7.3342L21.9407 7.65246L22.4252 7.65246L22.4252 7.3342C22.8727 7.23855 24.1305 7.8716 23.7165 8.45073L24.3631 8.45073L24.3631 8.13072C28.8801 9.9255 33.42 13.9638 35.675 18.0212C37.2236 17.489 37.1425 19.8212 37.937 20.4925C39.0892 21.1203 39.4098 22.5307 39.956 23.6038C42.8716 28.7499 44.9504 37.3899 43.4301 42.5864C44.2422 46.1342 42.8663 50.5046 41.3301 53.2733C41.3671 54.3168 40.0881 58.8055 38.4215 58.3777C39.2918 59.4212 35.4002 64.5133 33.8974 64.2803C34.2128 64.856 33.6402 65.1186 33.0888 65.2368C28.5083 70.1568 20.8449 73.4281 14.0218 74.329C14.1839 74.489 14.346 74.6473 14.5063 74.8073C13.599 74.6212 9.87651 75.0525 10.7908 76.2438C10.9934 75.7464 13.4334 76.0699 13.0529 76.8803C12.7267 76.9206 12.3955 76.884 12.0864 76.7733C11.7774 76.6626 11.4994 76.4812 11.2753 76.2438C11.7404 76.4873 11.5713 77.5412 10.9529 77.3603C11.1097 77.0594 11.0798 76.7533 10.7908 76.562C10.4526 77.1499 11.3775 77.8907 10.7908 78.4751C11.4762 78.6612 12.0804 77.9864 11.4374 77.5168C11.8144 77.3307 12.2848 77.4125 12.7305 77.5168C12.6759 77.6768 12.6212 77.8368 12.5684 77.9951L12.2443 77.8368C12.3517 78.209 12.4609 78.5812 12.5684 78.9533C12.8432 78.4003 13.4105 78.2403 14.0218 78.3151C13.9866 77.8333 13.4933 77.7933 13.0529 77.8368L13.6994 77.5168C13.1833 77.202 13.1057 76.4316 13.8615 76.5603L13.8615 76.8786L14.5063 76.8786C14.6014 77.2264 14.168 77.2907 13.8615 77.3586C14.2896 77.489 14.804 77.7064 14.5063 78.1551L15.477 77.8368L14.6684 76.8786C15.5651 76.8594 16.0038 77.5742 17.0925 77.1986L16.9304 77.5168C20.7181 79.8664 16.2116 80.1951 14.1786 79.9168ZM17.0872 79.2786C17.5329 79.1203 17.6862 78.5725 17.0872 78.6403L17.0872 79.2786ZM16.4406 78.8803C16.6503 78.7742 16.5957 78.2907 16.6027 78.0107C14.8727 78.3046 14.5662 79.0629 16.4406 78.8803ZM9.17003 78.162C9.54704 78.162 10.0509 78.2229 10.139 77.8438L9.17003 77.6838L9.17003 78.162ZM5.37182 76.4873L5.61491 76.4073L4.80631 76.249C4.95958 76.409 5.11637 76.5864 5.37182 76.4873ZM8.84591 76.5672L9.17003 76.249L8.68556 75.769C8.73842 76.0351 8.79306 76.3012 8.84591 76.5672ZM14.9925 73.696C15.0665 73.336 15.2409 72.8264 14.8304 72.7394C14.8727 73.0577 14.9326 73.3777 14.9872 73.696L14.9925 73.696ZM15.7994 73.5359C16.1517 73.4873 16.3561 73.2507 16.2838 72.8977C16.1206 73.111 15.9573 73.3238 15.7941 73.5359L15.7994 73.5359ZM11.5977 73.0577C11.6523 72.9516 11.7069 72.8455 11.7598 72.7394C11.7016 72.8455 11.647 72.9516 11.5924 73.0577L11.5977 73.0577ZM-12.6399 72.5794L-12.6399 72.4194C-13.2424 72.4194 -14.6377 72.7673 -14.7399 72.2612C-14.3118 72.2212 -14.1973 71.8577 -14.2554 71.4629L-14.902 71.6229C-14.8474 71.3568 -14.7928 71.0907 -14.7399 70.8246C-15.1944 71.0699 -15.464 71.4646 -15.2244 71.9412C-16.7676 72.289 -17.4934 70.4873 -18.9416 70.5064L-18.295 69.7081C-18.9416 69.6507 -20.4496 69.8959 -20.5571 69.3899C-20.0039 69.4507 -19.4243 69.362 -19.426 68.7516L-18.6174 69.0699C-18.5646 68.8577 -18.5099 68.6455 -18.4553 68.4316C-19.3098 68.1342 -20.4214 68.6716 -21.3639 69.0699C-21.267 68.7568 -21.149 68.3499 -21.526 68.2733C-21.1825 68.1986 -20.6152 68.176 -20.7192 67.7933L-21.6881 67.7933L-21.6881 66.9968L-22.3346 66.9968L-22.3346 67.4751C-22.9988 67.4873 -23.2948 66.9864 -23.3036 66.3586C-23.1084 66.4524 -22.8851 66.4718 -22.6764 66.413C-22.4677 66.3543 -22.2883 66.2216 -22.1726 66.0403L-23.788 65.8803C-23.7352 65.5603 -23.6806 65.242 -23.626 64.922C-23.9783 65.0159 -24.0435 64.5881 -24.1122 64.2855C-24.5174 64.5186 -24.2884 65.0107 -24.1122 65.402L-25.0812 65.402L-24.5967 64.922C-25.541 64.849 -24.7729 63.3968 -25.5656 63.3272C-25.5128 63.5412 -25.4582 63.7533 -25.4036 63.9655L-26.0501 63.9655C-25.6643 62.6664 -26.0254 62.3203 -27.3432 61.4142C-29.0732 60.4003 -28.6345 58.0872 -30.5742 57.7446C-30.4144 57.4791 -30.2529 57.213 -30.0897 56.9464L-30.8983 56.9464C-30.8437 56.7342 -30.7908 56.522 -30.7362 56.3099L-31.3828 56.4681C-30.4297 55.4751 -32.2407 54.7568 -32.0293 53.8368C-31.8532 53.2977 -32.01 53.2003 -32.3517 53.1186C-31.9078 52.0455 -33.185 52.7307 -33.0793 51.4438C-33.303 49.2072 -34.7177 48.3638 -34.2914 46.1012L-34.7759 46.1012C-34.501 43.9759 -35.4682 42.6229 -34.7759 40.8368L-35.1 40.9968C-35.6761 38.9812 -34.6014 36.6594 -35.5845 34.9342C-33.9619 34.8281 -35.8681 32.1307 -34.6137 31.5846L-35.1 31.5846C-35.1171 31.3602 -35.0603 31.1363 -34.9379 30.9464C-34.7776 31.2942 -34.4799 31.4681 -34.1293 31.2664C-36.4495 30.1429 -32.3376 28.2698 -34.1293 27.9151C-34.0764 27.7029 -34.0218 27.4907 -33.969 27.2785C-33.7735 27.3727 -33.5496 27.3921 -33.3404 27.333C-33.1313 27.274 -32.9517 27.1406 -32.8362 26.9585C-33.3524 26.6438 -33.4299 25.8733 -32.6759 26.002L-32.9983 25.0455L-32.1914 24.8855L-32.6759 23.9272L-31.8673 24.2472C-31.9741 23.8751 -32.0822 23.5029 -32.1914 23.1307L-31.7052 23.1307L-31.7052 23.449C-31.0428 23.2455 -31.5026 22.3933 -31.7052 21.8542C-30.7362 22.9881 -30.1196 21.5064 -31.2207 20.8977C-28.7455 20.9568 -27.5599 14.0612 -24.1122 14.0386L-24.5967 13.4003C-23.3829 12.7238 -21.2794 11.9046 -20.7209 10.529L-20.2347 10.8472L-19.9123 9.89072C-19.1618 10.7429 -17.8863 8.24551 -17.4882 9.73073C-17.1834 9.25768 -16.6672 9.30811 -16.1951 9.57246C-16.1422 9.25246 -16.0876 8.9342 -16.0347 8.6142L-14.9037 9.0942C-16.1158 7.38986 -13.8379 9.3029 -13.1262 9.0942C-14.5161 7.05072 -17.8511 5.44202 -19.9123 4.1481C-19.7361 3.49245 -20.4637 3.39333 -21.0433 3.35159C-21.0926 2.52028 -20.5782 2.06636 -19.7502 2.23506C-19.8571 1.96839 -19.9651 1.70231 -20.0744 1.4368C-19.6058 1.90984 -18.7583 1.71159 -18.9433 0.958543C-19.3503 1.13246 -19.7431 1.06116 -19.9123 0.638551C-19.4454 0.541154 -18.8147 0.402017 -18.7813 0.958543L-18.7813 0.48028C-18.3796 0.535936 -18.0131 0.422891 -17.9726 0.00202337C-15.9044 1.8055 -12.5941 3.78985 -10.0555 4.78637L-9.73309 5.74289L-8.76239 5.42464C-8.67606 6.10116 -7.39178 6.49072 -6.82451 6.2229C-3.21124 8.9029 -10.3638 14.5881 -10.8624 19.0629C-11.6481 22.6907 -14.5848 18.6438 -12.1554 17.7064L-12.6417 17.2281C-11.826 16.8803 -10.9135 14.7742 -11.8331 14.3568L-11.0244 14.5168C-10.8747 13.729 -10.3655 12.2229 -9.73309 11.6455C-10.1806 10.7551 -12.1836 11.1638 -12.6417 11.9638L-13.1262 11.0072C-13.5683 11.0977 -13.2618 11.6212 -13.1262 11.9638C-14.5778 11.8785 -15.6701 13.7359 -17.1658 12.922L-17.1658 13.4003L-16.3571 13.4003L-16.3571 13.8785C-17.8722 13.009 -18.4043 15.5377 -19.5881 13.8785C-19.3305 14.0845 -19.1563 14.3749 -19.0971 14.6969C-19.038 15.0189 -19.0978 15.3512 -19.2657 15.6333L-19.9123 15.1551C-20.1431 15.7446 -21.0874 17.1533 -22.0123 16.7499C-21.3551 18.2872 -23.1661 17.0542 -23.4674 17.7064L-22.9829 17.7064C-22.8473 18.3655 -23.5819 18.4542 -23.7898 17.8664C-23.7369 18.1325 -23.6823 18.3985 -23.6277 18.6646C-23.7264 18.2125 -24.4645 18.4629 -24.9208 18.5046C-24.8486 18.8299 -24.5438 18.7916 -24.2743 18.6646C-23.973 19.649 -25.5462 19.4333 -25.245 20.4194L-25.7294 20.2594C-25.4705 21.2664 -27.2551 21.8977 -26.6984 22.9707C-27.5299 22.842 -27.6215 25.2455 -28.7983 24.7255L-28.7983 25.2038L-28.1536 25.2038L-28.1536 25.6803C-28.7191 25.6368 -29.2916 25.7029 -29.607 26.1603C-29.0485 26.2994 -28.9252 26.7672 -29.1225 27.2768C-29.5295 27.1029 -29.9223 27.1742 -30.0914 27.5951C-30.3293 26.3238 -30.7292 27.3412 -30.738 28.0733L-29.607 27.7551L-29.9311 28.3933L-29.4449 28.5516C-29.3762 29.722 -31.0939 30.2907 -30.9001 31.1046C-29.8431 29.9986 -29.843 31.7916 -30.738 32.1481C-30.0544 32.9899 -31.0023 34.4333 -30.0914 35.4177C-30.5883 35.4646 -30.9582 35.7899 -31.2225 36.2159C-31.0082 35.942 -30.892 35.6056 -30.892 35.2594C-30.892 34.9133 -31.0082 34.5769 -31.2225 34.3029C-31.3474 34.4785 -31.5194 34.6162 -31.7191 34.7007C-31.9189 34.7852 -32.1386 34.813 -32.3535 34.7812C-31.5748 35.0994 -31.8356 36.3829 -32.3535 36.8559C-31.6893 36.682 -31.5889 37.4003 -31.5466 37.9725C-31.9201 38.0699 -32.0452 37.5133 -32.1932 37.1742C-32.4345 37.4716 -32.7939 40.4246 -31.7069 39.8855C-32.7005 42.9151 -31.2542 49.5586 -29.2846 51.5377C-29.7497 53.5916 -27.1705 56.8855 -25.5674 58.2368C-25.6749 58.3968 -25.7823 58.5568 -25.8915 58.7151L-24.7605 58.8751C-26.1294 61.1951 -22.3505 60.0455 -22.6588 61.5864L-23.3053 60.7899C-24.5244 63.329 -19.6885 62.5046 -20.8812 64.4577C-20.0638 64.2838 -19.4401 64.9116 -18.9433 65.5742C-18.3479 64.4873 -20.1043 64.5464 -19.9123 63.6612C-19.3045 63.5951 -19.0103 64.3568 -18.2968 64.1394C-18.6738 65.1081 -18.0907 65.6038 -17.1658 65.0959L-17.4882 66.3725L-16.5192 65.8942C-16.3906 66.1603 -16.3431 66.4594 -16.6813 66.5325L-15.8727 66.5325L-15.8727 67.0107L-14.5796 66.6907L-14.7417 67.0107L-14.2572 66.8507C-14.1251 67.4403 -13.9806 68.322 -13.2865 68.1273C-13.3411 67.9151 -13.3957 67.7012 -13.4486 67.489L-12.802 67.329C-13.2548 67.9446 -11.6111 68.7429 -11.9952 69.482C-12.3246 70.282 -11.1584 70.1777 -11.3486 70.8386L-12.6417 70.5203C-12.5871 70.6786 -12.5325 70.8386 -12.4796 70.9986C-12.9835 70.8873 -13.9084 70.5029 -13.933 71.1586L-13.4486 71.1586L-13.4486 71.4768C-12.5448 71.1725 -11.5776 71.289 -10.702 71.6368C-11.1231 72.3986 -11.7591 72.9186 -12.6399 72.7533L-12.6399 72.5794ZM16.1235 72.1812C17.2986 71.922 16.0161 71.6455 15.477 71.6229C15.5422 71.9638 15.6003 72.289 16.1183 72.1812L16.1235 72.1812ZM11.7598 71.7812L12.0839 71.7812C12.0293 71.6751 11.9747 71.569 11.9218 71.4629L11.7598 71.7812ZM17.5734 71.7812C17.628 71.6229 17.6809 71.4629 17.7355 71.3029L17.4113 71.3029C17.4642 71.4629 17.5153 71.6229 17.5717 71.7812L17.5734 71.7812ZM-11.1971 71.1446L-11.3592 70.9846L-10.7126 70.8246L-11.035 71.3029L-11.1971 71.1446ZM15.787 71.3029L16.1112 70.9846L15.625 70.9846C15.6866 71.0907 15.7412 71.1968 15.7941 71.3029L15.787 71.3029ZM-16.2867 71.1446L-15.8833 71.1446C-15.8163 69.4577 -18.8377 71.1638 -16.2796 71.1446L-16.2867 71.1446ZM14.9802 71.1446L15.3026 71.1446C15.4065 70.762 14.8375 70.7394 14.494 70.6646C14.575 70.9116 14.6402 71.162 14.9872 71.1446L14.9802 71.1446ZM19.5043 70.5064L19.6646 70.3464L18.5336 70.0264C18.5582 70.4525 19.1713 70.8038 19.5113 70.5064L19.5043 70.5064ZM20.7163 70.6646L20.9577 70.6646C20.7339 70.2281 22.2155 69.0281 22.5732 69.3899L22.4129 68.7516C23.0946 69.5551 25.4254 68.2838 25.6438 67.4751L26.1283 67.6351C26.5211 66.9603 27.6627 67.0403 27.4214 65.722C26.4507 65.9777 26.012 66.8229 24.6749 66.5203L24.8352 66.2003L24.3507 66.2003C24.8282 67.0699 23.565 67.1133 22.8973 67.3168L23.2197 67.9551L22.5732 67.9551C22.67 68.409 22.256 68.8646 21.7663 68.5933C21.3681 68.2681 20.5331 69.8107 20.2301 69.7099C19.6469 69.3777 19.3915 68.2246 19.173 69.7099C19.8619 69.2386 20.223 70.5864 20.7234 70.6646L20.7163 70.6646ZM-10.9469 70.0281L-10.8677 69.8699L-11.028 70.1881L-10.9469 70.0281ZM-17.8176 69.5499L-17.171 69.5499L-17.171 69.2316L-17.8176 69.5499ZM-13.1314 69.0716C-13.0768 68.8055 -13.024 68.5394 -12.9694 68.2751C-13.3446 68.3499 -13.2266 68.7568 -13.1297 69.0699L-13.1314 69.0716ZM28.8801 68.5933C28.9347 68.4873 28.9893 68.3812 29.0422 68.2751C28.9911 68.3794 28.9365 68.4855 28.8819 68.5916L28.8801 68.5933ZM-11.8384 68.1951L-11.8384 67.9551L-11.1918 67.9551L-11.1918 68.4333L-11.8384 68.4333L-11.8384 68.1951ZM-19.7555 68.1151C-19.8101 68.009 -19.863 67.9029 -19.9176 67.7951C-19.8612 67.9012 -19.8084 68.0073 -19.7537 68.1151L-19.7555 68.1151ZM23.5491 67.5568L23.5491 67.3168L23.8716 67.3168L23.5491 67.7951L23.5491 67.5568ZM-24.1968 66.8368C-24.225 66.7307 -24.2514 66.6246 -24.2778 66.5186L-23.9554 66.5186C-24.0082 66.7307 -24.0629 66.9429 -24.1175 67.1568L-24.1968 66.8368ZM-24.9243 66.1186L-24.764 66.0403L-25.0864 66.1986L-24.9243 66.1186ZM25.9715 65.8803L26.2939 65.8803L26.2939 65.402L25.9715 65.402L25.9715 65.8803ZM27.2628 65.402L27.587 65.402L27.587 64.7638L27.2628 64.7638L27.2628 65.402ZM-26.5434 64.922L-26.5434 64.7638L-26.0589 64.7638L-26.5434 65.082L-26.5434 64.922ZM-17.5762 64.4438L-17.8194 64.1255L-17.0107 64.4438L-17.3331 64.7638L-17.5762 64.4438ZM-27.0296 63.8855L-26.8675 63.8055L-27.1899 63.9655L-27.0296 63.8855ZM-27.0296 63.5672L-26.8675 63.4873L-27.1899 63.6472L-27.0296 63.5672ZM-20.5659 63.169L-20.4038 63.009L-20.728 63.3272L-20.5659 63.169ZM30.2525 63.089C30.2789 63.009 30.3071 62.929 30.3335 62.849C30.3881 63.009 30.4409 63.169 30.4956 63.3272L30.1714 63.3272C30.1996 63.2455 30.2296 63.169 30.256 63.089L30.2525 63.089ZM-20.1607 62.929C-20.1889 62.849 -20.2153 62.769 -20.2417 62.689L-19.7573 62.689L-19.7573 63.169C-19.9387 63.1777 -20.0849 63.1777 -20.1572 62.929L-20.1607 62.929ZM-28.3209 62.4507L-28.1606 62.3707L-28.483 62.5307L-28.3209 62.4507ZM-21.2124 62.1307L-21.0503 62.0525L-21.3727 62.2107L-21.2124 62.1307ZM-21.5348 61.4925L-21.3727 61.4142L-21.6969 61.5725L-21.5348 61.4925ZM32.8422 60.856C32.9162 60.4803 33.0078 60.4351 33.2456 60.456C33.3178 60.8229 33.0941 61.0925 32.7611 61.2542C32.7876 61.1203 32.814 60.9846 32.8422 60.856ZM-23.9554 59.8125C-24.3553 59.6386 -24.0822 59.1777 -23.9554 58.8559C-23.559 59.1603 -23.034 59.5046 -23.1468 59.9725C-23.4259 60.0015 -23.7075 59.9476 -23.9554 59.8177L-23.9554 59.8125ZM37.2852 59.9725C37.5935 59.9046 38.0251 59.8386 37.9317 59.4942L37.2852 59.4942L37.2852 59.9725ZM33.8922 59.1029L34.0542 58.8629C33.2333 58.8212 31.5544 56.8942 32.8404 56.4699C33.2932 56.3116 33.7865 53.6142 34.699 53.6872C35.5094 53.4751 35.6063 53.0768 35.6697 52.4907C35.1976 52.3707 35.0038 52.8716 34.8611 53.289L34.3766 52.969L34.8611 52.969C34.8082 52.7568 34.7536 52.5446 34.699 52.3325C35.5341 52.4681 35.18 51.0507 35.5887 50.816C36.3727 50.8455 36.3233 52.1638 36.3163 52.8107C36.3766 52.7425 36.4511 52.6877 36.5347 52.6502C36.6182 52.6127 36.7089 52.5933 36.8007 52.5933C36.8925 52.5933 36.9833 52.6127 37.0668 52.6502C37.1504 52.6877 37.2249 52.7425 37.2852 52.8107C36.8184 53.0681 37.1725 53.8872 37.2852 54.4055L36.8007 53.9273C36.7391 54.8907 35.9199 55.3186 36.4766 56.3203C35.3755 56.369 35.3068 57.2959 35.5076 58.2333C33.612 57.2577 35.1218 59.602 33.7301 59.3499L33.8922 59.1029ZM-23.7158 58.2333C-23.6894 58.1812 -23.663 58.1273 -23.6348 58.0751C-23.6894 58.1812 -23.744 58.2872 -23.7969 58.3933L-23.7158 58.2333ZM33.5645 58.2333C33.9168 57.9081 33.7723 57.5377 33.4042 57.2768C33.4605 57.5846 33.5152 57.9046 33.568 58.2229L33.5645 58.2333ZM32.2731 57.9151L32.4335 57.7551L32.1111 58.0751L32.2731 57.9151ZM-25.7365 57.5951C-25.5744 57.2281 -25.127 57.2716 -24.7676 57.2768C-24.6143 57.8403 -25.4035 57.8438 -25.8986 57.9151C-25.8404 57.7985 -25.7858 57.6925 -25.733 57.5846L-25.7365 57.5951ZM-26.0589 56.9568L-26.0589 56.7986L-25.5744 56.7986L-26.0589 57.1168L-26.0589 56.9568ZM34.3678 56.0003L34.6902 55.682C34.2762 55.7829 33.7882 55.889 33.5592 55.522C33.5064 55.7342 33.4517 55.9481 33.3989 56.1603C33.7547 56.2525 34.0595 56.3307 34.3766 55.9899L34.3678 56.0003ZM38.085 55.0438L38.085 54.7238L38.5695 54.7238C38.6417 55.0716 38.4391 55.3133 38.085 55.362L38.085 55.0438ZM-26.8728 54.8038C-26.9257 54.7238 -26.9803 54.6455 -27.0349 54.5655C-26.5997 54.3377 -26.0871 54.2177 -25.9039 54.7238C-26.2051 54.8316 -26.6702 55.0959 -26.864 54.7933L-26.8728 54.8038ZM35.1764 54.8838C35.5869 53.7429 34.8083 53.9307 34.0454 54.4055C34.3978 54.5394 34.9263 54.842 35.0144 54.4055C35.076 54.5499 35.1324 54.7133 35.1853 54.8733L35.1764 54.8838ZM-27.1142 54.0873L-27.1952 53.9272L-26.7037 53.9272L-27.0279 54.2455L-27.1142 54.0873ZM37.3645 52.1742L37.7679 52.0142L37.4455 51.2177L37.93 51.0577C38.0604 51.7968 37.7539 52.3794 36.9593 52.3342L37.3645 52.1742ZM-28.4002 51.8542C-28.3738 51.802 -28.3473 51.7481 -28.3192 51.6959L-28.1589 52.0142L-28.4813 52.0142L-28.4002 51.8542ZM36.7179 51.1255L36.9593 50.8855C36.799 51.0455 36.6369 51.2055 36.4748 51.3638L36.7179 51.1255ZM37.8489 50.2559C37.9335 49.7116 37.9547 49.5846 38.2524 49.6177C38.2524 50.1394 38.3422 50.8612 37.7679 50.8942C37.7961 50.6733 37.8243 50.4612 37.8507 50.2473L37.8489 50.2559ZM35.9111 49.6977L36.3163 48.8281L36.961 50.2629L36.4766 50.1046C36.4413 50.5846 35.9481 50.6264 35.5076 50.5829L35.9111 49.6977ZM-28.7226 49.4594L-28.8019 49.1394C-28.4724 49.2125 -28.513 49.5116 -28.6416 49.7777C-28.668 49.6629 -28.6944 49.5568 -28.7226 49.4507L-28.7226 49.4594ZM38.1731 48.9012L38.2542 48.3429L37.7697 48.5012C37.7151 48.3429 37.6622 48.1829 37.6076 48.0229L38.7386 48.0229C38.765 48.6299 38.8144 49.4786 38.0939 49.4594L38.1731 48.9012ZM40.1938 48.5012L40.6783 48.5012L40.6783 48.1829L40.1938 48.1829L40.1938 48.5012ZM39.5473 48.3429L40.0317 48.0229L39.5473 48.0229L39.5473 48.3429ZM36.5524 48.0229L36.7955 47.8629L36.311 48.1829L36.5524 48.0229ZM-29.5224 47.6959L-29.4414 47.5359C-29.496 47.642 -29.5506 47.7481 -29.6035 47.8542C-29.5841 47.802 -29.5577 47.7481 -29.5224 47.6959ZM37.1231 47.7673L37.2852 47.6872L36.961 47.8455L37.1231 47.7673ZM37.8507 47.2872C37.8243 47.209 37.7961 47.129 37.7697 47.049L38.2542 46.889L37.9317 47.5273C37.9036 47.4559 37.8771 47.3759 37.8507 47.2959L37.8507 47.2872ZM-30.4191 47.129L-30.4191 46.8977L-30.095 46.8977L-30.095 47.3759L-30.4191 47.3759L-30.4191 47.129ZM40.754 47.2872L40.9954 47.209L40.1885 46.889C40.3312 47.1029 40.481 47.4038 40.7593 47.2959L40.754 47.2872ZM38.8954 46.809C38.8426 46.729 38.7879 46.6507 38.7333 46.5707C39.0857 46.4994 39.3306 46.6977 39.3799 47.049C39.2854 47.0678 39.1872 47.0553 39.1006 47.0135C39.014 46.9717 38.9437 46.9029 38.9007 46.8177L38.8954 46.809ZM37.1179 46.6507L37.1179 46.4107C37.4262 46.4786 37.8578 46.5464 37.7644 46.889L37.1179 46.889L37.1179 46.6507ZM-30.5847 46.6507L-30.4244 46.5707L-30.7468 46.729L-30.5847 46.6507ZM38.3299 46.0925C38.3563 45.9846 38.3845 45.8786 38.411 45.7725C38.3564 45.9846 38.3035 46.1986 38.2489 46.4107C38.2823 46.3133 38.3035 46.202 38.3352 46.1012L38.3299 46.0925ZM39.8644 45.6125L39.704 45.4542C40.081 45.3777 39.963 44.9707 39.8644 44.6559L39.2196 44.816C39.165 44.5499 39.1104 44.2838 39.0575 44.0177C39.9137 44.3655 41.1029 44.8055 40.8351 45.7725C40.5197 45.7812 40.0528 45.8159 39.8696 45.6212L39.8644 45.6125ZM-31.1502 45.4542L-31.071 45.2942L-31.2313 45.6125C-31.1996 45.569 -31.1731 45.5064 -31.1449 45.4629L-31.1502 45.4542ZM38.1678 45.1342L38.0886 44.816L38.411 44.816C38.3564 45.0281 38.3035 45.2403 38.2489 45.4542C38.2277 45.3568 38.2013 45.249 38.1731 45.1429L38.1678 45.1342ZM-30.5794 44.9846L-30.7415 44.8264L-29.9347 44.6664L-29.9347 45.1446C-30.1619 45.1481 -30.4174 45.1586 -30.5794 44.9846ZM-31.307 44.8264L-31.3881 44.6664L-31.226 44.9846C-31.2542 44.9307 -31.2841 44.8768 -31.307 44.8246L-31.307 44.8264ZM-29.8536 43.9481C-29.88 43.8681 -29.9065 43.7899 -29.9347 43.7099L-29.4484 43.5499C-29.5577 43.762 -29.6651 43.9759 -29.7726 44.1881C-29.799 44.1064 -29.8254 44.0264 -29.8536 43.9412L-29.8536 43.9481ZM40.1128 43.4699C40.229 43.0177 39.7322 42.7029 39.3852 42.4264C39.9137 42.4264 40.5867 42.5012 40.8403 42.1081C41.0711 42.9151 40.8862 43.6455 40.0317 43.8612C40.0652 43.7342 40.0863 43.5933 40.1128 43.4681L40.1128 43.4699ZM-30.9846 43.1516C-30.9565 43.0177 -30.93 42.8855 -30.9036 42.7516L-29.9347 43.2316C-30.021 43.6385 -30.6393 43.5412 -31.0657 43.5499C-31.0375 43.4194 -31.0111 43.282 -30.9846 43.1499L-30.9846 43.1516ZM37.9317 43.1516C38.0815 42.7846 38.1696 42.7307 38.4162 42.7516C38.27 43.0994 38.1449 43.649 37.7697 43.5499C37.8243 43.4194 37.8771 43.282 37.9317 43.1499L37.9317 43.1516ZM38.7386 43.3899L38.9007 43.2316L38.5783 43.5499L38.7386 43.3899ZM37.3662 43.1516C37.3927 43.0716 37.4191 42.9916 37.4473 42.9116C37.3927 43.0716 37.3381 43.2316 37.2852 43.3899C37.3116 43.3081 37.3381 43.2299 37.3662 43.1499L37.3662 43.1516ZM-30.4191 41.7951C-30.7715 41.1568 -30.7538 40.4281 -30.7415 39.722C-30.405 39.9359 -29.8395 40.1551 -29.9347 40.5186L-30.4191 40.5186C-30.5354 41.4125 -29.8289 41.809 -29.7726 42.4316C-30.0809 42.4612 -30.1267 42.3238 -30.4191 41.7933L-30.4191 41.7951ZM-31.3881 40.9986L-31.226 40.8385L-31.5502 41.1568L-31.3881 40.9986ZM41.1627 40.9986C41.2702 40.8907 41.3777 40.7846 41.4869 40.6786L41.0007 40.6786C41.0553 40.7829 41.1099 40.889 41.1627 40.9968L41.1627 40.9986ZM41.2438 40.2003C41.545 40.0177 41.2896 39.6594 41.1627 39.402C40.9478 39.562 40.7323 39.7215 40.5162 39.8803C40.7188 40.0786 40.9654 40.4003 41.2438 40.1986L41.2438 40.2003ZM37.9317 39.482L37.9317 39.2455L38.2542 39.2455L37.9317 39.7238L37.9317 39.482ZM-31.7915 38.8438C-31.8197 38.6055 -31.8461 38.3655 -31.8726 38.1272L-31.5502 38.1272C-31.8902 38.6786 -31.0216 38.9446 -31.226 39.562C-31.6153 39.5933 -31.714 39.4942 -31.7915 38.842L-31.7915 38.8438ZM-30.9846 39.1638C-31.0111 39.0838 -31.0375 39.0038 -31.0657 38.9238L-30.257 39.0838L-30.9036 39.402C-30.9318 39.3203 -30.9565 39.2455 -30.9846 39.162L-30.9846 39.1638ZM40.5162 39.402C41.1011 38.7933 41.1293 38.042 40.6783 37.329C40.6219 38.0177 40.5679 38.7081 40.5162 39.4003L40.5162 39.402ZM38.0128 38.4455C37.9846 38.3394 37.9582 38.2333 37.9317 38.1273L38.5783 38.4455L38.0939 38.7638C38.0657 38.6559 38.0392 38.5499 38.0128 38.4438L38.0128 38.4455ZM42.1317 38.1273L42.4559 37.8072L41.9714 37.8072L42.1317 38.1273ZM-30.6605 37.8072L-30.5794 37.6472L-30.7415 37.9673L-30.6605 37.8072ZM-30.6605 37.0107L-30.7415 36.6907C-30.3892 36.7412 -30.1848 36.9759 -30.257 37.329C-30.4684 37.3429 -30.5794 37.322 -30.6605 37.009L-30.6605 37.0107ZM37.8507 36.8507C37.8243 36.7968 37.7961 36.7446 37.7697 36.6907L38.0939 36.6907C38.0392 36.7968 37.9846 36.9029 37.9317 37.0107L37.8507 36.8507ZM-35.9932 36.5307L-36.0742 36.3725L-35.7501 36.3725C-35.8047 36.4785 -35.8593 36.5846 -35.9122 36.6907L-35.9932 36.5307ZM40.7593 34.9359L41.1627 34.6177C40.8016 34.7429 40.4052 34.7916 40.1938 34.4577C39.9507 34.8977 40.1762 35.4507 40.7593 34.9342L40.7593 34.9359ZM36.7179 34.696C36.6915 34.616 36.6633 34.5359 36.6369 34.456L36.9593 34.6159L36.799 34.9342C36.7725 34.8542 36.7461 34.7742 36.7179 34.696ZM38.4955 34.6159L38.7369 34.456L38.7369 34.7742L38.2524 34.7742L38.4955 34.6159ZM-35.4277 33.5064L-35.2656 33.1864C-35.3731 33.4003 -35.4823 33.6125 -35.5897 33.8246L-35.4277 33.5064ZM39.8696 33.6646L40.3559 33.1864L39.5473 32.7081L39.8696 33.6646ZM-31.226 32.8681C-30.7556 32.6942 -30.7961 32.282 -31.0657 31.9099C-31.1185 32.2229 -31.1731 32.5412 -31.226 32.8612L-31.226 32.8681ZM36.3955 32.2299L35.83 31.9099C36.2388 31.6472 36.7109 31.3481 37.1232 31.5916L36.8007 31.7516L37.2852 32.2299C37.0562 32.4959 36.9152 32.5116 36.3955 32.2229L36.3955 32.2299ZM37.7697 32.3099L37.9317 32.2299L37.6076 32.3899L37.7697 32.3099ZM35.6697 31.0333L35.5076 30.7933L36.3163 30.6351C36.4343 31.0281 35.9745 31.4629 35.6697 31.0264L35.6697 31.0333ZM36.8818 30.6351L36.961 30.4751C37.0157 30.5812 37.0703 30.6873 37.1232 30.7933L36.8007 30.7933C36.8272 30.7342 36.8536 30.6803 36.8818 30.6281L36.8818 30.6351ZM40.0317 30.4751L40.5162 30.1568L40.0317 30.1568L40.0317 30.4751ZM-34.4587 30.3151L-34.2967 29.9968L-34.619 29.9968L-34.4587 30.3151ZM35.8336 29.6768L35.6733 29.3586C36.0256 29.4838 36.4308 29.5325 36.6422 29.1985C36.6968 29.4646 36.7497 29.7307 36.8043 29.9968C36.4414 29.9933 35.9921 30.0386 35.8371 29.6699L35.8336 29.6768ZM36.4801 27.922L36.8043 27.922C36.7497 27.7638 36.6968 27.6038 36.6422 27.4438C36.5841 27.5933 36.5312 27.7568 36.4766 27.9151L36.4801 27.922ZM37.9317 25.362L38.0939 25.362L38.0939 24.8838L37.6076 24.8838C37.6728 25.0681 37.7327 25.369 37.9317 25.3638L37.9317 25.362ZM32.999 24.6438L32.5956 24.0855L33.2421 24.0855C33.1699 24.4333 33.3707 24.6733 33.7266 24.7238L33.4042 25.202L32.999 24.6438ZM-28.4848 24.4055L-27.8382 24.0855L-28.4848 24.0855L-28.4848 24.4055ZM37.1989 23.8473C37.4737 23.7725 37.4456 23.5116 37.442 23.289L36.6334 23.289C36.7673 23.5325 36.9065 23.9551 37.2042 23.849L37.1989 23.8473ZM-28.0003 23.289C-27.8929 23.2351 -27.7854 23.1812 -27.6761 23.129C-27.7801 23.1829 -27.8876 23.2368 -27.995 23.2907L-28.0003 23.289ZM-29.1313 22.969L-28.6416 22.969L-28.6416 22.6507L-29.126 22.6507L-29.1313 22.969ZM37.9265 22.1725L38.411 21.8525L37.7644 21.5342C37.8243 21.7481 37.8771 21.9603 37.9317 22.1742L37.9265 22.1725ZM31.3817 21.5342C31.3553 21.3742 31.3289 21.2142 31.3007 21.0559C31.5685 21.362 31.882 21.7707 31.4628 22.0125C31.4416 21.8542 31.4134 21.6942 31.387 21.5359L31.3817 21.5342ZM-27.0314 20.8959C-26.9768 20.7359 -26.9221 20.5759 -26.8693 20.4177C-26.9168 20.5777 -26.9715 20.7377 -27.0261 20.8977L-27.0314 20.8959ZM36.9558 20.8959C37.065 20.6304 37.173 20.3644 37.2799 20.0977L36.6334 20.2577L36.9558 20.8959ZM-13.7815 18.4246L-13.6194 18.1864L-13.6194 18.6646L-13.9418 18.6646L-13.7815 18.4246ZM-13.0539 17.3881L-12.8108 17.2281L-12.8108 17.5481L-13.2953 17.5481L-13.0539 17.3881ZM29.3628 17.2281L29.6852 17.2281C29.6324 17.122 29.5777 17.0159 29.5231 16.9098L29.3628 17.2281ZM-25.0917 17.0699C-24.5051 16.8316 -24.609 16.3203 -25.2538 16.4316C-25.1939 16.6368 -25.1411 16.8559 -25.0864 17.0699L-25.0917 17.0699ZM33.3971 17.0699L33.5574 17.0699L33.5574 16.4316C33.117 16.3933 32.6237 16.4316 32.5885 16.9098C32.8559 16.9884 33.1301 17.042 33.4077 17.0699L33.3971 17.0699ZM-24.6125 16.2716C-22.7028 16.0472 -22.5461 13.9481 -20.2488 14.6768C-20.2875 14.2246 -20.6769 14.202 -21.0574 14.3568C-21.1648 13.9446 -20.469 13.9603 -20.0884 13.8785C-20.173 12.9742 -18.1347 12.1394 -17.2697 11.7255C-16.151 11.5516 -16.3677 12.9881 -15.5714 11.6455L-16.5421 11.6455L-16.5421 11.1673C-16.9632 11.4855 -18.702 11.6177 -18.6421 12.2838C-19.4014 11.8246 -19.7255 12.8959 -20.2576 12.922C-20.2047 12.762 -20.1501 12.602 -20.0973 12.4438C-21.223 13.8333 -23.7775 14.6733 -24.602 16.2716L-24.6125 16.2716ZM31.6196 15.7933C32.0758 15.9586 32.6995 15.3777 32.1851 15.0751C31.8803 14.9742 31.7535 15.5116 31.6301 15.7933L31.6196 15.7933ZM-21.704 15.4733L-20.8953 15.3151L-21.5419 14.8351C-21.5859 15.049 -21.6388 15.2612 -21.6934 15.4733L-21.704 15.4733ZM-21.866 13.7185L-21.3798 13.2403L-21.866 13.2403L-21.866 13.7185ZM-14.7593 11.4855L-14.4351 11.0072L-14.9002 11.0072C-14.8526 11.1672 -14.798 11.3272 -14.7452 11.4855L-14.7593 11.4855ZM-12.6593 11.1673L-12.0128 10.8472C-12.0903 10.4768 -12.5025 10.5916 -12.8196 10.689C-12.7527 10.8473 -12.6981 11.0072 -12.6452 11.1673L-12.6593 11.1673ZM-10.7214 11.0072C-10.6134 10.7406 -10.5053 10.4751 -10.3973 10.2107L-11.0438 10.529L-10.7214 11.0072ZM26.2745 10.2107L26.921 9.89072L26.2745 9.89072L26.2745 10.2107ZM18.1918 9.73073L18.5142 9.73073L18.3539 9.41246L18.1918 9.73073ZM23.8469 9.73073L24.171 9.73073C24.1164 9.62465 24.0618 9.51854 24.009 9.41246L23.8469 9.73073ZM-16.9526 8.77421L-16.8716 8.6142L-17.0337 8.93419L-16.9526 8.77421ZM21.5849 8.29595L22.0957 8.29595L22.0957 7.97767L21.6113 7.97767L21.5849 8.29595ZM19.3228 8.13594L19.8073 7.97767L19.4849 7.49767C19.4532 7.71158 19.4038 7.92376 19.3492 8.13594L19.3228 8.13594ZM12.0522 7.41768L12.2125 7.33943L11.8902 7.49767L12.0522 7.41768ZM19.8038 7.49767C19.8584 7.33941 19.9112 7.17941 19.9658 7.01941L19.6417 7.01941C19.7262 7.17941 19.7808 7.33941 19.8337 7.49767L19.8038 7.49767ZM14.9573 6.85943L15.6021 6.85943L15.6021 6.54115L14.9573 6.54115L14.9573 6.85943ZM17.3004 5.58463L17.2193 5.42464L17.7038 5.26464C17.5963 5.42463 17.4889 5.58464 17.3796 5.74289L17.3004 5.58463ZM15.7642 5.26464L15.9262 5.10637L15.6021 5.42464L15.7642 5.26464ZM-20.5113 1.35681L-20.1078 1.11855L-20.9147 1.59681L-20.5113 1.35681Z" fill="#05060F"/>
  </g>
  <defs>
    <clipPath id="clip0_1762_1804">
      <rect width="50" height="80" fill="white" transform="matrix(1 8.74228e-08 8.74228e-08 -1 0 80)"/>
    </clipPath>
  </defs>
</svg>