<svg xmlns="http://www.w3.org/2000/svg" width="53" height="50" viewBox="0 0 53 50" fill="none">
  <g clip-path="url(#clip0_1762_1701)">
    <path d="M47.9317 0.153868L47.8563 0.305771H48.1587C48.1084 0.204498 48.0582 0.103226 48.007 0.00195312L47.9317 0.153868ZM48.5732 0.115886C48.479 0.256041 48.9456 0.419706 48.8756 0.534543C48.8056 0.649379 47.9083 0.542681 47.6302 0.534543C47.9586 -0.363352 46.715 0.596026 46.4979 0.0779049C45.9963 0.381724 44.6307 -0.044161 44.1578 0.534543V0.153868C43.5037 0.485718 40.3813 -0.17527 40.3086 0.60598C39.9712 0.55896 40.1345 0.165619 39.667 0.263275C38.9349 0.296732 38.8075 0.0987065 37.8178 0.263275C36.716 0.44412 37.0623 0.198175 36.2323 0.301257C35.6814 0.429657 35.8169 0.221681 35.4024 0.263275C35.1933 0.29854 35.1466 0.271412 35.1 0.149342C34.8488 0.368165 34.7294 0.350081 34.1561 0.263275C33.5765 0.0824304 32.9071 0.387148 32.4962 0.302151C32.2512 0.183697 31.5164 0.432359 31.2131 0.302151C30.8802 0.225292 30.8093 0.316621 30.7223 0.530922C30.3562 -0.0170378 29.3899 0.467633 28.9484 0.379019C27.2364 0.162909 24.9817 0.46944 23.3244 0.682837C23.3684 0.28317 21.4509 0.722618 20.8336 0.530922C20.8202 0.932398 21.0391 1.15303 21.4375 1.13946L21.2868 1.74802C21.6205 1.45324 22.0045 1.22627 22.4191 1.36733C22.2701 1.40079 21.9875 1.41526 22.0413 1.5961C22.551 1.65216 22.4352 1.29408 23.0983 1.44328C23.6887 1.64944 23.8026 1.02192 24.1929 1.21543C24.4442 1.51201 24.4567 1.67658 24.9107 1.66754C24.7932 1.89812 24.0288 1.68923 23.8915 1.81944C23.6941 1.92343 23.197 1.682 22.9108 1.89539C22.3984 2.12507 22.2755 1.58615 21.7443 1.59158V1.97136C21.1539 1.54818 20.6766 2.6233 20.4613 1.97136C20.717 1.95598 20.874 1.74801 20.9898 1.51924C20.5609 1.47494 20.7359 1.08702 20.3482 1.02553C20.1688 1.00021 20.0835 0.949581 20.0835 0.872722C20.0593 0.68193 19.1737 0.643054 19.1405 0.911608C19.0409 1.18288 18.7376 1.16027 18.7251 0.911608C18.5035 0.549918 16.8704 0.338325 16.9889 1.06442H16.4604L16.5358 0.759694C15.4133 0.561669 16.1159 1.47494 16.6489 1.59701C16.7754 1.59701 16.8507 1.67296 16.8758 1.82487C16.936 2.17662 17.3882 1.97226 17.442 2.35746C17.5317 2.25076 17.5963 2.20374 17.7812 2.2815C18.0503 2.41171 18.1832 2.01024 17.9705 1.90082C17.9346 2.11513 17.5048 2.03918 17.2904 2.05274C17.3631 0.826611 17.8978 1.73174 18.4981 1.60063L18.272 1.2959C18.6713 1.23532 18.962 1.47132 18.8758 1.90445C19.6152 1.59249 19.3711 1.23713 20.5366 1.2959C20.3087 1.83844 20.3572 2.74989 20.9853 2.81771C20.8121 2.65043 20.8821 2.41804 20.9853 2.20917C21.2544 2.57086 21.6232 2.25708 21.8906 2.96961C21.8913 2.86887 21.9313 2.77246 22.002 2.70123C22.0727 2.62999 22.1684 2.58965 22.2684 2.58894L22.0413 2.20917C22.4424 2.23901 23.4375 2.05726 23.0229 2.66128C23.2275 2.73271 23.4536 2.82404 23.4761 3.04196L24.3814 2.66128C24.4711 3.34035 25.1835 2.99584 25.6645 2.81409C24.7672 2.64138 25.3513 2.04097 25.8915 1.74891L26.1176 2.20555L25.5891 2.12869C25.7587 3.45881 27.0148 1.8972 27.3253 2.89004C27.5891 2.79962 27.9462 2.61064 28.1552 2.73723C28.1705 2.63618 28.1574 2.53283 28.1175 2.43888C28.0775 2.34492 28.0123 2.2641 27.9291 2.20555C28.6882 2.18385 27.5254 1.60243 27.9291 1.29228C28.1364 1.5518 28.5958 1.94784 28.533 2.20555H28.3822C28.4253 2.81047 29.5155 2.32762 29.4392 1.90082C29.5289 2.03917 29.6716 2.05092 29.8161 1.97678V2.35746L29.59 2.2815C29.5209 2.52202 29.4652 2.87467 29.2122 2.89004L29.3629 3.04196C29.7604 2.35203 30.8883 3.03291 30.5716 1.90082C30.8784 1.97226 30.8946 2.29144 30.873 2.58532H31.2508V2.2815C31.843 2.73361 31.7595 1.83753 32.4585 2.73361V2.58171C32.7716 2.76255 33.2606 2.26975 33.5908 2.04912C33.8483 2.89638 34.1624 2.5166 34.6092 2.12507C34.7833 2.05454 34.8084 2.01294 34.7985 1.8972H34.4961C34.6962 1.58163 34.2485 1.53552 34.1938 1.32664C34.3005 1.12681 34.7097 1.10601 34.7223 0.756073C34.7223 0.926972 34.6935 1.17835 34.8739 1.20819L34.6469 1.43605C35.0776 1.82487 35.0273 1.31579 35.1 1.05628C35.6383 0.751558 35.7487 1.31217 35.4777 1.74078C35.7092 1.71094 36.0412 1.61599 36.157 1.81673C36.1938 1.60243 36.27 1.32031 36.0816 1.20819L36.3077 1.13223C36.3373 1.58887 36.5482 1.38089 36.5715 1.93066C36.5778 2.38277 36.8793 2.47319 37.0623 2.20193C37.17 1.96412 37.5046 2.22363 37.5154 1.8972C37.7926 2.2182 38.3364 1.94423 38.6477 2.04912C38.8119 2.14678 39.0219 1.99124 39.1762 1.8972C39.2103 2.10427 39.5262 1.99758 39.7047 1.97317C39.6893 2.07436 39.7023 2.17789 39.7422 2.27203C39.7822 2.36616 39.8475 2.44713 39.9308 2.50575C40.1722 2.36197 39.8985 2.18476 39.9685 1.97317C40.0385 1.76158 39.5764 1.66753 39.4024 1.59339C39.5046 1.09968 40.3194 1.27058 40.3086 1.7453C40.2601 2.16124 41.1071 2.239 41.0631 1.82125L41.5916 2.35384C41.7209 2.09795 41.5351 1.96231 41.2893 1.90173C41.4858 1.78237 41.6042 1.39355 41.2893 1.36914C41.0587 1.36371 40.925 1.66482 40.6854 1.59791V1.44871H40.9124C40.8227 0.842882 41.7514 1.13224 41.9685 0.840171C42.0807 1.08522 41.9541 1.35738 41.8178 1.60152L42.0447 1.67748L41.9685 1.90535L42.4171 2.05725L42.3417 2.28603H42.4925V2.05725C42.7814 2.0672 42.7123 2.4931 42.7195 2.74176C43.2507 2.60432 43.5755 2.00662 42.7949 2.21007C42.7195 1.86285 43.3566 1.74891 43.3987 2.13321C43.5279 0.783198 44.3902 1.43877 43.7756 1.90535H44.1533V2.13321C44.3265 2.18655 44.3911 1.90444 44.4557 1.75344C44.2332 1.73445 44.1811 1.50658 44.1533 1.30132H44.6064V0.997505C44.7473 1.02915 44.9142 1.05628 44.9456 1.22537C45.0954 1.75796 45.4059 0.855536 46.3426 0.844685C46.2314 1.25159 46.9088 1.47765 46.7913 1.75796L46.5652 1.60605L46.4897 1.83391C47.0218 1.75977 47.2785 2.0455 47.7729 1.90986C47.6921 1.27691 46.8254 1.65307 46.7913 0.692782C47.0371 0.658421 47.2399 0.730759 47.2399 0.997505L47.5422 0.920648V1.07346L48.0707 0.920648V1.14941C48.7051 0.592406 49.3978 1.99576 48.4853 1.87279C48.2583 1.82306 48.1264 1.91529 48.1838 2.14406C48.2412 2.37282 49.0164 2.16666 49.2784 2.14406L49.3538 2.67665L48.7499 2.44879C48.8854 2.69293 49.0128 2.96419 48.9007 3.20923C49.2739 3.38285 49.3915 3.07631 49.6553 2.98137C50.2071 3.5655 50.3228 4.37569 49.2784 4.57914C49.6894 4.90104 49.736 4.00496 50.2591 4.73105H49.806C50.0205 5.13795 49.3798 5.46166 49.0514 5.71936C49.1968 5.79351 49.3359 5.78176 49.4292 5.64341C49.6212 5.82426 49.745 7.01784 49.2022 6.70859V7.08927H49.4292L49.3538 7.39308H49.5045C49.6337 7.68153 48.8765 7.82712 48.9007 8.07759C48.8977 8.12261 48.9114 8.16714 48.9393 8.20244C48.9672 8.23774 49.0072 8.26126 49.0514 8.26838C49.2569 8.26838 49.0963 9.1934 48.9007 9.0668V8.83894L48.5983 8.91489C48.6539 9.2169 48.9653 9.49812 49.0514 9.0668C49.6033 9.11201 49.5378 10.1898 49.0514 10.2079C49.4292 9.95204 48.8244 9.56413 48.7877 10.094C48.7778 10.4557 48.4673 10.3544 48.5229 10.6646C49.7333 10.2125 49.6741 12.1113 48.9007 11.2731C48.3525 11.1709 48.3794 12.0679 48.5606 12.3374C48.6503 12.6729 48.1667 13.3908 48.7499 13.6304C48.4628 13.6377 48.3202 13.8004 48.3722 14.0871H48.976V14.3158H48.5229C48.4673 15.1495 48.8702 14.9678 49.3538 15.3041C48.3013 15.5329 47.894 16.1722 49.1268 16.5212C49.0927 16.7021 48.8433 16.6749 48.6782 16.6731C48.7939 16.9064 48.6584 16.9833 48.6019 17.1677C48.6154 17.4282 48.9357 17.439 49.1304 17.3585V17.5864C48.636 17.4499 48.6817 17.9481 48.3758 18.119C49.2847 18.5114 48.5292 18.9012 48.3004 19.412H48.4512V19.1715H48.9043V19.3994H48.6145C48.7087 19.6815 48.4072 19.7168 48.313 19.8515C48.3947 20.0748 48.7383 19.9519 48.8415 19.7755L49.0676 20.0794C48.767 20.1101 48.2816 20.1788 48.313 20.536C48.9824 20.451 48.7939 21.8842 48.7284 22.2477C48.5831 22.4376 48.0106 22.254 48.0106 22.5895C48.313 22.5985 48.5418 22.726 48.5391 23.0461H48.3884V23.3499L49.0676 23.274C48.8917 23.503 48.7156 23.7312 48.5391 23.9585C49.5162 24.435 47.8859 24.5354 48.4637 25.0616C48.7033 25.1665 48.5122 25.823 48.7661 25.861L48.8415 25.7082C48.9949 25.927 48.8316 26.2507 48.5391 26.1648V26.6974H49.0631C49.0398 26.8954 48.8756 26.975 48.6862 27.0021C48.7123 27.1712 48.8173 27.2625 48.9877 27.23C48.6611 27.5012 48.6001 28.5366 49.2139 28.2942L49.0631 28.9028C49.099 28.674 49.4821 28.863 49.6669 28.9028C49.7163 29.3603 48.7751 29.4453 49.3655 29.7401C49.4367 29.7617 49.4982 29.8077 49.5395 29.8701C49.5807 29.9324 49.5991 30.0073 49.5916 30.0819C49.5844 30.3532 49.71 30.4201 49.8939 30.5005L49.5162 30.6524C49.5099 30.3631 49.3475 30.2193 49.0631 30.2727L49.1385 31.4129C49.4076 31.4002 49.4471 30.9834 49.5162 30.7284C50.6216 32.2547 49.5934 31.0539 49.7046 32.3262C49.7154 32.6544 50.1021 32.4582 50.1578 32.7068C50.2986 33.2204 49.7495 33.1897 49.5162 33.4673C49.7656 33.7286 50.0635 33.8923 50.3462 33.6192C50.4359 33.904 49.9083 33.9809 49.6669 34.0758C49.8733 34.3769 49.6813 34.6681 49.4408 34.9123C49.9263 34.8643 50.5104 35.7875 50.4224 34.9123H50.6485V35.141H50.4987L50.6495 35.8255C49.7917 35.5208 50.6701 36.4458 50.461 36.6999C50.1829 37.0128 50.2887 37.5779 50.8002 37.5752L50.2717 37.879L50.5741 38.1837C50.3426 38.4948 49.9128 38.3836 49.6679 38.1078C49.7863 38.8375 48.9052 38.6892 48.3848 38.6395V38.8682C47.9828 38.9587 47.8159 38.6494 47.4795 38.8682C47.2255 39.088 46.951 38.927 46.7616 39.1721C46.6549 39.3212 46.5966 39.3086 46.4979 39.248C46.7231 39.1576 46.697 38.9767 46.5732 38.7959C46.2421 39.0545 45.8644 38.9388 45.5163 38.7199C45.5055 39.0229 45.1816 39.1205 45.2902 39.5563C45.073 39.4062 45.0434 39.1386 45.064 38.8719C44.7949 39.2914 43.6849 38.6774 43.7047 39.324C42.8684 38.9207 42.147 39.4198 41.2139 39.324C40.4817 39.1621 40.8487 39.5952 40.2332 39.4759C39.5028 39.3855 39.5342 39.7019 38.5724 39.5518C37.6195 39.5464 37.4903 39.4144 36.9115 39.7797C36.7886 39.3764 36.0664 39.5744 36.1193 39.9705C36.1651 40.1685 36.0636 40.1992 35.93 40.2363C36.1417 39.3556 33.2885 40.0256 32.8353 39.5518C32.8676 39.8819 32.2647 40.0627 32.1561 39.7037C32.1058 39.5518 32.0556 39.4759 32.0054 39.4759C31.755 39.9334 31.4383 39.928 31.1754 39.3999C31.0283 39.6287 30.7959 39.5998 30.5716 39.4759L30.7977 40.0085C29.7936 39.5988 28.3374 40.2291 27.3253 40.1604C26.6281 40.2571 25.7712 39.9434 25.1719 40.1604C25.188 40.2707 22.9915 40.192 23.0185 40.3882C22.918 40.4895 22.7669 40.4895 22.5654 40.3882C22.0449 39.9623 21.3496 40.5564 20.9045 40.5031C20.612 39.7291 22.193 39.3981 22.1885 38.5626C22.4236 38.7932 22.7269 38.6774 22.5654 38.3347C24.2055 38.4252 23.4438 37.0462 24.4496 37.1936C24.4954 37.8826 25.1189 37.0019 25.5065 37.0417L25.1288 36.661C25.4823 36.1058 26.1158 36.1737 26.7142 36.3572C26.7591 36.1185 26.6165 35.9458 26.4128 35.8246C26.638 35.6673 27.092 35.4783 27.0166 35.2161C26.8461 35.2486 26.7412 35.1573 26.7142 34.9873H27.0166V35.1401L27.6205 35.0642C26.9251 34.896 27.2706 33.9791 27.3935 33.3904C26.6559 33.6762 26.6416 33.2819 26.1857 33.0098C26.1651 33.2313 25.9893 33.2331 25.8089 33.1617V33.5487H25.4312C25.6708 33.4646 25.5442 33.2006 25.2428 33.2828C24.9045 33.3 24.9556 33.5396 24.6766 33.3968C24.6766 33.952 24.3356 34.065 23.8457 33.9294C23.9211 33.8272 23.9974 33.7259 24.0727 33.6246C23.1755 33.81 23.5784 34.5063 22.4496 34.7658C21.6205 34.9548 21.7982 35.1275 21.5066 35.4123C21.1163 35.7957 20.472 35.8689 20.1472 36.3635C20.1302 35.5298 19.7785 36.4476 19.468 36.3635V36.5914C20.0001 36.4928 19.9167 36.8627 19.8458 37.2759C19.5811 36.4621 19.2177 36.7334 18.7888 37.124C18.56 37.1095 18.6309 37.4432 18.411 37.4658C18.3105 37.4911 18.2603 37.5426 18.2603 37.6186C18.2603 37.6946 18.1598 37.7578 17.9588 37.8085C17.5326 37.8428 17.6528 38.5093 17.241 38.493C17.0651 38.493 16.9396 38.5946 16.8642 38.7977C16.7691 39.2109 16.1966 39.1431 16.0333 39.4442C16.0052 39.5008 15.9623 39.5484 15.9091 39.5819C15.8559 39.6154 15.7946 39.6335 15.7318 39.6341C15.1038 39.815 15.9275 40.2418 15.9203 40.6233C14.6758 40.0573 14.595 40.8367 13.8826 40.3946C13.8826 40.7391 14.0764 40.947 14.4111 41.0031L14.1087 41.3838C14.3142 41.5113 14.7368 41.6668 14.5618 41.9164L14.8633 41.9923C14.6524 42.3224 15.4734 42.5394 15.3164 42.9047H15.8449C15.6852 43.0069 15.7112 43.1904 15.7695 43.3568C16.4263 43.0231 16.5905 43.969 17.355 43.7375V44.1896H17.8826V44.7981C18.6632 44.7195 19.2616 45.3922 19.9211 45.6346C20.7143 45.6834 20.5214 46.1897 21.468 46.395C22.2612 46.5641 22.0961 46.8733 22.5626 47.0035C22.9512 47.1093 23.0858 47.6175 23.6196 47.3842V47.6121C23.7731 47.6121 23.9274 47.5922 23.9597 47.8029C23.9848 47.9295 24.1104 48.0181 24.3365 48.0687C24.8309 48.1501 24.6595 48.3852 25.1674 48.3725C25.8044 48.4747 25.616 49.1104 26.4881 48.6773L26.3365 49.1294C26.8749 49.0778 27.0938 49.6909 27.6205 49.5815C27.5702 49.3789 27.5191 49.1764 27.4688 48.9729H27.9219C27.3504 49.5688 28.1912 50.5364 28.6012 49.5815H28.0727V49.4296C28.3921 49.52 28.5411 49.095 28.6766 48.821C28.2109 49.0064 28.4522 47.8779 28.0727 47.8707C27.607 47.7857 27.9686 47.509 28.2243 47.452C28.1202 47.1473 27.7246 47.1428 27.4688 47.3001C27.4527 47.0705 27.3181 46.9529 27.092 46.9954V46.6916C26.6559 46.8299 26.5949 46.6518 26.2611 46.4628C25.8664 46.2892 26.1669 46.149 25.5433 46.0451C24.8848 45.9474 24.8354 45.2792 24.2226 45.7024C24.2432 45.1002 23.5137 45.1643 23.2786 44.79C23.1297 44.4455 22.9117 44.6634 22.7125 44.3713C22.5976 44.1001 21.8511 44.327 21.7318 44.1435C21.7785 43.7465 21.634 43.0783 21.0525 43.1163V43.3441C20.6604 43.3677 20.586 42.9327 20.5241 42.5837L20.7502 43.0403L20.8256 42.7356C20.9153 42.9933 21.2446 42.9707 21.5048 42.9644C21.276 42.2184 22.0772 42.6443 21.9579 43.1163L21.7318 43.0403C21.6977 43.2872 21.7686 43.4879 22.0333 43.4924L22.1086 43.1127L22.4864 43.1886L22.411 42.8079L22.1086 42.8839V42.656C22.3302 42.7564 22.5375 42.6705 22.7125 42.5041L22.5618 42.9562C22.7484 42.8975 22.7995 43.2492 22.8641 43.4084H22.6371V43.5856C22.9359 43.6434 22.9233 43.3062 23.2786 43.3948C23.7668 43.4219 23.5048 43.2311 24.2226 43.3568C24.9772 43.4147 25.205 43.2094 25.808 42.9391C26.0871 42.6389 26.7322 43.1732 27.0157 43.1289C27.3791 43.1289 27.2005 42.94 27.6196 43.015C28.0386 43.0901 27.9363 42.8342 28.3374 43.015C28.5132 43.091 28.6389 43.0656 28.7142 42.9391C29.2571 42.6461 30.6819 43.2103 31.2813 42.7483C31.9004 42.477 33.1817 43.3378 33.4347 42.2962C33.9434 42.8116 34.2099 42.1904 34.8317 42.6768C35.0875 42.8378 35.6814 42.3359 35.8878 42.449C36.0448 42.5557 37.126 42.4038 37.5109 42.373C36.8559 41.9146 37.7164 41.6713 37.8133 42.1442C38.2261 42.0728 38.6154 41.8404 39.1717 41.9923L39.021 42.373C39.3207 42.449 39.5684 42.0837 39.7756 41.8404C39.8492 42.0873 40.0502 42.2021 40.3041 42.2202V41.9164H40.4548C40.4225 42.194 41.1726 42.3296 41.3601 42.2202C41.047 41.8458 41.6374 41.7021 41.8133 42.0683C41.8869 41.5619 42.7401 42.0592 42.7949 41.4597C42.8694 41.1487 42.8685 41.0619 43.021 41.0791V41.3078H43.248C43.3216 41.5791 42.9465 41.5701 43.021 41.8404H42.7949V42.0683C43.03 41.844 43.423 41.9562 43.5872 41.8024C43.6195 41.627 44.1309 41.608 44.0358 41.3503C43.9586 40.891 44.4665 41.1451 44.6773 41.3883C44.9976 41.7057 44.8406 41.9869 45.2812 42.1488C45.4068 41.7437 45.5327 41.338 45.6589 40.9317C45.9613 41.0474 45.7693 41.5945 45.5826 41.769C45.9694 41.9914 46.296 42.2862 46.4135 41.6921C46.5741 42.0963 47.221 42.0249 47.3188 41.6162L46.8702 41.5402C46.9106 41.0194 47.3852 41.0881 47.7002 41.3883C47.7648 41.1415 47.8993 40.9543 48.1533 41.0836C47.8258 41.1586 47.8419 41.8549 48.1533 41.8449C48.0878 41.108 49.0191 41.5918 49.4364 41.769L49.5871 41.0836C50.1407 41.2427 49.7764 41.7816 50.7194 41.5357C50.4852 40.7707 51.2578 41.637 51.6257 41.4597C51.605 41.2029 51.5359 40.9299 51.2479 41.0076L51.5494 40.7038C51.7549 41.1559 52.3138 41.1225 52.531 41.4643C52.3363 41.0863 52.767 40.9805 52.7194 40.6279C52.6297 40.2924 53.0694 40.4027 52.9841 40.0953C52.514 40.1902 52.4727 39.4415 52.8334 39.258C52.5436 39.2037 52.5947 38.4794 52.8334 38.4216C52.4215 38.2977 52.5848 37.7642 52.1532 37.5851C52.3776 37.4142 52.6629 37.2153 52.8334 37.5092C53.0012 37.1828 52.3524 36.8916 52.6817 36.52C52.2762 36.6303 52.0088 36.2207 52.3049 35.9114C52.5534 35.6682 51.9792 35.2667 52.3803 35.075C52.1246 34.9846 52.147 34.6527 52.1532 34.3896H51.8518V34.0858H52.2295V33.4772C51.7046 33.6346 51.2757 33.0333 51.8895 32.8307C52.3174 32.7466 51.9415 32.1408 51.6257 32.2602C51.7082 32.0205 51.6786 31.8081 51.3986 31.8081C51.4884 31.5368 51.7764 31.6435 52.0025 31.7321C52.2995 31.0087 51.4579 31.5865 51.3986 30.9716C51.2784 31.1868 51.1017 31.3116 50.8702 31.1995L51.701 30.591C51.3565 30.4101 51.2309 29.5963 51.7764 29.8305C51.701 29.6497 51.6257 29.4752 51.5494 29.2979L51.8518 29.222C51.6813 29.1632 51.5 29.137 51.3986 29.2979C50.9895 28.665 52.7338 27.7824 51.2479 28.1568C51.4965 27.8855 51.1717 27.2589 51.7764 27.3204L51.701 26.9397C50.9464 27.5898 51.0406 26.1557 51.701 26.3312C51.3654 26.2317 51.1672 26.0599 51.5117 25.7606C51.8069 25.4893 51.4704 25.0996 51.6633 24.7723C51.7387 24.5914 51.7262 24.4802 51.6257 24.4296C51.4005 24.3871 51.6176 23.7514 51.4364 23.7062C51.247 23.6339 51.0406 23.1637 51.1725 22.9828L51.3986 23.0588C51.0164 22.3969 51.4884 22.471 51.474 22.0316C51.404 21.5541 51.7064 21.1346 50.9455 21.2331V21.0704H51.1725C51.1061 20.8516 51.0936 20.6246 51.3233 20.5378C51.029 20.3967 51.1923 19.9265 50.9455 19.7773C50.5238 19.4618 51.055 18.6525 51.5494 19.016C51.4337 18.6008 51.1971 18.23 50.8702 17.9517C51.0595 17.8676 51.125 17.6985 51.0972 17.4996L51.3233 17.5756L51.2479 17.8034H51.5494C51.6391 17.5168 51.1743 17.5086 51.1348 17.2708C51.064 17.024 51.055 16.6596 51.3986 16.6623C51.1896 16.5194 51.1699 16.2916 51.2479 16.0537H50.8702C51.71 15.4434 50.7688 15.3702 51.0209 14.6848C51.1582 14.3773 51.1689 14.2887 51.3233 14.305L51.2479 14.5328H51.474C50.9949 13.8339 51.9926 13.106 51.1725 13.011C51.6391 12.4929 50.7042 11.4096 51.474 11.1122C50.9106 10.8228 51.4148 10.0271 51.7764 9.74316C51.3987 9.58492 51.8096 8.74852 51.5494 8.52608C51.2892 8.30364 51.3762 8.00705 51.701 7.99349C51.6256 7.84158 51.5494 7.68967 51.474 7.54138H51.8518C51.6041 6.97805 52.0214 6.68869 51.8518 6.09462L51.5494 6.17057C51.3188 5.77 52.0823 5.69495 51.9648 5.25821C51.8518 5.02673 52.2896 4.06102 52.1156 3.88831C52.0402 3.83767 51.9899 3.52089 51.9648 2.93797C52.0168 1.78327 51.2147 2.12416 51.474 1.15031L50.418 1.07436L50.4933 0.693687L50.2663 0.845591C50.5355 0.303056 49.7342 -0.0152311 49.361 0.00918295C49.8805 0.532729 49.0568 0.507411 49.134 0.00918295C48.9734 0.0073745 48.6145 -0.0333107 48.5732 0.115886ZM43.7801 0.534543L43.9317 0.686446L43.7047 0.762409L43.7801 0.534543ZM12.4551 0.686446C12.2936 0.794049 12.0064 0.63129 11.9275 0.914313C11.8378 0.643045 11.4493 0.685542 11.172 0.686446V0.991169C10.7898 0.886279 10.307 0.605075 10.0056 0.876342C9.77856 1.03458 9.5022 0.654806 9.21329 0.762409L9.28864 0.991169H9.13521V0.762409C8.83015 0.62768 8.7808 1.36553 8.53136 1.295C8.61301 0.229822 7.7714 1.22266 7.85216 1.74711L8.07827 1.67115C7.97149 1.97406 8.58788 1.97406 8.38061 2.27969L8.60672 2.05093C8.7099 2.41985 8.76463 3.09802 9.21057 2.96419C9.09034 2.58713 9.49592 2.61154 9.47528 2.31767C9.41157 2.0039 9.65471 1.47584 10.0405 1.59429L9.88982 1.89811L10.1159 1.82216C10.142 1.92343 10.167 2.0247 10.1922 2.12598C10.9459 2.02109 9.75792 1.13675 10.4937 1.36552L10.4183 1.59429C10.8337 1.61238 11.3407 1.5943 11.4753 1.13766C11.521 1.57983 12.1554 2.21278 12.3806 1.59429C12.1724 1.56626 11.9472 1.51382 11.932 1.28957H12.2334L12.0073 1.0617L12.3842 0.98575C12.246 1.32212 12.8669 1.4876 12.8373 1.74621L12.5358 1.59429C12.4649 2.14316 13.1029 1.7661 13.3281 1.93609C13.5973 2.15943 13.905 1.81402 13.8189 1.51743C13.1711 1.7236 12.8516 0.907083 13.7058 1.09968C14.0961 1.34021 15.0365 0.780494 14.7996 1.44148C15.407 1.44148 14.8274 2.05364 14.4981 1.82216C14.1222 1.64131 14.1626 2.3873 14.4228 2.4307L14.4981 2.05002C14.8023 2.16396 15.1558 2.03374 15.4788 1.89811C15.5551 2.12597 15.6304 2.35023 15.7058 2.58261C15.1675 2.59799 14.8983 3.06004 15.4788 3.26711C15.5506 3.08626 15.6583 2.91536 15.8566 2.96329C15.5587 2.37464 16.8516 2.23991 15.6305 2.05002L16.0791 1.36552C15.6394 1.64673 15.5569 0.794056 15.1737 0.908893C13.1845 0.288595 13.1899 1.42973 12.5322 0.605075L12.4551 0.686446ZM49.4418 0.686446C49.5234 0.776869 49.701 0.716286 49.8186 0.686446C49.8186 0.822984 49.8033 0.991177 49.9325 1.06713C50.1748 1.66844 49.3206 1.2968 49.3664 0.838361L48.9133 0.991169C48.811 0.754263 49.3045 0.567993 49.4418 0.686446ZM7.05808 0.838361C7.01052 0.941442 6.64264 0.909791 6.4919 0.914313C6.51792 0.991172 6.54306 1.06713 6.56818 1.14308C5.72296 0.884476 5.56683 0.88538 5.05809 1.44781C4.71265 1.10963 4.32861 0.995699 3.69963 1.06713V1.37095C3.04822 1.23713 2.59333 1.28052 2.07651 1.33297C1.56149 1.31308 1.37306 1.72451 0.910078 1.295L0.834723 1.59972L1.21246 1.67567L0.683968 1.90354V1.59972H0.230828C0.333115 2.22002 1.07786 1.86646 1.28782 2.39815C1.38831 2.62601 1.51395 2.72728 1.66468 2.70197C2.53054 2.84935 0.929795 3.60076 2.34477 3.72916C2.28036 3.6288 2.23997 3.51474 2.22674 3.39596C2.21351 3.27718 2.22781 3.15693 2.26854 3.04467C2.37082 3.26078 2.65971 3.66768 2.75931 3.23456C2.84365 2.92893 3.36136 3.12876 3.40084 2.73995C2.98092 2.5591 2.88942 2.95967 2.49552 2.89276L2.79699 2.8168C2.68393 2.48948 2.35733 2.24443 2.19314 2.05544C2.39502 1.70822 2.61756 2.17843 2.64628 2.43613C3.14246 2.41624 3.48252 1.97045 3.85398 2.09342C4.07829 2.21459 4.21285 2.1531 4.38243 2.05544C4.52151 2.57537 4.39054 2.86925 3.85398 2.58803C3.80284 2.93073 3.98854 3.35301 4.38243 3.27254C4.29271 2.84846 4.88941 2.92169 5.06168 2.58803C5.14064 2.966 6.09801 2.6667 5.66553 3.19657L5.89164 3.34849C5.91318 2.69926 6.63814 1.74711 5.51478 1.59972C5.75614 1.21271 6.46766 1.54004 6.34474 2.05183C6.63007 1.88455 6.9854 2.23267 7.17562 1.97587L7.55244 2.43251C7.84674 2.24714 7.79653 1.81492 7.40173 1.89992C7.61259 1.69737 7.62961 1.42249 7.55244 1.13946L7.17562 1.29138C7.19985 1.11053 7.30482 0.794053 7.09935 0.758789L7.05808 0.838361ZM7.62425 0.838361L7.77588 0.914313V0.762409H7.4735L7.62425 0.838361ZM42.5724 0.762409C42.6486 0.914319 42.724 1.06713 42.7993 1.21452L42.4216 1.36642C42.2511 1.11324 42.645 1.02283 42.5724 0.762409ZM19.2491 0.838361C19.4339 0.863679 19.5981 0.938729 19.5506 1.14308C19.3478 1.19101 19.2742 1.02463 19.2491 0.838361ZM29.8161 0.838361C29.8915 0.914316 29.9668 0.991177 30.0431 1.06713L29.6653 1.14308L29.8161 0.838361ZM37.2893 0.991169C37.615 1.11776 37.807 1.53371 37.44 1.59972C37.4113 1.02554 36.9474 1.4668 36.6101 1.59972C36.8604 1.33298 36.5814 0.639426 37.2893 0.991169ZM38.497 0.838361C39.2669 0.758789 39.5495 1.3809 38.7231 1.59972C38.8173 1.29681 38.7545 1.02463 38.497 0.838361ZM43.6293 0.838361H43.859V1.14308C43.7801 1.04181 43.7047 0.940538 43.6293 0.838361ZM51.1402 0.953199L51.1779 1.06713L51.2533 0.838361H51.1026L51.1402 0.953199ZM17.739 0.914313L17.8144 1.14308H17.6636L17.739 0.914313ZM22.6452 0.914313L23.0229 1.06713C22.8542 1.16479 22.7241 1.08702 22.6452 0.914313ZM33.5917 0.914313C33.8519 0.855538 34.0081 1.06533 34.1193 1.295C33.8178 1.33931 33.5872 1.24255 33.5908 0.914313H33.5917ZM45.0649 0.914313L45.2157 0.991169L45.1403 1.14308L44.9886 1.06713C45.0138 1.0165 45.0389 0.965853 45.064 0.914313H45.0649ZM11.7014 0.991169L11.9284 1.06713L11.7014 1.14308V0.991169ZM33.214 0.991169C33.6375 1.3393 33.5119 1.75072 34.271 1.82758C34.1696 2.00842 34.0691 2.18294 33.9686 2.36017C33.7532 2.26974 33.7218 2.05273 33.7425 1.82758C33.2436 1.96231 33.2364 1.39355 33.2131 0.991169H33.214ZM43.1735 0.991169L43.4759 1.14308L42.9474 1.52285L43.1735 0.991169ZM18.0351 1.14308L18.1858 1.21904L18.1104 1.37095L18.0351 1.14308ZM27.0175 1.21904C27.3118 1.39355 27.022 1.91168 26.6774 1.78961C26.1696 1.64674 26.8112 1.20999 27.0238 1.21904H27.0175ZM29.3952 1.25702C29.6267 1.29499 29.6725 1.31489 29.6591 1.4469L29.433 1.37095L29.5083 1.75163C29.3953 1.58163 29.2579 1.40079 29.0552 1.4469C29.1027 1.28143 29.144 1.21994 29.4015 1.25702H29.3952ZM45.51 1.37095V1.52285H45.7433L45.6679 1.75163L46.2717 1.82758C46.2717 1.53461 45.8384 1.61599 45.7809 1.37546C45.7468 1.2118 45.6374 1.21814 45.5163 1.22356L45.51 1.37095ZM24.979 1.295L25.2813 1.37095C25.2652 1.60062 25.1306 1.71817 24.9036 1.67567L24.979 1.295ZM31.2445 1.295H31.3199L31.2445 1.52285L31.0929 1.4469C31.1324 1.37909 31.1655 1.29048 31.2508 1.295H31.2445ZM32.3768 1.295L32.6783 1.59972C32.4998 1.5744 32.3347 1.49935 32.3831 1.295H32.3768ZM38.2987 1.33297C38.6818 1.55179 38.0295 1.7471 37.8088 1.82758C37.7352 1.56535 38.0708 1.27239 38.3077 1.33297H38.2987ZM4.14379 1.37095L4.3699 1.52285L3.99216 1.75163L4.14379 1.37095ZM30.1848 1.37095H30.2602C30.3239 1.71365 30.0215 1.78327 29.7317 1.75163C29.8528 1.64312 30.096 1.36733 30.1938 1.37095H30.1848ZM0.0298652 1.56174L0.067543 1.67567L0.142898 1.52285L-0.0078125 1.4469L0.0298652 1.56174ZM32.8264 1.4469L33.0533 1.59972L32.751 1.75163L32.8264 1.4469ZM44.4512 1.52285V1.59972H44.828V1.44871H44.4512V1.52285ZM36.9026 1.59972C37.0874 1.62504 37.2525 1.69919 37.2049 1.90354C37.0282 1.87822 36.8604 1.80408 36.9115 1.59972H36.9026ZM49.9612 1.67567L50.0366 1.82758L49.8096 1.90354L49.9612 1.67567ZM34.9771 1.90354C35.0246 2.23358 35.3934 2.95968 35.7693 2.43613C35.8591 2.59889 35.9658 2.94792 36.1471 2.88824C36.0251 2.65676 35.9928 2.41533 36.1471 2.20374C35.9775 2.18927 35.5513 2.08619 35.5056 2.24172C35.4706 2.37102 35.3459 2.35746 35.2409 2.35565C35.2543 2.11061 35.2517 1.83572 35.0148 1.74711L34.9771 1.90354ZM1.80282 1.86556C2.0074 1.90173 2.0406 1.93247 2.02893 2.05544C1.73912 2.02199 1.48162 2.09342 1.34973 2.36017C1.32909 1.99667 1.39281 1.75163 1.81272 1.86556H1.80282ZM9.23751 1.86556L9.35055 1.90354C9.31466 2.08438 9.01048 2.09614 8.82205 2.13141C8.93869 2.02832 9.11368 1.8104 9.24737 1.86556H9.23751ZM11.4268 1.94151L11.4645 2.05544L11.3891 1.82758L11.4268 1.94151ZM5.12359 1.90354C5.45019 2.15763 6.26581 2.0455 5.65208 2.73995C5.51032 2.46868 5.20793 2.35294 4.89748 2.28784L5.12359 1.90354ZM19.3146 2.3222C19.39 2.65857 19.3828 2.75894 19.5407 2.73995L19.4653 2.36017L20.0692 2.43613C20.1311 2.09343 19.7758 2.01747 19.5407 2.20826C19.5892 2.00391 19.424 1.92886 19.2392 1.90354L19.3146 2.3222ZM27.4285 2.05093L27.7685 2.20374C27.6931 2.33033 27.6175 2.45693 27.5415 2.58352C27.2993 2.34119 27.0104 2.14768 26.7116 2.35565C26.9063 2.11965 27.0803 1.87369 27.4392 2.05544L27.4285 2.05093ZM45.3933 1.97497L45.431 2.05093L45.3557 1.89901L45.3933 1.97497ZM10.5583 2.01295L10.4829 2.05093C10.4877 2.07605 10.4975 2.09995 10.5115 2.12126C10.5256 2.14257 10.5436 2.16086 10.5647 2.17507C10.5858 2.18928 10.6096 2.19914 10.6345 2.20406C10.6594 2.20898 10.685 2.20887 10.7099 2.20374C10.6839 2.12688 10.6588 2.05092 10.6336 1.97497L10.5583 2.01295ZM24.2584 2.01295C24.4379 2.04821 24.4567 2.09161 24.4469 2.20374H23.8502C23.9669 2.08167 24.0727 1.96864 24.2683 2.01747L24.2584 2.01295ZM16.4927 2.17209C16.735 2.29688 16.5304 2.67936 16.455 2.89547H16.9835C16.7601 2.50846 16.9916 2.08167 16.3043 2.05816L16.4927 2.17209ZM44.4593 2.13321V2.21007L44.6854 2.13321L44.4593 2.05725V2.13321ZM12.5681 2.51389C12.5878 3.0085 13.6027 2.93164 14.0396 2.966C13.8718 2.61697 13.0087 2.8159 12.8732 2.39543C12.7646 2.14768 12.7072 2.11512 12.534 2.12417L12.5681 2.51389ZM46.4969 2.17209C46.3615 2.34209 46.6118 2.86383 46.8747 2.81861C46.5158 2.75622 46.8738 2.1106 46.4979 2.17209H46.4969ZM13.1343 2.32401V2.43793H13.285V2.21007H13.1343V2.32401ZM14.0773 2.28603L14.1903 2.36198V2.21007H13.9642L14.0773 2.28603ZM18.569 2.36198L18.4927 2.51389L19.0965 2.28603C18.9261 2.25619 18.6461 2.17209 18.5699 2.36017L18.569 2.36198ZM38.4593 2.51389L38.497 2.81861L38.9457 2.36198L38.418 2.21007L38.4593 2.51389ZM48.0833 2.28603L48.1587 2.36198L48.007 2.21007L48.0833 2.28603ZM11.6628 2.47591C11.6233 2.61878 11.4349 2.54011 11.3236 2.51389C11.2931 3.2861 12.0988 2.89004 11.7005 2.36198L11.6628 2.47591ZM10.5682 2.74176L10.4928 3.04648C10.7072 2.8792 10.8265 2.66489 10.6435 2.43793L10.5682 2.74176ZM18.1948 2.6658C18.1823 2.85749 18.5537 2.91626 18.7233 2.97052C18.6075 2.73723 18.4541 2.53016 18.1948 2.51841V2.6658ZM21.1387 2.81861L20.988 3.12243L21.5918 2.89457C21.4707 2.5591 21.3549 2.30411 21.136 2.8168L21.1387 2.81861ZM22.4595 2.6658L22.4971 2.81861L22.7995 2.74176C22.778 2.5365 22.6111 2.48948 22.4218 2.51389L22.4595 2.6658ZM39.2166 2.58984L39.2543 2.6658L39.1789 2.51389L39.2166 2.58984ZM17.5533 2.70378L17.5156 2.81861L17.1378 2.6658L17.0625 2.89457C17.4079 2.93526 17.9256 3.04376 17.8924 2.58984C17.7695 2.58803 17.5865 2.56543 17.5506 2.70197L17.5533 2.70378ZM44.5759 2.70378L44.6136 2.81861L44.689 2.6658L44.5382 2.58984L44.5759 2.70378ZM20.2325 2.78063V2.89547H20.3841C20.333 2.81952 20.2827 2.74266 20.2325 2.6667V2.78063ZM28.5357 2.78063C28.5276 2.90994 28.6622 2.93797 28.7618 2.97052L28.5357 2.6658V2.78063ZM33.5935 2.74176L33.6689 2.81861L33.5173 2.6658L33.5935 2.74176ZM45.4059 2.74176L45.4436 2.81861L45.3682 2.6658L45.4059 2.74176ZM6.38154 2.85659L6.41922 2.97052L6.49458 2.81861L6.34386 2.74176L6.38154 2.85659ZM9.70139 3.0085C9.73818 3.2644 9.80008 3.2879 9.96518 3.27434C9.9903 3.01302 9.95981 2.74447 9.66371 2.74176L9.70139 3.0085ZM14.7206 2.81861L14.796 2.89457L14.6453 2.74176L14.7206 2.81861ZM34.6854 2.81861L34.6478 2.89457L34.7994 2.97052C34.7734 2.89456 34.7483 2.81862 34.7232 2.74176L34.6854 2.81861ZM3.24741 3.19838L3.0967 3.50311C3.77144 3.67943 3.79925 2.30049 3.24654 3.19657L3.24741 3.19838ZM4.87058 3.12243L4.83286 3.27434H5.13437L4.90826 2.97052L4.87058 3.12243ZM7.24831 3.04648L7.32366 3.12243L7.17291 2.97052L7.24831 3.04648ZM12.2299 3.08445V3.19838C12.3698 3.23455 12.4263 3.09801 12.4559 2.97052H12.2299V3.08445ZM11.9284 3.12243L12.0038 3.19838L11.8521 3.04648L11.9284 3.12243ZM22.533 3.12243L22.5707 3.19838L22.4953 3.04648L22.533 3.12243ZM50.3103 3.08445C50.5005 3.117 50.5687 3.21647 50.6503 3.3503C50.2968 3.55465 49.7208 3.13961 50.3094 3.08264L50.3103 3.08445ZM11.3999 3.16041L11.4753 3.19838L11.3245 3.12243L11.3999 3.16041ZM4.68123 3.50311C4.5915 3.58268 4.64713 3.70746 4.68123 3.80693L4.90826 3.65502L4.7575 3.42716L4.68123 3.50311ZM49.518 3.61704L49.5934 3.65502L49.4426 3.57907L49.518 3.61704ZM50.3479 4.49143C50.5274 4.45797 50.6467 4.56196 50.7257 4.7202L50.4242 4.79615C50.3973 4.69307 50.3722 4.5918 50.3471 4.48962L50.3479 4.49143ZM49.3673 5.13795L49.4426 5.17683L49.2919 5.09997L49.3673 5.13795ZM49.0272 6.35504C48.9806 6.4762 49.0595 6.50875 49.1402 6.54583C49.2013 6.41833 49.2192 6.27456 49.0649 6.2411L49.0272 6.35504ZM49.745 6.39391H50.0501C50.0088 6.76736 49.7809 6.76736 49.7432 6.39211L49.745 6.39391ZM48.9904 7.19235L49.1412 7.23032L48.8397 7.15437L48.9904 7.19235ZM50.1981 7.83887C50.3955 7.77558 50.4359 8.20056 50.5005 8.37146L50.1981 7.83887ZM49.2551 7.99077H49.3682L49.2928 8.21955L49.0631 8.13997C49.1008 8.05859 49.1349 7.98354 49.2533 7.98896L49.2551 7.99077ZM49.6696 8.21955H49.8204L49.745 8.37146L49.6696 8.21955ZM51.4435 11.9468L51.4058 12.0227H51.5566L51.4812 11.8708L51.4435 11.9468ZM49.3682 12.3989C49.7432 12.4613 49.5772 12.7805 49.2928 12.8555L49.3682 12.3989ZM48.9904 12.5517H49.0658V12.7796L48.8397 12.7036C48.8702 12.6376 48.9043 12.5481 48.9886 12.5535L48.9904 12.5517ZM48.7643 13.0074L48.9151 13.2362H48.7643V13.0074ZM51.2524 14.9859V15.0618L51.5539 14.9859L51.2524 14.9099V14.9859ZM49.1385 15.438C49.1887 15.4895 49.2398 15.5401 49.2901 15.5908C49.2425 15.5456 49.1896 15.4949 49.1394 15.4434L49.1385 15.438ZM48.7616 15.7427L48.9877 15.8946H48.6862L48.7616 15.7427ZM49.3655 16.4986H49.6669L49.5162 16.8793L49.3655 16.4986ZM49.2139 16.9507L49.4408 17.2546H49.1385L49.2139 16.9507ZM49.0631 17.6352C49.2318 17.6624 49.3215 17.7682 49.2901 17.94H49.0631V17.6352ZM48.2331 18.3957C48.226 18.5594 48.3417 18.5892 48.4592 18.6245C48.4835 18.4328 48.4368 18.2628 48.2331 18.2438V18.3957ZM49.5162 18.8523L49.5916 19.0042H49.4408L49.5162 18.8523ZM51.3655 19.9935L51.3278 20.0694L51.5539 19.9935L51.4031 19.9175L51.3655 19.9935ZM49.2121 19.9935C49.3664 20.0278 49.3484 20.1743 49.2883 20.2973C49.1367 20.2774 49.1528 20.1354 49.2147 20.0079L49.2121 19.9935ZM50.3444 20.2213L50.5714 20.2973L50.4206 20.3741C50.3973 20.338 50.3722 20.2864 50.3471 20.2358L50.3444 20.2213ZM49.0613 21.1346C49.1824 21.3407 49.3529 21.4836 49.5898 21.4384L49.2883 21.8191C49.186 21.6129 49.0748 21.2955 48.8352 21.367L49.0613 21.1346ZM49.6275 22.3517H49.7405C49.7199 22.5569 49.553 22.6039 49.3637 22.5795C49.4301 22.4954 49.5045 22.358 49.6301 22.3661L49.6275 22.3517ZM48.5328 23.7207L48.6082 23.7966L48.4574 23.6447L48.5328 23.7207ZM49.6651 23.7207L49.7405 23.8726H49.5898L49.6651 23.7207ZM49.0613 24.7099H49.2121L49.1367 24.8618L49.0613 24.7099ZM51.1752 25.0137L51.4767 25.0897L51.1752 25.1665V25.0137ZM49.5144 25.5463C49.754 25.5373 49.7836 25.681 49.8159 25.851C49.5351 25.7733 49.2623 25.7904 49.0613 26.0029C49.16 25.8176 49.2641 25.5445 49.5171 25.5608L49.5144 25.5463ZM49.2121 28.1297C49.2381 28.1803 49.2632 28.2309 49.2883 28.2816C49.2659 28.2481 49.2425 28.1975 49.2147 28.1468L49.2121 28.1297ZM51.666 28.9661L51.6283 29.0429L51.7037 28.8901L51.666 28.9661ZM48.6082 29.1569C48.6342 29.2202 48.6593 29.2835 48.6844 29.3468C48.7212 29.1361 48.985 29.2871 49.1331 29.3468V28.9661H48.5292L48.6082 29.1569ZM51.893 30.4119L51.9307 30.4879L51.8554 30.336L51.893 30.4119ZM50.1192 30.4879H50.3453L50.1945 30.7158L50.1192 30.4879ZM49.4014 31.4771L49.439 31.5531L49.3637 31.4002L49.4014 31.4771ZM48.9483 31.8189C49.1071 32.13 49.0452 32.6119 49.5898 32.5423C49.544 32.1137 49.2309 31.8578 48.8352 31.7059L48.9483 31.8189ZM25.6241 33.1119L25.6618 33.2259L25.7371 33.074L25.5864 32.998L25.6241 33.1119ZM23.9256 33.3407V33.4546H24.1526V33.2259H23.9256V33.3407ZM22.1526 34.4818C22.106 34.6021 22.1849 34.6347 22.2656 34.6717L22.4164 34.367C22.3141 34.3824 22.1894 34.3697 22.1553 34.499L22.1526 34.4818ZM27.2095 35.5841C27.2454 35.802 27.2096 35.8644 27.0965 35.9648C27.7102 36.0778 27.7201 35.4937 27.1719 35.3562L27.2095 35.5841ZM49.439 36.0787L49.3637 36.1926L49.7405 36.2695L49.5144 35.9648L49.439 36.0787ZM25.5864 36.4214V36.5733C25.7659 36.5399 25.8852 36.6438 25.9641 36.8012C26.1023 36.4856 25.8906 36.3274 25.5864 36.2695V36.4214ZM19.2464 37.0299L19.4725 37.4821H19.171L19.2464 37.0299ZM18.4909 37.9423C18.542 38.0183 18.5923 38.0951 18.6425 38.1711H18.4909V37.9423ZM38.5697 38.4369L38.6451 38.4749L38.4943 38.3989L38.5697 38.4369ZM18.8686 38.4749H19.0194V38.927H18.8686V38.4749ZM32.1534 38.5508L32.0781 38.6268L32.6819 39.0075L32.7573 38.7037C32.5339 38.7245 32.3149 38.6919 32.2288 38.4749L32.1534 38.5508ZM50.6844 38.6268H50.7975V38.8556L50.4987 38.7932C50.5355 38.7136 50.5696 38.6386 50.6871 38.644L50.6844 38.6268ZM34.9116 38.7932L34.9493 38.8691L34.8739 38.7172L34.9116 38.7932ZM17.4375 38.7932L17.6636 38.8691L17.5129 39.097L17.4375 38.7932ZM27.5137 39.097L27.5514 39.173L27.476 39.021L27.5137 39.097ZM15.4743 39.3638L15.5506 39.4017L15.399 39.3258L15.4743 39.3638ZM47.4795 39.5536C47.7872 39.6215 48.8469 39.8457 48.1587 40.0862L48.234 40.3141L47.9317 40.2381C48.1004 40.069 47.6275 39.7372 47.4795 39.5573V39.5536ZM45.8563 39.6676L45.9694 39.7055C45.9487 39.928 45.7729 39.9289 45.5916 39.8575C45.6535 39.7661 45.7271 39.6187 45.8563 39.6712V39.6676ZM47.0227 39.7055H47.0981V40.0103H46.872C46.9025 39.918 46.9285 39.7055 47.0263 39.7092L47.0227 39.7055ZM41.2103 39.8575C41.4553 39.9307 41.4113 40.0709 41.3611 40.2381L40.7572 40.0103C40.8855 39.8783 40.9878 39.7761 41.2139 39.8611L41.2103 39.8575ZM42.5688 39.8575C42.5939 39.909 42.6199 39.9596 42.645 40.0103C42.6235 39.9632 42.5975 39.9126 42.5724 39.8611L42.5688 39.8575ZM45.2112 39.8575C45.5431 40.0329 45.4804 40.4 45.8904 40.466C45.5737 40.5971 45.2561 40.6152 45.0605 40.3141L44.9088 40.466C45.0129 40.2659 45.1149 40.0642 45.2148 39.8611L45.2112 39.8575ZM44.1542 39.9723C44.4548 40.4244 43.5208 40.1866 43.5504 40.5429L42.8712 40.3141C43.213 40.7454 42.8989 41.1098 42.418 40.9226L42.4934 41.3033C42.1192 41.344 42.1345 40.6803 42.305 40.504C42.5742 40.391 42.794 40.3729 42.9465 40.0103C43.1278 40.4958 43.9164 39.9533 44.1578 39.9759L44.1542 39.9723ZM46.0385 40.1622H46.3408V40.39C46.2071 40.3629 45.999 40.3304 46.0447 40.1658L46.0385 40.1622ZM38.8676 40.2381C39.0919 40.2662 39.3081 40.3349 39.396 40.5429C39.1215 40.6613 38.9367 40.5329 38.8739 40.2399L38.8676 40.2381ZM47.1708 40.2381H47.2462V40.9226C46.6979 40.6215 46.3713 40.3566 47.1789 40.2399L47.1708 40.2381ZM49.4354 40.2381L49.8886 40.39C49.7567 40.9633 49.4418 40.7002 49.4418 40.2399L49.4354 40.2381ZM39.6984 40.3521L39.8492 40.39C39.8276 40.6125 39.6527 40.6134 39.4714 40.5429C39.5127 40.4307 39.5387 40.306 39.7047 40.3557L39.6984 40.3521ZM44.6046 40.3141L44.7554 40.466H44.5293L44.6046 40.3141ZM36.3014 40.6188H36.4522V40.8467H36.3014V40.6188ZM37.283 40.6188H37.5091V40.8467L37.283 40.6188ZM44.9097 40.6188C45.0721 40.6107 45.1017 40.7282 45.1367 40.8467L44.4575 40.9226C44.5822 40.8015 44.7464 40.6107 44.9124 40.6224L44.9097 40.6188ZM50.3444 40.6188L50.5714 40.6948C50.5666 40.7199 50.5568 40.7437 50.5428 40.765C50.5287 40.7863 50.5106 40.8045 50.4895 40.8187C50.4683 40.8328 50.4446 40.8426 50.4197 40.8474C50.3948 40.8522 50.3692 40.8519 50.3444 40.8467V40.6188ZM39.0255 40.9986C39.4418 41.0754 39.6275 41.9932 39.8554 41.1514C41.2327 41.4227 39.8842 42.0005 39.327 41.6035C39.0686 41.3711 38.7644 41.58 38.6477 41.2237C38.5311 40.8675 38.689 40.9353 39.0255 41.0022V40.9986ZM22.1167 40.9986H22.3437L22.2684 41.2274C22.2181 41.155 22.1679 41.0782 22.1167 41.0022V40.9986ZM21.8152 41.0745C22.2064 41.1125 22.0126 41.6596 22.2684 41.76C21.9794 41.6867 21.8816 41.3729 21.8152 41.0782V41.0745ZM37.2893 41.1514C37.536 41.2219 37.5226 41.4109 37.5154 41.6035L36.9115 41.4516C36.9788 41.2798 37.0398 41.0537 37.2893 41.155V41.1514ZM40.6091 41.1514C40.8523 41.3937 41.1412 41.5872 41.44 41.3793C41.4158 41.7138 41.0856 41.995 40.7599 41.8314C40.9375 41.5348 40.5616 41.4317 40.6101 41.155L40.6091 41.1514ZM21.0221 41.2274H21.1351C21.1037 41.4362 21.0858 41.7545 20.8327 41.6795C20.8624 41.5493 20.8749 41.2237 21.023 41.2346L21.0221 41.2274ZM25.1351 41.2274C25.3298 41.2644 25.3244 41.6306 25.3621 41.8359C25.214 41.6587 25.0041 41.4362 25.136 41.2346L25.1351 41.2274ZM46.3426 41.3033H46.4933V41.6071L46.3426 41.3033ZM44.2664 41.6831L44.2287 41.9119L44.5311 41.6071L44.304 41.4552L44.2664 41.6831ZM40.9833 41.5691L41.0587 41.6071L40.9079 41.5312L40.9833 41.5691ZM20.3814 41.6867C20.8587 41.5963 20.9476 42.1388 20.909 42.524C20.3384 42.4815 20.8668 41.7826 20.3814 41.6867ZM19.9283 41.958C20.1078 41.9905 20.0791 42.2292 20.0791 42.3766C19.8565 42.307 19.5694 42.2338 19.5506 41.996C19.6682 41.939 19.8019 41.9256 19.9283 41.958ZM21.3639 41.92L21.5147 42.0719L21.2886 42.1479L21.3639 41.92ZM27.8932 41.92H28.0063C28.0502 42.0782 27.8412 42.1569 27.7048 42.2238C27.6034 42.0321 27.6716 41.8974 27.8879 41.9155L27.8932 41.92ZM28.0817 42.2998H28.3087V42.5285C28.2315 42.4481 28.157 42.3721 28.0799 42.2952L28.0817 42.2998ZM30.4217 42.4526H30.6487V42.6804L30.4217 42.4526ZM19.9301 42.5285L20.2316 42.6804L20.0055 42.7564L19.9301 42.5285ZM34.3472 42.6425L34.4226 42.6804L34.2718 42.6045L34.3472 42.6425ZM24.6856 42.9083H24.8372L24.7618 43.0611L24.6856 42.9083ZM19.7794 45.2665L19.9301 45.3425L19.8547 45.4953L19.7794 45.2665ZM21.4393 45.6472C21.6753 45.6662 21.7479 45.9555 21.817 46.1798C21.7273 45.9628 21.512 45.9302 21.2886 45.951C21.4142 45.8778 21.5505 45.772 21.4375 45.6427L21.4393 45.6472Z" fill="#839CB5"/>
  </g>
  <defs>
    <clipPath id="clip0_1762_1701">
      <rect width="53" height="50" fill="white"/>
    </clipPath>
  </defs>
</svg>