<svg width="51" height="38" viewBox="0 0 51 38" fill="none" xmlns="http://www.w3.org/2000/svg">
<g clip-path="url(#clip0_1762_1548)">
<path d="M13.4837 0.0351154C13.3869 0.0921568 13.4267 0.177714 13.4559 0.256794H13.2848L13.3418 0.0908674C12.6085 0.246435 12.228 0.0221584 11.61 0.0908674C11.2718 0.106424 10.3594 0.998342 10.3329 0.201058C9.90991 0.372182 9.16336 0.160866 8.91406 0.424035C8.73503 0.320323 8.59442 0.464218 8.6289 0.645714C8.29074 0.214013 7.77494 0.4733 7.38109 0.701466C7.43812 0.468114 6.98327 0.516086 6.75651 0.479787C6.82074 0.532614 6.86622 0.603947 6.88647 0.683583C6.90671 0.763219 6.9007 0.847067 6.86924 0.923144C6.64514 0.807765 6.39847 0.736472 6.18762 0.867408C6.48599 1.12669 6.05501 1.48319 6.18762 1.75544H6.01784C5.78445 1.2278 5.27662 2.09769 6.47142 2.14436C6.15449 2.70699 5.27794 1.96416 4.88012 2.53328C5.2249 2.59421 5.7752 2.57086 5.84548 2.86644H5.67441C5.86139 3.24369 7.01376 2.66291 7.20737 2.47752C7.41291 2.57086 7.44342 2.77182 7.37844 2.97665L7.889 2.9209C7.85054 2.79126 7.81336 2.66162 7.77491 2.53198C8.21517 2.65125 8.34514 3.02849 8.85436 2.86515C8.8159 2.79125 8.77879 2.71606 8.74033 2.64217C9.06787 2.43475 9.12491 3.2087 9.42196 2.89238C9.50417 2.27789 9.93647 2.37382 9.64871 2.97535C9.89006 3.02461 10.2799 2.73291 10.2162 2.47623L10.557 2.64217C10.5 2.53197 10.443 2.42049 10.3873 2.309L10.9549 2.36474C10.6008 2.57346 10.6698 2.7394 11.0676 2.75366V2.58773C11.2731 2.5631 11.3328 2.83014 11.5794 2.75366C11.6815 2.09249 12.2425 3.25667 12.3167 2.42049C12.8127 2.3466 13.1389 2.50735 13.737 2.42049C13.6853 2.23122 13.6786 2.03157 13.8497 1.92138C13.8085 1.91073 13.7699 1.89216 13.7361 1.86675C13.7023 1.84135 13.674 1.80962 13.6529 1.77341C13.6318 1.73721 13.6182 1.69725 13.6131 1.65588C13.608 1.61451 13.6113 1.57256 13.6229 1.53246C13.9333 1.65303 13.8948 1.20057 14.0778 1.19928C13.9266 1.11372 14.0234 0.910191 14.0778 0.75592H13.794C14.0274 0.426635 14.2131 -0.147677 13.4837 0.0351154ZM10.9284 0.256794L10.9005 0.368283C11.0066 0.317723 11.1591 0.263279 11.1273 0.146604C11.0384 0.142714 10.9536 0.137526 10.9284 0.256794ZM11.7519 0.368283L11.9229 0.479787H11.7519V0.368283ZM10.2189 0.424035V0.700168H9.58901C9.74151 0.453852 10.1194 0.59127 10.2189 0.424035ZM13.0037 0.534225H13.1694C13.1456 0.628862 13.1031 0.727394 12.9984 0.701466L13.0037 0.534225ZM4.85623 0.867408C4.88275 0.997048 5.04716 1.0113 5.16916 1.03463C5.08827 0.892029 4.99414 0.715717 4.82838 0.757202L4.85623 0.867408ZM5.70756 0.895925C5.39726 1.02556 5.67444 1.52078 5.93568 1.31206C5.96363 1.29725 5.9883 1.27721 6.00833 1.25307C6.02835 1.22893 6.04331 1.20117 6.05236 1.17138C6.06141 1.14158 6.0644 1.11033 6.0611 1.07942C6.0578 1.04851 6.04828 1.01853 6.03313 0.991208C6.01797 0.963884 5.99747 0.939746 5.97278 0.920169C5.94808 0.900593 5.91966 0.885957 5.88919 0.877109C5.85871 0.868261 5.82679 0.865368 5.79517 0.868595C5.76355 0.871822 5.73286 0.881114 5.70491 0.895925H5.70756ZM8.4048 0.811656H8.63155V1.08909C8.49496 1.03853 8.36634 0.959445 8.40214 0.811656H8.4048ZM9.02938 0.811656C9.16862 0.828509 9.29465 0.889436 9.2562 1.03463H9.02938V0.811656ZM4.31783 0.923144L4.08971 0.978896C4.26343 1.06446 4.33111 1.21354 4.2038 1.36782C4.23957 1.36492 4.27548 1.37067 4.30844 1.38456C4.3414 1.39845 4.3704 1.42005 4.39281 1.44746C4.41521 1.47487 4.43032 1.50724 4.4369 1.54173C4.44349 1.57623 4.44134 1.61178 4.43056 1.64525L4.60163 1.53376L4.31783 1.20058C4.81511 1.14353 5.02198 0.777948 4.31517 0.923144H4.31783ZM2.98248 1.00612L2.95464 1.09038C3.38297 1.00871 3.36305 1.37688 3.29542 1.69969C3.45057 1.59986 3.69327 1.48189 3.57922 1.31077H3.74893V1.47801L4.14676 1.36782C4.11493 0.981489 3.19598 0.829806 2.97983 1.00612H2.98248ZM6.53105 0.923144L6.70212 0.978896C6.68223 1.0152 6.66364 1.05279 6.64508 1.09038L6.53105 0.923144ZM12.8963 0.978896H12.9519C12.9002 1.2304 12.3632 1.14743 12.4984 1.53376C12.4348 1.37689 12.2677 1.35096 12.1006 1.36782C12.3313 1.24466 12.7716 0.99575 12.8883 0.978896H12.8963ZM1.17103 1.17336L1.08615 1.31206C1.50784 1.12538 1.52377 1.60765 1.76777 1.75544C1.36995 2.0562 1.10471 1.57135 0.688321 1.58949C0.739574 1.66307 0.766992 1.75004 0.766992 1.83906C0.766992 1.92808 0.739574 2.01503 0.688321 2.0886C0.729333 2.07741 0.772196 2.07429 0.814454 2.07939C0.856712 2.0845 0.897574 2.09774 0.934566 2.11836C0.971558 2.13897 1.00398 2.16655 1.03001 2.19949C1.05603 2.23244 1.0751 2.2701 1.08615 2.3103C0.830211 2.37901 0.513324 2.45808 0.404585 2.20009L0.348835 2.53328L0.00805498 2.42179C-0.00785802 2.99739 0.76657 4.06432 0.23481 4.47528C0.413832 4.61399 0.234805 4.9342 0.461565 5.08588C1.13919 4.66325 0.25739 5.71982 0.603498 6.00244C0.77191 6.15671 1.41771 6.08282 1.20024 6.47433C0.367455 5.78853 0.851434 6.79972 0.859391 7.27809C0.676391 7.92629 1.11668 7.71758 1.45483 8.00019C1.77309 8.39689 1.28243 8.17778 1.11535 8.16612C0.972131 8.23742 0.982716 8.86747 1.25722 8.80525C1.21876 8.91544 1.18032 9.02692 1.14319 9.13841C1.26386 8.95044 1.61793 9.06582 1.54102 9.30436H1.42699V9.13841C0.846166 9.36399 1.18029 10.6721 1.71073 10.6941L1.25722 11.1388C1.38982 11.2282 1.43623 11.3591 1.3129 11.4719C1.49457 11.481 1.64311 11.5627 1.5967 11.7494L1.3129 11.6936C1.26649 11.8868 1.5861 12.0488 1.76777 12.1927C1.08219 12.6374 2.66953 12.6646 2.05157 13.0263C2.03964 12.8591 1.86588 12.8461 1.71073 12.8591V12.6931H1.42699C1.5596 12.863 1.50125 13.0937 1.42699 13.3037C2.01842 13.1521 1.38318 13.996 1.71073 14.302C1.11001 14.3824 1.89771 14.862 1.8818 15.107C1.67891 15.7656 1.83009 16.2129 1.99453 16.9661C1.30894 16.992 2.33933 17.5287 2.05157 17.9098C1.52114 17.7439 1.94546 18.4025 1.99453 18.5762C1.62587 18.558 1.84072 19.004 2.05157 19.1311H1.71073C1.82875 19.3709 2.22392 19.4707 1.71073 19.6859L1.93748 19.9089C1.59137 20.0709 1.86059 20.4715 1.99453 20.7412C1.44818 20.9473 1.99454 21.4788 2.07941 21.7394C1.86326 22.0285 2.00512 22.3876 1.71073 22.6287L1.93748 22.8504C1.88106 22.8858 1.83553 22.9355 1.80565 22.9941C1.77577 23.0528 1.76267 23.1183 1.76777 23.1836H1.93748C1.65237 23.3975 2.00116 24.1559 1.5967 24.3205C1.70544 24.4994 1.88049 24.6926 1.76777 24.9597H1.99453C1.7492 25.5184 1.64973 26.7604 1.8818 27.3463C1.17632 27.3748 2.11786 27.6886 1.54102 28.0127C1.83806 28.0956 1.75318 28.4379 1.99453 28.6233L1.5967 28.6777C1.59007 28.8994 2.00511 28.8333 1.93748 29.0666H1.76512C1.74788 29.3259 0.986728 30.2334 1.62325 30.3436C1.91499 30.3371 1.74788 31.2511 1.36729 31.1214V31.6205L1.08349 31.5103C1.3739 31.57 1.30362 31.9978 1.31025 32.2882L1.48132 32.178V32.6771C1.33279 32.6408 1.27047 32.764 1.25456 32.8988H1.59405C1.52111 33.1711 1.02651 33.5794 1.65109 33.5651C1.04374 33.5457 1.32884 34.247 1.14054 34.5647L1.31025 34.4532L1.53836 34.9523L1.19758 35.008C1.23471 35.1014 1.27312 35.1934 1.31025 35.2855C1.02646 35.2181 0.999948 35.664 0.685666 35.5629C0.698927 35.7301 0.871359 35.7431 1.02651 35.7301C0.946946 35.9674 1.00259 36.425 1.31025 36.1735C1.27312 36.2474 1.23471 36.3213 1.19758 36.3965H1.42434C1.40444 36.5495 1.36202 36.7154 1.19758 36.7283C1.41241 36.8152 1.33019 37.2806 1.59541 37.2288V37.1173L1.8805 37.173L1.42563 37.5062C1.8765 37.6216 2.25313 37.7849 2.84457 37.6721C2.6125 37.5153 2.55547 37.2832 2.73184 37.0615L2.50372 37.0058L2.84457 36.7841C2.65096 36.8347 2.44673 36.8411 2.33401 36.6739H2.67479C2.67479 36.4043 3.16546 36.4263 3.35642 36.285C2.45601 37.1769 3.78869 36.4444 3.92395 37.1173C3.57784 36.8748 3.27553 37.1743 2.95859 37.0058C3.11905 37.7603 3.40817 37.3947 3.95186 37.2288C4.18127 37.081 5.0127 37.1211 4.88938 36.7283L4.71831 36.7841L4.88938 36.4509C4.99679 36.683 5.32033 36.5235 5.45691 36.7841C5.47548 36.6363 5.49407 36.4885 5.51396 36.3407C4.6109 36.635 5.13472 35.7586 5.17318 35.3412L5.45691 35.5629C4.99411 35.9933 6.11997 36.2863 6.36529 35.7859C6.34673 35.8779 6.32681 35.97 6.30825 36.0633L6.76312 36.0076V36.1735H6.93289V36.0076H6.76312C6.89573 35.9298 6.85593 35.7612 6.8188 35.6186C6.99915 35.8689 7.3015 35.9259 7.61445 35.8961C7.58263 36.0464 7.36117 35.9712 7.21663 35.9518C7.0575 36.4029 9.02542 36.4107 8.74959 35.8403H8.63557V36.0076C8.54672 35.8961 8.42604 35.8196 8.29608 35.8961V35.7859C8.1946 35.7702 8.09079 35.777 7.99234 35.8057C7.89388 35.8344 7.80328 35.8843 7.72718 35.9518C7.79349 35.6303 7.63835 35.3425 7.6715 35.008C7.93672 35.9518 9.03204 35.7029 9.772 35.3969C9.77619 35.4421 9.79035 35.4859 9.81344 35.5252C9.83653 35.5646 9.868 35.5986 9.90577 35.6249C9.94354 35.6513 9.98672 35.6693 10.0323 35.6779C10.0779 35.6864 10.1248 35.6852 10.1698 35.6744V36.1735C10.214 36.1126 10.2746 36.0649 10.3448 36.0356C10.415 36.0064 10.4921 35.9967 10.5676 36.0076C10.5305 35.9337 10.4921 35.8597 10.4536 35.7859C10.6366 35.7133 11.2228 35.7522 11.2493 36.0076C11.602 35.9259 11.3328 35.6368 11.0782 35.6186C11.1631 35.2518 11.6206 35.489 11.8739 35.6186C11.4137 34.7877 11.8248 34.8408 12.1006 35.6186C11.1922 35.8364 11.7691 36.0957 12.3844 36.0633V35.8961C11.98 36.0477 12.0675 35.6588 12.2717 35.4527C12.6257 36.0815 13.7038 36.1878 14.2608 35.6744C14.465 35.8377 14.5565 36.2448 14.8283 35.7859L15.2262 36.1748C15.2447 36.119 15.2633 36.0646 15.2832 36.0089C15.1135 36.0516 15.0737 35.8792 15.0552 35.7314C15.3442 35.7625 15.6505 35.7197 15.624 35.3982C15.7778 35.4618 15.8309 35.6225 15.8508 35.7872C16.0192 35.5823 16.2698 35.7055 16.4754 35.8416C16.4117 35.4177 17.0058 35.6757 16.9289 35.9531C17.1212 35.9129 16.9992 35.4955 16.8162 35.5097C16.9421 35.3801 16.9117 35.1882 16.8732 35.0093C16.8547 35.3386 16.6372 35.5201 16.3043 35.454V35.1766C16.0603 35.1299 16.0683 35.3671 16.0776 35.5655C15.7235 35.1143 15.1665 34.7876 16.2486 34.9549C16.1677 34.6878 16.4502 34.4363 16.6465 34.6775C16.5046 34.6412 16.4727 34.8784 16.4196 35.0106C16.7392 34.4635 17.2737 35.5292 17.4421 35.0106C17.4037 35.1623 17.6901 35.1467 17.8399 35.1779L17.7842 35.3995C18.0042 35.4687 18.2334 35.5063 18.4645 35.511C18.4274 35.4358 18.3889 35.362 18.3518 35.2881H18.5215C18.4857 35.5473 18.5931 35.9362 18.9193 35.7885V36.0659C17.8585 36.1087 19.6142 36.7608 18.9764 35.9544C19.1249 35.9907 19.1872 35.8675 19.2031 35.7327C19.2031 36.2513 20.2971 35.7327 19.9417 35.511C19.4285 35.922 18.5308 35.4138 18.3504 34.7332L18.5772 34.6775L18.4632 34.8447C18.6833 34.9678 19.0546 35.104 18.918 35.3438L19.6553 35.511C19.666 35.4775 19.6681 35.4419 19.6616 35.4074C19.655 35.3728 19.6398 35.3404 19.6175 35.3129C19.5951 35.2854 19.5662 35.2637 19.5333 35.2497C19.5004 35.2356 19.4644 35.2297 19.4286 35.2323C19.7256 34.8201 19.2124 33.9644 18.975 34.7889C18.788 34.7241 18.8185 34.5193 18.861 34.3443C18.0653 34.2782 16.8201 33.4368 16.0218 34.0668C15.9847 33.9566 15.9463 33.8452 15.9091 33.7337C15.7765 34.015 15.4795 34.0137 15.3415 33.7337L15.1135 33.9009C13.9306 33.5314 11.7983 33.3538 10.5146 33.7337L10.4019 33.6235C9.95897 33.9476 8.05208 33.2877 8.13032 34.1226C7.81736 33.429 6.12531 34.0669 5.57631 34.2898C5.14666 34.5841 4.64805 34.0746 4.38284 34.6217L5.46222 34.6775C5.22618 34.7682 5.26331 35.222 5.0644 35.2323C5.2169 34.9523 4.76473 34.9303 4.72362 34.6775C4.40403 34.7786 4.07253 35.2142 3.64553 35.0664V35.1779C3.35909 35.1779 2.7809 35.2297 3.19066 34.9004C3.06998 34.7164 2.79947 34.7267 2.56608 34.7332C2.63901 34.3832 2.81536 33.9126 2.50903 33.7337L2.73715 33.7894C2.77295 33.5301 2.66554 33.1412 2.33932 33.2903V33.1101C2.58597 33.2397 2.64699 32.9805 2.84988 32.9999C2.98248 32.7251 2.48649 32.0678 2.90686 32.1676C3.02886 31.7722 2.69738 31.6167 2.62312 31.3898L2.9639 31.4455L2.84988 31.2238L3.02095 31.1681C2.78358 30.9762 2.7491 30.726 3.02095 30.5575C2.83662 30.481 2.75569 30.2127 2.6801 30.0026L3.07793 30.0584C2.94532 29.9806 2.98382 29.8121 3.02095 29.6695H2.84988C3.08194 29.427 3.12697 29.3104 2.79413 29.0031C2.98376 28.9927 3.10443 28.8398 3.19195 28.6699L2.85117 28.6155C2.94267 28.4353 2.81937 28.2616 2.68146 28.1151C3.39755 28.3497 3.35774 27.227 3.02224 26.9483C3.2742 26.7474 2.92541 26.3325 3.36302 26.1705H3.13497C3.13497 25.9436 3.09387 25.6325 3.30604 25.5599C2.52233 25.5871 3.88686 24.2207 3.13497 24.0042C3.46782 23.8046 2.87639 23.3742 3.30604 23.2821C3.17343 23.0138 3.15089 22.7752 3.30604 22.5885C3.28482 22.4589 2.96256 22.3552 3.249 22.2554C3.4983 21.9533 2.99039 21.0782 3.36302 20.7295C3.17074 20.491 3.25434 20.211 3.41877 19.9517L3.13497 19.8415C3.27819 19.5498 3.44131 19.1803 3.07929 19.0092C3.5832 18.6501 2.84456 18.4271 2.90822 18.0654L3.13497 18.1756V18.0097C2.82599 18.0758 2.86975 17.5741 3.13497 17.565C2.93473 17.0296 3.04481 16.7055 3.07929 16.1221L2.85117 16.0664C3.02091 15.8823 2.99306 15.6567 2.85117 15.4558L2.56737 15.623C2.95857 15.0552 2.99042 14.8452 2.62442 14.2359C2.82333 14.3253 3.00763 14.2358 2.9652 14.0129C2.60185 14.0271 2.52497 12.4222 2.79549 12.2926C2.26505 12.1409 2.31544 12.0514 2.62442 11.7377C2.56076 11.5368 2.4202 11.3851 2.62442 11.1828C2.36981 11.1439 2.34066 10.9443 2.45471 10.7382L2.11386 10.628L2.51169 10.5165C2.39911 10.3989 2.31516 10.2579 2.26602 10.1042C2.21689 9.95042 2.20388 9.78781 2.22795 9.62846C2.36056 9.68291 2.49975 9.67513 2.51169 9.51697H2.11386C2.11386 8.97507 2.69602 8.86877 1.88711 8.57319C1.99187 8.44355 2.12315 8.2478 2.28493 8.35151C2.33134 8.09223 2.05687 8.11945 1.94415 8.29576C1.77574 8.09222 1.88577 7.74869 2.1722 7.74091C1.84201 7.5646 2.14043 7.15622 2.02904 6.85287C2.0476 6.57803 1.66568 6.3719 1.88847 6.07503H1.60331C1.97859 5.85205 1.73594 5.51888 1.83142 5.187C1.61792 5.4372 1.43358 5.1494 1.54762 4.90957C0.884578 4.82012 1.43623 4.77993 1.54762 4.52065C0.952209 3.69225 2.04893 3.24241 2.62578 2.91053C2.11921 2.94424 1.23068 2.75885 1.37655 2.24548L1.1498 2.29992C1.27179 1.83451 1.56753 2.52549 1.83142 2.41141V2.57865L2.1722 2.52291C2.04755 2.26363 2.07279 1.94341 2.11522 1.63487H1.83142L2.00113 1.24595C1.73061 1.18761 1.28639 0.991861 1.16307 1.17336H1.17103ZM2.1656 1.17336L2.22128 1.20058L2.10855 1.14484L2.1656 1.17336ZM10.3979 1.17336C10.4722 1.21225 10.4138 1.38078 10.3979 1.47801H10.7387C10.5531 1.93045 10.264 1.40152 10.0571 1.25633C10.1526 1.21873 10.317 1.13706 10.3847 1.17336H10.3979ZM4.82838 1.3393C4.80982 1.38597 4.7899 1.43263 4.77134 1.47801L4.99809 1.42225L4.88536 1.20058C4.86282 1.24725 4.84429 1.29392 4.82573 1.3393H4.82838ZM6.87183 1.20058H6.98592L6.81485 1.31206C7.20074 1.59986 6.76314 1.86045 6.41703 1.92268C6.22607 1.63228 6.83472 1.66338 6.75781 1.42225H6.35998C6.51381 1.33669 6.73664 1.19669 6.86924 1.20058H6.87183ZM7.72323 1.20058L8.12106 1.42225C7.94734 1.40151 7.73251 1.37818 7.72058 1.20058H7.72323ZM12.6059 1.31206H12.7716V1.47801H12.6005L12.6059 1.31206ZM0.140663 1.50652C0.163207 1.65431 0.273261 1.67635 0.395261 1.69969C0.319674 1.57005 0.2507 1.33281 0.111461 1.36782C0.12207 1.41319 0.132676 1.45985 0.141958 1.50652H0.140663ZM1.13393 1.45079V1.53376H1.36729C1.40044 1.41449 1.24927 1.39115 1.14054 1.36782L1.13393 1.45079ZM4.05792 1.50652C3.95846 1.59338 4.03007 1.67765 4.08576 1.75544L3.91605 1.86693C4.20249 1.92915 4.31387 1.6219 4.14281 1.42225L4.05792 1.50652ZM5.19306 1.47801C5.30312 1.5532 5.16519 1.74766 5.10817 1.86693L5.56168 1.69969C5.47814 1.50652 5.32299 1.38077 5.10817 1.42225L5.19306 1.47801ZM5.59088 1.45079L5.67577 1.47801L5.50599 1.42225L5.59088 1.45079ZM8.79867 1.42225C9.07582 1.45466 9.32909 1.57653 9.25218 1.86693C9.0851 1.85007 8.91801 1.8773 8.85436 2.03287C8.83447 1.95897 8.81588 1.88507 8.79731 1.81117H9.08111V1.64525C9.04694 1.65499 9.01085 1.65649 8.97596 1.64961C8.94107 1.64274 8.90841 1.62769 8.88077 1.60576C8.85314 1.58384 8.83139 1.5557 8.81732 1.52374C8.80325 1.49178 8.79726 1.45695 8.79997 1.42225H8.79867ZM11.354 1.42225C11.5888 1.42225 11.9256 1.38337 11.9216 1.64525C11.6113 1.56357 11.2718 1.5156 11.0689 1.75544C11.1167 1.60765 11.1936 1.43134 11.354 1.53376V1.42225ZM13.2265 1.47801L13.2835 1.58949H13.1694L13.2265 1.47801ZM7.26571 1.53376L7.54951 1.58949L7.32275 1.69969L7.26571 1.53376ZM2.582 1.72822C2.60587 1.88767 2.76628 1.86822 2.89358 1.86693C2.81402 1.72562 2.71856 1.54931 2.5528 1.58949C2.56076 1.63617 2.57402 1.68155 2.5833 1.72822H2.582ZM9.82108 1.58949H9.93381C9.91524 1.62579 9.89665 1.66339 9.87676 1.69969L9.82108 1.58949ZM8.51487 1.69969H8.57192V1.86693C8.3067 1.86693 8.13033 2.13398 7.77627 2.0886L7.89029 2.42179C7.5296 2.32067 7.64763 1.9473 8.00302 1.97841L7.94734 1.75544C8.13696 1.83581 8.35843 1.74895 8.51623 1.69969H8.51487ZM12.3751 1.69969L12.5462 1.75544L12.3751 1.81117V1.69969ZM12.7729 1.69969H12.9427V1.86693L12.7729 1.69969ZM14.42 1.75544L14.4756 1.81117L14.3629 1.69969L14.42 1.75544ZM0.395261 1.86693V1.97841H0.509286C0.47083 1.90322 0.433718 1.82933 0.395261 1.75544V1.86693ZM9.59296 1.75544L9.70705 1.86693L9.53598 1.92268C9.5572 1.86693 9.57575 1.81118 9.58901 1.75544H9.59296ZM9.82108 1.75544L9.93381 1.81117C9.91524 1.84877 9.89665 1.88508 9.87676 1.92268L9.82108 1.75544ZM3.23443 1.83971L3.29141 1.86693L3.17738 1.81117L3.23443 1.83971ZM7.21268 1.86693V2.14436C7.03764 2.11972 6.76181 2.11843 6.81485 1.92268C6.87917 1.95179 6.95074 1.96201 7.02089 1.95211C7.09104 1.94222 7.15675 1.91263 7.21002 1.86693H7.21268ZM12.3844 1.89414C12.5316 2.09249 12.1616 2.25196 11.9866 2.14436C12.0065 2.07046 12.025 1.99657 12.0436 1.92268L12.2146 2.03287C12.2491 1.97323 12.3048 1.85914 12.3738 1.89414H12.3844ZM2.53422 2.00563C2.50637 2.10157 2.37513 2.12102 2.27833 2.14436C2.42817 2.5229 2.97454 1.73728 2.52632 2.00563H2.53422ZM3.24369 1.97841L3.30073 2.03287L3.18671 1.92268L3.24369 1.97841ZM4.52069 1.97841L4.49285 2.03287H4.60694C4.58705 1.99657 4.56846 1.95898 4.54989 1.92268L4.52069 1.97841ZM10.9085 1.92268C10.9655 2.03287 11.0225 2.14435 11.0782 2.25584C10.939 2.17547 10.8077 2.06399 10.9005 1.92268H10.9085ZM13.009 1.92268H13.123L13.066 2.0886L13.009 1.92268ZM9.48956 1.97841L9.65927 2.25584H9.20576L9.48956 1.97841ZM4.29393 2.0886C4.30322 2.10675 4.31253 2.12621 4.32314 2.14436C4.30325 2.10676 4.28466 2.07046 4.26609 2.03287L4.29393 2.0886ZM3.47044 2.14436C3.38955 2.21825 3.08193 2.1975 2.90291 2.20009L3.18671 2.53328C3.25964 2.4166 3.37629 2.44901 3.47044 2.53328C3.23705 2.63051 2.98908 2.63829 2.84586 2.42179C3.39088 3.52891 2.95726 2.65254 2.61911 3.30982C2.75171 3.13351 2.96259 3.37593 3.07398 3.19833L3.18671 3.30982C3.23312 3.1361 3.64283 3.25277 3.86827 3.25406C3.86827 2.97534 3.29143 3.0622 3.24369 2.86515C3.3564 2.75495 4.03535 2.06528 3.46248 2.14436H3.47044ZM10.199 2.0886H10.3979C10.4642 2.33362 10.1579 2.34789 9.94307 2.36604C9.95898 2.22084 9.97756 2.07823 10.1911 2.0886H10.199ZM1.8818 2.25584L2.10855 2.42179H1.8818V2.25584ZM8.35312 2.25584H9.03469V2.47752C8.84108 2.29862 8.4486 2.51512 8.34516 2.25584H8.35312ZM13.9227 2.3103L13.9797 2.36604L13.8656 2.25584L13.9227 2.3103ZM6.6557 2.3103L6.76979 2.42179H6.59872L6.6557 2.3103ZM4.35629 2.42179L4.32845 2.47752L4.38413 2.36604L4.35629 2.42179ZM11.8792 2.36604L12.0489 2.42179L11.8792 2.47752V2.36604ZM6.30961 2.42179H6.53636V2.53328L6.30961 2.42179ZM1.13788 2.47752H1.25191L1.19493 2.64347C1.17238 2.58902 1.15379 2.53327 1.13523 2.47752H1.13788ZM2.44409 2.61625C2.4242 2.66292 2.40561 2.70828 2.38704 2.75495L2.6138 2.69922C2.57667 2.62532 2.53823 2.55142 2.49977 2.47752L2.44409 2.61625ZM4.2038 2.58901V2.64347C4.16947 2.63321 4.13306 2.63131 4.09781 2.63794C4.06255 2.64458 4.02951 2.65954 4.00152 2.68153C3.97354 2.70351 3.9515 2.73185 3.93729 2.76409C3.92308 2.79632 3.91714 2.83146 3.92 2.86644C4.14411 2.86644 4.31783 2.76144 4.31783 2.53328H4.2038V2.58901ZM0.740056 2.69922H0.854081C0.823396 2.76234 0.81247 2.8329 0.822612 2.90208C0.832755 2.97126 0.86354 3.03598 0.911126 3.08814C0.847934 3.04561 0.798145 2.98665 0.767445 2.91792C0.736746 2.84919 0.726353 2.77343 0.737401 2.69922H0.740056ZM1.30759 2.81071C1.66166 3.07776 1.54631 3.32018 1.13788 3.25406C1.19225 3.10628 1.24924 2.9585 1.30494 2.81071H1.30759ZM4.40272 2.89368L4.48754 2.97665C4.43052 2.9209 4.37352 2.86645 4.31783 2.81071C4.34302 2.83793 4.37089 2.86645 4.40006 2.89368H4.40272ZM7.01377 2.89368C7.04294 2.9935 7.17551 2.97665 7.26966 2.97665V2.81071H6.98592L7.01377 2.89368ZM6.70212 2.94941C6.70212 3.05053 6.83473 3.0648 6.92888 3.08814C6.96601 2.94294 6.84004 2.882 6.70212 2.86644V2.94941ZM4.26078 3.0596L4.37351 3.19833C4.47827 3.04276 4.29793 2.96757 4.14676 2.9209C4.18256 2.96757 4.21967 3.01423 4.25813 3.0596H4.26078ZM1.70542 3.08814L1.81951 3.30982C1.72005 3.25926 1.61789 3.18277 1.70276 3.08814H1.70542ZM0.740056 4.58677H0.911126V4.69696H0.740056V4.58677ZM1.70542 6.97344H1.81951V7.13938H1.70542V6.97344ZM1.42168 7.02917C1.46544 7.17437 1.48926 7.34939 1.30759 7.36236C1.28918 7.33408 1.27744 7.30218 1.27314 7.26892C1.26885 7.23567 1.27214 7.20191 1.28279 7.17005C1.29344 7.13819 1.31117 7.10903 1.33472 7.08467C1.35827 7.06032 1.38709 7.04136 1.41903 7.02917H1.42168ZM1.53571 8.74949H1.64844V8.91544L1.36729 8.86747C1.37441 8.8309 1.39549 8.79834 1.42628 8.77643C1.45707 8.75452 1.49526 8.74488 1.53305 8.74949H1.53571ZM1.76246 10.9145C2.04492 10.9028 2.16693 11.2139 2.27302 11.4693L2.10324 11.3578V11.5795C1.90566 11.481 2.03033 11.0273 1.76512 10.9145H1.76246ZM1.93217 11.8025H2.04626C2.0277 11.8583 2.00778 11.9127 1.98922 11.9685C1.968 11.9127 1.94947 11.8583 1.92958 11.8025H1.93217ZM0.996013 12.5233L1.02386 12.5791L0.966811 12.4676L0.996013 12.5233ZM2.10324 13.856H2.21597C2.18182 13.9408 2.17447 14.0337 2.1948 14.1226C2.21512 14.2116 2.26217 14.2926 2.33 14.3551L1.76246 14.1892C1.98259 14.1827 2.15496 14.0842 2.10059 13.856H2.10324ZM2.1046 15.6321H2.16165V15.798H1.99058C2.00914 15.7384 2.0303 15.6295 2.10059 15.6321H2.1046ZM1.96273 17.5741L1.99058 17.6298L1.93353 17.5196L1.96273 17.5741ZM1.28111 18.7966L1.30895 18.9081L1.25327 18.6864L1.28111 18.7966ZM1.99058 20.5727H2.16294V20.6841L1.99058 20.5727ZM2.50107 21.1288L2.61516 21.1832L2.55811 21.2947L2.44538 21.239L2.50107 21.1288ZM2.67214 21.239L2.78623 21.2947L2.72918 21.4062C2.70531 21.3492 2.69338 21.2934 2.66819 21.2377L2.67214 21.239ZM2.18949 23.5427L2.27431 23.5699C2.24912 23.684 2.14171 23.6697 2.04756 23.6257C2.0701 23.566 2.0953 23.5077 2.18547 23.5414L2.18949 23.5427ZM1.30895 24.1805V24.2363L1.48002 24.1805L1.30895 24.1261V24.1805ZM1.99058 25.4575L2.04756 25.569H1.93353L1.99058 25.4575ZM1.11133 25.6792L1.0822 25.7349L1.13918 25.6247L1.11133 25.6792ZM1.13918 26.0408V26.1238H1.25327C1.21481 26.0681 1.17631 26.0123 1.13918 25.9566V26.0408ZM1.64973 26.2625L1.76382 26.3455L1.537 26.1796L1.64973 26.2625ZM2.89889 27.2893H3.06996C3.05007 27.345 3.03155 27.4008 3.01298 27.4552C2.97055 27.406 2.9334 27.3437 2.89494 27.288L2.89889 27.2893ZM2.50107 27.7884C2.52096 27.8817 2.53955 27.9738 2.55811 28.0658H2.27431L2.50107 27.7884ZM1.93353 28.7322C1.95342 28.7698 1.97201 28.8061 1.99058 28.8437C1.96803 28.8048 1.94947 28.7685 1.92958 28.7309L1.93353 28.7322ZM1.70678 29.51L1.8208 29.6202L1.64973 29.6759C1.66564 29.6189 1.6842 29.5632 1.70276 29.5087L1.70678 29.51ZM2.21733 30.2878C2.23722 30.3436 2.25575 30.3993 2.27431 30.4538H2.16294L2.21733 30.2878ZM1.56491 30.4823L1.64973 30.5095L1.48002 30.4538L1.56491 30.4823ZM1.537 30.787L1.59275 30.8427L1.48002 30.7312L1.537 30.787ZM0.770553 31.3146C0.590206 31.4974 0.82628 31.5142 0.968171 31.4533L0.855441 31.2316L0.770553 31.3146ZM2.50107 32.786H2.67214V33.0077C2.64414 33.0079 2.61648 33.0018 2.59133 32.9897C2.56618 32.9777 2.54428 32.9601 2.52729 32.9383C2.51031 32.9166 2.49873 32.8912 2.49349 32.8643C2.48826 32.8375 2.4895 32.8097 2.49712 32.7834L2.50107 32.786ZM0.656528 32.9792C0.618072 33.0751 0.728113 33.1607 0.798396 33.2294C0.798396 33.0997 0.819631 32.9234 0.684371 32.8962L0.656528 32.9792ZM1.48002 33.3966H1.64973V33.5068L1.48002 33.3966ZM0.684371 33.8672L0.741351 33.8957L0.628686 33.84L0.684371 33.8672ZM1.59275 33.9515H1.70678C1.66965 34.0811 1.63121 34.2107 1.59275 34.3404C1.56646 34.3406 1.54035 34.3358 1.51596 34.3262C1.49156 34.3166 1.46934 34.3024 1.45056 34.2844C1.43178 34.2664 1.41683 34.245 1.40653 34.2213C1.39623 34.1977 1.39073 34.1723 1.39047 34.1466C1.39021 34.1209 1.39515 34.0954 1.40498 34.0715C1.4148 34.0477 1.4293 34.0259 1.44771 34.0076C1.46612 33.9892 1.48807 33.9746 1.51227 33.9645C1.53646 33.9544 1.56244 33.9491 1.58874 33.9489L1.59275 33.9515ZM12.1536 34.0344C12.4348 34.1109 12.1165 34.26 11.9826 34.3391C11.9176 34.1835 11.9229 33.9709 12.1497 34.0319L12.1536 34.0344ZM13.6017 34.0072H13.6866C13.7198 34.1265 13.5673 34.1498 13.4598 34.1731C13.4797 34.0967 13.501 33.9994 13.5978 34.0046L13.6017 34.0072ZM15.5034 34.0617L15.6174 34.2289H15.3893L15.5034 34.0617ZM18.4844 34.0902L18.5693 34.1174L18.3995 34.0617L18.4844 34.0902ZM6.07884 34.2289L6.24861 34.2846L6.07884 34.3391V34.2289ZM12.7212 34.2846L12.8353 34.3948L12.6071 34.5063C12.639 34.4298 12.6801 34.3559 12.7172 34.2769L12.7212 34.2846ZM4.26214 34.3676L4.31912 34.3948C4.28067 34.3767 4.24223 34.3585 4.2051 34.3391L4.26214 34.3676ZM17.0363 34.3391C17.1249 34.4028 17.2272 34.446 17.3354 34.4653C17.4436 34.4847 17.555 34.4796 17.6609 34.4506C17.7153 34.6204 17.206 34.6878 17.3771 34.8952H17.1477C17.1808 34.8575 17.2045 34.8127 17.2168 34.7644C17.2292 34.7161 17.2299 34.6657 17.2188 34.6171C17.2077 34.5686 17.1852 34.5232 17.1531 34.4846C17.1209 34.446 17.0801 34.4153 17.0337 34.3948V34.5621H16.9196C16.9567 34.4856 16.9938 34.4065 17.0323 34.3365L17.0363 34.3391ZM18.1435 34.4233C18.4764 34.8006 17.6821 35.3308 17.7179 34.5063C17.8677 34.7008 17.9911 34.3974 18.1396 34.4208L18.1435 34.4233ZM3.60836 34.4778C3.0408 34.7008 3.77149 34.9964 4.09107 34.7837C4.0619 34.5361 3.87361 34.426 3.60441 34.4752L3.60836 34.4778ZM5.90783 34.5335C5.99053 34.5526 6.06391 34.5991 6.11562 34.665C6.16733 34.7309 6.19415 34.8122 6.19157 34.8952C6.356 34.7656 6.52577 34.8486 6.64644 35.0055C6.53107 35.0301 6.54431 35.1351 6.58939 35.2271L6.41968 35.2829C6.55229 34.9302 5.685 34.7643 5.85208 35.1727L5.45426 35.0612C5.87595 34.9964 5.30576 34.2691 5.90382 34.5361L5.90783 34.5335ZM7.09995 34.5063L7.32806 34.6165L7.27102 34.728L7.09995 34.5063ZM14.0844 34.5063H14.1401C14.1481 34.671 14.1587 34.8836 13.9704 34.8952C13.9081 34.7591 13.916 34.5361 14.0805 34.5037L14.0844 34.5063ZM15.9582 34.5063H16.0139C16.0497 34.6515 15.9224 34.7332 15.7872 34.7837C15.8216 34.6865 15.876 34.5076 15.9542 34.5037L15.9582 34.5063ZM15.3336 34.728H15.4463L15.3893 34.8395L15.3336 34.728ZM19.3118 34.728L19.4246 34.8952H19.2549C19.2694 34.8369 19.284 34.7812 19.3039 34.7254L19.3118 34.728ZM9.54524 34.7837L9.71631 34.8952H9.54524V34.7837ZM10.7387 34.7837H10.8514V34.8952L10.6817 34.8395C10.6366 35.1299 11.1206 35.0612 11.2493 34.8952L11.3633 35.0612C11.1365 35.1597 10.6406 35.6044 10.7096 35.1999C10.7361 35.0236 10.3966 34.8563 10.7308 34.7811L10.7387 34.7837ZM13.0381 34.7837H13.123V34.9497H12.8963C12.9122 34.8732 12.9334 34.776 13.0368 34.7811L13.0381 34.7837ZM1.76641 34.9497L1.93619 35.0612H1.76512L1.76641 34.9497ZM15.2222 34.9497C15.4344 34.9095 15.3827 35.4177 15.2793 35.4501C15.1135 35.3814 15.1838 35.0988 15.2156 34.9471L15.2222 34.9497ZM1.08485 35.034L1.14183 35.0612L1.02781 35.0055L1.08485 35.034ZM9.37417 35.1169L9.43122 35.2271C9.0135 35.2764 9.04665 34.8499 9.36757 35.1143L9.37417 35.1169ZM14.8244 35.1169L14.9384 35.1727H14.5976C14.652 35.1027 14.7037 35.0547 14.8178 35.1143L14.8244 35.1169ZM10.2547 35.1727H10.3847C10.4231 35.3243 10.1354 35.3023 9.98684 35.3386C10.0505 35.2414 10.1035 35.1636 10.2521 35.1701L10.2547 35.1727ZM14.8814 35.2271C14.8695 35.3176 14.8785 35.4096 14.9079 35.4963C14.9373 35.5829 14.9862 35.6619 15.0511 35.7275C14.8058 35.6186 14.6732 35.4268 14.8748 35.2245L14.8814 35.2271ZM11.2479 35.2829C11.285 35.3023 11.3235 35.3205 11.362 35.3386C11.3129 35.314 11.2784 35.2997 11.2413 35.2803L11.2479 35.2829ZM13.2914 35.2829H13.6323C13.6484 35.3651 13.6411 35.45 13.6112 35.5285C13.5812 35.6069 13.5298 35.6758 13.4625 35.7275L13.2914 35.2829ZM6.59205 35.3658C6.8029 35.3918 6.83207 35.4345 6.8188 35.5603C6.35733 35.2893 5.53118 36.403 5.62533 35.4501C5.9542 35.5409 6.1969 35.2556 6.58544 35.3632L6.59205 35.3658ZM7.21663 35.3386H7.3877C7.41422 35.441 7.31211 35.4825 7.21663 35.5058V35.3386ZM17.8054 35.8377C17.7776 35.9311 17.7484 36.0231 17.7205 36.1151C18.0295 35.9855 18.1449 36.237 18.4022 36.2267L18.3451 35.7833C18.1276 35.865 17.8386 35.8001 18.0614 35.5603C17.9076 35.5434 17.8784 35.594 17.7988 35.8325L17.8054 35.8377ZM4.71831 35.6161L4.88938 35.7275H4.66126L4.71831 35.6161ZM17.5269 35.7275L17.4978 35.7833L17.6118 35.8377C17.5933 35.7833 17.5747 35.7275 17.5548 35.6718L17.5269 35.7275ZM3.13361 35.7275L3.36173 35.9492L3.07793 36.1151L3.13361 35.7275ZM17.3559 35.8662C17.328 35.9959 17.3559 36.0283 17.4421 36.0607C17.4222 35.9492 17.4036 35.8377 17.3851 35.7275C17.3638 35.7703 17.3546 35.817 17.3439 35.8637L17.3559 35.8662ZM3.75819 35.7833C4.2316 35.887 3.98498 36.7789 4.61089 36.7257V36.893C3.98763 36.8321 3.88684 36.18 3.74628 35.7807L3.75819 35.7833ZM4.71831 35.9492L4.88938 36.1709H4.49155L4.71831 35.9492ZM8.97635 35.9765L9.03339 36.005L8.92066 35.9492L8.97635 35.9765ZM9.772 36.0879L9.82904 36.2267C9.79058 36.1346 9.75215 36.0412 9.71502 35.9492C9.72165 35.9933 9.7455 36.0387 9.76539 36.0918L9.772 36.0879ZM16.3295 36.0607L16.3573 36.1151C16.3388 36.0788 16.3202 36.0413 16.3003 36.005C16.3043 36.0205 16.3136 36.0387 16.3228 36.0581L16.3295 36.0607ZM16.6981 36.0607L16.7552 36.1151L16.6411 36.005L16.6981 36.0607ZM2.50903 36.0607C2.52892 36.097 2.54751 36.1346 2.56608 36.1709C2.53558 36.132 2.51701 36.0918 2.49712 36.0581L2.50903 36.0607ZM5.23547 36.1151L5.29115 36.1709L5.17849 36.0607L5.23547 36.1151ZM19.4007 36.1151L19.2588 36.1709C19.402 36.7115 20.1884 35.9129 19.3888 36.1125L19.4007 36.1151ZM6.02982 36.3654L5.97278 36.6156C6.08019 36.4574 6.23003 36.2746 6.19953 36.1151C6.07753 36.1009 6.07354 36.1567 6.01784 36.3628L6.02982 36.3654ZM9.35164 36.1437L9.43653 36.1709L9.26546 36.1151L9.35164 36.1437ZM17.3851 36.1437L17.4421 36.1709L17.328 36.1151L17.3851 36.1437ZM4.27011 36.3939C4.28867 36.4302 4.3072 36.4678 4.32709 36.5041H4.21306L4.27011 36.3939ZM5.68898 36.5326V36.6156H5.86005V36.4483H5.68898V36.5326ZM6.3706 36.5041V36.5598H6.54031V36.4483H6.3706V36.5041ZM3.02095 37.5866L3.07793 37.6138L2.9639 37.5593L3.02095 37.5866ZM1.74258 37.864C1.7081 37.9521 1.76777 37.9768 1.82877 38.0027L1.88581 37.781C1.8089 37.7771 1.75719 37.7771 1.73067 37.8614L1.74258 37.864Z" fill="#F8F963"/>
</g>
<g clip-path="url(#clip1_1762_1548)">
<path d="M50.0083 0.0838902C48.9281 0.093081 47.8743 0.462028 46.9829 0.955705C46.2619 0.845415 44.944 1.11983 43.873 1.01217V1.3496H43.6472V1.01086H43.535V1.17892L42.9685 1.01086C43.0622 1.15266 43.1692 1.3181 43.082 1.4599L43.3078 1.34828C43.4267 1.48746 43.1098 1.59119 42.9685 1.68572C42.8034 1.01348 42.1418 1.22225 42.3465 1.85379L42.1207 1.79732C42.2686 1.6529 42.2013 1.35748 42.1775 1.12245L41.8381 1.23537C41.9609 0.853294 41.574 1.0463 41.4987 1.23537C40.8133 0.695737 39.3238 1.06731 38.5024 0.729878C38.13 1.38636 37.4275 0.107538 36.9758 0.673429V0.392451L36.5797 0.50405C36.8781 1.51766 36.2878 0.22308 36.0712 0.279538C36.0633 0.338482 36.0756 0.398369 36.1063 0.449413C36.137 0.500457 36.1842 0.539621 36.2403 0.560499C35.9682 0.988528 35.856 0.132483 35.4479 0.392451C35.4664 0.317612 35.4862 0.242762 35.5047 0.167922C35.4704 0.444959 35.135 0.269029 35.1086 0.50405C34.9374 0.410899 34.749 0.352997 34.5548 0.333823C34.3606 0.314648 34.1645 0.334596 33.9782 0.392451C34.3889 0.442344 34.4747 1.04106 34.826 1.29183C34.8973 1.00692 35.3423 0.854607 35.3912 1.23537L35.1086 1.17892C35.0478 1.41 35.3014 1.44152 35.5047 1.4599V1.29183C36.5216 1.53736 34.8827 1.65946 35.7305 1.79732C35.5681 1.98245 35.3344 2.20303 35.4479 2.41573C35.8441 2.2608 35.9379 1.77894 36.4093 2.02184L36.1835 2.24768C36.3314 2.3002 36.6166 2.32251 36.5797 2.47219H36.6932C36.2971 1.83278 37.4856 1.97457 37.6546 2.30413C37.9095 2.1794 37.6717 1.77894 37.9372 1.68572L37.8804 2.24768C38.4377 2.1387 38.4826 2.49976 38.6727 2.86608C38.9936 2.52209 39.5377 2.77024 39.8612 2.86608C39.7292 2.78731 39.7675 2.61662 39.8044 2.47219C40.0963 2.7466 40.5545 2.81882 40.9929 2.86608C40.9744 2.75317 40.9546 2.64026 40.9361 2.52866C41.4723 2.70066 41.6374 2.29231 41.2755 1.91024C41.5727 2.07567 42.0098 2.20434 42.2937 2.41573C42.3386 2.08748 42.7228 1.98114 42.6898 1.68572H42.8602C42.8602 1.9365 43.4109 1.89711 43.2564 2.30413C43.4201 2.22798 43.7449 2.17283 43.7093 2.02184H43.4835C43.5706 1.40605 44.0671 2.52734 44.3312 2.58511C44.0486 2.62975 43.7199 2.29232 43.4267 2.35928L43.7661 2.64026C43.5165 2.63369 43.1982 2.61005 43.1441 2.86608C43.4082 2.70196 43.9853 2.82669 44.388 2.86608C44.256 2.43149 44.6891 1.86823 44.8965 2.47219H44.5003V2.58511C44.8304 2.59561 45.088 3.14575 45.4049 2.64026H45.0668C45.0312 2.50896 45.2728 2.43412 45.4049 2.35928C45.2279 1.76844 46.2394 1.947 46.0836 2.47219H46.3094C46.3464 2.635 45.9793 2.64156 45.801 2.69671C45.8209 2.55753 45.7812 2.43411 45.632 2.41573C45.591 2.82406 46.1285 2.75448 46.4798 2.75317V3.0906L46.7624 3.03415C46.7001 2.9907 46.6512 2.93078 46.6214 2.86118C46.5915 2.79157 46.5818 2.71505 46.5934 2.64026H46.4705C46.4956 2.47614 47.3949 2.43018 47.1493 2.75317L47.4887 2.64026L47.5441 2.97768L47.7713 2.92255C47.8452 3.8587 48.3167 3.12999 48.8449 3.25866L48.6191 3.70902C49.1684 3.73659 48.9043 4.43246 48.4487 4.10291C48.8911 4.37994 48.3088 4.62809 48.3074 4.91694C48.4104 5.13752 48.5425 5.24781 48.3933 5.50778L48.9017 5.45131V5.67584H48.4514C48.3576 5.93844 48.668 5.96338 48.6785 6.12618H48.4514C48.5504 6.41898 48.2533 6.68158 48.3391 7.02558L48.7353 6.80105V7.08203H48.3972C48.41 7.12369 48.4121 7.16786 48.4034 7.21055C48.3948 7.25325 48.3756 7.29312 48.3475 7.32659C48.3195 7.36006 48.2836 7.38608 48.2429 7.40229C48.2022 7.4185 48.1582 7.42441 48.1146 7.41947C48.2467 7.69388 48.3787 7.99192 48.2836 8.26239L48.5663 8.09301V8.4869C48.1292 8.37399 48.0882 8.98452 48.3972 9.16177H48.1701V9.44275H48.3972C48.4302 9.58718 48.1476 9.68434 48.001 9.78019C48.0789 10.1216 48.4738 10.2765 48.5663 10.4551C47.8954 10.2371 48.0842 10.7176 47.6617 11.017L48.001 11.3544C47.8386 11.4595 47.8994 11.8376 47.8875 12.0844H47.7185C47.7871 12.2302 47.906 12.4166 47.8875 12.5348H47.7185C47.9245 12.8328 47.9033 13.232 48.2836 13.3777C48.1344 13.5602 47.9403 13.6981 47.7185 13.6022C47.7656 13.6552 47.796 13.7208 47.8061 13.7907C47.8162 13.8607 47.8054 13.9321 47.7752 13.9961H48.4514V14.2207C48.3787 14.1732 48.2936 14.148 48.2067 14.1484C48.1197 14.1487 48.0348 14.1745 47.9625 14.2226C47.8903 14.2706 47.8338 14.3388 47.8002 14.4185C47.7667 14.4983 47.7576 14.5861 47.7739 14.671L48.0565 14.5581C48.0393 14.8404 46.8958 15.5586 47.8862 15.3459C47.9575 15.598 47.9733 15.9945 47.6603 16.0759L47.7739 16.2453H47.4913V16.4133L47.7739 16.3004C47.8241 16.6024 47.0239 17.0619 47.6036 17.3692C47.5773 17.3619 47.5497 17.3608 47.523 17.3658C47.4962 17.3708 47.471 17.3819 47.4491 17.3981C47.4273 17.4143 47.4096 17.4353 47.3972 17.4594C47.3849 17.4835 47.3782 17.5101 47.3778 17.5372C47.6128 17.4059 47.8967 17.2431 47.8294 16.9753C48.1318 17.1066 47.6141 17.939 47.4913 18.2121H47.8875C47.9311 18.606 47.5996 18.5731 47.4359 18.8305C47.6287 18.7806 47.832 18.7727 47.9443 18.9434C47.8043 19.1101 47.6181 19.269 47.4359 19.1115L47.4927 19.336H47.2629L47.5455 19.617C47.9971 18.9894 47.8188 20.0109 47.7726 20.3483C47.2338 20.175 47.6749 20.9076 47.9984 20.6857V20.9102C47.3791 20.8131 47.5547 21.2739 48.0552 21.1912C48.1107 21.4065 47.7475 21.4184 47.5455 21.4722C47.5838 21.5851 47.6207 21.698 47.659 21.8096C47.6318 21.8101 47.605 21.8167 47.5808 21.829C47.5565 21.8413 47.5354 21.859 47.5191 21.8806C47.5028 21.9023 47.4917 21.9274 47.4866 21.954C47.4816 21.9806 47.4828 22.008 47.49 22.0341L48.0552 21.979C48.1041 22.2311 47.6234 22.2206 47.6022 22.4845C47.7343 22.4477 47.7462 22.646 47.7726 22.7655L48.0552 22.709C47.9799 22.8403 47.9046 22.9716 47.828 23.1029C48.2004 23.2066 48.3219 23.6465 47.828 23.4968V23.7778H47.6022C47.7422 23.9432 47.9311 24.7428 47.5455 24.6772C47.5006 24.991 47.6986 24.9791 47.828 24.7336L48.0552 25.0146C47.9403 25.1682 47.6709 25.0408 47.5455 25.1262C47.5891 25.419 47.2589 25.9941 47.828 25.8011L47.4319 26.082C47.5943 26.1569 47.9205 26.2133 47.8835 26.363C47.2721 26.1661 47.42 27.4134 47.8267 27.4318C47.5098 27.6143 47.9786 28.7815 47.4887 28.6686C47.4451 28.8393 47.8558 28.8524 47.7713 29.0625H47.4887C47.4293 29.4734 48.0354 29.652 47.7713 30.0748L47.6009 30.0183V30.2428C47.9113 30.0827 48.0843 30.7785 47.7713 30.8612C47.8598 31.0096 47.9482 31.5243 47.7713 31.7055L47.9403 31.8171C47.9403 31.6149 48.1067 31.5834 48.2797 31.649C47.7779 31.7934 48.0697 32.207 47.8267 32.492L47.9971 32.5484C47.9377 31.9668 48.4012 32.3515 48.2229 32.7165H48.4514V32.8294C48.1159 32.8294 47.8795 33.1445 47.9429 33.5042H48.3391C48.293 33.5082 48.2483 33.522 48.2081 33.5448C48.1679 33.5676 48.1332 33.5989 48.1063 33.6363C48.0795 33.6738 48.0611 33.7166 48.0525 33.7618C48.0439 33.807 48.0452 33.8535 48.0565 33.8981C48.1965 33.8089 48.2902 33.9283 48.3391 34.0675C48.1701 34.1607 47.9654 34.271 47.8294 34.124V34.3485C48.1569 34.1857 48.2374 34.8606 48.5649 34.854C48.3708 34.833 48.0697 34.7463 48.0565 34.9669H48.2824V35.135L47.9997 35.0785C48.0301 35.735 47.0331 34.9984 47.152 35.6418C46.1655 35.3267 45.2741 35.5866 44.0988 35.4724V35.5853L43.7027 35.4724C43.6538 35.6917 43.5786 35.9228 43.3633 35.9779C43.5271 35.7284 43.1744 35.3989 43.0239 35.6969C43.288 35.7678 43.3316 36.016 43.0239 36.0343C43.1177 36.1656 43.1322 36.3114 42.9672 36.3718H43.2497L43.1943 36.5963C43.6789 36.4309 43.6049 36.3337 43.9866 36.7092C43.9297 36.8188 43.91 36.9438 43.9305 37.0654C43.951 37.1871 44.0105 37.2989 44.1001 37.3841L43.9298 37.4405C43.9681 37.4957 44.0051 37.5521 44.0434 37.6086C44.1134 37.4274 44.3511 37.4064 44.5518 37.3841C44.4198 37.1123 44.7274 37.0388 44.6654 36.7657H44.7776V36.8773H44.948C44.9097 37.0466 44.8727 37.2147 44.8344 37.3841C45.0985 37.3027 45.3204 36.5595 45.57 37.1031H45.2821C45.2451 37.2501 45.3705 37.3119 45.5079 37.3276C45.3758 37.5351 45.6703 37.7439 45.8472 37.7215V37.4405L46.0163 37.4957L46.0731 37.3276C46.394 37.4038 46.7809 37.5692 47.0912 37.6651C47.0727 37.5521 47.0529 37.4406 47.0344 37.3276C47.4028 37.2462 47.5494 37.5548 47.8822 37.4405V37.5522C48.2097 37.5889 48.347 37.2213 48.73 37.3276V37.4405C48.9545 37.388 49.4642 37.367 49.0694 37.6086L49.4088 37.7215C49.4325 37.2187 50.3331 35.9556 49.5223 35.6418L49.7481 35.4159C49.3665 35.1534 50.0928 33.6001 49.2397 33.7865C49.6042 33.5423 49.8406 32.937 49.4088 32.6049C49.7138 32.4486 49.6187 31.7212 49.2965 31.649C49.4933 31.4836 49.179 31.091 49.5223 31.0306C49.3902 30.8993 49.4325 30.6669 49.4656 30.4687L49.2397 30.5238C49.3071 30.2612 49.4893 29.8555 49.1829 29.7938C49.3612 29.4642 49.1195 28.9036 49.3519 28.5005L49.1261 28.4441C49.2886 28.2642 49.3242 27.9491 49.0139 27.995V27.8257L49.2965 27.9386C49.1724 27.1823 49.3546 25.9967 49.0139 25.2969L49.2397 25.1275L48.7868 25.0159C48.8687 24.8452 48.9915 24.6903 49.1829 24.7349C49.105 24.513 49.0232 24.2294 48.7868 24.2281C49.0166 24.2281 49.0509 23.9865 49.0694 23.7791C48.9492 23.9603 48.7419 23.7174 48.561 23.8355C48.3286 23.2828 49.3744 23.2394 48.8436 22.8232L49.0694 22.6539C48.8674 22.7418 48.7155 22.6407 48.6732 22.4293L48.9558 22.4858C48.9928 22.2981 49.0311 22.1116 49.068 21.9239H48.5596V21.6993C48.9439 21.9619 49.3995 21.5063 48.7854 21.5864C48.7669 21.4932 48.7485 21.3987 48.7287 21.3054C49.4748 21.5431 48.936 20.6161 49.1816 20.2367H49.068C49.0984 19.8218 49.1196 19.4332 49.2952 19.055C49.0852 18.5968 49.2226 18.3644 48.6164 18.2672C49.8366 18.2489 48.8066 17.2405 49.2384 16.8059C49.1222 16.7324 48.9043 16.647 49.0126 16.5249C49.4576 16.8046 49.3308 15.9131 49.3507 15.5691L49.1248 15.6807C49.3124 15.3984 49.5025 15.0242 49.1248 14.8378C49.4576 14.7629 49.4563 14.4531 49.3507 14.1629C49.1301 14.1629 49.0086 14.411 48.899 14.6132C48.8607 14.4819 48.8237 14.3506 48.7854 14.2193C49.1142 14.2692 49.2318 13.916 49.5778 13.8254C49.3942 13.8359 49.1909 13.8255 49.1248 13.6561H49.3507C49.7838 12.9786 49.4708 11.5803 49.69 11.0144C49.4008 10.3828 50.1707 9.36135 49.69 8.98978C50.0003 8.6983 49.9304 8.23088 49.9726 7.80811H49.6398C49.6417 7.69354 49.6603 7.57984 49.6953 7.47066L50.0347 7.58359C49.9462 7.34201 50.0585 7.02295 50.1483 6.74066C49.6201 6.67633 50.3939 6.27455 50.205 5.89773L50.0347 5.95288C50.0162 5.84128 49.9977 5.72835 49.9779 5.61675C50.6527 5.85046 50.3437 4.71344 50.3741 4.37994H50.4876C50.2314 3.86526 50.9208 3.18646 50.4876 2.69278C50.9155 2.87791 50.6844 2.25293 50.6567 1.96276C51.0608 2.13082 50.9921 1.53211 50.996 1.23144C50.7161 1.36274 50.6844 0.746949 50.4876 0.7824C50.5074 0.641912 50.4678 0.519802 50.3173 0.500108C50.6342 0.267712 50.4097 -0.187895 50.0083 0.0838902ZM49.1037 0.280836H49.2437V0.561813H48.7907C48.866 0.437081 48.9452 0.272958 49.1037 0.280836ZM35.3925 0.450214C35.4308 0.505359 35.4678 0.56182 35.5061 0.618278H35.3925V0.450214ZM38.3043 0.674727L38.3333 0.731192C38.3135 0.693116 38.2951 0.656354 38.2766 0.618278L38.3043 0.674727ZM34.8273 0.674727C34.8656 0.731185 34.9026 0.787646 34.9409 0.842791H34.8273V0.674727ZM42.4865 1.03974C42.4521 1.12902 42.5115 1.15397 42.5723 1.18023L42.6845 0.955705C42.608 0.954392 42.5089 0.945203 42.4878 1.03974H42.4865ZM49.3533 0.955705L49.5237 1.01217L49.3533 1.06862V0.955705ZM48.561 1.01217C48.7155 0.997727 48.8884 1.01217 48.9003 1.18023L48.561 1.01217ZM35.444 1.06862H35.5575C35.5377 1.10538 35.5193 1.14347 35.5008 1.18023L35.444 1.06862ZM39.6842 1.18023C39.9127 1.55706 40.8067 1.11195 40.9282 1.51766L41.2108 1.3496C41.2821 1.5426 41.7272 1.65028 41.8896 1.46121C41.9081 1.51767 41.9266 1.57412 41.9464 1.63057C41.3825 1.75137 40.7579 1.85115 40.3617 1.51766C40.3234 1.64896 40.2864 1.78025 40.2481 1.91155C40.3457 1.89799 40.4452 1.91183 40.5352 1.95151C40.6253 1.99118 40.7024 2.0551 40.7579 2.13606C40.61 2.04153 40.4727 2.18202 40.3617 2.30544C40.5426 2.23586 40.7077 2.27919 40.7579 2.47351H40.3617V2.30544L40.0223 2.41704L40.0791 2.02315L40.3049 2.07962C40.363 1.75662 39.8718 1.7343 39.9656 1.40606C39.8335 1.5111 39.5667 1.33254 39.6895 1.18023H39.6842ZM50.4837 1.18023L50.596 1.29315H50.4322L50.4837 1.18023ZM45.7905 1.23668L45.9608 1.29315C45.9344 1.39687 45.8287 1.41788 45.7337 1.40606C45.7588 1.3496 45.7773 1.29314 45.7958 1.23668H45.7905ZM47.0621 1.32071C47.4293 1.42444 46.9842 1.50716 46.8086 1.51766C46.8667 1.40474 46.9129 1.28133 47.0674 1.32071H47.0621ZM35.9524 1.40606L36.3486 1.46121L35.9524 1.57412V1.40606ZM47.7132 1.40606C47.7317 1.44282 47.7501 1.4809 47.7699 1.51766C47.7554 1.4809 47.737 1.44282 47.7185 1.40475L47.7132 1.40606ZM36.6312 1.49009L36.7447 1.51766L36.6312 1.74217L36.4053 1.57412C36.4713 1.50848 36.5228 1.45727 36.6364 1.49009H36.6312ZM45.3943 1.49009L45.4511 1.51766C45.319 1.60169 45.1869 1.70542 45.2252 1.8551H45.0562C45.0034 1.61877 45.1711 1.40475 45.3996 1.49009H45.3943ZM48.2995 1.46121H48.3853V1.57412L48.6111 1.51766C48.6296 1.63058 48.6481 1.74219 48.6679 1.8551L48.046 1.74217C48.1226 1.63845 48.207 1.4599 48.3114 1.46121H48.2995ZM46.1866 1.51766H46.2434V1.74217L46.0163 1.68704C46.0665 1.62139 46.1233 1.51503 46.1919 1.51766H46.1866ZM38.1577 1.57412C38.1762 1.6122 38.196 1.64896 38.2145 1.68704C38.2013 1.64896 38.1815 1.6122 38.163 1.57412H38.1577ZM35.2459 1.68704C35.2552 1.70542 35.2644 1.72379 35.275 1.74217L35.3872 1.68704L35.2182 1.63057L35.2459 1.68704ZM44.8291 1.63057L44.9427 1.79864L44.7723 1.74217C44.7974 1.70541 44.8159 1.66734 44.8344 1.63057H44.8291ZM48.9003 1.63057L48.9571 1.79864H48.7868L48.9003 1.63057ZM37.479 1.68704L37.5925 1.79864H37.4235L37.479 1.68704ZM46.4415 1.77107L46.5828 1.79864C46.5291 1.86273 46.4563 1.90821 46.3749 1.92851C46.2934 1.9488 46.2076 1.94286 46.1298 1.91155C46.2196 1.82227 46.3002 1.73431 46.4467 1.77107H46.4415ZM47.4874 1.74217L47.7132 1.8551L47.3738 2.07962C47.416 1.96801 47.4544 1.85509 47.4927 1.74217H47.4874ZM37.5925 1.8551L37.6493 2.02315L37.3667 1.96802L37.5925 1.8551ZM46.526 1.8551L46.7518 1.96802H46.4705L46.526 1.8551ZM38.4971 1.91155H38.95C38.983 2.03234 38.8312 2.05598 38.7229 2.07962L38.8933 2.36059C38.6991 2.41311 38.6041 2.09537 38.5024 1.91155H38.4971ZM39.2894 1.91155H39.403C39.3845 1.94831 39.366 1.98639 39.3462 2.02315C39.3316 1.98639 39.3132 1.94831 39.2934 1.91155H39.2894ZM42.7677 2.07962C42.4957 2.29494 42.2831 2.67964 41.8341 2.58642C41.9186 2.79387 41.8235 2.98951 41.6651 3.14838H41.9477C41.9279 3.07354 41.9094 2.99869 41.8909 2.92385L42.1735 2.8674C42.155 2.81094 42.1352 2.75448 42.1167 2.69802C42.3214 2.79255 42.3517 2.99606 42.287 3.20482C42.4521 3.11948 42.6462 3.00263 42.7955 3.09191C42.1682 2.85689 42.6766 2.08356 42.909 2.75448C42.9592 2.53259 43.3726 1.88135 42.8523 2.19253C42.8338 2.11769 42.8139 2.04286 42.7955 1.96802L42.7677 2.07962ZM45.1698 2.02315L45.2833 2.13606H45.1698V2.36059C45.0377 2.34484 44.9057 2.28312 44.944 2.13606H45.1698V2.02315ZM47.2616 2.02315H47.3183C47.3064 2.19384 47.1335 2.20566 46.979 2.19253C47.0674 2.13082 47.1955 2.02315 47.2629 2.02315H47.2616ZM39.6024 2.13606H39.7437C39.7714 2.46168 39.465 2.50633 39.1785 2.47351C39.296 2.33564 39.4413 2.12819 39.6037 2.13606H39.6024ZM49.2424 2.13606C49.2609 2.17414 49.2793 2.21092 49.2991 2.24899H49.1856L49.2424 2.13606ZM37.199 2.24899C37.0815 2.30151 37.0815 2.38029 37.0867 2.47351H37.5384C37.5212 2.28444 37.401 2.13477 37.2016 2.24899H37.199ZM37.7642 2.38947C37.7642 2.49583 37.5859 2.65207 37.4816 2.75448C37.7206 2.61498 37.9985 2.55602 38.2739 2.58642V2.47351H37.9345V2.30544H37.7642V2.38947ZM46.9288 2.30544C46.9671 2.36059 47.0054 2.41705 47.0423 2.47351H46.8667L46.9288 2.30544ZM47.3817 2.41704C47.4002 2.4735 47.4187 2.52996 47.4385 2.58642H47.2113L47.3817 2.41704ZM48.2863 2.47351H48.5121C48.4936 2.52996 48.4751 2.58643 48.4553 2.64157C48.4826 2.6387 48.5102 2.64213 48.5359 2.65159C48.5616 2.66105 48.5848 2.67627 48.6037 2.6961C48.6225 2.71592 48.6364 2.73979 48.6445 2.76586C48.6525 2.79194 48.6544 2.8195 48.65 2.84642C48.6456 2.87333 48.635 2.89887 48.619 2.92104C48.603 2.94321 48.5821 2.96142 48.5579 2.97425C48.5337 2.98708 48.5069 2.99418 48.4795 2.99501C48.4521 2.99583 48.4248 2.99035 48.3998 2.979C48.4857 2.83063 48.3695 2.63763 48.2836 2.47351H48.2863ZM38.307 2.75448L38.336 2.81093C38.3162 2.77286 38.2977 2.7361 38.2792 2.69802L38.307 2.75448ZM41.3033 2.81093C41.265 2.94223 41.4076 3.05515 41.5013 3.14838C41.5396 2.9987 41.5766 2.8477 41.6149 2.69802C41.4947 2.69802 41.3284 2.6757 41.3006 2.81093H41.3033ZM46.0242 2.83852V2.92385H46.1378V2.75448H46.0242V2.83852ZM46.8165 2.83852L46.8733 2.8674L46.7597 2.81093L46.8165 2.83852ZM45.7984 2.979L45.8551 3.03546L45.7416 2.92385L45.7984 2.979ZM48.9677 3.37289H49.1367V3.54095H48.9677V3.37289ZM49.76 3.40046L49.8168 3.42935L49.591 3.54095C49.6266 3.48056 49.6821 3.36501 49.7534 3.40046H49.76ZM49.4774 4.38518H49.5342V4.55588H49.3639C49.3758 4.48891 49.4009 4.38256 49.4708 4.38518H49.4774ZM48.7986 4.60971L48.969 4.66616L48.9123 4.83423L48.7986 4.60971ZM47.9799 5.14408L48.0077 5.22812L47.9509 5.05874C47.9535 5.08762 47.9627 5.1152 47.9733 5.14408H47.9799ZM47.9231 5.56554L47.9509 5.62201C47.9324 5.58393 47.9139 5.54717 47.8941 5.50909L47.9231 5.56554ZM49.562 5.70604C49.7257 5.72967 49.7059 5.88854 49.7032 6.01458L49.3071 5.95814C49.3493 5.83603 49.3929 5.66534 49.5553 5.70604H49.562ZM48.8555 6.40848C48.8739 6.52139 48.8938 6.633 48.9123 6.74592C48.7762 6.65664 48.7274 6.52533 48.8475 6.40848H48.8555ZM48.1199 6.99931V7.08334C48.2243 7.1096 48.2665 7.00981 48.2889 6.91397H48.1199V6.99931ZM49.4193 9.16308L49.5329 9.276L49.3071 9.33115L49.4193 9.16308ZM47.4979 9.58456L47.5534 9.66858L47.4412 9.50053L47.4979 9.58456ZM47.865 9.83795C47.8928 9.89441 47.9218 9.94956 47.9496 10.006C47.9628 9.8524 47.9495 9.68171 47.7805 9.66858C47.803 9.72503 47.8307 9.7815 47.8598 9.83795H47.865ZM48.1754 10.5115L48.2889 10.6809H48.1754V10.5115ZM47.074 10.8214C47.0846 10.8489 47.0938 10.8778 47.1031 10.9054C47.0846 10.8489 47.0648 10.7938 47.0463 10.7373L47.074 10.8214ZM47.2153 11.1299V11.3558H47.3857V10.9054H47.2153V11.1299ZM46.9895 12.0293L46.9327 12.1422L47.1599 12.0293L47.0463 11.9177C47.0212 11.9545 46.9987 11.9925 46.9829 12.0293H46.9895ZM48.318 12.1146L48.4038 12.1422L48.0644 12.4232C48.0261 12.2604 48.1252 12.0569 48.3114 12.1146H48.318ZM48.6296 12.0858C48.6481 12.1238 48.6666 12.1606 48.6864 12.1987C48.66 12.1606 48.6415 12.1238 48.623 12.0858H48.6296ZM47.1599 12.7042L47.2153 12.7606L47.1031 12.6477L47.1599 12.7042ZM47.5838 12.9011L47.6683 13.0416C47.758 12.9011 47.6379 12.8092 47.4992 12.7606L47.5838 12.9011ZM48.6296 12.9287C48.6439 12.981 48.646 13.0359 48.6357 13.0892C48.6254 13.1425 48.6031 13.1927 48.5704 13.2361C48.5377 13.2795 48.4954 13.315 48.4469 13.3397C48.3984 13.3645 48.3448 13.3779 48.2902 13.379L48.347 12.9851L48.5161 13.0981L48.6296 12.9287ZM48.2625 15.0649C48.5108 15.2382 47.8281 15.2986 47.7819 15.1778C47.9232 15.1174 48.149 14.9927 48.2559 15.0596L48.2625 15.0649ZM46.9314 15.3748V15.4588H47.045C47.008 15.4023 46.9697 15.3472 46.9314 15.2907V15.3748ZM48.7419 15.6846C48.7683 15.6777 48.7959 15.6768 48.8228 15.682C48.8496 15.6872 48.8749 15.6983 48.8967 15.7146C48.9186 15.7309 48.9364 15.7519 48.9489 15.7761C48.9615 15.8002 48.9683 15.8268 48.969 15.854L48.7419 15.9104V15.6846ZM48.969 16.022L49.1948 16.0785L49.0813 16.4159C49.0377 16.2833 48.9994 16.152 48.9624 16.0207L48.969 16.022ZM46.7069 16.9503L46.7637 16.9779L46.6501 16.9214L46.7069 16.9503ZM48.8555 17.2589L49.1381 17.3718H48.8475L48.8555 17.2589ZM48.0077 17.6528H48.2335V17.7657L48.0077 17.6528ZM47.2444 18.1582C47.2351 18.1779 47.2259 18.1963 47.2153 18.2147L47.3857 18.2712L47.2721 18.1018L47.2444 18.1582ZM47.9509 18.6651H48.1212V18.946C47.9786 18.9802 47.9707 18.7832 47.9443 18.6637L47.9509 18.6651ZM48.2335 19.227H48.347C48.3087 19.3767 48.2718 19.5264 48.2335 19.6761C47.976 19.655 48.0023 19.248 48.2268 19.2257L48.2335 19.227ZM46.8482 19.6761L46.8205 19.7325H46.9327L46.8773 19.6196L46.8482 19.6761ZM48.7419 19.7325L49.0258 19.8454L48.7419 19.957V19.7325ZM47.3857 19.957V20.0135H47.5547L47.3857 19.9006V19.957ZM47.9509 19.957C48.1212 20.0095 48.3312 20.0634 48.347 20.238L48.0077 20.3509C47.9826 20.2183 47.9628 20.087 47.9443 19.9557L47.9509 19.957ZM48.8277 20.1829L48.969 20.238L48.6296 20.3509C48.5372 20.1802 48.6177 20.0844 48.8211 20.1802L48.8277 20.1829ZM48.0077 20.519L48.1767 20.6319H48.0077V20.519ZM48.5728 20.8013L48.7419 20.8564L48.6864 21.0258L48.5161 20.9693C48.5293 20.9116 48.5478 20.8551 48.5663 20.7999L48.5728 20.8013ZM47.8373 22.3768C47.9786 22.3571 48.1014 22.3965 48.1212 22.5462L47.8941 22.6027L47.8373 22.3768ZM48.4593 23.4456C48.6072 23.7436 48.2163 23.825 47.9509 23.8946C47.9139 23.7305 48.2546 23.7633 48.1767 23.5572L48.347 23.6701L48.4593 23.4456ZM47.527 23.5861L47.5547 23.6701L47.4992 23.502L47.527 23.5861ZM48.6864 24.345L48.9123 24.513C48.8853 24.5216 48.8566 24.5236 48.8287 24.519C48.8008 24.5144 48.7744 24.5032 48.7516 24.4863C48.7289 24.4695 48.7105 24.4476 48.6981 24.4223C48.6856 24.397 48.6793 24.3692 48.6798 24.341L48.6864 24.345ZM48.347 24.5695L48.4593 24.6824L48.2902 24.7389C48.3021 24.6785 48.3193 24.622 48.3405 24.5656L48.347 24.5695ZM48.9123 25.4124H48.969V25.6382L48.7419 25.5818C48.7802 25.5122 48.8369 25.4072 48.9056 25.4085L48.9123 25.4124ZM48.2902 25.9744H48.4038C48.4527 26.1595 48.2255 26.1779 48.0644 26.2002C48.1067 26.0952 48.1569 25.9639 48.2836 25.9704L48.2902 25.9744ZM48.9123 26.0308L49.0813 26.1437L48.8475 26.4825C48.8026 26.3157 48.7894 26.1451 48.9056 26.0269L48.9123 26.0308ZM48.7986 28.2799L48.9123 28.5045C48.8093 28.4519 48.7076 28.3719 48.7921 28.276L48.7986 28.2799ZM46.8482 29.01C46.8574 29.0296 46.8667 29.048 46.8773 29.0664L46.9327 28.9548H46.8205L46.8482 29.01ZM47.0463 29.01C47.0648 29.0296 47.0846 29.048 47.1031 29.0664L46.9895 28.9548L47.0463 29.01ZM48.0644 29.1793L48.1767 29.4038L47.9509 29.2922C47.9826 29.2502 48.0195 29.2122 48.0552 29.1754L48.0644 29.1793ZM48.1767 30.3032C48.1965 30.3413 48.215 30.3781 48.2335 30.4161C48.2084 30.3741 48.1873 30.3374 48.1701 30.2993L48.1767 30.3032ZM49.0813 30.5278H49.1948V30.6971L49.0813 30.5278ZM48.0077 30.8087H48.347C48.3853 30.9545 48.141 30.9492 48.0077 30.9781V30.8087ZM49.0258 31.0346L49.1948 31.091L49.0258 31.1462V31.0346ZM47.2444 31.7646L47.2721 31.821C47.2536 31.7843 47.2352 31.7462 47.2153 31.7094L47.2444 31.7646ZM49.2516 32.5523C49.2701 32.5891 49.2886 32.6272 49.3084 32.664H49.1948L49.2516 32.5523ZM47.4424 34.0137V34.0701H47.6115L47.4424 33.9572V34.0137ZM49.3639 35.0811H49.4774V35.2505L49.3639 35.0811ZM39.2723 35.6444C39.0966 35.7087 39.0636 36.0488 39.0174 36.2628H39.1309V36.4309H39.4136C39.3766 36.318 39.3383 36.2063 39.3 36.0934C39.6645 36.0632 39.8705 36.5595 39.5839 36.8248C39.3356 36.6462 38.7071 36.3337 38.509 36.5989C38.7467 36.5123 38.8074 36.8983 39.0174 36.7683V36.8799H38.8483V37.0493C39.9166 37.0151 41.0722 37.6782 39.922 36.2064L40.2059 35.756L39.8097 35.6444C39.8201 35.6783 39.822 35.7142 39.8153 35.749C39.8086 35.7838 39.7935 35.8164 39.7713 35.8441C39.749 35.8717 39.7204 35.8936 39.6877 35.9078C39.6551 35.9219 39.6194 35.928 39.5839 35.9254C39.6037 35.7232 39.4941 35.542 39.2656 35.6405L39.2723 35.6444ZM41.1949 35.8965C41.1804 36.2011 41.1157 36.3954 41.393 36.3744C41.3072 36.1223 41.4076 35.8689 41.5621 35.6444L41.2227 35.588L41.1949 35.8965ZM41.6466 35.6444C41.6162 35.7258 41.8103 35.8098 41.9014 35.8689L41.7879 36.037H42.1841C42.1656 35.9621 42.1457 35.8873 42.1272 35.8125H42.2409C42.3558 35.5971 41.6822 35.5617 41.64 35.6405L41.6466 35.6444ZM42.3253 35.6444L42.2976 35.6995L42.4667 35.756V35.588C42.4046 35.5814 42.3465 35.5774 42.3188 35.6405L42.3253 35.6444ZM35.2578 35.6995L35.1733 35.756L35.4559 35.9254C35.2868 36.1617 35.0967 35.9674 35.0042 35.756C34.8484 35.9372 34.6292 35.8873 34.4377 35.756V36.037C33.8871 35.8453 33.6071 35.7297 33.1661 36.1499C32.7844 35.9451 32.4516 36.0278 32.7699 36.4598C32.997 36.5136 33.2334 36.335 33.5331 36.4873C33.4962 36.6554 33.4579 36.8248 33.4209 36.9928C34.5698 36.9692 34.2264 37.3316 33.7603 38.0051H34.0429V37.7242C34.1948 37.841 34.6464 37.8725 34.7203 37.6677L34.8339 37.8357C34.8701 37.7801 34.9207 37.7351 34.9804 37.7056C35.0401 37.676 35.1068 37.6629 35.1733 37.6677V37.8357C35.9115 37.5915 34.8537 37.2567 34.6081 37.1622C34.9078 36.9548 34.9699 36.6147 34.8907 36.2628L35.2869 36.3744V36.1985C35.5813 36.3416 35.9471 35.605 36.3036 35.9175V35.6917L35.4559 35.8046V35.6365C35.4187 35.6314 35.3808 35.634 35.3447 35.6442C35.3086 35.6544 35.2749 35.6719 35.2459 35.6956L35.2578 35.6995ZM36.3882 35.8125C36.445 36.0409 36.0078 36.2602 35.852 36.1499C35.9141 36.2969 35.6936 36.377 35.7107 36.4873C36.0369 36.4138 36.2165 36.7723 36.5862 36.7683C36.4542 36.5188 36.816 36.4479 37.0392 36.3744L37.096 36.5438C36.9573 36.5595 36.8319 36.6213 36.8689 36.7683H37.1515L37.0947 36.5924H37.3773C37.3575 36.7237 37.339 36.855 37.3205 36.9863C36.7051 36.8024 36.8913 37.3657 37.3773 37.3801C37.1132 37.669 36.3565 37.2922 36.3592 37.7176C36.5731 37.6427 36.7632 37.6966 36.7553 37.9421C36.7289 37.6795 37.3482 37.8187 37.2637 37.5482C37.57 37.6336 38.225 37.8686 38.056 37.3801L38.3941 37.4366C38.3295 37.3965 38.2822 37.334 38.2615 37.2612C38.2407 37.1884 38.248 37.1105 38.2819 37.0427H37.9425C38.0296 36.8681 37.9213 36.7118 37.7721 36.5924C37.9543 36.5805 37.9293 36.4033 37.8857 36.2562H38.1115C38.0323 35.3582 38.9038 36.4545 38.847 35.6378C38.4905 35.5591 38.1868 35.7691 37.9425 35.8623V35.6378C37.7153 35.6733 37.3086 35.6378 37.2637 35.8059C37.1184 35.5984 36.5401 35.8335 36.3592 35.6378L36.3882 35.8125ZM40.746 35.8689C40.8331 36.0002 41.0193 35.9832 41.1699 35.9805C41.1012 35.8007 40.8622 35.7796 40.6614 35.756L40.746 35.8689ZM42.5274 35.84C42.4838 35.9805 42.221 35.9937 42.2448 36.2064C42.431 36.1775 42.7532 36.1919 42.6964 35.9805L42.979 36.037C42.8655 35.8742 42.7229 35.714 42.5274 35.756V35.84ZM37.4393 35.8125H37.4948V35.9805L37.6651 35.9254V36.1499C37.4327 36.1656 37.199 36.142 37.0432 35.9805C37.1639 35.9063 37.2934 35.8471 37.4287 35.8046L37.4393 35.8125ZM40.4356 36.0094L40.3789 36.0934C40.9837 36.4033 41.2333 36.3403 40.4924 35.9254C40.4621 35.949 40.4436 35.9766 40.4251 36.0055L40.4356 36.0094ZM41.6796 35.9805L41.7351 36.037L41.6228 35.9254L41.6796 35.9805ZM32.548 36.0659L32.6325 36.1499L32.4635 35.9805L32.548 36.0659ZM36.3076 36.0934H36.3644V36.4873C36.1703 36.4125 36.095 36.1525 36.3023 36.0895L36.3076 36.0934ZM41.6796 36.121L41.7351 36.1499L41.6228 36.0934L41.6796 36.121ZM36.6985 36.1985H36.8121V36.423L36.6985 36.1985ZM38.2819 36.2825C38.2819 36.3783 38.3756 36.3993 38.4509 36.423C38.4694 36.3481 38.4892 36.2733 38.5077 36.1985H38.2832L38.2819 36.2825ZM46.254 36.1985H46.3662C46.3477 36.2352 46.3292 36.2733 46.3094 36.3101L46.254 36.1985ZM39.9153 36.2549L39.9721 36.3665H39.8599L39.9153 36.2549ZM42.46 36.4794C41.945 37.0361 42.5789 36.8615 42.7995 37.4353H42.4033C42.4574 37.8672 44.4329 37.023 43.4782 36.6475C43.6947 37.2764 42.6793 36.6094 42.5168 36.872V36.2549L42.46 36.4794ZM46.1074 36.3101C46.2579 36.3626 46.2539 36.4729 46.2487 36.591L46.4745 36.4794C46.4362 36.6291 46.3992 36.7788 46.3609 36.9285C46.1113 36.8917 46.1866 36.4309 45.8525 36.4794C45.904 36.3744 45.9516 36.2431 46.1074 36.314V36.3101ZM41.5554 36.423C40.5267 36.7302 41.3521 36.9245 41.4987 37.5469C42.4231 37.5009 42.6106 37.2121 41.4987 37.2095C41.7034 36.9994 41.8948 36.7565 41.8381 36.4794H41.9516C41.949 36.2877 41.6347 36.2523 41.5554 36.4269V36.423ZM42.7717 36.339L42.8562 36.3665L42.6858 36.3101L42.7717 36.339ZM43.8176 36.3665H43.9866V36.4794H43.8176V36.3665ZM32.0568 36.4506L32.1135 36.4794L32 36.423L32.0568 36.4506ZM40.5941 36.5359V36.6475H40.4251C40.4436 36.704 40.462 36.7604 40.4819 36.8169C40.7777 36.7919 40.9929 36.4676 40.5941 36.423V36.5359ZM42.2342 36.507C42.2527 36.5359 42.2712 36.5635 42.291 36.591V36.423H42.1775L42.2342 36.507ZM48.623 36.423H48.7353V36.6475H48.623V36.423ZM34.0363 36.507L34.1485 36.5359L34.0917 36.7604L33.7537 36.6475C33.8303 36.5713 33.9148 36.4742 34.0363 36.5109V36.507ZM35.1667 36.7315V36.9863C35.3291 36.9429 35.4031 36.679 35.6751 36.8182C35.6513 36.9245 35.6276 37.0808 35.5061 37.0427C35.5246 36.9862 35.543 36.9298 35.5628 36.8733C35.4994 37.0322 35.3331 37.0598 35.1667 37.0427C35.1284 37.6125 35.5721 36.9744 35.8454 37.1556C35.79 36.7696 35.5641 36.4899 35.1667 36.4807V36.7315ZM38.1352 36.6199C38.1656 36.7932 38.4812 36.9679 38.6714 37.0979C38.7625 36.7197 38.4654 36.5346 38.1062 36.4794C38.1155 36.5293 38.126 36.5766 38.1352 36.6239V36.6199ZM44.6654 36.507C44.8185 36.6882 44.5055 36.8379 44.3259 36.872C44.421 36.7538 44.5742 36.4873 44.6654 36.5109V36.507ZM48.3405 36.4794C48.4395 36.5897 48.2731 36.6843 48.1701 36.7604C48.1631 36.7019 48.1761 36.6428 48.207 36.5926C48.2379 36.5423 48.2849 36.5039 48.3405 36.4834V36.4794ZM33.1027 36.6475C33.1119 36.6856 33.1225 36.7224 33.1317 36.7604L33.3576 36.6475L33.0749 36.5359L33.1027 36.6475ZM34.5447 36.591H34.6015V36.7604H34.3757C34.4193 36.7 34.476 36.5924 34.5447 36.5924V36.591ZM47.2655 36.591L47.4359 36.7604H47.1533L47.2655 36.591ZM43.2511 36.704C43.2709 36.7224 43.2893 36.742 43.3078 36.7604L43.1956 36.6475L43.2511 36.704ZM45.8525 36.6475C46.0981 36.6475 46.1166 36.9311 46.1351 37.1543L45.739 37.0979C45.7772 36.9521 45.8102 36.8011 45.8525 36.6514V36.6475ZM41.2161 36.7604L41.4419 36.9849L41.2729 37.0414C41.2544 36.9521 41.2346 36.855 41.2161 36.7644V36.7604ZM47.6049 36.7604H47.7752V36.872H47.6049V36.7604ZM35.9022 36.872L35.8454 36.9285C36.1478 37.0598 36.4423 37.0795 36.8068 37.1543C36.853 36.8642 36.4885 36.8641 36.2971 36.9849C36.3618 36.8405 35.959 36.8024 35.9062 36.876L35.9022 36.872ZM34.2053 36.872L34.3189 36.9849L34.0917 37.0414C34.13 36.9862 34.1684 36.9324 34.2053 36.876V36.872ZM40.0857 36.872L40.2548 37.0414H40.0857V36.872ZM40.6786 37.069C40.6483 37.476 41.0061 37.0545 40.7077 36.9285C40.6984 36.9863 40.6892 37.0269 40.6786 37.0729V37.069ZM42.9407 36.9285H43.0253C43.0094 37.0598 42.9474 37.1911 42.7995 37.1543C42.8232 37.069 42.8377 36.9285 42.9407 36.9324V36.9285ZM37.372 36.9849C37.5212 37.0033 37.6982 37.0427 37.6546 37.2095L37.372 36.9849ZM46.4177 36.9849C46.5379 37.0112 46.7373 37.0191 46.7003 37.1543H46.4177V36.9849ZM48.623 36.9849V37.1543H48.5095L48.623 36.9849ZM37.9081 37.0979H37.994V37.2659L37.7668 37.2095C37.7945 37.153 37.821 37.0978 37.9081 37.1018V37.0979ZM39.5483 37.1819C39.5575 37.2095 39.5667 37.2383 39.5773 37.2659C39.5575 37.2094 39.539 37.1543 39.5205 37.0979L39.5483 37.1819ZM35.8732 37.4064C35.8824 37.4537 35.8917 37.5009 35.9022 37.5469C36.0634 37.497 36.2891 37.4458 36.2403 37.2659H35.8441L35.8732 37.4064ZM39.1811 37.2948C39.0636 37.3184 39.0372 37.3998 39.0108 37.4904C39.2669 37.6598 39.5892 37.2712 39.1811 37.2987V37.2948ZM39.8309 37.4064C39.8401 37.4537 39.8493 37.5009 39.8599 37.5469C39.8748 37.5248 39.8851 37.4999 39.8903 37.4738C39.8955 37.4477 39.8955 37.4208 39.8902 37.3947C39.8849 37.3686 39.8745 37.3437 39.8596 37.3216C39.8446 37.2995 39.8254 37.2806 39.8031 37.2659L39.8309 37.4064ZM33.3853 37.4064L33.3576 37.4904C33.3838 37.4977 33.4113 37.4988 33.4381 37.4938C33.4649 37.4888 33.4901 37.4777 33.5119 37.4615C33.5337 37.4453 33.5515 37.4243 33.5639 37.4002C33.5763 37.3761 33.5829 37.3495 33.5834 37.3224C33.5041 37.325 33.4117 37.3145 33.3853 37.4103V37.4064ZM45.117 37.4064C45.117 37.5114 45.2953 37.5941 45.3996 37.6598C45.4419 37.4957 45.2675 37.3972 45.117 37.3224V37.4064ZM38.7282 37.4353L38.7849 37.4904L38.6714 37.3788C38.6912 37.4011 38.7097 37.4195 38.7282 37.4392V37.4353ZM41.1052 37.5193V37.6033C41.1238 37.6073 41.1429 37.6076 41.1616 37.604C41.1803 37.6005 41.198 37.5932 41.2138 37.5826C41.2296 37.5721 41.2431 37.5585 41.2535 37.5427C41.2639 37.5268 41.2709 37.5091 41.2742 37.4904L41.1052 37.4353V37.5193ZM41.3587 37.5193L41.331 37.6033H41.4432L41.3877 37.4353C41.3758 37.4668 41.3666 37.4944 41.3574 37.5233L41.3587 37.5193ZM38.8431 37.5758V37.6598H39.0121L38.8431 37.4904V37.5758ZM40.5387 37.5193L40.4832 37.5469C40.5083 37.6624 40.6153 37.648 40.709 37.6033C40.6602 37.5613 40.6033 37.4865 40.5373 37.5233L40.5387 37.5193ZM40.0302 37.6033L40.087 37.6598L39.9734 37.5469L40.0302 37.6033ZM38.3347 37.6598V37.7163H38.5037L38.3347 37.6033V37.6598Z" fill="#F8F963"/>
</g>
<defs>
<clipPath id="clip0_1762_1548">
<rect width="20" height="38" fill="white"/>
</clipPath>
<clipPath id="clip1_1762_1548">
<rect width="19" height="38" fill="white" transform="translate(32)"/>
</clipPath>
</defs>
</svg>
