<svg xmlns="http://www.w3.org/2000/svg" width="66" height="47" viewBox="0 0 66 47" fill="none">
  <g clip-path="url(#clip0_1762_1728)">
    <path d="M16.4663 0.408328C16.3481 0.47833 16.3967 0.583327 16.4323 0.680376H16.2234L16.293 0.476748C15.3976 0.667663 14.9329 0.392427 14.1784 0.476748C13.7655 0.495839 12.6514 1.59041 12.619 0.611975C12.1025 0.821981 11.191 0.562651 10.8866 0.885615C10.668 0.758339 10.4963 0.934928 10.5384 1.15766C10.1255 0.627874 9.49566 0.946074 9.01476 1.22608C9.08438 0.93971 8.529 0.998581 8.25212 0.954035C8.33055 1.01887 8.38608 1.10641 8.4108 1.20414C8.43552 1.30187 8.42818 1.40477 8.38977 1.49813C8.11612 1.35653 7.81493 1.26904 7.55748 1.42973C7.9218 1.74792 7.39556 2.18543 7.55748 2.51953H7.35018C7.0652 1.87201 6.44511 2.93954 7.90401 2.99682C7.51702 3.68729 6.44673 2.77567 5.96098 3.4741C6.38197 3.54888 7.0539 3.52023 7.13971 3.88297H6.93083C7.15914 4.34594 8.56623 3.63319 8.80263 3.40568C9.05361 3.52023 9.09085 3.76684 9.01151 4.01822L9.63492 3.9498C9.58796 3.7907 9.54257 3.63161 9.49561 3.47251C10.0332 3.61888 10.1919 4.08184 10.8137 3.88138C10.7667 3.79069 10.7214 3.69842 10.6744 3.60774C11.0744 3.35318 11.144 4.30299 11.5067 3.9148C11.6071 3.16069 12.135 3.27842 11.7836 4.01662C12.0783 4.07708 12.5543 3.7191 12.4766 3.40409L12.8927 3.60774C12.8231 3.47251 12.7535 3.33569 12.6855 3.19887L13.3784 3.26727C12.9461 3.52341 13.0303 3.72706 13.5161 3.74456V3.54093C13.7671 3.5107 13.8399 3.83842 14.1411 3.74456C14.2658 2.93317 14.9507 4.36186 15.0414 3.33569C15.6469 3.24501 16.0452 3.44228 16.7755 3.33569C16.7124 3.10341 16.7043 2.85841 16.9132 2.72318C16.8628 2.71011 16.8157 2.68731 16.7744 2.65614C16.7331 2.62496 16.6986 2.58602 16.6728 2.54159C16.647 2.49716 16.6305 2.44812 16.6243 2.39735C16.618 2.34658 16.6221 2.29509 16.6363 2.24589C17.0152 2.39385 16.9682 1.83859 17.1917 1.837C17.0071 1.732 17.1253 1.48223 17.1917 1.29291H16.8452C17.1301 0.888806 17.3569 0.184004 16.4663 0.408328ZM13.3461 0.680376L13.3121 0.817195C13.4416 0.755148 13.6278 0.688334 13.589 0.545148C13.4805 0.540375 13.3769 0.534008 13.3461 0.680376ZM14.3516 0.817195L14.5605 0.954035H14.3516V0.817195ZM12.4798 0.885615V1.22449H11.7107C11.8969 0.922208 12.3584 1.09085 12.4798 0.885615ZM15.8801 1.02084H16.0825C16.0534 1.13698 16.0016 1.2579 15.8736 1.22608L15.8801 1.02084ZM5.9318 1.42973C5.96419 1.58882 6.16494 1.60631 6.31391 1.63495C6.21514 1.45994 6.1002 1.24357 5.8978 1.29448L5.9318 1.42973ZM6.97131 1.46473C6.59242 1.62382 6.93087 2.23156 7.24985 1.97542C7.28398 1.95724 7.31411 1.93264 7.33856 1.90301C7.36301 1.87339 7.38127 1.83933 7.39232 1.80276C7.40337 1.7662 7.40702 1.72785 7.40299 1.68991C7.39896 1.65197 7.38734 1.61519 7.36884 1.58166C7.35034 1.54813 7.3253 1.5185 7.29515 1.49448C7.265 1.47045 7.23029 1.45249 7.19308 1.44163C7.15587 1.43078 7.11689 1.42722 7.07828 1.43119C7.03967 1.43515 7.0022 1.44655 6.96807 1.46473H6.97131ZM10.2647 1.36131H10.5416V1.70178C10.3748 1.63973 10.2178 1.54268 10.2615 1.36131H10.2647ZM11.0274 1.36131C11.1974 1.38199 11.3513 1.45676 11.3043 1.63495H11.0274V1.36131ZM5.2744 1.49813L4.99586 1.56655C5.20798 1.67155 5.29061 1.85451 5.13517 2.04384C5.17884 2.04028 5.22269 2.04734 5.26293 2.06438C5.30318 2.08143 5.3386 2.10794 5.36595 2.14158C5.39331 2.17522 5.41175 2.21494 5.41979 2.25727C5.42784 2.2996 5.42521 2.34323 5.41205 2.3843L5.62093 2.24748L5.2744 1.8386C5.8816 1.76859 6.13419 1.31994 5.27116 1.49813H5.2744ZM3.6439 1.59995L3.6099 1.70337C4.1329 1.60314 4.10858 2.05496 4.02601 2.45111C4.21545 2.32861 4.51179 2.18383 4.37254 1.97382H4.57976V2.17906L5.06552 2.04384C5.02666 1.56973 3.90459 1.38358 3.64066 1.59995H3.6439ZM7.97683 1.49813L8.18571 1.56655C8.16142 1.6111 8.13872 1.65723 8.11605 1.70337L7.97683 1.49813ZM15.749 1.56655H15.817C15.7538 1.87519 15.098 1.77338 15.2632 2.24748C15.1855 2.05498 14.9815 2.02315 14.7774 2.04384C15.0592 1.89269 15.5967 1.58723 15.7392 1.56655H15.749ZM1.43205 1.80519L1.3284 1.97542C1.84331 1.74632 1.86276 2.33816 2.16069 2.51953C1.67493 2.88863 1.35107 2.29361 0.842643 2.31588C0.905225 2.40618 0.938704 2.5129 0.938704 2.62215C0.938704 2.73139 0.905225 2.8381 0.842643 2.9284C0.89272 2.91466 0.945058 2.91083 0.996656 2.91709C1.04825 2.92336 1.09815 2.93961 1.14332 2.96491C1.18849 2.9902 1.22808 3.02405 1.25985 3.06448C1.29163 3.10491 1.31491 3.15113 1.3284 3.20046C1.0159 3.28478 0.628966 3.38182 0.496192 3.06522L0.42812 3.4741L0.0120148 3.33728C-0.00741551 4.04367 0.938188 5.35302 0.288891 5.85735C0.507482 6.02758 0.288885 6.42054 0.565767 6.60668C1.39318 6.08803 0.316461 7.38467 0.739071 7.7315C0.944709 7.92082 1.73326 7.83014 1.46771 8.31061C0.450855 7.469 1.04181 8.70993 1.05153 9.297C0.828076 10.0925 1.36569 9.83634 1.77858 10.1832C2.16719 10.67 1.56808 10.4011 1.36406 10.3868C1.18919 10.4743 1.20211 11.2475 1.53728 11.1711C1.49033 11.3064 1.44339 11.4432 1.39806 11.58C1.5454 11.3493 1.97773 11.4909 1.88381 11.7837H1.74459V11.58C1.03538 11.8568 1.44336 13.4621 2.09104 13.4892L1.53728 14.0349C1.6992 14.1446 1.75586 14.3053 1.60528 14.4437C1.82711 14.4549 2.00848 14.5551 1.95181 14.7842L1.60528 14.7158C1.54861 14.9528 1.93886 15.1517 2.16069 15.3283C1.32357 15.874 3.26176 15.9074 2.50722 16.3513C2.49265 16.1461 2.28048 16.1302 2.09104 16.1461V15.9424H1.74459C1.9065 16.1508 1.83526 16.434 1.74459 16.6918C2.46675 16.5056 1.69109 17.5413 2.09104 17.9168C1.35754 18.0154 2.31935 18.6041 2.29992 18.9048C2.05218 19.713 2.23679 20.2619 2.43757 21.1862C1.60044 21.218 2.85858 21.8767 2.50722 22.3444C1.85954 22.1408 2.37766 22.949 2.43757 23.1622C1.98743 23.1399 2.24977 23.6872 2.50722 23.8431H2.09104C2.23514 24.1374 2.71766 24.2599 2.09104 24.524L2.36791 24.7977C1.9453 24.9965 2.27403 25.4881 2.43757 25.8191C1.77046 26.072 2.43759 26.7243 2.54122 27.0441C2.27729 27.3989 2.4505 27.8396 2.09104 28.1355L2.36791 28.4075C2.29902 28.451 2.24343 28.5119 2.20694 28.5839C2.17045 28.6559 2.15446 28.7362 2.16069 28.8164H2.36791C2.01978 29.0789 2.44566 30.0096 1.95181 30.2117C2.08458 30.4312 2.29832 30.6683 2.16069 30.996H2.43757C2.13801 31.6817 2.01656 33.2059 2.29992 33.925C1.43851 33.96 2.58816 34.345 1.88381 34.7427C2.24651 34.8446 2.14287 35.2646 2.43757 35.4921L1.95181 35.5589C1.94371 35.831 2.45049 35.7498 2.36791 36.0362H2.15745C2.1364 36.3544 1.20701 37.468 1.98422 37.6033C2.34045 37.5953 2.1364 38.7169 1.67169 38.5578V39.1704L1.32516 39.0351C1.67976 39.1083 1.59394 39.6333 1.60204 39.9897L1.81092 39.8545V40.467C1.62957 40.4224 1.55347 40.5736 1.53404 40.7391H1.94857C1.85951 41.0732 1.25558 41.5743 2.01822 41.5568C1.27663 41.5329 1.62474 42.3936 1.39481 42.7834L1.60204 42.6466L1.88057 43.2591L1.46447 43.3275C1.5098 43.4421 1.5567 43.555 1.60204 43.668C1.25553 43.5853 1.22315 44.1325 0.839401 44.0084C0.855593 44.2137 1.06614 44.2296 1.25559 44.2137C1.15843 44.5048 1.22638 45.0664 1.60204 44.7578C1.5567 44.8485 1.5098 44.9392 1.46447 45.0315H1.74134C1.71706 45.2192 1.66525 45.4228 1.46447 45.4387C1.72678 45.5453 1.62639 46.1165 1.95023 46.0528V45.916L2.29834 45.9844L1.74292 46.3933C2.29345 46.5349 2.75333 46.7353 3.4755 46.5969C3.19214 46.4044 3.12249 46.1197 3.33785 45.8476L3.05931 45.7792L3.4755 45.5072C3.23909 45.5692 2.98972 45.5771 2.85209 45.3719H3.26819C3.26819 45.041 3.86732 45.068 4.10048 44.8946C3.00105 45.9892 4.62831 45.0903 4.79346 45.916C4.37085 45.6185 4.00171 45.986 3.61472 45.7792C3.81065 46.7051 4.16367 46.2565 4.82754 46.0528C5.10766 45.8715 6.12287 45.9208 5.97228 45.4387L5.7634 45.5072L5.97228 45.0983C6.10344 45.383 6.49848 45.1874 6.66526 45.5072C6.68793 45.3258 6.71063 45.1444 6.73492 44.963C5.63224 45.3242 6.27185 44.2487 6.31881 43.7364L6.66526 44.0084C6.10016 44.5366 7.47487 44.8962 7.77443 44.2821C7.75176 44.395 7.72744 44.508 7.70477 44.6226L8.26018 44.5542V44.7578H8.46749V44.5542H8.26018C8.4221 44.4587 8.37352 44.2519 8.32818 44.0769C8.54839 44.3839 8.91757 44.4539 9.2997 44.4173C9.26083 44.6019 8.99043 44.5096 8.81394 44.4857C8.61963 45.0394 11.0225 45.049 10.6857 44.3489H10.5465V44.5542C10.438 44.4174 10.2907 44.3235 10.132 44.4173V44.2821C10.0081 44.2628 9.88132 44.2712 9.7611 44.3064C9.64089 44.3416 9.53026 44.4029 9.43734 44.4857C9.5183 44.0912 9.32887 43.738 9.36935 43.3275C9.69319 44.4857 11.0306 44.1803 11.9341 43.8048C11.9393 43.8602 11.9565 43.9139 11.9847 43.9622C12.0129 44.0105 12.0513 44.0522 12.0975 44.0846C12.1436 44.1169 12.1963 44.1391 12.252 44.1496C12.3076 44.16 12.3649 44.1586 12.4199 44.1453V44.7578C12.4739 44.6831 12.5478 44.6246 12.6335 44.5886C12.7192 44.5527 12.8134 44.5408 12.9056 44.5542C12.8603 44.4635 12.8134 44.3728 12.7664 44.2821C12.9899 44.193 13.7056 44.2408 13.7379 44.5542C14.1686 44.4539 13.8399 44.0992 13.5291 44.0769C13.6327 43.6266 14.1913 43.9178 14.5006 44.0769C13.9387 43.0571 14.4407 43.1223 14.7774 44.0769C13.6683 44.3442 14.3727 44.6623 15.124 44.6226V44.4173C14.6301 44.6035 14.737 44.1262 14.9863 43.8732C15.4187 44.6449 16.7351 44.7753 17.4151 44.1453C17.6645 44.3457 17.7762 44.8453 18.1081 44.2821L18.5939 44.7594C18.6165 44.691 18.6392 44.6242 18.6635 44.5558C18.4563 44.6083 18.4077 44.3966 18.3851 44.2153C18.738 44.2535 19.112 44.201 19.0796 43.8064C19.2674 43.8843 19.3323 44.0816 19.3566 44.2837C19.5622 44.0323 19.8682 44.1835 20.1192 44.3505C20.0415 43.8303 20.7669 44.1469 20.673 44.4873C20.9077 44.438 20.7588 43.9257 20.5353 43.9432C20.6891 43.7841 20.6519 43.5487 20.605 43.3291C20.5823 43.7332 20.3167 43.956 19.9103 43.8748V43.5343C19.6124 43.4771 19.6221 43.7682 19.6334 44.0116C19.2011 43.458 18.5211 43.0571 19.8423 43.2623C19.7436 42.9346 20.0884 42.6259 20.3281 42.9219C20.1548 42.8773 20.1159 43.1684 20.0511 43.3307C20.4414 42.6593 21.094 43.9671 21.2996 43.3307C21.2527 43.5168 21.6024 43.4978 21.7854 43.5359L21.7173 43.808C21.986 43.8929 22.2658 43.939 22.548 43.9448C22.5027 43.8525 22.4557 43.7619 22.4104 43.6712H22.6176C22.5739 43.9894 22.705 44.4666 23.1033 44.2853V44.6258C21.808 44.6783 23.9518 45.4785 23.173 44.4889C23.3543 44.5335 23.4304 44.3823 23.4499 44.2169C23.4499 44.8533 24.7857 44.2169 24.3517 43.9448C23.7251 44.4492 22.6289 43.8255 22.4087 42.9902L22.6856 42.9219L22.5463 43.1271C22.8151 43.2782 23.2685 43.4453 23.1018 43.7396L24.002 43.9448C24.0151 43.9037 24.0177 43.86 24.0096 43.8176C24.0016 43.7752 23.9831 43.7355 23.9558 43.7017C23.9285 43.668 23.8932 43.6413 23.853 43.6241C23.8128 43.6068 23.7689 43.5995 23.7252 43.6028C24.0879 43.0969 23.4612 42.0468 23.1713 43.0587C22.943 42.9791 22.9803 42.7277 23.0321 42.513C22.0606 42.4318 20.5401 41.3993 19.5654 42.1725C19.52 42.0372 19.4731 41.9005 19.4278 41.7636C19.2659 42.1089 18.9031 42.1073 18.7347 41.7636L18.4563 41.9689C17.012 41.5154 14.4083 41.2975 12.8409 41.7636L12.7032 41.6284C12.1624 42.0261 9.83405 41.2163 9.92958 42.2409C9.54745 41.3898 7.4814 42.1725 6.81105 42.4462C6.28643 42.8073 5.67762 42.182 5.35378 42.8534L6.67174 42.9219C6.38353 43.0332 6.42887 43.5901 6.18599 43.6028C6.37219 43.2591 5.82008 43.2321 5.76988 42.9219C5.37966 43.0459 4.97488 43.5805 4.4535 43.3991V43.5359C4.10375 43.5359 3.39775 43.5996 3.89808 43.1955C3.75074 42.9696 3.42043 42.9823 3.13545 42.9902C3.2245 42.5607 3.43983 41.9832 3.06579 41.7636L3.34433 41.832C3.38805 41.5138 3.25689 41.0365 2.85857 41.2195V40.9984C3.15974 41.1575 3.23424 40.8393 3.48198 40.8631C3.6439 40.5258 3.03827 39.7192 3.55155 39.8417C3.70052 39.3565 3.29578 39.1656 3.2051 38.8872L3.62121 38.9556L3.48198 38.6835L3.69086 38.6151C3.40103 38.3797 3.35893 38.0726 3.69086 37.8658C3.46579 37.7719 3.36697 37.4426 3.27468 37.1849L3.76044 37.2533C3.59852 37.1578 3.64552 36.951 3.69086 36.776H3.48198C3.76534 36.4785 3.82032 36.3353 3.41391 35.9582C3.64545 35.9455 3.7928 35.7578 3.89966 35.5494L3.48356 35.4825C3.59528 35.2614 3.44473 35.0482 3.27634 34.8684C4.1507 35.1564 4.1021 33.7786 3.69244 33.4366C4.00009 33.19 3.57421 32.6809 4.10855 32.482H3.83009C3.83009 32.2036 3.7799 31.8217 4.03897 31.7326C3.08203 31.7661 4.74817 30.0892 3.83009 29.8235C4.23651 29.5785 3.51435 29.0503 4.03897 28.9373C3.87705 28.608 3.84953 28.3153 4.03897 28.0862C4.01306 27.9271 3.61957 27.7998 3.96932 27.6773C4.27373 27.3066 3.65355 26.2327 4.10855 25.8047C3.87376 25.512 3.97584 25.1684 4.17662 24.8502L3.83009 24.7149C4.00496 24.357 4.20414 23.9036 3.7621 23.6935C4.37739 23.2529 3.47549 22.9792 3.55321 22.5353L3.83009 22.6706V22.4669C3.45282 22.5481 3.50625 21.9324 3.83009 21.9212C3.58559 21.2642 3.72 20.8664 3.7621 20.1505L3.48356 20.0821C3.69082 19.8562 3.65681 19.5793 3.48356 19.3327L3.13703 19.538C3.61469 18.8411 3.65358 18.5834 3.20668 17.8357C3.44956 17.9454 3.6746 17.8356 3.62279 17.562C3.17913 17.5795 3.08525 15.6099 3.41557 15.4508C2.76789 15.2647 2.82941 15.1549 3.20668 14.7699C3.12896 14.5233 2.95733 14.3371 3.20668 14.089C2.8958 14.0412 2.86021 13.7962 2.99946 13.5433L2.58328 13.408L3.06904 13.2712C2.93157 13.1269 2.82907 12.9539 2.76907 12.7652C2.70908 12.5765 2.6932 12.377 2.72259 12.1814C2.8845 12.2482 3.05446 12.2387 3.06904 12.0446H2.58328C2.58328 11.3796 3.29411 11.2491 2.3064 10.8864C2.43432 10.7273 2.59462 10.487 2.79216 10.6143C2.84883 10.2961 2.51369 10.3295 2.37606 10.5459C2.17042 10.2961 2.30477 9.87452 2.65451 9.86498C2.25133 9.64861 2.61572 9.14744 2.47971 8.77516C2.50237 8.43787 2.03604 8.18491 2.30806 7.82058H1.95987C2.4181 7.54694 2.12183 7.13807 2.23841 6.73078C1.97772 7.03784 1.75263 6.68464 1.89188 6.39032C1.08228 6.28054 1.75587 6.23122 1.89188 5.91303C1.16486 4.89641 2.50399 4.34436 3.20834 3.93708C2.58981 3.97844 1.50488 3.75093 1.683 3.12091L1.40612 3.18772C1.55509 2.61657 1.91619 3.46455 2.23841 3.32454V3.52978L2.65451 3.46138C2.50231 3.14319 2.53312 2.75021 2.58494 2.37156H2.23841L2.44563 1.89428C2.11531 1.82268 1.57291 1.58246 1.42233 1.80519H1.43205ZM2.64645 1.80519L2.71444 1.8386L2.57679 1.7702L2.64645 1.80519ZM12.6984 1.80519C12.7891 1.85292 12.7179 2.05974 12.6984 2.17906H13.1145C12.8878 2.73431 12.5348 2.0852 12.2822 1.90702C12.3988 1.86088 12.5996 1.76065 12.6822 1.80519H12.6984ZM5.8978 2.00884C5.87514 2.06611 5.85082 2.12338 5.82815 2.17906L6.10503 2.11064L5.96738 1.8386C5.93985 1.89587 5.91723 1.95316 5.89456 2.00884H5.8978ZM8.39293 1.8386H8.53224L8.32336 1.97542C8.79454 2.32861 8.26021 2.6484 7.8376 2.72477C7.60443 2.36839 8.34762 2.40656 8.2537 2.11064H7.76794C7.95577 2.00564 8.22785 1.83382 8.38977 1.8386H8.39293ZM9.43252 1.8386L9.91828 2.11064C9.70616 2.08519 9.44385 2.05656 9.42928 1.8386H9.43252ZM15.3944 1.97542H15.5968V2.17906H15.3879L15.3944 1.97542ZM0.173934 2.21406C0.201461 2.39543 0.335841 2.42247 0.484807 2.45111C0.392513 2.29201 0.308293 2.00088 0.138277 2.04384C0.151231 2.09952 0.164181 2.15678 0.175516 2.21406H0.173934ZM1.38675 2.14566V2.24748H1.67169C1.71217 2.10111 1.52759 2.07247 1.39481 2.04384L1.38675 2.14566ZM4.95704 2.21406C4.8356 2.32065 4.92303 2.42407 4.99104 2.51953L4.78382 2.65635C5.13356 2.73271 5.26957 2.35565 5.06069 2.11064L4.95704 2.21406ZM6.34308 2.17906C6.47748 2.27134 6.30906 2.50998 6.23943 2.65635L6.79318 2.45111C6.69117 2.21406 6.50174 2.05973 6.23943 2.11064L6.34308 2.17906ZM6.82884 2.14566L6.93249 2.17906L6.72519 2.11064L6.82884 2.14566ZM10.7457 2.11064C11.0841 2.15042 11.3933 2.29998 11.2994 2.65635C11.0954 2.63567 10.8914 2.66908 10.8137 2.86C10.7894 2.76931 10.7667 2.67861 10.744 2.58793H11.0905V2.3843C11.0488 2.39626 11.0047 2.3981 10.9621 2.38966C10.9195 2.38122 10.8797 2.36275 10.8459 2.33585C10.8122 2.30894 10.7856 2.27441 10.7684 2.23519C10.7513 2.19597 10.7439 2.15322 10.7472 2.11064H10.7457ZM13.8659 2.11064C14.1525 2.11064 14.5637 2.06293 14.5588 2.3843C14.1799 2.28407 13.7655 2.2252 13.5177 2.51953C13.576 2.33816 13.6699 2.1218 13.8659 2.24748V2.11064ZM16.1522 2.17906L16.2218 2.31588H16.0825L16.1522 2.17906ZM8.87387 2.24748L9.2204 2.31588L8.94352 2.45111L8.87387 2.24748ZM3.1549 2.48613C3.18404 2.68181 3.3799 2.65794 3.53535 2.65635C3.43819 2.48293 3.32164 2.26656 3.11924 2.31588C3.12896 2.37316 3.14514 2.42885 3.15648 2.48613H3.1549ZM11.9941 2.31588H12.1317C12.109 2.36043 12.0863 2.40656 12.0621 2.45111L11.9941 2.31588ZM10.3991 2.45111H10.4688V2.65635C10.145 2.65635 9.9296 2.98408 9.49727 2.9284L9.6365 3.33728C9.19608 3.21319 9.3402 2.75499 9.77415 2.79317L9.70615 2.51953C9.9377 2.61817 10.2081 2.51157 10.4008 2.45111H10.3991ZM15.1126 2.45111L15.3215 2.51953L15.1126 2.58793V2.45111ZM15.5983 2.45111H15.8056V2.65635L15.5983 2.45111ZM17.6095 2.51953L17.6774 2.58793L17.5398 2.45111L17.6095 2.51953ZM0.484807 2.65635V2.79317H0.624036C0.577079 2.70089 0.531764 2.61021 0.484807 2.51953V2.65635ZM11.7155 2.51953L11.8548 2.65635L11.6459 2.72477C11.6719 2.65636 11.6945 2.58794 11.7107 2.51953H11.7155ZM11.9941 2.51953L12.1317 2.58793C12.109 2.63407 12.0863 2.67863 12.0621 2.72477L11.9941 2.51953ZM3.95153 2.62295L4.0211 2.65635L3.88188 2.58793L3.95153 2.62295ZM8.80911 2.65635V2.99682C8.59538 2.96659 8.25859 2.965 8.32336 2.72477C8.40189 2.7605 8.48928 2.77304 8.57493 2.76089C8.66059 2.74875 8.74082 2.71243 8.80587 2.65635H8.80911ZM15.124 2.68975C15.3037 2.93317 14.852 3.12887 14.6382 2.99682C14.6625 2.90613 14.6851 2.81545 14.7078 2.72477L14.9167 2.86C14.9588 2.78681 15.0268 2.6468 15.111 2.68975H15.124ZM3.09655 2.82657C3.06255 2.9443 2.9023 2.96818 2.7841 2.99682C2.96706 3.46137 3.63419 2.49725 3.0869 2.82657H3.09655ZM3.96284 2.79317L4.03249 2.86L3.89326 2.72477L3.96284 2.79317ZM5.5221 2.79317L5.4881 2.86H5.62741C5.60312 2.81545 5.58043 2.76932 5.55776 2.72477L5.5221 2.79317ZM13.3218 2.72477C13.3915 2.86 13.461 2.99681 13.5291 3.13364C13.359 3.035 13.1988 2.89818 13.3121 2.72477H13.3218ZM15.8866 2.72477H16.0258L15.9563 2.9284L15.8866 2.72477ZM11.5893 2.79317L11.7965 3.13364H11.2427L11.5893 2.79317ZM5.24522 2.9284C5.25656 2.95067 5.26793 2.97454 5.28088 2.99682C5.25659 2.95068 5.2339 2.90613 5.21123 2.86L5.24522 2.9284ZM4.23971 2.99682C4.14094 3.0875 3.76532 3.06203 3.54673 3.06522L3.89326 3.4741C3.98232 3.33092 4.12475 3.37069 4.23971 3.4741C3.95473 3.59342 3.65195 3.60297 3.47708 3.33728C4.14257 4.69596 3.6131 3.62047 3.2002 4.42708C3.36212 4.21071 3.6196 4.50822 3.75561 4.29026L3.89326 4.42708C3.94993 4.21389 4.45021 4.35707 4.72547 4.35866C4.72547 4.01661 4.02113 4.1232 3.96284 3.88138C4.10047 3.74615 4.92948 2.89977 4.22999 2.99682H4.23971ZM12.4555 2.9284H12.6984C12.7794 3.22909 12.4053 3.24659 12.143 3.26886C12.1624 3.09068 12.1851 2.91567 12.4458 2.9284H12.4555ZM2.29992 3.13364L2.57679 3.33728H2.29992V3.13364ZM10.2016 3.13364H11.0338V3.40568C10.7974 3.18613 10.3182 3.45183 10.1919 3.13364H10.2016ZM17.0023 3.20046L17.0718 3.26886L16.9326 3.13364L17.0023 3.20046ZM8.12902 3.20046L8.26833 3.33728H8.05945L8.12902 3.20046ZM5.32136 3.33728L5.28736 3.40568L5.35536 3.26886L5.32136 3.33728ZM14.5071 3.26886L14.7143 3.33728L14.5071 3.40568V3.26886ZM7.70643 3.33728H7.98331V3.4741L7.70643 3.33728ZM1.39157 3.40568H1.5308L1.46123 3.60933C1.4337 3.54251 1.411 3.47409 1.38833 3.40568H1.39157ZM2.9865 3.57593C2.96221 3.6332 2.93951 3.68887 2.91684 3.74615L3.19372 3.67775C3.14838 3.58706 3.10145 3.49637 3.05449 3.40568L2.9865 3.57593ZM5.13517 3.5425V3.60933C5.09325 3.59674 5.04879 3.59441 5.00575 3.60255C4.9627 3.61069 4.92235 3.62905 4.88818 3.65604C4.85401 3.68302 4.8271 3.7178 4.80975 3.75736C4.7924 3.79691 4.78514 3.84003 4.78864 3.88297C5.06228 3.88297 5.2744 3.75411 5.2744 3.4741H5.13517V3.5425ZM0.905814 3.67775H1.04504C1.00758 3.75521 0.994233 3.84181 1.00662 3.9267C1.019 4.0116 1.05659 4.09103 1.1147 4.15504C1.03754 4.10285 0.976742 4.03049 0.939257 3.94615C0.901772 3.8618 0.889081 3.76883 0.902572 3.67775H0.905814ZM1.59879 3.81457C2.03112 4.14231 1.89028 4.4398 1.39157 4.35866C1.45796 4.17729 1.52755 3.99594 1.59555 3.81457H1.59879ZM5.37805 3.91639L5.48162 4.01822C5.412 3.9498 5.3424 3.88298 5.2744 3.81457C5.30516 3.84798 5.33919 3.88298 5.37481 3.91639H5.37805ZM8.56623 3.91639C8.60186 4.0389 8.76373 4.01822 8.87869 4.01822V3.81457H8.53224L8.56623 3.91639ZM8.18571 3.98479C8.18571 4.10889 8.34762 4.1264 8.46258 4.15504C8.50792 3.97685 8.3541 3.90206 8.18571 3.88297V3.98479ZM5.20474 4.12002L5.34239 4.29026C5.47031 4.09935 5.2501 4.00707 5.06552 3.9498C5.10923 4.00707 5.15455 4.06434 5.2015 4.12002H5.20474ZM2.08455 4.15504L2.22386 4.42708C2.10242 4.36504 1.97768 4.27118 2.08131 4.15504H2.08455ZM0.905814 5.99417H1.1147V6.1294H0.905814V5.99417ZM2.08455 8.92312H2.22386V9.12677H2.08455V8.92312ZM1.7381 8.99152C1.79154 9.16971 1.82062 9.3845 1.59879 9.40041C1.57631 9.36571 1.56197 9.32656 1.55673 9.28575C1.55149 9.24494 1.55551 9.2035 1.56851 9.16441C1.58152 9.12531 1.60316 9.08952 1.63192 9.05963C1.66068 9.02974 1.69586 9.00648 1.73486 8.99152H1.7381ZM1.87733 11.1027H2.01498V11.3064L1.67169 11.2475C1.68039 11.2026 1.70612 11.1627 1.74372 11.1358C1.78131 11.1089 1.82794 11.0971 1.87409 11.1027H1.87733ZM2.15421 13.7596C2.4991 13.7453 2.64808 14.1271 2.77761 14.4405L2.57031 14.3037V14.5758C2.32905 14.4549 2.48129 13.898 2.15745 13.7596H2.15421ZM2.36143 14.8494H2.50074C2.47807 14.9178 2.45375 14.9847 2.43108 15.0531C2.40518 14.9847 2.38255 14.9178 2.35827 14.8494H2.36143ZM1.21835 15.734L1.25234 15.8024L1.18269 15.6656L1.21835 15.734ZM2.57031 17.3695H2.70796C2.66626 17.4736 2.65729 17.5876 2.68211 17.6967C2.70692 17.8059 2.76437 17.9053 2.84719 17.982L2.15421 17.7784C2.42299 17.7704 2.63346 17.6495 2.56707 17.3695H2.57031ZM2.57197 19.5491H2.64163V19.7527H2.43274C2.45541 19.6796 2.48125 19.5459 2.56707 19.5491H2.57197ZM2.39875 21.9324L2.43274 22.0008L2.36309 21.8655L2.39875 21.9324ZM1.56646 23.4326L1.60045 23.5694L1.53246 23.2974L1.56646 23.4326ZM2.43274 25.6122H2.64321V25.7491L2.43274 25.6122ZM3.05607 26.2948L3.19538 26.3616L3.12572 26.4984L2.98808 26.43L3.05607 26.2948ZM3.26495 26.43L3.40426 26.4984L3.33461 26.6352C3.30546 26.5652 3.29089 26.4968 3.26013 26.4284L3.26495 26.43ZM2.67562 29.2571L2.77919 29.2905C2.74843 29.4305 2.61728 29.413 2.50232 29.3589C2.52984 29.2858 2.56062 29.2142 2.67072 29.2555L2.67562 29.2571ZM1.60045 30.0399V30.1083L1.80934 30.0399L1.60045 29.973V30.0399ZM2.43274 31.607L2.50232 31.7438H2.36309L2.43274 31.607ZM1.35916 31.879L1.32358 31.9474L1.39315 31.8122L1.35916 31.879ZM1.39315 32.3229V32.4247H1.53246C1.4855 32.3563 1.43849 32.2879 1.39315 32.2195V32.3229ZM2.01656 32.595L2.15587 32.6968L1.87891 32.4931L2.01656 32.595ZM3.54183 33.855H3.75071C3.72642 33.9234 3.7038 33.9918 3.68114 34.0586C3.62932 33.9982 3.58396 33.9218 3.53701 33.8534L3.54183 33.855ZM3.05607 34.4675C3.08036 34.582 3.10306 34.695 3.12572 34.808H2.77919L3.05607 34.4675ZM2.36309 35.6257C2.38738 35.6718 2.41007 35.7164 2.43274 35.7625C2.40522 35.7148 2.38255 35.6703 2.35827 35.6241L2.36309 35.6257ZM2.08621 36.5803L2.22544 36.7155L2.01656 36.7839C2.03599 36.7139 2.05864 36.6455 2.08131 36.5787L2.08621 36.5803ZM2.70962 37.5349C2.73391 37.6033 2.75653 37.6717 2.77919 37.7385H2.64321L2.70962 37.5349ZM1.91299 37.7735L2.01656 37.8069L1.80934 37.7385L1.91299 37.7735ZM1.87891 38.1474L1.94698 38.2158L1.80934 38.079L1.87891 38.1474ZM0.943052 38.7949C0.722841 39.0192 1.0111 39.0399 1.18435 38.9651L1.0467 38.6931L0.943052 38.7949ZM3.05607 40.6006H3.26495V40.8727C3.23077 40.873 3.19699 40.8654 3.16628 40.8507C3.13558 40.8359 3.10883 40.8143 3.08809 40.7876C3.06735 40.7609 3.05321 40.7298 3.04682 40.6968C3.04043 40.6638 3.04194 40.6298 3.05125 40.5974L3.05607 40.6006ZM0.803823 40.8377C0.756867 40.9554 0.891231 41.0604 0.977049 41.1447C0.977049 40.9856 1.00298 40.7693 0.83782 40.7359L0.803823 40.8377ZM1.80934 41.35H2.01656V41.4852L1.80934 41.35ZM0.83782 41.9275L0.907395 41.9625L0.769827 41.8941L0.83782 41.9275ZM1.94698 42.0309H2.08621C2.04088 42.19 1.99394 42.3491 1.94698 42.5082C1.91488 42.5085 1.883 42.5026 1.85322 42.4908C1.82343 42.479 1.79629 42.4616 1.77336 42.4395C1.75043 42.4174 1.73218 42.3911 1.7196 42.3621C1.70702 42.3331 1.70031 42.3019 1.69999 42.2704C1.69968 42.2388 1.70571 42.2075 1.7177 42.1782C1.7297 42.149 1.74741 42.1223 1.76989 42.0998C1.79236 42.0772 1.81917 42.0593 1.84871 42.0469C1.87825 42.0345 1.90997 42.028 1.94208 42.0277L1.94698 42.0309ZM14.8422 42.1327C15.1855 42.2266 14.7969 42.4095 14.6333 42.5066C14.554 42.3157 14.5605 42.0548 14.8374 42.1296L14.8422 42.1327ZM16.6103 42.0993H16.714C16.7545 42.2457 16.5683 42.2743 16.4371 42.3029C16.4614 42.2091 16.4873 42.0898 16.6055 42.0961L16.6103 42.0993ZM18.9323 42.1661L19.0716 42.3713H18.7931L18.9323 42.1661ZM22.5723 42.2011L22.6759 42.2345L22.4686 42.1661L22.5723 42.2011ZM7.42465 42.3713L7.63196 42.4398L7.42465 42.5066V42.3713ZM15.5353 42.4398L15.6745 42.575L15.3959 42.7118C15.4348 42.618 15.485 42.5273 15.5304 42.4302L15.5353 42.4398ZM5.20641 42.5416L5.27598 42.575C5.22902 42.5527 5.18209 42.5305 5.13675 42.5066L5.20641 42.5416ZM20.8041 42.5066C20.9123 42.5848 21.0372 42.6378 21.1693 42.6615C21.3015 42.6852 21.4374 42.6791 21.5668 42.6434C21.6331 42.8518 21.0114 42.9346 21.2202 43.1891H20.9401C20.9806 43.1428 21.0095 43.0878 21.0245 43.0285C21.0396 42.9693 21.0404 42.9074 21.0269 42.8478C21.0134 42.7882 20.9859 42.7325 20.9467 42.6852C20.9074 42.6378 20.8575 42.6001 20.8009 42.575V42.7802H20.6616C20.7069 42.6864 20.7523 42.5893 20.7992 42.5034L20.8041 42.5066ZM22.1561 42.61C22.5625 43.073 21.5926 43.7237 21.6363 42.7118C21.8193 42.9505 21.9699 42.5782 22.1513 42.6068L22.1561 42.61ZM4.40811 42.6768C3.7151 42.9505 4.6073 43.3132 4.99752 43.0523C4.9619 42.7484 4.73199 42.6132 4.40329 42.6737L4.40811 42.6768ZM7.21585 42.7452C7.31682 42.7687 7.40642 42.8256 7.46956 42.9065C7.5327 42.9874 7.56545 43.0872 7.5623 43.1891C7.76308 43.03 7.97037 43.1319 8.11771 43.3244C7.97684 43.3546 7.99301 43.4835 8.04806 43.5964L7.84084 43.6648C8.00276 43.2321 6.94376 43.0284 7.14778 43.5296L6.66202 43.3928C7.17692 43.3132 6.48069 42.4207 7.21095 42.7484L7.21585 42.7452ZM8.67147 42.7118L8.95 42.8471L8.88035 42.9839L8.67147 42.7118ZM17.1998 42.7118H17.2677C17.2775 42.9139 17.2905 43.1748 17.0605 43.1891C16.9844 43.0221 16.9942 42.7484 17.1949 42.7086L17.1998 42.7118ZM19.4877 42.7118H19.5557C19.5994 42.89 19.444 42.9902 19.2789 43.0523C19.321 42.933 19.3873 42.7134 19.4828 42.7086L19.4877 42.7118ZM18.725 42.9839H18.8627L18.7931 43.1207L18.725 42.9839ZM23.5826 42.9839L23.7203 43.1891H23.513C23.5308 43.1175 23.5486 43.0491 23.5729 42.9807L23.5826 42.9839ZM11.6573 43.0523L11.8661 43.1891H11.6573V43.0523ZM13.1145 43.0523H13.2522V43.1891L13.045 43.1207C12.9899 43.4771 13.5809 43.3928 13.7379 43.1891L13.8772 43.3928C13.6003 43.5137 12.9948 44.0594 13.079 43.563C13.1113 43.3466 12.6968 43.1414 13.1048 43.0491L13.1145 43.0523ZM15.9222 43.0523H16.0258V43.2559H15.749C15.7684 43.1621 15.7943 43.0427 15.9206 43.0491L15.9222 43.0523ZM2.15903 43.2559L2.36633 43.3928H2.15745L2.15903 43.2559ZM18.589 43.2559C18.8481 43.2066 18.785 43.8303 18.6587 43.8701C18.4563 43.7857 18.5421 43.4389 18.581 43.2527L18.589 43.2559ZM1.32682 43.3594L1.39639 43.3928L1.25717 43.3244L1.32682 43.3594ZM11.4484 43.4612L11.518 43.5964C11.008 43.6569 11.0485 43.1334 11.4403 43.458L11.4484 43.4612ZM18.1033 43.4612L18.2425 43.5296H17.8264C17.8928 43.4437 17.956 43.3848 18.0952 43.458L18.1033 43.4612ZM12.5235 43.5296H12.6822C12.7292 43.7157 12.3778 43.6887 12.1965 43.7332C12.2742 43.6139 12.3389 43.5184 12.5203 43.5264L12.5235 43.5296ZM18.1729 43.5964C18.1584 43.7075 18.1694 43.8204 18.2053 43.9267C18.2411 44.033 18.3009 44.13 18.3802 44.2105C18.0806 44.0769 17.9187 43.8414 18.1648 43.5932L18.1729 43.5964ZM13.7363 43.6648C13.7816 43.6887 13.8286 43.7109 13.8756 43.7332C13.8157 43.703 13.7735 43.6855 13.7282 43.6616L13.7363 43.6648ZM16.2315 43.6648H16.6477C16.6674 43.7657 16.6584 43.87 16.6219 43.9662C16.5853 44.0625 16.5225 44.147 16.4404 44.2105L16.2315 43.6648ZM8.0513 43.7666C8.30875 43.7984 8.34437 43.8509 8.32818 44.0053C7.7647 43.6728 6.75594 45.0394 6.8709 43.8701C7.27246 43.9814 7.56881 43.6314 8.04324 43.7634L8.0513 43.7666ZM8.81394 43.7332H9.02282C9.0552 43.8589 8.93052 43.9098 8.81394 43.9385V43.7332ZM21.7432 44.3457C21.7092 44.4603 21.6736 44.5732 21.6396 44.6862C22.0168 44.5271 22.1577 44.8358 22.4719 44.823L22.4022 44.2789C22.1367 44.3792 21.7837 44.2996 22.0558 44.0053C21.8679 43.9846 21.8323 44.0466 21.7352 44.3394L21.7432 44.3457ZM5.7634 44.0737L5.97228 44.2105H5.69374L5.7634 44.0737ZM21.4032 44.2105L21.3676 44.2789L21.5068 44.3457C21.4842 44.2789 21.4615 44.2105 21.4372 44.1421L21.4032 44.2105ZM3.82843 44.2105L4.10697 44.4825L3.76044 44.6862L3.82843 44.2105ZM21.1943 44.3807C21.1603 44.5398 21.1944 44.5796 21.2996 44.6194C21.2753 44.4826 21.2526 44.3457 21.23 44.2105C21.204 44.263 21.1927 44.3203 21.1797 44.3776L21.1943 44.3807ZM4.59106 44.2789C5.16912 44.4062 4.86797 45.5008 5.63223 45.4355V45.6408C4.87121 45.566 4.74815 44.7658 4.57652 44.2758L4.59106 44.2789ZM5.7634 44.4825L5.97228 44.7546H5.48652L5.7634 44.4825ZM10.9626 44.516L11.0323 44.551L10.8946 44.4825L10.9626 44.516ZM11.9341 44.6528L12.0038 44.823C11.9568 44.7101 11.9099 44.5955 11.8646 44.4825C11.8727 44.5366 11.9018 44.5923 11.9261 44.6576L11.9341 44.6528ZM19.9411 44.6194L19.9751 44.6862C19.9524 44.6416 19.9297 44.5955 19.9054 44.551C19.9103 44.5701 19.9216 44.5923 19.9329 44.6162L19.9411 44.6194ZM20.3912 44.6194L20.4608 44.6862L20.3216 44.551L20.3912 44.6194ZM3.06579 44.6194C3.09008 44.6639 3.11278 44.7101 3.13545 44.7546C3.09821 44.7069 3.07554 44.6576 3.05125 44.6162L3.06579 44.6194ZM6.39487 44.6862L6.46286 44.7546L6.32529 44.6194L6.39487 44.6862ZM23.6912 44.6862L23.5179 44.7546C23.6927 45.4181 24.6529 44.438 23.6765 44.683L23.6912 44.6862ZM7.3648 44.9933L7.29515 45.3003C7.42631 45.1062 7.60927 44.8819 7.57203 44.6862C7.42306 44.6687 7.41818 44.7371 7.35018 44.9901L7.3648 44.9933ZM11.4209 44.7212L11.5245 44.7546L11.3156 44.6862L11.4209 44.7212ZM21.23 44.7212L21.2996 44.7546L21.1603 44.6862L21.23 44.7212ZM5.21613 45.0283C5.2388 45.0728 5.26142 45.1189 5.2857 45.1635H5.14648L5.21613 45.0283ZM6.94862 45.1985V45.3003H7.1575V45.0951H6.94862V45.1985ZM7.78091 45.1635V45.2319H7.98813V45.0951H7.78091V45.1635ZM3.69086 46.4919L3.76044 46.5253L3.62121 46.4585L3.69086 46.4919ZM2.12993 46.8324C2.08784 46.9406 2.16068 46.9708 2.23517 47.0026L2.30482 46.7306C2.21091 46.7258 2.14777 46.7258 2.11539 46.8292L2.12993 46.8324Z" fill="#F8F963"/>
    <path d="M64.7841 0.101652C63.4596 0.112788 62.1675 0.559849 61.0745 1.15805C60.1904 1.02441 58.5745 1.35693 57.2613 1.22647V1.63533H56.9845V1.22488H56.8468V1.42852L56.1522 1.22488C56.2671 1.3967 56.3983 1.59717 56.2914 1.76899L56.5683 1.63374C56.714 1.80238 56.3254 1.92808 56.1522 2.04263C55.9498 1.22806 55.1386 1.48103 55.3895 2.24628L55.1127 2.17786C55.294 2.00285 55.2115 1.64488 55.1823 1.3601L54.7661 1.49692C54.9167 1.03395 54.4423 1.26782 54.35 1.49692C53.5097 0.84304 51.6832 1.29328 50.6761 0.884408C50.2195 1.67989 49.358 0.130307 48.8043 0.816008V0.475542L48.3185 0.610769C48.6845 1.83899 47.9607 0.270311 47.6951 0.338722C47.6853 0.410146 47.7005 0.482712 47.7381 0.544563C47.7758 0.606414 47.8337 0.65387 47.9023 0.679169C47.5688 1.19782 47.4312 0.160532 46.9308 0.475542C46.9535 0.384857 46.9778 0.294159 47.0005 0.203475C46.9584 0.539167 46.5471 0.325988 46.5147 0.610769C46.3048 0.497895 46.0739 0.427735 45.8357 0.4045C45.5976 0.381266 45.3571 0.405437 45.1287 0.475542C45.6322 0.535998 45.7375 1.26147 46.1682 1.56534C46.2556 1.2201 46.8013 1.03555 46.8612 1.49692L46.5147 1.42852C46.4402 1.70853 46.7511 1.74672 47.0005 1.76899V1.56534C48.2473 1.86285 46.2378 2.01081 47.2774 2.17786C47.0782 2.40218 46.7916 2.66945 46.9308 2.92719C47.4166 2.73946 47.5316 2.15558 48.1096 2.4499L47.8328 2.72356C48.0141 2.7872 48.3639 2.81424 48.3185 2.99561H48.4577C47.972 2.22081 49.4293 2.39263 49.6366 2.79196C49.9491 2.64082 49.6576 2.15559 49.983 2.04263L49.9134 2.72356C50.5967 2.59151 50.6518 3.02902 50.885 3.4729C51.2784 3.05607 51.9455 3.35676 52.3422 3.4729C52.1803 3.37744 52.2272 3.17061 52.2726 2.99561C52.6304 3.32812 53.1923 3.41562 53.7299 3.4729C53.7072 3.33607 53.6829 3.19926 53.6602 3.06403C54.3176 3.27244 54.52 2.77764 54.0764 2.31468C54.4407 2.51514 54.9767 2.67105 55.3248 2.92719C55.3798 2.52945 55.851 2.40059 55.8105 2.04263H56.0194C56.0194 2.3465 56.6946 2.29877 56.5052 2.79196C56.706 2.69969 57.1042 2.63286 57.0605 2.4499H56.7836C56.8905 1.70374 57.4993 3.06243 57.8231 3.13243C57.4766 3.18652 57.0735 2.77765 56.7141 2.85879L57.1302 3.19926C56.8241 3.1913 56.4339 3.16266 56.3675 3.4729C56.6914 3.27403 57.3989 3.42517 57.8928 3.4729C57.7309 2.94629 58.262 2.26377 58.5162 2.99561H58.0304V3.13243C58.4352 3.14516 58.751 3.81177 59.1396 3.19926H58.7251C58.6814 3.04016 58.9777 2.94947 59.1396 2.85879C58.9226 2.14286 60.1629 2.35923 59.9718 2.99561H60.2487C60.294 3.19289 59.844 3.20084 59.6254 3.26766C59.6497 3.09901 59.601 2.94946 59.4181 2.92719C59.3679 3.42198 60.0269 3.33767 60.4576 3.33608V3.74494L60.8041 3.67654C60.7277 3.6239 60.6678 3.5513 60.6312 3.46695C60.5946 3.38261 60.5827 3.28989 60.5969 3.19926H60.4463C60.477 3.00039 61.5797 2.9447 61.2786 3.33608L61.6947 3.19926L61.7627 3.60812L62.0412 3.54132C62.1319 4.67567 62.7099 3.79268 63.3576 3.94859L63.0807 4.4943C63.7543 4.52771 63.4304 5.37091 62.8718 4.97158C63.4143 5.30727 62.7002 5.60796 62.6986 5.95797C62.8249 6.22525 62.9868 6.35889 62.8038 6.6739L63.4272 6.60548V6.87754H62.8751C62.7601 7.19573 63.1406 7.22595 63.1536 7.42323H62.8751C62.9965 7.77801 62.6322 8.09622 62.7374 8.51305L63.2232 8.24098V8.58145H62.8087C62.8243 8.63194 62.827 8.68545 62.8163 8.73719C62.8057 8.78892 62.7821 8.83724 62.7478 8.87779C62.7134 8.91835 62.6693 8.94987 62.6195 8.96952C62.5696 8.98916 62.5156 8.99632 62.4622 8.99034C62.6241 9.32285 62.786 9.68398 62.6694 10.0117L63.016 9.80648V10.2838C62.48 10.1469 62.4298 10.8867 62.8087 11.1015H62.5302V11.442H62.8087C62.8491 11.617 62.5026 11.7347 62.3229 11.8509C62.4184 12.2645 62.9026 12.4523 63.016 12.6686C62.1934 12.4045 62.4249 12.9868 61.9068 13.3495L62.3229 13.7584C62.1237 13.8857 62.1982 14.3439 62.1837 14.643H61.9764C62.0606 14.8196 62.2063 15.0455 62.1837 15.1887H61.9764C62.229 15.5498 62.2031 16.0335 62.6694 16.2101C62.4865 16.4312 62.2485 16.5983 61.9764 16.4821C62.0342 16.5463 62.0715 16.6257 62.0839 16.7105C62.0963 16.7954 62.0831 16.8819 62.046 16.9594H62.8751V17.2315C62.786 17.1739 62.6816 17.1435 62.575 17.1439C62.4684 17.1443 62.3643 17.1756 62.2757 17.2338C62.1871 17.292 62.1178 17.3746 62.0767 17.4713C62.0356 17.5679 62.0244 17.6743 62.0444 17.7772L62.3909 17.6404C62.3698 17.9824 60.9677 18.8527 62.1821 18.5949C62.2695 18.9004 62.2889 19.3809 61.9051 19.4795L62.0444 19.6847H61.6979V19.8884L62.0444 19.7515C62.106 20.1175 61.1247 20.6743 61.8356 21.0466C61.8034 21.0378 61.7695 21.0364 61.7367 21.0425C61.7039 21.0486 61.6729 21.062 61.6462 21.0816C61.6195 21.1013 61.5977 21.1267 61.5826 21.1559C61.5674 21.1852 61.5592 21.2174 61.5587 21.2502C61.8469 21.0911 62.195 20.8938 62.1124 20.5693C62.4832 20.7284 61.8485 21.7371 61.6979 22.068H62.1837C62.2371 22.5453 61.8307 22.5055 61.6299 22.8173C61.8663 22.7569 62.1157 22.7473 62.2533 22.9541C62.0817 23.1562 61.8534 23.3487 61.6299 23.1578L61.6996 23.4298H61.4178L61.7643 23.7703C62.3181 23.0098 62.0995 24.2476 62.0428 24.6565C61.3821 24.4465 61.923 25.3342 62.3197 25.0653V25.3374C61.5603 25.2197 61.7756 25.7781 62.3893 25.6778C62.4573 25.9388 62.0121 25.9531 61.7643 26.0183C61.8113 26.1551 61.8566 26.292 61.9036 26.4272C61.8702 26.4277 61.8373 26.4357 61.8076 26.4506C61.7778 26.4656 61.752 26.487 61.732 26.5132C61.712 26.5395 61.6983 26.5699 61.6921 26.6022C61.686 26.6344 61.6874 26.6676 61.6963 26.6992L62.3893 26.6324C62.4492 26.9379 61.8598 26.9252 61.8339 27.245C61.9958 27.2004 62.0104 27.4406 62.0428 27.5854L62.3893 27.517C62.297 27.6761 62.2047 27.8352 62.1108 27.9943C62.5674 28.12 62.7164 28.6529 62.1108 28.4716V28.812H61.8339C62.0055 29.0125 62.2371 29.9814 61.7643 29.9018C61.7093 30.2821 61.9521 30.2678 62.1108 29.9703L62.3893 30.3107C62.2484 30.4968 61.9181 30.3425 61.7643 30.446C61.8178 30.8007 61.4129 31.4976 62.1108 31.2637L61.625 31.6042C61.8242 31.6948 62.2242 31.7633 62.1788 31.9446C61.4292 31.706 61.6105 33.2174 62.1092 33.2397C61.7206 33.4608 62.2954 34.8752 61.6947 34.7383C61.6412 34.9452 62.1448 34.9611 62.0412 35.2156H61.6947C61.6218 35.7136 62.365 35.93 62.0412 36.4423L61.8323 36.3739V36.6459C62.2128 36.4518 62.4249 37.295 62.0412 37.3952C62.1497 37.575 62.2582 38.1987 62.0412 38.4182L62.2484 38.5535C62.2484 38.3084 62.4525 38.2703 62.6646 38.3498C62.0493 38.5248 62.4071 39.026 62.1092 39.3712L62.3181 39.4396C62.2452 38.7348 62.8135 39.201 62.5949 39.6433H62.8751V39.7801C62.4638 39.7801 62.1739 40.1619 62.2517 40.5978H62.7374C62.6809 40.6026 62.6261 40.6194 62.5768 40.647C62.5276 40.6746 62.485 40.7125 62.452 40.7579C62.4191 40.8032 62.3965 40.8551 62.386 40.9099C62.3754 40.9647 62.3771 41.021 62.3909 41.0751C62.5625 40.9669 62.6775 41.1117 62.7374 41.2804C62.5302 41.3933 62.2792 41.5269 62.1124 41.3488V41.6208C62.514 41.4235 62.6127 42.2413 63.0143 42.2333C62.7763 42.2079 62.4071 42.1029 62.3909 42.3702H62.6678V42.5738L62.3213 42.5054C62.3586 43.3009 61.1361 42.4083 61.2818 43.1879C60.0723 42.8061 58.9793 43.1211 57.5382 42.9827V43.1195L57.0524 42.9827C56.9925 43.2484 56.9003 43.5284 56.6363 43.5952C56.8371 43.2929 56.4047 42.8936 56.2202 43.2547C56.544 43.3406 56.5974 43.6413 56.2202 43.6636C56.3351 43.8227 56.353 43.9993 56.1506 44.0725H56.497L56.429 44.3445C57.0233 44.1441 56.9326 44.0263 57.4006 44.4813C57.3308 44.6141 57.3067 44.7656 57.3318 44.913C57.3569 45.0604 57.4298 45.1959 57.5398 45.2991L57.3309 45.3675C57.3779 45.4343 57.4233 45.5027 57.4702 45.5712C57.556 45.3516 57.8475 45.3262 58.0936 45.2991C57.9317 44.9698 58.309 44.8807 58.2328 44.5498H58.3705V44.685H58.5794C58.5324 44.8902 58.487 45.0939 58.4401 45.2991C58.7639 45.2005 59.036 44.3 59.342 44.9586H58.989C58.9437 45.1368 59.0975 45.2116 59.2659 45.2307C59.104 45.4821 59.465 45.735 59.682 45.708V45.3675L59.8893 45.4343L59.9589 45.2307C60.3524 45.323 60.8268 45.5234 61.2073 45.6396C61.1847 45.5027 61.1603 45.3675 61.1377 45.2307C61.5894 45.1321 61.7691 45.5059 62.1772 45.3675V45.5028C62.5787 45.5473 62.7471 45.1018 63.2167 45.2307V45.3675C63.492 45.3039 64.117 45.2784 63.6329 45.5712L64.049 45.708C64.0781 45.0987 65.1824 43.5681 64.1882 43.1879L64.4651 42.9143C63.9971 42.5961 64.8878 40.714 63.8418 40.9399C64.2887 40.644 64.5785 39.9105 64.049 39.508C64.423 39.3187 64.3064 38.4373 63.9113 38.3498C64.1526 38.1493 63.7672 37.6737 64.1882 37.6005C64.0263 37.4414 64.0782 37.1598 64.1186 36.9195L63.8418 36.9864C63.9243 36.6682 64.1478 36.1766 63.7721 36.1018C63.9907 35.7025 63.6944 35.0231 63.9793 34.5347L63.7025 34.4663C63.9016 34.2483 63.9453 33.8665 63.5648 33.9222V33.7169L63.9113 33.8538C63.7591 32.9374 63.9826 31.5007 63.5648 30.6528L63.8418 30.4475L63.2864 30.3123C63.3867 30.1055 63.5373 29.9177 63.7721 29.9718C63.6766 29.703 63.5762 29.3593 63.2864 29.3577C63.5681 29.3577 63.6102 29.065 63.6329 28.8136C63.4855 29.0332 63.2313 28.7388 63.0095 28.882C62.7245 28.2122 64.0069 28.1597 63.356 27.6554L63.6329 27.4502C63.3851 27.5568 63.1989 27.4343 63.1471 27.1781L63.4936 27.2465C63.5389 27.019 63.5859 26.7931 63.6312 26.5656H63.0078V26.2935C63.479 26.6117 64.0376 26.0597 63.2847 26.1567C63.262 26.0438 63.2394 25.9292 63.2151 25.8163C64.13 26.1042 63.4693 24.981 63.7704 24.5212H63.6312C63.6685 24.0185 63.6944 23.5476 63.9098 23.0894C63.6523 22.5341 63.8207 22.2525 63.0775 22.1348C64.5736 22.1125 63.3106 20.8907 63.8401 20.3641C63.6976 20.275 63.4305 20.1716 63.5632 20.0236C64.1089 20.3625 63.9535 19.2822 63.9777 18.8654L63.7009 19.0006C63.9308 18.6586 64.164 18.2051 63.7009 17.9792C64.1089 17.8885 64.1073 17.5131 63.9777 17.1615C63.7073 17.1615 63.5584 17.4622 63.424 17.7072C63.377 17.5481 63.3316 17.389 63.2847 17.2299C63.6879 17.2903 63.832 16.8624 64.2562 16.7526C64.0311 16.7653 63.7818 16.7526 63.7009 16.5474H63.9777C64.5088 15.7264 64.1251 14.0321 64.3939 13.3464C64.0392 12.5811 64.9832 11.3434 64.3939 10.8931C64.7744 10.5399 64.6886 9.97354 64.7404 9.46125H64.3323C64.3346 9.32243 64.3575 9.18466 64.4003 9.05237L64.8165 9.18921C64.708 8.89647 64.8456 8.50986 64.9557 8.16781C64.3081 8.08985 65.2569 7.60301 65.0253 7.14641L64.8165 7.21323C64.7939 7.078 64.7712 6.94117 64.7469 6.80594C65.5743 7.08913 65.1954 5.71137 65.2326 5.30727H65.3719C65.0577 4.68362 65.903 3.8611 65.3719 3.2629C65.8965 3.48722 65.6132 2.72992 65.5792 2.37832C66.0746 2.58196 65.9904 1.85649 65.9953 1.49216C65.652 1.65126 65.6131 0.905095 65.3719 0.948051C65.3961 0.777818 65.3476 0.629856 65.163 0.605991C65.5516 0.324392 65.2763 -0.227676 64.7841 0.101652ZM63.6749 0.340295H63.8466V0.680762H63.2912C63.3835 0.529621 63.4806 0.330749 63.6749 0.340295ZM46.8628 0.545534C46.9098 0.612354 46.9552 0.68077 47.0021 0.749181H46.8628V0.545534ZM50.4332 0.817581L50.4688 0.886001C50.4445 0.839863 50.4219 0.795319 50.3992 0.749181L50.4332 0.817581ZM46.1698 0.817581C46.2168 0.885992 46.2621 0.954408 46.3091 1.02123H46.1698V0.817581ZM55.5612 1.25987C55.5191 1.36806 55.5919 1.3983 55.6664 1.43011L55.8041 1.15805C55.7101 1.15646 55.5887 1.14532 55.5628 1.25987H55.5612ZM63.981 1.15805L64.1899 1.22647L63.981 1.29487V1.15805ZM63.0095 1.22647C63.1989 1.20897 63.411 1.22647 63.4256 1.43011L63.0095 1.22647ZM46.926 1.29487H47.0652C47.0409 1.33941 47.0183 1.38557 46.9957 1.43011L46.926 1.29487ZM52.1252 1.43011C52.4053 1.88672 53.5015 1.34738 53.6505 1.83898L53.997 1.63533C54.0844 1.8692 54.6301 1.99968 54.8293 1.77058C54.852 1.83899 54.8747 1.90739 54.899 1.9758C54.2076 2.12217 53.4417 2.24308 52.9559 1.83898C52.909 1.99808 52.8636 2.15717 52.8166 2.31627C52.9362 2.29983 53.0582 2.31661 53.1687 2.36468C53.2791 2.41276 53.3737 2.49021 53.4417 2.58832C53.2603 2.47377 53.0919 2.64401 52.9559 2.79355C53.1777 2.70923 53.3801 2.76174 53.4417 2.9972H52.9559V2.79355L52.5397 2.92878L52.6094 2.4515L52.8863 2.51991C52.9575 2.12854 52.3552 2.10149 52.4702 1.70375C52.3082 1.83103 51.9811 1.61467 52.1317 1.43011H52.1252ZM65.367 1.43011L65.5047 1.56693H65.3039L65.367 1.43011ZM59.6124 1.49851L59.8213 1.56693C59.7889 1.69262 59.6593 1.71807 59.5428 1.70375C59.5735 1.63534 59.5962 1.56693 59.6189 1.49851H59.6124ZM61.1717 1.60034C61.6218 1.72602 61.0762 1.82625 60.8608 1.83898C60.932 1.70216 60.9887 1.55261 61.1782 1.60034H61.1717ZM47.5494 1.70375L48.0352 1.77058L47.5494 1.9074V1.70375ZM61.97 1.70375C61.9926 1.7483 62.0152 1.79443 62.0395 1.83898C62.0217 1.79443 61.9991 1.7483 61.9764 1.70216L61.97 1.70375ZM48.3817 1.80558L48.5209 1.83898L48.3817 2.11103L48.1047 1.9074C48.1857 1.82785 48.2488 1.7658 48.3881 1.80558H48.3817ZM59.1266 1.80558L59.1962 1.83898C59.0343 1.9408 58.8724 2.0665 58.9193 2.24787H58.7121C58.6474 1.9615 58.853 1.70217 59.1331 1.80558H59.1266ZM62.6889 1.77058H62.7941V1.9074L63.071 1.83898C63.0937 1.9758 63.1164 2.11105 63.1406 2.24787L62.378 2.11103C62.4719 1.98534 62.5755 1.76899 62.7034 1.77058H62.6889ZM60.0982 1.83898H60.1677V2.11103L59.8893 2.04422C59.9508 1.96467 60.0204 1.8358 60.1046 1.83898H60.0982ZM50.2534 1.9074C50.2761 1.95354 50.3004 1.99808 50.3231 2.04422C50.3069 1.99808 50.2826 1.95354 50.2599 1.9074H50.2534ZM46.6831 2.04422C46.6945 2.06649 46.7058 2.08876 46.7188 2.11103L46.8563 2.04422L46.6491 1.9758L46.6831 2.04422ZM58.4336 1.9758L58.5729 2.17945L58.364 2.11103C58.3948 2.06648 58.4174 2.02035 58.4401 1.9758H58.4336ZM63.4256 1.9758L63.4952 2.17945H63.2864L63.4256 1.9758ZM49.4212 2.04422L49.5604 2.17945H49.3532L49.4212 2.04422ZM60.4106 2.14604L60.5839 2.17945C60.518 2.25712 60.4288 2.31223 60.3289 2.33682C60.2291 2.36141 60.1239 2.3542 60.0285 2.31627C60.1386 2.20808 60.2374 2.1015 60.4171 2.14604H60.4106ZM61.6931 2.11103L61.97 2.24787L61.5538 2.51991C61.6056 2.38468 61.6526 2.24785 61.6996 2.11103H61.6931ZM49.5604 2.24787L49.6301 2.4515L49.2836 2.38469L49.5604 2.24787ZM60.5143 2.24787L60.7911 2.38469H60.4463L60.5143 2.24787ZM50.6696 2.31627H51.2249C51.2654 2.46264 51.0792 2.49128 50.9465 2.51991L51.1554 2.86038C50.9173 2.92402 50.8008 2.539 50.6761 2.31627H50.6696ZM51.6411 2.31627H51.7803C51.7577 2.36081 51.735 2.40695 51.7107 2.4515C51.6929 2.40695 51.6702 2.36081 51.6459 2.31627H51.6411ZM55.906 2.51991C55.5725 2.78083 55.3118 3.24698 54.7613 3.13402C54.8649 3.38539 54.7483 3.62245 54.554 3.81495H54.9005C54.8762 3.72427 54.8535 3.63357 54.8309 3.54289L55.1774 3.47449C55.1547 3.40608 55.1304 3.33766 55.1078 3.26925C55.3587 3.3838 55.396 3.63039 55.3166 3.88336C55.519 3.77994 55.7571 3.63835 55.94 3.74654C55.1709 3.46175 55.7943 2.52469 56.0793 3.33767C56.1408 3.0688 56.6477 2.27968 56.0097 2.65673C55.987 2.56605 55.9627 2.47537 55.94 2.38469L55.906 2.51991ZM58.8514 2.4515L58.9906 2.58832H58.8514V2.86038C58.6894 2.84129 58.5275 2.7665 58.5745 2.58832H58.8514V2.4515ZM61.4162 2.4515H61.4858C61.4712 2.65832 61.2591 2.67264 61.0697 2.65673C61.1782 2.58196 61.3352 2.4515 61.4178 2.4515H61.4162ZM52.0249 2.58832H52.1981C52.2321 2.98287 51.8564 3.03698 51.505 2.9972C51.6492 2.83015 51.8273 2.57877 52.0265 2.58832H52.0249ZM63.845 2.58832C63.8677 2.63445 63.8903 2.67902 63.9146 2.72515H63.7753L63.845 2.58832ZM49.0779 2.72515C48.9338 2.78879 48.9338 2.88424 48.9403 2.9972H49.494C49.473 2.7681 49.3257 2.58674 49.0812 2.72515H49.0779ZM49.7709 2.89538C49.7709 3.02425 49.5524 3.21357 49.4244 3.33767C49.7175 3.16863 50.0582 3.09719 50.396 3.13402V2.9972H49.9798V2.79355H49.7709V2.89538ZM61.0082 2.79355C61.0551 2.86037 61.1021 2.92879 61.1474 2.9972H60.932L61.0082 2.79355ZM61.5635 2.92878C61.5862 2.99719 61.6089 3.06561 61.6332 3.13402H61.3546L61.5635 2.92878ZM62.6727 2.9972H62.9495C62.9269 3.06561 62.9042 3.13403 62.8799 3.20085C62.9133 3.19737 62.9472 3.20153 62.9787 3.21299C63.0103 3.22445 63.0387 3.2429 63.0618 3.26692C63.0849 3.29094 63.102 3.31986 63.1119 3.35146C63.1217 3.38305 63.1241 3.41645 63.1187 3.44907C63.1132 3.48168 63.1002 3.51262 63.0806 3.53949C63.061 3.56635 63.0354 3.58842 63.0058 3.60397C62.9761 3.61951 62.9432 3.62812 62.9095 3.62912C62.8759 3.63012 62.8425 3.62347 62.8119 3.60972C62.9171 3.42994 62.7747 3.19607 62.6694 2.9972H62.6727ZM50.4364 3.33767L50.472 3.40607C50.4477 3.35993 50.4251 3.31539 50.4024 3.26925L50.4364 3.33767ZM54.1104 3.40607C54.0634 3.56516 54.2383 3.702 54.3533 3.81495C54.4002 3.63359 54.4455 3.45062 54.4925 3.26925C54.3451 3.26925 54.1411 3.2422 54.1071 3.40607H54.1104ZM59.899 3.43949V3.54289H60.0382V3.33767H59.899V3.43949ZM60.8705 3.43949L60.9401 3.47449L60.8009 3.40607L60.8705 3.43949ZM59.6221 3.60972L59.6917 3.67814L59.5525 3.54289L59.6221 3.60972ZM63.5082 4.087H63.7154V4.29065H63.5082V4.087ZM64.4797 4.12041L64.5493 4.15542L64.2724 4.29065C64.3161 4.21746 64.3841 4.07745 64.4716 4.12041H64.4797ZM64.1332 5.31362H64.2028V5.52045H63.994C64.0085 5.43932 64.0393 5.31044 64.1251 5.31362H64.1332ZM63.3009 5.58569L63.5098 5.65409L63.4402 5.85774L63.3009 5.58569ZM62.297 6.2332L62.331 6.33502L62.2614 6.12978C62.2646 6.16478 62.2759 6.1982 62.2889 6.2332H62.297ZM62.2274 6.74389L62.2614 6.81231C62.2387 6.76617 62.216 6.72163 62.1917 6.67549L62.2274 6.74389ZM64.2368 6.91413C64.4376 6.94277 64.4133 7.13527 64.4101 7.288L63.9243 7.2196C63.9761 7.07164 64.0295 6.86481 64.2287 6.91413H64.2368ZM63.3706 7.76529C63.3932 7.90211 63.4175 8.03735 63.4402 8.17418C63.2734 8.06599 63.2135 7.90688 63.3608 7.76529H63.3706ZM62.4687 8.48122V8.58304C62.5966 8.61486 62.6484 8.49394 62.6759 8.3778H62.4687V8.48122ZM64.062 11.1031L64.2012 11.2399L63.9243 11.3068L64.062 11.1031ZM61.706 11.6138L61.774 11.7156L61.6364 11.512L61.706 11.6138ZM62.1562 11.9209C62.1902 11.9893 62.2258 12.0561 62.2598 12.1245C62.276 11.9384 62.2598 11.7315 62.0525 11.7156C62.08 11.784 62.114 11.8525 62.1497 11.9209H62.1562ZM62.5367 12.737L62.6759 12.9423H62.5367V12.737ZM61.1862 13.1125C61.1992 13.1459 61.2105 13.1809 61.2219 13.2143C61.1992 13.1459 61.1749 13.0791 61.1522 13.0107L61.1862 13.1125ZM61.3595 13.4864V13.76H61.5684V13.2143H61.3595V13.4864ZM61.0826 14.5762L61.013 14.713L61.2915 14.5762L61.1522 14.4409C61.1215 14.4855 61.0939 14.5316 61.0745 14.5762H61.0826ZM62.7116 14.6796L62.8168 14.713L62.4006 15.0535C62.3537 14.8562 62.4751 14.6096 62.7034 14.6796H62.7116ZM63.0937 14.6446C63.1163 14.6907 63.139 14.7353 63.1632 14.7814C63.1309 14.7353 63.1082 14.6907 63.0855 14.6446H63.0937ZM61.2915 15.3939L61.3595 15.4623L61.2219 15.3255L61.2915 15.3939ZM61.8113 15.6326L61.9149 15.8028C62.025 15.6326 61.8776 15.5212 61.7076 15.4623L61.8113 15.6326ZM63.0937 15.666C63.1111 15.7294 63.1137 15.7959 63.1011 15.8605C63.0885 15.925 63.0611 15.9859 63.021 16.0385C62.9809 16.0911 62.9291 16.134 62.8696 16.164C62.8101 16.194 62.7444 16.2103 62.6775 16.2117L62.7471 15.7344L62.9544 15.8712L63.0937 15.666ZM62.6435 18.2545C62.9479 18.4645 62.1108 18.5377 62.0542 18.3913C62.2274 18.3181 62.5043 18.167 62.6354 18.2481L62.6435 18.2545ZM61.0114 18.6299V18.7318H61.1506C61.1053 18.6633 61.0584 18.5965 61.0114 18.5281V18.6299ZM63.2313 19.0054C63.2637 18.997 63.2976 18.9959 63.3305 19.0022C63.3633 19.0085 63.3944 19.022 63.4212 19.0417C63.4479 19.0615 63.4698 19.0869 63.4852 19.1162C63.5005 19.1454 63.5089 19.1777 63.5098 19.2106L63.2313 19.279V19.0054ZM63.5098 19.4143L63.7867 19.4827L63.6474 19.8915C63.594 19.7309 63.5471 19.5718 63.5017 19.4127L63.5098 19.4143ZM60.7361 20.5391L60.8058 20.5725L60.6665 20.5041L60.7361 20.5391ZM63.3706 20.9129L63.7171 21.0498H63.3608L63.3706 20.9129ZM62.331 21.3902H62.6079V21.5271L62.331 21.3902ZM61.3951 22.0027C61.3838 22.0266 61.3725 22.0489 61.3595 22.0712L61.5684 22.1396L61.4291 21.9343L61.3951 22.0027ZM62.2614 22.6169H62.4703V22.9573C62.2954 22.9987 62.2857 22.76 62.2533 22.6153L62.2614 22.6169ZM62.6079 23.2978H62.7471C62.7002 23.4792 62.6549 23.6605 62.6079 23.8419C62.2922 23.8164 62.3245 23.3232 62.5998 23.2962L62.6079 23.2978ZM60.9093 23.8419L60.8753 23.9103H61.013L60.945 23.7735L60.9093 23.8419ZM63.2313 23.9103L63.5794 24.0471L63.2313 24.1824V23.9103ZM61.5684 24.1824V24.2508H61.7756L61.5684 24.1139V24.1824ZM62.2614 24.1824C62.4703 24.246 62.7277 24.3112 62.7471 24.5228L62.331 24.6597C62.3003 24.499 62.276 24.3399 62.2533 24.1808L62.2614 24.1824ZM63.3366 24.456L63.5098 24.5228L63.0937 24.6597C62.9803 24.4528 63.0791 24.3367 63.3284 24.4528L63.3366 24.456ZM62.331 24.8633L62.5383 25.0001H62.331V24.8633ZM63.024 25.2053L63.2313 25.2722L63.1632 25.4774L62.9544 25.409C62.9706 25.339 62.9933 25.2706 63.016 25.2037L63.024 25.2053ZM62.1222 27.1145C62.2954 27.0906 62.446 27.1384 62.4703 27.3197L62.1917 27.3881L62.1222 27.1145ZM62.8848 28.4095C63.0661 28.7707 62.5868 28.8693 62.2614 28.9536C62.216 28.7548 62.6338 28.7945 62.5383 28.5448L62.7471 28.6816L62.8848 28.4095ZM61.7416 28.5797L61.7756 28.6816L61.7076 28.4779L61.7416 28.5797ZM63.1632 29.4993L63.4402 29.703C63.4071 29.7133 63.372 29.7158 63.3377 29.7102C63.3035 29.7046 63.2711 29.691 63.2433 29.6706C63.2154 29.6503 63.1929 29.6237 63.1776 29.5931C63.1622 29.5624 63.1546 29.5287 63.1552 29.4945L63.1632 29.4993ZM62.7471 29.7714L62.8848 29.9082L62.6775 29.9766C62.6921 29.9034 62.7132 29.835 62.7391 29.7666L62.7471 29.7714ZM63.4402 30.7928H63.5098V31.0664L63.2313 30.998C63.2783 30.9137 63.3479 30.7864 63.4321 30.788L63.4402 30.7928ZM62.6775 31.4737H62.8168C62.8767 31.698 62.5982 31.7203 62.4006 31.7473C62.4524 31.6201 62.514 31.461 62.6694 31.4689L62.6775 31.4737ZM63.4402 31.5421L63.6474 31.6789L63.3608 32.0894C63.3058 31.8874 63.2896 31.6805 63.4321 31.5373L63.4402 31.5421ZM63.3009 34.2674L63.4402 34.5395C63.3139 34.4758 63.1892 34.3788 63.2928 34.2627L63.3009 34.2674ZM60.9093 35.152C60.9207 35.1759 60.932 35.1981 60.945 35.2204L61.013 35.0852H60.8753L60.9093 35.152ZM61.1522 35.152C61.1749 35.1759 61.1992 35.1981 61.2219 35.2204L61.0826 35.0852L61.1522 35.152ZM62.4006 35.3572L62.5383 35.6293L62.2614 35.4941C62.3002 35.4431 62.3456 35.397 62.3893 35.3525L62.4006 35.3572ZM62.5383 36.7191C62.5625 36.7652 62.5852 36.8098 62.6079 36.8559C62.5772 36.805 62.5512 36.7604 62.5302 36.7143L62.5383 36.7191ZM63.6474 36.9911H63.7867V37.1964L63.6474 36.9911ZM62.331 37.3316H62.7471C62.7941 37.5082 62.4946 37.5018 62.331 37.5368V37.3316ZM63.5794 37.6053L63.7867 37.6737L63.5794 37.7405V37.6053ZM61.3951 38.4898L61.4291 38.5582C61.4064 38.5137 61.3838 38.4676 61.3595 38.423L61.3951 38.4898ZM63.8563 39.4444C63.879 39.4889 63.9017 39.5351 63.926 39.5796H63.7867L63.8563 39.4444ZM61.638 41.2151V41.2835H61.8453L61.638 41.1467V41.2151ZM63.994 42.5086H64.1332V42.7138L63.994 42.5086ZM51.6201 43.1911C51.4047 43.2691 51.3642 43.6811 51.3075 43.9404H51.4468V44.1441H51.7933C51.748 44.0073 51.701 43.872 51.6541 43.7352C52.101 43.6986 52.3536 44.3 52.0022 44.6214C51.6978 44.405 50.927 44.0264 50.6841 44.3477C50.9756 44.2427 51.0501 44.7105 51.3075 44.553V44.6882H51.1002V44.8934C52.4102 44.852 53.827 45.6555 52.4167 43.872L52.7648 43.3263L52.2791 43.1911C52.2918 43.2321 52.2942 43.2756 52.2859 43.3178C52.2777 43.36 52.2592 43.3995 52.2319 43.433C52.2047 43.4666 52.1695 43.4931 52.1295 43.5102C52.0894 43.5274 52.0458 43.5347 52.0022 43.5315C52.0265 43.2865 51.8921 43.067 51.6119 43.1863L51.6201 43.1911ZM53.9776 43.4965C53.9597 43.8656 53.8804 44.1011 54.2204 44.0757C54.1152 43.7702 54.2383 43.4632 54.4277 43.1911L54.0116 43.1227L53.9776 43.4965ZM54.5314 43.1911C54.4941 43.2897 54.7321 43.3915 54.8438 43.4631L54.7046 43.6668H55.1904C55.1677 43.5761 55.1434 43.4854 55.1207 43.3947H55.26C55.4009 43.1338 54.5751 43.0909 54.5232 43.1863L54.5314 43.1911ZM55.3636 43.1911L55.3296 43.2579L55.5369 43.3263V43.1227C55.4608 43.1147 55.3895 43.11 55.3555 43.1863L55.3636 43.1911ZM46.6977 43.2579L46.5941 43.3263L46.9405 43.5315C46.7333 43.8179 46.5001 43.5824 46.3868 43.3263C46.1957 43.5459 45.9269 43.4854 45.6922 43.3263V43.6668C45.0169 43.4345 44.6737 43.2945 44.1329 43.8036C43.6649 43.5554 43.2569 43.6556 43.6471 44.1791C43.9256 44.2443 44.2154 44.0279 44.583 44.2125C44.5377 44.4161 44.4908 44.6214 44.4454 44.825C45.8541 44.7964 45.4331 45.2355 44.8615 46.0516H45.2081V45.7112C45.3943 45.8528 45.948 45.8909 46.0387 45.6427L46.1779 45.8464C46.2224 45.7789 46.2844 45.7245 46.3576 45.6887C46.4308 45.6528 46.5125 45.637 46.5941 45.6427V45.8464C47.4992 45.5505 46.2022 45.1448 45.901 45.0303C46.2686 44.7789 46.3447 44.3668 46.2476 43.9404L46.7333 44.0757V43.8625C47.0944 44.0359 47.5429 43.1434 47.9801 43.522V43.2483L46.9405 43.3852V43.1815C46.8949 43.1754 46.8486 43.1785 46.8042 43.1909C46.7599 43.2032 46.7187 43.2244 46.6831 43.2531L46.6977 43.2579ZM48.0837 43.3947C48.1533 43.6716 47.6174 43.9372 47.4263 43.8036C47.5024 43.9818 47.232 44.0788 47.2531 44.2125C47.653 44.1234 47.8732 44.5577 48.3266 44.553C48.1647 44.2507 48.6084 44.1648 48.882 44.0757L48.9516 44.2809C48.7816 44.3 48.6278 44.3748 48.6731 44.553H49.0196L48.95 44.3398H49.2965C49.2722 44.4989 49.2495 44.658 49.2269 44.817C48.4723 44.5943 48.7007 45.2768 49.2965 45.2943C48.9727 45.6443 48.0449 45.1878 48.0481 45.7032C48.3104 45.6125 48.5436 45.6778 48.5339 45.9753C48.5015 45.6571 49.2608 45.8257 49.1572 45.498C49.5329 45.6014 50.336 45.8862 50.1287 45.2943L50.5433 45.3627C50.4641 45.3142 50.4061 45.2384 50.3807 45.1502C50.3553 45.062 50.3642 44.9676 50.4057 44.8854H49.9895C50.0964 44.6739 49.9636 44.4845 49.7806 44.3398C50.0041 44.3254 49.9734 44.1107 49.9199 43.9325H50.1968C50.0997 42.8443 51.1683 44.1727 51.0987 43.1831C50.6615 43.0877 50.2891 43.3422 49.9895 43.4552V43.1831C49.711 43.2261 49.2123 43.1831 49.1572 43.3868C48.9791 43.1354 48.27 43.4202 48.0481 43.1831L48.0837 43.3947ZM53.427 43.4631C53.5339 43.6222 53.7622 43.6016 53.9468 43.5984C53.8626 43.3804 53.5695 43.3549 53.3234 43.3263L53.427 43.4631ZM55.6114 43.4281C55.5579 43.5984 55.2357 43.6143 55.2649 43.872C55.4932 43.837 55.8882 43.8545 55.8186 43.5984L56.1651 43.6668C56.0259 43.4695 55.851 43.2754 55.6114 43.3263V43.4281ZM49.3726 43.3947H49.4406V43.5984L49.6495 43.5315V43.8036C49.3645 43.8227 49.0779 43.7941 48.8868 43.5984C49.0348 43.5084 49.1936 43.4368 49.3596 43.3852L49.3726 43.3947ZM53.0465 43.6334L52.9769 43.7352C53.7185 44.1107 54.0245 44.0343 53.1162 43.5315C53.0789 43.5602 53.0563 43.5936 53.0336 43.6286L53.0465 43.6334ZM54.5719 43.5984L54.6399 43.6668L54.5022 43.5315L54.5719 43.5984ZM43.3751 43.7018L43.4787 43.8036L43.2715 43.5984L43.3751 43.7018ZM47.985 43.7352H48.0546V44.2125C47.8166 44.1218 47.7243 43.8068 47.9785 43.7304L47.985 43.7352ZM54.5719 43.7686L54.6399 43.8036L54.5022 43.7352L54.5719 43.7686ZM48.4642 43.8625H48.6035V44.1345L48.4642 43.8625ZM50.4057 43.9643C50.4057 44.0804 50.5206 44.1059 50.6129 44.1345C50.6356 44.0438 50.6599 43.9532 50.6826 43.8625H50.4073L50.4057 43.9643ZM60.1807 43.8625H60.3184C60.2957 43.907 60.273 43.9532 60.2487 43.9977L60.1807 43.8625ZM52.4086 43.9309L52.4782 44.0661H52.3406L52.4086 43.9309ZM55.5288 44.2029C54.8973 44.8775 55.6745 44.6659 55.9449 45.3611H55.4592C55.5256 45.8846 57.9478 44.8616 56.7772 44.4066C57.0427 45.1686 55.7976 44.3604 55.5984 44.6786V43.9309L55.5288 44.2029ZM60.001 43.9977C60.1856 44.0614 60.1807 44.195 60.1742 44.3382L60.4511 44.2029C60.4041 44.3843 60.3588 44.5657 60.3119 44.7471C60.0058 44.7025 60.0981 44.1441 59.6885 44.2029C59.7516 44.0756 59.8099 43.9165 60.001 44.0025V43.9977ZM54.4196 44.1345C53.1582 44.5068 54.1703 44.7423 54.35 45.4964C55.4835 45.4407 55.7134 45.0907 54.35 45.0875C54.601 44.833 54.8358 44.5386 54.7661 44.2029H54.9054C54.9021 43.9706 54.5167 43.9277 54.4196 44.1393V44.1345ZM55.9109 44.0327L56.0145 44.0661L55.8056 43.9977L55.9109 44.0327ZM57.1933 44.0661H57.4006V44.2029H57.1933V44.0661ZM42.7728 44.1679L42.8424 44.2029L42.7031 44.1345L42.7728 44.1679ZM53.2409 44.2714V44.4066H53.0336C53.0563 44.475 53.0789 44.5434 53.1032 44.6118C53.4659 44.5816 53.7299 44.1886 53.2409 44.1345V44.2714ZM55.2519 44.2364C55.2746 44.2714 55.2973 44.3048 55.3215 44.3382V44.1345H55.1823L55.2519 44.2364ZM63.0855 44.1345H63.2232V44.4066H63.0855V44.1345ZM45.1999 44.2364L45.3376 44.2714L45.2679 44.5434L44.8535 44.4066C44.9474 44.3143 45.0509 44.1966 45.1999 44.2411V44.2364ZM46.586 44.5084V44.817C46.7851 44.7645 46.8758 44.4448 47.2094 44.6134C47.1802 44.7423 47.1511 44.9316 47.0021 44.8854C47.0248 44.817 47.0474 44.7486 47.0717 44.6802C46.994 44.8727 46.79 44.9061 46.586 44.8854C46.539 45.5759 47.0831 44.8027 47.4182 45.0223C47.3502 44.5545 47.0733 44.2156 46.586 44.2045V44.5084ZM50.2259 44.3732C50.2631 44.5832 50.6501 44.7948 50.8833 44.9523C50.995 44.4941 50.6307 44.2697 50.1903 44.2029C50.2017 44.2634 50.2146 44.3207 50.2259 44.3779V44.3732ZM58.2328 44.2364C58.4207 44.4559 58.0369 44.6372 57.8167 44.6786C57.9332 44.5354 58.1211 44.2125 58.2328 44.2411V44.2364ZM62.7391 44.2029C62.8605 44.3366 62.6565 44.4511 62.5302 44.5434C62.5217 44.4725 62.5376 44.4009 62.5755 44.34C62.6134 44.2792 62.671 44.2325 62.7391 44.2077V44.2029ZM44.0552 44.4066C44.0665 44.4527 44.0795 44.4973 44.0908 44.5434L44.3677 44.4066L44.0212 44.2714L44.0552 44.4066ZM45.8233 44.3382H45.893V44.5434H45.6161C45.6695 44.4702 45.7391 44.3398 45.8233 44.3398V44.3382ZM61.421 44.3382L61.6299 44.5434H61.2834L61.421 44.3382ZM56.4987 44.475C56.523 44.4973 56.5456 44.5211 56.5683 44.5434L56.4307 44.4066L56.4987 44.475ZM59.6885 44.4066C59.9896 44.4066 60.0123 44.7502 60.035 45.0207L59.5492 44.9523C59.5962 44.7757 59.6367 44.5927 59.6885 44.4113V44.4066ZM54.0035 44.5434L54.2804 44.8155L54.0731 44.8839C54.0505 44.7757 54.0262 44.658 54.0035 44.5482V44.5434ZM61.8371 44.5434H62.046V44.6786H61.8371V44.5434ZM47.4879 44.6786L47.4182 44.7471C47.789 44.9062 48.1501 44.93 48.597 45.0207C48.6537 44.6691 48.2068 44.6691 47.972 44.8155C48.0513 44.6404 47.5575 44.5943 47.4927 44.6834L47.4879 44.6786ZM45.4072 44.6786L45.5464 44.8155L45.2679 44.8839C45.3149 44.817 45.3619 44.7518 45.4072 44.6834V44.6786ZM52.6175 44.6786L52.8248 44.8839H52.6175V44.6786ZM53.3445 44.9173C53.3073 45.4105 53.746 44.8998 53.3801 44.7471C53.3688 44.8171 53.3575 44.8664 53.3445 44.922V44.9173ZM56.1182 44.7471H56.2218C56.2024 44.9062 56.1263 45.0652 55.9449 45.0207C55.9741 44.9173 55.9919 44.7471 56.1182 44.7518V44.7471ZM49.29 44.8155C49.473 44.8377 49.69 44.8855 49.6366 45.0875L49.29 44.8155ZM60.3815 44.8155C60.5289 44.8473 60.7734 44.8568 60.7281 45.0207H60.3815V44.8155ZM63.0855 44.8155V45.0207H62.9463L63.0855 44.8155ZM49.9474 44.9523H50.0527V45.1559L49.7741 45.0875C49.8081 45.0191 49.8406 44.9523 49.9474 44.957V44.9523ZM51.9585 45.0541C51.9698 45.0875 51.9811 45.1225 51.994 45.1559C51.9698 45.0875 51.9471 45.0207 51.9245 44.9523L51.9585 45.0541ZM47.4522 45.3261C47.4636 45.3834 47.4749 45.4407 47.4879 45.4964C47.6854 45.4359 47.9622 45.3739 47.9023 45.1559H47.4166L47.4522 45.3261ZM51.5083 45.1909C51.3642 45.2196 51.3318 45.3182 51.2994 45.428C51.6135 45.6332 52.0086 45.1623 51.5083 45.1957V45.1909ZM52.305 45.3261C52.3163 45.3834 52.3276 45.4407 52.3406 45.4964C52.3588 45.4696 52.3715 45.4394 52.3779 45.4078C52.3843 45.3761 52.3842 45.3436 52.3777 45.3119C52.3713 45.2803 52.3585 45.2502 52.3402 45.2234C52.3219 45.1967 52.2983 45.1737 52.2709 45.1559L52.305 45.3261ZM44.4017 45.3261L44.3677 45.428C44.3999 45.4367 44.4336 45.4381 44.4665 45.432C44.4993 45.426 44.5302 45.4126 44.557 45.3929C44.5837 45.3733 44.6055 45.3478 44.6207 45.3186C44.6359 45.2894 44.6441 45.2571 44.6446 45.2243C44.5474 45.2275 44.4341 45.2148 44.4017 45.3309V45.3261ZM58.7866 45.3261C58.7866 45.4534 59.0052 45.5536 59.1331 45.6332C59.1849 45.4343 58.9712 45.315 58.7866 45.2243V45.3261ZM50.953 45.3611L51.0225 45.428L50.8833 45.2927C50.9076 45.3198 50.9303 45.3421 50.953 45.3659V45.3611ZM53.8675 45.463V45.5648C53.8903 45.5696 53.9138 45.5699 53.9367 45.5656C53.9596 45.5613 53.9814 45.5525 54.0007 45.5397C54.0201 45.5269 54.0366 45.5105 54.0493 45.4913C54.0621 45.4721 54.0707 45.4505 54.0747 45.428L53.8675 45.3611V45.463ZM54.1784 45.463L54.1444 45.5648H54.282L54.214 45.3611C54.1994 45.3993 54.1881 45.4328 54.1767 45.4678L54.1784 45.463ZM51.0938 45.5314V45.6332H51.3011L51.0938 45.428V45.5314ZM53.1729 45.463L53.1049 45.4964C53.1356 45.6364 53.2668 45.6189 53.3817 45.5648C53.3218 45.5139 53.2522 45.4232 53.1712 45.4678L53.1729 45.463ZM52.5495 45.5648L52.6191 45.6332L52.4798 45.4964L52.5495 45.5648ZM50.4704 45.6332V45.7016H50.6777L50.4704 45.5648V45.6332Z" fill="#F8F963"/>
    <path d="M30.2617 21.1491C29.5767 21.3273 27.4653 21.0807 27.8701 22.3407C27.4491 22.2898 27.3746 23.0137 27.5932 23.2269C26.8694 23.4146 27.488 24.3008 27.454 24.7255C28.1486 24.0701 28.2053 25.879 29.1185 25.4065C29.0942 25.4972 29.0716 25.5878 29.0489 25.6785L28.84 25.6101L28.772 25.8153C29.7436 25.7994 29.4327 27.4349 30.2973 27.314V27.5177C30.6406 27.4684 30.809 27.9027 31.1976 27.7897V27.4493H31.3368C31.2688 28.0856 32.7358 28.0013 32.9997 27.4493C32.7536 27.2806 32.6241 27.7325 32.3763 27.6545C32.6079 27.0881 33.8336 27.1963 34.3194 26.6999L34.1105 26.4279C34.9492 26.2895 35.3816 24.3071 34.8035 23.771C34.8651 21.9064 32.0185 20.8754 30.2617 21.1491ZM17.1591 21.3527C16.165 21.3368 15.3359 21.7266 14.8712 22.6143C14.9004 23.2348 13.7022 25.031 15.2533 24.4535C15.1691 24.7383 15.1465 25.1201 15.5302 25.1344C15.3683 25.2935 15.446 25.5353 15.5302 25.7469C15.2712 25.8138 15.289 25.4287 15.2533 25.2028L14.9069 25.2697C14.9522 25.1106 14.9991 24.9515 15.0445 24.7924L14.8372 24.996C14.0924 24.1624 14.6154 26.0365 14.9765 26.0174C14.9522 25.8822 14.9296 25.7454 14.9069 25.6085C15.336 25.5926 15.4396 26.3515 15.4962 26.6315C16.3398 27.1088 17.2353 27.987 17.4717 28.9463C18.8658 29.1564 20.234 29.2439 20.7991 27.7213C20.3959 27.4222 20.961 26.5599 20.3133 26.4263C20.676 26.0031 19.6333 25.766 19.8972 25.3365C19.6187 25.3508 19.154 25.2633 19.1346 25.5417C18.744 25.36 18.2965 25.3354 17.8878 25.4733C17.8586 24.9626 18.3736 24.6778 18.2343 24.2467C19.8535 23.6103 18.0886 22.2325 18.372 21.3177L17.4717 21.5898C17.4943 21.4768 17.517 21.3639 17.5412 21.2493C17.4054 21.238 17.27 21.2747 17.1591 21.3527ZM28.4595 21.558C28.6214 21.5898 28.6425 21.628 28.6327 21.7282H28.2166C28.249 21.612 28.2798 21.515 28.4595 21.558ZM17.6789 22.2055C17.7032 22.25 17.7259 22.2962 17.7486 22.3407L17.5412 22.4091L17.6789 22.2055ZM33.2783 22.2739L33.4158 22.4091L33.2086 22.4775C33.2313 22.4091 33.254 22.3407 33.2783 22.2739ZM44.9931 22.4441C44.9202 22.565 44.7227 22.5459 44.577 22.5459V22.7496C44.3033 22.4314 43.3334 22.5905 43.3302 23.09C42.8541 22.7957 42.3118 23.3589 42.2891 23.8394C41.9571 23.7026 41.4989 23.6707 41.8033 24.1114C41.6268 24.1464 41.7013 24.366 41.7337 24.5203H41.5264V24.794C42.6291 24.7415 42.4866 25.1551 41.5264 25.1344C41.5588 25.3174 41.7272 25.4844 41.6641 25.7469C41.9361 25.2792 42.4445 25.8885 41.941 26.019C42.1482 26.4024 43.0743 25.9299 42.7732 26.6999C43.5196 26.0413 43.5455 27.8868 44.2984 27.7897C44.2758 27.8581 44.2532 27.9266 44.2289 27.995L44.5073 27.9265C44.4604 28.0856 44.4134 28.2447 44.3681 28.4038L45.963 28.5391C45.9387 28.4261 45.916 28.3132 45.8934 28.1986C47.2762 28.1986 48.4453 26.2894 47.6956 25.2028C48.3174 25.0437 47.4187 24.5664 47.5919 24.2833C47.6389 23.6612 46.6042 23.2014 46.5864 22.6812L46.2399 22.8864C46.3095 22.7496 46.3791 22.6143 46.4471 22.4775C45.9646 22.6207 45.338 22.3709 44.9931 22.4441ZM15.8476 22.4441C15.9804 22.4855 15.948 22.7369 15.9512 22.8864L16.2281 22.818C16.2054 22.9309 16.1828 23.0455 16.1585 23.1585C15.8655 23.1282 15.8023 22.5905 15.4655 22.6143C15.5723 22.5316 15.7213 22.398 15.8428 22.4441H15.8476ZM28.6392 22.4775H28.7785L28.7089 22.6143C28.6797 22.5682 28.6554 22.5221 28.6327 22.4775H28.6392ZM28.0159 23.09L28.0839 23.2269L27.8766 23.2953L28.0159 23.09ZM15.4331 23.3287L15.5367 23.3637C15.4285 23.426 15.3392 23.5157 15.2783 23.6234C15.2173 23.7312 15.187 23.853 15.1903 23.9762C15.1627 23.771 15.1335 23.5148 14.9133 23.4989C15.1367 23.5801 15.2437 23.3128 15.4347 23.3287H15.4331ZM27.739 23.6007L27.8086 23.6357C27.7644 23.7034 27.7024 23.7581 27.6291 23.794C27.5559 23.8298 27.4741 23.8455 27.3925 23.8394C27.4832 23.7487 27.6353 23.5594 27.7309 23.6007H27.739ZM31.3449 23.5673C31.5214 23.8346 31.7336 24.2482 31.8987 24.5219C31.5603 24.6237 31.5441 24.0812 31.2057 24.1814C31.298 24.4408 31.23 24.6683 30.9288 24.6587C30.9515 24.7494 30.9741 24.8401 30.9984 24.9308C30.2779 24.8846 30.9984 24.3135 30.7199 23.9762C31.0178 24.1194 31.2089 23.841 31.3368 23.5673H31.3449ZM15.6776 23.771C15.7003 23.8394 15.723 23.9078 15.7472 23.9762L15.4687 24.0446L15.6776 23.771ZM28.0855 23.9078C28.2911 23.8616 28.5712 24.4376 28.4336 24.5887C28.0871 24.5426 28.0466 24.2164 28.0774 23.9078H28.0855ZM32.1772 24.0446L32.4541 24.7255C32.3263 24.6702 32.2252 24.5684 32.1721 24.4414C32.119 24.3145 32.1179 24.1723 32.1691 24.0446H32.1772ZM27.6709 25.031C27.6709 25.1456 27.786 25.2108 27.8782 25.2697L28.0175 24.9976L27.6709 24.9292V25.031ZM41.813 25.2028C41.8357 25.2474 41.8583 25.2935 41.8826 25.3381C41.8502 25.2935 41.8276 25.2474 41.8049 25.2028H41.813ZM14.8453 25.3381C14.868 25.3842 14.8907 25.4288 14.915 25.4749H14.7757L14.8453 25.3381ZM28.0855 25.5083C28.13 25.5739 28.1933 25.625 28.2673 25.6553C28.3414 25.6856 28.4229 25.6937 28.5017 25.6785C28.4855 25.451 28.1777 25.4017 27.9478 25.3381L28.0855 25.5083ZM15.7472 26.019C15.8606 26.0572 15.9982 26.5345 16.0937 26.7683C15.7763 26.7954 15.4444 26.1765 15.7391 26.019H15.7472ZM32.5869 26.0874L33.003 26.2926H32.6565C32.6807 26.3594 32.7034 26.4279 32.7261 26.4963H32.5869V26.0874ZM15.1529 26.4963L15.1174 26.5647H15.2566L15.187 26.4279L15.1529 26.4963ZM33.003 26.8367H33.0726V27.042H32.7958C32.846 26.9624 32.922 26.8383 32.9997 26.8383L33.003 26.8367ZM32.033 27.1772L32.2403 27.2456C32.2096 27.3713 32.0881 27.4047 31.9635 27.3824C31.9829 27.3156 32.0072 27.2456 32.0299 27.1772H32.033ZM44.8588 27.9265L44.9268 28.0634H44.7891C44.8085 28.0172 44.8312 27.9727 44.8555 27.9265H44.8588Z" fill="#F8F963"/>
  </g>
  <defs>
    <clipPath id="clip0_1762_1728">
      <rect width="66" height="47" fill="white"/>
    </clipPath>
  </defs>
</svg>