<svg xmlns="http://www.w3.org/2000/svg" width="133" height="4" viewBox="0 0 133 4" fill="none">
  <g clip-path="url(#clip0_1762_1808)">
    <path d="M22.0439 3.88731L21.9711 3.74003L22.1905 3.64098C22.2798 3.81302 22.2214 4.18709 22.0439 3.88731ZM6.95261 3.69051C6.98836 3.41419 6.47586 3.01537 6.29351 3.05056C6.31735 3.14831 6.34237 3.24737 6.36621 3.34642C5.91092 3.52498 4.85972 4.2718 4.97533 3.24736C4.86262 3.18086 4.73629 3.14677 4.60823 3.14831C4.63326 3.27864 4.65709 3.40898 4.68212 3.53932H4.09574C4.15533 3.29037 3.78943 3.29298 3.58324 3.24346V3.73612C3.19708 3.43374 2.53918 3.77522 2.15302 3.63707C1.88723 3.35163 1.77521 3.20566 1.38428 3.44026C1.60954 3.16786 1.80381 1.73547 1.23768 2.25942C1.16855 1.99093 0.975467 1.98441 0.797881 2.16037C1.21145 2.59047 0.828878 4.10367 0.285393 3.24346L0.50469 3.34251V3.1444C0.266319 3.18089 0.0625068 3.10269 -0.0078125 2.84984L0.797881 2.55398C0.760321 2.50034 0.734096 2.43828 0.721077 2.37224C0.708058 2.3062 0.708574 2.23783 0.72259 2.17204C0.736606 2.10625 0.763763 2.04466 0.802129 1.99172C0.840495 1.93877 0.889109 1.89577 0.944476 1.86581C0.762123 1.82801 0.696575 1.66509 0.72518 1.4748C1.07558 1.66118 1.32111 1.28451 1.60357 1.57386C1.57855 1.44352 1.55471 1.31318 1.53087 1.18285H1.82764L1.75494 1.47741C1.99331 1.44221 2.19711 1.52042 2.26743 1.77327C2.54751 1.29754 3.27455 1.94662 3.58563 1.2806L3.43903 2.06913L3.80492 1.97007V2.26594L3.58563 2.16688V2.36369H3.87882V2.16688H4.31862L4.09813 1.67421C4.39847 1.76805 4.91811 1.80455 4.83111 2.16688C5.12311 1.83974 5.40677 1.34055 5.78459 1.47741L5.63799 1.86841C6.01581 1.73808 6.0897 2.17731 6.36979 2.16297C6.31258 1.87363 6.13143 1.71071 5.8573 1.77196V1.4761C6.18029 1.49565 6.81913 1.37053 6.81078 1.77196C6.75358 1.53866 7.06107 1.52172 7.24938 1.4761L7.10398 1.0851H7.32327V1.2819H7.54853V1.57777L7.76902 1.38096C7.76187 1.84626 8.69985 1.49565 9.0872 1.47871C9.06218 1.64293 9.03835 1.80716 9.01333 1.97138H9.38043V2.26724H9.0872V2.46405L9.7463 2.16819C9.89528 2.53052 9.65574 3.27995 9.38043 2.75861C9.3163 2.91276 9.29078 3.08279 9.30652 3.25127C9.48053 3.20044 9.49246 3.47545 9.52583 3.64228L9.7463 3.54453V3.83909C9.4245 3.74003 8.82381 3.04665 8.79282 3.93814C8.55445 3.71527 8.06223 3.69963 8.05984 3.05186V3.54453L7.84053 3.44547V3.93814C7.54495 3.9225 7.55092 3.61882 7.62124 3.34772C7.45557 3.72309 7.01339 3.4559 6.96214 3.93814L6.95261 3.69051ZM26.6527 3.39464C26.6289 3.27995 26.6039 3.16525 26.58 3.05056L27.2391 3.24736C27.2046 3.67226 26.7827 4.02156 26.6575 3.39464H26.6527ZM22.8078 3.24736L22.9914 2.85636C22.9345 2.96682 22.8472 3.05479 22.7419 3.10769C22.6366 3.1606 22.5186 3.17573 22.405 3.15092V3.34903C21.7852 2.93586 20.9283 3.63837 20.0618 3.24997V3.54583C19.9068 3.57842 19.7042 3.37379 19.5493 3.24997C19.5421 3.51064 19.3324 3.57842 19.1095 3.54583C19.299 3.2995 19.1858 2.89416 19.1095 2.5605H19.33C19.1572 2.23466 19.7173 1.88796 19.9891 1.97007L19.8425 1.47741H20.1345V1.86841H20.4277C20.4039 2.12908 20.3788 2.38975 20.355 2.65043C20.3788 2.45362 20.4039 2.25942 20.4277 2.06001C20.7161 2.78467 21.3895 1.84365 20.5743 1.96095C20.6398 1.7081 20.7733 1.49826 21.0141 1.46828C21.3478 2.43277 22.0033 0.48034 21.9676 1.85929L22.1142 1.56343L22.3335 1.76024V1.36923C22.7542 1.64684 23.219 1.80585 23.6517 1.56604V1.76284H23.8769L23.6576 2.0587C24.0759 2.46405 24.4979 1.84235 24.536 1.36923L24.9031 1.66379H24.6826V1.95965H25.1224V1.56864L25.3417 1.8645C25.6063 0.995163 25.6992 1.88927 26.0747 2.06131L25.9281 1.27278L26.3679 1.76545V1.07597C26.4871 1.32882 26.7254 1.70159 26.8804 1.27278C27.0234 0.975616 27.493 1.40312 27.6122 0.978221L27.4656 1.8645C27.9161 0.460787 27.6432 2.12517 28.3452 1.8645C28.0174 2.44319 27.5883 2.64652 27.1736 2.94629L26.5872 2.55528C26.5371 3.49761 25.213 3.52758 25.1224 2.75209C24.7756 2.88242 24.0307 2.93456 24.0974 3.54062L23.8769 3.34381C23.8042 3.6488 23.4919 3.65923 23.2178 3.63837V3.34381C23.0593 3.31383 22.8197 3.52107 22.6326 3.63837L22.8078 3.24736ZM27.9328 3.54323L27.9685 3.44417L27.8958 3.64098C27.9149 3.60839 27.9292 3.57581 27.9399 3.54323H27.9328ZM44.2278 3.44417C44.0705 3.24997 44.1372 3.11312 44.2278 2.9515C43.3995 2.85115 43.9596 2.74818 44.0085 2.26333H43.496V2.06652H43.3494L43.496 2.7547H43.2028V2.06652C42.9835 2.37803 42.6819 3.13397 42.3971 3.05056C42.5532 2.07174 42.1814 2.53964 41.6641 2.80422C41.1504 2.90198 41.2052 2.16167 40.7106 2.55789C40.7345 2.42755 40.7583 2.29722 40.7833 2.16688H40.564C40.5807 2.43928 40.1469 2.48099 40.2708 2.85636H40.0503C39.9633 3.60709 39.4401 2.89025 38.8788 3.24736C38.3293 3.47415 38.1541 3.41941 38.2936 2.9515C37.992 2.988 37.7143 2.92804 37.781 2.5605L38.2197 2.65955C38.1494 2.16949 38.1148 1.63902 37.781 1.2806C38.1183 1.12941 38.6011 0.889591 38.6595 1.37965L38.8788 1.18285C38.9002 1.37184 38.9896 1.52563 39.172 1.47741C39.0015 1.27538 38.8323 1.03426 38.9526 0.789233C38.9824 1.27799 39.5486 1.40833 39.9061 1.18024L39.9788 1.4748C40.1981 0.944334 41.1528 1.10595 41.7368 1.08379C41.7058 2.06652 42.4197 0.760562 43.055 1.2806V0.986041H43.2016C43.1766 1.2806 43.1527 1.57646 43.1277 1.87232C43.6855 1.95574 43.9263 0.257466 44.5925 1.2806C44.6664 1.15027 44.7391 1.01993 44.813 0.889594C44.6592 1.40051 45.3732 1.81237 45.4721 1.18545C45.2802 1.29624 45.1145 1.23628 45.105 0.988647C45.3243 0.816603 45.8594 1.03166 45.7641 1.37965L45.9107 1.2806C45.9357 1.34707 45.9595 1.41093 45.9846 1.47741C46.4613 0.602853 47.0739 1.9427 47.8153 1.0864C47.8761 1.59731 48.1621 2.0587 48.621 1.67682L48.3278 1.57907C48.3826 0.523348 48.9416 0.701908 49.2074 1.57907H49.0608V2.16949C48.5137 1.94271 48.609 3.05968 48.1073 2.75991L48.2539 2.3689C47.8963 2.47187 47.7283 2.03133 47.5948 1.67943C47.5697 1.97529 47.5459 2.27115 47.5209 2.56571C47.6925 2.43537 47.8224 2.56571 47.8868 2.76252H47.3743V2.27115C47.2841 2.26396 47.195 2.29613 47.1264 2.36061C47.0578 2.42509 47.0154 2.51664 47.0084 2.61524C46.9381 2.85896 46.4291 2.84854 46.5686 3.25518C46.1228 3.09748 45.7104 3.95769 45.4709 3.25518V3.55105C45.0966 3.61882 45.1682 2.92804 45.397 2.76252L45.1038 2.66476V2.95932L44.8118 2.86157V3.14831H44.6652L44.9584 3.53932C44.6783 3.3399 44.4542 3.73352 44.2349 3.44417H44.2278ZM24.8936 3.44417V3.34642L25.1129 3.44417L24.8936 3.54323V3.44417ZM26.9805 3.54323H27.0901C27.0663 3.44417 27.0413 3.34642 27.0175 3.24736L26.7969 3.34642C26.8375 3.44287 26.8685 3.55235 26.9877 3.54323H26.9805ZM27.6765 3.39464L27.7492 3.24736V3.54323H27.6026L27.6765 3.39464ZM123.47 3.19784C123.542 2.9111 123.55 2.83681 123.691 2.85375V3.14831C123.785 2.92674 123.977 3.01797 124.13 3.14831C124.106 2.78858 124.081 2.42755 124.057 2.06652H124.203C124.203 3.31123 125.276 2.58787 124.716 1.67552C124.954 1.72374 125.271 1.8254 125.375 1.57777C125.441 1.77327 125.571 1.91012 125.741 1.77457V2.36499C125.933 2.0548 126.228 2.14342 126.474 2.36499V2.07043C125.555 1.89969 127.547 0.615889 127.573 1.57777C127.597 1.47871 127.62 1.38096 127.646 1.2819C127.943 1.49956 128.241 1.3979 128.451 1.0851V1.57777H128.305L128.451 1.87363C128.638 1.70549 128.593 1.29754 128.598 0.987346H128.744V1.2819H128.964V1.07597L129.183 1.27278C129.204 0.881774 130.136 1.46046 130.209 1.07597C130.328 1.38096 130.917 1.12289 131.234 1.07597C130.675 1.64424 131.867 1.44613 131.893 1.76545L132.333 1.17503C132.251 1.5139 132.71 1.6312 132.992 1.76545C132.966 1.9779 132.779 1.93488 132.625 1.8645C133.065 2.77685 132.245 3.53019 131.527 2.84854C131.73 3.27083 130.947 3.36988 130.648 3.34121C130.8 3.05317 131.005 2.70386 130.794 2.45492C130.747 3.33208 130.198 3.46893 129.623 3.14309L129.769 3.43896H129.55V2.45492H129.33C129.432 3.1066 129.063 3.56669 128.451 3.43896V3.24215C127.866 4.0007 126.622 2.84463 126.187 3.43896C126.163 3.34121 126.138 3.24215 126.114 3.14309C125.876 3.31123 125.756 2.94498 125.455 3.04534V3.34121H125.015L125.234 2.84854L125.015 2.74948C125.009 3.03492 124.786 3.04013 124.575 2.94629L124.795 3.24215C124.37 2.84072 124.168 3.71397 123.697 3.53801L123.844 3.24215L123.404 3.53801C123.429 3.42202 123.454 3.31253 123.478 3.19784H123.47ZM2.04338 3.44417L2.18997 3.14831H2.04338V3.44417ZM41.0789 3.34642C41.1028 3.31253 41.1278 3.27995 41.1516 3.24736L41.005 3.44417L41.0789 3.34642ZM41.9943 3.34642C42.0062 3.31253 42.0181 3.27995 42.0312 3.24736C42.0062 3.31253 41.9823 3.3777 41.9573 3.44417L41.9943 3.34642ZM87.1452 3.10009C87.1202 2.98539 87.0963 2.86939 87.0713 2.7547C86.9342 3.12094 86.7078 3.43766 86.3395 3.34642V3.14831L85.094 3.34642C85.2752 2.98539 85.5577 2.47969 85.1679 2.26333C85.1429 2.49272 85.119 2.72211 85.094 2.9515L84.6554 2.85375C84.9295 2.62176 84.8056 2.15385 84.7281 1.77066L85.0213 1.67161C84.9963 1.57386 84.9724 1.4748 84.9474 1.37705C84.9396 1.42826 84.92 1.47643 84.8904 1.51701C84.8607 1.5576 84.8221 1.58924 84.7782 1.60895C84.7343 1.62866 84.6865 1.63578 84.6394 1.62964C84.5922 1.6235 84.5473 1.6043 84.5088 1.57386C84.5327 1.77066 84.5577 1.96486 84.5815 2.16428L84.1429 2.06652V2.45753H84.2883C84.1143 2.60742 84.1691 2.89937 84.2156 3.1457C83.8271 3.1457 83.2931 3.55886 83.4099 2.65434H83.2633V3.04534L82.9701 2.94629L83.044 3.24215L82.8974 3.14309V3.34121C82.6591 3.44157 82.7663 2.74818 82.5315 2.84854V3.23955H81.7259V2.74688L81.2134 2.84593C81.5626 1.71592 80.4756 2.67258 80.4077 2.06392C80.7652 2.06392 81.1228 0.592428 81.652 1.27539L81.7985 0.88438C81.9571 1.19327 82.4183 0.74492 82.4576 1.27539C82.4505 0.941727 82.6877 0.830942 82.9701 0.88438C82.7604 1.23107 83.317 1.28581 83.1167 1.57386C83.2848 0.896111 84.2049 1.50087 84.2156 0.88438C84.295 0.930716 84.359 1.00332 84.3984 1.0918C84.4378 1.18029 84.4506 1.28013 84.4349 1.37705C84.7794 0.411261 85.1929 1.54127 85.827 0.986041C85.802 1.11638 85.7781 1.24671 85.7531 1.37705L86.4122 1.08119C86.4372 1.21152 86.4611 1.34186 86.4861 1.47219C86.5374 1.15809 86.6947 0.902625 86.9986 0.980827C86.9748 1.17763 86.9497 1.37183 86.9259 1.57125L87.2918 1.47219L87.1452 1.08119C87.4253 1.27017 87.7411 1.52694 88.0236 1.47219V1.08119H88.1702C88.1463 1.21152 88.1213 1.34186 88.0975 1.47219H88.2441C88.4217 0.619799 88.7733 1.41094 88.7923 1.81758C89.163 1.81758 89.1213 1.13072 89.1225 0.784023H89.3418C89.1427 1.24932 89.5158 2.12127 89.5992 1.22716C89.6195 0.104973 90.9353 2.37933 91.1736 1.07858C91.5717 1.20891 91.5551 2.4445 91.0998 1.86059C91.0404 1.94287 91.0024 2.04107 90.9896 2.14493C90.9768 2.24879 90.9897 2.3545 91.0271 2.45101L91.1736 2.15515C91.5312 2.72863 90.7196 3.11442 90.368 3.3373C90.5217 3.13788 90.4681 2.91501 90.2941 2.74557C90.1479 2.94194 90.0017 3.13919 89.8555 3.3373C89.9032 3.17307 89.952 3.00885 90.0009 2.84463C89.778 2.87852 89.5694 2.81465 89.5623 2.54876C89.2691 2.63609 89.188 3.10139 89.5623 3.04143C89.2047 3.46893 88.2643 3.0662 87.877 3.3373C87.8472 2.49533 87.5194 3.01797 87.2179 3.43505C87.2012 3.32948 87.1762 3.21478 87.1523 3.10009H87.1452ZM122.958 3.34642C122.934 3.31253 122.909 3.27995 122.885 3.24736H123.178L123.032 3.44417L122.958 3.34642ZM1.16379 3.19784L1.31038 3.05056C1.29012 3.23954 1.20072 3.39334 1.01718 3.34642L1.16379 3.19784ZM4.09336 3.34642L4.31385 3.14831H4.09336V3.34642ZM23.5015 3.34642L24.014 3.14831H23.5015V3.34642ZM44.3005 3.34642C44.4829 3.30862 44.5496 3.1457 44.521 2.95541C44.3458 2.988 44.279 3.15222 44.3076 3.34642H44.3005ZM60.7063 3.24736C60.5037 3.15613 60.4751 3.10139 60.487 2.9515H60.7063C60.6861 2.53443 60.2094 2.51227 59.9734 2.7547C60.0187 2.52661 59.8851 2.39106 59.6813 2.36369C59.7052 2.23335 59.7302 2.10302 59.7541 1.97268C59.4501 1.96356 59.319 1.70158 59.3143 1.38226C59.5979 1.34056 59.7707 0.949546 60.1938 1.0864V0.791842C60.6777 0.842673 61.2081 0.490767 61.7313 0.742314C61.9983 0.777505 62.1783 0.0762999 62.3904 0.299174C62.0531 0.803573 62.748 0.950852 63.1234 0.889594C62.9375 0.459486 63.5251 0.230096 63.8552 0.396926C63.5811 0.605463 63.4154 1.50999 63.7086 1.72635C63.9839 1.65075 64.1377 0.992558 64.5882 1.28321L64.4416 0.595034H64.8075C64.7837 0.464699 64.7586 0.334363 64.7348 0.204027C65.7956 0.121916 65.0923 1.04078 64.9541 1.58298C65.0188 1.66507 65.0544 1.76983 65.0544 1.87819C65.0544 1.98655 65.0188 2.09131 64.9541 2.1734C65.1281 2.12257 65.14 2.39758 65.1734 2.56441C64.9994 2.61524 64.9875 2.34023 64.9541 2.1734C64.6955 2.28549 64.8206 2.64913 65.0268 2.76382C64.643 2.67519 64.2628 2.52922 64.0733 2.1734L64.146 2.76382C63.742 2.45884 63.3749 2.7573 63.5596 3.25649C63.3213 3.31775 63.1413 2.98148 62.9744 2.76382L62.8278 2.96063C62.7611 2.50706 61.9852 2.53703 61.6562 2.3702C61.8493 2.56571 62.0758 2.78989 62.0221 3.05968H62.3881C62.1235 3.20044 61.9113 3.05968 61.8028 2.76382C62.0066 3.36597 61.0115 3.38813 60.7135 3.24736H60.7063ZM103.77 3.10009C103.63 2.84593 103.503 2.88112 103.331 2.9515V2.7547H103.184V3.1457C103.009 3.09096 102.772 3.01537 102.744 3.24476C102.769 3.00234 102.722 2.77164 102.525 2.65434C102.55 2.75209 102.574 2.85114 102.599 2.9489H102.378V2.55789H102.159L102.306 3.05056L102.012 3.14831C102.211 2.98539 102.079 2.63348 102.012 2.36629C102.27 2.45492 102.345 1.95053 102.599 2.16949C101.949 1.30146 102.735 0.562449 103.258 1.67682V1.28581H103.477L103.331 0.894805C103.738 1.02514 104.109 0.684964 104.649 0.797053V0.993861L105.454 0.797053L105.528 1.48523C105.656 1.32492 105.801 1.0486 105.967 1.09422C105.943 1.19328 105.918 1.29103 105.894 1.39008C106.214 1.41615 106.848 0.217063 107.066 1.09422L106.847 0.99647C106.895 1.12681 106.944 1.25714 106.992 1.38748C107.015 1.34682 107.048 1.31331 107.086 1.29009C107.125 1.26687 107.168 1.25469 107.212 1.25469C107.256 1.25469 107.299 1.26687 107.337 1.29009C107.376 1.31331 107.408 1.34682 107.432 1.38748C107.574 0.553329 108.454 0.441239 108.677 1.28842C108.701 1.1242 108.726 0.961276 108.75 0.797053L109.336 1.18806V0.797053C110.073 0.883075 112.016 0.038501 112.412 1.09161H112.119C112.062 1.35228 112.271 1.49435 112.485 1.58428L111.973 1.78109C112.163 2.34414 111.209 2.15515 111.167 2.5631C110.963 2.99582 110.259 2.57223 109.849 2.95411C109.824 2.7573 109.8 2.5631 109.776 2.36369C110.119 2.40279 110.465 2.34023 110.581 1.97268H110.068L110.142 1.67682C109.324 1.2415 109.881 2.98018 109.262 2.66216C109.087 3.3777 108.364 2.80553 108.018 2.66216C108.042 2.5631 108.067 2.46535 108.091 2.36629C107.711 2.35847 107.68 3.48718 107.212 2.66216C107.038 3.53019 106.571 3.13788 106.077 3.00624C105.711 2.82247 105.059 3.3399 104.942 2.75991C104.917 2.89025 104.893 3.02058 104.868 3.15092C104.574 2.75079 104.036 3.48718 103.777 3.10009H103.77ZM28.9208 3.14831C28.5978 3.05838 28.6562 2.80683 28.7015 2.55789H28.4083C28.4179 2.2138 28.5084 1.86972 28.8481 1.86972C28.549 1.67682 27.928 1.03948 28.6276 1.27799V0.58982C29.4071 0.761863 29.8362 1.22456 30.0197 2.16428C29.8012 2.2127 29.6091 2.35388 29.4855 2.5569C29.362 2.75991 29.3171 3.0082 29.3606 3.24736C29.2331 3.25128 29.1842 3.23172 28.928 3.14831H28.9208ZM41.3352 3.10009C41.3232 3.05056 41.3101 3.00103 41.2982 2.9515L41.5175 3.05056L41.3721 3.24736C41.3662 3.19784 41.3542 3.14831 41.3423 3.10009H41.3352ZM45.546 3.24736L45.8392 3.14831L45.546 2.9515V3.24736ZM64.0388 3.14831L64.0018 3.05056L64.295 3.14831C64.2152 3.18611 64.0876 3.27213 64.0423 3.14831H64.0388ZM84.4349 3.19784L84.5088 3.14831L84.3622 3.24736L84.4349 3.19784ZM84.7281 3.19784L84.802 3.14831L84.6554 3.24736L84.7281 3.19784ZM107.254 3.14831L107.364 3.05056L107.143 3.24736L107.254 3.14831ZM123.33 3.19784L123.403 3.14831L123.256 3.24736L123.33 3.19784ZM126.479 3.24736L126.625 3.14831L126.405 2.9515L126.479 3.24736ZM128.968 3.24736C129.048 3.20103 129.112 3.12843 129.151 3.03994C129.191 2.95145 129.203 2.85161 129.188 2.7547H129.042V2.26333H128.822C129.046 2.50966 128.75 2.9111 128.971 3.24736H128.968ZM5.85611 3.14831L6.1493 2.9515L5.78339 2.7547C5.80961 2.88634 5.83345 3.01797 5.85848 3.14831H5.85611ZM8.19928 3.14831C8.34707 3.01797 8.61524 2.73645 8.34588 2.65694C8.24457 2.67259 8.23146 2.9893 8.20167 3.14831H8.19928ZM81.4374 3.10009L81.5101 3.05056L81.3635 3.14831L81.4374 3.10009ZM86.0511 3.14831C86.0272 2.88764 86.0022 2.62697 85.9784 2.36629V2.5631H85.6852C85.6316 2.82117 85.8532 3.00364 86.0535 3.14831H86.0511ZM125.233 3.14831H125.38L125.307 2.85375C125.284 2.9515 125.261 3.05056 125.236 3.14831H125.233ZM127.211 3.14831L127.431 2.85375H127.211V3.14831ZM7.46748 3.05056C7.49132 2.9515 7.51636 2.85375 7.5402 2.7547C7.63912 2.99451 7.87152 2.86939 8.05269 2.7547C7.94582 2.70582 7.8543 2.62394 7.78932 2.51908C7.72434 2.41422 7.68871 2.29093 7.68679 2.16428C7.61647 2.46014 7.54853 2.7547 7.46987 3.05056H7.46748ZM8.49247 3.05056H8.63907V2.65955L8.49247 3.05056ZM59.0652 2.90067L59.1021 2.75209C59.1784 2.89806 59.1855 2.98409 59.0294 3.04795L59.0652 2.90067ZM65.7669 2.90067L65.5476 2.75209H66.1329C66.1329 2.21771 65.5524 2.06783 65.2544 2.45753C65.3271 2.03524 65.3307 1.33273 65.6203 1.17763L65.3272 1.07858L65.6931 0.784023C65.7753 1.02645 66.1304 0.894806 66.2067 1.27539C66.2496 0.88438 66.5142 0.691483 66.8658 0.684966V0.881774L66.6453 0.784023C66.6215 0.914358 66.5965 1.04469 66.5726 1.17503L66.8658 1.07597C66.8897 1.2402 66.9147 1.40442 66.9385 1.56864L66.1329 1.46959C66.1388 1.97007 65.9541 2.2516 66.426 2.65173C66.2699 2.71429 66.277 2.80162 66.3533 2.94629C66.1519 3.01537 65.9815 3.05968 65.7669 2.90067ZM66.5726 2.99842L66.6453 2.9489L66.4988 3.04795L66.5726 2.99842ZM88.9795 3.04795L89.1261 2.75209H88.9795V3.04795ZM122.083 2.99842L122.156 2.9489L122.009 3.04795L122.083 2.99842ZM130.322 2.99842L130.432 2.9489C130.374 2.67649 130.268 2.38063 129.992 2.45753C130.071 2.64912 130.169 3.05186 130.326 3.00103L130.322 2.99842ZM3.07193 2.9489H3.21854C3.19351 2.88373 3.16967 2.81856 3.14465 2.75209C3.12438 2.82117 3.09935 2.88634 3.07551 2.9515L3.07193 2.9489ZM48.7354 2.85114L48.7723 2.75209C48.7473 2.81856 48.7235 2.88242 48.6984 2.9489C48.7151 2.91892 48.727 2.88634 48.739 2.85375L48.7354 2.85114ZM60.9292 2.9489H61.1497C61.1247 2.88373 61.1009 2.81856 61.0758 2.75209L61.2963 2.65434L60.9292 2.55528V2.9489ZM61.369 2.9489H61.5883V2.65434H61.369V2.9489ZM40.533 2.75209L40.4961 2.65434L40.7893 2.75209C40.7059 2.79249 40.5783 2.87852 40.5366 2.7547L40.533 2.75209ZM44.4507 2.85114C45.2921 2.9515 44.4435 2.24508 44.5973 1.76805H44.4507V2.85114ZM82.4612 2.85114C82.4898 2.5996 82.7783 2.70777 82.9737 2.75209V2.45753L83.1942 2.55528L83.0476 2.35848C83.4111 2.41582 83.6567 1.65727 83.2669 1.57646C83.2919 1.7068 83.3158 1.83713 83.3408 1.96747L83.0476 1.77066V2.26333C82.8271 2.15385 82.5709 2.5631 82.3146 2.16428L82.0953 2.65694L82.4612 2.55789V2.85114ZM106.298 2.85114H106.481C106.532 2.61654 106.17 2.43016 105.968 2.26072C105.973 2.58265 105.925 2.90067 106.304 2.85375L106.298 2.85114ZM122.19 2.65434C122.071 2.14081 123.163 2.18643 123.033 2.65434C122.784 2.50315 122.486 2.69083 122.227 2.85114C122.221 2.78858 122.205 2.72211 122.196 2.65694L122.19 2.65434ZM123.18 2.75209L123.106 2.65434H123.546C123.439 2.72863 123.277 2.88112 123.186 2.7547L123.18 2.75209ZM132.476 2.85114C132.549 2.72081 132.622 2.59047 132.695 2.46014L132.402 2.55789L132.476 2.85114ZM38.4747 2.75209H38.5844V2.55528H38.2983C38.3353 2.65564 38.3663 2.76252 38.4855 2.7547L38.4747 2.75209ZM63.1198 2.75209C63.1437 2.68692 63.1687 2.62175 63.1926 2.55528C63.1794 2.62436 63.1544 2.68953 63.1306 2.7547L63.1198 2.75209ZM67.7681 2.65434C68.1352 2.02481 66.9266 2.39367 67.0351 1.27539C66.5965 -0.837354 68.7096 0.674541 68.9027 1.47219C68.7001 1.30406 68.5261 1.56994 68.3902 1.76805C68.5823 1.76868 68.7713 1.71457 68.9385 1.61104C69.1057 1.50751 69.2453 1.35814 69.3437 1.17763C69.1375 1.10725 69.2507 0.730582 69.2698 0.488158C69.5833 0.618494 69.569 0.78793 69.4164 1.07858L70.0028 1.17763L69.8562 1.86711C70.3008 1.86711 69.9659 2.56831 70.2221 2.75209C69.9992 2.69995 69.5761 2.71951 69.6369 2.45753C69.1721 2.23987 68.7132 3.11833 68.4653 2.55528C68.4403 2.62175 68.4164 2.68562 68.3914 2.75209C68.184 2.53703 67.9075 2.60872 67.6596 2.75209L67.7681 2.65434ZM112.076 2.60481C112.088 2.55528 112.101 2.50576 112.113 2.45753C112.088 2.55528 112.064 2.65434 112.039 2.75209C112.066 2.70647 112.074 2.65694 112.089 2.60742L112.076 2.60481ZM123.757 2.65434L123.83 2.55528L123.684 2.75209L123.757 2.65434ZM127.785 2.75209C128.004 2.57092 127.854 2.43798 127.711 2.26072C127.75 2.42755 127.774 2.59047 127.799 2.7547L127.785 2.75209ZM58.4657 2.55528L58.5026 2.45753C58.4776 2.5227 58.4537 2.58786 58.4287 2.65434L58.4657 2.55528ZM87.2107 2.65434C87.3645 2.524 87.5564 2.43146 87.6506 2.65434V2.35848C87.4765 2.4067 87.1643 2.42364 87.2251 2.65694L87.2107 2.65434ZM4.19585 2.55528H4.3067C4.28167 2.45753 4.25784 2.35848 4.23281 2.26072L4.0135 2.35848C4.06117 2.45753 4.09216 2.56571 4.21135 2.55789L4.19585 2.55528ZM22.3954 2.55528L22.6159 2.26072L22.3954 2.16167V2.55528ZM25.9114 2.55528C25.9352 2.49012 25.9603 2.42495 25.9841 2.35848C25.9746 2.42755 25.9495 2.49272 25.9257 2.55789L25.9114 2.55528ZM81.7187 2.55528L81.8653 2.45753L81.6448 2.35848C81.6817 2.42755 81.708 2.49272 81.733 2.55789L81.7187 2.55528ZM88.4562 2.55528C88.4801 2.49012 88.5051 2.42495 88.5289 2.35848C88.5194 2.42755 88.4944 2.49272 88.4753 2.55789L88.4562 2.55528ZM108.963 2.55528C109.012 2.49012 109.061 2.42495 109.109 2.35848C109.075 2.42755 109.026 2.49272 108.975 2.55789L108.963 2.55528ZM124.562 2.50575L124.636 2.45753L124.49 2.55528L124.562 2.50575ZM46.7843 2.45753H46.9309L46.857 2.26072C46.8475 2.3285 46.8225 2.39367 46.7986 2.46014L46.7843 2.45753ZM68.6822 2.45753C68.8908 2.31547 69.1065 2.12257 68.9754 1.86711C68.7561 1.90621 68.7251 2.2112 68.6965 2.46014L68.6822 2.45753ZM86.405 2.45753C86.5993 2.35978 86.7436 2.19686 86.6983 1.96486C86.5195 2.06522 86.3753 2.22553 86.4194 2.46014L86.405 2.45753ZM88.896 2.45753C88.8722 2.24639 88.8186 2.00136 88.6028 2.06652L88.896 2.45753ZM89.0426 2.45753C89.0915 2.35848 89.1404 2.26072 89.188 2.16167C89.1547 2.26333 89.1058 2.36108 89.0569 2.46014L89.0426 2.45753ZM104.935 2.45753C105.173 2.3272 105.14 2.03394 105.081 1.76805L104.935 2.45753ZM123.72 2.35848C123.733 2.32589 123.745 2.29331 123.757 2.26072C123.733 2.32589 123.708 2.39106 123.684 2.45753L123.72 2.35848ZM7.96807 2.35848C8.21478 2.33762 8.29821 2.12127 8.26126 1.86711H7.90609C7.9335 2.03264 7.95734 2.19686 7.98237 2.36108L7.96807 2.35848ZM62.0901 2.35848L62.3106 2.16167H62.0174C62.0567 2.22944 62.0805 2.29591 62.1044 2.36108L62.0901 2.35848ZM3.02427 2.26072C3.16371 2.26072 3.17801 2.01178 3.2078 1.86972H2.78112C2.83953 2.01569 2.90031 2.26594 3.03857 2.26333L3.02427 2.26072ZM7.38167 2.26072H7.54853V1.76805H7.40194L7.38167 2.26072ZM40.3388 2.26072C40.5068 1.88927 40.1314 1.39269 40.4854 1.17763L39.9729 1.47219C40.3531 1.49305 39.9872 2.24899 40.3531 2.26333L40.3388 2.26072ZM46.5638 2.26072H46.7104V1.86972H46.5638V2.26072ZM66.5583 2.06392C66.5464 1.84104 66.7609 1.75502 66.9242 1.67291C66.7907 1.85407 66.5762 2.07565 66.7049 2.26463H66.5583V2.06392ZM85.0869 2.26072C85.2061 2.00657 85.4373 1.67421 85.3074 1.47219C85.0189 1.58168 85.0368 1.94401 85.1012 2.26333L85.0869 2.26072ZM85.5994 2.26072H85.6733V1.96486L85.4539 2.06392C85.4957 2.14733 85.5279 2.26724 85.6149 2.26333L85.5994 2.26072ZM104.348 2.26072L104.495 1.86972L104.202 2.06652L104.348 2.26072ZM107.209 2.26072V2.06392H107.428C107.404 2.12908 107.379 2.19425 107.355 2.26072H107.575C107.634 2.01178 107.268 2.01439 107.062 1.96486L107.209 2.26072ZM127.202 2.26072C127.488 2.24248 127.719 2.09389 127.715 1.76805C127.654 1.84796 127.569 1.90171 127.475 1.91984C127.381 1.93796 127.285 1.91929 127.202 1.86711V2.26072ZM86.9175 2.16167H87.063V1.86711H86.9175V2.16167ZM106.545 2.16167C106.783 2.12517 106.808 1.82019 106.838 1.57125L106.545 2.16167ZM108.229 2.16167H108.303C108.327 1.91924 108.279 1.68855 108.082 1.57125C108.128 1.76023 108.141 2.13951 108.245 2.16428L108.229 2.16167ZM112.111 2.01439V1.86711H112.258L112.111 2.16167V2.01439ZM122.621 2.01439L122.656 1.86711C122.792 2.02221 122.923 1.81237 123.024 1.669C123.008 1.92967 122.803 2.06652 122.584 2.16167C122.611 2.11866 122.624 2.06652 122.636 2.017L122.621 2.01439ZM0.182881 1.82019C0.190396 1.72939 0.217559 1.64186 0.262115 1.56481C0.30667 1.48775 0.367344 1.4234 0.439132 1.37705C0.455818 1.68073 0.458206 2.05219 0.145941 2.06652L0.182881 1.82019ZM6.59505 2.06652L6.74165 1.77066H6.59505V2.06652ZM27.3953 2.06652V1.37705H27.2487L27.3953 2.06652ZM41.384 2.06652C42.111 1.12289 40.9347 0.893502 40.5783 1.77066C40.7523 2.03133 40.9192 1.80976 41.0169 1.57386V1.86972C41.1838 1.72765 41.3137 1.86972 41.3793 2.06652H41.384ZM45.9977 2.06652L46.1443 1.86972L45.9238 1.77066L45.9977 2.06652ZM61.3726 2.06652C61.3964 1.96747 61.4214 1.86972 61.4453 1.77066L61.226 1.67161L61.3726 2.06652ZM83.7103 2.06652H84.1501V1.77066C83.9606 1.81628 83.6531 1.83322 83.7079 2.06652H83.7103ZM107.732 2.06652C108.112 1.95183 107.939 1.36402 107.879 0.983436L107.585 1.27799L107.951 1.4748L107.732 2.06652ZM123.703 1.91794L123.629 1.77066L123.996 1.96747C123.883 2.02091 123.771 2.08607 123.698 1.91794H123.703ZM6.81554 1.96747L7.18145 1.77066C7.00505 1.63511 6.87514 1.77196 6.81078 1.96747H6.81554ZM7.76902 1.96747C7.79286 1.86972 7.81789 1.77066 7.84172 1.67161C7.81193 1.77066 7.78691 1.86972 7.76307 1.96747H7.76902ZM64.4547 1.96747C64.624 1.81107 64.8242 1.76805 64.9672 1.96747C65.0101 1.75763 64.7586 1.5543 64.6013 1.37705C64.6299 1.57125 64.5632 1.73417 64.3808 1.76805C64.3999 1.83583 64.4237 1.9023 64.4487 1.96747H64.4547ZM122.386 1.82019V1.67161H122.532L122.386 1.96747V1.82019ZM123.339 1.91794L123.412 1.86972L123.265 1.96747L123.339 1.91794ZM124.181 1.77066C124.169 1.70549 124.157 1.64033 124.144 1.57386H124.29C124.267 1.70419 124.242 1.83453 124.218 1.96486C124.199 1.9023 124.186 1.83583 124.174 1.77066H124.181ZM8.50202 1.86972L8.72133 1.77066L8.57592 1.67161L8.50202 1.86972ZM59.7683 1.86972L59.915 1.57386L59.4751 1.4748L59.7683 1.86972ZM109.13 1.86972V1.57386H108.911C108.975 1.67161 109.05 1.77066 109.123 1.86972H109.13ZM131.761 1.86972C131.737 1.80325 131.712 1.73938 131.688 1.67161C131.705 1.73808 131.73 1.80325 131.754 1.86972H131.761ZM38.7488 1.77066L38.8954 1.57386L38.6023 1.4748L38.7488 1.77066ZM42.3375 1.77066L42.4841 1.57386H42.2648L42.3375 1.77066ZM44.9751 1.77066C44.9989 1.70549 45.0227 1.64033 45.0478 1.57386C45.0156 1.63902 44.9918 1.70549 44.9727 1.77066H44.9751ZM46.6592 1.77066C46.6341 1.64032 46.6103 1.50999 46.5853 1.37965C46.6032 1.50869 46.627 1.63902 46.652 1.77066H46.6592ZM60.9399 1.67161L61.0138 1.57386H60.574C60.6789 1.64554 60.8434 1.79803 60.9328 1.67161H60.9399ZM88.2584 1.77066L88.4777 1.37965C88.2965 1.32622 88.2846 1.59731 88.2513 1.77066H88.2584ZM90.9675 1.77066C90.9925 1.70549 91.0163 1.64033 91.0414 1.57386C91.0092 1.63902 90.9854 1.70549 90.9603 1.77066H90.9675ZM111.035 1.77066C111.317 1.56864 111.668 1.29363 111.914 1.57386C111.963 1.44352 112.011 1.31318 112.06 1.18285L111.84 1.37965L111.694 0.886985L111.987 0.789233H111.547L111.694 1.18024C111.538 1.21934 111.355 1.28451 111.401 1.4748L111.109 1.27799C111.076 1.44221 111.053 1.60644 111.028 1.77066H111.035ZM123.229 1.67161C123.039 1.58037 123.038 1.44613 123.046 1.2806L123.559 1.47741C123.482 1.62468 123.42 1.79152 123.221 1.67161H123.229ZM48.9654 1.62338C49.323 1.34316 48.7592 1.15027 48.4887 1.08119C48.6114 1.27278 48.7997 1.67552 48.9582 1.62338H48.9654ZM81.6663 1.67161C81.6913 1.60644 81.7151 1.54127 81.7402 1.4748C81.708 1.54127 81.6818 1.60644 81.6591 1.67161H81.6663ZM110.778 1.67161H110.888C110.843 1.43309 110.78 1.11768 111.035 1.08119C110.59 0.781416 110.302 1.58559 110.771 1.67161H110.778ZM126.708 1.67161C126.733 1.60644 126.756 1.54127 126.781 1.4748C126.749 1.54127 126.725 1.60644 126.7 1.67161H126.708ZM4.84065 1.52433L4.69405 1.4748C4.69405 1.06033 5.23276 1.21413 5.13265 1.57386C5.03087 1.58005 4.92903 1.56319 4.83349 1.52433H4.84065ZM9.4543 1.52433L9.52702 1.4748L9.38159 1.57386L9.4543 1.52433ZM28.0198 1.22977C28.0079 1.11377 27.9959 0.999075 27.9828 0.88438C28.158 1.03427 28.102 1.32622 28.0567 1.57386L28.0198 1.22977ZM126.933 1.57386C126.958 1.50869 126.982 1.44352 127.007 1.37705C126.972 1.44222 126.945 1.50869 126.92 1.57386H126.933ZM22.0569 1.42658L22.1309 1.37705L21.9843 1.4748L22.0569 1.42658ZM48.1323 1.42658L48.205 1.37705L48.0584 1.4748L48.1323 1.42658ZM105.037 1.4748C105.062 1.37705 105.086 1.27799 105.111 1.18024H104.965L105.037 1.4748ZM122.834 1.42658L122.908 1.37705L122.761 1.4748L122.834 1.42658ZM131.806 1.32752C131.942 1.1633 131.79 0.952154 131.697 0.786628C131.954 0.70973 131.996 1.1242 132.063 1.37705L131.697 1.4748L131.806 1.32752ZM2.46886 1.22977L2.50462 1.08119C2.48078 1.18024 2.45574 1.27799 2.43191 1.37705C2.42356 1.32752 2.44026 1.27799 2.45337 1.22977H2.46886ZM20.3383 1.27799L20.3753 1.18024C20.3502 1.24541 20.3264 1.31058 20.3014 1.37705C20.3014 1.34446 20.3109 1.31058 20.3228 1.27799H20.3383ZM22.9377 1.27799L22.865 1.18024H23.2309C23.1284 1.25583 23.0104 1.40311 22.9234 1.27799H22.9377ZM101.742 1.32752L101.816 1.27799L101.669 1.37705L101.742 1.32752ZM112.545 1.18024L112.654 1.08119L112.435 1.27799L112.545 1.18024ZM8.07057 1.13072L8.14446 1.08119L7.99786 1.18024L8.07057 1.13072ZM25.1879 0.983436C25.1641 0.916965 25.1391 0.853099 25.1152 0.786628L25.4811 0.58982C25.6003 0.824424 25.4478 1.02775 25.2619 1.18024C25.2416 1.11377 25.2177 1.0486 25.1879 0.983436ZM26.6897 0.983436C26.7016 0.916965 26.7147 0.853099 26.7266 0.786628C26.7016 0.916963 26.6778 1.0473 26.6527 1.17763L26.6897 0.983436ZM104.29 1.18024H104.437C104.412 1.11377 104.388 1.04991 104.363 0.983436C104.339 1.0486 104.314 1.11377 104.29 1.18024ZM28.7814 1.08119L28.928 0.88438L28.6348 0.786628L28.7814 1.08119ZM47.348 0.983436L47.3111 0.88438L47.6043 0.786628L47.3838 1.08119L47.348 0.983436ZM61.7385 1.08119C61.7635 1.01602 61.7874 0.950851 61.8124 0.88438H61.6658C61.6896 0.945637 61.7146 1.01602 61.7385 1.07597V1.08119ZM63.8993 0.933908C63.8874 0.88438 63.8755 0.834852 63.8624 0.786628L64.0829 0.687572V1.07858C63.9899 1.08901 63.9315 1.07597 63.8993 0.933908ZM81.2205 0.933908V0.786628H81.5864V0.983436C81.4326 0.913055 81.2455 0.868741 81.2205 1.08119V0.933908ZM23.1058 0.834851L23.2893 0.786628L22.9222 0.88438L23.1058 0.834851ZM68.7335 0.786628C68.701 0.768251 68.6761 0.737302 68.6634 0.699838C68.6508 0.662374 68.6514 0.621094 68.6651 0.58408C68.6788 0.547067 68.7046 0.516984 68.7376 0.499725C68.7705 0.482465 68.8081 0.479272 68.8431 0.490767V0.881774L68.7335 0.786628ZM27.5371 0.687572V0.58982H27.7564L27.5371 0.786628V0.687572ZM45.807 0.684966L45.8439 0.587214C45.8189 0.652382 45.7951 0.717551 45.77 0.784023L45.807 0.684966ZM62.9077 0.684966L62.9816 0.587214L62.835 0.784023C62.8612 0.752742 62.8862 0.720157 62.9101 0.684966H62.9077ZM46.54 0.537686C46.5269 0.488159 46.515 0.438633 46.503 0.389106L46.7223 0.488158L46.5757 0.684966L46.54 0.537686ZM27.0949 0.537686L27.1688 0.488158L27.0222 0.587214L27.0949 0.537686ZM61.4071 0.389106L61.4429 0.291354L61.3702 0.488158L61.4071 0.389106ZM65.4714 0.291354V0.0945461C65.6406 0.0450184 65.6978 0.320027 65.7646 0.485553H65.4726L65.4714 0.291354ZM70.1959 0.43863L70.3055 0.389106L70.085 0.488158L70.1959 0.43863ZM63.0889 0.293959L63.1258 0.194903C63.1008 0.261374 63.0769 0.32524 63.0519 0.391711C63.0698 0.359127 63.0817 0.326543 63.0889 0.293959ZM66.3069 0.0971513L66.3438 -0.00190115C66.3188 0.0645702 66.2949 0.128432 66.2699 0.194903L66.3069 0.0971513Z" fill="black"/>
  </g>
  <defs>
    <clipPath id="clip0_1762_1808">
      <rect width="133" height="4" fill="white" transform="matrix(1 0 0 -1 0 4)"/>
    </clipPath>
  </defs>
</svg>